<?xml version="1.0" encoding="utf-8"?>
<!-- Generator: Adobe Illustrator 24.0.2, SVG Export Plug-In . SVG Version: 6.00 Build 0)  -->
<svg version="1.1" id="Capa_1" xmlns="http://www.w3.org/2000/svg" xmlns:xlink="http://www.w3.org/1999/xlink" x="0px" y="0px"
	 viewBox="0 0 40 40" style="enable-background:new 0 0 40 40;" xml:space="preserve">
<style type="text/css">
	.st0{fill:none;stroke:#19A301;stroke-linecap:round;stroke-linejoin:round;stroke-miterlimit:10;}
	.st1{fill:none;}
</style>
<g>
	<g>
		<g>
			<g>
				<path class="st0" d="M20.1,12.5c-0.9,0-1.7-0.8-1.7-1.7s0.8-1.7,1.7-1.7c0.9,0,1.7,0.8,1.7,1.7"/>
				<path class="st0" d="M20.1,12.5c1,0,1.9,0.8,1.9,1.9s-0.8,1.9-1.9,1.9c-1,0-1.9-0.8-1.9-1.9"/>
			</g>
			<g>
				<line class="st0" x1="20.1" y1="9.1" x2="20.1" y2="7.7"/>
				<line class="st0" x1="20.1" y1="17.6" x2="20.1" y2="16.2"/>
			</g>
		</g>
		<circle class="st0" cx="20" cy="12.5" r="7.3"/>
	</g>
	<g>
		<path class="st0" d="M16.2,32.1l0.8-0.8h7.8l5-4.4l2.6-4.3c0,0-1.3-1-2.6,0.1l-1.6,1.6l-1.7,1.5"/>
		<path class="st0" d="M12,27.8l2.7-2.6c0.2-0.2,0.6-0.4,0.9-0.4h2.9c0.1,0,0.3,0,0.4,0.1l1.6,0.7h4.6l1.5,0.1
			c0,2.5-1.6,2.5-1.6,2.5h-4.8L18.4,29"/>
		
			<rect x="10.5" y="26.6" transform="matrix(0.7071 -0.7071 0.7071 0.7071 -18.7063 18.1883)" class="st0" width="4.2" height="10.2"/>
	</g>
	<rect class="st1" width="40" height="40"/>
</g>
</svg>
