<svg id="Grupo_24206" data-name="Grupo 24206" xmlns="http://www.w3.org/2000/svg" width="70" height="70" viewBox="0 0 70 70">
  <g id="Grupo_24200" data-name="Grupo 24200">
    <g id="Grupo_24199" data-name="Grupo 24199">
      <g id="Grupo_24198" data-name="Grupo 24198">
        <line id="Line_4" data-name="Line 4" x2="8.375" transform="translate(41.677 62.5)" fill="none" stroke="#19a301" stroke-linecap="round" stroke-linejoin="round" stroke-width="2.4"/>
        <line id="Line_5" data-name="Line 5" x2="0.679" transform="translate(58.405 62.5)" fill="none" stroke="#19a301" stroke-linecap="round" stroke-linejoin="round" stroke-width="2.4"/>
        <line id="Line_6" data-name="Line 6" x2="8.298" transform="translate(10.916 62.5)" fill="none" stroke="#19a301" stroke-linecap="round" stroke-linejoin="round" stroke-width="2.4"/>
        <line id="Line_7" data-name="Line 7" x2="14.628" transform="translate(18.674 62.5)" fill="none" stroke="#82d400" stroke-linecap="round" stroke-linejoin="round" stroke-width="2.4"/>
      </g>
      <rect id="Rectángulo_7724" data-name="Rectángulo 7724" width="70" height="15" transform="translate(0 55)" fill="none"/>
    </g>
  </g>
  <rect id="Rectángulo_7725" data-name="Rectángulo 7725" width="70" height="70" fill="none"/>
  <path id="Trazado_29433" data-name="Trazado 29433" d="M33.94,53.87H47.22" fill="none" stroke="#fff" stroke-linecap="round" stroke-linejoin="round" stroke-width="1.5"/>
  <g id="Grupo_24202" data-name="Grupo 24202">
    <circle id="Ellipse_2" data-name="Ellipse 2" cx="5.795" cy="5.795" r="5.795" transform="translate(9.703 8.843)" fill="none" stroke="#19a301" stroke-linecap="round" stroke-linejoin="round" stroke-width="1.5"/>
    <path id="Trazado_29434" data-name="Trazado 29434" d="M36.145,53.873H22.863a8.36,8.36,0,0,1-8.36-8.36V23.759" fill="none" stroke="#fff" stroke-linecap="round" stroke-linejoin="round" stroke-width="1.5"/>
    <path id="Trazado_29435" data-name="Trazado 29435" d="M23.437,8.79h20.23l7.22,7.46V53.87H47.22" fill="none" stroke="#fff" stroke-linecap="round" stroke-linejoin="round" stroke-width="1.5"/>
    <path id="Trazado_29436" data-name="Trazado 29436" d="M43.524,8.786v8.048h7.366" fill="none" stroke="#fff" stroke-linecap="round" stroke-linejoin="round" stroke-width="1.5"/>
    <line id="Línea_3915" data-name="Línea 3915" x2="19.055" transform="translate(23.461 32.774)" fill="none" stroke="#fff" stroke-linecap="round" stroke-linejoin="round" stroke-width="1.5"/>
    <line id="Línea_3916" data-name="Línea 3916" x2="19.055" transform="translate(23.461 38.774)" fill="none" stroke="#fff" stroke-linecap="round" stroke-linejoin="round" stroke-width="1.5"/>
    <line id="Línea_3917" data-name="Línea 3917" x2="19.055" transform="translate(23.461 44.774)" fill="none" stroke="#fff" stroke-linecap="round" stroke-linejoin="round" stroke-width="1.5"/>
    <g id="Grupo_24201" data-name="Grupo 24201">
      <path id="Trazado_29437" data-name="Trazado 29437" d="M31.8,25.69a5.8,5.8,0,0,1,.261-1.819,4.688,4.688,0,0,1,.989-1.481l1.27-1.307a2.925,2.925,0,0,0,.814-1.973,2.255,2.255,0,0,0-.533-1.591,2.011,2.011,0,0,0-1.551-.575,2.331,2.331,0,0,0-1.589.523,1.77,1.77,0,0,0-.6,1.406H29.064a3.265,3.265,0,0,1,1.12-2.535,4.185,4.185,0,0,1,2.864-.964,3.956,3.956,0,0,1,2.855.982,3.559,3.559,0,0,1,1.022,2.695,4.87,4.87,0,0,1-1.57,3.339L34.3,23.435a3.255,3.255,0,0,0-.708,2.255Zm-.078,3.079a1.065,1.065,0,0,1,.267-.738,1,1,0,0,1,.79-.3,1.021,1.021,0,0,1,.795.3,1.054,1.054,0,0,1,.271.738,1.02,1.02,0,0,1-.271.729,1.041,1.041,0,0,1-.795.289.961.961,0,0,1-1.057-1.018Z" fill="#fff"/>
    </g>
  </g>
</svg>
