<?xml version="1.0" encoding="utf-8"?>
<!-- Generator: Adobe Illustrator 24.0.2, SVG Export Plug-In . SVG Version: 6.00 Build 0)  -->
<svg version="1.1" id="Capa_1" xmlns="http://www.w3.org/2000/svg" xmlns:xlink="http://www.w3.org/1999/xlink" x="0px" y="0px"
	 viewBox="0 0 40 40" style="enable-background:new 0 0 40 40;" xml:space="preserve">
<style type="text/css">
	.st0{fill:none;stroke:#19A301;stroke-linecap:round;stroke-linejoin:round;stroke-miterlimit:10;}
	.st1{fill:none;}
</style>
<g>
	<g>
		<polyline class="st0" points="20.5,21.1 18.2,31.6 20.5,35.7 		"/>
		<polyline class="st0" points="20.5,21.1 22.9,31.6 20.5,35.7 		"/>
		<line class="st0" x1="18.2" y1="15.7" x2="18.2" y2="19"/>
		<line class="st0" x1="23" y1="15.7" x2="23" y2="19"/>
		<path class="st0" d="M18.2,19l-6.4,2.9c-1.5,0.7-2.5,2.2-2.5,3.9v10h22.7v-10c0-1.7-1-3.2-2.5-3.9L23,19"/>
		<line class="st0" x1="20.6" y1="21.7" x2="18.2" y2="19"/>
		<line class="st0" x1="20.6" y1="21.7" x2="23" y2="19"/>
		<path class="st0" d="M25.1,11.9c0,2.5-2,4.5-4.5,4.5s-4.5-2-4.5-4.5"/>
		<path class="st0" d="M16,11.9V8.8c0-2.5,2-4.5,4.5-4.5s4.5,2,4.5,4.5v3.1"/>
	</g>
	<rect y="0" class="st1" width="40" height="40"/>
</g>
</svg>
