<svg id="Grupo_24204" data-name="Grupo 24204" xmlns="http://www.w3.org/2000/svg" width="70" height="70" viewBox="0 0 70 70">
  <g id="Grupo_24187" data-name="Grupo 24187">
    <g id="Grupo_24186" data-name="Grupo 24186">
      <g id="Grupo_24185" data-name="Grupo 24185">
        <line id="Line_4" data-name="Line 4" x2="8.375" transform="translate(41.677 62.5)" fill="none" stroke="#19a301" stroke-linecap="round" stroke-linejoin="round" stroke-width="2.4"/>
        <line id="Line_5" data-name="Line 5" x2="0.679" transform="translate(58.405 62.5)" fill="none" stroke="#19a301" stroke-linecap="round" stroke-linejoin="round" stroke-width="2.4"/>
        <line id="Line_6" data-name="Line 6" x2="8.298" transform="translate(10.916 62.5)" fill="none" stroke="#19a301" stroke-linecap="round" stroke-linejoin="round" stroke-width="2.4"/>
        <line id="Line_7" data-name="Line 7" x2="14.628" transform="translate(18.674 62.5)" fill="none" stroke="#82d400" stroke-linecap="round" stroke-linejoin="round" stroke-width="2.4"/>
      </g>
      <rect id="Rectángulo_7720" data-name="Rectángulo 7720" width="70" height="15" transform="translate(0 55)" fill="none"/>
    </g>
  </g>
  <rect id="Rectángulo_7721" data-name="Rectángulo 7721" width="70" height="70" fill="none"/>
  <path id="Trazado_29418" data-name="Trazado 29418" d="M33.94,53.87H47.22" fill="none" stroke="#fff" stroke-linecap="round" stroke-linejoin="round" stroke-width="1.5"/>
  <g id="Grupo_24190" data-name="Grupo 24190">
    <circle id="Ellipse_2" data-name="Ellipse 2" cx="5.795" cy="5.795" r="5.795" transform="translate(9.703 8.843)" fill="none" stroke="#19a301" stroke-linecap="round" stroke-linejoin="round" stroke-width="1.5"/>
    <path id="Trazado_29419" data-name="Trazado 29419" d="M36.145,53.873H22.863a8.36,8.36,0,0,1-8.36-8.36V23.759" fill="none" stroke="#fff" stroke-linecap="round" stroke-linejoin="round" stroke-width="1.5"/>
    <path id="Trazado_29420" data-name="Trazado 29420" d="M23.437,8.79h20.23l7.22,7.46v7.44" fill="none" stroke="#fff" stroke-linecap="round" stroke-linejoin="round" stroke-width="1.5"/>
    <path id="Trazado_29421" data-name="Trazado 29421" d="M43.524,8.786v8.048h7.366" fill="none" stroke="#fff" stroke-linecap="round" stroke-linejoin="round" stroke-width="1.5"/>
    <line id="Línea_3902" data-name="Línea 3902" x2="19.055" transform="translate(23.461 32.774)" fill="none" stroke="#fff" stroke-linecap="round" stroke-linejoin="round" stroke-width="1.5"/>
    <line id="Línea_3903" data-name="Línea 3903" x1="17.29" transform="translate(23.457 40.77)" fill="none" stroke="#fff" stroke-linecap="round" stroke-linejoin="round" stroke-width="1.5"/>
    <g id="Grupo_24188" data-name="Grupo 24188">
      <line id="Línea_3904" data-name="Línea 3904" y2="2.907" transform="translate(48.125 33.799)" fill="none" stroke="#fff" stroke-linecap="round" stroke-linejoin="round" stroke-width="1.63"/>
      <line id="Línea_3905" data-name="Línea 3905" y2="2.907" transform="translate(52.378 33.799)" fill="none" stroke="#fff" stroke-linecap="round" stroke-linejoin="round" stroke-width="1.63"/>
      <path id="Trazado_29422" data-name="Trazado 29422" d="M48.125,36.712l-5.7,2.561a3.766,3.766,0,0,0-2.221,3.433V53.873H60.3V42.706a3.764,3.764,0,0,0-2.221-3.433l-5.7-2.561" fill="none" stroke="#fff" stroke-linecap="round" stroke-linejoin="round" stroke-width="1.63"/>
      <line id="Línea_3906" data-name="Línea 3906" x1="2.127" y1="2.412" transform="translate(48.125 36.705)" fill="none" stroke="#fff" stroke-linecap="round" stroke-linejoin="round" stroke-width="1.63"/>
      <line id="Línea_3907" data-name="Línea 3907" y1="2.412" x2="2.127" transform="translate(50.252 36.705)" fill="none" stroke="#fff" stroke-linecap="round" stroke-linejoin="round" stroke-width="1.63"/>
      <path id="Trazado_29423" data-name="Trazado 29423" d="M54.243,30.4a4.008,4.008,0,1,1-8.017,0" fill="none" stroke="#fff" stroke-linecap="round" stroke-linejoin="round" stroke-width="1.63"/>
      <path id="Trazado_29424" data-name="Trazado 29424" d="M46.226,30.4V27.636a4.008,4.008,0,0,1,8.017,0V30.4" fill="none" stroke="#fff" stroke-linecap="round" stroke-linejoin="round" stroke-width="1.63"/>
    </g>
    <g id="Grupo_24189" data-name="Grupo 24189">
      <path id="Trazado_29425" data-name="Trazado 29425" d="M32.526,21.5a2.328,2.328,0,1,1,2.328-2.328" fill="none" stroke="#fff" stroke-linecap="round" stroke-linejoin="round" stroke-width="1.5"/>
      <path id="Trazado_29426" data-name="Trazado 29426" d="M32.526,21.5A2.329,2.329,0,1,1,30.2,23.83" fill="none" stroke="#fff" stroke-linecap="round" stroke-linejoin="round" stroke-width="1.5"/>
      <line id="Línea_3908" data-name="Línea 3908" y1="1.293" transform="translate(32.526 15.551)" fill="none" stroke="#fff" stroke-linecap="round" stroke-linejoin="round" stroke-width="1.5"/>
      <line id="Línea_3909" data-name="Línea 3909" y1="1.293" transform="translate(32.526 26.159)" fill="none" stroke="#fff" stroke-linecap="round" stroke-linejoin="round" stroke-width="1.5"/>
    </g>
  </g>
</svg>
