<?xml version="1.0" encoding="utf-8"?>
<!-- Generator: Adobe Illustrator 24.0.2, SVG Export Plug-In . SVG Version: 6.00 Build 0)  -->
<svg version="1.1" id="Grupo_24205" xmlns="http://www.w3.org/2000/svg" xmlns:xlink="http://www.w3.org/1999/xlink" x="0px"
	 y="0px" viewBox="0 0 70 70" style="enable-background:new 0 0 70 70;" xml:space="preserve">
<style type="text/css">
	.st0{fill:none;stroke:#FFFFFF;stroke-width:2.4;stroke-linecap:round;stroke-linejoin:round;}
	.st1{fill:none;stroke:#82D400;stroke-width:2.4;stroke-linecap:round;stroke-linejoin:round;}
	.st2{fill:none;}
	.st3{fill:none;stroke:#FFFFFF;stroke-width:1.5;stroke-linecap:round;stroke-linejoin:round;}
</style>
<g id="Grupo_24194">
	<g id="Grupo_24193">
		<g id="Grupo_24192">
			<line id="Line_4" class="st0" x1="41.7" y1="62.5" x2="50.1" y2="62.5"/>
			<line id="Line_5" class="st1" x1="58.4" y1="62.5" x2="59.1" y2="62.5"/>
			<line id="Line_6" class="st0" x1="10.9" y1="62.5" x2="19.2" y2="62.5"/>
			<line id="Line_7" class="st1" x1="18.7" y1="62.5" x2="33.3" y2="62.5"/>
		</g>
		<rect id="Rectángulo_7722" y="55" class="st2" width="70" height="15"/>
	</g>
</g>
<rect id="Rectángulo_7723" class="st2" width="70" height="70"/>
<path id="Trazado_29427" class="st3" d="M33.9,53.9h13.3"/>
<g id="Grupo_24196">
	<circle id="Ellipse_2" class="st3" cx="15.5" cy="14.6" r="5.8"/>
	<path id="Trazado_29428" class="st3" d="M36.1,53.9H22.9c-4.6,0-8.4-3.7-8.4-8.4l0,0V23.8"/>
	<path id="Trazado_29429" class="st3" d="M23.4,8.8h20.2l7.2,7.5v37.6h-3.7"/>
	<path id="Trazado_29430" class="st3" d="M43.5,8.8v8h7.4"/>
	<line id="Línea_3910" class="st3" x1="23.5" y1="32.8" x2="42.5" y2="32.8"/>
	<line id="Línea_3911" class="st3" x1="23.5" y1="38.8" x2="42.5" y2="38.8"/>
	<line id="Línea_3912" class="st3" x1="23.5" y1="44.8" x2="42.5" y2="44.8"/>
	<g id="Grupo_24195">
		<path id="Trazado_29431" class="st3" d="M32.5,21.5c-1.3,0-2.3-1-2.3-2.3s1-2.3,2.3-2.3s2.3,1,2.3,2.3l0,0"/>
		<path id="Trazado_29432" class="st3" d="M32.5,21.5c1.3,0,2.3,1,2.3,2.3s-1,2.3-2.3,2.3s-2.3-1-2.3-2.3l0,0"/>
		<line id="Línea_3913" class="st3" x1="32.5" y1="16.8" x2="32.5" y2="15.6"/>
		<line id="Línea_3914" class="st3" x1="32.5" y1="27.5" x2="32.5" y2="26.2"/>
	</g>
</g>
</svg>
