<?xml version="1.0" encoding="utf-8"?>
<!-- Generator: Adobe Illustrator 24.0.2, SVG Export Plug-In . SVG Version: 6.00 Build 0)  -->
<svg version="1.1" id="Capa_1" xmlns="http://www.w3.org/2000/svg" xmlns:xlink="http://www.w3.org/1999/xlink" x="0px" y="0px"
	 viewBox="0 0 40 40" style="enable-background:new 0 0 40 40;" xml:space="preserve">
<style type="text/css">
	.st0{fill:none;stroke:#19A301;stroke-linecap:round;stroke-linejoin:round;stroke-miterlimit:10;}
	.st1{fill:none;}
</style>
<g>
	<line class="st0" x1="18.5" y1="9.6" x2="18.5" y2="11.6"/>
	<line class="st0" x1="21.5" y1="9.6" x2="21.5" y2="11.6"/>
	<path class="st0" d="M18.5,11.6l-3.9,1.8c-0.9,0.4-1.5,1.3-1.5,1.3v6h13.7v-6c0,0.1-0.6-0.8-1.5-1.3l-3.9-1.8"/>
	<line class="st0" x1="20" y1="13.2" x2="18.5" y2="11.6"/>
	<line class="st0" x1="20" y1="13.2" x2="21.5" y2="11.6"/>
	<path class="st0" d="M22.7,7.3c0,1.5-1.2,2.7-2.7,2.7s-2.7-1.2-2.7-2.7"/>
	<path class="st0" d="M17.2,7.3V5.4c0-1.5,1.2-2.7,2.7-2.7s2.7,1.2,2.7,2.7v1.9"/>
</g>
<g>
	<g>
		<path class="st0" d="M16.2,32.8l0.8-0.8h7.8l5-4.4l2.6-4.3c0,0-1.3-1-2.6,0.1L28.3,25l-1.7,1.5"/>
		<path class="st0" d="M12,28.5l2.7-2.6c0.2-0.2,0.6-0.4,0.9-0.4h2.9c0.1,0,0.3,0,0.4,0.1l1.6,0.7h4.6l1.5,0.1C26.6,29,25,29,25,29
			h-4.8l-1.7,0.8"/>
		
			<rect x="10.5" y="27.3" transform="matrix(0.7071 -0.7071 0.7071 0.7071 -19.224 18.4028)" class="st0" width="4.2" height="10.2"/>
	</g>
	<rect class="st1" width="40" height="40"/>
</g>
</svg>
