<?xml version="1.0" encoding="utf-8"?>
<!-- Generator: Adobe Illustrator 24.0.2, SVG Export Plug-In . SVG Version: 6.00 Build 0)  -->
<svg version="1.1" id="Capa_1" xmlns="http://www.w3.org/2000/svg" xmlns:xlink="http://www.w3.org/1999/xlink" x="0px" y="0px"
	 viewBox="0 0 40 40" style="enable-background:new 0 0 40 40;" xml:space="preserve">
<style type="text/css">
	.st0{fill:none;stroke:#19A301;stroke-linecap:round;stroke-linejoin:round;stroke-miterlimit:10;}
	.st1{fill:none;}
</style>
<g>
	<g>
		<g>
			<line class="st0" x1="18.1" y1="16.8" x2="18.1" y2="19.3"/>
			<line class="st0" x1="21.8" y1="16.8" x2="21.8" y2="19.3"/>
			<path class="st0" d="M18.1,19.3l-4.9,2.2c-1.2,0.5-1.9,1.7-1.9,3v7.6h17.4v-7.6c0-1.3-0.8-2.4-1.9-3l-4.9-2.2"/>
			<line class="st0" x1="20" y1="21.4" x2="18.1" y2="19.3"/>
			<line class="st0" x1="20" y1="21.4" x2="21.8" y2="19.3"/>
			<path class="st0" d="M23.4,13.8c0,1.9-1.6,3.5-3.5,3.5s-3.5-1.6-3.5-3.5"/>
			<path class="st0" d="M16.5,13.8v-2.4c0-1.9,1.6-3.5,3.5-3.5s3.5,1.6,3.5,3.5v2.4"/>
		</g>
		<g>
			<line class="st0" x1="27.5" y1="16.1" x2="27.5" y2="18.4"/>
			<line class="st0" x1="30.9" y1="16.1" x2="30.9" y2="18.4"/>
			<path class="st0" d="M30.9,18.4l4.6,2.1c1.1,0.5,1.8,1.6,1.8,2.8v7.1h-8.6"/>
			<line class="st0" x1="27.5" y1="18.4" x2="23.7" y2="20.1"/>
			<line class="st0" x1="29.2" y1="20.3" x2="27.5" y2="18.4"/>
			<line class="st0" x1="29.2" y1="20.3" x2="30.9" y2="18.4"/>
			<path class="st0" d="M32.4,13.3c0,1.8-1.4,3.2-3.2,3.2c-1.8,0-3.2-1.4-3.2-3.2"/>
			<path class="st0" d="M25.9,13.3v-2.2c0-1.8,1.4-3.2,3.2-3.2c1.8,0,3.2,1.4,3.2,3.2v2.2"/>
		</g>
		<g>
			<line class="st0" x1="9.3" y1="16.1" x2="9.3" y2="18.4"/>
			<line class="st0" x1="12.7" y1="16.1" x2="12.7" y2="18.4"/>
			<line class="st0" x1="16.4" y1="20.1" x2="12.7" y2="18.4"/>
			<path class="st0" d="M9.3,18.4l-4.6,2.1C3.6,21,2.9,22,2.9,23.2v7.1h8.4"/>
			<line class="st0" x1="11" y1="20.3" x2="9.3" y2="18.4"/>
			<line class="st0" x1="11" y1="20.3" x2="12.7" y2="18.4"/>
			<path class="st0" d="M14.2,13.3c0,1.8-1.4,3.2-3.2,3.2s-3.2-1.4-3.2-3.2"/>
			<path class="st0" d="M7.7,13.3v-2.2c0-1.8,1.4-3.2,3.2-3.2s3.2,1.4,3.2,3.2v2.2"/>
		</g>
	</g>
	<rect class="st1" width="40" height="40"/>
</g>
</svg>
