<?xml version="1.0" encoding="utf-8"?>
<!-- Generator: Adobe Illustrator 24.0.2, SVG Export Plug-In . SVG Version: 6.00 Build 0)  -->
<svg version="1.1" id="Capa_1" xmlns="http://www.w3.org/2000/svg" xmlns:xlink="http://www.w3.org/1999/xlink" x="0px" y="0px"
	 viewBox="0 0 40 40" style="enable-background:new 0 0 40 40;" xml:space="preserve">
<style type="text/css">
	.st0{fill:none;stroke:#19A301;stroke-linecap:round;stroke-linejoin:round;stroke-miterlimit:10;}
	.st1{fill:none;}
</style>
<g>
	<g>
		<path class="st0" d="M16.2,32.1l0.8-0.8h7.8l5-4.4l2.6-4.3c0,0-1.3-1-2.6,0.1l-1.6,1.6l-1.7,1.5"/>
		<path class="st0" d="M12,27.8l2.7-2.6c0.2-0.2,0.6-0.4,0.9-0.4h2.9c0.1,0,0.3,0,0.4,0.1l1.6,0.7h4.6l1.5,0.1
			c0,2.5-1.6,2.5-1.6,2.5h-4.8L18.4,29"/>
		
			<rect x="10.5" y="26.6" transform="matrix(0.7071 -0.7071 0.7071 0.7071 -18.7063 18.1883)" class="st0" width="4.2" height="10.2"/>
	</g>
	<g>
		<circle class="st0" cx="20" cy="11.9" r="4"/>
		<path class="st0" d="M27.9,14.7l-1.3-1.7c-0.6-0.8-0.6-1.8-0.1-2.6l1.2-1.7c-0.2-0.4-0.4-0.8-0.6-1.2c-0.2-0.4-0.5-0.8-0.8-1
			l-2.1,0.3c-0.9,0.1-1.9-0.4-2.3-1.2L21,3.7c-0.8-0.1-1.7-0.1-2.6,0.1l-0.8,2c-0.4,0.9-1.3,1.4-2.2,1.4l-2.1-0.2
			c-0.5,0.7-0.9,1.5-1.2,2.3l1.3,1.7c0.6,0.8,0.6,1.8,0.1,2.6l-1.2,1.7c0.2,0.4,0.4,0.8,0.6,1.2c0.2,0.4,0.5,0.7,0.8,1l2.1-0.3
			c0.9-0.1,1.9,0.4,2.3,1.2l0.9,1.9c0.8,0.1,1.7,0.1,2.6-0.1l0.8-2c0.4-0.9,1.3-1.4,2.2-1.4l2.1,0.2C27.2,16.3,27.6,15.5,27.9,14.7z
			"/>
	</g>
	<rect class="st1" width="40" height="40"/>
</g>
</svg>
