<?xml version="1.0" encoding="utf-8"?>
<!-- Generator: Adobe Illustrator 24.0.2, SVG Export Plug-In . SVG Version: 6.00 Build 0)  -->
<svg version="1.1" id="Capa_1" xmlns="http://www.w3.org/2000/svg" xmlns:xlink="http://www.w3.org/1999/xlink" x="0px" y="0px"
	 viewBox="0 0 40 40" style="enable-background:new 0 0 40 40;" xml:space="preserve">
<style type="text/css">
	.st0{fill:none;stroke:#19A301;stroke-linecap:round;stroke-linejoin:round;stroke-miterlimit:10;}
	.st1{fill:none;}
</style>
<g>
	<g>
		<path class="st0" d="M22.2,4.1h-4.9c-0.3,0-0.5,0.2-0.5,0.5v2.2c0,0.3,0.2,0.5,0.5,0.5h4.9c0.3,0,0.5-0.2,0.5-0.5V4.6
			C22.6,4.4,22.4,4.1,22.2,4.1z"/>
		<path class="st0" d="M12,11.2v5.5h-0.8c-0.5,0-1,0.4-1,1v0.5c0,0.5,0.4,1,1,1H12v4.6h-0.8c-0.5,0-1,0.4-1,1v0.5c0,0.5,0.4,1,1,1
			H12V32h16.3V26h0.8c0.5,0,1-0.4,1-1v-0.5c0-0.5-0.4-1-1-1h-0.8v-4.6h0.8c0.5,0,1-0.4,1-1v-0.5c0-0.5-0.4-1-1-1h-0.8v-5.5"/>
		<path class="st0" d="M29.3,35.9H11.1c-0.5,0-0.8-0.4-0.8-0.8v-2.2c0-0.5,0.4-0.8,0.8-0.8h18.2c0.5,0,0.8,0.4,0.8,0.8V35
			C30.1,35.5,29.7,35.9,29.3,35.9z"/>
		<path class="st0" d="M29.2,11.2H11c-0.4,0-0.8-0.4-0.8-0.8V8.2c0-0.4,0.4-0.8,0.8-0.8h18.2c0.4,0,0.8,0.4,0.8,0.8v2.2
			C30,10.8,29.6,11.2,29.2,11.2z"/>
		<path class="st0" d="M23.1,22.7c0,1.6-1.3,2.9-2.9,2.9c-1.6,0-2.9-1.3-2.9-2.9c0-1.6,2.9-5.9,2.9-5.9S23.1,21.1,23.1,22.7z"/>
	</g>
	<rect class="st1" width="40" height="40"/>
</g>
</svg>
