<svg id="Grupo_24173" data-name="Grupo 24173" xmlns="http://www.w3.org/2000/svg" width="70" height="70" viewBox="0 0 70 70">
  <g id="Grupo_24170" data-name="Grupo 24170">
    <g id="Grupo_24169" data-name="Grupo 24169">
      <g id="Grupo_24168" data-name="Grupo 24168">
        <line id="Line_4" data-name="Line 4" x2="8.375" transform="translate(41.677 62.5)" fill="none" stroke="#19a301" stroke-linecap="round" stroke-linejoin="round" stroke-width="2.4"/>
        <line id="Line_5" data-name="Line 5" x2="0.679" transform="translate(58.405 62.5)" fill="none" stroke="#19a301" stroke-linecap="round" stroke-linejoin="round" stroke-width="2.4"/>
        <line id="Line_6" data-name="Line 6" x2="8.298" transform="translate(10.916 62.5)" fill="none" stroke="#19a301" stroke-linecap="round" stroke-linejoin="round" stroke-width="2.4"/>
        <line id="Line_7" data-name="Line 7" x2="14.628" transform="translate(18.674 62.5)" fill="none" stroke="#82d400" stroke-linecap="round" stroke-linejoin="round" stroke-width="2.4"/>
      </g>
      <rect id="Rectángulo_7714" data-name="Rectángulo 7714" width="70" height="15" transform="translate(0 55)" fill="none"/>
    </g>
  </g>
  <rect id="Rectángulo_7715" data-name="Rectángulo 7715" width="70" height="70" fill="none"/>
  <path id="Trazado_29394" data-name="Trazado 29394" d="M33.94,53.87H47.22" fill="none" stroke="#fff" stroke-linecap="round" stroke-linejoin="round" stroke-width="1.5"/>
  <g id="Grupo_24172" data-name="Grupo 24172">
    <circle id="Ellipse_2" data-name="Ellipse 2" cx="5.795" cy="5.795" r="5.795" transform="translate(9.703 8.843)" fill="none" stroke="#19a301" stroke-linecap="round" stroke-linejoin="round" stroke-width="1.5"/>
    <path id="Trazado_29395" data-name="Trazado 29395" d="M36.145,53.873H22.863a8.36,8.36,0,0,1-8.36-8.36V23.759" fill="none" stroke="#fff" stroke-linecap="round" stroke-linejoin="round" stroke-width="1.5"/>
    <path id="Trazado_29396" data-name="Trazado 29396" d="M23.437,8.79h20.23l7.22,7.46v7.44" fill="none" stroke="#fff" stroke-linecap="round" stroke-linejoin="round" stroke-width="1.5"/>
    <path id="Trazado_29397" data-name="Trazado 29397" d="M43.524,8.786v8.048h7.366" fill="none" stroke="#fff" stroke-linecap="round" stroke-linejoin="round" stroke-width="1.5"/>
    <line id="Línea_3873" data-name="Línea 3873" x2="19.055" transform="translate(23.461 32.774)" fill="none" stroke="#fff" stroke-linecap="round" stroke-linejoin="round" stroke-width="1.5"/>
    <line id="Línea_3874" data-name="Línea 3874" x1="17.29" transform="translate(23.457 40.77)" fill="none" stroke="#fff" stroke-linecap="round" stroke-linejoin="round" stroke-width="1.5"/>
    <g id="Grupo_24171" data-name="Grupo 24171">
      <line id="Línea_3875" data-name="Línea 3875" y2="2.907" transform="translate(48.125 33.799)" fill="none" stroke="#fff" stroke-linecap="round" stroke-linejoin="round" stroke-width="1.63"/>
      <line id="Línea_3876" data-name="Línea 3876" y2="2.907" transform="translate(52.378 33.799)" fill="none" stroke="#fff" stroke-linecap="round" stroke-linejoin="round" stroke-width="1.63"/>
      <path id="Trazado_29398" data-name="Trazado 29398" d="M48.125,36.712l-5.7,2.561a3.766,3.766,0,0,0-2.221,3.433V53.873H60.3V42.706a3.764,3.764,0,0,0-2.221-3.433l-5.7-2.561" fill="none" stroke="#fff" stroke-linecap="round" stroke-linejoin="round" stroke-width="1.63"/>
      <line id="Línea_3877" data-name="Línea 3877" x1="2.127" y1="2.412" transform="translate(48.125 36.705)" fill="none" stroke="#fff" stroke-linecap="round" stroke-linejoin="round" stroke-width="1.63"/>
      <line id="Línea_3878" data-name="Línea 3878" y1="2.412" x2="2.127" transform="translate(50.252 36.705)" fill="none" stroke="#fff" stroke-linecap="round" stroke-linejoin="round" stroke-width="1.63"/>
      <path id="Trazado_29399" data-name="Trazado 29399" d="M54.243,30.4a4.008,4.008,0,1,1-8.017,0" fill="none" stroke="#fff" stroke-linecap="round" stroke-linejoin="round" stroke-width="1.63"/>
      <path id="Trazado_29400" data-name="Trazado 29400" d="M46.226,30.4V27.636a4.008,4.008,0,0,1,8.017,0V30.4" fill="none" stroke="#fff" stroke-linecap="round" stroke-linejoin="round" stroke-width="1.63"/>
    </g>
    <path id="Trazado_29401" data-name="Trazado 29401" d="M28.064,22.654,30.617,27.1l7.66-8.542" fill="none" stroke="#fff" stroke-linecap="round" stroke-linejoin="round" stroke-width="1.5"/>
  </g>
</svg>
