<?xml version="1.0" encoding="utf-8"?>
<!-- Generator: Adobe Illustrator 24.0.2, SVG Export Plug-In . SVG Version: 6.00 Build 0)  -->
<svg version="1.1" id="Capa_1" xmlns="http://www.w3.org/2000/svg" xmlns:xlink="http://www.w3.org/1999/xlink" x="0px" y="0px"
	 viewBox="0 0 40 40" style="enable-background:new 0 0 40 40;" xml:space="preserve">
<style type="text/css">
	.st0{fill:none;stroke:#19A301;stroke-linecap:round;stroke-linejoin:round;stroke-miterlimit:10;}
	.st1{fill:none;}
</style>
<g>
	<g>
		<g>
			<polyline class="st0" points="23.6,13 10.7,13 5.2,13 5.2,19.8 5.2,27.8 5.2,30.4 19,30.4 32.8,30.4 32.8,27.8 32.8,18.5 			"/>
			<line class="st0" x1="22.7" y1="33.9" x2="15.5" y2="33.9"/>
			<line class="st0" x1="32.8" y1="27.8" x2="5.2" y2="27.8"/>
			<line class="st0" x1="19" y1="33.9" x2="19" y2="30.4"/>
		</g>
		<g>
			<circle class="st0" cx="29.6" cy="13.9" r="3.7"/>
			<path class="st0" d="M36.9,16.4l-1.2-1.5c-0.5-0.7-0.6-1.7-0.1-2.4l1.1-1.6c-0.2-0.4-0.3-0.7-0.5-1.1c-0.2-0.3-0.5-0.7-0.7-1
				l-1.9,0.3c-0.9,0.1-1.7-0.3-2.1-1.1l-0.8-1.8c-0.8-0.1-1.6-0.1-2.4,0.1l-0.7,1.8c-0.3,0.8-1.2,1.3-2,1.3l-1.9-0.2
				c-0.5,0.6-0.9,1.3-1.1,2.1l1.2,1.5c0.5,0.7,0.6,1.7,0.1,2.4l-1.1,1.6c0.2,0.4,0.3,0.7,0.5,1.1s0.5,0.7,0.7,1l1.9-0.3
				c0.9-0.1,1.7,0.3,2.1,1.1l0.8,1.8c0.8,0.1,1.6,0.1,2.4-0.1l0.7-1.8c0.3-0.8,1.2-1.3,2-1.3l1.9,0.2C36.2,17.9,36.6,17.2,36.9,16.4
				z"/>
		</g>
	</g>
	<rect class="st1" width="40" height="40"/>
</g>
</svg>
