<?xml version="1.0" encoding="utf-8"?>
<!-- Generator: Adobe Illustrator 24.0.2, SVG Export Plug-In . SVG Version: 6.00 Build 0)  -->
<svg version="1.1" id="Grupo_24204" xmlns="http://www.w3.org/2000/svg" xmlns:xlink="http://www.w3.org/1999/xlink" x="0px"
	 y="0px" viewBox="0 0 70 70" style="enable-background:new 0 0 70 70;" xml:space="preserve">
<style type="text/css">
	.st0{fill:none;stroke:#FFFFFF;stroke-width:2.4;stroke-linecap:round;stroke-linejoin:round;}
	.st1{fill:none;stroke:#82D400;stroke-width:2.4;stroke-linecap:round;stroke-linejoin:round;}
	.st2{fill:none;}
	.st3{fill:none;stroke:#FFFFFF;stroke-width:1.5;stroke-linecap:round;stroke-linejoin:round;}
	.st4{fill:none;stroke:#FFFFFF;stroke-width:1.63;stroke-linecap:round;stroke-linejoin:round;}
</style>
<g id="Grupo_24187">
	<g id="Grupo_24186">
		<g id="Grupo_24185">
			<line id="Line_4" class="st0" x1="41.7" y1="62.5" x2="50.1" y2="62.5"/>
			<line id="Line_5" class="st1" x1="58.4" y1="62.5" x2="59.1" y2="62.5"/>
			<line id="Line_6" class="st0" x1="10.9" y1="62.5" x2="19.2" y2="62.5"/>
			<line id="Line_7" class="st1" x1="18.7" y1="62.5" x2="33.3" y2="62.5"/>
		</g>
		<rect id="Rectángulo_7720" y="55" class="st2" width="70" height="15"/>
	</g>
</g>
<rect id="Rectángulo_7721" class="st2" width="70" height="70"/>
<path id="Trazado_29418" class="st3" d="M33.9,53.9h13.3"/>
<g id="Grupo_24190">
	<circle id="Ellipse_2" class="st3" cx="15.5" cy="14.6" r="5.8"/>
	<path id="Trazado_29419" class="st3" d="M36.1,53.9H22.9c-4.6,0-8.4-3.7-8.4-8.4l0,0V23.8"/>
	<path id="Trazado_29420" class="st3" d="M23.4,8.8h20.2l7.2,7.5v7.4"/>
	<path id="Trazado_29421" class="st3" d="M43.5,8.8v8h7.4"/>
	<line id="Línea_3902" class="st3" x1="23.5" y1="32.8" x2="42.5" y2="32.8"/>
	<line id="Línea_3903" class="st3" x1="40.7" y1="40.8" x2="23.5" y2="40.8"/>
	<g id="Grupo_24188">
		<line id="Línea_3904" class="st4" x1="48.1" y1="33.8" x2="48.1" y2="36.7"/>
		<line id="Línea_3905" class="st4" x1="52.4" y1="33.8" x2="52.4" y2="36.7"/>
		<path id="Trazado_29422" class="st4" d="M48.1,36.7l-5.7,2.6c-1.4,0.6-2.2,2-2.2,3.4v11.2h20.1V42.7c0-1.5-0.9-2.8-2.2-3.4
			l-5.7-2.6"/>
		<line id="Línea_3906" class="st4" x1="50.3" y1="39.1" x2="48.1" y2="36.7"/>
		<line id="Línea_3907" class="st4" x1="50.3" y1="39.1" x2="52.4" y2="36.7"/>
		<path id="Trazado_29423" class="st4" d="M54.2,30.4c0,2.2-1.8,4-4,4s-4-1.8-4-4"/>
		<path id="Trazado_29424" class="st4" d="M46.2,30.4v-2.8c0-2.2,1.8-4,4-4s4,1.8,4,4l0,0v2.8"/>
	</g>
	<g id="Grupo_24189">
		<path id="Trazado_29425" class="st3" d="M32.5,21.5c-1.3,0-2.3-1-2.3-2.3s1-2.3,2.3-2.3s2.3,1,2.3,2.3l0,0"/>
		<path id="Trazado_29426" class="st3" d="M32.5,21.5c1.3,0,2.3,1,2.3,2.3s-1,2.3-2.3,2.3s-2.3-1-2.3-2.3l0,0"/>
		<line id="Línea_3908" class="st3" x1="32.5" y1="16.8" x2="32.5" y2="15.6"/>
		<line id="Línea_3909" class="st3" x1="32.5" y1="27.5" x2="32.5" y2="26.2"/>
	</g>
</g>
</svg>
