<svg id="Grupo_24184" data-name="Grupo 24184" xmlns="http://www.w3.org/2000/svg" width="70" height="70" viewBox="0 0 70 70">
  <g id="Grupo_24181" data-name="Grupo 24181">
    <g id="Grupo_24180" data-name="Grupo 24180">
      <g id="Grupo_24179" data-name="Grupo 24179">
        <line id="Line_4" data-name="Line 4" x2="8.375" transform="translate(41.677 62.5)" fill="none" stroke="#19a301" stroke-linecap="round" stroke-linejoin="round" stroke-width="2.4"/>
        <line id="Line_5" data-name="Line 5" x2="0.679" transform="translate(58.405 62.5)" fill="none" stroke="#19a301" stroke-linecap="round" stroke-linejoin="round" stroke-width="2.4"/>
        <line id="Line_6" data-name="Line 6" x2="8.298" transform="translate(10.916 62.5)" fill="none" stroke="#19a301" stroke-linecap="round" stroke-linejoin="round" stroke-width="2.4"/>
        <line id="Line_7" data-name="Line 7" x2="14.628" transform="translate(18.674 62.5)" fill="none" stroke="#82d400" stroke-linecap="round" stroke-linejoin="round" stroke-width="2.4"/>
      </g>
      <rect id="Rectángulo_7718" data-name="Rectángulo 7718" width="70" height="15" transform="translate(0 55)" fill="none"/>
    </g>
  </g>
  <rect id="Rectángulo_7719" data-name="Rectángulo 7719" width="70" height="70" fill="none"/>
  <g id="Grupo_24183" data-name="Grupo 24183">
    <circle id="Ellipse_2" data-name="Ellipse 2" cx="5.795" cy="5.795" r="5.795" transform="translate(14.703 8.843)" fill="none" stroke="#19a301" stroke-linecap="round" stroke-linejoin="round" stroke-width="1.5"/>
    <path id="Trazado_29408" data-name="Trazado 29408" d="M47.974,9.636v8H55.3" fill="none" stroke="#000" stroke-linecap="round" stroke-linejoin="round" stroke-width="1.5"/>
    <path id="Trazado_29409" data-name="Trazado 29409" d="M19.121,23.979V43.628A10.366,10.366,0,0,0,29.486,53.993H55.3V17.637" fill="none" stroke="#000" stroke-linecap="round" stroke-linejoin="round" stroke-width="1.5"/>
    <path id="Trazado_29410" data-name="Trazado 29410" d="M55.288,17.478,47.813,9.152l-1.75.016H27.808" fill="none" stroke="#000" stroke-linecap="round" stroke-linejoin="round" stroke-width="1.5"/>
    <g id="Grupo_24182" data-name="Grupo 24182">
      <path id="Trazado_29411" data-name="Trazado 29411" d="M37.541,28.391l-1.656,7.363,1.656,2.878" fill="none" stroke="#000" stroke-linecap="round" stroke-linejoin="round" stroke-width="1.5"/>
      <path id="Trazado_29412" data-name="Trazado 29412" d="M37.541,28.391,39.2,35.754l-1.656,2.878" fill="none" stroke="#000" stroke-linecap="round" stroke-linejoin="round" stroke-width="1.5"/>
      <line id="Línea_3895" data-name="Línea 3895" y2="2.298" transform="translate(35.873 24.614)" fill="none" stroke="#000" stroke-linecap="round" stroke-linejoin="round" stroke-width="1.5"/>
      <line id="Línea_3896" data-name="Línea 3896" y2="2.298" transform="translate(39.235 24.614)" fill="none" stroke="#000" stroke-linecap="round" stroke-linejoin="round" stroke-width="1.5"/>
      <path id="Trazado_29413" data-name="Trazado 29413" d="M35.873,26.917l-4.5,2.025a2.976,2.976,0,0,0-1.756,2.714v6.976H45.495V31.656a2.977,2.977,0,0,0-1.755-2.714l-4.505-2.025" fill="none" stroke="#000" stroke-linecap="round" stroke-linejoin="round" stroke-width="1.5"/>
      <path id="Trazado_29414" data-name="Trazado 29414" d="M37.554,28.819" fill="none" stroke="#000" stroke-linecap="round" stroke-linejoin="round" stroke-width="1.5"/>
      <line id="Línea_3897" data-name="Línea 3897" x1="1.681" y1="1.906" transform="translate(35.873 26.912)" fill="none" stroke="#000" stroke-linecap="round" stroke-linejoin="round" stroke-width="1.5"/>
      <path id="Trazado_29415" data-name="Trazado 29415" d="M37.554,28.819" fill="none" stroke="#000" stroke-linecap="round" stroke-linejoin="round" stroke-width="1.5"/>
      <line id="Línea_3898" data-name="Línea 3898" y1="1.906" x2="1.681" transform="translate(37.554 26.912)" fill="none" stroke="#000" stroke-linecap="round" stroke-linejoin="round" stroke-width="1.5"/>
      <path id="Trazado_29416" data-name="Trazado 29416" d="M40.71,21.93a3.169,3.169,0,1,1-6.338,0" fill="none" stroke="#000" stroke-linecap="round" stroke-linejoin="round" stroke-width="1.5"/>
      <path id="Trazado_29417" data-name="Trazado 29417" d="M34.372,21.93V19.743a3.169,3.169,0,1,1,6.338,0V21.93" fill="none" stroke="#000" stroke-linecap="round" stroke-linejoin="round" stroke-width="1.5"/>
    </g>
    <line id="Línea_3899" data-name="Línea 3899" x2="16.85" transform="translate(29.36 43.866)" fill="none" stroke="#000" stroke-linecap="round" stroke-linejoin="round" stroke-width="1.5"/>
    <line id="Línea_3900" data-name="Línea 3900" x2="16.85" transform="translate(29.36 49.099)" fill="none" stroke="#000" stroke-linecap="round" stroke-linejoin="round" stroke-width="1.5"/>
  </g>
</svg>
