<?xml version="1.0" encoding="utf-8"?>
<!-- Generator: Adobe Illustrator 24.0.2, SVG Export Plug-In . SVG Version: 6.00 Build 0)  -->
<svg version="1.1" id="Grupo_24206" xmlns="http://www.w3.org/2000/svg" xmlns:xlink="http://www.w3.org/1999/xlink" x="0px"
	 y="0px" viewBox="0 0 70 70" style="enable-background:new 0 0 70 70;" xml:space="preserve">
<style type="text/css">
	.st0{fill:none;stroke:#FFFFFF;stroke-width:2.4;stroke-linecap:round;stroke-linejoin:round;}
	.st1{fill:none;stroke:#82D400;stroke-width:2.4;stroke-linecap:round;stroke-linejoin:round;}
	.st2{fill:none;}
	.st3{fill:none;stroke:#FFFFFF;stroke-width:1.5;stroke-linecap:round;stroke-linejoin:round;}
	.st4{fill:#FFFFFF;}
</style>
<g id="Grupo_24200">
	<g id="Grupo_24199">
		<g id="Grupo_24198">
			<line id="Line_4" class="st0" x1="41.7" y1="62.5" x2="50.1" y2="62.5"/>
			<line id="Line_5" class="st1" x1="58.4" y1="62.5" x2="59.1" y2="62.5"/>
			<line id="Line_6" class="st0" x1="10.9" y1="62.5" x2="19.2" y2="62.5"/>
			<line id="Line_7" class="st1" x1="18.7" y1="62.5" x2="33.3" y2="62.5"/>
		</g>
		<rect id="Rectángulo_7724" y="55" class="st2" width="70" height="15"/>
	</g>
</g>
<rect id="Rectángulo_7725" class="st2" width="70" height="70"/>
<path id="Trazado_29433" class="st3" d="M33.9,53.9h13.3"/>
<g id="Grupo_24202">
	<circle id="Ellipse_2" class="st3" cx="15.5" cy="14.6" r="5.8"/>
	<path id="Trazado_29434" class="st3" d="M36.1,53.9H22.9c-4.6,0-8.4-3.7-8.4-8.4l0,0V23.8"/>
	<path id="Trazado_29435" class="st3" d="M23.4,8.8h20.2l7.2,7.5v37.6h-3.7"/>
	<path id="Trazado_29436" class="st3" d="M43.5,8.8v8h7.4"/>
	<line id="Línea_3915" class="st3" x1="23.5" y1="32.8" x2="42.5" y2="32.8"/>
	<line id="Línea_3916" class="st3" x1="23.5" y1="38.8" x2="42.5" y2="38.8"/>
	<line id="Línea_3917" class="st3" x1="23.5" y1="44.8" x2="42.5" y2="44.8"/>
	<g id="Grupo_24201">
		<path id="Trazado_29437" class="st4" d="M31.8,25.7c0-0.6,0.1-1.2,0.3-1.8c0.2-0.6,0.6-1.1,1-1.5l1.3-1.3c0.5-0.5,0.8-1.2,0.8-2
			c0-0.6-0.2-1.1-0.5-1.6c-0.4-0.4-1-0.6-1.6-0.6s-1.1,0.2-1.6,0.5c-0.4,0.4-0.6,0.9-0.6,1.4h-1.8c0-1,0.4-1.9,1.1-2.5
			c0.8-0.7,1.8-1,2.9-1c1-0.1,2.1,0.3,2.9,1c0.7,0.7,1.1,1.7,1,2.7c-0.1,1.3-0.6,2.5-1.6,3.3l-1.1,1c-0.5,0.6-0.8,1.4-0.7,2.3
			L31.8,25.7z M31.7,28.8c0-0.3,0.1-0.5,0.3-0.7c0.2-0.2,0.5-0.3,0.8-0.3s0.6,0.1,0.8,0.3c0.2,0.2,0.3,0.5,0.3,0.7
			c0,0.3-0.1,0.5-0.3,0.7s-0.5,0.3-0.8,0.3c-0.5,0.1-1-0.3-1.1-0.9C31.7,28.9,31.7,28.8,31.7,28.8z"/>
	</g>
</g>
</svg>
