<svg id="Group_22668" data-name="Group 22668" xmlns="http://www.w3.org/2000/svg" width="70" height="70" viewBox="0 0 70 70">
  <g id="Group_22664" data-name="Group 22664">
    <g id="Group_22663" data-name="Group 22663">
      <g id="Group_22662" data-name="Group 22662">
        <line id="Line_4" data-name="Line 4" x2="8.375" transform="translate(41.677 62.5)" fill="none" stroke="#19a301" stroke-linecap="round" stroke-linejoin="round" stroke-width="2.4"/>
        <line id="Line_5" data-name="Line 5" x2="0.679" transform="translate(58.405 62.5)" fill="none" stroke="#19a301" stroke-linecap="round" stroke-linejoin="round" stroke-width="2.4"/>
        <line id="Line_6" data-name="Line 6" x2="8.298" transform="translate(10.916 62.5)" fill="none" stroke="#19a301" stroke-linecap="round" stroke-linejoin="round" stroke-width="2.4"/>
        <line id="Line_7" data-name="Line 7" x2="14.628" transform="translate(18.674 62.5)" fill="none" stroke="#82d400" stroke-linecap="round" stroke-linejoin="round" stroke-width="2.4"/>
      </g>
      <rect id="Rectangle_7000" data-name="Rectangle 7000" width="70" height="15" transform="translate(0 55)" fill="none"/>
    </g>
  </g>
  <g id="Group_22667" data-name="Group 22667">
    <circle id="Ellipse_2" data-name="Ellipse 2" cx="5.795" cy="5.795" r="5.795" transform="translate(25.582 5.843)" fill="none" stroke="#19a301" stroke-linecap="round" stroke-linejoin="round" stroke-width="1.5"/>
    <rect id="Rectangle_7001" data-name="Rectangle 7001" width="32.061" height="6.352" rx="2.355" transform="translate(30.017 29.564)" fill="none" stroke="#fff" stroke-linecap="round" stroke-linejoin="round" stroke-width="1.5"/>
    <path id="Path_28743" data-name="Path 28743" d="M39.822,10.408h17.25a2.436,2.436,0,0,1,2.436,2.436v16.7H33.254" fill="none" stroke="#fff" stroke-linecap="round" stroke-linejoin="round" stroke-width="1.5"/>
    <line id="Line_3028" data-name="Line 3028" y1="8.512" transform="translate(33.254 19.974)" fill="none" stroke="#fff" stroke-linecap="round" stroke-linejoin="round" stroke-width="1.5"/>
    <line id="Line_3029" data-name="Line 3029" y1="0.001" x2="19.686" transform="translate(39.822 15.071)" fill="none" stroke="#fff" stroke-linecap="round" stroke-linejoin="round" stroke-width="1.5"/>
    <line id="Line_3030" data-name="Line 3030" y2="14.462" transform="translate(47.439 15.102)" fill="none" stroke="#fff" stroke-linecap="round" stroke-linejoin="round" stroke-width="1.5"/>
    <line id="Line_3031" data-name="Line 3031" x2="7.134" transform="translate(47.439 18.538)" fill="none" stroke="#fff" stroke-linecap="round" stroke-linejoin="round" stroke-width="1.5"/>
    <line id="Line_3032" data-name="Line 3032" x2="7.134" transform="translate(47.439 22.155)" fill="none" stroke="#fff" stroke-linecap="round" stroke-linejoin="round" stroke-width="1.5"/>
    <line id="Line_3033" data-name="Line 3033" x2="7.134" transform="translate(47.439 25.905)" fill="none" stroke="#fff" stroke-linecap="round" stroke-linejoin="round" stroke-width="1.5"/>
    <line id="Line_3034" data-name="Line 3034" y2="14.462" transform="translate(54.595 15.102)" fill="none" stroke="#fff" stroke-linecap="round" stroke-linejoin="round" stroke-width="1.5"/>
    <path id="Path_28744" data-name="Path 28744" d="M19.945,21.664" fill="none" stroke="#000" stroke-linecap="round" stroke-linejoin="round" stroke-width="1.5"/>
    <path id="Path_28745" data-name="Path 28745" d="M33.649,16.992" fill="none" stroke="#000" stroke-linecap="round" stroke-linejoin="round" stroke-width="1.5"/>
    <path id="Path_28746" data-name="Path 28746" d="M18.261,27.95" fill="none" stroke="#000" stroke-linecap="round" stroke-linejoin="round" stroke-width="1.5"/>
    <path id="Path_28747" data-name="Path 28747" d="M28.959,34.236" fill="none" stroke="#000" stroke-linecap="round" stroke-linejoin="round" stroke-width="1.5"/>
    <path id="Path_28748" data-name="Path 28748" d="M16.688,34.236" fill="none" stroke="#000" stroke-linecap="round" stroke-linejoin="round" stroke-width="1.5"/>
    <g id="Group_22665" data-name="Group 22665">
      <path id="Path_28749" data-name="Path 28749" d="M41.977,45.926H19.945V41.469H41.977a2.765,2.765,0,0,0,2.762-2.762V35.916H49.2v2.791A7.227,7.227,0,0,1,41.977,45.926Z" fill="none" stroke="#fff" stroke-linecap="round" stroke-linejoin="round" stroke-width="1.5"/>
    </g>
    <rect id="Rectangle_7002" data-name="Rectangle 7002" width="4.35" height="8.251" transform="translate(15.595 39.572)" fill="none" stroke="#fff" stroke-linecap="round" stroke-linejoin="round" stroke-width="1.5"/>
    <g id="Group_22666" data-name="Group 22666">
      <rect id="Rectangle_7003" data-name="Rectangle 7003" width="7.278" height="4.457" transform="translate(8.316 41.469)" fill="none" stroke="#fff" stroke-linecap="round" stroke-linejoin="round" stroke-width="1.5"/>
    </g>
    <path id="Path_28750" data-name="Path 28750" d="M26.231,33.854c-2.288,0-2.288-2.228-4.577-2.228s-2.287,2.228-4.575,2.228S14.79,31.626,12.5,31.626s-2.289,2.228-4.578,2.228" fill="none" stroke="#fff" stroke-linecap="round" stroke-linejoin="round" stroke-width="1.5"/>
    <path id="Path_28751" data-name="Path 28751" d="M62.077,54.463c-2.707,0-2.707-2.229-5.415-2.229s-2.707,2.229-5.414,2.229-2.707-2.229-5.415-2.229-2.706,2.229-5.413,2.229-2.707-2.229-5.413-2.229-2.708,2.229-5.415,2.229-2.709-2.229-5.417-2.229-2.708,2.229-5.415,2.229-2.709-2.229-5.419-2.229-2.709,2.229-5.418,2.229" fill="none" stroke="#fff" stroke-linecap="round" stroke-linejoin="round" stroke-width="1.5"/>
  </g>
  <rect id="Rectangle_7004" data-name="Rectangle 7004" width="70" height="70" fill="none"/>
</svg>
