<svg id="Group_22644" data-name="Group 22644" xmlns="http://www.w3.org/2000/svg" width="70" height="70" viewBox="0 0 70 70">
  <g id="Group_22641" data-name="Group 22641">
    <g id="Group_22640" data-name="Group 22640">
      <g id="Group_22639" data-name="Group 22639">
        <line id="Line_4" data-name="Line 4" x2="8.375" transform="translate(41.677 62.5)" fill="none" stroke="#19a301" stroke-linecap="round" stroke-linejoin="round" stroke-width="2.4"/>
        <line id="Line_5" data-name="Line 5" x2="0.679" transform="translate(58.405 62.5)" fill="none" stroke="#19a301" stroke-linecap="round" stroke-linejoin="round" stroke-width="2.4"/>
        <line id="Line_6" data-name="Line 6" x2="8.298" transform="translate(10.916 62.5)" fill="none" stroke="#19a301" stroke-linecap="round" stroke-linejoin="round" stroke-width="2.4"/>
        <line id="Line_7" data-name="Line 7" x2="14.628" transform="translate(18.674 62.5)" fill="none" stroke="#82d400" stroke-linecap="round" stroke-linejoin="round" stroke-width="2.4"/>
      </g>
      <rect id="Rectangle_6991" data-name="Rectangle 6991" width="70" height="15" transform="translate(0 55)" fill="none"/>
    </g>
  </g>
  <g id="Group_22643" data-name="Group 22643">
    <circle id="Ellipse_2" data-name="Ellipse 2" cx="5.795" cy="5.795" r="5.795" transform="translate(15.752 8.843)" fill="none" stroke="#19a301" stroke-linecap="round" stroke-linejoin="round" stroke-width="1.5"/>
    <path id="Path_28732" data-name="Path 28732" d="M38.509,20.1a5.507,5.507,0,1,1-7.3-2.719A5.493,5.493,0,0,1,38.509,20.1Z" fill="none" stroke="#000" stroke-linecap="round" stroke-linejoin="round" stroke-width="1.5"/>
    <g id="Group_22642" data-name="Group 22642">
      <circle id="Ellipse_3129" data-name="Ellipse 3129" cx="3.646" cy="3.646" r="3.646" transform="translate(41.363 38.972)" fill="none" stroke="#000" stroke-linecap="round" stroke-linejoin="round" stroke-width="1.5"/>
      <path id="Path_28733" data-name="Path 28733" d="M52.723,36.4l-2.5.272a2.609,2.609,0,0,1-2.67-1.541l-1.012-2.3a10.015,10.015,0,0,0-1.53-.13,11.854,11.854,0,0,0-1.53.13l-1.012,2.3a2.609,2.609,0,0,1-2.67,1.541l-2.5-.272a9.907,9.907,0,0,0-1.524,2.648l1.484,2.027a2.609,2.609,0,0,1,0,3.083l-1.484,2.028a9.9,9.9,0,0,0,1.524,2.647l2.5-.272a2.61,2.61,0,0,1,2.67,1.542l1.012,2.3a9.069,9.069,0,0,0,3.06,0l1.012-2.3a2.61,2.61,0,0,1,2.67-1.542l2.5.272a9.9,9.9,0,0,0,1.525-2.647L52.763,44.16a2.609,2.609,0,0,1,0-3.083l1.485-2.027A9.909,9.909,0,0,0,52.723,36.4Z" fill="none" stroke="#000" stroke-linecap="round" stroke-linejoin="round" stroke-width="1.5"/>
    </g>
    <path id="Path_28734" data-name="Path 28734" d="M19.648,23.3c0,7.62,13.8,32.2,13.8,32.2s1.59-2.83,3.69-6.87" fill="none" stroke="#000" stroke-linecap="round" stroke-linejoin="round" stroke-width="1.5"/>
    <path id="Path_28735" data-name="Path 28735" d="M44.628,32.72c1.55-3.86,2.62-7.3,2.62-9.42A13.81,13.81,0,0,0,29.134,10.188" fill="none" stroke="#000" stroke-linecap="round" stroke-linejoin="round" stroke-width="1.5"/>
  </g>
  <rect id="Rectangle_6992" data-name="Rectangle 6992" width="70" height="70" fill="none"/>
</svg>
