<svg id="Group_22651" data-name="Group 22651" xmlns="http://www.w3.org/2000/svg" width="70" height="70" viewBox="0 0 70 70">
  <g id="Group_22647" data-name="Group 22647">
    <g id="Group_22646" data-name="Group 22646">
      <g id="Group_22645" data-name="Group 22645">
        <line id="Line_4" data-name="Line 4" x2="8.375" transform="translate(41.677 62.5)" fill="none" stroke="#19a301" stroke-linecap="round" stroke-linejoin="round" stroke-width="2.4"/>
        <line id="Line_5" data-name="Line 5" x2="0.679" transform="translate(58.405 62.5)" fill="none" stroke="#19a301" stroke-linecap="round" stroke-linejoin="round" stroke-width="2.4"/>
        <line id="Line_6" data-name="Line 6" x2="8.298" transform="translate(10.916 62.5)" fill="none" stroke="#19a301" stroke-linecap="round" stroke-linejoin="round" stroke-width="2.4"/>
        <line id="Line_7" data-name="Line 7" x2="14.628" transform="translate(18.674 62.5)" fill="none" stroke="#82d400" stroke-linecap="round" stroke-linejoin="round" stroke-width="2.4"/>
      </g>
      <rect id="Rectangle_6993" data-name="Rectangle 6993" width="70" height="15" transform="translate(0 55)" fill="none"/>
    </g>
  </g>
  <g id="Group_22650" data-name="Group 22650">
    <circle id="Ellipse_2" data-name="Ellipse 2" cx="5.795" cy="5.795" r="5.795" transform="translate(14.252 23.005)" fill="none" stroke="#19a301" stroke-linecap="round" stroke-linejoin="round" stroke-width="1.5"/>
    <g id="Group_22649" data-name="Group 22649">
      <g id="Group_22648" data-name="Group 22648">
        <path id="Path_28736" data-name="Path 28736" d="M44.6,34.378,35.817,53.819a.741.741,0,0,0,.675,1.046H55.006a.74.74,0,0,0,.662-1.072L45.94,34.352A.741.741,0,0,0,44.6,34.378Z" fill="none" stroke="#000" stroke-linecap="round" stroke-linejoin="round" stroke-width="1.533"/>
        <line id="Line_3025" data-name="Line 3025" y2="5.079" transform="translate(45.448 42.134)" fill="none" stroke="#000" stroke-linecap="round" stroke-linejoin="round" stroke-width="1.533"/>
      </g>
      <ellipse id="Ellipse_3130" data-name="Ellipse 3130" cx="1.475" cy="1.426" rx="1.475" ry="1.426" transform="translate(43.973 49.207)"/>
    </g>
    <g id="Grupo_6636" data-name="Grupo 6636">
      <line id="Línea_1013" data-name="Línea 1013" y2="3.682" transform="translate(31.117 19.387)" fill="none" stroke="#000" stroke-linecap="round" stroke-linejoin="round" stroke-width="1.533"/>
      <line id="Línea_1014" data-name="Línea 1014" y2="3.682" transform="translate(36.509 19.387)" fill="none" stroke="#000" stroke-linecap="round" stroke-linejoin="round" stroke-width="1.533"/>
      <path id="Trazado_5699" data-name="Trazado 5699" d="M36.509,23.077l7.222,3.246a5.492,5.492,0,0,1,2.713,3.791v4.555" fill="none" stroke="#000" stroke-linecap="round" stroke-linejoin="round" stroke-width="1.533"/>
      <path id="Trazado_5700" data-name="Trazado 5700" d="M21.081,37.613v5.526H40.538" fill="none" stroke="#000" stroke-linecap="round" stroke-linejoin="round" stroke-width="1.533"/>
      <line id="Línea_1015" data-name="Línea 1015" x1="3.331" y2="1.541" transform="translate(27.785 23.077)" fill="none" stroke="#000" stroke-linecap="round" stroke-linejoin="round" stroke-width="1.533"/>
      <line id="Línea_1016" data-name="Línea 1016" x1="2.696" y1="3.057" transform="translate(31.117 23.069)" fill="none" stroke="#000" stroke-linecap="round" stroke-linejoin="round" stroke-width="1.533"/>
      <line id="Línea_1017" data-name="Línea 1017" y1="3.057" x2="2.696" transform="translate(33.813 23.069)" fill="none" stroke="#000" stroke-linecap="round" stroke-linejoin="round" stroke-width="1.533"/>
      <path id="Trazado_5701" data-name="Trazado 5701" d="M38.87,15.084a5.078,5.078,0,1,1-10.156,0" fill="none" stroke="#000" stroke-linecap="round" stroke-linejoin="round" stroke-width="1.533"/>
      <path id="Trazado_5702" data-name="Trazado 5702" d="M28.709,15.084V11.578a5.079,5.079,0,0,1,10.157,0v3.506" fill="none" stroke="#000" stroke-linecap="round" stroke-linejoin="round" stroke-width="1.533"/>
    </g>
  </g>
  <rect id="Rectangle_6994" data-name="Rectangle 6994" width="70" height="70" fill="none"/>
</svg>
