<svg id="Group_22661" data-name="Group 22661" xmlns="http://www.w3.org/2000/svg" width="70" height="70" viewBox="0 0 70 70">
  <g id="Group_22658" data-name="Group 22658">
    <g id="Group_22657" data-name="Group 22657">
      <g id="Group_22656" data-name="Group 22656">
        <line id="Line_4" data-name="Line 4" x2="8.375" transform="translate(41.677 62.5)" fill="none" stroke="#19a301" stroke-linecap="round" stroke-linejoin="round" stroke-width="2.4"/>
        <line id="Line_5" data-name="Line 5" x2="0.679" transform="translate(58.405 62.5)" fill="none" stroke="#19a301" stroke-linecap="round" stroke-linejoin="round" stroke-width="2.4"/>
        <line id="Line_6" data-name="Line 6" x2="8.298" transform="translate(10.916 62.5)" fill="none" stroke="#19a301" stroke-linecap="round" stroke-linejoin="round" stroke-width="2.4"/>
        <line id="Line_7" data-name="Line 7" x2="14.628" transform="translate(18.674 62.5)" fill="none" stroke="#82d400" stroke-linecap="round" stroke-linejoin="round" stroke-width="2.4"/>
      </g>
      <rect id="Rectangle_6995" data-name="Rectangle 6995" width="70" height="15" transform="translate(0 55)" fill="none"/>
    </g>
  </g>
  <g id="Group_22660" data-name="Group 22660">
    <circle id="Ellipse_2" data-name="Ellipse 2" cx="5.795" cy="5.795" r="5.795" transform="translate(14.734 18.131)" fill="none" stroke="#19a301" stroke-linecap="round" stroke-linejoin="round" stroke-width="1.5"/>
    <path id="Path_28737" data-name="Path 28737" d="M52.09,29.283V52.592A1.909,1.909,0,0,1,50.181,54.5H22.3a1.839,1.839,0,0,1-1.839-1.84V32.731" fill="none" stroke="#000" stroke-linecap="round" stroke-linejoin="round" stroke-width="1.5"/>
    <path id="Path_28738" data-name="Path 28738" d="M28.139,18.04h9.473a.849.849,0,0,0,.765-.913V12.412a.848.848,0,0,0-.765-.912H21.042a.848.848,0,0,0-.765.912v2.556" fill="none" stroke="#000" stroke-linecap="round" stroke-linejoin="round" stroke-width="1.5"/>
    <rect id="Rectangle_6996" data-name="Rectangle 6996" width="5.036" height="5.394" rx="1.191" transform="translate(24.611 34.809)" fill="none" stroke="#000" stroke-linecap="round" stroke-linejoin="round" stroke-width="1.5"/>
    <rect id="Rectangle_6997" data-name="Rectangle 6997" width="5.036" height="5.394" rx="1.191" transform="translate(33.757 34.809)" fill="none" stroke="#000" stroke-linecap="round" stroke-linejoin="round" stroke-width="1.5"/>
    <rect id="Rectangle_6998" data-name="Rectangle 6998" width="5.036" height="5.394" rx="1.191" transform="translate(42.902 34.809)" fill="none" stroke="#000" stroke-linecap="round" stroke-linejoin="round" stroke-width="1.5"/>
    <path id="Path_28739" data-name="Path 28739" d="M31.012,54.5V46.367a.639.639,0,0,1,.64-.639H41.7a.64.64,0,0,1,.64.639V54.5" fill="none" stroke="#000" stroke-linecap="round" stroke-linejoin="round" stroke-width="1.5"/>
    <path id="Path_28740" data-name="Path 28740" d="M29.076,18.071H55.266V29.283H28.6" fill="none" stroke="#000" stroke-linecap="round" stroke-linejoin="round" stroke-width="1.5"/>
    <path id="Path_28741" data-name="Path 28741" d="M41.124,26.643V20.854l4.026,5.789V20.854" fill="none" stroke="#000" stroke-linecap="round" stroke-linejoin="round" stroke-width="1.5"/>
    <g id="Group_22659" data-name="Group 22659">
      <path id="Path_28742" data-name="Path 28742" d="M34.031,26.643l2.514-5.789L39,26.643" fill="none" stroke="#000" stroke-linecap="round" stroke-linejoin="round" stroke-width="1.5"/>
      <line id="Line_3026" data-name="Line 3026" x2="3.29" transform="translate(34.851 24.754)" fill="none" stroke="#000" stroke-linecap="round" stroke-linejoin="round" stroke-width="1.5"/>
    </g>
    <line id="Line_3027" data-name="Line 3027" y1="5.789" transform="translate(47.986 20.854)" fill="none" stroke="#000" stroke-linecap="round" stroke-linejoin="round" stroke-width="1.5"/>
  </g>
  <rect id="Rectangle_6999" data-name="Rectangle 6999" width="70" height="70" fill="none"/>
</svg>
