<?xml version="1.0" encoding="utf-8"?>
<!-- Generator: Adobe Illustrator 24.0.2, SVG Export Plug-In . SVG Version: 6.00 Build 0)  -->
<svg version="1.1" id="Layer_1" xmlns="http://www.w3.org/2000/svg" xmlns:xlink="http://www.w3.org/1999/xlink" x="0px" y="0px"
	 viewBox="0 0 70 70" style="enable-background:new 0 0 70 70;" xml:space="preserve">
<style type="text/css">
	.st0{fill:none;}
	.st1{fill:none;stroke:#19A301;stroke-width:2.4;stroke-linecap:round;stroke-linejoin:round;}
	.st2{fill:none;stroke:#82D400;stroke-width:2.4;stroke-linecap:round;stroke-linejoin:round;}
	.st3{fill:none;stroke:#19A301;stroke-width:1.5;stroke-linecap:round;stroke-linejoin:round;}
	.st4{fill:none;stroke:#FFFFFF;stroke-width:1.5;stroke-linecap:round;stroke-linejoin:round;stroke-miterlimit:10;}
</style>
<g>
	<rect class="st0" width="70" height="70"/>
</g>
<rect y="55" class="st0" width="70" height="15"/>
<line id="Line_4_1_" class="st1" x1="41.7" y1="62.5" x2="50.1" y2="62.5"/>
<line id="Line_5_1_" class="st1" x1="58.4" y1="62.5" x2="59.1" y2="62.5"/>
<line id="Line_6_1_" class="st1" x1="10.9" y1="62.5" x2="19.2" y2="62.5"/>
<line id="Line_7_1_" class="st2" x1="18.7" y1="62.5" x2="33.3" y2="62.5"/>
<circle id="Ellipse_2_2_" class="st3" cx="15.7" cy="22" r="5.8"/>
<polyline class="st4" points="54.5,22.4 54.5,51.6 15.5,51.6 15.5,30.7 "/>
<polyline class="st4" points="15.5,13.5 15.5,10.5 47.4,10.5 "/>
<polyline class="st4" points="50.1,21.1 50.1,26.9 26,26.9 26,15.6 46.5,15.6 "/>
<g>
	<line class="st4" x1="20.6" y1="33.2" x2="26.1" y2="33.2"/>
	<line class="st4" x1="32.2" y1="33.2" x2="37.8" y2="33.2"/>
	<line class="st4" x1="43.9" y1="33.2" x2="49.4" y2="33.2"/>
</g>
<g>
	<line class="st4" x1="20.6" y1="38.7" x2="26.1" y2="38.7"/>
	<line class="st4" x1="32.2" y1="38.7" x2="37.8" y2="38.7"/>
	<line class="st4" x1="43.9" y1="38.7" x2="49.4" y2="38.7"/>
</g>
<rect x="54.5" y="40.2" class="st4" width="4.6" height="9.5"/>
<path class="st4" d="M30.5,26.9c0-4,3.3-7.3,7.3-7.3s7.3,3.3,7.3,7.3"/>
<line class="st4" x1="37.8" y1="26.9" x2="39.4" y2="23.2"/>
<circle class="st4" cx="54.5" cy="14.3" r="8"/>
<g>
	<g>
		<path class="st4" d="M54.5,14.2c-1.1,0-2-0.9-2-2s0.9-2,2-2c1.1,0,2,0.9,2,2"/>
		<path class="st4" d="M54.5,14.2c1.2,0,2.2,1,2.2,2.2c0,1.2-1,2.2-2.2,2.2c-1.2,0-2.2-1-2.2-2.2"/>
	</g>
	<g>
		<line class="st4" x1="54.6" y1="10.2" x2="54.6" y2="8.6"/>
		<line class="st4" x1="54.6" y1="20.1" x2="54.6" y2="18.5"/>
	</g>
</g>
</svg>
