<?xml version="1.0" encoding="utf-8"?>
<!-- Generator: Adobe Illustrator 24.0.2, SVG Export Plug-In . SVG Version: 6.00 Build 0)  -->
<svg version="1.1" id="Layer_1" xmlns="http://www.w3.org/2000/svg" xmlns:xlink="http://www.w3.org/1999/xlink" x="0px" y="0px"
	 viewBox="0 0 70 70" style="enable-background:new 0 0 70 70;" xml:space="preserve">
<style type="text/css">
	.st0{fill:none;}
	.st1{fill:none;stroke:#19A301;stroke-width:2.4;stroke-linecap:round;stroke-linejoin:round;}
	.st2{fill:none;stroke:#82D400;stroke-width:2.4;stroke-linecap:round;stroke-linejoin:round;}
	.st3{fill:none;stroke:#19A301;stroke-width:1.5;stroke-linecap:round;stroke-linejoin:round;}
	.st4{fill:none;stroke:#000000;stroke-width:1.5;stroke-linecap:round;stroke-linejoin:round;stroke-miterlimit:10;}
	
		.st5{clip-path:url(#XMLID_4_);fill:#FFFFFF;stroke:#009EE2;stroke-width:1.5;stroke-linecap:round;stroke-linejoin:round;stroke-miterlimit:10;}
</style>
<g>
	<rect class="st0" width="70" height="70"/>
</g>
<rect y="55" class="st0" width="70" height="15"/>
<line id="Line_4_1_" class="st1" x1="41.7" y1="62.5" x2="50.1" y2="62.5"/>
<line id="Line_5_1_" class="st1" x1="58.4" y1="62.5" x2="59.1" y2="62.5"/>
<line id="Line_6_1_" class="st1" x1="10.9" y1="62.5" x2="19.2" y2="62.5"/>
<line id="Line_7_1_" class="st2" x1="18.7" y1="62.5" x2="33.3" y2="62.5"/>
<circle id="Ellipse_2_7_" class="st3" cx="18.4" cy="23.3" r="4.9"/>
<path id="XMLID_1_" class="st4" d="M20.3,15.6c3.1-4.7,8.5-7.8,14.6-7.8c9.7,0,17.6,7.9,17.6,17.6c0,9.7-7.9,17.6-17.6,17.6
	c-7.7,0-14.2-4.9-16.6-11.7"/>
<g id="XMLID_6_">
	<path d="M35.3,10.5l2.1,0.2l0.2,0.6l2.3,0.4l0.5-0.7h2l1,1.5l-1.1,1.1V15l-3.2,1.8l-0.8-0.6l-0.2-3.2h-1.3l-0.5-0.8L35.2,13v0.7
		h0.9l-0.4,1.1L35,15.4l0.4,1.2l0.6-0.6l2,2l-3.9,2.9h-2.1v1.7l1.3-0.2v1.2l1.6,1.8h0.8l1.1-0.7h0.6v0.9l1.2-0.6h0.8l0.9,1.4h1.3
		l0.5,1.3l3.7,1.1v0.9l-1.2,1.3l-0.3,2H43l-0.8,0.8v0.8l-4.3,4.1v3.5h-1.1v-2.3h-0.8v-0.8l0.8-0.8v-4.6l0.8-0.8l-2.7-3.4l0.3-2.8
		l-0.7-0.2l-2.5-2.1L31,23.7L30.2,21l-1.4-1.3l0.2-1.9l-1.1-2l-2-0.6L25.4,16h-1.1l-0.7-1.8l0.7-1.3l1.4-0.3l0.4,0.7l2.1,0.1
		l3.2-1.9l1.3,0.1l1.1-0.6h0.6L35.3,10.5 M35.3,9c-0.3,0-0.5,0.1-0.7,0.2l-0.5,0.3h-0.2c-0.2,0-0.5,0.1-0.7,0.2l-0.8,0.4L31.5,10
		c0,0-0.1,0-0.1,0c-0.3,0-0.5,0.1-0.8,0.2l-2.8,1.7L27,11.8c-0.3-0.5-0.8-0.7-1.3-0.7c-0.1,0-0.2,0-0.3,0L24,11.4
		c-0.4,0.1-0.8,0.4-1,0.7l-0.7,1.3c-0.2,0.4-0.3,0.9-0.1,1.3l0.7,1.8c0.2,0.6,0.8,0.9,1.4,0.9h1.1c0.4,0,0.8-0.2,1.1-0.5l0,0
		l0.5,0.1l0.6,1l-0.1,1.4c0,0.5,0.1,0.9,0.5,1.2l1.1,1l0.7,2.3c0.1,0.5,0.5,0.8,0.9,1l0.9,0.3l2.3,1.9c0,0,0,0,0,0l-0.2,1.7
		c0,0.4,0.1,0.8,0.3,1.1l1.9,2.4c-0.2,0.3-0.4,0.6-0.4,1v4l-0.4,0.4c-0.3,0.3-0.4,0.7-0.4,1.1v0.8c0,0.6,0.3,1,0.8,1.3v1
		c0,0.8,0.7,1.5,1.5,1.5h1.1c0.8,0,1.5-0.7,1.5-1.5v-2.8l3.8-3.7c0.3-0.3,0.5-0.7,0.5-1.1v-0.1h0.5c0.7,0,1.4-0.6,1.5-1.3l0.2-1.5
		l0.9-0.9c0.3-0.3,0.4-0.7,0.4-1v-0.9c0-0.7-0.4-1.2-1.1-1.4l-3-0.9L43,25.8c-0.2-0.6-0.8-1-1.4-1h-0.5l-0.5-0.7
		c-0.3-0.4-0.7-0.7-1.2-0.7h-0.8c-0.1,0-0.2,0-0.2,0c-0.3-0.2-0.6-0.3-0.9-0.3h-0.6c-0.3,0-0.5,0.1-0.8,0.2l-0.5,0.3L35,22.9v-0.6
		c0-0.1,0-0.1,0-0.2c0.1,0,0.1-0.1,0.2-0.1l3.9-2.9c0.3-0.2,0.5-0.5,0.6-0.9c0.1,0,0.2-0.1,0.3-0.1l3.2-1.8c0.5-0.3,0.8-0.8,0.8-1.3
		v-0.8l0.7-0.7c0.5-0.5,0.6-1.3,0.2-1.8l-1-1.5c-0.3-0.4-0.8-0.7-1.3-0.7h-2c-0.5,0-0.9,0.2-1.2,0.6l-0.5-0.1
		c-0.2-0.4-0.7-0.7-1.2-0.7L35.5,9C35.4,9,35.4,9,35.3,9L35.3,9z"/>
</g>
<g>
	<path class="st4" d="M15.1,45.3c1.8,0,1.8,1.9,3.6,1.9c1.8,0,1.8-1.9,3.6-1.9c1.8,0,1.8,1.9,3.6,1.9c1.8,0,1.8-1.9,3.6-1.9
		c1.8,0,1.8,1.9,3.6,1.9c1.8,0,1.8-1.9,3.6-1.9c1.8,0,1.8,1.9,3.6,1.9c1.8,0,1.8-1.9,3.6-1.9c1.8,0,1.8,1.9,3.6,1.9
		c1.8,0,1.8-1.9,3.6-1.9s1.8,1.9,3.6,1.9"/>
</g>
<g>
	<path class="st4" d="M15.1,50.4c1.8,0,1.8,1.9,3.6,1.9c1.8,0,1.8-1.9,3.6-1.9c1.8,0,1.8,1.9,3.6,1.9c1.8,0,1.8-1.9,3.6-1.9
		c1.8,0,1.8,1.9,3.6,1.9c1.8,0,1.8-1.9,3.6-1.9c1.8,0,1.8,1.9,3.6,1.9c1.8,0,1.8-1.9,3.6-1.9c1.8,0,1.8,1.9,3.6,1.9
		c1.8,0,1.8-1.9,3.6-1.9s1.8,1.9,3.6,1.9"/>
</g>
</svg>
