<?xml version="1.0" encoding="utf-8"?>
<!-- Generator: Adobe Illustrator 24.0.2, SVG Export Plug-In . SVG Version: 6.00 Build 0)  -->
<svg version="1.1" id="Layer_1" xmlns="http://www.w3.org/2000/svg" xmlns:xlink="http://www.w3.org/1999/xlink" x="0px" y="0px"
	 viewBox="0 0 70 70" style="enable-background:new 0 0 70 70;" xml:space="preserve">
<style type="text/css">
	.st0{fill:none;}
	.st1{fill:none;stroke:#19A301;stroke-width:2.4;stroke-linecap:round;stroke-linejoin:round;}
	.st2{fill:none;stroke:#82D400;stroke-width:2.4;stroke-linecap:round;stroke-linejoin:round;}
	.st3{fill:none;stroke:#19A301;stroke-width:1.5;stroke-linecap:round;stroke-linejoin:round;}
	.st4{fill:none;stroke:#000000;stroke-width:1.5;stroke-linecap:round;stroke-linejoin:round;stroke-miterlimit:10;}
	
		.st5{clip-path:url(#XMLID_4_);fill:#FFFFFF;stroke:#009EE2;stroke-width:1.5;stroke-linecap:round;stroke-linejoin:round;stroke-miterlimit:10;}
</style>
<g>
	<rect class="st0" width="70" height="70"/>
</g>
<rect y="55" class="st0" width="70" height="15"/>
<line id="Line_4_9_" class="st1" x1="41.7" y1="62.5" x2="50.1" y2="62.5"/>
<line id="Line_5_9_" class="st1" x1="58.4" y1="62.5" x2="59.1" y2="62.5"/>
<line id="Line_6_9_" class="st1" x1="10.9" y1="62.5" x2="19.2" y2="62.5"/>
<line id="Line_7_9_" class="st2" x1="18.7" y1="62.5" x2="33.3" y2="62.5"/>
<g>
	<rect class="st0" width="70" height="70"/>
</g>
<rect y="55" class="st0" width="70" height="15"/>
<line id="Line_4_8_" class="st1" x1="41.7" y1="62.5" x2="50.1" y2="62.5"/>
<line id="Line_5_8_" class="st1" x1="58.4" y1="62.5" x2="59.1" y2="62.5"/>
<line id="Line_6_8_" class="st1" x1="10.9" y1="62.5" x2="19.2" y2="62.5"/>
<line id="Line_7_8_" class="st2" x1="18.7" y1="62.5" x2="33.3" y2="62.5"/>
<circle class="st3" cx="13" cy="37.2" r="3.4"/>
<path class="st4" d="M18.8,20.9H22c0,0,4,0.1,4-3.7c0,0,0.1,3.7,3.5,3.7"/>
<polyline class="st4" points="48.4,36.3 45.4,44.7 48.4,48.8 "/>
<polyline class="st4" points="48.4,36.3 51.3,44.7 48.4,48.8 "/>
<g>
	<line class="st4" x1="34.6" y1="50.1" x2="62.1" y2="50.1"/>
	<path class="st4" d="M51.6,33.5l5.4,0.5c2.2,0.5,3.9,2.3,4.2,4.5l1,11.7"/>
	<polyline class="st4" points="51.6,33.5 48.4,36.3 45.1,33.5 	"/>
	<path class="st4" d="M53.7,23.7c0,3-2.4,5.3-5.3,5.3c-3,0-5.3-2.4-5.3-5.3"/>
	<path class="st4" d="M43,23.7V20c0-3,2.4-5.3,5.3-5.3c3,0,5.3,2.4,5.3,5.3v3.7"/>
</g>
<path class="st4" d="M45.1,33.5L39.8,34c-2.2,0.5-3.9,2.3-4.2,4.5l-1,11.7"/>
<g>
	<line class="st4" x1="10.4" y1="50.1" x2="37.9" y2="50.1"/>
	<path class="st4" d="M27.4,33.5l5.4,0.5c1.5,0.3,2.8,1.2,3.5,2.5"/>
	<path class="st4" d="M27.4,33.5l-0.6,1.2c-1.1,2-4,2-5.1,0l-0.6-1.2"/>
	<path class="st4" d="M29.5,23.7c0,3-2.4,5.3-5.3,5.3s-5.3-2.4-5.3-5.3"/>
	<path class="st4" d="M18.8,23.7V20c0-3,2.4-5.3,5.3-5.3s5.3,2.4,5.3,5.3v3.7"/>
</g>
<path class="st4" d="M11,41.3L10.4,49"/>
<path class="st4" d="M20.9,33.5l-3.5,0.3"/>
<line class="st4" x1="29.5" y1="23.2" x2="29.5" y2="33.7"/>
<line class="st4" x1="18.8" y1="21.7" x2="18.8" y2="33.7"/>
<polygon class="st4" points="29.5,4.4 29.5,13.2 37.1,13.2 41.2,16 41.2,13.2 41.2,4.4 "/>
<line class="st4" x1="32.4" y1="8.3" x2="38.2" y2="8.3"/>
</svg>
