<?xml version="1.0" encoding="utf-8"?>
<!-- Generator: Adobe Illustrator 24.0.2, SVG Export Plug-In . SVG Version: 6.00 Build 0)  -->
<svg version="1.1" id="Layer_1" xmlns="http://www.w3.org/2000/svg" xmlns:xlink="http://www.w3.org/1999/xlink" x="0px" y="0px"
	 viewBox="0 0 70 70" style="enable-background:new 0 0 70 70;" xml:space="preserve">
<style type="text/css">
	.st0{fill:none;}
	.st1{fill:none;stroke:#19A301;stroke-width:2.4;stroke-linecap:round;stroke-linejoin:round;}
	.st2{fill:none;stroke:#82D400;stroke-width:2.4;stroke-linecap:round;stroke-linejoin:round;}
	.st3{fill:none;stroke:#19A301;stroke-width:1.5;stroke-linecap:round;stroke-linejoin:round;}
	.st4{fill:none;stroke:#000000;stroke-width:1.5;stroke-linecap:round;stroke-linejoin:round;stroke-miterlimit:10;}
	
		.st5{clip-path:url(#XMLID_4_);fill:#FFFFFF;stroke:#009EE2;stroke-width:1.5;stroke-linecap:round;stroke-linejoin:round;stroke-miterlimit:10;}
</style>
<g>
	<rect class="st0" width="70" height="70"/>
</g>
<rect y="55" class="st0" width="70" height="15"/>
<line id="Line_4_7_" class="st1" x1="41.7" y1="62.5" x2="50.1" y2="62.5"/>
<line id="Line_5_7_" class="st1" x1="58.4" y1="62.5" x2="59.1" y2="62.5"/>
<line id="Line_6_7_" class="st1" x1="10.9" y1="62.5" x2="19.2" y2="62.5"/>
<line id="Line_7_7_" class="st2" x1="18.7" y1="62.5" x2="33.3" y2="62.5"/>
<g>
	<rect class="st0" width="70" height="70"/>
</g>
<rect y="55" class="st0" width="70" height="15"/>
<line id="Line_4_6_" class="st1" x1="41.7" y1="62.5" x2="50.1" y2="62.5"/>
<line id="Line_5_6_" class="st1" x1="58.4" y1="62.5" x2="59.1" y2="62.5"/>
<line id="Line_6_6_" class="st1" x1="10.9" y1="62.5" x2="19.2" y2="62.5"/>
<line id="Line_7_6_" class="st2" x1="18.7" y1="62.5" x2="33.3" y2="62.5"/>
<circle id="Ellipse_2_11_" class="st3" cx="23.4" cy="18.6" r="4.2"/>
<polyline class="st4" points="29.3,11.8 33.8,7.7 38.2,11.8 44.3,11.5 45.1,17.6 50,21.3 46.7,26.4 48,32.4 42.2,34.2 39.4,39.6 
	33.8,37.2 28.1,39.6 25.3,34.2 19.5,32.4 20.9,26.4 "/>
<path class="st4" d="M28.3,14.2c1.6-0.9,3.5-1.4,5.4-1.4c6,0,10.9,4.9,10.9,10.9s-4.9,10.9-10.9,10.9c-5.6,0-10.3-4.3-10.9-9.8"/>
<line class="st4" x1="33.8" y1="7.7" x2="33.8" y2="12.7"/>
<line class="st4" x1="44.3" y1="11.5" x2="41.2" y2="15.6"/>
<line class="st4" x1="50" y1="21.3" x2="44.6" y2="22.1"/>
<line class="st4" x1="48" y1="32.4" x2="43" y2="29.4"/>
<line class="st4" x1="39.4" y1="39.6" x2="37.4" y2="33.9"/>
<line class="st4" x1="28.1" y1="39.6" x2="30.1" y2="33.9"/>
<line class="st4" x1="19.5" y1="32.4" x2="24.5" y2="29.5"/>
<polyline class="st4" points="36.1,38.2 31.3,50.7 27.4,45.3 20.8,46.6 25.5,34.4 "/>
<polyline class="st4" points="34.8,41.5 38.2,50.1 42.1,44.7 48.7,46 43.9,33.7 "/>
<polyline class="st4" points="28.5,25.6 32.3,29.4 39,18.9 "/>
</svg>
