<?xml version="1.0" encoding="utf-8"?>
<!-- Generator: Adobe Illustrator 24.0.2, SVG Export Plug-In . SVG Version: 6.00 Build 0)  -->
<svg version="1.1" id="Layer_1" xmlns="http://www.w3.org/2000/svg" xmlns:xlink="http://www.w3.org/1999/xlink" x="0px" y="0px"
	 viewBox="0 0 70 70" style="enable-background:new 0 0 70 70;" xml:space="preserve">
<style type="text/css">
	.st0{fill:none;}
	.st1{fill:none;stroke:#19A301;stroke-width:2.4;stroke-linecap:round;stroke-linejoin:round;}
	.st2{fill:none;stroke:#82D400;stroke-width:2.4;stroke-linecap:round;stroke-linejoin:round;}
	.st3{fill:none;stroke:#19A301;stroke-width:1.5;stroke-linecap:round;stroke-linejoin:round;}
	.st4{fill:none;stroke:#000000;stroke-width:1.5;stroke-linecap:round;stroke-linejoin:round;stroke-miterlimit:10;}
	
		.st5{clip-path:url(#XMLID_4_);fill:#FFFFFF;stroke:#009EE2;stroke-width:1.5;stroke-linecap:round;stroke-linejoin:round;stroke-miterlimit:10;}
</style>
<g>
	<rect class="st0" width="70" height="70"/>
</g>
<rect y="55" class="st0" width="70" height="15"/>
<line id="Line_4_15_" class="st1" x1="41.7" y1="62.5" x2="50.1" y2="62.5"/>
<line id="Line_5_15_" class="st1" x1="58.4" y1="62.5" x2="59.1" y2="62.5"/>
<line id="Line_6_15_" class="st1" x1="10.9" y1="62.5" x2="19.2" y2="62.5"/>
<line id="Line_7_15_" class="st2" x1="18.7" y1="62.5" x2="33.3" y2="62.5"/>
<g>
	<rect class="st0" width="70" height="70"/>
</g>
<rect y="55" class="st0" width="70" height="15"/>
<line id="Line_4_14_" class="st1" x1="41.7" y1="62.5" x2="50.1" y2="62.5"/>
<line id="Line_5_14_" class="st1" x1="58.4" y1="62.5" x2="59.1" y2="62.5"/>
<line id="Line_6_14_" class="st1" x1="10.9" y1="62.5" x2="19.2" y2="62.5"/>
<line id="Line_7_14_" class="st2" x1="18.7" y1="62.5" x2="33.3" y2="62.5"/>
<polyline class="st4" points="33.4,26.9 36.4,30.4 44.4,20.9 "/>
<path class="st3" d="M27.2,11.7c0-1.3-0.5-2.5-1.3-3.3c-0.9-1-2.2-1.6-3.6-1.6c-2.7,0-4.9,2.2-4.9,4.9s2.2,4.9,4.9,4.9
	S27.2,14.4,27.2,11.7z"/>
<polyline class="st4" points="46,10.8 46,18 52.6,18 "/>
<path class="st4" d="M20,20.4v21c0,5.2,4.2,9.4,9.4,9.4h23.3V18"/>
<polyline class="st4" points="52.6,17.8 45.9,10.3 44.3,10.3 30.9,10.3 "/>
<line class="st4" x1="28.6" y1="43.8" x2="43.8" y2="43.8"/>
<line class="st4" x1="31.4" y1="39.7" x2="41" y2="39.7"/>
<path class="st4" d="M42.4,28c0,1.6-0.6,3-1.6,4.1c-1.1,1.2-2.7,1.9-4.4,1.9c-3.4,0-6.1-2.7-6.1-6.1s2.7-6.1,6.1-6.1
	S42.4,24.7,42.4,28z"/>
</svg>
