<?xml version="1.0" encoding="utf-8"?>
<!-- Generator: Adobe Illustrator 24.0.2, SVG Export Plug-In . SVG Version: 6.00 Build 0)  -->
<svg version="1.1" id="Layer_1" xmlns="http://www.w3.org/2000/svg" xmlns:xlink="http://www.w3.org/1999/xlink" x="0px" y="0px"
	 viewBox="0 0 70 70" style="enable-background:new 0 0 70 70;" xml:space="preserve">
<style type="text/css">
	.st0{fill:none;}
	.st1{fill:none;stroke:#19A301;stroke-width:2.4;stroke-linecap:round;stroke-linejoin:round;}
	.st2{fill:none;stroke:#82D400;stroke-width:2.4;stroke-linecap:round;stroke-linejoin:round;}
	.st3{fill:none;stroke:#19A301;stroke-width:1.5;stroke-linecap:round;stroke-linejoin:round;}
	.st4{fill:none;stroke:#000000;stroke-width:1.5;stroke-linecap:round;stroke-linejoin:round;stroke-miterlimit:10;}
	
		.st5{clip-path:url(#XMLID_4_);fill:#FFFFFF;stroke:#009EE2;stroke-width:1.5;stroke-linecap:round;stroke-linejoin:round;stroke-miterlimit:10;}
</style>
<g>
	<rect class="st0" width="70" height="70"/>
</g>
<rect y="55" class="st0" width="70" height="15"/>
<line id="Line_4_5_" class="st1" x1="41.7" y1="62.5" x2="50.1" y2="62.5"/>
<line id="Line_5_5_" class="st1" x1="58.4" y1="62.5" x2="59.1" y2="62.5"/>
<line id="Line_6_5_" class="st1" x1="10.9" y1="62.5" x2="19.2" y2="62.5"/>
<line id="Line_7_5_" class="st2" x1="18.7" y1="62.5" x2="33.3" y2="62.5"/>
<g>
	<rect class="st0" width="70" height="70"/>
</g>
<rect y="55" class="st0" width="70" height="15"/>
<line id="Line_4_4_" class="st1" x1="41.7" y1="62.5" x2="50.1" y2="62.5"/>
<line id="Line_5_4_" class="st1" x1="58.4" y1="62.5" x2="59.1" y2="62.5"/>
<line id="Line_6_4_" class="st1" x1="10.9" y1="62.5" x2="19.2" y2="62.5"/>
<line id="Line_7_4_" class="st2" x1="18.7" y1="62.5" x2="33.3" y2="62.5"/>
<circle id="Ellipse_2_1_" class="st3" cx="12.7" cy="17" r="5.1"/>
<path class="st4" d="M14.5,26.5c0.9-1.3,2.4-2.1,4.1-2.1c2.8,0,5,2.2,5,5c0,2.7-2.2,5-5,5c-1.7,0-3.2-0.8-4.1-2.1"/>
<path class="st4" d="M19.5,18.3h2.6c-0.7-0.8-1.1-1.9-1.1-3.1c0-2.8,2.2-5,5-5c2.8,0,5,2.2,5,5c0,1.2-0.4,2.2-1.1,3.1h6.8h7.2
	c-0.7-0.8-1.1-1.9-1.1-3.1c0-2.8,2.2-5,5-5s5,2.2,5,5c0,1.2-0.4,2.2-1.1,3.1H59v8.2c-0.9-1.3-2.4-2.1-4.1-2.1c-2.8,0-5,2.2-5,5
	c0,2.7,2.2,5,5,5c1.7,0,3.2-0.8,4.1-2.1v8.3h-7.4c0.7,0.8,1.1,2,1.1,3.2c0,2.8-2.2,5-5,5s-5-2.2-5-5c0-1.2,0.4-2.3,1.1-3.2h-7.2
	h-6.9c0.7,0.8,1.2,2,1.2,3.2c0,2.8-2.2,5-5,5c-2.7,0-5-2.2-5-5c0-1.2,0.4-2.3,1.2-3.2h-7.7v-8.3c0.9,1.3,2.4,2.1,4.1,2.1
	c2.8,0,5-2.2,5-5c0-2.8-2.2-5-5-5c-1.7,0-3.2,0.8-4.1,2.1v-2.6"/>
<path class="st4" d="M36.8,40.5v-7.5c0.9,0.8,2,1.2,3.3,1.2c2.8,0,5-2.2,5-5c0-2.8-2.2-5-5-5c-1.2,0-2.4,0.5-3.3,1.2v-7.3"/>
</svg>
