<?xml version="1.0" encoding="utf-8"?>
<!-- Generator: Adobe Illustrator 24.0.2, SVG Export Plug-In . SVG Version: 6.00 Build 0)  -->
<svg version="1.1" id="Layer_1" xmlns="http://www.w3.org/2000/svg" xmlns:xlink="http://www.w3.org/1999/xlink" x="0px" y="0px"
	 viewBox="0 0 70 70" style="enable-background:new 0 0 70 70;" xml:space="preserve">
<style type="text/css">
	.st0{fill:none;}
	.st1{fill:none;stroke:#19A301;stroke-width:2.4;stroke-linecap:round;stroke-linejoin:round;}
	.st2{fill:none;stroke:#82D400;stroke-width:2.4;stroke-linecap:round;stroke-linejoin:round;}
	.st3{fill:none;stroke:#19A301;stroke-width:1.5;stroke-linecap:round;stroke-linejoin:round;}
	.st4{fill:none;stroke:#000000;stroke-width:1.5;stroke-linecap:round;stroke-linejoin:round;stroke-miterlimit:10;}
	
		.st5{clip-path:url(#XMLID_4_);fill:#FFFFFF;stroke:#009EE2;stroke-width:1.5;stroke-linecap:round;stroke-linejoin:round;stroke-miterlimit:10;}
</style>
<g>
	<rect class="st0" width="70" height="70"/>
</g>
<rect y="55" class="st0" width="70" height="15"/>
<line id="Line_4_13_" class="st1" x1="41.7" y1="62.5" x2="50.1" y2="62.5"/>
<line id="Line_5_13_" class="st1" x1="58.4" y1="62.5" x2="59.1" y2="62.5"/>
<line id="Line_6_13_" class="st1" x1="10.9" y1="62.5" x2="19.2" y2="62.5"/>
<line id="Line_7_13_" class="st2" x1="18.7" y1="62.5" x2="33.3" y2="62.5"/>
<g>
	<rect class="st0" width="70" height="70"/>
</g>
<rect y="55" class="st0" width="70" height="15"/>
<line id="Line_4_12_" class="st1" x1="41.7" y1="62.5" x2="50.1" y2="62.5"/>
<line id="Line_5_12_" class="st1" x1="58.4" y1="62.5" x2="59.1" y2="62.5"/>
<line id="Line_6_12_" class="st1" x1="10.9" y1="62.5" x2="19.2" y2="62.5"/>
<line id="Line_7_12_" class="st2" x1="18.7" y1="62.5" x2="33.3" y2="62.5"/>
<circle id="Ellipse_2_10_" class="st3" cx="21.8" cy="14" r="5.1"/>
<g>
	<path class="st4" d="M34.6,33.5l3.8,3.8c0.5,0.5,0.5,1.4,0,1.9l0,0c-0.5,0.5-1.4,0.5-1.9,0L21.8,24.5"/>
	<g>
		<path class="st4" d="M38.5,29.6l3.8,3.8c0.5,0.5,1.4,0.5,1.9,0l0,0c0.5-0.5,0.5-1.4,0-1.9l-8.9-8.9l-3.7-0.3l-0.5,2.2
			c0,0-0.7,1.9-2.6,1.5c-1.9-0.4-2-2.3-2-2.3l0.5-2.6c0,0,1.1-2.8,4.4-2.8l7.3,1.1l7.3,7.3L42.8,30"/>
		<path class="st4" d="M38.5,29.6l3.8,3.8c0.5,0.5,0.5,1.4,0,1.9l0,0c-0.5,0.5-1.4,0.5-1.9,0l-3.8-3.8"/>
		<path class="st4" d="M36.6,31.5l3.8,3.8c0.5,0.5,0.5,1.4,0,1.9l0,0c-0.5,0.5-1.4,0.5-1.9,0l-3.8-3.8"/>
		<path class="st4" d="M38.8,19.4l2.2-2.2c0,0,0.8-0.8,1.7,0l5.7,5.7c0,0,0.8,0.9,0.1,1.5l-2.3,2.2L38.8,19.4z"/>
		<path class="st4" d="M27.9,30.8l-1.4,1.5c-0.5,0.5-1.4,0.5-2,0l0,0c-0.5-0.5-0.5-1.4,0-2l1.4-1.5"/>
		<path class="st4" d="M29.9,32.7l-1.4,1.5c-0.5,0.5-1.4,0.5-2,0h0c-0.5-0.5-0.5-1.4,0-2l1.4-1.5"/>
		<path class="st4" d="M31.8,34.7l-1.4,1.5c-0.5,0.5-1.4,0.5-2,0h0c-0.5-0.5-0.5-1.4,0-2l1.4-1.5"/>
		<path class="st4" d="M33.6,36.9l-1.4,1.5c-0.5,0.5-1.4,0.5-2,0h0c-0.5-0.5-0.5-1.4,0-2l1.4-1.5"/>
	</g>
</g>
<path class="st4" d="M28.8,10.1C30.8,9.4,33,9,35.2,9c10.6,0,19.3,8.6,19.3,19.3c0,8-4.9,14.8-11.8,17.8"/>
<path class="st4" d="M27.6,45.9C20.8,43,16,36.2,16,28.2c0-2.7,0.5-5.2,1.5-7.5"/>
<polygon class="st4" points="35.2,49.8 38.3,51.4 37.7,48 40.2,45.5 36.8,45 35.2,41.9 33.7,45 30.2,45.5 32.7,48 32.1,51.4 "/>
</svg>
