<?xml version="1.0" encoding="utf-8"?>
<!-- Generator: Adobe Illustrator 24.0.2, SVG Export Plug-In . SVG Version: 6.00 Build 0)  -->
<svg version="1.1" id="Layer_1" xmlns="http://www.w3.org/2000/svg" xmlns:xlink="http://www.w3.org/1999/xlink" x="0px" y="0px"
	 viewBox="0 0 70 70" style="enable-background:new 0 0 70 70;" xml:space="preserve">
<style type="text/css">
	.st0{fill:none;}
	.st1{fill:none;stroke:#19A301;stroke-width:2.4;stroke-linecap:round;stroke-linejoin:round;}
	.st2{fill:none;stroke:#82D400;stroke-width:2.4;stroke-linecap:round;stroke-linejoin:round;}
	.st3{fill:none;stroke:#19A301;stroke-width:1.5;stroke-linecap:round;stroke-linejoin:round;}
	.st4{fill:none;stroke:#FFFFFF;stroke-width:1.5;stroke-linecap:round;stroke-linejoin:round;stroke-miterlimit:10;}
</style>
<g>
	<rect class="st0" width="70" height="70"/>
</g>
<rect y="55" class="st0" width="70" height="15"/>
<line id="Line_4_1_" class="st1" x1="41.7" y1="62.5" x2="50.1" y2="62.5"/>
<line id="Line_5_1_" class="st1" x1="58.4" y1="62.5" x2="59.1" y2="62.5"/>
<line id="Line_6_1_" class="st1" x1="10.9" y1="62.5" x2="19.2" y2="62.5"/>
<line id="Line_7_1_" class="st2" x1="18.7" y1="62.5" x2="33.3" y2="62.5"/>
<circle id="Ellipse_2_2_" class="st3" cx="13.9" cy="20.8" r="5.8"/>
<polyline class="st4" points="62.3,19.5 62.3,48.9 13.5,48.9 13.5,29.3 "/>
<g>
	<polyline class="st4" points="62.3,19.5 37,33.7 21.1,24.1 	"/>
</g>
<g>
	
		<rect id="XMLID_41_" x="51.4" y="9.9" transform="matrix(0.8674 -0.4976 0.4976 0.8674 8.816155e-02 28.8816)" class="st4" width="5.7" height="8.7"/>
	<polygon id="XMLID_40_" class="st4" points="33.4,24.5 51,14.4 52.5,17 35,27 	"/>
	<polygon id="XMLID_39_" class="st4" points="62.3,19.5 54.6,23.9 52.6,20.2 60.2,15.8 	"/>
	
		<rect id="XMLID_38_" x="46.6" y="6.5" transform="matrix(0.8674 -0.4976 0.4976 0.8674 2.4542 26.5349)" class="st4" width="8.8" height="4.3"/>
</g>
<line class="st4" x1="42.5" y1="19.2" x2="23" y2="19.2"/>
</svg>
