<?xml version="1.0" encoding="utf-8"?>
<!-- Generator: Adobe Illustrator 24.0.2, SVG Export Plug-In . SVG Version: 6.00 Build 0)  -->
<svg version="1.1" id="Layer_1" xmlns="http://www.w3.org/2000/svg" xmlns:xlink="http://www.w3.org/1999/xlink" x="0px" y="0px"
	 viewBox="0 0 70 70" style="enable-background:new 0 0 70 70;" xml:space="preserve">
<style type="text/css">
	.st0{fill:none;}
	.st1{fill:none;stroke:#19A301;stroke-width:2.4;stroke-linecap:round;stroke-linejoin:round;}
	.st2{fill:none;stroke:#82D400;stroke-width:2.4;stroke-linecap:round;stroke-linejoin:round;}
	.st3{fill:none;stroke:#19A301;stroke-width:1.5;stroke-linecap:round;stroke-linejoin:round;}
	.st4{fill:none;stroke:#000000;stroke-width:1.5;stroke-linecap:round;stroke-linejoin:round;stroke-miterlimit:10;}
	
		.st5{clip-path:url(#XMLID_4_);fill:#FFFFFF;stroke:#009EE2;stroke-width:1.5;stroke-linecap:round;stroke-linejoin:round;stroke-miterlimit:10;}
</style>
<g>
	<rect class="st0" width="70" height="70"/>
</g>
<rect y="55" class="st0" width="70" height="15"/>
<line id="Line_4_11_" class="st1" x1="41.7" y1="62.5" x2="50.1" y2="62.5"/>
<line id="Line_5_11_" class="st1" x1="58.4" y1="62.5" x2="59.1" y2="62.5"/>
<line id="Line_6_11_" class="st1" x1="10.9" y1="62.5" x2="19.2" y2="62.5"/>
<line id="Line_7_11_" class="st2" x1="18.7" y1="62.5" x2="33.3" y2="62.5"/>
<g>
	<rect class="st0" width="70" height="70"/>
</g>
<rect y="55" class="st0" width="70" height="15"/>
<line id="Line_4_10_" class="st1" x1="41.7" y1="62.5" x2="50.1" y2="62.5"/>
<line id="Line_5_10_" class="st1" x1="58.4" y1="62.5" x2="59.1" y2="62.5"/>
<line id="Line_6_10_" class="st1" x1="10.9" y1="62.5" x2="19.2" y2="62.5"/>
<line id="Line_7_10_" class="st2" x1="18.7" y1="62.5" x2="33.3" y2="62.5"/>
<circle id="Ellipse_2_3_" class="st3" cx="19.4" cy="17.2" r="5.1"/>
<circle class="st4" cx="56.1" cy="28" r="1.4"/>
<path class="st4" d="M26.8,19.2h16.5c1.5,0,2.7,1.2,2.7,2.7v20.1c0,1.5-1.2,2.7-2.7,2.7H23.6c-1.5,0-2.7-1.2-2.7-2.7V25.4"/>
<g>
	<path class="st4" d="M49.7,24.8V19c0-1.9-1.6-3.5-3.5-3.5h-5.6"/>
	<path class="st4" d="M26.4,48.6h-5.7c-1.9,0-3.5-1.6-3.5-3.5v-5.8"/>
	<path class="st4" d="M49.7,39.5V45c0,1.9-1.6,3.5-3.5,3.5h-5.6"/>
</g>
<g>
	<line class="st4" x1="29.4" y1="17.2" x2="29.4" y2="14.4"/>
	<polyline class="st4" points="32.1,17.2 32.1,8.4 35.2,5.3 	"/>
	<polyline class="st4" points="34.8,17.2 34.8,14.4 34.8,9.9 38.1,6.5 	"/>
	<line class="st4" x1="37.5" y1="17.2" x2="37.5" y2="14.4"/>
</g>
<g>
	<line class="st4" x1="29.4" y1="49.6" x2="29.4" y2="46.8"/>
	<line class="st4" x1="32.1" y1="49.6" x2="32.1" y2="46.8"/>
	<line class="st4" x1="34.8" y1="49.6" x2="34.8" y2="46.8"/>
	<line class="st4" x1="37.5" y1="49.6" x2="37.5" y2="46.8"/>
</g>
<g>
	<line class="st4" x1="48.2" y1="28" x2="54.7" y2="28"/>
	<line class="st4" x1="48.2" y1="30.7" x2="51" y2="30.7"/>
	<line class="st4" x1="48.2" y1="33.4" x2="51" y2="33.4"/>
	<line class="st4" x1="48.2" y1="36" x2="51" y2="36"/>
</g>
<g>
	<line class="st4" x1="15.9" y1="28" x2="18.7" y2="28"/>
	<line class="st4" x1="15.9" y1="30.7" x2="18.7" y2="30.7"/>
	<line class="st4" x1="15.9" y1="33.4" x2="18.7" y2="33.4"/>
	<line class="st4" x1="12" y1="36" x2="18.7" y2="36"/>
</g>
<circle class="st4" cx="10.5" cy="36" r="1.4"/>
<g>
	<path class="st4" d="M28.1,33.3c-0.3,0.2-0.7,0.3-1,0.3c-0.6,0-1.1-0.2-1.5-0.6"/>
	<path class="st4" d="M30.7,27.2c0,1.5-0.9,2.9-2.3,3.4"/>
	<path class="st4" d="M30,29.5c1,0.2,1.7,1.1,1.7,2.1"/>
	<path class="st4" d="M29,24c0.6,0.1,1.1,0.5,1.4,1"/>
	<path class="st4" d="M27.7,37.8c0.4-0.8,1.3-1.3,2.2-1.3c0.7,0,1.3,0.3,1.8,0.7"/>
	<path class="st4" d="M30.2,36.5c0-1,0.8-1.8,1.8-1.8"/>
	<path class="st4" d="M39.3,33.3c0.3,0.2,0.7,0.3,1,0.3c0.6,0,1.1-0.2,1.5-0.6"/>
	<path class="st4" d="M36.7,27.2c0,1.5,0.9,2.9,2.3,3.4"/>
	<path class="st4" d="M37.4,29.5c-1,0.2-1.7,1.1-1.7,2.1"/>
	<path class="st4" d="M38.4,24c-0.6,0.1-1.1,0.5-1.4,1"/>
	<path class="st4" d="M39.7,37.8c-0.4-0.8-1.3-1.3-2.2-1.3c-0.7,0-1.3,0.3-1.8,0.7"/>
	<path class="st4" d="M37.2,36.5c0-1-0.8-1.8-1.8-1.8"/>
	<path class="st4" d="M33.7,31.3c0,1.4,0,5.5-0.6,7.7c-0.1,0.4-0.4,0.7-0.7,0.9c-0.4,0.2-0.8,0.2-1.2,0.1c-1.2-0.5-2.8-1.3-3.2-1.8
		c-1.2-0.2-1.4-0.9-1.3-1.5c-1-0.3-1.8-2.5-1.1-4.1c0.7-1.4,0.5-2.1,0.4-2.9c-0.3-1.9,2.6-6,3.9-6.3c1.3-0.4,2.2-0.2,2.6,0.4
		c0.4,0.6,0.2,0.8,0.9,1.5c0.2,0.3,0.4,0.7,0.4,1.1C33.7,28.7,33.7,31.3,33.7,31.3z"/>
	<path class="st4" d="M33.7,31.3c0,1.4,0,5.5,0.6,7.7c0.1,0.4,0.4,0.7,0.7,0.9c0.4,0.2,0.8,0.2,1.2,0.1c1.2-0.5,2.8-1.3,3.2-1.8
		c1.2-0.2,1.4-0.9,1.3-1.5c1-0.3,1.8-2.5,1.1-4.1c-0.7-1.4-0.5-2.1-0.4-2.9c0.3-1.9-2.6-6-3.9-6.3c-1.3-0.4-2.2-0.2-2.6,0.4
		c-0.4,0.6-0.2,0.8-0.9,1.5c-0.2,0.3-0.4,0.7-0.4,1.1C33.7,28.7,33.7,31.3,33.7,31.3z"/>
</g>
</svg>
