<svg id="Group_23008" data-name="Group 23008" xmlns="http://www.w3.org/2000/svg" width="70" height="70" viewBox="0 0 70 70">
  <g id="Group_23010" data-name="Group 23010" transform="translate(0 55)">
    <g id="Group_23009" data-name="Group 23009">
      <g id="Group_23008-2" data-name="Group 23008" transform="translate(10.916 7.5)">
        <line id="Line_4" data-name="Line 4" x2="8.375" transform="translate(30.761)" fill="none" stroke="#19a301" stroke-linecap="round" stroke-linejoin="round" stroke-width="2.4"/>
        <line id="Line_5" data-name="Line 5" x2="0.679" transform="translate(47.489)" fill="none" stroke="#19a301" stroke-linecap="round" stroke-linejoin="round" stroke-width="2.4"/>
        <line id="Line_6" data-name="Line 6" x2="8.298" fill="none" stroke="#19a301" stroke-linecap="round" stroke-linejoin="round" stroke-width="2.4"/>
        <line id="Line_7" data-name="Line 7" x2="14.628" transform="translate(7.758)" fill="none" stroke="#82d400" stroke-linecap="round" stroke-linejoin="round" stroke-width="2.4"/>
      </g>
      <rect id="Rectangle_7155" data-name="Rectangle 7155" width="70" height="15" fill="none"/>
    </g>
  </g>
  <g id="Group_23011" data-name="Group 23011" transform="translate(11.455 8.218)">
    <circle id="Ellipse_2" data-name="Ellipse 2" cx="5.795" cy="5.795" r="5.795" transform="translate(0 9.625)" fill="none" stroke="#00a800" stroke-miterlimit="10" stroke-width="1.5"/>
    <line id="Line_3319" data-name="Line 3319" y2="32.16" transform="translate(19.234 13.307)" fill="none" stroke="#fff" stroke-linecap="round" stroke-linejoin="round" stroke-width="1.5"/>
    <line id="Line_3320" data-name="Line 3320" y2="8.925" transform="translate(33.027 36.468)" fill="none" stroke="#fff" stroke-linecap="round" stroke-linejoin="round" stroke-width="1.5"/>
    <line id="Line_3321" data-name="Line 3321" x2="4.137" y2="4.287" transform="translate(15.094 15.889)" fill="none" stroke="#fff" stroke-linecap="round" stroke-linejoin="round" stroke-width="1.5"/>
    <line id="Line_3322" data-name="Line 3322" x2="4.137" y2="4.287" transform="translate(15.094 26.142)" fill="none" stroke="#fff" stroke-linecap="round" stroke-linejoin="round" stroke-width="1.5"/>
    <line id="Line_3323" data-name="Line 3323" x1="4.137" y2="4.287" transform="translate(19.266 15.901)" fill="none" stroke="#fff" stroke-linecap="round" stroke-linejoin="round" stroke-width="1.5"/>
    <line id="Line_3324" data-name="Line 3324" x1="4.137" y2="4.287" transform="translate(19.266 26.154)" fill="none" stroke="#fff" stroke-linecap="round" stroke-linejoin="round" stroke-width="1.5"/>
    <line id="Line_3325" data-name="Line 3325" y1="2.669" x2="2.608" transform="translate(34.133 20.127)" fill="none" stroke="#fff" stroke-linecap="round" stroke-linejoin="round" stroke-width="1.5"/>
    <path id="Path_28990" data-name="Path 28990" d="M14.978,32.089a7.414,7.414,0,0,0,5.3,12.6H40.453A7.415,7.415,0,0,0,42.18,30.066a6,6,0,0,0-2.682-10.7,9.316,9.316,0,0,0-18.227-3.858" transform="translate(-11.455 -8.218)" fill="none" stroke="#fff" stroke-linecap="round" stroke-linejoin="round" stroke-width="1.5"/>
    <path id="Path_28991" data-name="Path 28991" d="M36.466,44.693H52.609a5.933,5.933,0,0,0,1.381-11.7,4.8,4.8,0,0,0-2.145-8.56,7.548,7.548,0,0,0,.146-1.467,7.454,7.454,0,0,0-11.939-5.954" transform="translate(-11.455 -8.218)" fill="none" stroke="#fff" stroke-linecap="round" stroke-linejoin="round" stroke-width="1.5"/>
    <line id="Line_3326" data-name="Line 3326" x1="37" transform="translate(4.986 45.782)" fill="none" stroke="#fff" stroke-linecap="round" stroke-linejoin="round" stroke-width="1.5"/>
  </g>
  <rect id="Rectangle_7156" data-name="Rectangle 7156" width="70" height="70" fill="none"/>
</svg>
