<?xml version="1.0" encoding="utf-8"?>
<!-- Generator: Adobe Illustrator 24.0.2, SVG Export Plug-In . SVG Version: 6.00 Build 0)  -->
<svg version="1.1" id="Grupo_24923" xmlns="http://www.w3.org/2000/svg" xmlns:xlink="http://www.w3.org/1999/xlink" x="0px"
	 y="0px" viewBox="0 0 70 70" style="enable-background:new 0 0 70 70;" xml:space="preserve">
<style type="text/css">
	.st0{fill:none;stroke:#19A301;stroke-width:2.4;stroke-linecap:round;stroke-linejoin:round;}
	.st1{fill:none;stroke:#FFFFFF;stroke-width:2.4;stroke-linecap:round;stroke-linejoin:round;}
	.st2{fill:none;}
	.st3{fill:none;stroke:#FFFFFF;stroke-width:1.5;stroke-linecap:round;stroke-linejoin:round;}
	.st4{fill:none;stroke:#000000;stroke-width:1.5;stroke-linecap:round;stroke-linejoin:round;}
</style>
<g id="Grupo_24921">
	<g id="Grupo_24920">
		<g id="Grupo_24919">
			<line id="Line_4" class="st0" x1="41.7" y1="62.5" x2="50.1" y2="62.5"/>
			<line id="Line_5" class="st1" x1="58.4" y1="62.5" x2="59.1" y2="62.5"/>
			<line id="Line_6" class="st0" x1="10.9" y1="62.5" x2="19.2" y2="62.5"/>
			<line id="Line_7" class="st1" x1="18.7" y1="62.5" x2="33.3" y2="62.5"/>
		</g>
		<rect id="Rectángulo_7785" y="55" class="st2" width="70" height="15"/>
	</g>
</g>
<rect id="Rectángulo_7786" y="0" class="st2" width="70" height="70"/>
<g id="Grupo_24922">
	<circle id="Ellipse_2" class="st3" cx="48.7" cy="14.6" r="5.8"/>
	<path id="Trazado_29277" class="st4" d="M29.8,54.2h20.9V23.8"/>
	<path id="Trazado_29278" class="st4" d="M40.5,10.6h-25v30.1"/>
	<line id="Línea_3853" class="st4" x1="24.5" y1="40.3" x2="43" y2="40.3"/>
	<line id="Línea_3854" class="st4" x1="24.5" y1="33.8" x2="43" y2="33.8"/>
	<line id="Línea_3855" class="st4" x1="24.5" y1="46.7" x2="43" y2="46.7"/>
	<path id="Trazado_29279" class="st4" d="M36.5,54.2H23.6c-4.5,0-8.1-3.6-8.1-8.1c0,0,0,0,0,0V25.2"/>
	<rect id="Rectángulo_7787" x="24.5" y="21" class="st4" width="18.2" height="8"/>
</g>
</svg>
