<?xml version="1.0" encoding="utf-8"?>
<!-- Generator: Adobe Illustrator 24.0.2, SVG Export Plug-In . SVG Version: 6.00 Build 0)  -->
<svg version="1.1" id="Layer_1" xmlns="http://www.w3.org/2000/svg" xmlns:xlink="http://www.w3.org/1999/xlink" x="0px" y="0px"
	 viewBox="0 0 70 70" style="enable-background:new 0 0 70 70;" xml:space="preserve">
<style type="text/css">
	.st0{clip-path:url(#SVGID_2_);}
	.st1{fill:none;}
	.st2{clip-path:url(#SVGID_4_);}
	.st3{fill:none;stroke:#19A301;stroke-width:2.4;stroke-linecap:round;stroke-linejoin:round;}
	.st4{fill:none;stroke:#FFFFFF;stroke-width:2.4;stroke-linecap:round;stroke-linejoin:round;}
	.st5{fill:none;stroke:#000000;stroke-width:1.5;stroke-linecap:round;stroke-linejoin:round;stroke-miterlimit:10;}
	.st6{fill:none;stroke:#FFFFFF;stroke-width:1.5;stroke-linecap:round;stroke-linejoin:round;}
</style>
<g>
	<defs>
		<rect id="SVGID_1_" y="0" width="70" height="70"/>
	</defs>
	<clipPath id="SVGID_2_">
		<use xlink:href="#SVGID_1_"  style="overflow:visible;"/>
	</clipPath>
	<g id="Enmascarar_grupo_1" transform="translate(-119 -1500.266)" class="st0">
		<g id="Noticias" transform="translate(119 1500.266)">
			<rect id="Rectángulo_7608" y="0" class="st1" width="70" height="70"/>
			<g>
				<defs>
					<rect id="SVGID_3_" y="55" width="70" height="15"/>
				</defs>
				<clipPath id="SVGID_4_">
					<use xlink:href="#SVGID_3_"  style="overflow:visible;"/>
				</clipPath>
				<g id="Grupo_24387" transform="translate(35 62.5)" class="st2">
					<g id="Grupo_24386">
						<line id="Line_4_3_" class="st3" x1="6.7" y1="0" x2="15.1" y2="0"/>
						<line id="Line_5_3_" class="st4" x1="23.4" y1="0" x2="24.1" y2="0"/>
						<line id="Line_6_3_" class="st3" x1="-24.1" y1="0" x2="-15.8" y2="0"/>
						<line id="Line_7_3_" class="st4" x1="-16.3" y1="0" x2="-1.7" y2="0"/>
					</g>
					<rect id="Rectángulo_7609" x="-35" y="-7.5" class="st1" width="70" height="15"/>
				</g>
			</g>
			<g id="Group_3863_4_" transform="translate(534 287)">
				<g id="Group_3862_4_">
					<path id="Path_4289_2_" class="st5" d="M-497.9-272.8l3-0.5v20.5l-18-2.8h-6.6c-1.9,0-3.4-1.5-3.4-3.3c0,0,0,0,0-0.1v-8.3
						c0-1.9,1.5-3.4,3.3-3.4c0,0,0,0,0.1,0h4.8"/>
					<path id="Rectangle_1487_4_" class="st5" d="M-488.1-248h-3.4c-1.9,0-3.4-1.5-3.4-3.3c0,0,0,0,0-0.1v-23.2
						c0-1.9,1.5-3.4,3.3-3.4c0,0,0,0,0.1,0h3.4V-248z"/>
					<path id="Rectangle_1488_4_" class="st5" d="M-488-256.5L-488-256.5v-13.3l0,0c2.7,0,4.8,2.1,4.8,4.8v3.7
						C-483.3-258.7-485.4-256.6-488-256.5z"/>
					<path id="Path_4290_4_" class="st5" d="M-506.5-254.6v18.3h-2.7c-2.3,0-4.1-1.8-4.1-4.1v-26.7"/>
					<line id="Line_379_4_" class="st5" x1="-479.8" y1="-263.7" x2="-475" y2="-263.7"/>
					<line id="Line_380_4_" class="st5" x1="-479.1" y1="-259.9" x2="-475.7" y2="-256.5"/>
					<line id="Line_381_4_" class="st5" x1="-479.1" y1="-267.5" x2="-475.7" y2="-270.8"/>
				</g>
			</g>
			<circle id="Ellipse_2_4_" class="st6" cx="27.5" cy="13.7" r="5.8"/>
		</g>
	</g>
</g>
</svg>
