<svg xmlns="http://www.w3.org/2000/svg" width="106.68" height="25.637" viewBox="0 0 106.68 25.637">
  <g id="logo-ocensa-verde" transform="translate(-39.778 -30)">
    <g id="Grupo_585" data-name="Grupo 585" transform="translate(-436.855 -940.363)">
      <g id="Grupo_584" data-name="Grupo 584">
        <path id="Trazado_1589" data-name="Trazado 1589" d="M548.009,973.966H551.1V996l-13.15-16.591V992.4H534.86V970.363l13.149,16.561ZM521.432,992.4H532.3v-2.907h-7.775V983.83h7.25v-2.839h-7.25v-4.116H532.3v-2.909H521.432Zm61.881,0h-3.374l-2.192-4.9h-7.162l-2.19,4.9h-3.368l9.091-19.977Zm-6.873-7.83-2.271-5.081L571.9,984.57Zm-12.675-1.4a8.629,8.629,0,0,0-3.272-2.049l-1.255-.5c-1.465-.57-2.147-1.243-2.147-2.119a2.337,2.337,0,0,1,2.473-2.063,2.557,2.557,0,0,1,2.419,1.453l.23.393,2.29-1.932a5.41,5.41,0,0,0-4.894-2.908,6.056,6.056,0,0,0-3.859,1.329A4.759,4.759,0,0,0,554,978.516c0,2.77,2.064,4.047,4.086,4.929l1.211.521c1.691.714,2.74,1.455,2.74,2.947a2.866,2.866,0,0,1-2.719,3.005h-.056a2.971,2.971,0,0,1-2.151-.879,2.784,2.784,0,0,1-.753-1.536h-3.15l0,.035a6.357,6.357,0,0,0,1.925,3.838,5.751,5.751,0,0,0,3.933,1.54,5.9,5.9,0,0,0,6.052-5.737v-.267A5.267,5.267,0,0,0,563.765,983.175Zm-52.1,6.743a6.7,6.7,0,0,1-6.636-6.734,6.636,6.636,0,0,1,11.393-4.767l0,0,.018.019a6.445,6.445,0,0,1,.474.555l2.323-1.924q-.324-.394-.686-.754a9.735,9.735,0,0,0-13.766-.015l-.007.007-.008.008a9.761,9.761,0,1,0,13.936,13.672q.3-.3.564-.627l-2.418-1.985A6.594,6.594,0,0,1,511.664,989.918Z" fill="#19a301"/>
      </g>
    </g>
    <path id="Path_11861" data-name="Path 11861" d="M485,970.955a.107.107,0,0,1,.083-.021.1.1,0,0,0,.041-.005.536.536,0,0,1,.174-.028c.016,0,.039.014.047.007.025-.02.035.01.05.008.037,0,.078.018.112-.014a1.007,1.007,0,0,0,.145-.019.065.065,0,0,0,.044-.016.481.481,0,0,1,.135-.083.737.737,0,0,1,.154-.037c.109-.01.22-.013.334-.019a.447.447,0,0,0,.072-.009.575.575,0,0,1,.135-.038c.052,0,.078-.045.122-.055l0-.005-.009-.01h-.117c-.046.043-.1.029-.158.032a.543.543,0,0,0-.229.035.5.5,0,0,1-.206.034.178.178,0,0,0-.045.012l-.118.02a1.086,1.086,0,0,0-.127.022,1.736,1.736,0,0,1-.334.084c-.03.027-.07.007-.1.021a1.012,1.012,0,0,1-.174.049.409.409,0,0,0-.083.021.11.11,0,0,0-.019.018c.007,0,.014.008.02.008A.086.086,0,0,0,485,970.955ZM479.6,975.08a.383.383,0,0,0,.131-.122c.022-.027.04-.057.059-.084a.026.026,0,0,1,.012-.011c.037-.016.066-.034.068-.084,0-.014.026-.039.055-.044s-.006-.042.035-.053a.144.144,0,0,0,.076-.091.053.053,0,0,0,0-.025.636.636,0,0,0-.066.05c-.019.018-.03.044-.05.063s-.047.08-.094.1c0,.035-.045.029-.052.053s-.036.048-.055.071c-.042.047-.084.094-.126.143a.077.077,0,0,0-.01.029.043.043,0,0,0,0,.016Zm2.155-1.932c-.042.01-.066.048-.1.064a1.1,1.1,0,0,0-.251.187.383.383,0,0,1-.047.03c-.017.012-.036.023-.053.036s-.026.032-.043.037a.275.275,0,0,0-.11.084c-.016.014-.036.024-.052.038s-.007.017-.01.026.015.008.021.007a.086.086,0,0,0,.035-.016.627.627,0,0,1,.114-.093c.055-.025.093-.07.147-.094.016-.007.038-.019.043-.033.01-.03.036-.036.056-.051.043-.036.089-.069.134-.1a.253.253,0,0,1,.073-.053.287.287,0,0,0,.108-.066.138.138,0,0,0,.013-.02h-.042A.155.155,0,0,1,481.752,973.148Zm8.167,17.78a.17.17,0,0,1-.084.005.387.387,0,0,0-.1.013.13.13,0,0,0-.054.015c-.012.008-.037-.007-.056-.006a.159.159,0,0,0-.078.013c-.028.028-.051,0-.077.005a.477.477,0,0,1-.084.008.162.162,0,0,0-.049.005.16.16,0,0,1-.125,0,.131.131,0,0,0-.065-.005.325.325,0,0,1-.2,0,.057.057,0,0,0-.026,0l-.01.011s0,.02.008.021a.749.749,0,0,0,.094.018h.1c.015,0,.037.018.042.013.027-.026.058-.012.083-.013s.063,0,.093,0h.078a.422.422,0,0,1,.137-.014h.025c.034-.03.075-.011.112-.016a.944.944,0,0,1,.119-.016.242.242,0,0,0,.119-.02.172.172,0,0,1,.084-.015h.068c.006,0,.011-.007.024-.018-.014-.008-.023-.015-.03-.014A.429.429,0,0,0,489.919,990.928Zm10.42-8.324a.385.385,0,0,1,0-.083.413.413,0,0,0-.045-.21.574.574,0,0,1-.04-.187v-.4c0-.03.012-.062-.016-.084a.025.025,0,0,1,0-.024c.032-.049.011-.1.016-.154a.518.518,0,0,1,.016-.188.06.06,0,0,0,0-.049c-.024-.03-.013-.064-.016-.1a.159.159,0,0,0,0-.031.6.6,0,0,1-.029-.158.437.437,0,0,0-.052-.2.137.137,0,0,1-.016-.069,1.576,1.576,0,0,0-.035-.3c0-.021-.018-.041-.015-.061a.522.522,0,0,0-.021-.11c0-.013-.015-.024-.014-.036a.319.319,0,0,0-.052-.19.132.132,0,0,1-.008-.116.068.068,0,0,0-.005-.076.137.137,0,0,1-.021-.093v-.126c-.042-.042-.037-.1-.061-.152s-.069-.1-.058-.163a.092.092,0,0,0-.035-.1.056.056,0,0,1-.015-.035q-.024-.075-.054-.147c-.012-.05-.012-.11-.065-.142v-.016c-.018-.044-.023-.093-.042-.135a1.458,1.458,0,0,1-.078-.222c-.005-.027-.03-.053-.03-.079a.175.175,0,0,0-.021-.084c-.026-.042,0-.1-.048-.133-.005,0,0-.022,0-.033-.005-.042-.011-.083-.018-.128a.037.037,0,0,0-.012-.02.073.073,0,0,1-.023-.05.451.451,0,0,0-.032-.1c-.015-.034-.029-.067-.041-.1a.151.151,0,0,0-.04-.077c-.028-.024-.018-.069-.035-.1a.575.575,0,0,1-.038-.12.352.352,0,0,0-.055-.154.519.519,0,0,1-.062-.11.147.147,0,0,0-.027-.047c-.018-.02-.037-.036-.006-.061v-.015c-.04,0-.023-.046-.042-.057a.186.186,0,0,1-.058-.1.24.24,0,0,0-.049-.083.1.1,0,0,1-.019-.034.583.583,0,0,0-.084-.167.265.265,0,0,1-.042-.092c-.008-.026,0-.067-.033-.078s-.036-.035-.048-.056a.848.848,0,0,1-.034-.079.2.2,0,0,0-.037-.069c-.027-.021-.024-.056-.042-.076-.033-.037-.04-.083-.071-.123s-.02-.093-.055-.129a.057.057,0,0,0-.042-.065c-.042-.012-.051-.046-.071-.074-.005-.008-.007-.026-.012-.027-.054-.008-.05-.069-.084-.092a.07.07,0,0,1-.025-.065.074.074,0,0,0-.05-.083.1.1,0,0,1-.032-.025c-.037-.046-.1-.071-.108-.141-.065-.059-.088-.146-.144-.21a.059.059,0,0,1-.02-.051.072.072,0,0,0-.033-.071.5.5,0,0,0-.036-.044c-.042-.036-.052-.092-.088-.134s-.055-.057-.084-.083c-.039-.045-.076-.091-.11-.139a.063.063,0,0,1-.011-.084c.012-.02,0-.032-.02-.029s-.05,0-.056-.024a.033.033,0,0,0-.04-.027h-.024a.318.318,0,0,1-.073-.1.1.1,0,0,0-.063-.074.081.081,0,0,1-.036-.035,1.623,1.623,0,0,1-.124-.2c-.015-.032-.027-.034-.066-.021-.01,0-.026.009-.029.005a.614.614,0,0,0-.13-.1.719.719,0,0,1-.1-.094.656.656,0,0,1-.091-.084c-.018-.029-.03-.066-.073-.084s-.025-.075-.066-.1c-.012-.006-.014-.035-.025-.037-.05-.013-.058-.061-.084-.093s-.035-.055-.075-.052a.048.048,0,0,1-.029-.01.584.584,0,0,1-.168-.168.459.459,0,0,0-.094-.112c-.063-.052-.13-.1-.189-.155a.1.1,0,0,0-.084-.03c-.025,0-.051,0-.076,0a.055.055,0,0,1-.031-.008c-.047-.039-.092-.079-.137-.12v-.016a.052.052,0,0,1,.018,0l.035.017c.012.006.011,0,.012,0s.005-.012,0-.015a.125.125,0,0,1-.02-.026.814.814,0,0,0-.179-.141.574.574,0,0,0-.2-.134c-.033-.041-.092-.045-.126-.08a.979.979,0,0,0-.15-.112.476.476,0,0,1-.052-.036c-.027-.024-.053-.051-.079-.077-.049.014-.058-.048-.1-.051-.04-.045-.1-.057-.149-.092a1.953,1.953,0,0,0-.222-.138,1.3,1.3,0,0,1-.128-.079.421.421,0,0,1-.084-.055c-.026-.032-.077-.017-.1-.058a.2.2,0,0,1-.126-.063c-.062-.048-.133-.084-.19-.134a.046.046,0,0,0-.023-.006.23.23,0,0,1-.152-.048.56.56,0,0,0-.178-.1.679.679,0,0,1-.215-.095c-.037-.024-.076-.036-.112-.057-.021-.013-.052.009-.069-.019-.075-.006-.128-.078-.207-.072-.019-.029-.048-.03-.08-.035s-.053-.03-.087-.033-.041-.029-.063-.031a.765.765,0,0,1-.243-.068h-.017v.017c.006.027.039.048.02.084l-.078-.03-.015-.005a.246.246,0,0,0-.1-.031.351.351,0,0,1-.18-.057.1.1,0,0,0-.075-.028.375.375,0,0,1-.2-.056.268.268,0,0,0-.13-.031.087.087,0,0,1-.068-.021.231.231,0,0,0-.143-.06.85.85,0,0,1-.172-.039c-.022,0-.041-.024-.063-.032s-.057-.01-.083-.018a.59.59,0,0,1-.072-.033c-.023.029-.056.013-.083.016a.053.053,0,0,1-.029-.012,1.227,1.227,0,0,0-.242-.088.221.221,0,0,0-.061-.016.262.262,0,0,1-.066-.024c-.033-.01-.068-.055-.109-.012a.027.027,0,0,1-.025,0c-.048-.031-.107-.025-.158-.047a.273.273,0,0,0-.167-.017c-.034.008-.059.024-.089,0a.175.175,0,0,1-.1.017.045.045,0,0,1-.022-.008.09.09,0,0,0-.083-.006.4.4,0,0,1-.2,0,.148.148,0,0,0-.113.007c-.016.01-.023,0-.036,0-.029-.011-.067-.03-.09-.02-.057.025-.121.016-.175.046a.044.044,0,0,1-.032,0,.154.154,0,0,0-.126,0,.034.034,0,0,1-.028,0,.068.068,0,0,0-.07,0,.1.1,0,0,1-.038.01,2.171,2.171,0,0,1-.229,0c-.075-.007-.149.038-.223,0h-.032a.246.246,0,0,1-.045.012c-.1,0-.2.006-.3,0s-.2.022-.306.019a.441.441,0,0,0-.1.016l-.01.013c.025.016.035.054.072.054h.236c.014-.044.048.012.066-.013h.242c.011.024.028-.006.036,0,.02.023.031,0,.049,0a.051.051,0,0,1,.048,0c.025.023.053.01.08.015s.052.012.078.016a.123.123,0,0,0,.038-.009c.008,0,.019-.01.022-.007.027.027.054.017.084,0a.1.1,0,0,0,.083.015c.021-.005.036.03.056.005a1.03,1.03,0,0,1,.208,0,.473.473,0,0,0,.13.007.133.133,0,0,1,.056,0c.037.012.083,0,.114.034a.046.046,0,0,1,.017-.01.09.09,0,0,1,.04,0,.434.434,0,0,0,.168.017c.018,0,.036.009.055.009.063,0,.12.054.188.025a.033.033,0,0,1,.024,0,.414.414,0,0,0,.19.031c.02,0,.046-.009.058,0a.1.1,0,0,0,.084.013c.036-.006.061.021.094.018a1.417,1.417,0,0,1,.214.04.665.665,0,0,1,.114.03.481.481,0,0,0,.12.015.053.053,0,0,1,.024.006.369.369,0,0,0,.2.045h.032a.169.169,0,0,0,.122.039.578.578,0,0,0,.133.01.085.085,0,0,1,.05,0,.744.744,0,0,0,.284.047.083.083,0,0,1,.06.022.342.342,0,0,0,.111.076,1.15,1.15,0,0,0,.232.052.441.441,0,0,1,.151.046.177.177,0,0,0,.092.025.6.6,0,0,1,.168.032c.041.01.072.051.121.035a.035.035,0,0,1,.01.019.244.244,0,0,1-.008.047l-.035-.016H492.3c-.037-.007-.024.03-.039.044s.01.037.02.037c.065.005.11.069.181.056a.1.1,0,0,1,.035.016.528.528,0,0,0,.175.068c.014,0,.022.027.041.009l-.036-.032c-.023-.017-.047-.046-.072-.048-.044,0-.064-.037-.1-.051a.917.917,0,0,1-.1-.053.026.026,0,0,1-.008-.021c0-.005.011-.011.018-.012a.428.428,0,0,1,.192.066.187.187,0,0,0,.071.034.31.31,0,0,1,.116.048.121.121,0,0,0,.11.038c.018-.005.031.006.045.016a.13.13,0,0,0,.052.016.236.236,0,0,1,.132.069.029.029,0,0,1,.007.022c0,.005-.011.011-.018.011a.365.365,0,0,1-.167-.027c-.021-.009-.032-.005-.041.009s-.036.059-.055.084a.041.041,0,0,1-.063.015.681.681,0,0,0-.287-.084.1.1,0,0,1-.044-.017c-.042-.021-.09-.031-.131-.052a.775.775,0,0,0-.14-.05.818.818,0,0,1-.167-.062,1.024,1.024,0,0,0-.168-.052.412.412,0,0,0-.077-.017.092.092,0,0,1-.072-.034H491.7a.207.207,0,0,1-.1-.029l-.024-.02c-.035.022-.051,0-.072-.023a.043.043,0,0,0-.029-.011.781.781,0,0,1-.178-.035.522.522,0,0,0-.111-.016.186.186,0,0,1-.077-.019.514.514,0,0,0-.2-.05.138.138,0,0,1-.05,0,.4.4,0,0,0-.122-.032.375.375,0,0,1-.137-.017.038.038,0,0,0-.033,0c-.026.027-.058.011-.084.016a1.094,1.094,0,0,1-.2-.019.41.41,0,0,1-.163-.013c-.03-.013-.071,0-.1-.019-.026.023-.052.005-.079,0a.616.616,0,0,0-.112-.022,2.042,2.042,0,0,1-.2-.017.114.114,0,0,1-.043-.017.258.258,0,0,0-.168-.051c-.005,0-.013-.008-.02-.01a.572.572,0,0,0-.093-.022h-.178a1.672,1.672,0,0,0-.167-.018c-.056.006-.124,0-.206,0a1.7,1.7,0,0,0-.294.013c-.037.01-.038.005-.038.033s.027.018.042.021.045-.032.068-.013.042.021.065,0a.029.029,0,0,1,.031,0c.027.024.058.015.084.015a.115.115,0,0,0,.071-.013c.016-.01.05.012.076.013h.186a.31.31,0,0,1,.121.015.394.394,0,0,0,.167.018h.06a.2.2,0,0,1,.138.034c.013.008.036.021.043.015.031-.024.045.006.066.016.005,0,.008.008.011.012l-.013.008a.534.534,0,0,1-.112.018h-.221a2.127,2.127,0,0,1-.213-.017.225.225,0,0,1-.038-.011c-.013,0-.04-.01-.046,0-.033.032-.064,0-.088-.005a.2.2,0,0,0-.072-.013.349.349,0,0,1-.179-.04c-.005,0-.015-.006-.017,0-.046.052-.106.015-.159.026-.049-.042-.1-.008-.144.007a.1.1,0,0,1-.063.008.21.21,0,0,0-.14,0c-.048.01-.1.048-.154,0a.028.028,0,0,0-.025,0c-.028.028-.063.015-.1.016h-.263c-.013,0-.034,0-.038.006-.025.043-.059.022-.084.009a.178.178,0,0,0-.1,0,.844.844,0,0,1-.188.021c-.016,0-.044.019-.05.013-.05-.048-.124.035-.167-.03h-.006c-.041.039-.092.027-.141.03a.071.071,0,0,0-.041.019c-.008.009-.006.025-.008.039,0,.03-.006.032-.034.017-.012-.005-.03-.009-.034-.018-.018-.038-.042-.007-.06-.005s-.031.027-.047.027-.028-.023-.044-.028-.039,0-.036.028a.034.034,0,0,1-.029.037h-.006c-.022,0-.012-.019-.015-.031s-.008-.018-.011-.018c-.03,0-.061-.01-.084.018a.206.206,0,0,1-.059.042h-.027c-.022-.039-.051-.006-.076-.009s-.025,0-.03.035c0,.005-.014.015-.015.014-.026-.026-.052,0-.083,0a.265.265,0,0,0-.163.078.055.055,0,0,1-.04.022c-.073-.007-.132.051-.2.039-.034.026-.079.005-.115.028-.011.007-.027,0-.026.023a.1.1,0,0,1,0,.034.041.041,0,0,1-.053.027l-.013-.006c-.013-.01-.023-.024-.036-.035a.035.035,0,0,0-.021-.007c-.02.03-.056,0-.076.023a.208.208,0,0,0-.052.062c-.009.02-.02.015-.033.015s-.017-.011-.017-.025-.009-.029-.031-.019-.034.011-.051.019-.012.011-.018.017l.018.01c.022.009.045.017.065.027s.027.023.041.023.027-.014.041-.022.036-.029.038-.026c.029.027.047.007.069-.011a.049.049,0,0,1,.044,0c.01,0,.022.026.019.032a.084.084,0,0,1-.036.028c-.023.013-.047.022-.071.033l-.008.012.014.005a.354.354,0,0,0,.14-.029q.04-.012.084-.021a.6.6,0,0,0,.1-.018.422.422,0,0,1,.173-.033c.022,0,.053.009.066,0,.029-.024.059-.01.084-.015a.392.392,0,0,1,.083-.015.24.24,0,0,0,.1-.019.8.8,0,0,1,.174-.032.238.238,0,0,0,.107-.029.149.149,0,0,1,.092-.025c.083,0,.159-.01.238-.016h.009c.026-.036.072-.005.107-.029s.083,0,.114-.024.039.013.063,0a.232.232,0,0,1,.141-.029h.16a.168.168,0,0,0,.05,0,.317.317,0,0,1,.178,0c.008,0,.019,0,.023,0,.026-.027.058-.01.083-.013s.044.007.059,0c.053-.031.109-.008.167-.016.027.027.066.014.1.03s.072,0,.109,0a.015.015,0,0,1,.014.006c.005.006-.008.015-.014.018a.125.125,0,0,1-.038.01h-.077a.5.5,0,0,0-.077.016.338.338,0,0,1-.061.015h-.212c-.07,0-.137.015-.2.015a.994.994,0,0,1-.2.019H487.3c-.027.031-.064.01-.1.016s-.063.013-.1.017l-.264.016h-.017c-.077.047-.167.025-.251.049-.066.019-.139.018-.2.038a.39.39,0,0,1-.084.015.2.2,0,0,0-.053.013.835.835,0,0,1-.275.054.086.086,0,0,0-.032,0,.985.985,0,0,1-.3.066c-.01,0-.019.01-.029.01a1.136,1.136,0,0,1-.2.062c-.036.031-.084.019-.123.031a.554.554,0,0,1-.1.035.281.281,0,0,0-.106.031.58.58,0,0,1-.167.053.441.441,0,0,0-.134.045c-.045.025-.1.01-.139.053a.03.03,0,0,1-.024.005.143.143,0,0,0-.1.031.086.086,0,0,1-.051.018.384.384,0,0,0-.144.041c-.029.011-.063.031-.089.025a.376.376,0,0,0-.106,0,.17.17,0,0,0-.116.028.052.052,0,0,1-.047.005.306.306,0,0,0-.213,0c-.009,0-.011.009-.025.006-.062-.015-.124-.026-.173.037-.011.014-.038.016-.058.022a.046.046,0,0,1-.031,0c-.018.038-.063.027-.091.051s-.068.027-.1.048a.193.193,0,0,1-.157.05.019.019,0,0,0-.014.006,2.635,2.635,0,0,0-.24.114.331.331,0,0,1-.125.046.377.377,0,0,0-.094.021.548.548,0,0,0-.221.1l-.017.022c-.023.024-.043.063-.071.069-.062.015-.1.064-.145.095a.4.4,0,0,0-.051.04.022.022,0,0,0,0,.022.023.023,0,0,0,.021.005.127.127,0,0,0,.041-.023c.013-.011.027-.016.035,0a.049.049,0,0,1-.005.039c-.021.037-.066.011-.1.035-.014.012-.011-.018-.02-.025a.034.034,0,0,0-.028,0,1.072,1.072,0,0,1-.145.059.234.234,0,0,0-.105.072l-.006.014h.015a.124.124,0,0,0,.047-.005c.032-.038.084-.032.12-.061a.066.066,0,0,1,.049-.013c.022.021-.021.034-.013.057-.007,0-.021.007-.022.005-.014-.021-.023-.01-.036,0s-.031.031-.046.031c-.065,0-.078.047-.1.092a.264.264,0,0,1-.147.128.071.071,0,0,0-.057.027.1.1,0,0,1-.093.043.073.073,0,0,0-.058.049c0,.029.027.01.037.018a.38.38,0,0,1,.055.051.017.017,0,0,1,0,.017.063.063,0,0,1-.072.018.148.148,0,0,1-.077-.038c-.017-.021-.026-.006-.038,0s-.034.015-.039.027c-.018.043-.062.057-.089.089a.05.05,0,0,1-.054.028.069.069,0,0,0-.07.035c-.018.023-.031.055-.055.069a.333.333,0,0,0-.112.115l-.005.017h.022a.471.471,0,0,0,.059-.041c.038-.031.073-.067.114-.094a.229.229,0,0,1,.1-.04c.065-.01.071,0,.083-.046.009-.026.02-.028.04-.027s.027,0,.035-.024.072-.038.094-.023,0,.039-.027.069l-.011.013v.012c.007,0,.018.005.022,0a.478.478,0,0,1,.1-.076.65.65,0,0,0,.153-.1.642.642,0,0,1,.129-.076,1.533,1.533,0,0,0,.326-.194.272.272,0,0,1,.084-.053.294.294,0,0,0,.112-.079.221.221,0,0,1,.077-.058c.075-.022.131-.077.2-.1a.825.825,0,0,0,.168-.119c.029-.021.071-.02.092-.043a.719.719,0,0,1,.12-.084.235.235,0,0,1,.108-.042.2.2,0,0,0,.1-.048.186.186,0,0,1,.137-.056.08.08,0,0,0,.059-.021.527.527,0,0,1,.1-.049.453.453,0,0,1,.1-.056.41.41,0,0,1,.124-.026.068.068,0,0,0,.031-.008c.06-.025.131-.03.175-.089h.007l.039.007-.008.031c-.015.034-.052.024-.076.042l-.067.05a.022.022,0,0,1-.016,0c-.047-.008-.07.034-.105.052a.017.017,0,0,0,.011.032.2.2,0,0,0,.054-.011.674.674,0,0,1,.161-.063.113.113,0,0,0,.058-.023c.051-.041.118,0,.167-.038.043.039.079,0,.116-.013a.656.656,0,0,1,.076-.02.207.207,0,0,0,.133-.068.407.407,0,0,1,.266-.116.362.362,0,0,0,.047-.007.5.5,0,0,1,.185-.045c.009,0,.018-.013.028-.014.065-.021.128-.046.19-.073a.187.187,0,0,0,.059-.042.371.371,0,0,0,.043-.035.239.239,0,0,0-.066,0,.35.35,0,0,0-.11.039.165.165,0,0,1-.108.027c-.066-.005-.123.033-.189.036-.017,0-.032.029-.049.042s-.016,0-.023.007c-.059.033-.126.013-.19.029a.788.788,0,0,0-.159.047c-.009,0-.025.007-.028,0-.02-.024-.033-.007-.049.005s-.017,0-.021-.007a.026.026,0,0,1,0-.021.117.117,0,0,1,.094-.039c.013,0,.034,0,.035-.011a.08.08,0,0,1,.1-.057h0a.033.033,0,0,0,.021-.006c.069-.05.161-.031.231-.077a.015.015,0,0,1,.016,0c.029.026.048.03.067-.013.005-.011.043,0,.06-.014a.389.389,0,0,1,.139-.051.618.618,0,0,1,.16-.024.42.42,0,0,0,.127-.008.27.27,0,0,0,.106-.052.148.148,0,0,1,.167-.026c.009.006.026,0,.04,0a.208.208,0,0,1,.045-.011.13.13,0,0,0,.1-.036.054.054,0,0,1,.027-.014.244.244,0,0,0,.1-.028.046.046,0,0,1,.058.01,1.016,1.016,0,0,1,.084.073c.024.026.022,0,.031,0,.041,0,.077-.03.121-.019a.047.047,0,0,0,.033,0,.735.735,0,0,1,.139-.032.4.4,0,0,1,.146-.016c.024-.027.056-.014.083-.017s.063-.013.1-.016c.084-.008.167,0,.251-.013s.176-.026.265-.035.168-.019.247-.02a.094.094,0,0,1,.063.014c.013.009.044-.01.068-.014a.027.027,0,0,1,.021.006c.012.011.02.01.036,0a.269.269,0,0,1,.174-.024.39.39,0,0,0,.1.013c.021,0,.045.009.061-.016.016.023.039.016.06.016h.322c.019,0,.039.007.056-.011a.031.031,0,0,1,.031,0c.041.029.083.011.128.016a.81.81,0,0,0,.129.016,3.255,3.255,0,0,0,.341.018c.009,0,.019.009.029.01a.416.416,0,0,0,.126.023.141.141,0,0,1,.1.016.072.072,0,0,0,.083.016c.055-.027.11-.007.168-.014.01,0,.026.013.031.009a.024.024,0,0,1,.034-.005l.008.01a.084.084,0,0,0,.1.035c.04-.013.075.037.113,0,.057.032.125.017.184.046a.055.055,0,0,0,.045-.008c.014-.007.051-.016.068,0a.116.116,0,0,0,.1.041.312.312,0,0,1,.084.024c.012,0,.031.012.038.007.044-.036.03.01.028.021a.178.178,0,0,1-.026.049c-.009.013-.017.006-.03,0a.475.475,0,0,0-.144-.022.069.069,0,0,1-.032,0,.436.436,0,0,0-.168-.03.2.2,0,0,1-.083-.009.315.315,0,0,0-.142-.021.394.394,0,0,1-.084,0,1.1,1.1,0,0,0-.152,0,1.329,1.329,0,0,1-.146-.016.568.568,0,0,1-.205-.017h-.024c-.023.027-.052.014-.079.015h-.251c-.084,0-.167-.018-.255-.018-.116,0-.232.005-.348,0s-.231.021-.349.018h-.178c-.014,0-.033-.006-.042,0-.032.027-.069.011-.1.016s-.074.013-.112.017a1.283,1.283,0,0,0-.231.015c-.065.017-.137.008-.2.021-.048.009-.1.006-.145.018a.572.572,0,0,1-.083.014.413.413,0,0,1-.084.015c-.061,0-.118.031-.179.019-.037.027-.084,0-.119.019a.329.329,0,0,1-.121.014h-.017a.09.09,0,0,0-.084.095h0v.016c-.008.054-.029.072-.083.074a.1.1,0,0,0-.062.016.108.108,0,0,1-.06.018.835.835,0,0,0-.251.054c-.049.014-.108.007-.15.048h-.025c-.023.005-.047.01-.068.016s-.025.017-.036.016c-.061-.006-.108.052-.172.036a.114.114,0,0,1-.1.033c-.039,0-.065.029-.1.037s-.1.037-.156.053a.6.6,0,0,1-.116.042.653.653,0,0,0-.12.042c-.054.014-.107.04-.162.057a.688.688,0,0,0-.11.04.2.2,0,0,1-.114.035c-.015,0-.032.017-.048.026a.235.235,0,0,1-.033.023c-.1.042-.209.083-.31.131a1.622,1.622,0,0,1-.167.07.7.7,0,0,0-.107.051l-.1.053a1.5,1.5,0,0,1-.144.084.7.7,0,0,0-.15.069.715.715,0,0,1-.089.051.945.945,0,0,0-.174.087c-.054.045-.126.061-.174.115,0,.005-.015.005-.022.008l-.235.128a.184.184,0,0,0-.027.016.182.182,0,0,1-.088.053.312.312,0,0,0-.084.055c-.005,0-.009.011-.013.01-.034-.008-.049.02-.07.037a.355.355,0,0,1-.037.031,1.386,1.386,0,0,0-.126.084.874.874,0,0,1-.162.1.388.388,0,0,0-.084.06.728.728,0,0,1-.114.093,1.127,1.127,0,0,0-.236.188.6.6,0,0,1-.063.05c-.062.049-.124.1-.185.147a.815.815,0,0,1-.136.12c-.013.007-.019.025-.03.038a.169.169,0,0,1-.037.043c-.1.06-.158.168-.261.228-.006.032-.043.035-.059.058a.533.533,0,0,1-.054.071c-.084.093-.176.186-.263.28a.692.692,0,0,0-.1.126.589.589,0,0,1-.086.112,1.7,1.7,0,0,0-.139.167c-.037.054-.083.1-.118.155s-.077.1-.111.149a.975.975,0,0,0-.089.131.354.354,0,0,1-.1.136c-.058.115-.137.219-.2.335a.448.448,0,0,1-.029.046.231.231,0,0,0-.035.053.424.424,0,0,1-.089.159,1.091,1.091,0,0,0-.11.19.687.687,0,0,1-.114.2v.008c-.009.073-.071.122-.084.193,0,.021-.027.035-.035.061a2.261,2.261,0,0,1-.1.238.548.548,0,0,0-.042.084c-.012.034-.026.068-.041.1a.722.722,0,0,0-.048.106.658.658,0,0,1-.054.148.232.232,0,0,0-.016.051.508.508,0,0,1-.067.159.15.15,0,0,0-.018.026,1.379,1.379,0,0,1-.069.175c-.008.017-.02.032-.015.052s-.011.041-.017.061,0,.045-.008.065a.744.744,0,0,0-.046.108c-.006.037-.041.069-.046.106s-.044.067-.046.109a.043.043,0,0,1-.017.033c-.035.016-.033.045-.045.075a.9.9,0,0,1-.045.142.647.647,0,0,0-.047.141.39.39,0,0,1-.018.069c-.026.051-.055.1-.084.152,0,.006-.007.02-.006.021.036.022,0,.042,0,.063a1.057,1.057,0,0,0-.019.136.166.166,0,0,1-.026.084c-.015.029-.045.014-.068.016s-.019.011-.024.025a.278.278,0,0,0-.032.147c-.026.031-.009.071-.019.1a.657.657,0,0,0-.033.2c0,.013-.009.025-.01.038,0,.04-.031.075-.008.119a.068.068,0,0,1-.011.071.142.142,0,0,0-.02.067.362.362,0,0,1-.019.1c-.013.03,0,.067-.017.1a.458.458,0,0,0,0,.117,1.07,1.07,0,0,1-.016.119c-.006.084-.011.168-.017.246l-.008.022c0,.009-.008.025-.005.028.024.021.009.048.013.071a1.719,1.719,0,0,1-.017.238v.414a.28.28,0,0,0,.015.146.041.041,0,0,1,0,.04c-.026.023-.015.052-.015.078a2.684,2.684,0,0,0,.013.323c.013.132,0,.265,0,.4a.1.1,0,0,1,0,.049.151.151,0,0,0,0,.14c.008.015.017.038.01.049a.2.2,0,0,0-.008.106c0,.037-.014.077.015.112a.031.031,0,0,1,0,.032c-.024.021-.013.047-.014.071a.584.584,0,0,0,.032.223.615.615,0,0,1,.019.1c0,.026-.012.056.016.079,0,0,0,.019-.006.021a.146.146,0,0,1-.068.017c-.02,0-.027-.028-.028-.053a.823.823,0,0,0-.045-.218c0-.01-.008-.025,0-.031.024-.028-.007-.052-.005-.078s-.011-.025-.012-.037c-.007-.06-.011-.12-.018-.179,0-.01-.008-.019-.01-.03-.008-.052-.039-.106-.022-.158s-.017-.109,0-.167c-.048-.059-.021-.136-.049-.2-.011-.024,0-.056,0-.084a.831.831,0,0,0-.016-.084.651.651,0,0,1-.016-.077.541.541,0,0,0-.018-.188c-.01-.023.021-.042,0-.072s0-.061,0-.091.018-.073-.015-.1a.015.015,0,0,1,0-.016c.031-.027.015-.063.015-.095a.271.271,0,0,0-.009-.106c-.011-.027.009-.066.01-.1v-.161a.129.129,0,0,1,0-.048c.024-.056.021-.119.045-.176a.073.073,0,0,0-.022-.084.316.316,0,0,1-.044-.15c.005-.02.02-.036.018-.061s-.011-.043.01-.062-.025-.036-.011-.059a.024.024,0,0,1,.008-.022c.009-.005,0-.018-.005-.024s-.018-.017,0-.037a.238.238,0,0,0,.036-.162c-.008-.066.017-.133-.016-.2,0,0,0-.017.008-.021.036-.027.029-.063.018-.1a.048.048,0,0,1,0-.024.306.306,0,0,0-.005-.167.053.053,0,0,1,.008-.053.216.216,0,0,0,.039-.137c0-.009.008-.019.01-.029a.3.3,0,0,0,.024-.125.155.155,0,0,1,.011-.1.176.176,0,0,0,.016-.1.421.421,0,0,1,.031-.156.272.272,0,0,0,.039-.162.166.166,0,0,1,.032-.131.21.21,0,0,0,.014-.066,1.041,1.041,0,0,0,.041-.167.041.041,0,0,1,.01-.021.1.1,0,0,0,.018-.061.074.074,0,0,1,.008-.039.708.708,0,0,0,.065-.184c.008-.055.05-.1.045-.159.033-.031.007-.078.032-.114.043-.06.046-.138.084-.2a.427.427,0,0,0,.023-.092.848.848,0,0,0,.032-.1.384.384,0,0,1,.043-.117c.021-.04.052-.074.073-.114a.194.194,0,0,0,.036-.112.127.127,0,0,1,.023-.073.954.954,0,0,0,.063-.143c.013-.028.011-.062.042-.084a.125.125,0,0,0,.037-.091.189.189,0,0,1,.04-.112c.028-.042.048-.083.074-.13.009-.016.02-.031.029-.047a.461.461,0,0,0,.061-.1.637.637,0,0,1,.056-.128c.025-.046.054-.091.084-.137.014-.023.042-.041.045-.065.006-.044.04-.069.057-.1s.034-.07.055-.1c.03-.05.063-.1.1-.147a.428.428,0,0,0,.088-.15c0-.011.017-.02.026-.031a.457.457,0,0,0,.084-.107c.029-.079.111-.118.133-.2.051-.042.063-.115.12-.153l.005-.006c-.009-.039.024-.053.044-.075a.362.362,0,0,1,.088-.1.16.16,0,0,0,.069-.072.319.319,0,0,1,.1-.127.34.34,0,0,0,.071-.115c.021-.047.019-.047.083-.093a.884.884,0,0,0,.1-.083,1.673,1.673,0,0,0,.12-.12c.035-.04.1-.054.113-.111.047,0,.04-.053.071-.072.073-.048.107-.133.173-.189.017-.055.065-.084.1-.118.066-.06.159-.093.188-.189l.006-.006a.484.484,0,0,0,.159-.156c.012-.016.026-.036.042-.041a.13.13,0,0,0,.083-.069c.039-.075.113-.11.168-.163a1.739,1.739,0,0,1,.145-.116c.048-.039.1-.084.149-.132.01-.009.019-.024.031-.029a.428.428,0,0,0,.141-.109c.045-.042.11-.06.148-.113a.3.3,0,0,1,.052-.036c.017-.014.005-.015.007-.023s-.013,0-.018,0a.3.3,0,0,0-.047.029,1.3,1.3,0,0,1-.137.1.914.914,0,0,0-.228.168.278.278,0,0,1-.052.038c-.072.046-.14.1-.209.152-.044.033-.083.076-.124.108a1.831,1.831,0,0,0-.218.186.238.238,0,0,1-.036.035,3.37,3.37,0,0,0-.284.234c-.042.036-.083.084-.145.078-.025.027-.071.016-.088.053s-.043.027-.057.051-.05.008-.076.014c-.008,0-.018,0-.023.006-.033.033-.084.033-.114.067s-.057.02-.078.041a.7.7,0,0,1-.1.005c-.054-.023-.055-.024-.094.021a.517.517,0,0,1-.049.064c-.024.02-.02.067-.064.066a.536.536,0,0,1-.053.089.173.173,0,0,0-.052.094.131.131,0,0,1-.056.1c-.04.036-.061.089-.113.113-.009,0-.015.016-.021.025a.384.384,0,0,1-.174.154.211.211,0,0,0-.058.041c-.024.019-.042.05-.068.061-.06.024-.061.083-.084.128a.368.368,0,0,1-.031.063,1.635,1.635,0,0,0-.154.257.466.466,0,0,1-.13.156c-.02.018-.043.029-.05.055-.015.053-.061.077-.1.111a.259.259,0,0,1-.047.031l-.018.006V976.5c.019-.026.013-.065.047-.084.009-.005.012-.023.017-.034a.466.466,0,0,1,.032-.063,1.329,1.329,0,0,1,.1-.135,1.831,1.831,0,0,1,.2-.251l.008-.013a.837.837,0,0,1,.168-.228c.007-.007.018-.016.02-.025a.4.4,0,0,1,.116-.181.715.715,0,0,0,.13-.178.1.1,0,0,1,.045-.05.155.155,0,0,0,.084-.114v-.018c0-.005-.018,0-.023.005a.61.61,0,0,1-.112.1c-.013.007-.018.026-.027.039a.83.83,0,0,1-.07.1c-.062.072-.126.141-.192.209a.075.075,0,0,0-.026.066.053.053,0,0,1-.021.051c-.026.023-.045.057-.073.069s-.031.057-.057.079a.278.278,0,0,0-.075.121.208.208,0,0,1-.057.094,1.038,1.038,0,0,0-.138.18.928.928,0,0,0-.078.137.422.422,0,0,0-.077.145c-.032.016-.024.055-.043.075a1.749,1.749,0,0,0-.174.267.4.4,0,0,0-.039.093.314.314,0,0,1-.059.12.673.673,0,0,0-.074.137.417.417,0,0,1-.055.084.377.377,0,0,0-.045.074c-.012.021-.026.041-.037.061l-.084.153c-.007.016,0,.039-.01.054-.029.05-.063.1-.094.147a.277.277,0,0,0-.015.036.9.9,0,0,1-.129.226,1.051,1.051,0,0,0-.057.129.253.253,0,0,1-.091.173.026.026,0,0,0-.01.02c.008.041-.024.058-.045.083s-.04.028-.041.059a.808.808,0,0,1-.084.2c-.021.029-.044.067-.029.094a.052.052,0,0,1-.005.055c-.018.032-.019.075-.057.1-.007,0-.008.019-.01.029a.134.134,0,0,1,0,.049.433.433,0,0,0-.033.122.3.3,0,0,1-.021.084c-.015.03-.04.057-.052.088a.437.437,0,0,0-.018.1,1.1,1.1,0,0,1-.009.114.694.694,0,0,1-.05.107v.008c.005.061-.047.109-.038.167-.042.046-.03.1-.03.157a.154.154,0,0,1-.026.119.1.1,0,0,0-.008.03.331.331,0,0,0-.01.055.706.706,0,0,0,0,.13c0,.016.008.024,0,.042a.588.588,0,0,0-.055.129.563.563,0,0,0,0,.1.5.5,0,0,0-.015.093c.006.067-.025.13-.019.2a.017.017,0,0,1-.006.015,1.455,1.455,0,0,0-.06.334.122.122,0,0,0,.006.084c.028.035-.018.053-.009.084s-.012.051-.014.077,0,.062,0,.093v.008c-.025.028-.008.066-.02.094a.278.278,0,0,0-.015.1.045.045,0,0,1,0,.023.121.121,0,0,0-.029.089c.006.029-.015.055-.008.084s.015.044.006.055c-.023.031-.012.064-.015.1a.322.322,0,0,1-.007.1.27.27,0,0,0-.009.1v.118a.426.426,0,0,0,0,.24v.032c-.039.032.015.058,0,.09a.114.114,0,0,0-.015.092.169.169,0,0,1,.013.083v.347a.1.1,0,0,0,.007.047.166.166,0,0,1,.028.108.265.265,0,0,1,0,.1.887.887,0,0,0,0,.193c0,.026-.01.057,0,.075s0,.067.017.095a.31.31,0,0,1,.016.1c.005.045.014.09.023.134a1.2,1.2,0,0,1,.041.177.68.68,0,0,0,.035.214c.012.028-.006.063.016.095a.263.263,0,0,1,.029.107c.01.051.044.1.052.147.022.141.079.273.107.413.007.037.024.074.032.113s.027.073.034.113.04.07.033.113c.045.1.069.209.109.31s.071.2.109.293.074.2.119.3c.024.05.048.1.067.15a2.64,2.64,0,0,0,.135.315.946.946,0,0,0,.084.176,2.193,2.193,0,0,0,.154.325,2.467,2.467,0,0,0,.13.242c.011.021.019.044.031.064.051.083.107.167.153.258s.118.193.176.29c.042.07.1.134.133.207a3.276,3.276,0,0,0,.185.278c.062.1.143.183.2.28s.15.2.228.3c.054.07.111.142.167.211a3.028,3.028,0,0,1,.22.263c.038.052.091.095.132.147a2.478,2.478,0,0,0,.214.233c.189.183.365.379.566.551.1.084.192.173.291.257.073.062.149.12.219.186.092.083.194.16.292.236.026.02.05.05.089.052.008,0,.014.011.021.018a.225.225,0,0,0,.031.038l.176.125.236.168c.121.083.246.167.372.244.05.03.1.067.147.1.108.066.219.125.328.188s.2.116.3.168c.131.069.265.136.4.2.049.024.1.045.15.069s.1.049.156.071c.084.035.172.076.257.115.039-.016.05.027.079.036.134.036.251.107.387.146.074.022.138.062.213.084.108.027.212.072.319.108a1.548,1.548,0,0,0,.209.067c.137.026.267.083.4.11.077.017.152.046.23.058.037.006.072.018.108.026a1.025,1.025,0,0,1,.116.028.56.56,0,0,0,.167.035.318.318,0,0,1,.061.015.371.371,0,0,1,.066.006,1.056,1.056,0,0,0,.185.044c.07.017.144.017.214.037a.4.4,0,0,0,.129.016h.025c.027.03.063.01.1.015l.1.017a1.422,1.422,0,0,1,.144.02.725.725,0,0,0,.191.029c.05,0,.1.024.145.019.03.033.069.013.1.016a.26.26,0,0,0,.118,0c.05-.025.1-.005.147-.014.067.041.147-.005.215.034a.025.025,0,0,0,.017,0,.119.119,0,0,1,.113,0,.581.581,0,0,0,.1,0,.294.294,0,0,1,.1.008.294.294,0,0,0,.1.008h.083a.121.121,0,0,0,.069-.017c.023.029.047,0,.071,0a.211.211,0,0,1,.1,0,.172.172,0,0,0,.084.013c.029,0,.061.014.084-.014a.211.211,0,0,0,.027.01.059.059,0,0,0,.032.005.821.821,0,0,1,.265-.033.156.156,0,0,0,.1-.015.041.041,0,0,1,.04,0c.031.024.064.014.1.015h.118c.015,0,.038.019.042.015.03-.03.065-.009.1-.015a.1.1,0,0,0,.055-.011c.019-.011.043,0,.064-.006s.028-.033.049-.008.039-.023.057-.008a.059.059,0,0,0,.073,0,.212.212,0,0,1,.093-.018,1.307,1.307,0,0,0,.154-.015,1.5,1.5,0,0,0,.148-.032.243.243,0,0,0,.124-.069.1.1,0,0,1,.139-.019l.006.005a.071.071,0,0,0,.038.011.815.815,0,0,0,.171-.013,1.087,1.087,0,0,1,.213-.02.118.118,0,0,0,.042,0,1.16,1.16,0,0,1,.218-.064c.084-.03.173-.044.259-.07a1.09,1.09,0,0,0,.214-.076.827.827,0,0,1,.129-.056c.025-.009.056-.013.084-.023a.656.656,0,0,1,.088-.03c.05-.01.093-.041.14-.05a.708.708,0,0,0,.2-.069.453.453,0,0,1,.052-.018.9.9,0,0,0,.151-.062.923.923,0,0,1,.227-.106,1.367,1.367,0,0,0,.231-.1c.052-.025.1-.056.153-.084.066-.03.132-.064.2-.094a.418.418,0,0,1,.121-.033.534.534,0,0,0,.244-.105,1.016,1.016,0,0,1,.173-.1.171.171,0,0,0,.057-.025c.015-.013.04-.014.057-.026a.6.6,0,0,1,.088-.053.823.823,0,0,0,.1-.05.214.214,0,0,0,.054-.034,1.145,1.145,0,0,0,.126-.151c.028-.044.073-.047.111-.068a.459.459,0,0,0,.211-.06,1.091,1.091,0,0,0,.107-.069.993.993,0,0,1,.128-.039.454.454,0,0,0,.2-.155.158.158,0,0,1,.053-.035.431.431,0,0,0,.134-.1.253.253,0,0,1,.1-.083c.041-.02.049-.075.1-.084.021-.005.041-.028.062-.031a.059.059,0,0,0,.051-.033.263.263,0,0,1,.092-.069c.072,0,.108-.051.141-.106a.311.311,0,0,1,.043-.075.8.8,0,0,1,.144-.122,1,1,0,0,0,.216-.167.129.129,0,0,1,.1-.051.062.062,0,0,0,.035-.016c.071-.063.139-.128.21-.19.016-.015.036-.022.052-.037a.275.275,0,0,0,.036-.053.545.545,0,0,1,.084-.1,1.389,1.389,0,0,0,.158-.167c.022-.031.035-.067.059-.1.049-.059.1-.116.155-.172s.091-.093.138-.138c.031-.029.064-.057.1-.083a.272.272,0,0,0,.084-.115.275.275,0,0,1,.054-.084.659.659,0,0,0,.138-.155.506.506,0,0,1,.114-.147c.008-.006.019-.018.018-.026-.005-.032.021-.043.037-.061s.032-.031.047-.048a1.8,1.8,0,0,1,.175-.224.313.313,0,0,0,.047-.073.68.68,0,0,1,.079-.154,1,1,0,0,0,.093-.122c.028-.042.051-.083.083-.129a1.884,1.884,0,0,0,.126-.234c.007-.019.016-.038.025-.057a.661.661,0,0,1,.05-.056.258.258,0,0,0,.074-.121.534.534,0,0,1,.054-.122c.017-.041.049-.076.066-.117s.04-.079.056-.12a.417.417,0,0,1,.062-.127.2.2,0,0,0,.045-.084.28.28,0,0,1,.052-.084c.042-.063.124-.1.113-.2a.006.006,0,0,0,.006-.006.853.853,0,0,1,.091-.2.18.18,0,0,0,.017-.051.8.8,0,0,1,.047-.158c.029-.05.035-.109.06-.161s.041-.091.066-.133a1.037,1.037,0,0,1,.094-.181.1.1,0,0,0,.02-.059.763.763,0,0,1,.037-.251c.015-.061.031-.123.043-.184s.037-.093.045-.142.044-.084.024-.113a.092.092,0,0,1,.016-.11.743.743,0,0,0,.108-.319,1.1,1.1,0,0,1,.019-.128.652.652,0,0,1,.031-.113c.018-.039.02-.084.034-.121a.5.5,0,0,0,.033-.13c.005-.021.01-.041.016-.062s0-.041.011-.062a2.4,2.4,0,0,0,.056-.265.66.66,0,0,0,0-.109.206.206,0,0,1,.024-.091c.024-.032.012-.062.009-.093v-.007a.86.86,0,0,0,.031-.173.321.321,0,0,1,.015-.138c.011-.021-.006-.054.017-.076-.031-.04-.013-.084-.014-.129s-.015-.088.015-.129a.017.017,0,0,0,0-.014c-.021-.017,0-.03,0-.048a.3.3,0,0,0,.021-.119.076.076,0,0,1,.01-.064.072.072,0,0,0,.005-.056c-.006-.03-.032-.058,0-.084-.028-.031,0-.064,0-.095C500.314,982.807,500.345,982.707,500.339,982.6Zm-13.63-11.264a.489.489,0,0,1-.146.035.146.146,0,0,0-.1.026.164.164,0,0,1-.126.024.259.259,0,0,0-.147.03.234.234,0,0,1-.135.022c-.026,0-.054-.011-.084.01a.194.194,0,0,1-.134.022c-.005,0-.01-.01-.013-.016a.015.015,0,0,1,.005-.014.212.212,0,0,1,.059-.019.317.317,0,0,0,.132-.031.5.5,0,0,1,.179-.036.246.246,0,0,0,.116-.026c.032-.021.076,0,.108-.026.061.011.119-.021.179-.016a.1.1,0,0,0,.066-.026c.026-.018.035,0,.047.012S486.729,971.334,486.709,971.34Zm.866-.118a.244.244,0,0,1-.062.032.137.137,0,0,1-.075,0c-.024-.01-.042.032-.063,0-.05.021-.106,0-.152.019s-.079,0-.111.015a.3.3,0,0,1-.1.015c-.051.005-.1.014-.152.02h-.042a.077.077,0,0,1-.025-.014c.005-.006.01-.016.019-.019a.294.294,0,0,1,.06-.017.56.56,0,0,1,.059,0,.877.877,0,0,1,.167-.017l.013-.008.094-.026c.117.012.231-.02.347-.016h.026a0,0,0,0,1,0,.005Zm-4.217,1.287a1.027,1.027,0,0,1-.123.084c-.033.016-.054.057-.1.049a2.047,2.047,0,0,0-.22.122c-.046.032-.1.045-.146.077a.318.318,0,0,1-.149.068c-.009,0-.018.012-.025.02a.331.331,0,0,1-.152.1.175.175,0,0,0-.065.046c-.023.02-.041.053-.067.062s-.047.029-.069.036a.4.4,0,0,0-.158.11c-.018.021-.047.017-.071.033a.793.793,0,0,0-.116.083.1.1,0,0,1-.084.028c-.031,0-.033,0-.017-.028a.106.106,0,0,1,.042-.042.568.568,0,0,0,.132-.092.377.377,0,0,1,.135-.1.774.774,0,0,0,.155-.1c.024-.012.038-.039.071-.034a.044.044,0,0,0,.035-.017c.034-.05.1-.052.137-.1.012-.017.04-.024.061-.033h.023c.024-.026.04-.067.068-.077s.071,0,.1-.023.042-.016.05-.045c0-.012.043-.013.065-.02.005,0,.009-.007.013-.011a.516.516,0,0,1,.191-.107.255.255,0,0,0,.083-.036c.035-.031.084-.033.116-.067s.06.016.083-.015l.014.008Zm7.063-.915H490.4c-.021,0-.05-.013-.078-.017s-.06.008-.084-.017c-.006-.005-.022,0-.033,0a.192.192,0,0,1-.115-.019.135.135,0,0,0-.063-.01.368.368,0,0,1-.185-.03.075.075,0,0,0-.055,0,.049.049,0,0,1-.066,0c-.026-.016-.066-.01-.09-.028s-.063.008-.083-.026h-.025a.248.248,0,0,1-.171-.02c-.027-.021-.044.02-.061,0s-.042-.009-.063-.01a.182.182,0,0,0-.073.007.1.1,0,0,1-.076,0,.419.419,0,0,0-.167-.041c-.011,0-.024-.013-.036-.014s-.041-.011-.038-.03.058-.052.073-.035c.029.034.052.017.079,0a.026.026,0,0,1,.021,0c.018.013.025.04.058.017.011-.007.039.009.059.015a.1.1,0,0,1,.029.011.5.5,0,0,1,.042.038c.017-.027.05,0,.068-.019a.028.028,0,0,1,.047,0h.008c.033,0,.063-.034.093-.015a.069.069,0,0,0,.084,0c.057.024.129.006.173.064a.057.057,0,0,0,.044.017c.038,0,.078-.015.111.016a.849.849,0,0,0,.084-.022.107.107,0,0,1,.126.017.247.247,0,0,0,.111.042.185.185,0,0,0,.114,0,.094.094,0,0,1,.094.014c.057-.012.08.022.1.068C490.452,971.589,490.452,971.593,490.421,971.594Zm.983,3.09a.93.93,0,0,1,.173.044,2.262,2.262,0,0,1,.241.094c.04-.015.047.041.084.036a.2.2,0,0,1,.084.032.425.425,0,0,0,.175.07.076.076,0,0,1,.034.016c.024.016.048.043.074.046s.045.03.067.043a.465.465,0,0,0,.07.036.446.446,0,0,1,.1.046.569.569,0,0,1,.088.055c.017.016.049.015.073.026s.016.015.024.023l-.026.01h-.009c-.017.006-.038.02-.052.015a.207.207,0,0,1-.047-.044c-.015-.016-.012-.021-.017-.02-.048.007-.07-.043-.107-.047s-.069-.043-.1-.068a.807.807,0,0,0-.065-.048.048.048,0,0,0-.029,0c-.055.014-.057.014-.071-.037-.005-.019-.017-.026-.027-.016-.035.034-.067.011-.1,0a2.291,2.291,0,0,0-.383-.158c-.05-.015-.1-.028-.151-.045a.278.278,0,0,1-.079-.034.185.185,0,0,1-.036-.052.093.093,0,0,0,.012-.023Zm-.813-.031a.237.237,0,0,1,.1.019.847.847,0,0,0,.2.061,1.117,1.117,0,0,0,.112.036.965.965,0,0,1,.12.019.954.954,0,0,1,.2.059,1.542,1.542,0,0,0,.175.068.384.384,0,0,0,.118.04c.034,0,.043.03.07.037.045.013.084.035.132.049a.277.277,0,0,1,.126.065c.045,0,.074.043.12.037.008,0,.02,0,.023.005.031.046.092.038.131.075s.084.037.125.063a2.154,2.154,0,0,1,.282.159.142.142,0,0,0,.078.034.073.073,0,0,1,.043.021.182.182,0,0,0,.083.05.417.417,0,0,1,.168.113.318.318,0,0,0,.107.069.528.528,0,0,1,.146.1.1.1,0,0,0,.039.027.312.312,0,0,1,.072.051c.02.014.039.029.059.042s.048.013.049.047c0,.009.017.023.029.027a.282.282,0,0,1,.11.083.9.9,0,0,0,.084.066c.029.022.04.053.076.062a.046.046,0,0,1,.029.029c.016.045.057.063.09.089l.1.077c.06.053.121.105.178.162a1.338,1.338,0,0,0,.113.113,1.121,1.121,0,0,1,.12.119c.023.024.054.039.073.069s.05.046.07.073a1.858,1.858,0,0,1,.19.251c.017.036.058.059.083.091s.043.055.064.084a.518.518,0,0,0,.032.045.493.493,0,0,1,.123.186.5.5,0,0,0,.093.13c.035.048.072.094.107.142a.457.457,0,0,1,.035.07c.007.017.008.04.02.05.055.047.07.122.12.168.02.02.007.052.033.072s.023.045.032.069a.933.933,0,0,0,.071.132c.044.083.084.167.129.242a.613.613,0,0,1,.066.142c.013.048.04.091.052.139s.042.083.055.129a.477.477,0,0,1,.031.1.11.11,0,0,0,.008.03,1.019,1.019,0,0,1,.1.273c.005.032.033.059.033.1s.026.062.036.094c.019.058.026.118.047.174a.525.525,0,0,0,.018.052.328.328,0,0,1,.036.13c0,.041.029.078,0,.123-.009.012.009.044.018.066a.291.291,0,0,1,.031.123.155.155,0,0,0,.024.084.158.158,0,0,1,.025.116.186.186,0,0,0,.021.1.126.126,0,0,1,.013.037.189.189,0,0,0,.007.065c.006.015-.012.035-.009.056.014.084.021.177.041.263a.141.141,0,0,1,.011.054,1.219,1.219,0,0,0,.02.263.283.283,0,0,1,0,.123.076.076,0,0,0,.01.079c.007.008.005.026.005.039a.233.233,0,0,0,0,.1.506.506,0,0,1,0,.11v.227a.176.176,0,0,1-.021.1.188.188,0,0,0-.014.046l-.011.023c-.007-.008-.021-.016-.021-.024a.211.211,0,0,1,0-.1.133.133,0,0,0,.011-.071.867.867,0,0,0-.013-.264c.042-.056-.015-.107-.005-.164a.775.775,0,0,0,0-.167.753.753,0,0,0-.017-.12c-.006-.036.014-.077-.016-.112-.006-.008,0-.027,0-.042a.464.464,0,0,0-.031-.173.043.043,0,0,1,0-.016c-.006-.071-.012-.141-.017-.212a.156.156,0,0,0-.016-.07c-.011-.02.009-.049-.013-.07a.024.024,0,0,1-.005-.014c.019-.109-.056-.2-.051-.309-.037-.055-.024-.121-.037-.18a.758.758,0,0,0-.053-.18c-.016-.032-.005-.063-.019-.094-.032-.073-.052-.153-.083-.227-.01-.024-.007-.047-.015-.07-.05-.142-.094-.288-.152-.427a1.065,1.065,0,0,1-.083-.211c-.042-.025-.036-.076-.059-.111a.449.449,0,0,1-.05-.115.386.386,0,0,0-.047-.084.15.15,0,0,1-.032-.084.087.087,0,0,0-.017-.051,1.2,1.2,0,0,1-.167-.277.782.782,0,0,0-.084-.142c-.051-.059-.067-.138-.117-.2s-.094-.149-.154-.215a.474.474,0,0,1-.077-.112c-.042-.09-.117-.158-.163-.245a.21.21,0,0,1-.088-.089,3.222,3.222,0,0,0-.256-.292c-.044-.048-.084-.1-.134-.146-.033-.032-.084-.054-.1-.091s-.068-.059-.1-.093a.652.652,0,0,0-.1-.1c-.039-.032-.073-.069-.109-.1s-.074-.074-.115-.107a1.2,1.2,0,0,0-.234-.186.505.505,0,0,1-.1-.077,2.4,2.4,0,0,0-.258-.176c-.053-.034-.1-.084-.155-.116-.029-.019-.054-.046-.084-.064s-.089-.045-.131-.071c-.157-.1-.326-.167-.487-.251-.03-.016-.061-.032-.092-.046a.022.022,0,0,1-.015,0c-.022-.012-.016-.056-.053-.051s-.051-.015-.075-.023-.046-.027-.071-.034a2.72,2.72,0,0,1-.312-.127c-.084,0-.142-.07-.219-.083s-.131-.072-.208-.074c-.022-.038-.06-.029-.1-.035s-.053-.034-.088-.033c-.014,0-.029-.015-.044-.015-.044,0-.072-.043-.121-.037a.407.407,0,0,1-.12-.015.711.711,0,0,1-.143-.042c-.038-.014-.075,0-.112-.017a.177.177,0,0,0-.108-.026c-.019,0-.04-.013-.06-.015a.581.581,0,0,0-.137-.019.106.106,0,0,1-.052-.016s-.005-.012,0-.015c.024-.042.065-.036.1-.036a1,1,0,0,1,.173.033.906.906,0,0,0,.177.039Zm-1.267-.418c.022.038.052.028.083.013.073.04.158-.007.231.034a.472.472,0,0,1,.179.019.94.94,0,0,1,.251.049c.088-.012.167.043.257.035a.2.2,0,0,1,.068.016c.008,0,.026,0,.014.014s-.019.015-.022.013c-.031-.021-.066-.009-.1-.01a.174.174,0,0,1-.109-.024.035.035,0,0,0-.021-.01c-.067.013-.13-.021-.2-.018a.447.447,0,0,1-.2-.031.033.033,0,0,0-.024,0,1.207,1.207,0,0,1-.281-.021c-.094-.013-.187-.01-.281-.015a.267.267,0,0,1-.069-.016c-.021-.008-.041.029-.062,0h-.009c-.046.025-.092-.005-.139,0s-.1,0-.152,0H488.6a.331.331,0,0,0-.147.014.136.136,0,0,1-.075,0,.127.127,0,0,1-.041-.023.164.164,0,0,1,.037-.026c.021-.007.043-.014.065-.019s.056-.006.074.016a.029.029,0,0,0,.031,0c.024-.026.053-.012.079-.017a.447.447,0,0,1,.053-.015c.014,0,.028.012.043.015a.05.05,0,0,0,.034,0c.066-.042.132.008.2,0,.015.022.031,0,.046,0,.036,0,.078-.016.112.016h.008c.032,0,.061-.013.1,0a.1.1,0,0,0,.1-.011.024.024,0,0,1,.022,0Zm-1.569-.921c.025-.023,0-.064.022-.074a.228.228,0,0,1,.09-.006h.237c.021,0,.044.008.063-.012a.039.039,0,0,1,.039,0c.042.031.084.005.123,0,.022,0,.042-.018.071,0a.071.071,0,0,0,.083-.021c.011-.013.041-.01.062-.01a.038.038,0,0,1,.043.023.066.066,0,0,0,.091.017l.007-.006c.01-.008.04-.034.033.013v.009l.019.01a.046.046,0,0,0,.014-.024c0-.006-.013-.011-.015-.018a.031.031,0,0,1,.01-.029h.015a.145.145,0,0,1,.041.021v.027c-.05,0-.012.024,0,.03a.048.048,0,0,0,.031.005c.022,0,.043-.005.064-.007a.051.051,0,0,0-.055-.027l-.011-.009.012-.012c.054-.026.1-.075.167-.03a.05.05,0,0,0,.034,0,.2.2,0,0,1,.11.019.145.145,0,0,0,.062.014c.03,0,.04.008.036.037a.054.054,0,0,0,.014.036.142.142,0,0,0,.034.019l-.031.018.01.012c.013.014.007.026-.006.034s-.024.016-.027.013c-.034-.03-.075-.01-.112-.016a.166.166,0,0,0-.049-.01c-.015,0-.027.02-.041.022a.222.222,0,0,1-.063,0c-.044-.007-.084-.047-.135-.008-.083.006-.167.014-.251.016-.036,0-.072-.022-.111-.016s-.091.012-.136.017a.2.2,0,0,1-.071-.014c-.024-.007-.053-.034-.088-.006-.012.01-.046,0-.071-.006s-.067-.032-.083.021h-.084c-.008,0-.013-.008-.021-.01-.068-.021-.068-.021-.129.02l-.02.013a.024.024,0,0,1-.034-.029c.005-.024,0-.054.01-.066ZM486.6,993.041c-.03,0-.059-.028-.1-.035a.919.919,0,0,0-.1-.015.116.116,0,0,1-.044-.015.27.27,0,0,0-.121-.032,1.785,1.785,0,0,1-.362-.07c-.013-.042-.043.009-.066-.011a.1.1,0,0,0-.066-.021.169.169,0,0,1-.084-.029c-.026-.011-.052-.032-.083-.022s-.044-.04-.08-.036a.12.12,0,0,1-.083-.011,1.067,1.067,0,0,0-.144-.062c-.005,0-.009-.01-.012-.009-.075.011-.129-.044-.194-.063a.558.558,0,0,1-.158-.069c-.024-.016-.066-.005-.084-.038-.012.011-.023.027-.041.01s-.069.005-.1-.029a.216.216,0,0,0-.091-.042.652.652,0,0,1-.2-.1c-.026-.021-.059,0-.083-.026s-.046-.011-.067-.021a.962.962,0,0,0-.155-.074,1.319,1.319,0,0,1-.168-.084,1.08,1.08,0,0,1-.121-.053,1.685,1.685,0,0,1-.2-.115.3.3,0,0,0-.107-.051.672.672,0,0,1-.167-.084c-.07-.036-.133-.083-.207-.113-.029-.013-.045-.056-.067-.084,0,0,0-.011.008-.013a.028.028,0,0,1,.016,0c.052.055.131.072.184.128a.264.264,0,0,0,.068.037.207.207,0,0,0,.129.039c.018,0,.037.022.061.015.033.044.1.017.133.066a.184.184,0,0,1,.113.036.56.56,0,0,0,.108.064.745.745,0,0,1,.113.038,1.79,1.79,0,0,0,.2.084.366.366,0,0,1,.054.032,1.49,1.49,0,0,0,.2.084.378.378,0,0,1,.049.024c.014.008.029.025.041.023a.2.2,0,0,1,.133.048.027.027,0,0,0,.023.005c.029-.008.055-.021.061.026a.066.066,0,0,0,.053.007c.031-.022.054-.022.078.008a.005.005,0,0,0,.006.005c.059,0,.1.046.154.054s.035.034.025.044c-.03.031-.006.046.014.058a.209.209,0,0,0,.06.018h.017a.308.308,0,0,0,.129.058.663.663,0,0,0,.15.045c.026.035.073-.006.1.031a.584.584,0,0,1,.1.021,2.171,2.171,0,0,1,.247.056.109.109,0,0,0,.039.008.161.161,0,0,1,.093.023c.01,0,.019.011.029.011a1.669,1.669,0,0,1,.208.052.042.042,0,0,1,.027.014.2.2,0,0,0,.149.07c.05.009.1.03.145.041a.112.112,0,0,0,.048,0,.12.12,0,0,1,.1.009.027.027,0,0,0,.015.005l.2.017a.135.135,0,0,1,.063.009c.013.009.033-.009.048-.005a.6.6,0,0,0,.058.022.591.591,0,0,0,.084.007.261.261,0,0,1,.048.007c.007,0,.013.011.019.017l-.019.01-.057.022c-.046-.034-.1-.012-.14-.023-.071-.019-.146,0-.213-.019a1.027,1.027,0,0,0-.234-.033Zm-1.877-1.229V991.8s.008,0,.011,0c.039.022.077.045.117.065a.3.3,0,0,0,.074.024c.093.019.173.071.265.095a.113.113,0,0,0,.037.011.221.221,0,0,1,.1.018l.022.007a.052.052,0,0,1-.02.009h-.068c-.059-.013-.137-.015-.214-.03-.05-.009-.1-.024-.145-.037a.3.3,0,0,1-.172-.148Zm6.463,1.113a.539.539,0,0,1-.21.084h-.015c-.023.046-.074.027-.11.045a.528.528,0,0,1-.118.02c-.051.012-.1.028-.152.043l-.021.008c-.068.005-.137.008-.2.018s-.13.024-.194.04c-.042.011-.083.028-.126.04a.163.163,0,0,1-.028-.007l-.022-.007c-.025.029-.058.016-.084.016a.2.2,0,0,0-.1.018.193.193,0,0,1-.1.017.43.43,0,0,1-.1,0c-.031-.007-.059.029-.088,0-.066.033-.136.008-.2.019a.207.207,0,0,1-.105,0,2.5,2.5,0,0,1-.432.017c-.046,0-.09.018-.136.021a.078.078,0,0,1-.03,0,.57.57,0,0,0-.1,0h-.135c-.045,0-.077-.028-.12-.018s-.061-.012-.083.017a.027.027,0,0,1-.025,0,.3.3,0,0,0-.162-.015c-.061,0-.12-.012-.179-.017a1.142,1.142,0,0,1-.185,0,.849.849,0,0,1-.244-.045c-.013-.007-.037,0-.056,0a.441.441,0,0,0-.049.015c-.037-.007-.068-.016-.1-.021a.387.387,0,0,1-.083-.014.416.416,0,0,0-.153-.017c-.021,0-.041-.031-.062,0-.006-.005-.011-.014-.019-.016a.273.273,0,0,1-.093-.061c.039-.027.071.026.108.01.019.026.045.016.07.015a.306.306,0,0,1,.078.016c.03.006.063.041.1,0h.015c.048.037.094,0,.137-.01.023-.006.039-.015.059,0a.054.054,0,0,0,.031.005c.02,0,.051-.021.057-.013.025.025.038,0,.057,0a.058.058,0,0,1,.041,0c.02.013.032.022.057,0s.045.008.066.016.03.018.035.014c.031-.021.062.015.094-.007a.075.075,0,0,1,.07-.005.138.138,0,0,0,.084.014c.025,0,.074,0,.11,0a.274.274,0,0,1,.094.016c.03.009.06-.021.1,0a.216.216,0,0,0,.1,0,.238.238,0,0,0,.112-.015.1.1,0,0,1,.084,0,.047.047,0,0,0,.067-.006l0-.005c.015-.017.032-.017.04,0,.017.037.046.008.051,0,.029-.038.068-.033.106-.033h.128a.123.123,0,0,1,.063.008c.01.005.005.036,0,.055s.011.021.027.021h.3a.737.737,0,0,0,.078-.016.517.517,0,0,1,.136-.018.249.249,0,0,0,.131-.031h.016c.024.039.051.005.07,0a.309.309,0,0,1,.1-.015.153.153,0,0,0,.07-.014.077.077,0,0,1,.078,0c.052-.016.108-.01.16-.024a.175.175,0,0,1,.14.008c.035.02.065-.015.1,0a.306.306,0,0,1,.144-.017.119.119,0,0,0,.047-.01.2.2,0,0,1,.136-.041c.007,0,.017-.013.026-.018s.018-.015.027-.014a.66.66,0,0,0,.231-.058c.007,0,.015-.011.021-.01.069.009.127-.05.2-.034l.021.009a.09.09,0,0,0-.027.007Zm4.025-2.876c-.034-.007-.036.024-.053.036a.525.525,0,0,1-.053.034l-.019.013a.331.331,0,0,1-.07.079c-.024.015-.031.056-.074.047-.012,0-.029.034-.047.043s-.044.046-.077.057a.742.742,0,0,0-.1.05c-.031.015-.063.027-.093.043-.014.007-.026.012-.032-.005s.008-.019.023-.024a.141.141,0,0,0,.059-.04.436.436,0,0,1,.131-.094c.011-.005.031-.011.033-.019.007-.039.041-.048.066-.064a1.824,1.824,0,0,0,.206-.156c.026-.023.073-.02.084-.064a.154.154,0,0,1,.047.008c-.011.023-.025.057-.031.055Zm2.074-2.642a.256.256,0,0,1-.07.107.116.116,0,0,0-.018.035,3.478,3.478,0,0,1-.21.344c-.035.053-.071.1-.106.159a.722.722,0,0,0-.083.142.1.1,0,0,1-.034.035c-.068.053-.084.145-.145.2,0,.035-.024.052-.055.066a.449.449,0,0,0-.073.05c-.019.015-.047.029-.054.049a.925.925,0,0,1-.105.151,1.288,1.288,0,0,1-.093.114c-.084.107-.193.2-.281.3-.119.142-.258.263-.386.4-.015.017-.041.026-.057.043-.034.036-.067.072-.1.109a1.326,1.326,0,0,1-.191.168.221.221,0,0,0-.038.037c-.035.04-.058.1-.124.1,0,0-.009.006-.013.01-.045.04-.091.079-.136.12a.6.6,0,0,1-.084.067c-.022.014-.054.022-.061.057a.047.047,0,0,1-.028.029c-.073.009-.116.064-.168.1a.7.7,0,0,0-.154.119.049.049,0,0,1-.026.018.307.307,0,0,0-.144.084.1.1,0,0,1-.026.018.333.333,0,0,0-.155.112c-.005.005-.015,0-.023.007a.959.959,0,0,0-.092.042c-.029.016-.058.037-.089.052a.449.449,0,0,1-.093.04c-.031.008-.046.042-.084.042-.022,0-.042.036-.066.042a2.72,2.72,0,0,0-.26.128,1.059,1.059,0,0,0-.082.026c-.079.074-.189.078-.278.128a.493.493,0,0,1-.091.025.261.261,0,0,0-.111.06.12.12,0,0,1-.047.029.511.511,0,0,1-.072.011c-.024,0-.032.034-.062.035a.28.28,0,0,0-.128.035.632.632,0,0,1-.141.047.78.78,0,0,1-.137.058,1.058,1.058,0,0,1-.124.028.231.231,0,0,0-.172.062.172.172,0,0,1-.119.036.156.156,0,0,0-.092.026c-.022.02-.025-.016-.04-.006a.111.111,0,0,1-.035.016c-.037.007-.074.01-.111.018s-.059.038-.1.033c-.044.041-.109.02-.156.051-.045-.026-.084,0-.123.016a.113.113,0,0,1-.048-.005c-.005,0-.008-.006-.012-.01-.034.04-.084.026-.127.042a.6.6,0,0,0-.129.039c-.035.021-.091.008-.133.021a1.942,1.942,0,0,0-.226.049.1.1,0,0,1-.041,0,.268.268,0,0,0-.15.027.069.069,0,0,1-.04.006h-.1a.2.2,0,0,0-.113.011c-.037.023-.077-.009-.111.021-.01.009-.033,0-.049,0a.455.455,0,0,0-.18.016c-.012.006-.029,0-.042,0s-.039-.024-.064,0-.044,0-.067,0h-.076c-.025,0-.043.015-.072,0s-.056.011-.083.013a.787.787,0,0,1-.084,0c-.027,0-.046.015-.07.016s-.05-.018-.056-.011c-.026.029-.039-.006-.058-.005s-.044-.005-.06.016c-.037-.032-.084-.011-.121-.016a1.171,1.171,0,0,0-.118,0c-.039,0-.028,0-.084.034a.23.23,0,0,1-.167.01c-.028-.007-.049-.016-.076,0a.09.09,0,0,1-.04.006h-.22a.2.2,0,0,1-.083-.018.346.346,0,0,0-.095-.017c-.018-.005-.027-.009-.044.005a.145.145,0,0,1-.119.007.74.74,0,0,0-.124-.028.158.158,0,0,1-.052-.016.445.445,0,0,0-.129-.034.182.182,0,0,1-.106-.01c-.033-.022-.061,0-.1-.02s-.071,0-.107,0a.2.2,0,0,1-.112-.018c-.031-.018-.063-.01-.094-.017a.929.929,0,0,1-.157-.03.237.237,0,0,0-.084,0c-.035,0-.074.011-.1-.028-.051,0-.1-.037-.145-.036a.864.864,0,0,1-.188-.042s-.008-.011-.011-.011c-.077.012-.134-.051-.207-.055l-.037-.013c-.016,0-.043,0-.047-.006-.017-.033-.06-.017-.076-.042-.031-.045-.084-.044-.123-.052s-.1-.046-.155-.036a.271.271,0,0,0-.154-.059c-.04-.011-.079-.025-.118-.04a.814.814,0,0,1-.2-.079c-.094-.006-.167-.078-.258-.093-.047-.007-.084-.048-.134-.062-.028-.009-.031-.01-.013-.031a.078.078,0,0,0,.009-.021c.01-.029.028-.063.055-.066a.163.163,0,0,1,.1.031.179.179,0,0,0,.105.035c.022,0,.047.016.068.014s.043.021.064.032a1.232,1.232,0,0,0,.13.053c.053.021.115.021.158.067a.091.091,0,0,1,.084.035c.031-.008.057.011.083.017.065.013.126.039.191.051.034.043.1.021.132.07a.035.035,0,0,0,.028.014c.084,0,.156.042.24.035.037,0,.067.027.1.038a.456.456,0,0,0,.141.029.239.239,0,0,1,.052.016.735.735,0,0,0,.094.017.187.187,0,0,1,.1.016.023.023,0,0,0,.023,0c.019-.026.047-.012.07-.015a.474.474,0,0,0,.084,0c.033-.006.061.017.1.014a.238.238,0,0,1,.092,0,.374.374,0,0,0,.163.014c.031,0,.058.046.089.005.031.013.055-.008.084-.014.01,0,.022.011.033.009.042,0,.088.016.129-.015.009-.007.027,0,.041,0h.2a.49.49,0,0,1,.182.031h.024a1.594,1.594,0,0,1,.2.019.281.281,0,0,1,.106.03.048.048,0,0,0,.062,0c.015-.013.034-.032.054,0h.016c.022,0,.053.01.066,0s.042.01.064,0,.041,0,.061-.017.035.006.052.015a.084.084,0,0,0,.071,0c.037-.013.084-.045.123-.009a.675.675,0,0,1,.185-.012c.005,0,.01-.01.015-.015.021-.029.02-.028.034,0a.032.032,0,0,0,.023.014.417.417,0,0,0,.122-.012.1.1,0,0,1,.044-.01.4.4,0,0,1,.047-.083.114.114,0,0,0-.037.006c-.031.013-.048-.018-.073-.005l-.023-.022.025-.013a.172.172,0,0,1,.122-.03c.02,0,.033-.016.053-.009a.406.406,0,0,1,.033-.025.151.151,0,0,1-.055-.015c-.009,0-.027-.007-.032,0-.034.035-.083,0-.116.026h-.012c-.021,0-.033-.035-.067-.014s-.056,0-.084,0-.055-.012-.084.013a.153.153,0,0,0-.033-.011.7.7,0,0,1-.092,0c-.028-.005-.058-.036-.078-.029-.044.014-.092-.016-.132.023-.024.024-.024-.009-.035-.022s-.009-.016.008-.023a.132.132,0,0,1,.061-.016c.021,0,.043.007.063-.013s.029.005.044.007a.168.168,0,0,0,.045,0,.614.614,0,0,1,.175-.028.2.2,0,0,1,.031.008c.011,0,.047.015.063.008a.52.52,0,0,1,.171-.016,1.279,1.279,0,0,1,.239-.016c.046-.03.1-.012.146-.018.034,0,.068-.013.1-.016a.432.432,0,0,0,.1,0c.083-.027.175-.017.259-.047.039-.013.084-.005.128-.016a1.427,1.427,0,0,0,.224-.053.066.066,0,0,1,.034,0,.5.5,0,0,0,.154-.018.243.243,0,0,0,.053-.016c.018,0,.036-.005.054-.01s.028.014.044-.005.04,0,.057,0a1.057,1.057,0,0,0,.114-.032.244.244,0,0,1,.137-.035c.034,0,.061-.029.1-.017a1.278,1.278,0,0,1,.226-.069c.075-.021.149-.05.222-.074a.279.279,0,0,1,.069-.018c.059,0,.107-.052.167-.043a.017.017,0,0,0,.015-.006.316.316,0,0,1,.21-.045.145.145,0,0,0,.116-.026.045.045,0,0,1,.039-.006.324.324,0,0,0,.19,0,.147.147,0,0,1,.062.01c.043.011.088.007.116.05a.027.027,0,0,0,.017-.006l.047-.029a.2.2,0,0,1,.047-.029.666.666,0,0,0,.2-.131.461.461,0,0,1,.152-.084.959.959,0,0,0,.114-.05.368.368,0,0,1,.145-.039c.03,0,.059-.024.09-.026a.289.289,0,0,0,.167-.1c.049-.042.1-.076.156-.113.028-.021.054-.046.083-.067a.631.631,0,0,1,.158-.068h.024c.033-.023.048-.07.1-.065a.207.207,0,0,0,.105-.033h.015s0,.009,0,.011c-.034.027-.054.069-.1.084a.173.173,0,0,0-.043.038.1.1,0,0,0-.015.024.15.15,0,0,0,.034-.011,1.6,1.6,0,0,1,.212-.143.1.1,0,0,0,.03-.03c.013-.017,0-.013-.012-.016l-.013-.007s.008-.009.012-.009a.189.189,0,0,0,.151-.067.28.28,0,0,1,.112-.073.4.4,0,0,0,.137-.1c.055-.049.106-.1.156-.155a.59.59,0,0,1,.128-.1.094.094,0,0,0,.037-.032.372.372,0,0,1,.144-.119c.008-.006.022-.009.026-.016.041-.084.122-.108.19-.152.009-.006.023-.007.028-.014.037-.051.1-.063.144-.1a.047.047,0,0,1,.022-.009c.029-.01.023-.05.057-.061a.249.249,0,0,0,.078-.058.809.809,0,0,0,.066-.065.88.88,0,0,1,.088-.073,1.343,1.343,0,0,0,.278-.27,1.822,1.822,0,0,0,.3-.272,5.157,5.157,0,0,0,.4-.609l.045-.073h.008a.264.264,0,0,0,.038-.018.365.365,0,0,0,.047-.039.465.465,0,0,0,.04-.05c.029-.04.056-.084.084-.121l.071-.063a.157.157,0,0,0,.032-.041h.071c-.018.034-.035.069-.05.1Zm-10.436,3.879c.084.036.189.015.281.06a.121.121,0,0,0,.065.006.34.34,0,0,1,.134.024c.015.005.035.014.046.009a.1.1,0,0,1,.1.014c.028.015.064.019.1.033.007,0,.019.006.022,0,.033-.035.064-.008.1,0a.676.676,0,0,0,.189.033.12.12,0,0,0,.046-.011.049.049,0,0,1,.053.005.166.166,0,0,0,.092.024,1.072,1.072,0,0,1,.21.042.16.16,0,0,0,.031.008.186.186,0,0,0,.07-.014c.014-.005.036.021.06.014l.028-.012h.028a.044.044,0,0,1,0,.032c-.009.018-.019-.005-.022,0-.033.028-.084,0-.112.03-.029-.032-.059,0-.084,0-.044,0-.088.008-.133.008a.943.943,0,0,1-.131-.009.191.191,0,0,1-.084-.022c-.023-.015-.033-.01-.048.006a.388.388,0,0,0-.037-.032l-.021.007c-.008,0-.032.014-.038.008-.029-.025-.065-.007-.094-.017a1.2,1.2,0,0,1-.157-.031c-.013-.007-.031,0-.043-.019a.037.037,0,0,0-.026-.016.22.22,0,0,1-.084-.017.114.114,0,0,0-.058,0c-.083.021-.083.022-.16-.031l-.006-.006c-.056.015-.108-.042-.168-.006-.01.007-.034-.013-.049-.01-.073.016-.1-.025-.124-.083-.012-.022-.01-.03.034-.028Zm10.821-7.615c-.018.052.014.111-.026.157a.857.857,0,0,1-.066.277c-.009.019.031.037,0,.053.007.024-.01.041-.017.061s0,.036-.012.055,0,.043-.006.064-.011.025-.013.037a.341.341,0,0,0-.021.118.143.143,0,0,1-.013.054c-.007.036-.031.069-.021.11a.1.1,0,0,1-.016.07c-.007.011-.019.025-.016.035.013.061-.034.106-.04.162,0,.013-.012.025-.011.037a.123.123,0,0,1-.036.1c-.007.008-.016.019-.015.027,0,.054-.037.092-.042.145a.581.581,0,0,1-.051.139c0,.01-.011.021-.009.029.006.027-.01.042-.026.057a.082.082,0,0,0-.025.067c0,.034-.015.046-.015.069a.13.13,0,0,1-.025.067.416.416,0,0,0-.042.118.233.233,0,0,1-.017.044.212.212,0,0,0-.041.1c0,.03-.028.061-.039.093s-.04.062-.042.1-.038.06-.052.1c-.024.064-.05.126-.068.192-.009.036-.052.061-.049.106-.032.024-.036.066-.061.093s-.017.045-.029.065a.76.76,0,0,1-.07.124.166.166,0,0,0-.025.065.021.021,0,0,0,.005.014s.009,0,.011-.006.021-.031.031-.047,0-.036.028-.026l-.008.03a.4.4,0,0,1-.1.171l-.018.014c0-.01-.009-.025,0-.031a.3.3,0,0,1,.041-.051c.012-.013.01-.022,0-.036s-.025,0-.037,0c-.035,0-.035.036-.036.046a.358.358,0,0,1-.084.151.415.415,0,0,0-.084.183.1.1,0,0,1-.041.075.4.4,0,0,0-.092.1.6.6,0,0,0-.063.109.265.265,0,0,1-.036.052.118.118,0,0,0-.043.077.089.089,0,0,1-.023.04l-.1.119c-.007.008-.022.016-.022.024,0,.067-.054.1-.091.14a.088.088,0,0,0-.012.021.483.483,0,0,1-.139.2c-.032.018-.052.053-.084.065s-.027.037-.046.049-.02.066-.064.065c-.008.031-.034.048-.054.071v.022a.063.063,0,0,0,.018-.006l.114-.113h.018c.006,0,0,.013,0,.016s-.019.021-.029.031a1.9,1.9,0,0,0-.128.157,1.2,1.2,0,0,1-.244.227c-.064.042-.13.083-.191.129a.143.143,0,0,0-.068.083c0,.005-.007.009-.011.013l-.1.083c-.032.029-.04.076-.088.091a.121.121,0,0,0-.054.053.192.192,0,0,1-.059.058,1.824,1.824,0,0,1-.206.156c-.032.014-.043.058-.084.064-.052.07-.135.1-.2.161a.609.609,0,0,1-.077.057h-.015c-.092.107-.232.147-.335.244-.013.012-.034.014-.05.024l-.072.048-.035.019a.292.292,0,0,0-.107.07c-.012.017-.042.02-.062.032a.364.364,0,0,0-.052.035,1.342,1.342,0,0,1-.258.133c-.056.027-.109.062-.168.084a.305.305,0,0,0-.083.073.075.075,0,0,1-.066.026.19.19,0,0,0-.138.034.28.28,0,0,1-.131.047,2.3,2.3,0,0,0-.257.078.428.428,0,0,1-.15.027.215.215,0,0,0-.134.023c-.033.02-.072-.007-.1.026a.528.528,0,0,1-.084.066.239.239,0,0,1-.147.054.526.526,0,0,0-.123.029.251.251,0,0,1-.111.022.078.078,0,0,0-.037.009.74.74,0,0,0-.2.091.15.15,0,0,1-.084.032.7.7,0,0,0-.179.042.544.544,0,0,0-.2.061c-.015.009-.04,0-.059,0a.975.975,0,0,0-.251.04l-.054.011a.221.221,0,0,0-.1.015c-.025.013-.061-.011-.084.018h-.016c-.075-.013-.147.023-.221.017a.089.089,0,0,0-.053.013c-.009.005-.029-.013-.044-.013-.046,0-.088.021-.137.018a.181.181,0,0,0-.129.015h-.017a1.1,1.1,0,0,0-.222.014.12.12,0,0,1-.112-.012c-.006-.005-.031.018-.042.014-.061-.022-.121.013-.182,0a.378.378,0,0,0-.111-.018c-.018,0-.031.027-.055,0-.011-.011-.043,0-.066,0h-.28a.259.259,0,0,0-.068,0c-.026.007-.037-.032-.067-.013s-.042,0-.064-.005-.049,0-.07-.017c-.005,0-.016,0-.025,0-.083-.005-.159-.006-.238-.018a.605.605,0,0,1-.1-.018.124.124,0,0,0-.054,0,.156.156,0,0,1-.052-.016c-.01,0-.023,0-.029-.011-.024-.029-.042-.026-.066,0s-.053.011-.079.008-.03-.013-.044-.013a.107.107,0,0,1-.09-.032.041.041,0,0,0-.057,0l0,0a.111.111,0,0,0-.061-.018c-.035,0-.072.012-.1-.015a.034.034,0,0,0-.031,0c-.028.027-.018-.006-.025-.014s-.015-.005-.022-.008,0,.012,0,.018c0,.026-.019.042-.037.03a.364.364,0,0,1-.07-.054.083.083,0,0,0-.1-.02.217.217,0,0,1-.158-.008c-.021-.008-.005-.017,0-.021a.068.068,0,0,1,.029-.012c.016,0,.022,0,.026-.021a.231.231,0,0,1,.032-.055.448.448,0,0,0-.064-.025c-.039-.008-.084-.012-.12-.017h-.017c-.045-.036-.1-.028-.152-.041s-.1-.029-.142-.045c-.006,0-.01-.017-.009-.026a.086.086,0,0,1,.014-.027c.009-.016.014-.038.028-.045s.036.012.052.013a2.117,2.117,0,0,0,.223.037.217.217,0,0,1,.094.016.736.736,0,0,0,.208.051c.052.009.1.024.154.037a.255.255,0,0,1,.045.013c.032.006.066-.01.1.012s.061,0,.094.019.072-.005.1.034h.024c.007,0,.04-.017.049-.01a.082.082,0,0,0,.055.01h.06a.293.293,0,0,1,.167.029.1.1,0,0,0,.049.005c.031,0,.065.01.093-.015.025.029.058.011.084.014a.341.341,0,0,0,.1,0,.648.648,0,0,0,.168-.032h.016c.024,0,.042.034.073,0,.013-.014.054,0,.084,0h.245a.069.069,0,0,0,.051,0c.011-.012.039-.009.049-.02.029-.03.071,0,.1-.028s.068-.012.1-.019a1.77,1.77,0,0,1,.341-.016h.008l.013-.008a.034.034,0,0,0-.012-.008c-.045-.006-.091-.014-.137-.017a.149.149,0,0,0-.083.012.1.1,0,0,1-.1-.007.033.033,0,0,0-.022-.005c-.018,0-.043.019-.05.013a.061.061,0,0,0-.055-.013.124.124,0,0,0-.083.011.107.107,0,0,1-.066,0c-.022,0-.036-.032-.066-.022a.3.3,0,0,1-.074.006c-.128,0-.251-.028-.382-.016a.537.537,0,0,0-.187-.018c-.032,0-.061-.021-.1-.017a.113.113,0,0,1-.084-.015c-.009-.006-.027,0-.042,0-.034-.006-.068.011-.1-.013s-.066,0-.1-.016a.535.535,0,0,0-.119-.019,1.626,1.626,0,0,1-.217-.051h-.067a.4.4,0,0,1-.06-.015c-.045-.008-.091-.011-.137-.018a.053.053,0,0,1-.02-.013l-.013-.011s.008-.009.012-.009c.075-.012.147-.043.224-.051l.015-.006a.1.1,0,0,0-.012-.017.909.909,0,0,0-.168-.044c-.022,0-.048-.017-.066-.011s-.036-.01-.053-.014-.01-.01-.013-.009c-.078.018-.146-.038-.223-.034a.058.058,0,0,1-.032,0,.151.151,0,0,0-.116-.03h-.008a.237.237,0,0,0-.142-.037c-.016-.024-.04-.015-.061-.014a.108.108,0,0,1-.061-.017.3.3,0,0,0-.142-.021h-.006a.119.119,0,0,0-.113-.032c-.046.007-.072-.036-.113-.036-.011,0-.021-.016-.033-.022a.161.161,0,0,0-.065-.026.61.61,0,0,1-.172-.037.231.231,0,0,0-.078-.015.2.2,0,0,1-.1-.035.414.414,0,0,0-.089-.032.491.491,0,0,1-.11-.043c-.063-.03-.119-.084-.2-.075a.03.03,0,0,1-.016-.005c-.041-.037-.1-.037-.142-.065a.856.856,0,0,0-.194-.084,1.594,1.594,0,0,1-.177-.083,2.043,2.043,0,0,1-.266-.156c-.053-.038-.113-.068-.167-.1s-.107-.07-.158-.107c-.09-.064-.173-.138-.267-.2-.116-.07-.2-.173-.322-.243a.977.977,0,0,1-.124-.108c-.1-.083-.2-.159-.288-.251-.026-.026-.041-.059-.075-.079a.582.582,0,0,1-.084-.08c-.029-.026-.06-.048-.084-.074s-.055-.056-.083-.084a1.129,1.129,0,0,0-.124-.125c-.025-.018-.039-.052-.061-.075s-.05-.034-.07-.055-.043-.057-.067-.084-.058-.035-.075-.061a1.5,1.5,0,0,0-.142-.167,2.068,2.068,0,0,0-.188-.23.364.364,0,0,1-.084-.123.339.339,0,0,0-.063-.074.323.323,0,0,1-.079-.111.285.285,0,0,0-.084-.119.487.487,0,0,1-.065-.091c-.037-.061-.083-.119-.119-.179s-.083-.128-.118-.2a.88.88,0,0,1-.084-.168.639.639,0,0,0-.09-.14,1.4,1.4,0,0,0-.1-.189c-.007-.078-.066-.13-.1-.2-.015-.028-.027-.056-.039-.083-.024-.063-.059-.123-.079-.187a2.142,2.142,0,0,1-.106-.269.142.142,0,0,0-.027-.048c-.007-.014-.024-.029-.021-.041a.253.253,0,0,0-.037-.138c-.016-.045-.01-.1-.05-.132.005-.064-.039-.113-.056-.171,0-.015-.006-.019,0-.031s0-.021-.011-.025a.074.074,0,0,1-.038-.07.16.16,0,0,0-.031-.123.02.02,0,0,1,0-.015l.008-.029c.006.006.016.011.018.018a.864.864,0,0,0,.058.137,1.014,1.014,0,0,0,.108.234.537.537,0,0,1,.045.108c.034.076.071.151.107.226,0,.007.01.013.011.021s0,.038.022.031c.007,0,.013-.024.011-.034a.385.385,0,0,1-.017-.112.025.025,0,0,0-.008-.021c-.042-.04-.047-.1-.076-.146a.306.306,0,0,1-.033-.084c-.008-.036-.011-.074-.018-.111a.182.182,0,0,0-.017-.044.123.123,0,0,1,0-.132c.008-.013.025-.033,0-.054-.006,0,0-.03.01-.036s.022-.042.023-.067a.246.246,0,0,1,.023-.151.017.017,0,0,0,0-.017c-.038-.054-.03-.122-.056-.18a.334.334,0,0,1,0-.126.1.1,0,0,0-.011-.055c-.015-.027-.041-.058-.007-.095.007-.008,0-.035-.008-.053a.473.473,0,0,1-.041-.178c-.027-.033-.012-.077-.029-.115a.079.079,0,0,1,.033-.106l.016-.006c.046-.019.066-.042.045-.076s-.006-.071-.014-.1a.751.751,0,0,1-.032-.1.663.663,0,0,1,0-.109.582.582,0,0,0,0-.118.47.47,0,0,1-.016-.129.2.2,0,0,0-.032-.113c-.007-.013,0-.033,0-.05v-.246c.008-.184-.014-.367-.017-.55a.4.4,0,0,1,.014-.129c.011-.04,0-.084.034-.122.006-.006,0-.026,0-.039s-.007-.008-.012-.012c.034-.031.024-.066.02-.106s.021-.078.014-.12c.038-.042-.006-.1.034-.146v-.152a.141.141,0,0,1,.019-.061,1.476,1.476,0,0,1,.066-.227.147.147,0,0,0,0-.059.377.377,0,0,1,0-.067.158.158,0,0,1,.016-.052c.042-.084.034-.182.084-.262-.018-.06.033-.1.037-.163a.707.707,0,0,1,.048-.156c.005-.018.005-.043.018-.05s.011-.041.021-.061a.149.149,0,0,0,.011-.062.062.062,0,0,1,.019-.052.056.056,0,0,0,0-.034.334.334,0,0,1,.034-.1c.02-.055.037-.111.052-.167v-.024c.036-.019.021-.059.036-.084s.008-.058.04-.078c.011-.007.014-.034.01-.059s.026-.06.042-.09c.041-.076.083-.151.12-.229a.425.425,0,0,1,.031-.06.783.783,0,0,0,.05-.115c.031-.066.07-.128.107-.192a.786.786,0,0,0,.057-.112.869.869,0,0,1,.1-.18c.042-.058.084-.117.122-.177.006-.009.017-.02.016-.027-.012-.052.026-.077.057-.1a1.375,1.375,0,0,0,.188-.228.281.281,0,0,0,.063-.125.2.2,0,0,1,.064-.1.722.722,0,0,0,.112-.122.68.68,0,0,1,.074-.078.245.245,0,0,0,.052-.072.092.092,0,0,1,.055-.041c.032-.014.031-.047.057-.062a.057.057,0,0,0,.022-.033.047.047,0,0,1,.042-.05.09.09,0,0,0,.059-.058.078.078,0,0,1,.067-.061.124.124,0,0,0,.061-.034,1.434,1.434,0,0,0,.158-.164.239.239,0,0,1,.084-.083.241.241,0,0,0,.073-.069c.026-.03.049-.063.077-.091a.474.474,0,0,1,.1-.069,1.226,1.226,0,0,0,.2-.151.26.26,0,0,1,.071-.05.237.237,0,0,0,.083-.057c.008-.009.015-.022.025-.024.061-.008.075-.083.139-.09a.12.12,0,0,1,.069-.054.181.181,0,0,0,.076-.058c.019-.026.06-.027.068-.064a.015.015,0,0,1,.012-.009.436.436,0,0,0,.193-.084c.049-.026.1-.057.143-.083a.987.987,0,0,1,.1-.049h.023c.007,0-.005.014-.01.018a1.48,1.48,0,0,0-.128.1c-.023.022-.057.01-.078.039a.31.31,0,0,1-.07.055c-.023.018-.044.045-.071.052-.046.013-.073.05-.115.068a.7.7,0,0,0-.218.148.875.875,0,0,1-.076.06.339.339,0,0,1-.07.056c-.035.016-.052.056-.084.084a1.339,1.339,0,0,1-.138.1c-.009.006-.022.007-.028.013-.042.053-.109.084-.142.141a.049.049,0,0,1-.024.023c-.056.014-.083.064-.117.1s-.108.084-.139.153c-.008.019-.038.028-.057.042a1.6,1.6,0,0,1-.218.185c-.037.08-.118.12-.167.193a1.334,1.334,0,0,1-.119.13.709.709,0,0,0-.149.215.03.03,0,0,1-.01.02c-.065.035-.084.105-.122.16a.936.936,0,0,1-.071.123.409.409,0,0,0-.068.175.286.286,0,0,1-.061.135c-.01.065-.076.1-.075.172-.046.04-.042.108-.091.149a.172.172,0,0,0-.047.107.293.293,0,0,1-.039.093.563.563,0,0,0-.077.213.039.039,0,0,1-.007.023.424.424,0,0,0-.084.175c-.021.051-.039.1-.055.155a.533.533,0,0,0,0,.126.106.106,0,0,1-.016.069c-.012.017-.036.04,0,.063,0,0-.006.029-.012.043a.311.311,0,0,0-.022.113,1.587,1.587,0,0,1-.05.282,2.2,2.2,0,0,1-.084.252.106.106,0,0,0,0,.05.1.1,0,0,1-.024.075.217.217,0,0,0-.026.09c-.006.026.01.056-.011.083s0,.051-.021.077.017.06.01.084-.034.04-.03.073a.061.061,0,0,1-.015.043c-.025.025-.022.06-.034.088s0,.048-.017.07c-.005.005,0,.028.007.037a.03.03,0,0,1-.006.041.056.056,0,0,0-.013.05c0,.033.013.077,0,.1s0,.07-.031.09c-.006.053-.011.108-.018.162s-.013.084-.016.12,0,.084,0,.127a.035.035,0,0,1-.008.022c-.017.018-.005.029.008.041a.034.034,0,0,0,.048,0l0,0c.025-.023.048-.047.072-.072a.05.05,0,0,0,.012-.029.181.181,0,0,1,.018-.1,1.593,1.593,0,0,1,.018-.239.629.629,0,0,1,.016-.1c0-.031-.011-.066.018-.094a.677.677,0,0,1,.033-.189.172.172,0,0,1,.016-.045.269.269,0,0,0,.017-.093.231.231,0,0,1,.031-.141c.01-.012,0-.043.009-.054.03-.03-.005-.071.027-.1s.01-.064.021-.091c.021-.05.02-.1.042-.151s.034-.1.055-.147a.245.245,0,0,0,.037-.129.094.094,0,0,1,.014-.036c0-.007.018-.013.017-.017-.015-.061.043-.106.036-.168a.046.046,0,0,1,.019-.043c.005-.005.016-.014.015-.019-.016-.068.054-.109.052-.174a.037.037,0,0,1,.011-.02c.02-.022.045-.042.024-.079-.005-.009.006-.032.016-.043a.441.441,0,0,0,.075-.13.418.418,0,0,0,.059-.135.029.029,0,0,1,.008-.014c.038-.036.042-.091.068-.133.091-.147.15-.312.251-.455a1.284,1.284,0,0,0,.066-.141.541.541,0,0,1,.089-.133.2.2,0,0,0,.042-.058c.039-.077.107-.133.145-.21a.218.218,0,0,1,.069-.09.317.317,0,0,0,.083-.1.894.894,0,0,1,.115-.13c.025-.031.07-.048.068-.1,0-.009.018-.019.028-.029l.126-.125c.018-.02.044-.033.049-.065a.052.052,0,0,1,.029-.029c.071-.029.107-.095.16-.143s.116-.1.177-.145a.435.435,0,0,0,.117-.121.227.227,0,0,1,.063-.056c.006,0,.018,0,.021-.006a.892.892,0,0,1,.2-.16,1.551,1.551,0,0,1,.2-.159.323.323,0,0,0,.084-.067c.053-.052.129-.072.173-.133,0-.005.008-.011.012-.012.084-.01.132-.076.2-.115.051-.029.1-.066.148-.093s.1-.052.152-.084c.1-.059.205-.1.306-.159.045-.024.1-.02.137-.062.01-.011.048,0,.071.006a.122.122,0,0,0,.105-.013,1.127,1.127,0,0,1,.259-.132.2.2,0,0,0,.09-.068.19.19,0,0,1,.142-.067.862.862,0,0,0,.14-.048.277.277,0,0,1,.094-.019c.051,0,.1-.009.154-.017a.052.052,0,0,0,.026-.018.221.221,0,0,1,.176-.067c.036,0,.076.012.108-.026.015-.02.051,0,.076-.021s.067.005.064.018a.09.09,0,0,1-.03.042c-.019.019-.034.043-.068.042-.017,0-.04.017-.014.043.006.006,0,.023,0,.033s.01.049.045.023c.009-.006.028,0,.042,0,.074.016.135-.035.206-.034.021-.033.059-.036.089-.048a.848.848,0,0,1,.155-.036c.045-.007.092-.007.137-.018a.58.58,0,0,0,.083-.018c.071-.029.153,0,.218-.047h.025a.289.289,0,0,0,.113-.014c.028-.016.068,0,.1-.017s.055,0,.084,0,.056.011.078-.015h.016c.028.01.061.031.084.014s.058-.011.084-.014c.042-.006.083-.011.128-.019.005,0,.014-.016.013-.023,0-.035.022-.025.039-.025l.005.014c-.026.034,0,.033.023.037.075.01.147-.022.222-.017.031,0,.067-.014.1.016a.026.026,0,0,0,.024,0c.03-.023.063-.013.1-.017s.079-.021.116.015c.009.01.04,0,.062-.006a.287.287,0,0,1,.126-.026c.128,0,.251.028.382.019a.267.267,0,0,1,.069.016c.023.005.051-.01.07.015h.016c.091.006.182.012.273.016.028,0,.061.013.083-.015.005,0,.026,0,.039.006a.275.275,0,0,0,.055.009.021.021,0,0,0,.014-.015c0-.006-.008-.017-.011-.017a.3.3,0,0,1-.143-.045s-.012-.008-.013-.006c-.033.032-.064,0-.1,0a.433.433,0,0,1-.167-.03.189.189,0,0,0-.058,0c-.1-.006-.2-.009-.3-.019a.334.334,0,0,1-.084-.033c-.011-.005-.029-.018-.034-.014-.042.027-.084.005-.123,0s-.072.016-.111.016h-.313c-.1,0-.21.023-.315.018-.024,0-.045.034-.068.014s-.041.012-.064,0a.194.194,0,0,0-.076,0,.372.372,0,0,0-.083.017c-.026.006-.056-.011-.079.016a.053.053,0,0,1-.022,0c-.031-.035-.052.023-.083.007l-.006.006.011.009h.076a.114.114,0,0,1,.036.014s.007.007.011.011-.01.008-.014.008h-.116s-.013,0-.015,0,0-.04-.029-.028c-.012.006-.019.024-.026.038s-.015,0-.022,0c-.024-.01-.051,0-.078-.018a.085.085,0,0,0-.094.031c-.015.019-.026,0-.036,0a.379.379,0,0,0-.189.014.062.062,0,0,1-.033,0,.213.213,0,0,0-.139.034.067.067,0,0,1-.06.017c-.024-.007-.041.008-.061.017s-.013.012-.02.013c-.1,0-.194.057-.3.037a.062.062,0,0,1-.018-.009l.022-.007a.706.706,0,0,1,.184-.065c.059-.014.115-.037.172-.055l.044-.016c.048-.011.1-.023.1-.084a.037.037,0,0,1,.041-.032h0c.052,0,.094-.035.147-.037.027,0,.052-.036.079-.053a.131.131,0,0,1,.083-.029.609.609,0,0,0,.224-.033h.033a1,1,0,0,0,.2-.019c.056-.016.114,0,.162-.017a1.544,1.544,0,0,1,.155-.012,7.294,7.294,0,0,1,.837-.018,2.551,2.551,0,0,0,.263.016c.044.025.092.011.137.018a.784.784,0,0,0,.137.017.516.516,0,0,1,.136.017c.068.019.136.04.2.058a.116.116,0,0,0,.031.008.919.919,0,0,1,.328.067c.053.016.109.025.164.038s.125.037.188.053.094.057.15.069.1.053.159.044a.406.406,0,0,0,.148.05.958.958,0,0,0,.147.054c.026.046.084.022.116.048a.265.265,0,0,0,.113.052c.022,0,.041.023.063.032.091.04.183.078.272.12.04.018.075.049.117.066a.743.743,0,0,1,.173.093.677.677,0,0,0,.114.05c.123.059.234.141.359.2a.41.41,0,0,1,.073.05c.1.074.214.141.314.224a2.241,2.241,0,0,1,.2.158,2.252,2.252,0,0,0,.182.157c.077.064.144.139.221.2.047.039.091.08.135.121l.053.054c.017.018.024.038.04.045s.026.04.044.055c.033.028.056.067.1.083.02.009.027.04.043.057.059.066.123.128.178.2a1.875,1.875,0,0,1,.211.275.548.548,0,0,0,.069.084c.051.057.074.131.128.185.007.006.006.022.013.027a.244.244,0,0,1,.083.119.6.6,0,0,0,.1.161c.038.052.062.111.1.167.049.075.083.156.135.231a.864.864,0,0,1,.058.137c.027.065.064.125.1.189a2.326,2.326,0,0,1,.135.341.761.761,0,0,1,.07.192c.031.025.007.067.031.1s.021.072.038.1.01.067.029.1,0,.074.022.1,0,.079.029.116a.149.149,0,0,1,.019.109c.054.107.05.231.1.339a.14.14,0,0,1,0,.05.258.258,0,0,0,.008.107c.019.033-.012.074.025.1v.024a.2.2,0,0,0,0,.1c.008.03,0,.065.018.093s-.026.043,0,.072a.148.148,0,0,1,.018.077.385.385,0,0,0,0,.083,2.039,2.039,0,0,1,.018.246,2.53,2.53,0,0,1,.015.348c0,.02-.005.04.015.054,0,0,.005.017,0,.023a.9.9,0,0,0-.017.264c0,.043-.013.084-.016.128s0,.084,0,.127a.5.5,0,0,0-.017.084c0,.026.015.056-.012.079.03.055-.018.107-.005.163a.185.185,0,0,1-.006.114c-.018.034.011.074-.025.1-.007.005,0,.027,0,.041-.006.04.012.084-.012.122s0,.072-.018.111,0,.089-.02.135a1.417,1.417,0,0,0-.031.147c-.009.044-.013.09-.021.135-.005.026-.011.052-.017.078s.008.058-.012.089,0,.057-.006.083a1.4,1.4,0,0,0-.062.245c-.022.083-.037.167-.06.251a2.59,2.59,0,0,0-.064.277.833.833,0,0,1-.031.083.435.435,0,0,0-.037.121.05.05,0,0,1-.012.028c0,.007-.017.014-.016.018.015.071-.052.114-.059.18a.531.531,0,0,1-.069.167c-.007.014-.014.014.007.025s.032.019.015.059a1.108,1.108,0,0,1-.11.192.36.36,0,0,0-.025.048.689.689,0,0,1-.084.15c-.034.043-.042.1-.091.141a.994.994,0,0,1-.127.2c-.023.036-.042.073-.064.108a.1.1,0,0,0-.021.084v.016c-.037.021-.026.064-.042.093a.5.5,0,0,1-.066.1c-.084.091-.144.2-.229.284-.062.065-.116.138-.174.208a.5.5,0,0,0-.083.151.2.2,0,0,1-.035.08s0,.017.005.021a.022.022,0,0,0,.022,0,.609.609,0,0,0,.073-.061c.023-.023.054-.047.061-.075.011-.049.06-.055.084-.091a1.009,1.009,0,0,1,.135-.156,1.013,1.013,0,0,0,.133-.167,1.272,1.272,0,0,1,.107-.126A3.9,3.9,0,0,0,495.1,986c.072-.115.145-.232.214-.351a.561.561,0,0,1,.084-.151.642.642,0,0,0,.091-.139.563.563,0,0,0,.039-.077.213.213,0,0,1,.051-.084c.008-.006.018-.018.016-.026-.006-.041.03-.069.033-.1s.048-.051.04-.1c-.005-.026.024-.056.037-.084a.659.659,0,0,0,.078-.2,1.08,1.08,0,0,0,.09-.217.21.21,0,0,0,.031-.072.1.1,0,0,1,.037-.059c.014-.013.046-.026.055-.019s0,.035-.007.056a.765.765,0,0,0-.036.112c-.007.023-.018.044-.026.066a1.449,1.449,0,0,0-.092.251c-.035.036-.03.089-.053.13a.264.264,0,0,0-.054.122.069.069,0,0,1-.029.046.139.139,0,0,0-.041.077,1.906,1.906,0,0,1-.168.335c-.019.03-.028.068-.046.1s0,.058-.043.058c0,0-.008.014-.006.021a.228.228,0,0,1-.022.138.332.332,0,0,0-.058.112,1.248,1.248,0,0,1-.115.2.462.462,0,0,0-.084.152.164.164,0,0,1-.035.052c-.017.024-.037.047-.053.072-.05.076-.105.148-.156.222a.5.5,0,0,1-.036.053c-.051.059-.1.115-.155.173a.271.271,0,0,0-.031.055.021.021,0,0,0,.005.014l.012-.005c.016-.01.04-.017.045-.03.019-.05.066-.074.1-.112s.068-.079.1-.118c.018-.021.005-.058.037-.069s.026-.045.043-.057a.165.165,0,0,0,.063-.075c.012-.033.043-.048.055-.078a.056.056,0,0,1,.022-.024.214.214,0,0,0,.094-.145.121.121,0,0,1,.029-.065.554.554,0,0,0,.067-.1.87.87,0,0,1,.077-.128c.03-.04.056-.084.084-.127a1.5,1.5,0,0,1,.1-.167c.052-.062.073-.142.126-.2.022-.089.084-.162.11-.251.005-.017.01-.04.023-.048.059-.04.054-.116.1-.168-.016-.037.024-.052.035-.078.037-.092.084-.181.116-.273s.065-.176.1-.265a.166.166,0,0,0,.049-.005c-.012.052-.049.1-.042.154a.037.037,0,0,1-.01.021c-.049.084-.058.184-.108.268.009.032-.023.041-.033.062a.511.511,0,0,0-.034.084c-.007.029-.05.041-.034.078a.8.8,0,0,1-.079.128c-.035.039-.031.1-.073.131a1.709,1.709,0,0,1-.137.29.827.827,0,0,1-.063.092c-.025.041-.054.084-.026.133a.034.034,0,0,1,0,.028,2.392,2.392,0,0,0-.132.251,3.692,3.692,0,0,0-.234.36c-.009.013-.018.03-.031.033s-.026.017-.018.029c.017.029-.045.053,0,.084l-.006.011c-.04.045-.068.1-.106.143s-.1.1-.144.159a.647.647,0,0,0-.084.111c-.02.038-.071.053-.084.1,0,.008-.011.013-.016.019a.645.645,0,0,0-.1.118c-.02.034-.057.052-.083.083-.1.115-.209.225-.317.335-.015.017-.042.025-.057.043-.045.058-.106.1-.155.154a.079.079,0,0,0-.013.037.021.021,0,0,0,.005.014l.011-.006.1-.084c.014-.012.024-.031.048-.026h.015c.024-.063.11-.071.126-.141.069-.034.089-.121.167-.151.021-.008.03-.043.05-.062.041-.039.088-.073.129-.114a.363.363,0,0,0,.1-.118h.016c.005,0,.008.008.008.01a.284.284,0,0,1-.077.146.45.45,0,0,0-.1.117c-.014.023-.048.035-.069.055-.071.068-.14.138-.209.209-.018.019-.03.045-.049.064s-.044.031-.064.048a.107.107,0,0,0-.038.061c-.007.04-.041.052-.1.053l-.01.021c.027.028.027.043-.017.043a.044.044,0,0,0-.027.017.838.838,0,0,1-.155.116.512.512,0,0,0-.056.046.088.088,0,0,0-.016.034l.031.007c.023.006.036-.01.051-.024.032-.028.054-.07.1-.083.005,0,.008-.011.013-.011a.028.028,0,0,1,.021.006v.022c-.057.024-.083.084-.131.113a1.422,1.422,0,0,0-.124.109c-.058.046-.121.084-.181.132l-.136.1c-.073.055-.147.107-.22.163s-.13.073-.188.122a1.209,1.209,0,0,1-.182.11,1.508,1.508,0,0,0-.162.1,1.507,1.507,0,0,1-.159.084c-.015.008-.052.005-.02.04-.019.014-.035.038-.055.042a.171.171,0,0,0-.065.028.539.539,0,0,1-.11.042c-.012,0-.029,0-.038.008-.045.038-.107.045-.153.084a.22.22,0,0,1-.1.044.284.284,0,0,0-.084.036c-.031.015-.057.044-.1.034h-.016c-.026.047-.078.027-.116.046a.2.2,0,0,1-.12.037.917.917,0,0,1-.2.077c-.056.023-.116.035-.168.058-.072.025-.145.046-.219.064a1.311,1.311,0,0,1-.15.048c-.1.02-.194.048-.291.074s-.178.033-.266.054a1.662,1.662,0,0,0-.27.064c-.045-.012-.083.013-.128.018a.5.5,0,0,0-.094.016c-.028.008-.048-.037-.084,0-.013.015-.054,0-.084.005a.624.624,0,0,0-.083.029H489.5a1.954,1.954,0,0,0-.23.018,1.084,1.084,0,0,0-.113.015.39.39,0,0,0-.108,0,.367.367,0,0,1-.147.014c-.034,0-.073.013-.1-.016a.14.14,0,0,1-.094.016h-.322c-.063,0-.126-.012-.189-.015a1.154,1.154,0,0,1-.186,0,1.337,1.337,0,0,0-.179-.015.572.572,0,0,1-.084-.016c-.032,0-.064.008-.1-.014s-.059.006-.084-.018c-.006-.006-.023,0-.034,0a.183.183,0,0,1-.11-.02.187.187,0,0,0-.07-.014.209.209,0,0,1-.1-.016c-.027-.014-.061,0-.1-.015s-.084,0-.118-.02h-.016c-.026-.021-.052-.044-.088-.019a1.7,1.7,0,0,1-.281-.078,1.73,1.73,0,0,1-.292-.073,1.412,1.412,0,0,1-.23-.077.527.527,0,0,0-.128-.04c-.034,0-.061-.027-.1-.035a.81.81,0,0,1-.145-.078,3.451,3.451,0,0,1-.335-.148c-.033-.018-.075-.016-.11-.042s-.069-.035-.105-.05c-.073-.043-.15-.077-.22-.125-.024-.015-.052-.024-.077-.039-.059-.035-.119-.066-.178-.1s-.113-.067-.167-.1c-.1-.07-.218-.123-.315-.2-.053-.044-.113-.084-.167-.121s-.084-.063-.13-.1-.092-.066-.135-.1c-.083-.066-.155-.139-.238-.2-.129-.1-.237-.216-.357-.322-.226-.2-.428-.419-.644-.63a.438.438,0,0,1-.111-.131c-.036-.084-.123-.128-.155-.214a.221.221,0,0,0-.058-.077.8.8,0,0,1-.162-.229c-.016-.033-.052-.053-.073-.088-.052-.089-.108-.176-.167-.261a2.436,2.436,0,0,1-.184-.322.213.213,0,0,0-.034-.045.807.807,0,0,1-.074-.139,1.03,1.03,0,0,1-.061-.135.292.292,0,0,0-.072-.113c-.005,0-.011-.008-.012-.013a.606.606,0,0,0-.069-.183.742.742,0,0,0-.075-.168.075.075,0,0,1-.009-.03,1.545,1.545,0,0,1-.084-.268c-.041-.053-.033-.128-.077-.179-.005-.005,0-.015-.005-.023a.105.105,0,0,1-.008-.023.128.128,0,0,0-.009.028c0,.032-.011.068.025.091.005,0,.01.019.008.021-.044.051.009.089.018.132s.033.066.041.1a.714.714,0,0,0,.041.083c.013.036.011.077.024.109s0,.084.044.1a.142.142,0,0,0,.041.093c.008.008.008.024.011.037.008.033.008.076.028.1s.02.061.044.084a.328.328,0,0,1,.047.1,1.123,1.123,0,0,0,.109.226c.04.058.077.12.115.18a.646.646,0,0,1,.026.074c.01.02.034.03.041.059a.529.529,0,0,0,.049.1.145.145,0,0,0,.057.078.071.071,0,0,1,.027.046.411.411,0,0,0,.1.178c.006.008.019.018.018.026-.012.056.032.089.05.131a.062.062,0,0,0,.036.04.027.027,0,0,1,.016.021.133.133,0,0,0,.053.106c.037.035.053.089.106.107.005,0,.008.013.011.021a.436.436,0,0,0,.109.15.285.285,0,0,1,.054.07.285.285,0,0,0,.119.119.048.048,0,0,1,.023.032.17.17,0,0,0,.061.1.839.839,0,0,1,.083.1.58.58,0,0,0,.133.124c.057.035.089.1.144.141.01.046.066.041.084.079a.236.236,0,0,0,.093.095c.043.021.061.071.11.084.025.058.084.083.128.114a.618.618,0,0,1,.091.113c.023.03.04.062.083.069.026,0,.048.032.073.047s-.022.029.008.043.044.068.094.06c.036.045.1.063.133.1a1.253,1.253,0,0,0,.229.167.3.3,0,0,1,.045.034.212.212,0,0,0,.1.054c.028.007.036.05.071.067a.487.487,0,0,1,.15.09c.021.021.061.025.092.042a1.685,1.685,0,0,0,.161.1.461.461,0,0,1,.133.067c.01.008.025.019.034.016a.128.128,0,0,1,.117.046c.039.034.1.014.128.055.027-.041.053.018.084,0a.27.27,0,0,0,.1.057.006.006,0,0,0,.006.006c.03.008-.01.057.033.055a.089.089,0,0,1,.061.017c.015.01.038.011.049.023a.294.294,0,0,0,.168.062.408.408,0,0,1,.068.021c.068.032.138.062.209.089a.1.1,0,0,0,.03.008.29.29,0,0,1,.212.048.694.694,0,0,0,.167.054c.023.005.046.013.07.016s.045,0,.067,0a.052.052,0,0,1,.03.007.351.351,0,0,0,.179.062.7.7,0,0,0,.12.016.09.09,0,0,1,.051.018.134.134,0,0,0,.115.031.59.59,0,0,1,.207.035c.017.032.053.005.075.023s.054.01.084.009a.151.151,0,0,1,.077.019c.018.009.033.029.056,0,.005-.006.036,0,.049.015a.157.157,0,0,0,.122.032h.017a3.451,3.451,0,0,1,.366.019c.033,0,.07.032.1.013a.122.122,0,0,1,.1-.013,1.069,1.069,0,0,0,.265.014h.262a.223.223,0,0,0,.051,0,.76.76,0,0,0,.078-.031c.022.027.053.014.079.014a.432.432,0,0,0,.078-.016.022.022,0,0,1,.015.005v.01c-.029.03-.055.065-.106.053a.117.117,0,0,0-.055.008c-.007,0-.011.011-.017.017s.016.009.022.008a.718.718,0,0,1,.12-.019c.04-.011.084,0,.12-.016.084-.027.176-.017.26-.048a.189.189,0,0,1,.058,0c.02,0,.062.014.084-.015.029.036.058,0,.084,0a.284.284,0,0,0,.092,0c.035-.016.073,0,.1-.017a.356.356,0,0,1,.1-.015c.084-.014.168-.029.252-.035.049,0,.1-.033.147-.033.031-.035.083,0,.113-.033a.646.646,0,0,0,.208-.05c.025-.012.061.012.084-.018.063.013.113-.032.172-.035.027,0,.054-.031.079-.029s.062-.019.094-.021a.186.186,0,0,0,.084-.017c.067-.044.149-.033.219-.065a2.131,2.131,0,0,1,.2-.078.156.156,0,0,1,.031-.008.682.682,0,0,0,.215-.072c.057-.028.119-.04.175-.069a1.315,1.315,0,0,1,.168-.084,1.531,1.531,0,0,0,.167-.084c.056-.028.115-.051.168-.083.1-.057.21-.11.307-.176.046-.03.1-.05.145-.079.066-.04.131-.083.194-.125a1.2,1.2,0,0,0,.189-.137.127.127,0,0,1,.041-.023.028.028,0,0,1,.021.006c.01.063.048.013.057.008a1.135,1.135,0,0,0,.193-.167c.01-.012-.019-.031.008-.042a.268.268,0,0,0,.04-.024l.046-.034a.241.241,0,0,0,.031-.025,1.057,1.057,0,0,1,.184-.15l.012-.011c.091-.084.183-.172.275-.257.036-.034.078-.061.112-.1a3.033,3.033,0,0,0,.278-.3c.077-.1.174-.187.252-.284a2.153,2.153,0,0,1,.193-.223c.022-.084.109-.125.151-.2a1.923,1.923,0,0,1,.135-.2.949.949,0,0,0,.1-.138,3.679,3.679,0,0,0,.258-.443c.084-.106.116-.241.2-.349a.53.53,0,0,1,.057-.137,1.457,1.457,0,0,0,.073-.167,3.225,3.225,0,0,0,.147-.379.645.645,0,0,0,.086-.2c.01-.042.05-.079.017-.126v-.012c.062-.068.056-.162.092-.241a.812.812,0,0,0,.026-.084.308.308,0,0,0,.032-.094.149.149,0,0,1,.017-.068.15.15,0,0,0,.016-.078.066.066,0,0,1,.006-.039.937.937,0,0,0,.072-.191.066.066,0,0,0,.005-.031.579.579,0,0,1,.04-.229.9.9,0,0,1,.073-.215c.018-.03.006-.067.02-.1a.976.976,0,0,0,.021-.152.286.286,0,0,1,.032-.084.452.452,0,0,0,.024-.115,1.357,1.357,0,0,0,.011-.168.062.062,0,0,1,.017-.034.056.056,0,0,1,.035-.011c.005,0,.014.015.014.023a.343.343,0,0,1-.014.146c-.011.024,0,.055,0,.084a.286.286,0,0,1-.015.12c-.015.033.014.077-.018.111a.586.586,0,0,1-.035.223v.008c.013.111-.025.22-.017.335a.25.25,0,0,1-.01.037c-.006.037-.019.071-.026.109a.912.912,0,0,1-.039.194,1.385,1.385,0,0,0-.043.168,1,1,0,0,1-.139.348.065.065,0,0,0,0,.075.148.148,0,0,1,.008.075.108.108,0,0,1-.024.077.221.221,0,0,0-.028.083.81.81,0,0,1-.034.112c-.015.036-.045.089-.064.134,0,.01.008.027.008.04a.165.165,0,0,1-.011.038.063.063,0,0,1-.012.037.249.249,0,0,0-.069.19c0,.041-.026.06-.041.084a.559.559,0,0,0-.1.213c0,.007-.008.013-.013.02a.171.171,0,0,0-.02.034c-.016.039-.028.08-.047.116s-.057.068-.069.106a1.542,1.542,0,0,1-.109.209,1.426,1.426,0,0,0-.115.2c-.066.045-.068.136-.132.182a.934.934,0,0,1-.129.2c-.044.063-.084.128-.126.194a.876.876,0,0,1-.083.1.4.4,0,0,0-.07.089.429.429,0,0,1-.057.084c-.036.045-.076.083-.113.13-.015.019-.028.04-.042.059a.352.352,0,0,1-.036.053c-.156.163-.314.326-.472.488-.042.043-.092.079-.136.121a1.255,1.255,0,0,1-.134.129c-.056.037-.093.1-.161.121-.005,0-.013,0-.013.007-.008.039-.042.052-.071.071s-.04.053-.077.06c-.013,0,0,.037-.028.032-.05.063-.135.077-.189.134v.017a.047.047,0,0,0,.017,0c.005,0,.007-.008.012-.011l.258-.155H494c.007,0-.005.014-.01.017a.715.715,0,0,0-.168.132.331.331,0,0,1-.062.033.4.4,0,0,0-.123.088c-.024.034-.066.024-.091.052a.315.315,0,0,1-.083.062c-.028.016-.056.03-.084.043-.084.037-.162.1-.251.129a.147.147,0,0,1-.1.056.138.138,0,0,0-.083.071s.008.021.013.022a.077.077,0,0,0,.069-.02.573.573,0,0,1,.11-.078.167.167,0,0,1,.063-.012c.052-.008.083-.048.133-.067s.1-.054.155-.074c.037-.013.053-.068.105-.052l.011-.019a.094.094,0,0,1,.034-.031.231.231,0,0,0,.108-.067c.014-.012.027-.032.047-.007h.011c0-.048.038-.045.074-.045.008,0,.016-.016.026-.019.031-.01.036-.045.059-.058a.082.082,0,0,0,.053-.053c0-.009.015-.016.024-.02a.7.7,0,0,0,.167-.117,2.368,2.368,0,0,1,.242-.168c.034-.022.066-.046.1-.068a.091.091,0,0,1,.023-.009c0,.008,0,.018-.006.023a.139.139,0,0,0-.048.091c0,.026-.039.052-.065.073s-.079.054-.116.083a.782.782,0,0,1-.158.11c-.043.029-.074.072-.119.1a1.342,1.342,0,0,0-.154.119.052.052,0,0,1-.044.016c-.024,0-.038,0-.034.03a.037.037,0,0,1-.01.021.235.235,0,0,0-.023.041c0,.008.022,0,.052-.018a.722.722,0,0,1,.135-.084c.05-.018.1-.043.145-.057a.268.268,0,0,0,.107-.083c.014-.013.02-.036.035-.044a.435.435,0,0,0,.118-.12.352.352,0,0,1,.157-.112.128.128,0,0,0,.059-.038.48.48,0,0,1,.142-.089h.011a.02.02,0,0,1,0,.015.057.057,0,0,1-.015.019.8.8,0,0,1-.212.181c-.013.005-.021.019-.031.029-.048.05-.11.084-.157.129a2.419,2.419,0,0,0-.235.194.216.216,0,0,1-.05.039,2.3,2.3,0,0,1-.26.189.012.012,0,0,0,0,.014.028.028,0,0,0,.016.014.085.085,0,0,0,.071-.03,2.285,2.285,0,0,1,.228-.189c.035-.033.075-.063.112-.1a.093.093,0,0,1,.046-.029c.051-.008.08-.053.122-.074.013-.006.019-.026.031-.037a.719.719,0,0,1,.068-.067.541.541,0,0,0,.125-.128c.09-.046.135-.147.226-.191.035-.018.032-.066.075-.084a.133.133,0,0,0,.07-.077.132.132,0,0,1,.052-.053.505.505,0,0,0,.189-.172c.034-.048.069-.1.108-.141.063-.073.131-.143.2-.215.031-.035.058-.073.092-.106s.083-.075.129-.115a1.839,1.839,0,0,0,.262-.334,1.035,1.035,0,0,1,.127-.193.79.79,0,0,1,.126-.218c.013-.026.039-.047.047-.074a.5.5,0,0,1,.089-.167c.056-.075.084-.168.133-.242.011-.017,0-.033-.021-.01,0-.006-.011-.012-.01-.017a.039.039,0,0,1,.012-.019.864.864,0,0,0,.154-.266c.009-.015.015-.033.024-.049.019-.032.03-.067.046-.1a.611.611,0,0,1,.05-.107.194.194,0,0,0,.018-.059.2.2,0,0,1,.021-.059.857.857,0,0,0,.1-.186c0-.008.013-.013.014-.02a1.513,1.513,0,0,1,.167-.43.386.386,0,0,0,.056-.164.1.1,0,0,1,.017-.043.236.236,0,0,0,.034-.1.173.173,0,0,1,.056-.113.147.147,0,0,0,.047-.107.682.682,0,0,1,.034-.18c.008-.023.008-.062.054-.056a.048.048,0,0,0,.027-.034.135.135,0,0,1,.044-.119c.02-.017.017-.055.022-.083a.782.782,0,0,1,.045-.134.089.089,0,0,0,.009-.039.127.127,0,0,1,.029-.118c.01-.012.024-.032.021-.041-.026-.053.012-.1,0-.156a.156.156,0,0,1,.016-.076.246.246,0,0,1,.032-.054c-.031-.018-.007-.035,0-.054s-.006-.026-.009-.038c-.007-.032-.019-.064.009-.091a.1.1,0,0,0,.012-.023c.006.006.018.013.018.018,0,.031.045.061.005.093v.11a.619.619,0,0,1-.007.177Zm2.126-3.147a.32.32,0,0,0-.057-.187.174.174,0,0,1-.027-.131.8.8,0,0,0,.015-.2c0-.006.007-.011.01-.017l.006.015a.113.113,0,0,1,.016.043,1.965,1.965,0,0,0,.072.357c.03.032,0,.071.014.094s0,.05,0,.07a.019.019,0,0,1-.033.017.017.017,0,0,1,0-.017.106.106,0,0,1-.013-.046Zm.117,1.74-.012.026c-.011-.007-.027-.011-.033-.021a.078.078,0,0,1-.005-.04.187.187,0,0,0-.024-.108.076.076,0,0,1-.009-.055.355.355,0,0,0,0-.214.766.766,0,0,1,0-.151c0-.026.008-.052-.012-.079s0-.04.007-.061a.111.111,0,0,0,0-.031.184.184,0,0,1,.067-.194l.012-.008.006.014v.084h0a.4.4,0,0,1-.01.115.394.394,0,0,0-.009.114.457.457,0,0,1,0,.117.521.521,0,0,0-.014.162.127.127,0,0,0,.014.079c.016.027.007.07.021.1s-.016.062.013.091c.008.011-.008.042-.014.062Zm-7.065,7.27a.117.117,0,0,0-.077.04c-.078,0-.135.055-.206.074a.507.507,0,0,0-.116.048.26.26,0,0,1-.122.054.041.041,0,0,0-.021.01.29.29,0,0,1-.122.053c-.027.006-.049.033-.072.05,0,0,0,.015,0,.015h.043a.161.161,0,0,0,.049,0c.012-.006.052-.007.05-.042.026,0,.063,0,.077-.015s.059-.025.092-.028a.058.058,0,0,0,.037-.013.059.059,0,0,1,.051-.02.039.039,0,0,0,.029-.009.659.659,0,0,1,.184-.109c.049-.029.1-.05.154-.077.006,0,.013-.018.011-.022a.053.053,0,0,0-.025-.019A.026.026,0,0,1,492.848,989.534Z" transform="translate(-436.855 -940.363)" fill="#19a301"/>
  </g>
</svg>
