<svg xmlns="http://www.w3.org/2000/svg" xmlns:xlink="http://www.w3.org/1999/xlink" width="70" height="70" viewBox="0 0 70 70">
  <defs>
    <clipPath id="clip-path">
      <rect id="Rectángulo_7607" data-name="Rectángulo 7607" width="70" height="70" transform="translate(119 1500.266)" fill="#fd0d1b"/>
    </clipPath>
    <clipPath id="clip-path-2">
      <rect id="Rectángulo_7610" data-name="Rectángulo 7610" width="70" height="15" transform="translate(-35 -7.5)" fill="none"/>
    </clipPath>
  </defs>
  <g id="Enmascarar_grupo_1" data-name="Enmascarar grupo 1" transform="translate(-119 -1500.266)" clip-path="url(#clip-path)">
    <g id="Noticias" transform="translate(119 1500.266)">
      <rect id="Rectángulo_7608" data-name="Rectángulo 7608" width="70" height="70" fill="none"/>
      <g id="Grupo_24387" data-name="Grupo 24387" transform="translate(35 62.5)" clip-path="url(#clip-path-2)">
        <g id="Grupo_24386" data-name="Grupo 24386">
          <line id="Line_4_3_" x2="8.4" transform="translate(6.7)" fill="none" stroke="#19a301" stroke-linecap="round" stroke-linejoin="round" stroke-width="2.4"/>
          <line id="Line_5_3_" x2="0.7" transform="translate(23.4)" fill="none" stroke="#19a301" stroke-linecap="round" stroke-linejoin="round" stroke-width="2.4"/>
          <line id="Line_6_3_" x2="8.3" transform="translate(-24.1)" fill="none" stroke="#19a301" stroke-linecap="round" stroke-linejoin="round" stroke-width="2.4"/>
          <line id="Line_7_3_" x2="14.6" transform="translate(-16.3)" fill="none" stroke="#82d400" stroke-linecap="round" stroke-linejoin="round" stroke-width="2.4"/>
        </g>
        <rect id="Rectángulo_7609" data-name="Rectángulo 7609" width="70" height="15" transform="translate(-35 -7.5)" fill="none"/>
      </g>
      <g id="Group_3863_4_" transform="translate(534 287)">
        <g id="Group_3862_4_">
          <path id="Path_4289_2_" d="M-497.9-272.8l3-.5v20.5l-18-2.8h-6.6a3.372,3.372,0,0,1-3.4-3.4v-8.3a3.372,3.372,0,0,1,3.4-3.4h4.8" fill="none" stroke="#000" stroke-linecap="round" stroke-linejoin="round" stroke-miterlimit="10" stroke-width="1.5"/>
          <path id="Rectangle_1487_4_" d="M-488.1-248h-3.4a3.372,3.372,0,0,1-3.4-3.4v-23.2a3.372,3.372,0,0,1,3.4-3.4h3.4v30Z" fill="none" stroke="#000" stroke-linecap="round" stroke-linejoin="round" stroke-miterlimit="10" stroke-width="1.5"/>
          <path id="Rectangle_1488_4_" d="M-488-256.5h0v-13.3h0a4.8,4.8,0,0,1,4.8,4.8v3.7A4.935,4.935,0,0,1-488-256.5Z" fill="none" stroke="#000" stroke-linecap="round" stroke-linejoin="round" stroke-miterlimit="10" stroke-width="1.5"/>
          <path id="Path_4290_4_" d="M-506.5-254.6v18.3h-2.7a4.118,4.118,0,0,1-4.1-4.1v-26.7" fill="none" stroke="#000" stroke-linecap="round" stroke-linejoin="round" stroke-miterlimit="10" stroke-width="1.5"/>
          <line id="Line_379_4_" x2="4.8" transform="translate(-479.8 -263.7)" fill="none" stroke="#000" stroke-linecap="round" stroke-linejoin="round" stroke-miterlimit="10" stroke-width="1.5"/>
          <line id="Line_380_4_" x2="3.4" y2="3.4" transform="translate(-479.1 -259.9)" fill="none" stroke="#000" stroke-linecap="round" stroke-linejoin="round" stroke-miterlimit="10" stroke-width="1.5"/>
          <line id="Line_381_4_" y1="3.3" x2="3.4" transform="translate(-479.1 -270.8)" fill="none" stroke="#000" stroke-linecap="round" stroke-linejoin="round" stroke-miterlimit="10" stroke-width="1.5"/>
        </g>
      </g>
      <circle id="Ellipse_2_4_" cx="5.8" cy="5.8" r="5.8" transform="translate(21.7 7.9)" fill="none" stroke="#19a301" stroke-linecap="round" stroke-linejoin="round" stroke-width="1.5"/>
    </g>
  </g>
</svg>
