<svg xmlns="http://www.w3.org/2000/svg" width="70" height="70" viewBox="0 0 70 70">
  <g id="Grupo_24918" data-name="Grupo 24918" transform="translate(92)">
    <g id="Grupo_24917" data-name="Grupo 24917">
      <g id="Grupo_24916" data-name="Grupo 24916">
        <line id="Line_4" data-name="Line 4" x2="8.375" transform="translate(-50.323 62.5)" fill="none" stroke="#19a301" stroke-linecap="round" stroke-linejoin="round" stroke-width="2.4"/>
        <line id="Line_5" data-name="Line 5" x2="0.679" transform="translate(-33.595 62.5)" fill="none" stroke="#19a301" stroke-linecap="round" stroke-linejoin="round" stroke-width="2.4"/>
        <line id="Line_6" data-name="Line 6" x2="8.298" transform="translate(-81.084 62.5)" fill="none" stroke="#19a301" stroke-linecap="round" stroke-linejoin="round" stroke-width="2.4"/>
        <line id="Line_7" data-name="Line 7" x2="14.628" transform="translate(-73.326 62.5)" fill="none" stroke="#82d400" stroke-linecap="round" stroke-linejoin="round" stroke-width="2.4"/>
      </g>
      <rect id="Rect치ngulo_7783" data-name="Rect치ngulo 7783" width="70" height="15" transform="translate(-92 55)" fill="none"/>
    </g>
    <rect id="Rect치ngulo_7784" data-name="Rect치ngulo 7784" width="70" height="70" transform="translate(-92)" fill="none"/>
    <circle id="Ellipse_2" data-name="Ellipse 2" cx="5.795" cy="5.795" r="5.795" transform="translate(-85.493 15.205)" fill="none" stroke="#19a301" stroke-linecap="round" stroke-linejoin="round" stroke-width="1.5"/>
    <path id="Trazado_29275" data-name="Trazado 29275" d="M-80.657,30.415V46.532a1.393,1.393,0,0,0,1.39,1.4H-35.61a2.294,2.294,0,0,0,2.3-2.294h0V19.6a1.4,1.4,0,0,0-1.394-1.4H-70.428" fill="none" stroke="#000" stroke-linecap="round" stroke-linejoin="round" stroke-width="1.5"/>
    <path id="Trazado_29276" data-name="Trazado 29276" d="M-54.048,29.865l-.8-.464-5.6-3.258-.022,6.477-.022,6.477,5.62-3.22,5.62-3.22-4.8-2.794" fill="none" stroke="#000" stroke-linecap="round" stroke-linejoin="round" stroke-width="1.5"/>
  </g>
</svg>
