<?xml version="1.0" encoding="utf-8"?>
<!-- Generator: Adobe Illustrator 24.0.2, SVG Export Plug-In . SVG Version: 6.00 Build 0)  -->
<svg version="1.1" xmlns="http://www.w3.org/2000/svg" xmlns:xlink="http://www.w3.org/1999/xlink" x="0px" y="0px"
	 viewBox="0 0 70 70" style="enable-background:new 0 0 70 70;" xml:space="preserve">
<style type="text/css">
	.st0{fill:none;stroke:#19A301;stroke-width:2.4;stroke-linecap:round;stroke-linejoin:round;}
	.st1{fill:none;stroke:#82D400;stroke-width:2.4;stroke-linecap:round;stroke-linejoin:round;}
	.st2{fill:none;}
	.st3{fill:#999999;}
	.st4{fill:none;stroke:#19A301;stroke-width:1.5;stroke-linecap:round;stroke-linejoin:round;}
	.st5{fill:none;stroke:#000000;stroke-width:1.5;stroke-linecap:round;stroke-linejoin:round;stroke-miterlimit:10;}
	.st6{fill:none;stroke:#000000;stroke-width:1.394;stroke-linecap:round;stroke-linejoin:round;stroke-miterlimit:10;}
	.st7{fill:none;stroke:#000000;stroke-width:0.224;stroke-linecap:round;stroke-linejoin:round;stroke-miterlimit:10;}
	.st8{fill:none;stroke:#000000;stroke-width:1.2878;stroke-linecap:round;stroke-linejoin:round;stroke-miterlimit:10;}
	.st9{fill:none;stroke:#000000;stroke-width:1.6609;stroke-linecap:round;stroke-linejoin:round;stroke-miterlimit:10;}
	.st10{fill:none;stroke:#00A800;stroke-width:1.6707;stroke-miterlimit:10;}
	.st11{fill:none;stroke:#00A800;stroke-width:1.5;stroke-miterlimit:10;}
	.st12{fill:none;stroke:#FFFFFF;stroke-width:1.5;stroke-linecap:round;stroke-linejoin:round;stroke-miterlimit:10;}
	.st13{fill:none;stroke:#19A301;stroke-width:1.5;stroke-linecap:round;stroke-linejoin:round;stroke-miterlimit:10;}
	.st14{fill:none;stroke:#000000;stroke-width:1.2721;stroke-linecap:round;stroke-linejoin:round;stroke-miterlimit:10;}
	.st15{fill:none;stroke:#000000;stroke-width:1.3075;stroke-linecap:round;stroke-linejoin:round;stroke-miterlimit:10;}
	.st16{fill:none;stroke:#19A301;stroke-width:1.3145;stroke-linecap:round;stroke-linejoin:round;}
	.st17{fill:none;stroke:#000000;stroke-width:1.5545;stroke-linecap:round;stroke-linejoin:round;stroke-miterlimit:10;}
	.st18{fill:none;stroke:#FFFFFF;stroke-width:1.5944;stroke-linecap:round;stroke-linejoin:round;stroke-miterlimit:10;}
	.st19{fill:none;stroke:#FFFFFF;stroke-width:1.4947;stroke-linecap:round;stroke-linejoin:round;stroke-miterlimit:10;}
	.st20{fill:none;stroke:#FFFFFF;stroke-width:1.6588;stroke-linecap:round;stroke-linejoin:round;stroke-miterlimit:10;}
	.st21{fill:none;stroke:#000000;stroke-width:1.5763;stroke-linecap:round;stroke-linejoin:round;stroke-miterlimit:10;}
	.st22{fill:none;stroke:#000000;stroke-width:1.6588;stroke-linecap:round;stroke-linejoin:round;stroke-miterlimit:10;}
	.st23{stroke:#000000;stroke-width:0.3431;stroke-miterlimit:10;}
	.st24{stroke:#000000;stroke-width:0.4369;stroke-miterlimit:10;}
	.st25{stroke:#000000;stroke-width:0.4183;stroke-miterlimit:10;}
</style>
<symbol  id="OCENSA-EXT" viewBox="-35 -7.5 70 15">
	<g>
		<line id="Line_4_2_" class="st0" x1="6.68" y1="0" x2="15.05" y2="0"/>
		<line id="Line_5_2_" class="st0" x1="23.41" y1="0" x2="24.08" y2="0"/>
		<line id="Line_6_2_" class="st0" x1="-24.08" y1="0" x2="-15.79" y2="0"/>
		<line id="Line_7_2_" class="st1" x1="-16.33" y1="0" x2="-1.7" y2="0"/>
	</g>
	<rect x="-35" y="-7.5" class="st2" width="70" height="15"/>
</symbol>
<g id="Capa_2">
</g>
<g id="Capa_1">
	<g>
		
			<use xlink:href="#OCENSA-EXT"  width="70" height="15" x="-35" y="-7.5" transform="matrix(1 0 0 -1 35 62.5)" style="overflow:visible;"/>
		<rect class="st2" width="70" height="70"/>
		<g>
			<circle id="Ellipse_2_18_" class="st4" cx="56.01" cy="17.37" r="5.8"/>
			<g>
				<line class="st17" x1="44.68" y1="42.44" x2="44.68" y2="18.43"/>
				<line class="st17" x1="41.13" y1="24.26" x2="44.63" y2="26.76"/>
				<line class="st17" x1="48.18" y1="20.71" x2="44.68" y2="22.85"/>
				<path class="st17" d="M54.16,25.9c-1.28,4.11-5.11,7.09-9.64,7.09c-5.57,0-10.09-4.52-10.09-10.09S38.95,12.8,44.52,12.8
					c1.29,0,2.52,0.24,3.66,0.68"/>
			</g>
			<path class="st17" d="M23.5,54.43c-4.56-2.44-9.37-4.79-13.57-7.83c-2.86-2.07-1.85-5.02,0.55-6.87
				c2.56-1.97,5.23-3.82,7.88-5.68c1.77-1.24,3.62-2.37,5.39-3.6c1.11-0.77,4.46-2.41,2.31-3.73c-1.05-0.65-13.82-7.42-13.82-7.42"
				/>
			<line class="st17" x1="34.49" y1="23.99" x2="25.26" y2="19.31"/>
			<path class="st17" d="M40.52,32.16l-5.96,6.78c0,0-1.3,1.46,1.13,3.15c2.42,1.7,13.33,6.63,13.33,6.63"/>
			<g>
				<path class="st17" d="M16.15,37.97c0,0,1,0.36,1.5,1.17c0.21,0.34,0.48,0.7,0.86,0.93c0.94,0.58,2-0.35,2.32-1.04
					c0.5-1.07,1.5-0.97,1.5-0.97"/>
				<path class="st17" d="M22.33,38.08c0,0,0.99,0.12,1.44,1.07c0.28,0.6,0.91,1.29,1.8,1.06c0.67-0.17,1.15-0.65,1.39-1.17
					c0.5-1.07,1.5-0.97,1.5-0.97"/>
				<path class="st17" d="M28.55,38.08c0,0,0.99,0.12,1.44,1.07c0.24,0.5,0.82,1.14,1.56,1.12"/>
			</g>
			<g>
				<path class="st17" d="M23.95,47.08c0,0,1,0.36,1.5,1.17c0.21,0.34,0.48,0.7,0.86,0.93c0.94,0.58,2-0.35,2.32-1.04
					c0.5-1.07,1.5-0.97,1.5-0.97"/>
				<path class="st17" d="M30.14,47.18c0,0,0.99,0.12,1.44,1.07c0.28,0.6,0.91,1.29,1.8,1.06c0.67-0.17,1.15-0.65,1.39-1.17
					c0.5-1.07,1.5-0.97,1.5-0.97"/>
				<path class="st17" d="M36.35,47.18c0,0,0.99,0.12,1.44,1.07c0.24,0.5,0.82,1.14,1.56,1.12"/>
			</g>
			<polyline class="st17" points="32.36,19.31 25.26,19.31 8.41,19.31 			"/>
		</g>
	</g>
</g>
</svg>
