<?xml version="1.0" encoding="utf-8"?>
<!-- Generator: Adobe Illustrator 24.0.2, SVG Export Plug-In . SVG Version: 6.00 Build 0)  -->
<svg version="1.1" xmlns="http://www.w3.org/2000/svg" xmlns:xlink="http://www.w3.org/1999/xlink" x="0px" y="0px"
	 viewBox="0 0 70 70" style="enable-background:new 0 0 70 70;" xml:space="preserve">
<style type="text/css">
	.st0{fill:none;stroke:#19A301;stroke-width:2.4;stroke-linecap:round;stroke-linejoin:round;}
	.st1{fill:none;stroke:#82D400;stroke-width:2.4;stroke-linecap:round;stroke-linejoin:round;}
	.st2{fill:none;}
	.st3{fill:#999999;}
	.st4{fill:none;stroke:#19A301;stroke-width:1.5;stroke-linecap:round;stroke-linejoin:round;}
	.st5{fill:none;stroke:#000000;stroke-width:1.5;stroke-linecap:round;stroke-linejoin:round;stroke-miterlimit:10;}
	.st6{fill:none;stroke:#000000;stroke-width:1.394;stroke-linecap:round;stroke-linejoin:round;stroke-miterlimit:10;}
	.st7{fill:none;stroke:#000000;stroke-width:0.224;stroke-linecap:round;stroke-linejoin:round;stroke-miterlimit:10;}
	.st8{fill:none;stroke:#000000;stroke-width:1.2878;stroke-linecap:round;stroke-linejoin:round;stroke-miterlimit:10;}
	.st9{fill:none;stroke:#000000;stroke-width:1.6609;stroke-linecap:round;stroke-linejoin:round;stroke-miterlimit:10;}
	.st10{fill:none;stroke:#00A800;stroke-width:1.6707;stroke-miterlimit:10;}
	.st11{fill:none;stroke:#00A800;stroke-width:1.5;stroke-miterlimit:10;}
	.st12{fill:none;stroke:#FFFFFF;stroke-width:1.5;stroke-linecap:round;stroke-linejoin:round;stroke-miterlimit:10;}
	.st13{fill:none;stroke:#19A301;stroke-width:1.5;stroke-linecap:round;stroke-linejoin:round;stroke-miterlimit:10;}
	.st14{fill:none;stroke:#000000;stroke-width:1.2721;stroke-linecap:round;stroke-linejoin:round;stroke-miterlimit:10;}
	.st15{fill:none;stroke:#000000;stroke-width:1.3075;stroke-linecap:round;stroke-linejoin:round;stroke-miterlimit:10;}
	.st16{fill:none;stroke:#19A301;stroke-width:1.3145;stroke-linecap:round;stroke-linejoin:round;}
	.st17{fill:none;stroke:#000000;stroke-width:1.5545;stroke-linecap:round;stroke-linejoin:round;stroke-miterlimit:10;}
	.st18{fill:none;stroke:#FFFFFF;stroke-width:1.5944;stroke-linecap:round;stroke-linejoin:round;stroke-miterlimit:10;}
	.st19{fill:none;stroke:#FFFFFF;stroke-width:1.4947;stroke-linecap:round;stroke-linejoin:round;stroke-miterlimit:10;}
	.st20{fill:none;stroke:#FFFFFF;stroke-width:1.6588;stroke-linecap:round;stroke-linejoin:round;stroke-miterlimit:10;}
	.st21{fill:none;stroke:#000000;stroke-width:1.5763;stroke-linecap:round;stroke-linejoin:round;stroke-miterlimit:10;}
	.st22{fill:none;stroke:#000000;stroke-width:1.6588;stroke-linecap:round;stroke-linejoin:round;stroke-miterlimit:10;}
	.st23{stroke:#000000;stroke-width:0.3431;stroke-miterlimit:10;}
	.st24{stroke:#000000;stroke-width:0.4369;stroke-miterlimit:10;}
	.st25{stroke:#000000;stroke-width:0.4183;stroke-miterlimit:10;}
</style>
<symbol  id="OCENSA-EXT" viewBox="-35 -7.5 70 15">
	<g>
		<line id="Line_4_2_" class="st0" x1="6.68" y1="0" x2="15.05" y2="0"/>
		<line id="Line_5_2_" class="st0" x1="23.41" y1="0" x2="24.08" y2="0"/>
		<line id="Line_6_2_" class="st0" x1="-24.08" y1="0" x2="-15.79" y2="0"/>
		<line id="Line_7_2_" class="st1" x1="-16.33" y1="0" x2="-1.7" y2="0"/>
	</g>
	<rect x="-35" y="-7.5" class="st2" width="70" height="15"/>
</symbol>
<g id="Capa_2">
</g>
<g id="Capa_1">
	<g>
		
			<use xlink:href="#OCENSA-EXT"  width="70" height="15" x="-35" y="-7.5" transform="matrix(1 0 0 -1 35 62.5)" style="overflow:visible;"/>
		<rect class="st2" width="70" height="70"/>
		<g>
			<circle id="Ellipse_2_14_" class="st4" cx="54.51" cy="14.64" r="5.8"/>
			<g>
				<path class="st5" d="M35.72,33.26H34.9c1.14-0.82,1.89-2.22,1.89-3.8c0-2.53-1.9-4.58-4.25-4.58h-2.06
					c0.33-0.59,0.51-1.26,0.51-1.96c0-2.5-2.3-4.53-5.14-4.53c-2.84,0-5.14,2.03-5.14,4.53c0,0.7,0.19,1.37,0.51,1.96h-2.06
					c-2.35,0-4.25,2.05-4.25,4.58c0,1.59,0.75,2.98,1.89,3.8h-0.82c-3.47,0-6.28,3.03-6.28,6.76s2.81,6.76,6.28,6.76h19.74
					c3.47,0,6.28-3.03,6.28-6.76S39.19,33.26,35.72,33.26z"/>
				<line class="st5" x1="25.85" y1="32.84" x2="25.85" y2="54.25"/>
				<line class="st5" x1="51.62" y1="54.25" x2="17.78" y2="54.25"/>
			</g>
			<line class="st5" x1="45.33" y1="54.25" x2="45.33" y2="21.08"/>
			<line class="st5" x1="40.39" y1="27.91" x2="45.26" y2="31.4"/>
			<line class="st5" x1="50.21" y1="22.97" x2="45.33" y2="25.96"/>
			<line class="st5" x1="31.33" y1="38.31" x2="26.45" y2="41.3"/>
			<path class="st5" d="M46.37,13.28c-0.32-0.03-0.65-0.04-0.97-0.04c-6.35,0-11.51,5.16-11.51,11.51c0,0.12,0,0.25,0.01,0.37"/>
			<path class="st5" d="M36.23,31.7c0.65,0.85,1.4,1.6,2.27,2.25c0.01,0.01,0.01,0.01,0.02,0.02c0.3,0.21,0.6,0.42,0.92,0.61
				c0.01,0.01,0.02,0.01,0.04,0.02c1.72,1.04,3.75,1.64,5.92,1.64c6.35,0,11.51-5.15,11.51-11.51c0-0.67-0.06-1.34-0.17-1.98"/>
		</g>
	</g>
</g>
</svg>
