<svg id="icon__etica_cumplimiento" xmlns="http://www.w3.org/2000/svg" xmlns:xlink="http://www.w3.org/1999/xlink" width="70" height="70" viewBox="0 0 70 70">
  <defs>
    <clipPath id="clip-path">
      <rect id="Rectangle_7614" data-name="Rectangle 7614" width="70" height="15" transform="translate(-35 -7.5)" fill="none"/>
    </clipPath>
  </defs>
  <g id="Group_24906" data-name="Group 24906" transform="translate(35 62.5)" clip-path="url(#clip-path)">
    <g id="Group_24905" data-name="Group 24905">
      <line id="Line_4_2_" x2="8.37" transform="translate(6.68)" fill="none" stroke="#19a301" stroke-linecap="round" stroke-linejoin="round" stroke-width="2.4"/>
      <line id="Line_5_2_" x2="0.67" transform="translate(23.41)" fill="none" stroke="#19a301" stroke-linecap="round" stroke-linejoin="round" stroke-width="2.4"/>
      <line id="Line_6_2_" x2="8.29" transform="translate(-24.08)" fill="none" stroke="#19a301" stroke-linecap="round" stroke-linejoin="round" stroke-width="2.4"/>
      <line id="Line_7_2_" x2="14.63" transform="translate(-16.33)" fill="none" stroke="#82d400" stroke-linecap="round" stroke-linejoin="round" stroke-width="2.4"/>
    </g>
    <rect id="Rectangle_7613" data-name="Rectangle 7613" width="70" height="15" transform="translate(-35 -7.5)" fill="none"/>
  </g>
  <rect id="Rectangle_7615" data-name="Rectangle 7615" width="70" height="70" fill="none"/>
  <g id="Group_24909" data-name="Group 24909">
    <circle id="Ellipse_2_95_" cx="5.8" cy="5.8" r="5.8" transform="translate(17.28 31.5)" fill="none" stroke="#19a301" stroke-linecap="round" stroke-linejoin="round" stroke-width="1.5"/>
    <g id="Group_24907" data-name="Group 24907">
      <line id="Line_3874" data-name="Line 3874" y2="4.53" transform="translate(33.74 24.85)" fill="none" stroke="#000" stroke-linecap="round" stroke-linejoin="round" stroke-miterlimit="10" stroke-width="1.5"/>
      <line id="Line_3875" data-name="Line 3875" y2="4.53" transform="translate(40.37 24.85)" fill="none" stroke="#000" stroke-linecap="round" stroke-linejoin="round" stroke-miterlimit="10" stroke-width="1.5"/>
      <path id="Path_29365" data-name="Path 29365" d="M21.4,45.8v8.26H52.71V38.73a5.861,5.861,0,0,0-3.46-5.35l-8.88-3.99" fill="none" stroke="#000" stroke-linecap="round" stroke-linejoin="round" stroke-miterlimit="10" stroke-width="1.5"/>
      <line id="Line_3876" data-name="Line 3876" x1="4.52" y2="2.03" transform="translate(29.22 29.39)" fill="none" stroke="#000" stroke-linecap="round" stroke-linejoin="round" stroke-miterlimit="10" stroke-width="1.5"/>
      <line id="Line_3877" data-name="Line 3877" x1="3.32" y1="3.76" transform="translate(33.74 29.38)" fill="none" stroke="#000" stroke-linecap="round" stroke-linejoin="round" stroke-miterlimit="10" stroke-width="1.5"/>
      <line id="Line_3878" data-name="Line 3878" y1="3.76" x2="3.31" transform="translate(37.06 29.38)" fill="none" stroke="#000" stroke-linecap="round" stroke-linejoin="round" stroke-miterlimit="10" stroke-width="1.5"/>
      <path id="Path_29366" data-name="Path 29366" d="M43.28,19.56a6.25,6.25,0,1,1-12.5,0" fill="none" stroke="#000" stroke-linecap="round" stroke-linejoin="round" stroke-miterlimit="10" stroke-width="1.5"/>
      <path id="Path_29367" data-name="Path 29367" d="M30.79,19.56V15.25a6.25,6.25,0,0,1,12.5,0v4.31" fill="none" stroke="#000" stroke-linecap="round" stroke-linejoin="round" stroke-miterlimit="10" stroke-width="1.5"/>
    </g>
    <g id="Group_24908" data-name="Group 24908">
      <path id="Path_29368" data-name="Path 29368" d="M42.42,48.56s-3.83-2.41-5.12-4.93c-1.94-3.8,3.29-6.4,5.12-2.96" fill="none" stroke="#000" stroke-linecap="round" stroke-linejoin="round" stroke-miterlimit="10" stroke-width="1.5"/>
      <path id="Path_29369" data-name="Path 29369" d="M42.42,48.56s3.83-2.41,5.12-4.93c1.94-3.8-3.29-6.4-5.12-2.96" fill="none" stroke="#000" stroke-linecap="round" stroke-linejoin="round" stroke-miterlimit="10" stroke-width="1.5"/>
    </g>
  </g>
</svg>
