<?xml version="1.0" encoding="utf-8"?>
<!-- Generator: Adobe Illustrator 24.0.2, SVG Export Plug-In . SVG Version: 6.00 Build 0)  -->
<svg version="1.1" xmlns="http://www.w3.org/2000/svg" xmlns:xlink="http://www.w3.org/1999/xlink" x="0px" y="0px"
	 viewBox="0 0 70 70" style="enable-background:new 0 0 70 70;" xml:space="preserve">
<style type="text/css">
	.st0{fill:none;stroke:#19A301;stroke-width:2.4;stroke-linecap:round;stroke-linejoin:round;}
	.st1{fill:none;stroke:#82D400;stroke-width:2.4;stroke-linecap:round;stroke-linejoin:round;}
	.st2{fill:none;}
	.st3{fill:#999999;}
	.st4{fill:none;stroke:#19A301;stroke-width:1.5;stroke-linecap:round;stroke-linejoin:round;}
	.st5{fill:none;stroke:#000000;stroke-width:1.5;stroke-linecap:round;stroke-linejoin:round;stroke-miterlimit:10;}
	.st6{fill:none;stroke:#000000;stroke-width:1.394;stroke-linecap:round;stroke-linejoin:round;stroke-miterlimit:10;}
	.st7{fill:none;stroke:#000000;stroke-width:0.224;stroke-linecap:round;stroke-linejoin:round;stroke-miterlimit:10;}
	.st8{fill:none;stroke:#000000;stroke-width:1.2878;stroke-linecap:round;stroke-linejoin:round;stroke-miterlimit:10;}
	.st9{fill:none;stroke:#000000;stroke-width:1.6609;stroke-linecap:round;stroke-linejoin:round;stroke-miterlimit:10;}
	.st10{fill:none;stroke:#00A800;stroke-width:1.6707;stroke-miterlimit:10;}
	.st11{fill:none;stroke:#00A800;stroke-width:1.5;stroke-miterlimit:10;}
	.st12{fill:none;stroke:#FFFFFF;stroke-width:1.5;stroke-linecap:round;stroke-linejoin:round;stroke-miterlimit:10;}
	.st13{fill:none;stroke:#19A301;stroke-width:1.5;stroke-linecap:round;stroke-linejoin:round;stroke-miterlimit:10;}
	.st14{fill:none;stroke:#000000;stroke-width:1.2721;stroke-linecap:round;stroke-linejoin:round;stroke-miterlimit:10;}
	.st15{fill:none;stroke:#000000;stroke-width:1.3075;stroke-linecap:round;stroke-linejoin:round;stroke-miterlimit:10;}
	.st16{fill:none;stroke:#19A301;stroke-width:1.3145;stroke-linecap:round;stroke-linejoin:round;}
	.st17{fill:none;stroke:#000000;stroke-width:1.5545;stroke-linecap:round;stroke-linejoin:round;stroke-miterlimit:10;}
	.st18{fill:none;stroke:#FFFFFF;stroke-width:1.5944;stroke-linecap:round;stroke-linejoin:round;stroke-miterlimit:10;}
	.st19{fill:none;stroke:#FFFFFF;stroke-width:1.4947;stroke-linecap:round;stroke-linejoin:round;stroke-miterlimit:10;}
	.st20{fill:none;stroke:#FFFFFF;stroke-width:1.6588;stroke-linecap:round;stroke-linejoin:round;stroke-miterlimit:10;}
	.st21{fill:none;stroke:#000000;stroke-width:1.5763;stroke-linecap:round;stroke-linejoin:round;stroke-miterlimit:10;}
	.st22{fill:none;stroke:#000000;stroke-width:1.6588;stroke-linecap:round;stroke-linejoin:round;stroke-miterlimit:10;}
	.st23{stroke:#000000;stroke-width:0.3431;stroke-miterlimit:10;}
	.st24{stroke:#000000;stroke-width:0.4369;stroke-miterlimit:10;}
	.st25{stroke:#000000;stroke-width:0.4183;stroke-miterlimit:10;}
</style>
<symbol  id="OCENSA-EXT" viewBox="-35 -7.5 70 15">
	<g>
		<line id="Line_4_2_" class="st0" x1="6.68" y1="0" x2="15.05" y2="0"/>
		<line id="Line_5_2_" class="st0" x1="23.41" y1="0" x2="24.08" y2="0"/>
		<line id="Line_6_2_" class="st0" x1="-24.08" y1="0" x2="-15.79" y2="0"/>
		<line id="Line_7_2_" class="st1" x1="-16.33" y1="0" x2="-1.7" y2="0"/>
	</g>
	<rect x="-35" y="-7.5" class="st2" width="70" height="15"/>
</symbol>
<g id="Capa_2">
</g>
<g id="Capa_1">
	<g>
		
			<use xlink:href="#OCENSA-EXT"  width="70" height="15" x="-35" y="-7.5" transform="matrix(1 0 0 -1 35 62.5)" style="overflow:visible;"/>
		<rect class="st2" width="70" height="70"/>
		<g>
			<circle id="Ellipse_2_196_" class="st4" cx="39.26" cy="26.64" r="5.8"/>
			<path class="st5" d="M31.07,24.84c-6.7-0.61-11.38,1-11.38,1c-8.17-1.09-8.99,2.45-8.99,2.45s-7.08,2.72-2.45,9.53
				c0,0,3.54,4.36,9.26-1.63"/>
			<path class="st5" d="M52.92,35.37c-1.91-1.88-3.85-3.44-5.78-4.74"/>
			<path class="st5" d="M48.84,39.45c0,0,12.26,7.08,14.43,0c0,0,1.35-10.2-11.71-5.37"/>
			<path class="st5" d="M26.69,43c0,0,11.25,3.46,25.15-2.08"/>
			<path class="st5" d="M15.86,37.69c0,0,1.07,2.98,4.91,3.87"/>
			<path class="st5" d="M22.69,39l-3.02,4.03c-1.47,1.95-0.59,4.77,1.73,5.54l0,0c2.19,0.73,4.49-0.77,4.7-3.07l0.59-6.5"/>
			<path class="st5" d="M6.74,34.17l0.81-0.32c0.93-0.37,1.9,0.43,1.71,1.41l-0.57,2.97"/>
			<circle cx="12.69" cy="31" r="1"/>
		</g>
	</g>
</g>
</svg>
