<svg id="Grupo_23943" data-name="Grupo 23943" xmlns="http://www.w3.org/2000/svg" width="70" height="70" viewBox="0 0 70 70">
  <g id="Grupo_23945" data-name="Grupo 23945">
    <g id="Grupo_23944" data-name="Grupo 23944">
      <g id="Grupo_23943-2" data-name="Grupo 23943">
        <line id="Line_4" data-name="Line 4" x2="8.375" transform="translate(41.677 62.5)" fill="none" stroke="#19a301" stroke-linecap="round" stroke-linejoin="round" stroke-width="2.4"/>
        <line id="Line_5" data-name="Line 5" x2="0.679" transform="translate(58.405 62.5)" fill="none" stroke="#19a301" stroke-linecap="round" stroke-linejoin="round" stroke-width="2.4"/>
        <line id="Line_6" data-name="Line 6" x2="8.298" transform="translate(10.916 62.5)" fill="none" stroke="#19a301" stroke-linecap="round" stroke-linejoin="round" stroke-width="2.4"/>
        <line id="Line_7" data-name="Line 7" x2="14.628" transform="translate(18.674 62.5)" fill="none" stroke="#82d400" stroke-linecap="round" stroke-linejoin="round" stroke-width="2.4"/>
      </g>
      <rect id="Rectángulo_7386" data-name="Rectángulo 7386" width="70" height="15" transform="translate(0 55)" fill="none"/>
    </g>
  </g>
  <rect id="Rectángulo_7387" data-name="Rectángulo 7387" width="70" height="70" fill="none"/>
  <g id="Grupo_23948" data-name="Grupo 23948">
    <circle id="Ellipse_2" data-name="Ellipse 2" cx="5.795" cy="5.795" r="5.795" transform="translate(17.012 16.843)" fill="none" stroke="#19a301" stroke-linecap="round" stroke-linejoin="round" stroke-width="1.5"/>
    <path id="Trazado_29304" data-name="Trazado 29304" d="M31.082,25.435H45.247a1.747,1.747,0,0,1,1.747,1.747v9.461" fill="none" stroke="#fff" stroke-linecap="round" stroke-linejoin="round" stroke-width="1.5"/>
    <line id="Línea_3982" data-name="Línea 3982" y1="4.777" transform="translate(23.247 31.064)" fill="none" stroke="#fff" stroke-linecap="round" stroke-linejoin="round" stroke-width="1.5"/>
    <path id="Trazado_29305" data-name="Trazado 29305" d="M31.082,18.481h9.494a1.165,1.165,0,0,1,1.165,1.165v5.8" fill="none" stroke="#fff" stroke-linecap="round" stroke-linejoin="round" stroke-width="1.5"/>
    <g id="Grupo_23946" data-name="Grupo 23946">
      <path id="Trazado_29306" data-name="Trazado 29306" d="M45.807,53l4.452-13.262a1.364,1.364,0,0,0-.63-1.633L35.108,30.049a1.365,1.365,0,0,0-1.319,0L19.142,38.1a1.365,1.365,0,0,0-.626,1.659L22.807,52" fill="none" stroke="#fff" stroke-linecap="round" stroke-linejoin="round" stroke-width="1.5"/>
      <line id="Línea_3983" data-name="Línea 3983" y2="23.13" transform="translate(34.449 29.87)" fill="none" stroke="#fff" stroke-linecap="round" stroke-linejoin="round" stroke-width="1.5"/>
    </g>
    <circle id="Elipse_3210" data-name="Elipse 3210" cx="1.772" cy="1.772" r="1.772" transform="translate(25.576 37.874)" fill="none" stroke="#fff" stroke-linecap="round" stroke-linejoin="round" stroke-width="1.5"/>
    <circle id="Elipse_3211" data-name="Elipse 3211" cx="1.772" cy="1.772" r="1.772" transform="translate(39.741 37.874)" fill="none" stroke="#fff" stroke-linecap="round" stroke-linejoin="round" stroke-width="1.5"/>
    <path id="Rectángulo_7388" data-name="Rectángulo 7388" d="M.975,0H4.868A1.048,1.048,0,0,1,5.915,1.048V8.481a0,0,0,0,1,0,0H0a0,0,0,0,1,0,0V.975A.975.975,0,0,1,.975,0Z" transform="translate(31.973 10)" fill="none" stroke="#fff" stroke-linecap="round" stroke-linejoin="round" stroke-width="1.5"/>
    <g id="Grupo_23947" data-name="Grupo 23947">
      <path id="Trazado_29307" data-name="Trazado 29307" d="M55.193,53.505c-2.524,0-2.524-2.465-5.047-2.465s-2.523,2.465-5.046,2.465-2.523-2.465-5.046-2.465-2.524,2.465-5.047,2.465-2.523-2.465-5.045-2.465-2.525,2.465-5.049,2.465S22.386,51.04,19.86,51.04s-2.526,2.465-5.053,2.465" fill="none" stroke="#fff" stroke-linecap="round" stroke-linejoin="round" stroke-width="1.5"/>
    </g>
  </g>
</svg>
