<?xml version="1.0" encoding="utf-8"?>
<!-- Generator: Adobe Illustrator 24.0.2, SVG Export Plug-In . SVG Version: 6.00 Build 0)  -->
<svg version="1.1" xmlns="http://www.w3.org/2000/svg" xmlns:xlink="http://www.w3.org/1999/xlink" x="0px" y="0px"
	 viewBox="0 0 70 70" style="enable-background:new 0 0 70 70;" xml:space="preserve">
<style type="text/css">
	.st0{fill:none;stroke:#19A301;stroke-width:2.4;stroke-linecap:round;stroke-linejoin:round;}
	.st1{fill:none;stroke:#82D400;stroke-width:2.4;stroke-linecap:round;stroke-linejoin:round;}
	.st2{fill:none;}
	.st3{fill:#999999;}
	.st4{fill:none;stroke:#19A301;stroke-width:1.5;stroke-linecap:round;stroke-linejoin:round;}
	.st5{fill:none;stroke:#000000;stroke-width:1.5;stroke-linecap:round;stroke-linejoin:round;stroke-miterlimit:10;}
	.st6{fill:none;stroke:#000000;stroke-width:1.394;stroke-linecap:round;stroke-linejoin:round;stroke-miterlimit:10;}
	.st7{fill:none;stroke:#000000;stroke-width:0.224;stroke-linecap:round;stroke-linejoin:round;stroke-miterlimit:10;}
	.st8{fill:none;stroke:#000000;stroke-width:1.2878;stroke-linecap:round;stroke-linejoin:round;stroke-miterlimit:10;}
	.st9{fill:none;stroke:#000000;stroke-width:1.6609;stroke-linecap:round;stroke-linejoin:round;stroke-miterlimit:10;}
	.st10{fill:none;stroke:#00A800;stroke-width:1.6707;stroke-miterlimit:10;}
	.st11{fill:none;stroke:#00A800;stroke-width:1.5;stroke-miterlimit:10;}
	.st12{fill:none;stroke:#FFFFFF;stroke-width:1.5;stroke-linecap:round;stroke-linejoin:round;stroke-miterlimit:10;}
	.st13{fill:none;stroke:#19A301;stroke-width:1.5;stroke-linecap:round;stroke-linejoin:round;stroke-miterlimit:10;}
	.st14{fill:none;stroke:#000000;stroke-width:1.2721;stroke-linecap:round;stroke-linejoin:round;stroke-miterlimit:10;}
	.st15{fill:none;stroke:#000000;stroke-width:1.3075;stroke-linecap:round;stroke-linejoin:round;stroke-miterlimit:10;}
	.st16{fill:none;stroke:#19A301;stroke-width:1.3145;stroke-linecap:round;stroke-linejoin:round;}
	.st17{fill:none;stroke:#000000;stroke-width:1.5545;stroke-linecap:round;stroke-linejoin:round;stroke-miterlimit:10;}
	.st18{fill:none;stroke:#FFFFFF;stroke-width:1.5944;stroke-linecap:round;stroke-linejoin:round;stroke-miterlimit:10;}
	.st19{fill:none;stroke:#FFFFFF;stroke-width:1.4947;stroke-linecap:round;stroke-linejoin:round;stroke-miterlimit:10;}
	.st20{fill:none;stroke:#FFFFFF;stroke-width:1.6588;stroke-linecap:round;stroke-linejoin:round;stroke-miterlimit:10;}
	.st21{fill:none;stroke:#000000;stroke-width:1.5763;stroke-linecap:round;stroke-linejoin:round;stroke-miterlimit:10;}
	.st22{fill:none;stroke:#000000;stroke-width:1.6588;stroke-linecap:round;stroke-linejoin:round;stroke-miterlimit:10;}
	.st23{stroke:#000000;stroke-width:0.3431;stroke-miterlimit:10;}
	.st24{stroke:#000000;stroke-width:0.4369;stroke-miterlimit:10;}
	.st25{stroke:#000000;stroke-width:0.4183;stroke-miterlimit:10;}
</style>
<symbol  id="OCENSA-EXT" viewBox="-35 -7.5 70 15">
	<g>
		<line id="Line_4_2_" class="st0" x1="6.68" y1="0" x2="15.05" y2="0"/>
		<line id="Line_5_2_" class="st0" x1="23.41" y1="0" x2="24.08" y2="0"/>
		<line id="Line_6_2_" class="st0" x1="-24.08" y1="0" x2="-15.79" y2="0"/>
		<line id="Line_7_2_" class="st1" x1="-16.33" y1="0" x2="-1.7" y2="0"/>
	</g>
	<rect x="-35" y="-7.5" class="st2" width="70" height="15"/>
</symbol>
<g id="Capa_2">
</g>
<g id="Capa_1">
	<g>
		
			<use xlink:href="#OCENSA-EXT"  width="70" height="15" x="-35" y="-7.5" transform="matrix(1 0 0 -1 35 62.5)" style="overflow:visible;"/>
		<g>
			<circle id="Ellipse_2_137_" class="st16" cx="14.47" cy="32.92" r="5.08"/>
			<path class="st5" d="M23.86,28.44V18.38c0,0,0.96-9.38,9.98-9.38s10.25,6.08,10.25,6.51s0.78,2.06-1.3,6.19
				c-2.08,4.14-0.87,6.66,2.17,7.61v5.12c0,0-0.26,7.05-6.95,10.6s-12.68,0.77-13.28,0.42c-0.61-0.35-2.43-1.65-2.43-1.65"/>
			<path class="st5" d="M44.96,29.32c8-1.15,15.63,1.1,15.63,1.1s0.62-4.88-4.57-10.34s-11.93-4.57-11.93-4.57s-3.62-2.98-7.85-1.41
				c-3.54,1.32-5.42,5.16-4.76,8.95c0.44,2.54,2.11,4.47,4.12,5.92c3.07,2.2,8.71,5.37,7.62,11.03"/>
			<path class="st5" d="M41.95,23.89c0,0,11.68-0.9,18.64,6.53"/>
			<path class="st5" d="M50.81,24.86c0,0,0.68-4.67,4.63-5.34"/>
			<line class="st5" x1="38.66" y1="18.27" x2="38.66" y2="20.27"/>
			<path class="st5" d="M21.89,30.94c2.47-3.13,5.52-5.36,8.96-2.6c4.23,3.39,2.35,7.55,1.32,8.99c-1.03,1.45-7.62,8.96-18.62,5.95
				c0.63-0.91,1.26-1.82,1.89-2.73"/>
			<path class="st5" d="M22.3,43.82l-6.85,8.77c0,0,5,2.62,8.08-1.58c2.29-3.13,1.93-5.21,1.93-5.21"/>
			<path class="st5" d="M30.35,46.82c0,0,0,2.91,0,2.91c-0.18-0.06-0.41-0.03-0.59-0.03c-0.99,0.01-1.81,0.31-2.5,1.04
				c-0.62,0.66-1.02,1.57-0.88,2.48c0.11,0.69,0.75,1.12,1.45,1.12c1.09,0,1.58-0.89,1.67-1.62c0,0,7.08,0,7.09,0
				c-0.07,0,0.32,0.99,0.36,1.05c1.04,1.52,3.24,0.11,2.67-1.53c-0.97-2.79-3.73-2.4-6.13-2.4v-3.24"/>
		</g>
		<rect class="st2" width="70" height="70"/>
	</g>
</g>
</svg>
