<?xml version="1.0" encoding="utf-8"?>
<!-- Generator: Adobe Illustrator 24.0.2, SVG Export Plug-In . SVG Version: 6.00 Build 0)  -->
<svg version="1.1" xmlns="http://www.w3.org/2000/svg" xmlns:xlink="http://www.w3.org/1999/xlink" x="0px" y="0px"
	 viewBox="0 0 70 70" style="enable-background:new 0 0 70 70;" xml:space="preserve">
<style type="text/css">
	.st0{fill:none;stroke:#19A301;stroke-width:2.4;stroke-linecap:round;stroke-linejoin:round;}
	.st1{fill:none;stroke:#82D400;stroke-width:2.4;stroke-linecap:round;stroke-linejoin:round;}
	.st2{fill:none;}
	.st3{fill:#999999;}
	.st4{fill:none;stroke:#19A301;stroke-width:1.5;stroke-linecap:round;stroke-linejoin:round;}
	.st5{fill:none;stroke:#000000;stroke-width:1.5;stroke-linecap:round;stroke-linejoin:round;stroke-miterlimit:10;}
	.st6{fill:none;stroke:#000000;stroke-width:1.394;stroke-linecap:round;stroke-linejoin:round;stroke-miterlimit:10;}
	.st7{fill:none;stroke:#000000;stroke-width:0.224;stroke-linecap:round;stroke-linejoin:round;stroke-miterlimit:10;}
	.st8{fill:none;stroke:#000000;stroke-width:1.2878;stroke-linecap:round;stroke-linejoin:round;stroke-miterlimit:10;}
	.st9{fill:none;stroke:#000000;stroke-width:1.6609;stroke-linecap:round;stroke-linejoin:round;stroke-miterlimit:10;}
	.st10{fill:none;stroke:#00A800;stroke-width:1.6707;stroke-miterlimit:10;}
	.st11{fill:none;stroke:#00A800;stroke-width:1.5;stroke-miterlimit:10;}
	.st12{fill:none;stroke:#FFFFFF;stroke-width:1.5;stroke-linecap:round;stroke-linejoin:round;stroke-miterlimit:10;}
	.st13{fill:none;stroke:#19A301;stroke-width:1.5;stroke-linecap:round;stroke-linejoin:round;stroke-miterlimit:10;}
	.st14{fill:none;stroke:#000000;stroke-width:1.2721;stroke-linecap:round;stroke-linejoin:round;stroke-miterlimit:10;}
	.st15{fill:none;stroke:#000000;stroke-width:1.3075;stroke-linecap:round;stroke-linejoin:round;stroke-miterlimit:10;}
	.st16{fill:none;stroke:#19A301;stroke-width:1.3145;stroke-linecap:round;stroke-linejoin:round;}
	.st17{fill:none;stroke:#000000;stroke-width:1.5545;stroke-linecap:round;stroke-linejoin:round;stroke-miterlimit:10;}
	.st18{fill:none;stroke:#FFFFFF;stroke-width:1.5944;stroke-linecap:round;stroke-linejoin:round;stroke-miterlimit:10;}
	.st19{fill:none;stroke:#FFFFFF;stroke-width:1.4947;stroke-linecap:round;stroke-linejoin:round;stroke-miterlimit:10;}
	.st20{fill:none;stroke:#FFFFFF;stroke-width:1.6588;stroke-linecap:round;stroke-linejoin:round;stroke-miterlimit:10;}
	.st21{fill:none;stroke:#000000;stroke-width:1.5763;stroke-linecap:round;stroke-linejoin:round;stroke-miterlimit:10;}
	.st22{fill:none;stroke:#000000;stroke-width:1.6588;stroke-linecap:round;stroke-linejoin:round;stroke-miterlimit:10;}
	.st23{stroke:#000000;stroke-width:0.3431;stroke-miterlimit:10;}
	.st24{stroke:#000000;stroke-width:0.4369;stroke-miterlimit:10;}
	.st25{stroke:#000000;stroke-width:0.4183;stroke-miterlimit:10;}
</style>
<symbol  id="OCENSA-EXT" viewBox="-35 -7.5 70 15">
	<g>
		<line id="Line_4_2_" class="st0" x1="6.68" y1="0" x2="15.05" y2="0"/>
		<line id="Line_5_2_" class="st0" x1="23.41" y1="0" x2="24.08" y2="0"/>
		<line id="Line_6_2_" class="st0" x1="-24.08" y1="0" x2="-15.79" y2="0"/>
		<line id="Line_7_2_" class="st1" x1="-16.33" y1="0" x2="-1.7" y2="0"/>
	</g>
	<rect x="-35" y="-7.5" class="st2" width="70" height="15"/>
</symbol>
<g id="Capa_2">
</g>
<g id="Capa_1">
	<g>
		<g>
			<g>
				<circle id="Ellipse_2_193_" class="st4" cx="12.27" cy="43.59" r="5.8"/>
				<g>
					<g>
						<line id="Línea_1013_9_" class="st5" x1="22.35" y1="29.85" x2="22.35" y2="33.81"/>
						<line id="Línea_1014_9_" class="st5" x1="28.14" y1="29.85" x2="28.14" y2="33.81"/>
						<line class="st5" x1="17" y1="36.19" x2="22.29" y2="33.8"/>
						<path class="st5" d="M28.13,33.81l7.76,3.5c1.52,0.68,2.58,2.49,2.92,4.07v7.69v6.31h-4.79h-3.99H11.62v-2.89"/>
						<path id="Trazado_5701_9_" class="st5" d="M30.68,25.23c0,3.01-2.44,5.46-5.46,5.46s-5.46-2.44-5.46-5.46"/>
						<path id="Trazado_5702_8_" class="st5" d="M19.76,25.23v-3.77c0-3.01,2.44-5.46,5.46-5.46s5.46,2.44,5.46,5.46v3.77"/>
						<line class="st5" x1="15.65" y1="20.94" x2="35.42" y2="20.94"/>
						<path class="st5" d="M21.92,34.02c0,0,3.48,2.47,6.67,0"/>
						<g>
							<g>
								<path id="Trazado_6132_9_" class="st5" d="M33.57,17.46c-0.12,1.77-1.91,3.08-1.91,3.08s-1.59-1.55-1.46-3.31
									s1.91-3.08,1.91-3.08S33.7,15.69,33.57,17.46z"/>
							</g>
							<g>
								<path id="Trazado_6132_8_" class="st5" d="M36.02,20.89c-1.74,0.32-3.46-1.07-3.46-1.07s1.1-1.93,2.84-2.25
									c1.74-0.32,3.46,1.07,3.46,1.07S37.76,20.57,36.02,20.89z"/>
							</g>
						</g>
						<polyline class="st5" points="19.76,35.01 30.19,46.48 36.58,37.71 						"/>
						<line class="st5" x1="30.03" y1="55.38" x2="30.03" y2="46.48"/>
					</g>
					<line id="Línea_1013_8_" class="st5" x1="47.06" y1="29.86" x2="47.06" y2="33.81"/>
					<line id="Línea_1014_8_" class="st5" x1="52.85" y1="29.86" x2="52.85" y2="33.81"/>
					<path class="st5" d="M37.67,38.59c0.44-0.56,0.98-1.01,1.58-1.28l7.76-3.5"/>
					<path class="st5" d="M36.33,55.38h2.48h15.94h3.99h4.79v-6.31V41.4c-0.34-1.6-1.4-3.39-2.92-4.08l-7.77-3.5"/>
					<path id="Trazado_5701_8_" class="st5" d="M55.39,25.23c0,3.01-2.44,5.46-5.46,5.46s-5.46-2.44-5.46-5.46"/>
					<path class="st5" d="M54.98,19.42c-0.1-0.23-0.2-0.45-0.33-0.65c-0.15-0.29-0.33-0.55-0.52-0.78
						c-0.01-0.01-0.03-0.01-0.03-0.03"/>
					<path class="st5" d="M44.86,19.42c0.82-2,2.77-3.41,5.06-3.41c0.59,0,1.16,0.1,1.69,0.26"/>
					<line class="st5" x1="55.39" y1="25.24" x2="55.39" y2="21.91"/>
					<line class="st5" x1="44.47" y1="25.24" x2="44.47" y2="21.91"/>
					<path class="st5" d="M46.63,34.02c0,0,3.48,2.47,6.67,0"/>
					<g>
						<g>
							<path id="Trazado_6132_7_" class="st5" d="M54.96,15.93c-0.12,1.77-1.91,3.08-1.91,3.08s-1.59-1.55-1.46-3.31
								s1.91-3.08,1.91-3.08S55.09,14.16,54.96,15.93z"/>
						</g>
						<g>
							<path id="Trazado_6132_6_" class="st5" d="M57.41,19.36c-1.74,0.32-3.46-1.07-3.46-1.07s1.1-1.93,2.84-2.25
								c1.74-0.32,3.46,1.07,3.46,1.07S59.15,19.04,57.41,19.36z"/>
						</g>
					</g>
					<rect x="40.26" y="19.42" class="st5" width="19.2" height="2.49"/>
					<path class="st5" d="M57.27,19.42c0-0.01,0-0.01,0-0.03"/>
					<path class="st5" d="M42.11,19.42c0.57-3.67,3.75-6.48,7.58-6.48c1.02,0,1.99,0.2,2.88,0.56"/>
					<path class="st5" d="M54.86,14.95c0.1,0.07,0.19,0.16,0.27,0.25c0.33,0.33,0.64,0.7,0.91,1.09"/>
					<line class="st5" x1="42" y1="36.06" x2="42" y2="21.91"/>
					<line class="st5" x1="57.93" y1="35.86" x2="57.93" y2="21.91"/>
					<g>
						<polyline class="st5" points="45.51,35.12 42.68,38.01 45.51,40.91 42.68,43.8 45.51,46.69 42.68,49.59 45.51,52.49 
							42.68,55.39 						"/>
					</g>
				</g>
			</g>
		</g>
		
			<use xlink:href="#OCENSA-EXT"  width="70" height="15" x="-35" y="-7.5" transform="matrix(1 0 0 -1 35 62.5)" style="overflow:visible;"/>
		<rect class="st2" width="70" height="70"/>
	</g>
</g>
</svg>
