<svg id="Group_17151" data-name="Group 17151" xmlns="http://www.w3.org/2000/svg" width="84" height="84" viewBox="0 0 84 84">
  <g id="Group_17143" data-name="Group 17143">
    <path id="Path_17670" data-name="Path 17670" d="M35.659,69.478l-.21,1.021.2-1.022a1.042,1.042,0,1,0-.4,2.044l.019,0a1.017,1.017,0,0,0,.2.018,1.042,1.042,0,0,0,.195-2.066" fill="#dd195b"/>
    <path id="Path_17671" data-name="Path 17671" d="M43.626,69.813l.1,1.037-.107-1.036a1.042,1.042,0,0,0,.1,2.078c.036,0,.072,0,.108,0l.029,0a1.042,1.042,0,0,0-.239-2.071" fill="#dd195b"/>
    <path id="Path_17672" data-name="Path 17672" d="M39.637,69.945h-.015a1.036,1.036,0,0,0-1.08,1,1.048,1.048,0,0,0,1,1.088h.049a1.042,1.042,0,0,0,.046-2.083" fill="#dd195b"/>
    <path id="Path_17673" data-name="Path 17673" d="M31.809,68.419l-.013,0a1.036,1.036,0,0,0-1.326.631,1.048,1.048,0,0,0,.634,1.336,1.066,1.066,0,0,0,.353.061,1.042,1.042,0,0,0,.352-2.023" fill="#dd195b"/>
    <path id="Path_17674" data-name="Path 17674" d="M47.559,69.084l.256,1.01-.259-1.009a1.042,1.042,0,0,0,.259,2.051,1.073,1.073,0,0,0,.261-.033L48.1,71.1a1.042,1.042,0,0,0-.544-2.012" fill="#dd195b"/>
    <path id="Path_17675" data-name="Path 17675" d="M51.326,67.77l.413.956-.416-.956a1.043,1.043,0,0,0,.417,2,1.055,1.055,0,0,0,.415-.087l.025-.012a1.042,1.042,0,0,0-.854-1.9" fill="#dd195b"/>
    <g id="Group_17142" data-name="Group 17142">
      <path id="Path_17676" data-name="Path 17676" d="M27.829,20.265a1.057,1.057,0,0,0,.494-.123,1.042,1.042,0,0,0-.981-1.839l-.013.007a1.04,1.04,0,0,0,.5,1.955" fill="#dd195b"/>
      <path id="Path_17677" data-name="Path 17677" d="M15.775,31.905a1.043,1.043,0,0,0,1.407-.439l.018-.036a1.042,1.042,0,1,0-1.425.475" fill="#dd195b"/>
      <path id="Path_17678" data-name="Path 17678" d="M14.307,35.825a1.06,1.06,0,0,0,.335.056,1.042,1.042,0,0,0,.986-.709l.014-.041a1.042,1.042,0,1,0-1.335.694" fill="#dd195b"/>
      <path id="Path_17679" data-name="Path 17679" d="M17.831,28.259a1.04,1.04,0,0,0,1.455-.229l.014-.019A1.042,1.042,0,0,0,17.6,26.8l.84.618L17.6,26.8a1.041,1.041,0,0,0,.23,1.455" fill="#dd195b"/>
      <path id="Path_17680" data-name="Path 17680" d="M24.291,22.516a1.046,1.046,0,1,0-.6-1.893l-.027.019a1.043,1.043,0,0,0,.63,1.874" fill="#dd195b"/>
      <path id="Path_17681" data-name="Path 17681" d="M13.377,51.629a1.041,1.041,0,0,0,.994.735,1.06,1.06,0,0,0,.308-.046,1.049,1.049,0,1,0-1.315-.735l.013.046" fill="#dd195b"/>
      <path id="Path_17682" data-name="Path 17682" d="M21.143,25.262a1.045,1.045,0,1,0-.728-1.786l-.018.018a1.04,1.04,0,0,0,.746,1.768" fill="#dd195b"/>
      <path id="Path_17683" data-name="Path 17683" d="M14.529,47.086a1.042,1.042,0,0,0-2.068.258l.006.042a1.039,1.039,0,0,0,1.028.888.985.985,0,0,0,.153-.011,1.042,1.042,0,0,0,.881-1.177" fill="#dd195b"/>
      <path id="Path_17684" data-name="Path 17684" d="M13.22,44.1h.031a1.043,1.043,0,0,0,1.042-1.012v-.045A1.043,1.043,0,1,0,13.22,44.1" fill="#dd195b"/>
      <path id="Path_17685" data-name="Path 17685" d="M13.448,39.922a1.068,1.068,0,0,0,.185.016,1.043,1.043,0,0,0,1.025-.858l.007-.046a1.042,1.042,0,1,0-1.217.888" fill="#dd195b"/>
      <path id="Path_17686" data-name="Path 17686" d="M62.606,28.588a1.042,1.042,0,0,0,1.715-1.183l-.866.579.863-.584a1.042,1.042,0,0,0-1.725,1.169Z" fill="#dd195b"/>
      <path id="Path_17687" data-name="Path 17687" d="M67.928,39.075a1.041,1.041,0,0,0-.919,1.152l0,.045a1.042,1.042,0,0,0,1.031.9,1.064,1.064,0,0,0,.148-.011,1.049,1.049,0,0,0-.265-2.081" fill="#dd195b"/>
      <path id="Path_17688" data-name="Path 17688" d="M66.169,36.134l0,.014a1.042,1.042,0,0,0,2-.589l0-.014a1.042,1.042,0,0,0-2,.589" fill="#dd195b"/>
      <path id="Path_17689" data-name="Path 17689" d="M64.7,32.238a1.048,1.048,0,0,0,.94.585,1.042,1.042,0,0,0,.933-1.5l-.944.44.943-.442a1.042,1.042,0,1,0-1.887.885Z" fill="#dd195b"/>
      <path id="Path_17690" data-name="Path 17690" d="M59.981,25.334a1.039,1.039,0,1,0-.032-.033Z" fill="#dd195b"/>
      <path id="Path_17691" data-name="Path 17691" d="M68.266,43.426a1.049,1.049,0,0,0-.089,2.1.582.582,0,0,0,.059,0,1.043,1.043,0,0,0,1.04-.985v-.043a1.04,1.04,0,0,0-1.011-1.069" fill="#dd195b"/>
      <path id="Path_17692" data-name="Path 17692" d="M53.317,20.217l.025.013a1.027,1.027,0,0,0,.486.122,1.043,1.043,0,0,0,.494-1.961l-.5.912.5-.914a1.042,1.042,0,1,0-1,1.828" fill="#dd195b"/>
      <path id="Path_17693" data-name="Path 17693" d="M56.842,22.5l.016.013a1.042,1.042,0,0,0,1.26-1.661l-.007,0A1.042,1.042,0,1,0,56.842,22.5" fill="#dd195b"/>
      <path id="Path_17694" data-name="Path 17694" d="M76.927,59.2l-4.892-4.9a2.2,2.2,0,0,0-3.116,0l-.114.115-.321-.322a4.214,4.214,0,0,1-.912-1.365,1.069,1.069,0,0,0-.074-.193,4.206,4.206,0,0,1-.243-1.416V49.734a1.042,1.042,0,0,0,.31.1,1.066,1.066,0,0,0,.177.015,1.049,1.049,0,1,0-.494-1.973,5.874,5.874,0,0,0-1.722-3.918l-4.745-4.754a5.632,5.632,0,0,0-7.2-.647l-.5-.506V26.137a5.917,5.917,0,0,0-1.468-3.9,4.2,4.2,0,0,1-1.045-2.776v-.873h.072a2.206,2.206,0,0,0,2.2-2.2V9.45a2.206,2.206,0,0,0-2.2-2.2H31.17a2.205,2.205,0,0,0-2.2,2.2v6.932a2.205,2.205,0,0,0,2.2,2.2h.161v.457A4.183,4.183,0,0,1,30.1,22.017l-2.1,2.1a5.879,5.879,0,0,0-1.728,4.18v6.723a5.615,5.615,0,0,0,.6,2.54,5.593,5.593,0,0,0-3.656,1.644l-4.746,4.754a5.878,5.878,0,0,0-1.729,4.181V51.12a4.181,4.181,0,0,1-1.229,2.974l-.318.318,0,0-.112-.115a2.2,2.2,0,0,0-3.117,0L7.073,59.2a2.211,2.211,0,0,0,0,3.117L8.749,64a1.042,1.042,0,1,0,1.474-1.473L8.548,60.846a.123.123,0,0,1,0-.172l4.893-4.9a.117.117,0,0,1,.165,0l.851.852h0L26.071,68.26l1.3,1.3a.121.121,0,0,1,0,.171l-4.892,4.9a.117.117,0,0,1-.166,0l-9.14-9.156A1.042,1.042,0,0,0,11.7,66.951l9.14,9.156a2.2,2.2,0,0,0,3.116,0l4.892-4.9a2.208,2.208,0,0,0,0-3.116l-.053-.053.617-.619a4.191,4.191,0,0,1,2.7-1.222,5.889,5.889,0,0,0,3.794-1.72l4.494-4.5a3.569,3.569,0,0,0,2.579-2.718,3.553,3.553,0,0,0,5.078-3.215V51.565a3.551,3.551,0,0,0,5.024-3.239V41.011l3.206,3.221a1.042,1.042,0,1,0,1.477-1.47l-2.673-2.686a3.549,3.549,0,0,1,4.219.606l4.746,4.754a3.812,3.812,0,0,1,1.12,2.708V51.12a6.254,6.254,0,0,0,1.838,4.446l.323.324L65.821,57.4l-9.142,9.159-.51-.511-.016-.015-.089-.09a6.279,6.279,0,0,0-4.036-1.83A3.818,3.818,0,0,1,49.571,63L46.147,59.6a1.042,1.042,0,0,0-1.47,1.478l3.422,3.4a5.889,5.889,0,0,0,3.8,1.72,4.188,4.188,0,0,1,2.695,1.222l.05.05a1.2,1.2,0,0,0,.087.088l.48.48-.053.054a2.21,2.21,0,0,0,0,3.116l4.892,4.9a2.2,2.2,0,0,0,3.116,0L76.927,62.318a2.21,2.21,0,0,0,0-3.116M67.954,48.839l-.02,0-.19-.039ZM34.426,63a3.812,3.812,0,0,1-2.454,1.113,6.281,6.281,0,0,0-4.036,1.83l-.615.616-.553-.555-.022-.021L16.668,55.89l.323-.324a6.254,6.254,0,0,0,1.838-4.446V48.144a3.8,3.8,0,0,1,1.12-2.708l4.746-4.754a3.548,3.548,0,0,1,4.224-.6l-2.677,2.682a1.042,1.042,0,0,0,1.476,1.472l3.2-3.2V54.04A3.561,3.561,0,0,0,34.469,57.6a3.524,3.524,0,0,0,1.542-.353,3.573,3.573,0,0,0,1.767,2.4ZM50.992,48.326a1.47,1.47,0,1,1-2.94,0V36.7a1.042,1.042,0,1,0-2.084,0V54.04a1.47,1.47,0,0,1-2.92.244V36.69a1.053,1.053,0,0,0-2.1.012V54.04a3.6,3.6,0,0,0,.021.39v2.1a1.47,1.47,0,1,1-2.94,0V36.678a1.042,1.042,0,0,0-2.084,0V54.04a1.47,1.47,0,1,1-2.94,0V34.655a1.042,1.042,0,1,0-2.084,0v3.586a.981.981,0,0,0-.251.12,3.568,3.568,0,0,1-2.31-3.336V28.3a3.808,3.808,0,0,1,1.12-2.708l2.1-2.1a6.249,6.249,0,0,0,1.839-4.446v-.457H35.51a1.043,1.043,0,0,0,0-2.085H31.17a.119.119,0,0,1-.119-.119V9.45a.119.119,0,0,1,.119-.119H50.635a.12.12,0,0,1,.12.119v6.932a.119.119,0,0,1-.12.119H40.4a1.043,1.043,0,0,0,0,2.085H48.48v.873a6.293,6.293,0,0,0,1.561,4.151,3.829,3.829,0,0,1,.951,2.527Zm24.46,12.52L61.687,74.635a.117.117,0,0,1-.167,0l-4.892-4.9a.121.121,0,0,1,0-.171l.788-.789h0l7.991-8.005,4.987-5a.116.116,0,0,1,.165,0l4.893,4.9a.123.123,0,0,1,0,.172" fill="#dd195b"/>
      <path id="Path_17695" data-name="Path 17695" d="M34.469,11.8a1.112,1.112,0,1,0,1.11,1.112,1.112,1.112,0,0,0-1.11-1.112" fill="#dd195b"/>
      <path id="Path_17696" data-name="Path 17696" d="M70.817,59.308a1.112,1.112,0,1,0,1.11,1.111,1.111,1.111,0,0,0-1.11-1.111" fill="#dd195b"/>
    </g>
    <path id="Path_17697" data-name="Path 17697" d="M23.8,69.939a1.11,1.11,0,1,0-1.109,1.112A1.112,1.112,0,0,0,23.8,69.939" fill="#dd195b"/>
  </g>
  <rect id="Rectangle_5325" data-name="Rectangle 5325" width="84" height="84" transform="translate(0)" fill="none"/>
</svg>
