<svg xmlns="http://www.w3.org/2000/svg" width="84" height="84" viewBox="0 0 84 84">
  <g id="Group_17146" data-name="Group 17146" transform="translate(573.926)">
    <g id="Group_17135" data-name="Group 17135">
      <path id="Path_17661" data-name="Path 17661" d="M-520.02,46.379a1.369,1.369,0,0,1-1.369,1.369,1.369,1.369,0,0,1-1.368-1.369,1.369,1.369,0,0,1,1.368-1.368,1.369,1.369,0,0,1,1.369,1.368" fill="#54a020"/>
      <path id="Path_17662" data-name="Path 17662" d="M-559.434,46.79a4.724,4.724,0,0,1-3.543-1.6,1.363,1.363,0,0,0-1.016-.453h-1.6A1.368,1.368,0,0,0-566.96,46.1V58.422a1.365,1.365,0,0,0,1.368,1.367h11.053a7.513,7.513,0,0,0-1.747,4.792,7.536,7.536,0,0,0,7.527,7.527,7.536,7.536,0,0,0,7.527-7.527,7.51,7.51,0,0,0-1.748-4.792h22.108a7.5,7.5,0,0,0-1.748,4.792,7.535,7.535,0,0,0,7.526,7.527,7.535,7.535,0,0,0,7.527-7.527,7.5,7.5,0,0,0-1.747-4.79h11.053a1.369,1.369,0,0,0,1.369-1.369V46.1a1.369,1.369,0,0,0-1.369-1.368h-1.6a1.366,1.366,0,0,0-1.017.453,4.722,4.722,0,0,1-3.543,1.6,4.8,4.8,0,0,1-4.79-4.79,4.8,4.8,0,0,1,4.79-4.79,4.722,4.722,0,0,1,3.543,1.6,1.366,1.366,0,0,0,1.017.453h1.6a1.369,1.369,0,0,0,1.369-1.368V25.578a1.369,1.369,0,0,0-1.369-1.369h-11.053a7.5,7.5,0,0,0,1.747-4.789,7.536,7.536,0,0,0-7.527-7.528,7.535,7.535,0,0,0-7.526,7.528,7.5,7.5,0,0,0,1.747,4.789h-22.108a7.5,7.5,0,0,0,1.749-4.789,7.536,7.536,0,0,0-7.527-7.528,7.536,7.536,0,0,0-7.527,7.528,7.5,7.5,0,0,0,1.747,4.789h-11.053a1.368,1.368,0,0,0-1.368,1.369V37.9a1.368,1.368,0,0,0,1.368,1.368h1.6a1.363,1.363,0,0,0,1.016-.453,4.724,4.724,0,0,1,3.543-1.6,4.8,4.8,0,0,1,4.79,4.79,4.8,4.8,0,0,1-4.79,4.79m0-12.317a7.5,7.5,0,0,0-4.789,1.748V26.946h11.358a1.369,1.369,0,0,0,1.369-1.368v-1.6a1.366,1.366,0,0,0-.453-1.016,4.725,4.725,0,0,1-1.6-3.543,4.8,4.8,0,0,1,4.79-4.79,4.8,4.8,0,0,1,4.79,4.79,4.729,4.729,0,0,1-1.6,3.543,1.368,1.368,0,0,0-.453,1.017v1.6a1.369,1.369,0,0,0,1.368,1.368h11.359V37.9a1.369,1.369,0,0,0,1.369,1.368h1.6a1.366,1.366,0,0,0,1.016-.453,4.723,4.723,0,0,1,3.543-1.6,4.79,4.79,0,0,1,4.631,3.564,1.37,1.37,0,0,0,1.673.974,1.367,1.367,0,0,0,.974-1.672,7.532,7.532,0,0,0-7.278-5.6,7.506,7.506,0,0,0-4.79,1.748V26.946H-519.2a1.369,1.369,0,0,0,1.369-1.368v-1.6a1.366,1.366,0,0,0-.453-1.016,4.722,4.722,0,0,1-1.6-3.543,4.8,4.8,0,0,1,4.789-4.79,4.8,4.8,0,0,1,4.79,4.79,4.722,4.722,0,0,1-1.6,3.543,1.368,1.368,0,0,0-.453,1.017v1.6a1.369,1.369,0,0,0,1.369,1.368h11.359v9.275a7.5,7.5,0,0,0-4.79-1.748A7.535,7.535,0,0,0-511.946,42a7.535,7.535,0,0,0,7.527,7.526,7.5,7.5,0,0,0,4.79-1.747v9.275h-11.359a1.369,1.369,0,0,0-1.369,1.368v1.6a1.37,1.37,0,0,0,.453,1.017,4.718,4.718,0,0,1,1.6,3.543,4.8,4.8,0,0,1-4.79,4.789,4.8,4.8,0,0,1-4.789-4.789,4.719,4.719,0,0,1,1.6-3.543,1.372,1.372,0,0,0,.453-1.018v-1.6a1.369,1.369,0,0,0-1.369-1.368h-11.359V47.781a7.489,7.489,0,0,0,2.859,1.491,1.366,1.366,0,0,0,1.676-.966,1.368,1.368,0,0,0-.966-1.677,4.82,4.82,0,0,1-2.322-1.439,1.368,1.368,0,0,0-1.017-.453h-1.6a1.368,1.368,0,0,0-1.369,1.368V57.054h-11.359a1.368,1.368,0,0,0-1.368,1.368v1.6a1.372,1.372,0,0,0,.453,1.018,4.726,4.726,0,0,1,1.6,3.543,4.8,4.8,0,0,1-4.79,4.789,4.8,4.8,0,0,1-4.79-4.789,4.722,4.722,0,0,1,1.6-3.543,1.372,1.372,0,0,0,.453-1.018v-1.6a1.369,1.369,0,0,0-1.369-1.368h-11.358V47.779a7.5,7.5,0,0,0,4.789,1.747A7.534,7.534,0,0,0-551.907,42a7.535,7.535,0,0,0-7.527-7.527" fill="#54a020"/>
    </g>
    <rect id="Rectangle_5321" data-name="Rectangle 5321" width="84" height="84" transform="translate(-573.926)" fill="none"/>
  </g>
</svg>
