<svg xmlns="http://www.w3.org/2000/svg" width="84" height="84" viewBox="0 0 84 84">
  <g id="Group_17148" data-name="Group 17148" transform="translate(-211 -4196)">
    <g id="Group_17133" data-name="Group 17133" transform="translate(906.064 4196)">
      <g id="Group_17132" data-name="Group 17132">
        <path id="Path_17660" data-name="Path 17660" d="M-626.272,62.032a30.09,30.09,0,0,0,9.346-21.808,30.214,30.214,0,0,0-30.17-30.18,30.216,30.216,0,0,0-30.18,30.18,29.991,29.991,0,0,0,2.122,11.111l-.3.338c-1.148,1.313-2.139,2.446-4.169,2.446s-3.021-1.133-4.17-2.448c-1.2-1.374-2.565-2.93-5.24-2.93h-.171v1.426h.171c2.031,0,3.021,1.133,4.169,2.445h0c1.2,1.374,2.566,2.932,5.241,2.932,2.564,0,3.922-1.431,5.091-2.76a30.178,30.178,0,0,0,3.116,5.282,7.255,7.255,0,0,0-4.039,2.814c-1.148,1.312-2.139,2.444-4.168,2.444s-3.02-1.133-4.168-2.446c-1.2-1.375-2.565-2.932-5.242-2.932h-.171v1.425h.171c2.03,0,3.021,1.133,4.169,2.446,1.2,1.375,2.565,2.933,5.241,2.933s4.039-1.558,5.242-2.933c1.112-1.272,2.081-2.373,3.986-2.44a30.272,30.272,0,0,0,14.633,9.746c-.31.316-.6.644-.876.962-1.147,1.312-2.138,2.445-4.166,2.445s-3.02-1.134-4.168-2.446c-1.2-1.375-2.565-2.933-5.241-2.933s-4.038,1.558-5.241,2.934c-1.149,1.312-2.14,2.445-4.169,2.445s-3.02-1.134-4.168-2.446c-1.2-1.375-2.566-2.933-5.242-2.933h-.171v1.425h.171c2.03,0,3.021,1.134,4.169,2.446h0c1.2,1.374,2.565,2.932,5.241,2.932s4.039-1.558,5.242-2.933c1.147-1.312,2.139-2.446,4.168-2.446s3.02,1.134,4.168,2.446c1.2,1.375,2.565,2.933,5.241,2.933s4.038-1.558,5.241-2.933a12.591,12.591,0,0,1,1.421-1.461,30.139,30.139,0,0,0,6.344.823c.188.2.376.419.568.638,1.2,1.375,2.564,2.933,5.239,2.933s4.037-1.557,5.241-2.934c1.148-1.312,2.139-2.445,4.166-2.445s3.018,1.133,4.168,2.447c1.2,1.374,2.564,2.932,5.239,2.932h.17V72.531h-.17c-2.028,0-3.019-1.133-4.167-2.446-1.2-1.375-2.564-2.933-5.24-2.933a6.041,6.041,0,0,0-1.137.107,30.292,30.292,0,0,0,6.394-4.267,5.648,5.648,0,0,0,4.15,1.759h.17V63.325h-.17a4.2,4.2,0,0,1-3.1-1.293m-4.6-40.435a.348.348,0,0,0,.242.106.414.414,0,0,0,.169-.033.424.424,0,0,0,.228-.542c-.123-.306-.308-.628-.478-.961a.25.25,0,0,0,.064-.006.14.14,0,0,0,.075-.025c.581,1.122.855,1.662.992,2-.009,0-.009,0-.017-.008a.392.392,0,0,0-.347,0,.409.409,0,0,0-.233.258c-.122-.114-.306-.308-.606-.639a.376.376,0,0,0-.12-.1c.014-.017.014-.032.031-.057M-663.55,35.96a.535.535,0,0,0,.145-.064,5.656,5.656,0,0,1,.864-.453,6.186,6.186,0,0,0,.822-.419,6.4,6.4,0,0,1,1.042.136.409.409,0,0,0,.388-.145,19.5,19.5,0,0,1,1.509-1.752c1.939-.856,1.994-.872,7.186-2.292a.407.407,0,0,0,.3-.411.4.4,0,0,0-.322-.389.871.871,0,0,1-.42-.161l.381-.411a.408.408,0,0,0,.095-.4v-.016c.2-.008.421-.008.655-.008a.336.336,0,0,0,.153.2,3.861,3.861,0,0,1,.791.792.427.427,0,0,0,.314.25h.073a.41.41,0,0,0,.308-.128l.614-.694a.42.42,0,0,0,.089-.412.45.45,0,0,0-.325-.275l-.177-.033c.338-.241.824-.653,1.688-1.389a.406.406,0,0,0,.119-.467.424.424,0,0,0-.41-.258,3.985,3.985,0,0,0-.712.1.414.414,0,0,0-.014-.378l-.333-.614a3.466,3.466,0,0,1,.284-.6.41.41,0,0,0,.032-.323.387.387,0,0,0-.21-.242,2.488,2.488,0,0,0-1.728-.219c-.751-1.267-.856-1.381-1.453-1.492a.429.429,0,0,0-.339.088.433.433,0,0,0-.153.307c-.009.121-.009.258-.017.394l-.436-.039a.415.415,0,0,0-.355.136,24.559,24.559,0,0,1-1.784,1.809c-.453.436-.92.889-1.365,1.358a9.642,9.642,0,0,1-.6-2.512l1.816-.936c1.678-1.058,2.373-1.494,2.762-1.494a1.474,1.474,0,0,1,.539.169.425.425,0,0,0-.089.242.422.422,0,0,0,.38.4c.306.025.639.05.97.075l.364.694a.4.4,0,0,0,.361.217.4.4,0,0,0,.372-.225c.509-1.011.791-1.058.848-1.058.161,0,.427.275.525.372a.429.429,0,0,0,.3.119.478.478,0,0,0,.3-.128,2.074,2.074,0,0,0,.606-1.114l.008-.138a.425.425,0,0,0-.136-.37.465.465,0,0,0-.236-.089,3.55,3.55,0,0,1,.008-.428.421.421,0,0,0-.169-.363c-.315-.22-.306-.284-.3-.389a.419.419,0,0,0-.372-.428,2.125,2.125,0,0,1-.484-.177,1.939,1.939,0,0,0-.532-.17l-.114-.242a.388.388,0,0,0-.259-.225.455.455,0,0,0-.339.047l-.024-.025a.432.432,0,0,0-.445-.095c-.233.081-.378.137-.492.184-.008-.12,0-.233-.008-.37a.381.381,0,0,0-.113-.235c.041-.031.082-.048.121-.081a.433.433,0,0,0,.139-.281c.006-.147.014-.333.022-.469a.452.452,0,0,0-.2-.355h-.008c.064-.04.136-.1.266-.2.234-.178.251-.308.331-.776a.39.39,0,0,0-.2-.388.458.458,0,0,0-.475.008,7.98,7.98,0,0,1-1.13.631.409.409,0,0,0-.259.492.4.4,0,0,0,.459.305c.17-.03.283-.047.372-.063a.164.164,0,0,0,.064.049c-.169.089-.306.153-.306.153a.522.522,0,0,0-.2.234,1.394,1.394,0,0,1-.089.144.406.406,0,0,0-.281-.1.426.426,0,0,0-.008-.339.45.45,0,0,0-.356-.267,1.93,1.93,0,0,0-.308-.016h-.1a.4.4,0,0,0-.437-.089,5.2,5.2,0,0,0-.888.395.4.4,0,0,0-.178.453l.033.121a.4.4,0,0,0,.289.3.326.326,0,0,0,.059.139c-.059.014-.114.031-.186.055l-.114-.1a.809.809,0,0,0-.364-.678.387.387,0,0,0-.484-.041.425.425,0,0,0-.2.316,1.51,1.51,0,0,1-.081.128.976.976,0,0,0-.25.566,1.121,1.121,0,0,0,.025.307.383.383,0,0,1,.016.13l-.008.014a3.31,3.31,0,0,0-.486.155.444.444,0,0,0-.225.242.389.389,0,0,0,.025.331,1.268,1.268,0,0,0,.45.475l-.192.089c-.041-.023-.072-.031-.106-.048-.072-.016-.161-.041-.241-.056l-.042-.307a.429.429,0,0,0-.216-.315.459.459,0,0,0-.228-.049,1.106,1.106,0,0,0-.128-.056c-.041-.008-.072-.024-.114-.033l.05-.112a.439.439,0,0,0-.016-.33.42.42,0,0,0-.242-.219c-.236-.073-.453-.153-.664-.234a.437.437,0,0,0-.306.008,2.166,2.166,0,0,1-.477.153l.186-.266a.427.427,0,0,0,.041-.381.416.416,0,0,0-.283-.258,2.066,2.066,0,0,0-.945-.056.482.482,0,0,0-.041-.114.435.435,0,0,0,.025-.4.566.566,0,0,0-.144-.169.4.4,0,0,0-.081-.355.413.413,0,0,0-.525-.106,10.236,10.236,0,0,1-.954.494l-.048-.025a26.968,26.968,0,0,1,14.565-4.214A27.111,27.111,0,0,1-633.17,16.72a.3.3,0,0,1-.13.049,6.065,6.065,0,0,1-1.137-.355.422.422,0,0,0-.421.089,2.958,2.958,0,0,1-.509.363.434.434,0,0,0-.192.29.452.452,0,0,0,.1.347,10.011,10.011,0,0,1,1.688,2.294c-.161.847.073,1.042,1.4,2.123a.471.471,0,0,0,.541-.017l.153-.111a.461.461,0,0,0,.2.047h.033a.7.7,0,0,0-.042.137c-.055.4.009.516.589,1.228a.276.276,0,0,1-.047.057.4.4,0,0,0-.161.323l.008.3a3.8,3.8,0,0,1-.808-.378.428.428,0,0,1-.122-.113l-.686-.953a.416.416,0,0,0-.548-.106,4.032,4.032,0,0,0-.509.405.409.409,0,0,0-.113.387,1.342,1.342,0,0,0,.306.606,1.884,1.884,0,0,0-.717.944.589.589,0,0,0,.055.452l.4-.138-.322.267a.943.943,0,0,0,.08.155l.4-.13-.324.266s.074.145.08.145l.083.147.153-.05c0,.041-.008.089-.008.13l-.073.056.073.153.039.072a.416.416,0,0,0,.364.22.359.359,0,0,0,.1-.009.421.421,0,0,0,.322-.38c.025-.428.106-.451.186-.475a.462.462,0,0,0,.178-.17l.008.039a.419.419,0,0,0,.129.292c.066.055.138.13.211.2a.456.456,0,0,0,.063.306.42.42,0,0,0,.292.178c.209.025.233.025,1.073,1.308-.306.048-.823.1-1.768.153a.408.408,0,0,0-.33.2.408.408,0,0,0-.017.386c.178.381.38.752.581,1.13.153.268.3.534.436.817a.408.408,0,0,0-.072.4l.21.6c.007.008.065.178.073.186a.4.4,0,0,0,.209.242.406.406,0,0,0,.316.016,29.218,29.218,0,0,0,2.842-1.075.414.414,0,0,0,.217-.539c-.153-.347-.306-.695-.461-1.034a2.646,2.646,0,0,0,.381-1.114,1.879,1.879,0,0,1,.218-.761c.081-.03.153-.055.234-.088.945.961,1.267,1.26,1.783,1.26a1.668,1.668,0,0,0,.348-.049c.1.147.169.235.388.508a.391.391,0,0,0,.54.081.426.426,0,0,0,.139-.548c-.067-.114-.123-.227-.187-.347.267.217.573.467.936.759a.422.422,0,0,0,.4.064.4.4,0,0,0,.258-.331,1.28,1.28,0,0,0,.016-.306c.017.008.026.017.042.023a.4.4,0,0,0,.451.041.321.321,0,0,0,.066-.041c.217.461.428.93.62,1.4-.234.1-.62.258-1.276.525a.413.413,0,0,0-.25.411,1.4,1.4,0,0,1-.055.591,8.578,8.578,0,0,1-1.809-1.5.416.416,0,0,0-.508-.064,16.366,16.366,0,0,1-3.926,1.662.409.409,0,0,0-.289.291.379.379,0,0,0,.008.25.518.518,0,0,1-.066.025l.017.42-.178-.381a.451.451,0,0,0-.3.267,28.907,28.907,0,0,1-3.8,7.145.424.424,0,0,0,.072.558l.614.508c.369,2.7.362,2.712-.025,3.562a.4.4,0,0,0,.1.483c3.8,3.384,3.8,3.384,4.7,3.651a.411.411,0,0,0,.461-.178l.428-.678c1.081-.252,2.115-.542,3.067-.85a7.5,7.5,0,0,1,1.77-.442c.2,0,.258.055.289.087.372.422.2,2.583-.006,5.25-.164.588-.356,1.186-.55,1.75a30.868,30.868,0,0,0-1.711,3.231l-.065.161A27.477,27.477,0,0,1-647.1,67.561a27.592,27.592,0,0,1-3.553-.234.335.335,0,0,0-.1-.178l-.137-.169a.349.349,0,0,0-.138-.113l-.475-.234c-.3-.453-.3-.47-.228-.792v-.017h.325a.472.472,0,0,0,.362-.208.436.436,0,0,0,0-.42.19.19,0,0,0-.031-.041.564.564,0,0,1,.12-.04,4.569,4.569,0,0,0,1.114-.485c.1.033.194.055.274.081a.407.407,0,0,0,.356-.073l.475-.355a.418.418,0,0,0,.172-.323,5.1,5.1,0,0,0-.131-1.8c2.995-1.825,3.384-2.108,2.859-3.417,1.8-1.961,1.873-2.081,1.953-3.478.009-.162.017-.364.025-.517a.426.426,0,0,0-.4-.428c-.176,0-4.367-.2-6.887-2.608a.386.386,0,0,0-.322-.114,3.424,3.424,0,0,0-1.9.72l-.153-.106.315-.331a.4.4,0,0,0,.074-.467c-1.066-2.1-1.38-2.325-2.43-2.464-1.269-.169-1.269-.169-1.648-1.4a.471.471,0,0,0-.1-.169l-.364-.37a10.119,10.119,0,0,0-3.689-2.05.47.47,0,0,0-.194-.034l-.726.072c-.678-.4-1-.6-1.647-1.008a.416.416,0,0,0-.509.047c-.427.412-.613.493-.792.493a5.711,5.711,0,0,1-2.05-1.114,4.914,4.914,0,0,0-1.769-1.912l-.1-.275c.04-.4.089-.784.146-1.172a2.685,2.685,0,0,0,.669-1.315.384.384,0,0,0-.056-.338.388.388,0,0,0-.3-.178,1.859,1.859,0,0,0-1.639.806c-.1-.048-.192-.089-.281-.136a7.85,7.85,0,0,1-.163-2.463c.381-.21.525-.452,1.237-1.794a2.817,2.817,0,0,1,2.2.664.42.42,0,0,0,.436.023c.112-.065.242-.137.378-.217l.106.339a.416.416,0,0,0,.364.291,2.236,2.236,0,0,0,.45,0,11.187,11.187,0,0,0,.05,1.461,9.378,9.378,0,0,1,.047,1.331.421.421,0,0,0,.236.389.383.383,0,0,0,.208.039,1.435,1.435,0,0,0-.241.065,1.072,1.072,0,0,0-1-.718,7,7,0,0,1-.922-.08.413.413,0,0,0-.411.186.427.427,0,0,0,.009.45,2.894,2.894,0,0,0,1.792,1.115h.008c.436.743.6.807,1.672,1.065a.351.351,0,0,0,.1.009.375.375,0,0,0,.273-.106l.291-.25a.417.417,0,0,0,.137-.38.393.393,0,0,0-.234-.306,2.314,2.314,0,0,1-.347-.4c-.306-.414-.517-.695-.919-.695a.237.237,0,0,0-.051.009.3.3,0,0,0,.09-.051l1.316-1.1a.422.422,0,0,0,.106-.492l-.348-.76a4.6,4.6,0,0,1,.2-.565m3.834-6.815a.469.469,0,0,0-.445-.289l-.347-.008h-.161a.394.394,0,0,0,.033-.17.409.409,0,0,0-.2-.355,2.74,2.74,0,0,1-.283-.211c-.055-.039-.111-.089-.177-.136.469-.356.614-.267,1.333-.016a3.948,3.948,0,0,0,.815,1.775c-.154.1-.307.211-.451.316a3.949,3.949,0,0,1-.986.573,2.466,2.466,0,0,0,.219-.654l.525-.363a.4.4,0,0,0,.12-.462m5.078-8.72a4.087,4.087,0,0,0,1.622-.864l.17-.127a1.011,1.011,0,0,0,.089-.131c-.758,1.389-.831,1.406-1.267,1.406h-.153a.413.413,0,0,0-.364-.275.384.384,0,0,0-.1-.009m1.931-1.339a.146.146,0,0,0,.055.008.6.6,0,0,1-.064.129.361.361,0,0,0,.009-.137m1.072.784.008.056a.421.421,0,0,0,.364.347h.048a.416.416,0,0,0,.147-.04.34.34,0,0,1,.047.089h-.008a5.773,5.773,0,0,1-.628.267,3.231,3.231,0,0,1-.025-.711c.007-.127.013-.253.013-.378.006.111.016.233.034.37m-.036-.4a2.328,2.328,0,0,0-.028-.355.568.568,0,0,0-.339-.372c-.041-.017-.081,0-.122,0,.033-.048.075-.1.114-.145a.372.372,0,0,0,.242.137c.016,0,.105.008.122.008s.055-.017.08-.017a2.2,2.2,0,0,0-.069.744m1.409,1.631-.193-.541c-.008-.025-.033-.025-.041-.042h.033a.361.361,0,0,1,.184-.039.916.916,0,0,1,.574.209,10.976,10.976,0,0,0-.888,1.244c-.089.009-.17.033-.25.041.161-.146.33-.3.469-.43a.4.4,0,0,0,.112-.442m17.729,3.7-.136-.3c.047.033.072.064.13.106Zm-32.842-4.878a.374.374,0,0,0,.274-.064.638.638,0,0,1,.137-.064.448.448,0,0,0,.13.234.411.411,0,0,0,.209.1,1.279,1.279,0,0,1-.106.121.43.43,0,0,0-.088.379.41.41,0,0,0,.266.283l.017.008c-3.731,3.406-5.442,4.965-6.337,5.845a27.4,27.4,0,0,1,5.5-6.839m-8.479,14.718a.4.4,0,0,0,.25.089h.325c-.147.591-.275,1.114-.388,1.648a.634.634,0,0,0,0,.185c.08.784.194,1.851.33,2.64a.382.382,0,0,0,.186.283,17.487,17.487,0,0,1,6.095,7.573c-1.145,1.881-1.55,3.409-1.219,4.659a4.494,4.494,0,0,0,2.495,2.656c.088.372.194.735.3,1.1a.617.617,0,0,0,.1.17,14.868,14.868,0,0,0,4.545,3.181,11,11,0,0,0,5.66,7.5.254.254,0,0,1,.024.023,27.231,27.231,0,0,1-19.279-26.117,26.965,26.965,0,0,1,.58-5.589m36.031,35.45c-1.148,1.312-2.139,2.446-4.167,2.446-1.881,0-2.869-.975-3.917-2.162a29.954,29.954,0,0,0,9.914-2.094,12.346,12.346,0,0,0-1.83,1.81" fill="#00a2e1"/>
      </g>
      <rect id="Rectangle_5320" data-name="Rectangle 5320" width="84" height="84" transform="translate(-695.064)" fill="none"/>
    </g>
  </g>
</svg>
