<svg xmlns="http://www.w3.org/2000/svg" width="84" height="84" viewBox="0 0 84 84">
  <g id="Group_17150" data-name="Group 17150" transform="translate(308.212)">
    <path id="Path_17666" data-name="Path 17666" d="M-238.286,53.3l-6.829-1.138V49.681a8.9,8.9,0,0,0,4.15-5.462h.292a4.446,4.446,0,0,0,4.442-4.441,4.434,4.434,0,0,0-3.276-4.266,6.656,6.656,0,0,0,3.276-5.726,6.668,6.668,0,0,0-6.663-6.662,4.418,4.418,0,0,0-3.19,1.364,8.546,8.546,0,0,0-4.626-1.364h-1.5a8.569,8.569,0,0,0-7.018,3.636l-.9.6a6.158,6.158,0,0,0-2.749,5.134,6.175,6.175,0,0,0,.185,1.5l.768,3.072a4.4,4.4,0,0,0-.953,2.716,4.447,4.447,0,0,0,4.442,4.442h.291A8.908,8.908,0,0,0-254,49.682v2.483l-6.828,1.136a7.749,7.749,0,0,0-6.5,7.667V76.422h35.532V60.968a7.749,7.749,0,0,0-6.5-7.667m-15.084,1.01,2.409,3.213-2.2,2.754-.592-5.9Zm3.614,11.007h.4l1.777,8.883h-3.955Zm.558-2.221h-.717l-.887-2.217,1.246-1.558,1.245,1.557Zm1.046-5.574,2.41-3.213.384.064-.591,5.9Zm9.7-17.744A2.224,2.224,0,0,1-240.673,42V37.558a2.224,2.224,0,0,1,2.221,2.221m-6.663-12.214a2.224,2.224,0,0,1,2.221-2.221,4.447,4.447,0,0,1,4.442,4.442,4.447,4.447,0,0,1-4.442,4.441h-12.214a1.111,1.111,0,0,1-1.11-1.11h-2.221v2.221a4.408,4.408,0,0,0-1.558.3l-.545-2.181a3.984,3.984,0,0,1-.118-.959,3.942,3.942,0,0,1,1.758-3.287l1.263-.842.123-.185a6.356,6.356,0,0,1,5.3-2.837h1.5a6.358,6.358,0,0,1,3.534,1.069l.01.007a4.482,4.482,0,0,0-.167,1.146M-260.66,39.779a2.224,2.224,0,0,1,2.221-2.221V42a2.223,2.223,0,0,1-2.221-2.221M-256.218,42V36.243a3.273,3.273,0,0,0,1.11.205h12.214V42a6.669,6.669,0,0,1-6.662,6.662A6.668,6.668,0,0,1-256.218,42m6.662,8.883a8.857,8.857,0,0,0,2.221-.292v2.144l-2.221,2.96-2.221-2.96V50.591a8.845,8.845,0,0,0,2.221.292M-265.1,60.968a5.537,5.537,0,0,1,4.639-5.477l4.513-.751,1.118,11.177,2.435-3.044.577,1.441L-253.8,74.2h-4.641V61.987h-2.221V74.2H-265.1ZM-234.011,74.2h-4.441V61.987h-2.221V74.2h-4.641l-1.978-9.888.576-1.442,2.435,3.044,1.118-11.177,4.513.752a5.539,5.539,0,0,1,4.639,5.478Zm-64.4-10.593V76.422h24.428V73.629a23.684,23.684,0,0,0-6.662-16.511v-2.9h1.535a4.029,4.029,0,0,0,1.8-.424A4,4,0,0,0-275.1,50.2V47.242l3.331-1.111v-.8c0-3.239-1.9-9.193-2.232-10.2a10,10,0,0,0-9.982-9.785H-286.2a10,10,0,0,0-9.993,9.994v3.917a20.013,20.013,0,0,1-2.105,8.91,22.283,22.283,0,0,0-2.337,9.9v.586a6.643,6.643,0,0,0,2.221,4.952m2.221,8.372h6.662V74.2h-6.662ZM-276.2,74.2h-11.1V65.318h-2.221V69.76h-6.662V64.929a6.645,6.645,0,0,0,2.22.389,6.669,6.669,0,0,0,6.663-6.662h5.085A21.486,21.486,0,0,1-276.2,73.629Zm-1.111-28.56V50.2a1.784,1.784,0,0,1-.994,1.606,1.784,1.784,0,0,1-.8.191h-5.977v2.22h2.221v2.221h-4.441V47.976l-1.318-.658a1.628,1.628,0,0,1-.9-1.463,1.636,1.636,0,0,1,1.635-1.634h1.549l.911-6.369a1.641,1.641,0,0,1,1.618-1.4h7.912a46.589,46.589,0,0,1,1.884,8.094Zm-21.1,12.429a20.009,20.009,0,0,1,2.1-8.91,22.3,22.3,0,0,0,2.337-9.9V35.338a7.782,7.782,0,0,1,7.773-7.773h2.221a7.779,7.779,0,0,1,7.684,6.662h-7.525a3.878,3.878,0,0,0-3.817,3.311l-.639,4.481a3.86,3.86,0,0,0-3.476,3.836,3.835,3.835,0,0,0,2.132,3.449l.089.044v9.308a4.446,4.446,0,0,1-4.442,4.441,4.446,4.446,0,0,1-4.441-4.441Zm19.986-17.181A1.111,1.111,0,0,1-279.537,42a1.111,1.111,0,0,1-1.11-1.111,1.111,1.111,0,0,1,1.11-1.11,1.111,1.111,0,0,1,1.11,1.11m15.546-26.648h-15.545V12.02h15.545Zm-4.441,4.441h-11.105V16.461h11.105Zm-3.791,4.442,3.655,3.655a2.7,2.7,0,0,0,1.9.786,2.683,2.683,0,0,0,2.681-2.68V23.124h.185a4.262,4.262,0,0,0,4.257-4.258V12.02a4.447,4.447,0,0,0-4.442-4.442h-15.546a4.447,4.447,0,0,0-4.441,4.442v6.846a4.263,4.263,0,0,0,4.258,4.258Zm-9.534-4.258V12.02a2.223,2.223,0,0,1,2.22-2.221h15.546a2.223,2.223,0,0,1,2.221,2.221v6.846A2.039,2.039,0,0,1-262.7,20.9H-265.1v3.982a.478.478,0,0,1-.785.325l-4.307-4.307h-8.416a2.039,2.039,0,0,1-2.037-2.037" fill="#4a4793"/>
    <rect id="Rectangle_5323" data-name="Rectangle 5323" width="84" height="84" transform="translate(-308.212)" fill="none"/>
  </g>
</svg>
