<svg xmlns="http://www.w3.org/2000/svg" width="84" height="84" viewBox="0 0 84 84">
  <g id="Group_17149" data-name="Group 17149" transform="translate(447.184)">
    <g id="Group_17137" data-name="Group 17137">
      <path id="Path_17663" data-name="Path 17663" d="M-380.17,31.77l-3.668-4.792.784-5.984a1.528,1.528,0,0,0-.93-1.61l-5.577-2.309-2.308-5.575a1.528,1.528,0,0,0-1.61-.931l-5.984.784-4.792-3.668a1.526,1.526,0,0,0-1.857,0l-4.792,3.668-5.985-.784a1.527,1.527,0,0,0-1.609.931l-2.309,5.575-5.576,2.309a1.527,1.527,0,0,0-.93,1.61l.783,5.984L-430.2,31.77a1.526,1.526,0,0,0,0,1.857l3.667,4.792-.783,5.984a1.528,1.528,0,0,0,.93,1.61l5.576,2.308L-418.5,53.9a1.524,1.524,0,0,0,1.154.921V75.1a1.529,1.529,0,0,0,.791,1.339,1.529,1.529,0,0,0,1.554-.05l9.815-6.225,9.816,6.225a1.517,1.517,0,0,0,.818.238,1.529,1.529,0,0,0,.736-.188,1.529,1.529,0,0,0,.791-1.339V54.817a1.525,1.525,0,0,0,1.154-.919l2.309-5.577,5.576-2.308a1.527,1.527,0,0,0,.93-1.609l-.784-5.985,3.668-4.792a1.529,1.529,0,0,0,0-1.857m-15.907,40.556-8.288-5.257a1.526,1.526,0,0,0-1.636,0l-8.289,5.257V54.488l3.386-.444,4.792,3.668a1.521,1.521,0,0,0,.928.315,1.523,1.523,0,0,0,.928-.315l4.793-3.668,3.386.444Zm9.431-35.263a1.523,1.523,0,0,0-.3,1.126l.714,5.45-5.079,2.1a1.527,1.527,0,0,0-.827.827l-2.1,5.078-5.45-.713a1.527,1.527,0,0,0-1.126.3l-4.365,3.34-4.364-3.34a1.529,1.529,0,0,0-.929-.314,1.462,1.462,0,0,0-.2.012l-5.449.713-2.1-5.078a1.53,1.53,0,0,0-.827-.827l-5.079-2.1.713-5.45a1.527,1.527,0,0,0-.3-1.126l-3.341-4.365,3.341-4.365a1.53,1.53,0,0,0,.3-1.126l-.713-5.449,5.079-2.1a1.537,1.537,0,0,0,.827-.827l2.1-5.079,5.449.714a1.528,1.528,0,0,0,1.127-.3l4.364-3.341,4.365,3.341a1.53,1.53,0,0,0,1.127.3l5.449-.714,2.1,5.079a1.534,1.534,0,0,0,.827.827l5.079,2.1-.714,5.449a1.525,1.525,0,0,0,.3,1.127L-383.3,32.7Z" fill="#ffa900"/>
      <path id="Path_17664" data-name="Path 17664" d="M-414.513,22.845a1.522,1.522,0,0,0,.968-.347,13.212,13.212,0,0,1,8.361-2.988,1.528,1.528,0,0,0,1.528-1.528,1.528,1.528,0,0,0-1.528-1.527,16.281,16.281,0,0,0-10.3,3.681,1.528,1.528,0,0,0-.211,2.151,1.527,1.527,0,0,0,1.181.558" fill="#ffa900"/>
      <path id="Path_17665" data-name="Path 17665" d="M-399.737,17.391a1.527,1.527,0,0,0-1.951.927,1.526,1.526,0,0,0,.927,1.95A13.219,13.219,0,0,1-391.995,32.7a13.2,13.2,0,0,1-13.188,13.188A13.2,13.2,0,0,1-418.372,32.7a13.142,13.142,0,0,1,2.163-7.243,1.526,1.526,0,0,0-.435-2.115,1.528,1.528,0,0,0-2.116.437,16.173,16.173,0,0,0-2.666,8.921,16.261,16.261,0,0,0,16.243,16.243A16.262,16.262,0,0,0-388.94,32.7a16.279,16.279,0,0,0-10.8-15.308" fill="#ffa900"/>
    </g>
    <rect id="Rectangle_5322" data-name="Rectangle 5322" width="84" height="84" transform="translate(-447.184)" fill="none"/>
  </g>
</svg>
