<svg id="Group_22244" data-name="Group 22244" xmlns="http://www.w3.org/2000/svg" width="70" height="70" viewBox="0 0 70 70">
  <rect id="Rectangle_6804" data-name="Rectangle 6804" width="70" height="70" fill="none"/>
  <g id="Group_22246" data-name="Group 22246">
    <g id="Group_22245" data-name="Group 22245">
      <g id="Group_22244-2" data-name="Group 22244">
        <line id="Line_4" data-name="Line 4" x2="8.375" transform="translate(41.677 62.5)" fill="none" stroke="#19a301" stroke-linecap="round" stroke-linejoin="round" stroke-width="2.4"/>
        <line id="Line_5" data-name="Line 5" x2="0.679" transform="translate(58.405 62.5)" fill="none" stroke="#82d400" stroke-linecap="round" stroke-linejoin="round" stroke-width="2.4"/>
        <line id="Line_6" data-name="Line 6" x2="8.298" transform="translate(10.916 62.5)" fill="none" stroke="#19a301" stroke-linecap="round" stroke-linejoin="round" stroke-width="2.4"/>
        <line id="Line_7" data-name="Line 7" x2="14.628" transform="translate(18.674 62.5)" fill="none" stroke="#82d400" stroke-linecap="round" stroke-linejoin="round" stroke-width="2.4"/>
      </g>
      <rect id="Rectangle_6805" data-name="Rectangle 6805" width="70" height="15" transform="translate(0 55)" fill="none"/>
    </g>
  </g>
  <g id="Group_22249" data-name="Group 22249">
    <circle id="Ellipse_2" data-name="Ellipse 2" cx="5.795" cy="5.795" r="5.795" transform="translate(9.922 28.935)" fill="none" stroke="#19a301" stroke-linecap="round" stroke-linejoin="round" stroke-width="1.5"/>
    <line id="Line_3013" data-name="Line 3013" y2="3.905" transform="translate(25.226 22.172)" fill="none" stroke="#fff" stroke-linecap="round" stroke-linejoin="round" stroke-width="1.5"/>
    <line id="Line_3014" data-name="Line 3014" y2="3.905" transform="translate(30.939 22.172)" fill="none" stroke="#fff" stroke-linecap="round" stroke-linejoin="round" stroke-width="1.5"/>
    <path id="Path_28435" data-name="Path 28435" d="M30.937,26.088l7.66,3.441a5.068,5.068,0,0,1,2.586,2.654" fill="none" stroke="#fff" stroke-linecap="round" stroke-linejoin="round" stroke-width="1.5"/>
    <path id="Path_28436" data-name="Path 28436" d="M14.584,43.735v5.4H33.09" fill="none" stroke="#fff" stroke-linecap="round" stroke-linejoin="round" stroke-width="1.5"/>
    <line id="Line_3015" data-name="Line 3015" x1="3.752" y2="1.687" transform="translate(21.474 26.085)" fill="none" stroke="#fff" stroke-linecap="round" stroke-linejoin="round" stroke-width="1.5"/>
    <path id="Path_28437" data-name="Path 28437" d="M28.082,29.316" fill="none" stroke="#fff" stroke-linecap="round" stroke-linejoin="round" stroke-width="1.5"/>
    <line id="Line_3016" data-name="Line 3016" x1="2.857" y1="3.24" transform="translate(25.226 26.077)" fill="none" stroke="#fff" stroke-linecap="round" stroke-linejoin="round" stroke-width="1.5"/>
    <path id="Path_28438" data-name="Path 28438" d="M28.082,29.316" fill="none" stroke="#fff" stroke-linecap="round" stroke-linejoin="round" stroke-width="1.5"/>
    <line id="Line_3017" data-name="Line 3017" y1="3.24" x2="2.857" transform="translate(28.082 26.077)" fill="none" stroke="#fff" stroke-linecap="round" stroke-linejoin="round" stroke-width="1.5"/>
    <path id="Path_28439" data-name="Path 28439" d="M33.444,17.611a5.385,5.385,0,0,1-10.769,0" fill="none" stroke="#fff" stroke-linecap="round" stroke-linejoin="round" stroke-width="1.5"/>
    <path id="Path_28440" data-name="Path 28440" d="M22.675,17.611V13.893a5.385,5.385,0,1,1,10.769,0v3.718" fill="none" stroke="#fff" stroke-linecap="round" stroke-linejoin="round" stroke-width="1.5"/>
    <path id="Path_28441" data-name="Path 28441" d="M46.584,34.269" fill="none" stroke="#fff" stroke-linecap="round" stroke-linejoin="round" stroke-width="1.5"/>
    <path id="Path_28442" data-name="Path 28442" d="M46.584,34.269" fill="none" stroke="#fff" stroke-linecap="round" stroke-linejoin="round" stroke-width="1.5"/>
    <g id="Group_22247" data-name="Group 22247">
      <line id="Line_3018" data-name="Line 3018" y2="3.905" transform="translate(43.727 27.124)" fill="none" stroke="#fff" stroke-linecap="round" stroke-linejoin="round" stroke-width="1.5"/>
      <line id="Line_3019" data-name="Line 3019" y2="3.905" transform="translate(49.44 27.124)" fill="none" stroke="#fff" stroke-linecap="round" stroke-linejoin="round" stroke-width="1.5"/>
      <path id="Path_28443" data-name="Path 28443" d="M43.727,31.038l-7.655,3.441a5.056,5.056,0,0,0-2.983,4.612v15H60.078v-15A5.055,5.055,0,0,0,57.1,34.479l-7.654-3.441" fill="none" stroke="#fff" stroke-linecap="round" stroke-linejoin="round" stroke-width="1.5"/>
      <line id="Line_3020" data-name="Line 3020" x1="2.857" y1="3.24" transform="translate(43.727 31.029)" fill="none" stroke="#fff" stroke-linecap="round" stroke-linejoin="round" stroke-width="1.5"/>
      <line id="Line_3021" data-name="Line 3021" y1="3.24" x2="2.857" transform="translate(46.584 31.029)" fill="none" stroke="#fff" stroke-linecap="round" stroke-linejoin="round" stroke-width="1.5"/>
      <path id="Path_28444" data-name="Path 28444" d="M51.946,22.563a5.385,5.385,0,1,1-10.77,0" fill="none" stroke="#fff" stroke-linecap="round" stroke-linejoin="round" stroke-width="1.5"/>
      <path id="Path_28445" data-name="Path 28445" d="M41.176,22.563V18.845a5.385,5.385,0,0,1,10.77,0v3.718" fill="none" stroke="#fff" stroke-linecap="round" stroke-linejoin="round" stroke-width="1.5"/>
    </g>
    <g id="Group_22248" data-name="Group 22248">
      <path id="Path_28446" data-name="Path 28446" d="M50.745,48.372s-3.7-2.328-4.944-4.758c-1.878-3.666,3.173-6.183,4.944-2.857" fill="none" stroke="#fff" stroke-linecap="round" stroke-linejoin="round" stroke-width="1.5"/>
      <path id="Path_28447" data-name="Path 28447" d="M50.745,48.372s3.7-2.328,4.943-4.758c1.878-3.666-3.172-6.183-4.943-2.857" fill="none" stroke="#fff" stroke-linecap="round" stroke-linejoin="round" stroke-width="1.5"/>
    </g>
  </g>
  <g id="Group_22250" data-name="Group 22250">
    <path id="Path_28448" data-name="Path 28448" d="M50.745,48.372s-3.7-2.328-4.944-4.758c-1.878-3.666,3.173-6.183,4.944-2.857" fill="none" stroke="#fff" stroke-linecap="round" stroke-linejoin="round" stroke-width="1.5"/>
    <path id="Path_28449" data-name="Path 28449" d="M50.745,48.372s3.7-2.328,4.943-4.758c1.878-3.666-3.172-6.183-4.943-2.857" fill="none" stroke="#fff" stroke-linecap="round" stroke-linejoin="round" stroke-width="1.5"/>
  </g>
</svg>
