<svg id="Capa_1" data-name="Capa 1" xmlns="http://www.w3.org/2000/svg" xmlns:xlink="http://www.w3.org/1999/xlink" viewBox="0 0 70 70"><defs><symbol id="OCENSA-EXT" data-name="OCENSA-EXT" viewBox="0 0 70 15"><line id="Line_4" data-name="Line 4" x1="41.68" y1="7.5" x2="50.05" y2="7.5" style="fill:none;stroke:#19a301;stroke-linecap:round;stroke-linejoin:round;stroke-width:2.40000009536743px"/><line id="Line_5" data-name="Line 5" x1="58.4" y1="7.5" x2="59.08" y2="7.5" style="fill:none;stroke:#19a301;stroke-linecap:round;stroke-linejoin:round;stroke-width:2.40000009536743px"/><line id="Line_6" data-name="Line 6" x1="10.92" y1="7.5" x2="19.21" y2="7.5" style="fill:none;stroke:#19a301;stroke-linecap:round;stroke-linejoin:round;stroke-width:2.40000009536743px"/><line id="Line_7" data-name="Line 7" x1="18.67" y1="7.5" x2="33.3" y2="7.5" style="fill:none;stroke:#82d400;stroke-linecap:round;stroke-linejoin:round;stroke-width:2.40000009536743px"/><rect width="70" height="15" style="fill:none"/></symbol></defs><title>icon</title><use width="70" height="15" transform="translate(0 55)" xlink:href="#OCENSA-EXT"/><circle id="Ellipse_2" data-name="Ellipse 2" cx="9.81" cy="24.64" r="5.8" style="fill:none;stroke:#19a301;stroke-linecap:round;stroke-linejoin:round;stroke-width:1.5px"/><rect id="Rectángulo_2137" data-name="Rectángulo 2137" x="38.86" y="33.18" width="17.58" height="20.91" style="fill:none;stroke:#000;stroke-linecap:round;stroke-linejoin:round;stroke-width:1.5px"/><path id="Trazado_5455" data-name="Trazado 5455" d="M21.46,11.71H10.36v4" style="fill:none;stroke:#000;stroke-linecap:round;stroke-linejoin:round;stroke-width:1.5px"/><path id="Trazado_5456" data-name="Trazado 5456" d="M10.36,33.82V54.09h11.1v-42" style="fill:none;stroke:#000;stroke-linecap:round;stroke-linejoin:round;stroke-width:1.5px"/><path d="M21.44,33.18h6a4,4,0,0,1,3.85,4.16v6a4,4,0,0,0,3.85,4.14h2.59" style="fill:none;stroke:#000;stroke-linecap:round;stroke-linejoin:round;stroke-width:1.5px"/><path id="Trazado_5459" data-name="Trazado 5459" d="M21.76,16.28h.69c2.83,0,5.12,1.85,5.12,4.15V54.1" style="fill:none;stroke:#000;stroke-linecap:round;stroke-linejoin:round;stroke-width:1.5px"/><line id="Línea_708" data-name="Línea 708" x1="62" y1="54.09" x2="6.57" y2="54.09" style="fill:none;stroke:#000;stroke-linecap:round;stroke-linejoin:round;stroke-width:1.65883406009338px"/><path id="Trazado_5460" data-name="Trazado 5460" d="M47.84,38.55c-.66,1.67-1.35,3.33-2,5-.54,1.33-1.2,2.78-.24,4.08a2.87,2.87,0,0,0,2.27,1.2,3,3,0,0,0,2.67-1.91c.48-1.2-.11-2.55-.62-3.62C49.27,42,47.79,38.67,47.84,38.55Z" style="fill:none;stroke:#000;stroke-linecap:round;stroke-linejoin:round;stroke-width:1.5px"/><rect width="70" height="70" style="fill:none"/></svg>