<svg id="Capa_1" data-name="Capa 1" xmlns="http://www.w3.org/2000/svg" xmlns:xlink="http://www.w3.org/1999/xlink" viewBox="0 0 70 70"><defs><symbol id="OCENSA-EXT" data-name="OCENSA-EXT" viewBox="0 0 70 15"><line id="Line_4" data-name="Line 4" x1="41.68" y1="7.5" x2="50.05" y2="7.5" style="fill:none;stroke:#19a301;stroke-linecap:round;stroke-linejoin:round;stroke-width:2.40000009536743px"/><line id="Line_5" data-name="Line 5" x1="58.4" y1="7.5" x2="59.08" y2="7.5" style="fill:none;stroke:#19a301;stroke-linecap:round;stroke-linejoin:round;stroke-width:2.40000009536743px"/><line id="Line_6" data-name="Line 6" x1="10.92" y1="7.5" x2="19.21" y2="7.5" style="fill:none;stroke:#19a301;stroke-linecap:round;stroke-linejoin:round;stroke-width:2.40000009536743px"/><line id="Line_7" data-name="Line 7" x1="18.67" y1="7.5" x2="33.3" y2="7.5" style="fill:none;stroke:#82d400;stroke-linecap:round;stroke-linejoin:round;stroke-width:2.40000009536743px"/><rect width="70" height="15" style="fill:none"/></symbol></defs><title>icon</title><path id="Trazado_5456" data-name="Trazado 5456" d="M38.5,7.26H26.2V27.14H38.5V7.68" style="fill:none;stroke:#000;stroke-linecap:round;stroke-linejoin:round;stroke-width:1.5px"/><path d="M38.49,16.47h8.28a4,4,0,0,1,3.85,4.15v9.14" style="fill:none;stroke:#000;stroke-linecap:round;stroke-linejoin:round;stroke-width:1.5px"/><path id="Trazado_5459" data-name="Trazado 5459" d="M38.81,11.83h.68c2.84,0,5.13,1.85,5.13,4.15V29.19" style="fill:none;stroke:#000;stroke-linecap:round;stroke-linejoin:round;stroke-width:1.5px"/><path id="Trazado_5460" data-name="Trazado 5460" d="M32.31,12.06q-1,2.51-2,5c-.55,1.33-1.2,2.78-.24,4.09a2.89,2.89,0,0,0,2.27,1.19A2.92,2.92,0,0,0,35,20.42c.49-1.2-.1-2.55-.61-3.62C33.73,15.51,32.26,12.18,32.31,12.06Z" style="fill:none;stroke:#000;stroke-linecap:round;stroke-linejoin:round;stroke-width:1.5px"/><circle id="Ellipse_2" data-name="Ellipse 2" cx="13.52" cy="30.75" r="5.14" style="fill:none;stroke:#19a301;stroke-linecap:round;stroke-linejoin:round;stroke-width:1.5px"/><line x1="13.12" y1="49.64" x2="61.15" y2="49.64" style="fill:none;stroke:#000;stroke-linecap:round;stroke-linejoin:round;stroke-width:1.5px"/><path d="M20.11,27.14H39.35a7.44,7.44,0,0,1,7.44,7.44h0A7.44,7.44,0,0,1,39.35,42H17.91a7.44,7.44,0,0,1-6.77-4.33" style="fill:none;stroke:#000;stroke-linecap:round;stroke-linejoin:round;stroke-width:1.5px"/><path d="M51.11,29.76h4.35a1.26,1.26,0,0,1,1.21.91l1.06,3.48,2,1.17a2,2,0,0,1,1,1.77V42H48.69V32.18A2.42,2.42,0,0,1,51.11,29.76Z" style="fill:none;stroke:#000;stroke-linecap:round;stroke-linejoin:round;stroke-width:1.5px"/><path d="M14.21,42H61.4a1.33,1.33,0,0,1,1.33,1.33h0a1.32,1.32,0,0,1-1.33,1.33H14.21Z" style="fill:none;stroke:#000;stroke-linecap:round;stroke-linejoin:round;stroke-width:1.5px"/><circle cx="18.66" cy="45.29" r="3" style="fill:#fff;stroke:#000;stroke-linecap:round;stroke-linejoin:round;stroke-width:1.5px"/><circle cx="26.53" cy="45.29" r="3" style="fill:#fff;stroke:#000;stroke-linecap:round;stroke-linejoin:round;stroke-width:1.5px"/><circle cx="54.74" cy="45.29" r="3" style="fill:#fff;stroke:#000;stroke-linecap:round;stroke-linejoin:round;stroke-width:1.5px"/><line x1="60.78" y1="42.02" x2="60.78" y2="44.68" style="fill:none;stroke:#000;stroke-linecap:round;stroke-linejoin:round;stroke-width:1.5px"/><rect x="20.11" y="25.11" width="3.42" height="2.03" style="fill:none;stroke:#000;stroke-linecap:round;stroke-linejoin:round;stroke-width:1.5px"/><rect x="32.04" y="25.11" width="3.42" height="2.03" style="fill:none;stroke:#000;stroke-linecap:round;stroke-linejoin:round;stroke-width:1.5px"/><line x1="57.73" y1="34.15" x2="48.69" y2="34.15" style="fill:none;stroke:#000;stroke-linecap:round;stroke-linejoin:round;stroke-width:1.5px"/><line x1="52.43" y1="29.76" x2="52.43" y2="34.15" style="fill:none;stroke:#000;stroke-linecap:round;stroke-linejoin:round;stroke-width:1.5px"/><path d="M59.84,39.1h.94a0,0,0,0,1,0,0V42a0,0,0,0,1,0,0h-.94a1.46,1.46,0,0,1-1.46-1.46v0A1.46,1.46,0,0,1,59.84,39.1Z" style="fill:none;stroke:#000;stroke-linecap:round;stroke-linejoin:round;stroke-width:1.5px"/><line x1="52.92" y1="36.55" x2="54.17" y2="36.55" style="fill:none;stroke:#000;stroke-linecap:round;stroke-linejoin:round;stroke-width:1.5px"/><use width="70" height="15" transform="translate(0 55)" xlink:href="#OCENSA-EXT"/><rect width="70" height="70" style="fill:none"/></svg>