<svg id="Capa_1" data-name="Capa 1" xmlns="http://www.w3.org/2000/svg" xmlns:xlink="http://www.w3.org/1999/xlink" viewBox="0 0 70 70"><defs><symbol id="OCENSA-EXT" data-name="OCENSA-EXT" viewBox="0 0 70 15"><line id="Line_4" data-name="Line 4" x1="41.68" y1="7.5" x2="50.05" y2="7.5" style="fill:none;stroke:#19a301;stroke-linecap:round;stroke-linejoin:round;stroke-width:2.40000009536743px"/><line id="Line_5" data-name="Line 5" x1="58.4" y1="7.5" x2="59.08" y2="7.5" style="fill:none;stroke:#19a301;stroke-linecap:round;stroke-linejoin:round;stroke-width:2.40000009536743px"/><line id="Line_6" data-name="Line 6" x1="10.92" y1="7.5" x2="19.21" y2="7.5" style="fill:none;stroke:#19a301;stroke-linecap:round;stroke-linejoin:round;stroke-width:2.40000009536743px"/><line id="Line_7" data-name="Line 7" x1="18.67" y1="7.5" x2="33.3" y2="7.5" style="fill:none;stroke:#82d400;stroke-linecap:round;stroke-linejoin:round;stroke-width:2.40000009536743px"/><rect width="70" height="15" style="fill:none"/></symbol></defs><title>icon</title><circle id="Ellipse_2" data-name="Ellipse 2" cx="20.8" cy="14.41" r="5.8" style="fill:none;stroke:#19a301;stroke-linecap:round;stroke-linejoin:round;stroke-width:1.5px"/><path d="M41,54.19H20.49s0-2.48,0-6.86V23.65" style="fill:none;stroke:#000;stroke-linecap:round;stroke-linejoin:round;stroke-width:1.5px"/><polyline points="29.83 12.49 48.14 12.49 54.99 19.57 54.99 54.19 51.04 54.19 34.45 54.19" style="fill:none;stroke:#000;stroke-linecap:round;stroke-linejoin:round;stroke-width:1.5px"/><polyline points="48.01 12.49 48.01 20.12 54.99 20.12" style="fill:none;stroke:#000;stroke-linecap:round;stroke-linejoin:round;stroke-width:1.5px"/><line x1="26.6" y1="36.98" x2="48.01" y2="36.98" style="fill:none;stroke:#000;stroke-linecap:round;stroke-linejoin:round;stroke-width:1.5px"/><line x1="26.6" y1="41.98" x2="48.01" y2="41.98" style="fill:none;stroke:#000;stroke-linecap:round;stroke-linejoin:round;stroke-width:1.5px"/><line x1="26.6" y1="46.98" x2="48.01" y2="46.98" style="fill:none;stroke:#000;stroke-linecap:round;stroke-linejoin:round;stroke-width:1.5px"/><path d="M29.7,30.82V23.71H32a2.69,2.69,0,0,1,1.74.48,1.72,1.72,0,0,1,.58,1.41,1.45,1.45,0,0,1-.28.89,1.91,1.91,0,0,1-.77.59,1.7,1.7,0,0,1,.91.61,1.78,1.78,0,0,1,.33,1.08,1.89,1.89,0,0,1-.62,1.5,2.53,2.53,0,0,1-1.75.55Zm.94-4.08h1.42a1.46,1.46,0,0,0,1-.31,1,1,0,0,0,.37-.83,1.06,1.06,0,0,0-.34-.86,1.75,1.75,0,0,0-1-.26H30.64Zm0,.75v2.56h1.55a1.47,1.47,0,0,0,1-.34,1.18,1.18,0,0,0,.38-.93c0-.86-.47-1.29-1.4-1.29Z"/><path d="M40.71,24.48H38.42v6.34h-.93V24.48H35.21v-.77h5.5Z"/><path d="M47.09,27.49a4.33,4.33,0,0,1-.35,1.83,2.66,2.66,0,0,1-1,1.19,2.77,2.77,0,0,1-1.51.41,2.7,2.7,0,0,1-1.49-.42,2.62,2.62,0,0,1-1-1.17,4.11,4.11,0,0,1-.37-1.77V27a4.49,4.49,0,0,1,.35-1.81,2.79,2.79,0,0,1,1-1.2,2.7,2.7,0,0,1,1.49-.42,2.82,2.82,0,0,1,1.51.41,2.7,2.7,0,0,1,1,1.2A4.32,4.32,0,0,1,47.09,27ZM46.16,27a3.18,3.18,0,0,0-.51-1.94,1.82,1.82,0,0,0-2.82,0A3.13,3.13,0,0,0,42.31,27v.52a3.23,3.23,0,0,0,.51,1.93,1.81,1.81,0,0,0,2.83,0,3.18,3.18,0,0,0,.51-1.9Z"/><rect width="70" height="70" style="fill:none"/><use width="70" height="15" transform="translate(0 55)" xlink:href="#OCENSA-EXT"/></svg>