<svg id="Capa_1" data-name="Capa 1" xmlns="http://www.w3.org/2000/svg" viewBox="0 0 70 70"><title>icon</title><g id="Grupo_24547" data-name="Grupo 24547"><rect id="Rectángulo_7854" data-name="Rectángulo 7854" width="70" height="70" style="fill:none"/></g><rect id="Rectángulo_7855" data-name="Rectángulo 7855" y="55" width="70" height="15" style="fill:none"/><line id="Line_4" data-name="Line 4" x1="41.7" y1="62.5" x2="50.1" y2="62.5" style="fill:none;stroke:#19a301;stroke-linecap:round;stroke-linejoin:round;stroke-width:2.4000000953674316px"/><line id="Line_5" data-name="Line 5" x1="58.4" y1="62.5" x2="59.1" y2="62.5" style="fill:none;stroke:#19a301;stroke-linecap:round;stroke-linejoin:round;stroke-width:2.4000000953674316px"/><line id="Line_6" data-name="Line 6" x1="10.9" y1="62.5" x2="19.2" y2="62.5" style="fill:none;stroke:#19a301;stroke-linecap:round;stroke-linejoin:round;stroke-width:2.4000000953674316px"/><line id="Line_7" data-name="Line 7" x1="18.7" y1="62.5" x2="33.3" y2="62.5" style="fill:none;stroke:#82d400;stroke-linecap:round;stroke-linejoin:round;stroke-width:2.4000000953674316px"/><g id="Grupo_24548" data-name="Grupo 24548"><rect id="Rectángulo_7856" data-name="Rectángulo 7856" width="70" height="70" style="fill:none"/></g><rect id="Rectángulo_7857" data-name="Rectángulo 7857" y="55" width="70" height="15" style="fill:none"/><line id="Line_4-2" data-name="Line 4-2" x1="41.7" y1="62.5" x2="50.1" y2="62.5" style="fill:none;stroke:#19a301;stroke-linecap:round;stroke-linejoin:round;stroke-width:2.4000000953674316px"/><line id="Line_5-2" data-name="Line 5-2" x1="58.4" y1="62.5" x2="59.1" y2="62.5" style="fill:none;stroke:#19a301;stroke-linecap:round;stroke-linejoin:round;stroke-width:2.4000000953674316px"/><line id="Line_6-2" data-name="Line 6-2" x1="10.9" y1="62.5" x2="19.2" y2="62.5" style="fill:none;stroke:#19a301;stroke-linecap:round;stroke-linejoin:round;stroke-width:2.4000000953674316px"/><line id="Line_7-2" data-name="Line 7-2" x1="18.7" y1="62.5" x2="33.3" y2="62.5" style="fill:none;stroke:#82d400;stroke-linecap:round;stroke-linejoin:round;stroke-width:2.4000000953674316px"/><path id="Trazado_29420" data-name="Trazado 29420" d="M27.2,11.7a4.66,4.66,0,0,0-1.3-3.3,4.88,4.88,0,1,0,1.3,3.3Z" style="fill:none;stroke:#19a301;stroke-linecap:round;stroke-linejoin:round;stroke-width:1.5px"/><path id="Trazado_29421" data-name="Trazado 29421" d="M46,10.8V18h6.6" style="fill:none;stroke:#fff;stroke-linecap:round;stroke-linejoin:round;stroke-width:1.5px"/><path id="Trazado_29422" data-name="Trazado 29422" d="M20,20.4v21a9.38,9.38,0,0,0,9.38,9.4H52.7V18" style="fill:none;stroke:#fff;stroke-linecap:round;stroke-linejoin:round;stroke-width:1.5px"/><path id="Trazado_29423" data-name="Trazado 29423" d="M52.6,17.8l-6.7-7.5h-15" style="fill:none;stroke:#fff;stroke-linecap:round;stroke-linejoin:round;stroke-width:1.5px"/><line id="Línea_3939" data-name="Línea 3939" x1="27.71" y1="25.65" x2="44.99" y2="25.65" style="fill:none;stroke:#fff;stroke-linecap:round;stroke-linejoin:round;stroke-width:1.5px"/><line id="Línea_3940" data-name="Línea 3940" x1="27.71" y1="30.82" x2="44.99" y2="30.82" style="fill:none;stroke:#fff;stroke-linecap:round;stroke-linejoin:round;stroke-width:1.5px"/><line id="Línea_3941" data-name="Línea 3941" x1="27.71" y1="35.99" x2="44.99" y2="35.99" style="fill:none;stroke:#fff;stroke-linecap:round;stroke-linejoin:round;stroke-width:1.5px"/><line id="Línea_3942" data-name="Línea 3942" x1="27.71" y1="41.15" x2="35.22" y2="41.15" style="fill:none;stroke:#fff;stroke-linecap:round;stroke-linejoin:round;stroke-width:1.5px"/></svg>