<svg id="Capa_1" data-name="Capa 1" xmlns="http://www.w3.org/2000/svg" xmlns:xlink="http://www.w3.org/1999/xlink" viewBox="0 0 70 70"><defs><symbol id="OCENSA-EXT" data-name="OCENSA-EXT" viewBox="0 0 70 15"><line id="Line_4" data-name="Line 4" x1="41.68" y1="7.5" x2="50.05" y2="7.5" style="fill:none;stroke:#19a301;stroke-linecap:round;stroke-linejoin:round;stroke-width:2.40000009536743px"/><line id="Line_5" data-name="Line 5" x1="58.4" y1="7.5" x2="59.08" y2="7.5" style="fill:none;stroke:#19a301;stroke-linecap:round;stroke-linejoin:round;stroke-width:2.40000009536743px"/><line id="Line_6" data-name="Line 6" x1="10.92" y1="7.5" x2="19.21" y2="7.5" style="fill:none;stroke:#19a301;stroke-linecap:round;stroke-linejoin:round;stroke-width:2.40000009536743px"/><line id="Line_7" data-name="Line 7" x1="18.67" y1="7.5" x2="33.3" y2="7.5" style="fill:none;stroke:#82d400;stroke-linecap:round;stroke-linejoin:round;stroke-width:2.40000009536743px"/><rect width="70" height="15" style="fill:none"/></symbol></defs><title>icon</title><use width="70" height="15" transform="translate(0 55)" xlink:href="#OCENSA-EXT"/><polyline points="18.54 26.93 19.29 31.62 27.36 34.06 30.84 34.06 33.37 26.83 36.28 28.62 34.21 31.9 34.97 33.59 39.47 29.18 41.82 29.37 48.11 24.02 46.89 18.39 48.11 17.92 49.7 20.36 51.39 19.51 53.36 11.35 59.75 9 63.78 10.13 60.68 15.57 59.37 20.73 54.96 23.74 55.62 32.09 57.96 32 56.93 37.91 55.05 37.25 49.23 42.32 47.17 40.26 44.54 43.64 45.57 45.7 44.07 47.95 42.85 47.3 42.38 52.27 41.25 53.59 38.16 52.55 34.87 49.55 31.96 49.55 31.77 47.95 33.56 46.08 32.81 42.42 31.49 41.2 31.02 41.2 31.12 39.79 27.64 36.69 23.61 40.35 18.73 38.1 17.22 32 10.56 32.56 11.08 30.3" style="fill:none;stroke:#fff;stroke-linecap:round;stroke-linejoin:round;stroke-width:1.2878146469593px"/><circle id="Ellipse_2" data-name="Ellipse 2" cx="12.02" cy="21.09" r="5.8" style="fill:none;stroke:#19a301;stroke-linecap:round;stroke-linejoin:round;stroke-width:1.5px"/><rect width="70" height="70" style="fill:none"/></svg>