<svg id="Capa_1" data-name="Capa 1" xmlns="http://www.w3.org/2000/svg" xmlns:xlink="http://www.w3.org/1999/xlink" viewBox="0 0 70 70"><defs><symbol id="OCENSA-EXT" data-name="OCENSA-EXT" viewBox="0 0 70 15"><line id="Line_4" data-name="Line 4" x1="41.68" y1="7.5" x2="50.05" y2="7.5" style="fill:none;stroke:#19a301;stroke-linecap:round;stroke-linejoin:round;stroke-width:2.40000009536743px"/><line id="Line_5" data-name="Line 5" x1="58.4" y1="7.5" x2="59.08" y2="7.5" style="fill:none;stroke:#19a301;stroke-linecap:round;stroke-linejoin:round;stroke-width:2.40000009536743px"/><line id="Line_6" data-name="Line 6" x1="10.92" y1="7.5" x2="19.21" y2="7.5" style="fill:none;stroke:#19a301;stroke-linecap:round;stroke-linejoin:round;stroke-width:2.40000009536743px"/><line id="Line_7" data-name="Line 7" x1="18.67" y1="7.5" x2="33.3" y2="7.5" style="fill:none;stroke:#82d400;stroke-linecap:round;stroke-linejoin:round;stroke-width:2.40000009536743px"/><rect width="70" height="15" style="fill:none"/></symbol></defs><title>icon</title><use width="70" height="15" transform="translate(0 55)" xlink:href="#OCENSA-EXT"/><circle id="Ellipse_2" data-name="Ellipse 2" cx="10.17" cy="24.31" r="5.8" style="fill:none;stroke:#19a301;stroke-linecap:round;stroke-linejoin:round;stroke-width:1.5px"/><line id="Línea_2918" data-name="Línea 2918" x1="6.69" y1="54.01" x2="65.62" y2="54.01" style="fill:none;stroke:#000;stroke-linecap:round;stroke-linejoin:round;stroke-width:1.5px"/><path d="M10.79,15.44A3.46,3.46,0,0,1,14.24,12h9.55a3.46,3.46,0,0,1,3.45,3.45v22" style="fill:none;stroke:#000;stroke-linecap:round;stroke-linejoin:round;stroke-width:1.5px"/><line id="Línea_2919" data-name="Línea 2919" x1="10.79" y1="54.01" x2="10.79" y2="33.09" style="fill:none;stroke:#000;stroke-linecap:round;stroke-linejoin:round;stroke-width:1.5px"/><path id="Trazado_12588" data-name="Trazado 12588" d="M44.76,53.92V40.55a3.32,3.32,0,0,1,3.32-3.32h10.1a3.32,3.32,0,0,1,3.32,3.32V54" style="fill:none;stroke:#000;stroke-linecap:round;stroke-linejoin:round;stroke-width:1.5px"/><path id="Trazado_12589" data-name="Trazado 12589" d="M38.4,53.92V31.37A3.33,3.33,0,0,1,41.72,28h8A3.32,3.32,0,0,1,53,31.37v5.69" style="fill:none;stroke:#000;stroke-linecap:round;stroke-linejoin:round;stroke-width:1.5px"/><line x1="44.76" y1="46.04" x2="61.5" y2="46.04" style="fill:none;stroke:#000;stroke-linecap:round;stroke-linejoin:round;stroke-width:1.5px"/><line x1="27.24" y1="23.56" x2="21.01" y2="23.56" style="fill:none;stroke:#000;stroke-linecap:round;stroke-linejoin:round;stroke-width:1.5px"/><line x1="27.24" y1="27.97" x2="23.23" y2="27.97" style="fill:none;stroke:#000;stroke-linecap:round;stroke-linejoin:round;stroke-width:1.5px"/><line x1="45.72" y1="50.83" x2="49.53" y2="50.83" style="fill:none;stroke:#000;stroke-linecap:round;stroke-linejoin:round;stroke-width:1.5px"/><line x1="10.88" y1="37.47" x2="38.42" y2="37.47" style="fill:none;stroke:#000;stroke-linecap:round;stroke-linejoin:round;stroke-width:1.5px"/><rect x="32.94" y="8.96" width="26.07" height="12.35" style="fill:none;stroke:#000;stroke-linecap:round;stroke-linejoin:round;stroke-width:1.5px"/><line x1="46.22" y1="21.31" x2="46.22" y2="27.77" style="fill:none;stroke:#000;stroke-linecap:round;stroke-linejoin:round;stroke-width:1.5px"/><path d="M40,16.86a.83.83,0,0,0-.33-.7,4.23,4.23,0,0,0-1.16-.51,7.7,7.7,0,0,1-1.32-.54,2.16,2.16,0,0,1-1.33-1.94A1.87,1.87,0,0,1,36.22,12a2.28,2.28,0,0,1,1-.77,3.75,3.75,0,0,1,1.5-.28,3.51,3.51,0,0,1,1.49.3,2.34,2.34,0,0,1,1,.86,2.25,2.25,0,0,1,.36,1.25H40a1,1,0,0,0-.34-.83,1.37,1.37,0,0,0-1-.3,1.48,1.48,0,0,0-.92.25.81.81,0,0,0-.32.66.75.75,0,0,0,.38.64A4.42,4.42,0,0,0,39,14.3a4.82,4.82,0,0,1,2,1,2,2,0,0,1,.63,1.52,1.9,1.9,0,0,1-.76,1.6,3.43,3.43,0,0,1-2.07.57,4.05,4.05,0,0,1-1.65-.33,2.64,2.64,0,0,1-1.13-.9,2.34,2.34,0,0,1-.39-1.33h1.62c0,.86.52,1.29,1.55,1.29a1.52,1.52,0,0,0,.89-.23A.77.77,0,0,0,40,16.86Z"/><path d="M49.14,15.18a4.78,4.78,0,0,1-.41,2,3.06,3.06,0,0,1-1.17,1.34,3.49,3.49,0,0,1-3.48,0,3.15,3.15,0,0,1-1.18-1.34,4.51,4.51,0,0,1-.42-2v-.39a4.78,4.78,0,0,1,.41-2,3.06,3.06,0,0,1,1.18-1.35A3.2,3.2,0,0,1,45.81,11a3.14,3.14,0,0,1,1.73.47,3.06,3.06,0,0,1,1.18,1.35,4.62,4.62,0,0,1,.42,2Zm-1.64-.35A3.23,3.23,0,0,0,47.06,13a1.55,1.55,0,0,0-2.5,0,3.18,3.18,0,0,0-.45,1.85v.38A3.36,3.36,0,0,0,44.55,17a1.43,1.43,0,0,0,1.27.66,1.4,1.4,0,0,0,1.24-.64,3.26,3.26,0,0,0,.44-1.85Z"/><path d="M53.2,16.05H51.92v2.87H50.31V11.09h2.9a3.29,3.29,0,0,1,2.14.62,2.14,2.14,0,0,1,.75,1.75,2.39,2.39,0,0,1-.34,1.33,2.32,2.32,0,0,1-1,.85l1.69,3.2v.08H54.67Zm-1.28-1.3h1.3a1.36,1.36,0,0,0,.94-.31,1.11,1.11,0,0,0,.33-.85,1.17,1.17,0,0,0-.31-.87,1.32,1.32,0,0,0-1-.32H51.92Z"/><rect width="70" height="70" style="fill:none"/></svg>