<svg id="Capa_1" data-name="Capa 1" xmlns="http://www.w3.org/2000/svg" xmlns:xlink="http://www.w3.org/1999/xlink" viewBox="0 0 70 70"><defs><symbol id="OCENSA-EXT" data-name="OCENSA-EXT" viewBox="0 0 70 15"><line id="Line_4" data-name="Line 4" x1="41.68" y1="7.5" x2="50.05" y2="7.5" style="fill:none;stroke:#19a301;stroke-linecap:round;stroke-linejoin:round;stroke-width:2.40000009536743px"/><line id="Line_5" data-name="Line 5" x1="58.4" y1="7.5" x2="59.08" y2="7.5" style="fill:none;stroke:#19a301;stroke-linecap:round;stroke-linejoin:round;stroke-width:2.40000009536743px"/><line id="Line_6" data-name="Line 6" x1="10.92" y1="7.5" x2="19.21" y2="7.5" style="fill:none;stroke:#19a301;stroke-linecap:round;stroke-linejoin:round;stroke-width:2.40000009536743px"/><line id="Line_7" data-name="Line 7" x1="18.67" y1="7.5" x2="33.3" y2="7.5" style="fill:none;stroke:#82d400;stroke-linecap:round;stroke-linejoin:round;stroke-width:2.40000009536743px"/><rect width="70" height="15" style="fill:none"/></symbol></defs><title>icon</title><use width="70" height="15" transform="translate(0 55)" xlink:href="#OCENSA-EXT"/><rect width="70" height="70" style="fill:none"/><circle id="Ellipse_2" data-name="Ellipse 2" cx="18.56" cy="22.64" r="5.8" style="fill:none;stroke:#19a301;stroke-linecap:round;stroke-linejoin:round;stroke-width:1.5px"/><path d="M63,53.9c-3.5,0-3.5-3.41-7-3.41s-3.5,3.41-7,3.41-3.5-3.41-7-3.41-3.5,3.41-7,3.41-3.5-3.41-7-3.41-3.5,3.41-7,3.41-3.5-3.41-7-3.41-3.5,3.41-7,3.41" style="fill:none;stroke:#000;stroke-linecap:round;stroke-linejoin:round;stroke-width:1.5px"/><line x1="25.24" y1="47.37" x2="18.46" y2="47.37" style="fill:none;stroke:#000;stroke-linecap:round;stroke-linejoin:round;stroke-width:1.5px"/><line x1="48.65" y1="34.38" x2="48.65" y2="34.38" style="fill:none;stroke:#000;stroke-linecap:round;stroke-linejoin:round;stroke-width:1.5px"/><polyline points="19.4 30.79 19.4 34.38 39.89 34.38" style="fill:none;stroke:#000;stroke-linecap:round;stroke-linejoin:round;stroke-width:1.5px"/><path d="M48.65,34.38h3.61V23.57a1.34,1.34,0,0,0-1.34-1.34H27.15" style="fill:none;stroke:#000;stroke-linecap:round;stroke-linejoin:round;stroke-width:1.5px"/><path d="M31.59,17h14a1.1,1.1,0,0,1,1.1,1.1v4.12a0,0,0,0,1,0,0H30.32a0,0,0,0,1,0,0v-4A1.27,1.27,0,0,1,31.59,17Z" style="fill:none;stroke:#000;stroke-linecap:round;stroke-linejoin:round;stroke-width:1.5px"/><line x1="26.75" y1="26.75" x2="52.31" y2="26.75" style="fill:none;stroke:#000;stroke-linecap:round;stroke-linejoin:round;stroke-width:1.5px"/><path d="M39.89,34.39H15.58A1.53,1.53,0,0,0,14,35.92V50.08" style="fill:none;stroke:#000;stroke-linecap:round;stroke-linejoin:round;stroke-width:1.5px"/><path d="M57.93,51V35.71a1.32,1.32,0,0,0-1.32-1.32h-8" style="fill:none;stroke:#000;stroke-linecap:round;stroke-linejoin:round;stroke-width:1.5px"/><line x1="29.64" y1="38.52" x2="14.04" y2="38.52" style="fill:none;stroke:#000;stroke-linecap:round;stroke-linejoin:round;stroke-width:1.5px"/><line x1="25.25" y1="38.51" x2="25.25" y2="51.42" style="fill:none;stroke:#000;stroke-linecap:round;stroke-linejoin:round;stroke-width:1.5px"/><line x1="25.24" y1="42.55" x2="18.46" y2="42.55" style="fill:none;stroke:#000;stroke-linecap:round;stroke-linejoin:round;stroke-width:1.5px"/><line x1="18.44" y1="38.51" x2="18.44" y2="52.77" style="fill:none;stroke:#000;stroke-linecap:round;stroke-linejoin:round;stroke-width:1.5px"/><line x1="29.64" y1="34.38" x2="29.64" y2="50.39" style="fill:none;stroke:#000;stroke-linecap:round;stroke-linejoin:round;stroke-width:1.5px"/><polyline points="39.89 34.41 39.86 41.1 48.63 41.1 48.63 34.4" style="fill:none;stroke:#000;stroke-linecap:round;stroke-linejoin:round;stroke-width:1.5px"/></svg>