<svg id="Capa_1" data-name="Capa 1" xmlns="http://www.w3.org/2000/svg" xmlns:xlink="http://www.w3.org/1999/xlink" viewBox="0 0 70 70"><defs><symbol id="OCENSA-EXT" data-name="OCENSA-EXT" viewBox="0 0 70 15"><line id="Line_4" data-name="Line 4" x1="41.68" y1="7.5" x2="50.05" y2="7.5" style="fill:none;stroke:#19a301;stroke-linecap:round;stroke-linejoin:round;stroke-width:2.40000009536743px"/><line id="Line_5" data-name="Line 5" x1="58.4" y1="7.5" x2="59.08" y2="7.5" style="fill:none;stroke:#19a301;stroke-linecap:round;stroke-linejoin:round;stroke-width:2.40000009536743px"/><line id="Line_6" data-name="Line 6" x1="10.92" y1="7.5" x2="19.21" y2="7.5" style="fill:none;stroke:#19a301;stroke-linecap:round;stroke-linejoin:round;stroke-width:2.40000009536743px"/><line id="Line_7" data-name="Line 7" x1="18.67" y1="7.5" x2="33.3" y2="7.5" style="fill:none;stroke:#82d400;stroke-linecap:round;stroke-linejoin:round;stroke-width:2.40000009536743px"/><rect width="70" height="15" style="fill:none"/></symbol></defs><title>icon</title><rect width="70" height="70" style="fill:none"/><circle id="Ellipse_2" data-name="Ellipse 2" cx="23.7" cy="25.64" r="5.8" style="fill:none;stroke:#19a301;stroke-linecap:round;stroke-linejoin:round;stroke-width:1.5px"/><polyline points="14.74 30.93 9.71 30.93 9.71 42.57 51.34 42.57" style="fill:none;stroke:#000;stroke-linecap:round;stroke-linejoin:round;stroke-width:1.5px"/><polyline points="54.55 40.3 54.55 30.93 32.22 30.93" style="fill:none;stroke:#000;stroke-linecap:round;stroke-linejoin:round;stroke-width:1.5px"/><rect x="5.76" y="30.12" width="3.95" height="13.26" transform="translate(15.47 73.5) rotate(-180)" style="fill:none;stroke:#000;stroke-linecap:round;stroke-linejoin:round;stroke-width:1.5px"/><polyline points="54.55 40.3 54.55 30.93 54.55 30.12 58.5 30.12 58.5 40.03" style="fill:none;stroke:#000;stroke-linecap:round;stroke-linejoin:round;stroke-width:1.5px"/><polygon points="37.02 27.01 37.02 30.93 48.74 30.93 48.74 23.52 41.35 23.52 37.02 23.52 37.02 27.01" style="fill:none;stroke:#000;stroke-linecap:round;stroke-linejoin:round;stroke-width:1.5px"/><line x1="43" y1="23.52" x2="43" y2="19" style="fill:none;stroke:#000;stroke-linecap:round;stroke-linejoin:round;stroke-width:1.5px"/><line x1="46.38" y1="19" x2="39.38" y2="19" style="fill:none;stroke:#000;stroke-linecap:round;stroke-linejoin:round;stroke-width:1.5px"/><path d="M9.71,35.4c3.2,0,3.2,2.69,6.4,2.69s3.2-2.69,6.41-2.69,3.2,2.69,6.4,2.69,3.2-2.69,6.4-2.69,3.21,2.69,6.41,2.69,3.21-2.69,6.41-2.69,3.21,2.69,6.41,2.69" style="fill:none;stroke:#000;stroke-linecap:round;stroke-linejoin:round;stroke-width:1.5px"/><circle cx="56.98" cy="47.13" r="7.26" style="fill:none;stroke:#000;stroke-linecap:round;stroke-linejoin:round;stroke-width:1.5px"/><polyline points="53.26 46.64 55.54 50.09 60.02 43.83" style="fill:none;stroke:#000;stroke-linecap:round;stroke-linejoin:round;stroke-width:1.5px"/><use width="70" height="15" transform="translate(0 55)" xlink:href="#OCENSA-EXT"/></svg>