<svg id="Capa_1" data-name="Capa 1" xmlns="http://www.w3.org/2000/svg" xmlns:xlink="http://www.w3.org/1999/xlink" viewBox="0 0 70 70"><defs><symbol id="OCENSA-EXT" data-name="OCENSA-EXT" viewBox="0 0 70 15"><line id="Line_4" data-name="Line 4" x1="41.68" y1="7.5" x2="50.05" y2="7.5" style="fill:none;stroke:#19a301;stroke-linecap:round;stroke-linejoin:round;stroke-width:2.40000009536743px"/><line id="Line_5" data-name="Line 5" x1="58.4" y1="7.5" x2="59.08" y2="7.5" style="fill:none;stroke:#19a301;stroke-linecap:round;stroke-linejoin:round;stroke-width:2.40000009536743px"/><line id="Line_6" data-name="Line 6" x1="10.92" y1="7.5" x2="19.21" y2="7.5" style="fill:none;stroke:#19a301;stroke-linecap:round;stroke-linejoin:round;stroke-width:2.40000009536743px"/><line id="Line_7" data-name="Line 7" x1="18.67" y1="7.5" x2="33.3" y2="7.5" style="fill:none;stroke:#82d400;stroke-linecap:round;stroke-linejoin:round;stroke-width:2.40000009536743px"/><rect width="70" height="15" style="fill:none"/></symbol></defs><title>icon</title><circle id="Ellipse_2" data-name="Ellipse 2" cx="20.8" cy="14.41" r="5.8" style="fill:none;stroke:#19a301;stroke-linecap:round;stroke-linejoin:round;stroke-width:1.5px"/><path d="M41,54.19H20.49s0-2.48,0-6.86V23.65" style="fill:none;stroke:#000;stroke-linecap:round;stroke-linejoin:round;stroke-width:1.5px"/><polyline points="29.83 12.49 48.14 12.49 54.99 19.57 54.99 54.19 51.04 54.19 34.45 54.19" style="fill:none;stroke:#000;stroke-linecap:round;stroke-linejoin:round;stroke-width:1.5px"/><polyline points="48.01 12.49 48.01 20.12 54.99 20.12" style="fill:none;stroke:#000;stroke-linecap:round;stroke-linejoin:round;stroke-width:1.5px"/><line x1="26.6" y1="46.98" x2="48.01" y2="46.98" style="fill:none;stroke:#000;stroke-linecap:round;stroke-linejoin:round;stroke-width:1.5px"/><line x1="35.78" y1="26.52" x2="35.78" y2="28.61" style="fill:none;stroke:#000;stroke-linecap:round;stroke-linejoin:round;stroke-width:1.62960970401764px"/><line x1="38.83" y1="26.52" x2="38.83" y2="28.61" style="fill:none;stroke:#000;stroke-linecap:round;stroke-linejoin:round;stroke-width:1.62960970401764px"/><path d="M35.78,28.61l-4.09,1.84a2.69,2.69,0,0,0-1.59,2.46v8H44.5v-8a2.69,2.69,0,0,0-1.59-2.46l-4.08-1.84" style="fill:none;stroke:#000;stroke-linecap:round;stroke-linejoin:round;stroke-width:1.62960970401764px"/><line x1="37.3" y1="30.34" x2="35.78" y2="28.61" style="fill:none;stroke:#000;stroke-linecap:round;stroke-linejoin:round;stroke-width:1.62960970401764px"/><line x1="37.3" y1="30.34" x2="38.83" y2="28.61" style="fill:none;stroke:#000;stroke-linecap:round;stroke-linejoin:round;stroke-width:1.62960970401764px"/><path d="M40.16,24.09a2.87,2.87,0,0,1-5.74,0" style="fill:none;stroke:#000;stroke-linecap:round;stroke-linejoin:round;stroke-width:1.62960970401764px"/><path d="M34.42,24.09v-2a2.87,2.87,0,1,1,5.74,0v2" style="fill:none;stroke:#000;stroke-linecap:round;stroke-linejoin:round;stroke-width:1.62960970401764px"/><rect width="70" height="70" style="fill:none"/><use width="70" height="15" transform="translate(0 55)" xlink:href="#OCENSA-EXT"/></svg>