<svg id="Capa_1" data-name="Capa 1" xmlns="http://www.w3.org/2000/svg" xmlns:xlink="http://www.w3.org/1999/xlink" viewBox="0 0 70 70"><defs><symbol id="OCENSA-EXT" data-name="OCENSA-EXT" viewBox="0 0 70 15"><line id="Line_4" data-name="Line 4" x1="41.68" y1="7.5" x2="50.05" y2="7.5" style="fill:none;stroke:#19a301;stroke-linecap:round;stroke-linejoin:round;stroke-width:2.40000009536743px"/><line id="Line_5" data-name="Line 5" x1="58.4" y1="7.5" x2="59.08" y2="7.5" style="fill:none;stroke:#19a301;stroke-linecap:round;stroke-linejoin:round;stroke-width:2.40000009536743px"/><line id="Line_6" data-name="Line 6" x1="10.92" y1="7.5" x2="19.21" y2="7.5" style="fill:none;stroke:#19a301;stroke-linecap:round;stroke-linejoin:round;stroke-width:2.40000009536743px"/><line id="Line_7" data-name="Line 7" x1="18.67" y1="7.5" x2="33.3" y2="7.5" style="fill:none;stroke:#82d400;stroke-linecap:round;stroke-linejoin:round;stroke-width:2.40000009536743px"/><rect width="70" height="15" style="fill:none"/></symbol></defs><title>icon</title><use width="70" height="15" transform="translate(0 55)" xlink:href="#OCENSA-EXT"/><circle id="Ellipse_2" data-name="Ellipse 2" cx="10.17" cy="24.31" r="5.8" style="fill:none;stroke:#19a301;stroke-linecap:round;stroke-linejoin:round;stroke-width:1.5px"/><line id="Línea_2918" data-name="Línea 2918" x1="6.69" y1="54.01" x2="65.62" y2="54.01" style="fill:none;stroke:#000;stroke-linecap:round;stroke-linejoin:round;stroke-width:1.5px"/><path d="M10.79,15.44A3.46,3.46,0,0,1,14.24,12h9.55a3.46,3.46,0,0,1,3.45,3.45v22" style="fill:none;stroke:#000;stroke-linecap:round;stroke-linejoin:round;stroke-width:1.5px"/><line id="Línea_2919" data-name="Línea 2919" x1="10.79" y1="54.01" x2="10.79" y2="33.09" style="fill:none;stroke:#000;stroke-linecap:round;stroke-linejoin:round;stroke-width:1.5px"/><path id="Trazado_12588" data-name="Trazado 12588" d="M44.76,53.92V40.55a3.32,3.32,0,0,1,3.32-3.32h10.1a3.32,3.32,0,0,1,3.32,3.32V54" style="fill:none;stroke:#000;stroke-linecap:round;stroke-linejoin:round;stroke-width:1.5px"/><path id="Trazado_12589" data-name="Trazado 12589" d="M38.4,53.92V31.37A3.33,3.33,0,0,1,41.72,28h8A3.32,3.32,0,0,1,53,31.37v5.69" style="fill:none;stroke:#000;stroke-linecap:round;stroke-linejoin:round;stroke-width:1.5px"/><line x1="44.76" y1="46.04" x2="61.5" y2="46.04" style="fill:none;stroke:#000;stroke-linecap:round;stroke-linejoin:round;stroke-width:1.5px"/><line x1="27.24" y1="23.56" x2="21.01" y2="23.56" style="fill:none;stroke:#000;stroke-linecap:round;stroke-linejoin:round;stroke-width:1.5px"/><line x1="27.24" y1="27.97" x2="23.23" y2="27.97" style="fill:none;stroke:#000;stroke-linecap:round;stroke-linejoin:round;stroke-width:1.5px"/><line x1="45.72" y1="50.83" x2="49.53" y2="50.83" style="fill:none;stroke:#000;stroke-linecap:round;stroke-linejoin:round;stroke-width:1.5px"/><line x1="10.88" y1="37.47" x2="38.42" y2="37.47" style="fill:none;stroke:#000;stroke-linecap:round;stroke-linejoin:round;stroke-width:1.5px"/><rect x="32.94" y="8.96" width="26.07" height="12.35" style="fill:none;stroke:#000;stroke-linecap:round;stroke-linejoin:round;stroke-width:1.5px"/><line x1="46.22" y1="21.31" x2="46.22" y2="27.77" style="fill:none;stroke:#000;stroke-linecap:round;stroke-linejoin:round;stroke-width:1.5px"/><path d="M37.8,15.88v2.75H36.19V10.81h3.05a3.61,3.61,0,0,1,1.55.32,2.37,2.37,0,0,1,1,.92,2.57,2.57,0,0,1,.36,1.35,2.22,2.22,0,0,1-.79,1.81,3.23,3.23,0,0,1-2.18.67Zm0-1.31h1.44a1.44,1.44,0,0,0,1-.3,1.11,1.11,0,0,0,.33-.86,1.29,1.29,0,0,0-.34-.93,1.23,1.23,0,0,0-.93-.36H37.8Z"/><path d="M49.2,10.81V16a2.6,2.6,0,0,1-.8,2,3.08,3.08,0,0,1-2.19.75A3.15,3.15,0,0,1,44,18a2.63,2.63,0,0,1-.82-2V10.81h1.61V16a1.45,1.45,0,0,0,.37,1.12,1.38,1.38,0,0,0,1,.36c.9,0,1.36-.48,1.38-1.43V10.81Z"/><path d="M55.23,15.24H52.14v2.1h3.63v1.29H50.53V10.81h5.23v1.31H52.14V14h3.09Z"/><rect width="70" height="70" style="fill:none"/></svg>