<svg id="Capa_1" data-name="Capa 1" xmlns="http://www.w3.org/2000/svg" viewBox="0 0 70 70"><title>icon</title><g id="Grupo_24550-2" data-name="Grupo 24550-2"><rect id="Rectángulo_7858" data-name="Rectángulo 7858" width="70" height="70" style="fill:none"/></g><rect id="Rectángulo_7859" data-name="Rectángulo 7859" y="55" width="70" height="15" style="fill:none"/><line id="Line_4" data-name="Line 4" x1="41.7" y1="62.5" x2="50.1" y2="62.5" style="fill:none;stroke:#19a301;stroke-linecap:round;stroke-linejoin:round;stroke-width:2.4000000953674316px"/><line id="Line_5" data-name="Line 5" x1="58.4" y1="62.5" x2="59.1" y2="62.5" style="fill:none;stroke:#19a301;stroke-linecap:round;stroke-linejoin:round;stroke-width:2.4000000953674316px"/><line id="Line_6" data-name="Line 6" x1="10.9" y1="62.5" x2="19.2" y2="62.5" style="fill:none;stroke:#19a301;stroke-linecap:round;stroke-linejoin:round;stroke-width:2.4000000953674316px"/><line id="Line_7" data-name="Line 7" x1="18.7" y1="62.5" x2="33.3" y2="62.5" style="fill:none;stroke:#82d400;stroke-linecap:round;stroke-linejoin:round;stroke-width:2.4000000953674316px"/><g id="Grupo_24551" data-name="Grupo 24551"><rect id="Rectángulo_7860" data-name="Rectángulo 7860" width="70" height="70" style="fill:none"/></g><rect id="Rectángulo_7861" data-name="Rectángulo 7861" y="55" width="70" height="15" style="fill:none"/><line id="Line_4-2" data-name="Line 4-2" x1="41.7" y1="62.5" x2="50.1" y2="62.5" style="fill:none;stroke:#19a301;stroke-linecap:round;stroke-linejoin:round;stroke-width:2.4000000953674316px"/><line id="Line_5-2" data-name="Line 5-2" x1="58.4" y1="62.5" x2="59.1" y2="62.5" style="fill:none;stroke:#19a301;stroke-linecap:round;stroke-linejoin:round;stroke-width:2.4000000953674316px"/><line id="Line_6-2" data-name="Line 6-2" x1="10.9" y1="62.5" x2="19.2" y2="62.5" style="fill:none;stroke:#19a301;stroke-linecap:round;stroke-linejoin:round;stroke-width:2.4000000953674316px"/><line id="Line_7-2" data-name="Line 7-2" x1="18.7" y1="62.5" x2="33.3" y2="62.5" style="fill:none;stroke:#82d400;stroke-linecap:round;stroke-linejoin:round;stroke-width:2.4000000953674316px"/><path id="Trazado_29424" data-name="Trazado 29424" d="M27.2,11.7a4.66,4.66,0,0,0-1.3-3.3,4.88,4.88,0,1,0,1.3,3.3Z" style="fill:none;stroke:#19a301;stroke-linecap:round;stroke-linejoin:round;stroke-width:1.5px"/><path id="Trazado_29425" data-name="Trazado 29425" d="M46,10.8V18h6.6" style="fill:none;stroke:#000;stroke-linecap:round;stroke-linejoin:round;stroke-width:1.5px"/><path id="Trazado_29426" data-name="Trazado 29426" d="M20,20.4v21a9.38,9.38,0,0,0,9.38,9.4H52.7V18" style="fill:none;stroke:#000;stroke-linecap:round;stroke-linejoin:round;stroke-width:1.5px"/><path id="Trazado_29427" data-name="Trazado 29427" d="M52.6,17.8l-6.7-7.5h-15" style="fill:none;stroke:#000;stroke-linecap:round;stroke-linejoin:round;stroke-width:1.5px"/><g id="Grupo_24552" data-name="Grupo 24552"><path id="Rectángulo_7862" data-name="Rectángulo 7862" d="M28.39,27.77h3.38v5.09H28.39a2.55,2.55,0,0,1-2.55-2.54h0A2.55,2.55,0,0,1,28.39,27.77Z" style="fill:none;stroke:#000;stroke-linecap:round;stroke-linejoin:round;stroke-width:1.5px"/><path id="Trazado_29428" data-name="Trazado 29428" d="M31.77,32.86l11.82,5V22.77l-11.82,5Z" style="fill:none;stroke:#000;stroke-linecap:round;stroke-linejoin:round;stroke-width:1.5px"/><path id="Trazado_29429" data-name="Trazado 29429" d="M43.59,33.58a3.27,3.27,0,0,0,0-6.53h0" style="fill:none;stroke:#000;stroke-linecap:round;stroke-linejoin:round;stroke-width:1.5px"/><path id="Trazado_29430" data-name="Trazado 29430" d="M28.8,33.08v6.61a1.49,1.49,0,0,0,1.48,1.49h0a1.49,1.49,0,0,0,1.48-1.49V32.86" style="fill:none;stroke:#000;stroke-linecap:round;stroke-linejoin:round;stroke-width:1.5px"/></g></svg>