<svg id="Capa_1" data-name="Capa 1" xmlns="http://www.w3.org/2000/svg" xmlns:xlink="http://www.w3.org/1999/xlink" viewBox="0 0 70 70"><defs><symbol id="OCENSA-EXT" data-name="OCENSA-EXT" viewBox="0 0 70 15"><line id="Line_4" data-name="Line 4" x1="41.68" y1="7.5" x2="50.05" y2="7.5" style="fill:none;stroke:#19a301;stroke-linecap:round;stroke-linejoin:round;stroke-width:2.40000009536743px"/><line id="Line_5" data-name="Line 5" x1="58.4" y1="7.5" x2="59.08" y2="7.5" style="fill:none;stroke:#19a301;stroke-linecap:round;stroke-linejoin:round;stroke-width:2.40000009536743px"/><line id="Line_6" data-name="Line 6" x1="10.92" y1="7.5" x2="19.21" y2="7.5" style="fill:none;stroke:#19a301;stroke-linecap:round;stroke-linejoin:round;stroke-width:2.40000009536743px"/><line id="Line_7" data-name="Line 7" x1="18.67" y1="7.5" x2="33.3" y2="7.5" style="fill:none;stroke:#82d400;stroke-linecap:round;stroke-linejoin:round;stroke-width:2.40000009536743px"/><rect width="70" height="15" style="fill:none"/></symbol></defs><title>icon</title><rect width="70" height="70" style="fill:none"/><circle id="Ellipse_2" data-name="Ellipse 2" cx="20.15" cy="14.64" r="5.8" style="fill:none;stroke:#19a301;stroke-linecap:round;stroke-linejoin:round;stroke-width:1.5px"/><path d="M19.15,23.76V45.51a8.36,8.36,0,0,0,8.36,8.36H55.65V16.25L48.32,8.79H28.09" style="fill:none;stroke:#000;stroke-linecap:round;stroke-linejoin:round;stroke-width:1.5px"/><polyline points="48.17 8.79 48.17 16.83 55.54 16.83" style="fill:none;stroke:#000;stroke-linecap:round;stroke-linejoin:round;stroke-width:1.5px"/><line x1="28.11" y1="38.77" x2="47.16" y2="38.77" style="fill:none;stroke:#000;stroke-linecap:round;stroke-linejoin:round;stroke-width:1.5px"/><line x1="28.11" y1="44.77" x2="47.16" y2="44.77" style="fill:none;stroke:#000;stroke-linecap:round;stroke-linejoin:round;stroke-width:1.5px"/><polyline points="28.11 27.79 28.11 31.33 47.16 31.33 47.16 27.79" style="fill:none;stroke:#000;stroke-linecap:round;stroke-linejoin:round;stroke-width:1.5px"/><line x1="37.64" y1="17.83" x2="37.64" y2="25.74" style="fill:none;stroke:#000;stroke-linecap:round;stroke-linejoin:round;stroke-width:1.5px"/><polyline points="32.89 23.51 37.64 26.7 42.09 23.51" style="fill:none;stroke:#000;stroke-linecap:round;stroke-linejoin:round;stroke-width:1.5px"/><use width="70" height="15" transform="translate(0 55)" xlink:href="#OCENSA-EXT"/></svg>