<svg id="Grupo_24567" data-name="Grupo 24567" xmlns="http://www.w3.org/2000/svg" width="70" height="70" viewBox="0 0 70 70">
  <g id="Grupo_24571" data-name="Grupo 24571">
    <g id="Grupo_24567-2" data-name="Grupo 24567">
      <path id="Trazado_29441" data-name="Trazado 29441" d="M64.982,42.731c0,3.187-5.77,11.031-5.77,11.031s-5.77-7.844-5.77-11.031a5.77,5.77,0,0,1,11.54,0Z" fill="none" stroke="#fff" stroke-linecap="round" stroke-linejoin="round" stroke-width="1.5"/>
      <circle id="Elipse_3223" data-name="Elipse 3223" cx="1.771" cy="1.771" r="1.771" transform="translate(57.442 40.786)" fill="none" stroke="#fff" stroke-linecap="round" stroke-linejoin="round" stroke-width="1.5"/>
    </g>
    <g id="Grupo_24570" data-name="Grupo 24570">
      <g id="Grupo_24568" data-name="Grupo 24568">
        <path id="Trazado_29442" data-name="Trazado 29442" d="M17.91,8.592a3.417,3.417,0,1,1-4.528-1.687A3.407,3.407,0,0,1,17.91,8.592Z" fill="none" stroke="#19a301" stroke-linecap="round" stroke-linejoin="round" stroke-width="1.5" opacity="0.85"/>
        <path id="Trazado_29443" data-name="Trazado 29443" d="M45.922,32.262V20.025a1.06,1.06,0,0,0-1.059-1.06H12.029A1.228,1.228,0,0,0,10.8,20.192v11.33" fill="none" stroke="#fff" stroke-linecap="round" stroke-linejoin="round" stroke-width="1.5"/>
        <line id="Línea_3955" data-name="Línea 3955" x1="16.076" y2="0.003" transform="translate(10.803 22.776)" fill="none" stroke="#fff" stroke-linecap="round" stroke-linejoin="round" stroke-width="1.5"/>
        <line id="Línea_3956" data-name="Línea 3956" y2="9.512" transform="translate(20.272 22.766)" fill="none" stroke="#fff" stroke-linecap="round" stroke-linejoin="round" stroke-width="1.5"/>
        <line id="Línea_3957" data-name="Línea 3957" x1="5.429" transform="translate(14.839 26)" fill="none" stroke="#fff" stroke-linecap="round" stroke-linejoin="round" stroke-width="1.5"/>
        <line id="Línea_3958" data-name="Línea 3958" x1="5.429" transform="translate(14.846 29.367)" fill="none" stroke="#fff" stroke-linecap="round" stroke-linejoin="round" stroke-width="1.5"/>
        <line id="Línea_3959" data-name="Línea 3959" y2="11.41" transform="translate(14.821 22.766)" fill="none" stroke="#fff" stroke-linecap="round" stroke-linejoin="round" stroke-width="1.5"/>
        <line id="Línea_3960" data-name="Línea 3960" y2="15.539" transform="translate(26.898 19.007)" fill="none" stroke="#fff" stroke-linecap="round" stroke-linejoin="round" stroke-width="1.5"/>
        <path id="Trazado_29444" data-name="Trazado 29444" d="M14.933,16.086v2.87h26.3V10.308a1.075,1.075,0,0,0-1.075-1.075H21.139" fill="none" stroke="#fff" stroke-linecap="round" stroke-linejoin="round" stroke-width="1.5"/>
        <path id="Rectángulo_7869" data-name="Rectángulo 7869" d="M1.02,0H12.208a.882.882,0,0,1,.882.882v3.3a0,0,0,0,1,0,0H0a0,0,0,0,1,0,0V1.02A1.02,1.02,0,0,1,1.02,0Z" transform="translate(23.669 5.051)" fill="none" stroke="#fff" stroke-linecap="round" stroke-linejoin="round" stroke-width="1.5"/>
        <line id="Línea_3961" data-name="Línea 3961" x2="20.45" transform="translate(20.819 12.857)" fill="none" stroke="#fff" stroke-linecap="round" stroke-linejoin="round" stroke-width="1.5"/>
      </g>
      <g id="Grupo_24569" data-name="Grupo 24569">
        <path id="Trazado_29445" data-name="Trazado 29445" d="M49.817,34.582c-2.8,0-2.8-2.735-5.6-2.735s-2.8,2.735-5.6,2.735-2.8-2.735-5.6-2.735-2.8,2.735-5.6,2.735-2.8-2.735-5.6-2.735-2.8,2.735-5.6,2.735-2.8-2.735-5.605-2.735-2.8,2.735-5.605,2.735" fill="none" stroke="#fff" stroke-linecap="round" stroke-linejoin="round" stroke-width="1.5"/>
      </g>
    </g>
    <path id="Trazado_29446" data-name="Trazado 29446" d="M15.961,39V52.255H52.472" fill="none" stroke="#fff" stroke-linecap="round" stroke-linejoin="round" stroke-width="1.5" stroke-dasharray="4.257"/>
  </g>
  <g id="Grupo_24574" data-name="Grupo 24574">
    <g id="Grupo_24573" data-name="Grupo 24573">
      <g id="Grupo_24572" data-name="Grupo 24572">
        <line id="Line_4" data-name="Line 4" x2="8.375" transform="translate(41.677 62.5)" fill="none" stroke="#19a301" stroke-linecap="round" stroke-linejoin="round" stroke-width="2.4"/>
        <line id="Line_5" data-name="Line 5" x2="0.679" transform="translate(58.405 62.5)" fill="none" stroke="#19a301" stroke-linecap="round" stroke-linejoin="round" stroke-width="2.4"/>
        <line id="Line_6" data-name="Line 6" x2="8.298" transform="translate(10.916 62.5)" fill="none" stroke="#19a301" stroke-linecap="round" stroke-linejoin="round" stroke-width="2.4"/>
        <line id="Line_7" data-name="Line 7" x2="14.628" transform="translate(18.674 62.5)" fill="none" stroke="#82d400" stroke-linecap="round" stroke-linejoin="round" stroke-width="2.4"/>
      </g>
      <rect id="Rectángulo_7870" data-name="Rectángulo 7870" width="70" height="15" transform="translate(0 55)" fill="none"/>
    </g>
  </g>
  <rect id="Rectángulo_7871" data-name="Rectángulo 7871" width="70" height="70" fill="none"/>
</svg>
