<svg id="Capa_1" data-name="Capa 1" xmlns="http://www.w3.org/2000/svg" xmlns:xlink="http://www.w3.org/1999/xlink" viewBox="0 0 70 70"><defs><symbol id="OCENSA-EXT" data-name="OCENSA-EXT" viewBox="0 0 70 15"><line id="Line_4" data-name="Line 4" x1="41.68" y1="7.5" x2="50.05" y2="7.5" style="fill:none;stroke:#19a301;stroke-linecap:round;stroke-linejoin:round;stroke-width:2.40000009536743px"/><line id="Line_5" data-name="Line 5" x1="58.4" y1="7.5" x2="59.08" y2="7.5" style="fill:none;stroke:#19a301;stroke-linecap:round;stroke-linejoin:round;stroke-width:2.40000009536743px"/><line id="Line_6" data-name="Line 6" x1="10.92" y1="7.5" x2="19.21" y2="7.5" style="fill:none;stroke:#19a301;stroke-linecap:round;stroke-linejoin:round;stroke-width:2.40000009536743px"/><line id="Line_7" data-name="Line 7" x1="18.67" y1="7.5" x2="33.3" y2="7.5" style="fill:none;stroke:#82d400;stroke-linecap:round;stroke-linejoin:round;stroke-width:2.40000009536743px"/><rect width="70" height="15" style="fill:none"/></symbol></defs><title>icon</title><use width="70" height="15" transform="translate(0 55)" xlink:href="#OCENSA-EXT"/><rect width="70" height="70" style="fill:none"/><circle id="Ellipse_2" data-name="Ellipse 2" cx="48.39" cy="44.64" r="5.8" style="fill:none;stroke:#19a301;stroke-linecap:round;stroke-linejoin:round;stroke-width:1.5px"/><polyline points="53.07 37.56 56.82 34.5 54.95 31.55 50.55 34.93 46.23 28.31 49.26 24.35 43.07 17.94 29.82 29.1 23.19 29.1 21.46 24.78 25.21 14.05 22.69 8.86 17.5 11.1 18.22 21.18 16.28 19.02 13.18 23.34 21.03 31.98 15.12 34.5 17.5 44.94 24.56 44.44 25.82 54 31.82 54 33.13 51.49 37.74 55.1 40.4 52.29 43.87 51.69" style="fill:none;stroke:#fff;stroke-linecap:round;stroke-linejoin:round;stroke-width:1.5px"/></svg>