<svg id="Capa_1" data-name="Capa 1" xmlns="http://www.w3.org/2000/svg" xmlns:xlink="http://www.w3.org/1999/xlink" viewBox="0 0 70 70"><defs><symbol id="OCENSA-EXT" data-name="OCENSA-EXT" viewBox="0 0 70 15"><line id="Line_4" data-name="Line 4" x1="41.68" y1="7.5" x2="50.05" y2="7.5" style="fill:none;stroke:#19a301;stroke-linecap:round;stroke-linejoin:round;stroke-width:2.40000009536743px"/><line id="Line_5" data-name="Line 5" x1="58.4" y1="7.5" x2="59.08" y2="7.5" style="fill:none;stroke:#19a301;stroke-linecap:round;stroke-linejoin:round;stroke-width:2.40000009536743px"/><line id="Line_6" data-name="Line 6" x1="10.92" y1="7.5" x2="19.21" y2="7.5" style="fill:none;stroke:#19a301;stroke-linecap:round;stroke-linejoin:round;stroke-width:2.40000009536743px"/><line id="Line_7" data-name="Line 7" x1="18.67" y1="7.5" x2="33.3" y2="7.5" style="fill:none;stroke:#82d400;stroke-linecap:round;stroke-linejoin:round;stroke-width:2.40000009536743px"/><rect width="70" height="15" style="fill:none"/></symbol></defs><title>icon</title><circle id="Ellipse_2" data-name="Ellipse 2" cx="20.8" cy="14.94" r="5.8" style="fill:none;stroke:#19a301;stroke-linecap:round;stroke-linejoin:round;stroke-width:1.5px"/><polyline points="38.53 50.73 20.16 50.73 20.16 24" style="fill:none;stroke:#000;stroke-linecap:round;stroke-linejoin:round;stroke-width:1.5px"/><polyline points="29.01 10.43 51.72 10.43 51.72 38.24" style="fill:none;stroke:#000;stroke-linecap:round;stroke-linejoin:round;stroke-width:1.5px"/><path d="M37,45.45a9,9,0,0,1,18,0" style="fill:none;stroke:#000;stroke-linecap:round;stroke-linejoin:round;stroke-width:1.5px"/><path d="M55,45.45a9,9,0,0,1-18,0" style="fill:none;stroke:#000;stroke-linecap:round;stroke-linejoin:round;stroke-width:1.5px"/><polyline points="46.01 39.34 46.01 45.09 50.45 48.91" style="fill:none;stroke:#000;stroke-linecap:round;stroke-linejoin:round;stroke-width:1.5px"/><line x1="26.05" y1="31.75" x2="34.21" y2="31.75" style="fill:none;stroke:#000;stroke-linecap:round;stroke-linejoin:round;stroke-width:1.5px"/><line x1="26.05" y1="36.94" x2="31.14" y2="36.94" style="fill:none;stroke:#000;stroke-linecap:round;stroke-linejoin:round;stroke-width:1.5px"/><line x1="26.05" y1="41.81" x2="31.14" y2="41.81" style="fill:none;stroke:#000;stroke-linecap:round;stroke-linejoin:round;stroke-width:1.5px"/><line x1="25.62" y1="25.83" x2="47.15" y2="25.83" style="fill:none;stroke:#000;stroke-linecap:round;stroke-linejoin:round;stroke-width:1.5px"/><line x1="28.62" y1="19.74" x2="47.15" y2="19.74" style="fill:none;stroke:#000;stroke-linecap:round;stroke-linejoin:round;stroke-width:1.5px"/><rect width="70" height="70" style="fill:none"/><use width="70" height="15" transform="translate(0 55)" xlink:href="#OCENSA-EXT"/></svg>