<svg id="Capa_1" data-name="Capa 1" xmlns="http://www.w3.org/2000/svg" xmlns:xlink="http://www.w3.org/1999/xlink" viewBox="0 0 70 70"><defs><symbol id="OCENSA-EXT" data-name="OCENSA-EXT" viewBox="0 0 70 15"><line id="Line_4" data-name="Line 4" x1="41.68" y1="7.5" x2="50.05" y2="7.5" style="fill:none;stroke:#19a301;stroke-linecap:round;stroke-linejoin:round;stroke-width:2.40000009536743px"/><line id="Line_5" data-name="Line 5" x1="58.4" y1="7.5" x2="59.08" y2="7.5" style="fill:none;stroke:#19a301;stroke-linecap:round;stroke-linejoin:round;stroke-width:2.40000009536743px"/><line id="Line_6" data-name="Line 6" x1="10.92" y1="7.5" x2="19.21" y2="7.5" style="fill:none;stroke:#19a301;stroke-linecap:round;stroke-linejoin:round;stroke-width:2.40000009536743px"/><line id="Line_7" data-name="Line 7" x1="18.67" y1="7.5" x2="33.3" y2="7.5" style="fill:none;stroke:#82d400;stroke-linecap:round;stroke-linejoin:round;stroke-width:2.40000009536743px"/><rect width="70" height="15" style="fill:none"/></symbol></defs><title>icon</title><use width="70" height="15" transform="translate(0 55)" xlink:href="#OCENSA-EXT"/><rect width="70" height="70" style="fill:none"/><circle id="Ellipse_2" data-name="Ellipse 2" cx="24.05" cy="22.64" r="5.8" style="fill:none;stroke:#19a301;stroke-linecap:round;stroke-linejoin:round;stroke-width:1.5px"/><polyline points="21.44 30.67 20.87 33.27 19.21 32.44 14.41 37.24 12.38 35.58 9.61 39.18 10.53 40.29 10.07 42.04 8.59 42.04 7.95 45 9.42 48.69 14.04 54.42 22.17 51.65 25.21 52.38 29 48.78 42.48 43.15 43.77 39.46 47.74 37.06 47.74 35.3 54.02 32.26 56.33 32.26 62.05 24.78 60.85 23.39 58.45 22.84 56.7 20.16 51.8 20.16 50.33 21.45 41.92 21.09 38.6 19.98 32.39 21.1" style="fill:none;stroke:#000;stroke-linecap:round;stroke-linejoin:round;stroke-width:1.5px"/></svg>