<svg xmlns="http://www.w3.org/2000/svg" width="126.358" height="48.176" viewBox="0 0 126.358 48.176">
  <path id="Trazado_29347" data-name="Trazado 29347" d="M-13554.685,2691.449c6.122-.581,12.429-1.664,13.739,0s1.645,1.639,8.13,2.214,11.366,5.322,11.274,6.771-1.588,3.33,1.789,5.778,5.173,4.153,7.938,3.533,10.891-2.52,11.793,0,1.139,9.979,3.44,10.75,3.284,1.329,11.219,0,14.031-.775,17.093,1.658,3.959,2.489,4.509,5.361,1.365,2.6,6.068,2.442,6.526,1.332,13.3,1.018,8.418.232,9.936,1.749,3.465,1.884,3.866,3.99" transform="translate(13555.774 -2689.706)" fill="none" stroke="#2cfffe" stroke-linecap="round" stroke-width="2"/>
</svg>
