<svg xmlns="http://www.w3.org/2000/svg" width="375.302" height="58.283" viewBox="0 0 375.302 58.283">
  <path id="Trazado_29346" data-name="Trazado 29346" d="M-13703.1,3175.713a25.243,25.243,0,0,0-14.65-1.631c-8.481,1.495-10.706,6.756-20.875,2.671s-10.281-7.929-16.909-7.52-1.433,1.567-13.555,1.567-11.306-1.957-17.783-4.04-8.206-6.44-18.781-2.974-13.452.705-22.021,2.974-13.38,3.431-18.831,5.963-1.79,2.349-11.333,5.584-12.69,3.424-16.021,9.4-8.306,7.587-5.894,11.989.248,7.726-3.635,9.227-9.565.37-13.359,0-11.827-9.013-17.72-8.093-11.957,1.153-15.718,2.605-7.619,2.377-22.212,5.488-18.628-1.462-30.435-1.9-13.428-4.133-23.284-2.382a180.6,180.6,0,0,1-18.851,2.382c-5.841.589-16.927.932-25.024,4.509s-20.713,3.2-25.669,6.857" transform="translate(14077.058 -3161.498)" fill="none" stroke="#2cfffe" stroke-linecap="round" stroke-width="2"/>
</svg>
