<svg xmlns="http://www.w3.org/2000/svg" width="70" height="70" viewBox="0 0 70 70">
  <g id="Group_22611" data-name="Group 22611" transform="translate(-96 -190)">
    <g id="Group_22612" data-name="Group 22612">
      <g id="Group_22611-2" data-name="Group 22611">
        <line id="Line_4" data-name="Line 4" x2="8.375" transform="translate(137.677 252.5)" fill="none" stroke="#19a301" stroke-linecap="round" stroke-linejoin="round" stroke-width="2.4"/>
        <line id="Line_5" data-name="Line 5" x2="0.679" transform="translate(154.405 252.5)" fill="none" stroke="#19a301" stroke-linecap="round" stroke-linejoin="round" stroke-width="2.4"/>
        <line id="Line_6" data-name="Line 6" x2="8.298" transform="translate(106.916 252.5)" fill="none" stroke="#19a301" stroke-linecap="round" stroke-linejoin="round" stroke-width="2.4"/>
        <line id="Line_7" data-name="Line 7" x2="14.628" transform="translate(114.674 252.5)" fill="none" stroke="#82d400" stroke-linecap="round" stroke-linejoin="round" stroke-width="2.4"/>
      </g>
      <rect id="Rectangle_6983" data-name="Rectangle 6983" width="70" height="15" transform="translate(96 245)" fill="none"/>
    </g>
    <circle id="Ellipse_2" data-name="Ellipse 2" cx="5.795" cy="5.795" r="5.795" transform="translate(109.405 199.405)" fill="none" stroke="#19a301" stroke-linecap="round" stroke-linejoin="round" stroke-width="1.5"/>
    <rect id="Rectangle_6984" data-name="Rectangle 6984" width="9.125" height="4.631" rx="0.722" transform="translate(125.823 198)" fill="none" stroke="#000" stroke-linecap="round" stroke-linejoin="round" stroke-width="1.5"/>
    <path id="Path_28736" data-name="Path 28736" d="M118.388,213.644v1.966h-1.212a1.5,1.5,0,0,0-1.5,1.5v.713a1.5,1.5,0,0,0,1.5,1.5h1.212v7.2h-1.212a1.5,1.5,0,0,0-1.5,1.5v.713a1.5,1.5,0,0,0,1.5,1.5h1.212v9.267h25.52v-9.267h1.212a1.5,1.5,0,0,0,1.5-1.5v-.713a1.5,1.5,0,0,0-1.5-1.5h-1.212v-7.2h1.212a1.5,1.5,0,0,0,1.5-1.5v-.713a1.5,1.5,0,0,0-1.5-1.5h-1.212v-8.554H125.133" fill="none" stroke="#000" stroke-linecap="round" stroke-linejoin="round" stroke-width="1.5"/>
    <rect id="Rectangle_6985" data-name="Rectangle 6985" width="30.938" height="4.425" rx="1.687" transform="translate(115.679 239.491)" fill="none" stroke="#000" stroke-linecap="round" stroke-linejoin="round" stroke-width="1.5"/>
    <path id="Path_28737" data-name="Path 28737" d="M123.809,202.631h21.712a1.1,1.1,0,0,1,1.1,1.1v2.234a1.1,1.1,0,0,1-1.1,1.1h-21.36" fill="none" stroke="#000" stroke-linecap="round" stroke-linejoin="round" stroke-width="1.5"/>
    <g id="Group_22613" data-name="Group 22613">
      <path id="Path_28738" data-name="Path 28738" d="M127.479,219.451a1.552,1.552,0,0,1-2.309-.021,2.064,2.064,0,0,1-.445-1.381,2.28,2.28,0,0,1,.226-1.02,1.7,1.7,0,0,1,.645-.711,1.83,1.83,0,0,1,.968-.254,1.644,1.644,0,0,1,1.364.641,2.7,2.7,0,0,1,.5,1.715v.266a3.5,3.5,0,0,1-.7,2.347,2.616,2.616,0,0,1-2.074.821h-.113v-.786h.137a1.936,1.936,0,0,0,1.289-.4A1.69,1.69,0,0,0,127.479,219.451Zm-.915-.238a.96.96,0,0,0,.536-.164,1.077,1.077,0,0,0,.386-.453v-.371a1.79,1.79,0,0,0-.257-1.012.778.778,0,0,0-.668-.383.767.767,0,0,0-.655.338,1.427,1.427,0,0,0-.244.853,1.405,1.405,0,0,0,.246.864A.779.779,0,0,0,126.564,219.213Z"/>
      <path id="Path_28739" data-name="Path 28739" d="M133.158,221.83h-3.824v-.652l1.9-2.067a4.664,4.664,0,0,0,.583-.763,1.227,1.227,0,0,0,.174-.616.937.937,0,0,0-.228-.656.793.793,0,0,0-.615-.25.917.917,0,0,0-.715.281,1.11,1.11,0,0,0-.254.77h-.949a1.868,1.868,0,0,1,.236-.936,1.627,1.627,0,0,1,.676-.646,2.158,2.158,0,0,1,1.013-.231,1.923,1.923,0,0,1,1.307.416,1.447,1.447,0,0,1,.479,1.151,1.952,1.952,0,0,1-.241.892,5.039,5.039,0,0,1-.787,1.061l-1.39,1.488h2.64Z"/>
      <path id="Path_28740" data-name="Path 28740" d="M137.588,219.436a3.093,3.093,0,0,1-.459,1.849,1.623,1.623,0,0,1-1.4.623,1.641,1.641,0,0,1-1.388-.607,2.974,2.974,0,0,1-.479-1.8v-.984a3.062,3.062,0,0,1,.459-1.84,1.912,1.912,0,0,1,2.793-.016,2.958,2.958,0,0,1,.471,1.789Zm-.949-1.063a2.4,2.4,0,0,0-.219-1.174.836.836,0,0,0-1.379-.019,2.221,2.221,0,0,0-.23,1.1v1.289a2.477,2.477,0,0,0,.222,1.188.747.747,0,0,0,.7.39.733.733,0,0,0,.676-.361,2.312,2.312,0,0,0,.231-1.131Z"/>
    </g>
    <g id="Group_22614" data-name="Group 22614">
      <path id="Path_28741" data-name="Path 28741" d="M123.292,227.494l-.369.379v1.207h-.831v-5.25h.831v3.028l.259-.325,1.022-1.151h1l-1.374,1.542,1.521,2.156h-.96Z"/>
      <path id="Path_28742" data-name="Path 28742" d="M125.53,227.2a2.156,2.156,0,0,1,.406-1.375,1.3,1.3,0,0,1,1.074-.515,1.221,1.221,0,0,1,1,.441l.038-.372h.748v3.585a1.486,1.486,0,0,1-.453,1.148,1.722,1.722,0,0,1-1.222.421,1.986,1.986,0,0,1-.795-.169,1.416,1.416,0,0,1-.589-.443l.393-.5a1.189,1.189,0,0,0,.944.454.912.912,0,0,0,.652-.224.857.857,0,0,0,.24-.658v-.25a1.219,1.219,0,0,1-.957.4,1.293,1.293,0,0,1-1.061-.515A2.233,2.233,0,0,1,125.53,227.2Zm.828.072a1.487,1.487,0,0,0,.227.877.731.731,0,0,0,.631.32.8.8,0,0,0,.745-.431v-1.627a.79.79,0,0,0-.739-.42.735.735,0,0,0-.637.324A1.666,1.666,0,0,0,126.358,227.275Z"/>
      <path id="Path_28743" data-name="Path 28743" d="M129.878,229.508h-.653l1.959-5.4h.653Z"/>
      <path id="Path_28744" data-name="Path 28744" d="M133.194,225.382l.023.386a1.333,1.333,0,0,1,1.067-.455,1.022,1.022,0,0,1,1.015.568,1.313,1.313,0,0,1,1.135-.568,1.151,1.151,0,0,1,.91.339,1.487,1.487,0,0,1,.307,1v2.43h-.831v-2.406a.734.734,0,0,0-.154-.516.673.673,0,0,0-.509-.164.687.687,0,0,0-.463.152.792.792,0,0,0-.251.4l0,2.536h-.831v-2.434a.591.591,0,0,0-.666-.652.732.732,0,0,0-.708.406v2.68h-.83v-3.7Z"/>
      <path id="Path_28745" data-name="Path 28745" d="M139.172,225.724h.392a.7.7,0,0,0,.471-.155.549.549,0,0,0,.173-.437.6.6,0,0,0-.144-.427.579.579,0,0,0-.441-.153.615.615,0,0,0-.427.15.5.5,0,0,0-.167.39h-.644a.975.975,0,0,1,.158-.54,1.059,1.059,0,0,1,.44-.381,1.443,1.443,0,0,1,.632-.136,1.326,1.326,0,0,1,.907.29,1.017,1.017,0,0,1,.33.807.824.824,0,0,1-.165.49,1.043,1.043,0,0,1-.428.346.949.949,0,0,1,.484.341.938.938,0,0,1,.165.557,1.04,1.04,0,0,1-.356.827,1.566,1.566,0,0,1-1.849.01.975.975,0,0,1-.355-.79h.644a.539.539,0,0,0,.171.414.648.648,0,0,0,.46.159.666.666,0,0,0,.471-.159.6.6,0,0,0,.173-.461.607.607,0,0,0-.181-.47.771.771,0,0,0-.535-.163h-.379Z"/>
    </g>
    <rect id="Rectangle_6986" data-name="Rectangle 6986" width="70" height="70" transform="translate(96 190)" fill="none"/>
  </g>
</svg>
