<svg xmlns="http://www.w3.org/2000/svg" width="70" height="70" viewBox="0 0 70 70">
  <g id="Group_22353" data-name="Group 22353" transform="translate(0 180)">
    <g id="Group_22109" data-name="Group 22109">
      <g id="Group_22108" data-name="Group 22108">
        <line id="Line_4" data-name="Line 4" x2="8.375" transform="translate(41.677 -117.5)" fill="none" stroke="#19a301" stroke-linecap="round" stroke-linejoin="round" stroke-width="2.4"/>
        <line id="Line_5" data-name="Line 5" x2="0.679" transform="translate(58.405 -117.5)" fill="none" stroke="#19a301" stroke-linecap="round" stroke-linejoin="round" stroke-width="2.4"/>
        <line id="Line_6" data-name="Line 6" x2="8.298" transform="translate(10.916 -117.5)" fill="none" stroke="#19a301" stroke-linecap="round" stroke-linejoin="round" stroke-width="2.4"/>
        <line id="Line_7" data-name="Line 7" x2="14.628" transform="translate(18.674 -117.5)" fill="none" stroke="#82d400" stroke-linecap="round" stroke-linejoin="round" stroke-width="2.4"/>
      </g>
      <rect id="Rectangle_6740" data-name="Rectangle 6740" width="70" height="15" transform="translate(0 -125)" fill="none"/>
    </g>
    <rect id="Rectangle_6741" data-name="Rectangle 6741" width="70" height="70" transform="translate(0 -180)" fill="none"/>
    <g id="Group_22110" data-name="Group 22110">
      <circle id="Ellipse_2" data-name="Ellipse 2" cx="5.795" cy="5.795" r="5.795" transform="translate(6.507 -161.157)" fill="none" stroke="#19a301" stroke-linecap="round" stroke-linejoin="round" stroke-width="1.5"/>
      <rect id="Rectángulo_2137" data-name="Rectángulo 2137" width="17.581" height="20.911" transform="translate(40.351 -146.817)" fill="none" stroke="#fff" stroke-linecap="round" stroke-linejoin="round" stroke-width="1.5"/>
      <path id="Trazado_5455" data-name="Trazado 5455" d="M23.951-168.294H12.85v4" fill="none" stroke="#fff" stroke-linecap="round" stroke-linejoin="round" stroke-width="1.5"/>
      <path id="Trazado_5456" data-name="Trazado 5456" d="M12.85-146.184v20.278h11.1v-41.968" fill="none" stroke="#fff" stroke-linecap="round" stroke-linejoin="round" stroke-width="1.5"/>
      <path id="Path_28256" data-name="Path 28256" d="M23.937-146.816h5.984a4.02,4.02,0,0,1,3.856,4.158v5.983a4,4,0,0,0,3.842,4.145h2.594" fill="none" stroke="#fff" stroke-linecap="round" stroke-linejoin="round" stroke-width="1.5"/>
      <path id="Trazado_5459" data-name="Trazado 5459" d="M24.257-163.724h.684c2.832,0,5.125,1.858,5.125,4.151V-125.9" fill="none" stroke="#fff" stroke-linecap="round" stroke-linejoin="round" stroke-width="1.5"/>
      <line id="Línea_708" data-name="Línea 708" x1="55.426" transform="translate(8.067 -125.906)" fill="none" stroke="#fff" stroke-linecap="round" stroke-linejoin="round" stroke-width="1.659"/>
      <path id="Trazado_5460" data-name="Trazado 5460" d="M49.334-141.448c-.664,1.67-1.349,3.325-2.029,4.99-.544,1.328-1.2,2.776-.238,4.083a2.863,2.863,0,0,0,2.267,1.193A2.934,2.934,0,0,0,52-133.091c.482-1.2-.1-2.552-.617-3.621C50.76-138,49.287-141.334,49.334-141.448Z" fill="none" stroke="#fff" stroke-linecap="round" stroke-linejoin="round" stroke-width="1.5"/>
    </g>
  </g>
</svg>
