<svg xmlns="http://www.w3.org/2000/svg" width="70" height="70" viewBox="0 0 70 70">
  <g id="Group_23396" data-name="Group 23396" transform="translate(-118 -2371)">
    <g id="Group_22637" data-name="Group 22637" transform="translate(118 2464)">
      <g id="Group_22636" data-name="Group 22636">
        <line id="Line_4" data-name="Line 4" x2="8.375" transform="translate(41.677 -30.5)" fill="none" stroke="#19a301" stroke-linecap="round" stroke-linejoin="round" stroke-width="2.4"/>
        <line id="Line_5" data-name="Line 5" x2="0.679" transform="translate(58.405 -30.5)" fill="none" stroke="#19a301" stroke-linecap="round" stroke-linejoin="round" stroke-width="2.4"/>
        <line id="Line_6" data-name="Line 6" x2="8.298" transform="translate(10.916 -30.5)" fill="none" stroke="#19a301" stroke-linecap="round" stroke-linejoin="round" stroke-width="2.4"/>
        <line id="Line_7" data-name="Line 7" x2="14.628" transform="translate(18.674 -30.5)" fill="none" stroke="#82d400" stroke-linecap="round" stroke-linejoin="round" stroke-width="2.4"/>
      </g>
      <rect id="Rectangle_7000" data-name="Rectangle 7000" width="70" height="15" transform="translate(0 -38)" fill="none"/>
    </g>
    <g id="Group_22639" data-name="Group 22639" transform="translate(118.055 2464)">
      <g id="Group_22638" data-name="Group 22638">
        <circle id="Ellipse_2" data-name="Ellipse 2" cx="5.795" cy="5.795" r="5.795" transform="translate(18.256 -76.467)" fill="none" stroke="#19a301" stroke-linecap="round" stroke-linejoin="round" stroke-width="1.5"/>
        <path id="Path_28772" data-name="Path 28772" d="M32.4-72.21l6.2-1.12,3.33,1.1,8.4.37,1.48-1.29h4.89l1.76,2.68,2.4.55,1.2,1.39-5.73,7.48h-.24" fill="none" stroke="#000" stroke-linecap="round" stroke-linejoin="round" stroke-width="1.5"/>
        <path id="Path_28773" data-name="Path 28773" d="M21.445-62.64l-.57,2.6-1.67-.83-4.8,4.8-2.03-1.66L9.6-54.13l.93,1.11-.47,1.75H8.6l-.65,2.96,1.48,3.69,4.61,5.73,8.13-2.77,3.05.73L29-44.53l13.48-5.63,1.29-3.69,1.18-.72" fill="none" stroke="#000" stroke-linecap="round" stroke-linejoin="round" stroke-width="1.5"/>
      </g>
      <path id="Path_28774" data-name="Path 28774" d="M59.945-54.5c0,4.142-7.5,15.5-7.5,15.5s-7.5-11.358-7.5-15.5a7.5,7.5,0,0,1,7.5-7.5A7.5,7.5,0,0,1,59.945-54.5Z" fill="none" stroke="#000" stroke-linecap="round" stroke-linejoin="round" stroke-width="1.5"/>
      <circle id="Ellipse_3133" data-name="Ellipse 3133" cx="3.5" cy="3.5" r="3.5" transform="translate(48.945 -58)" fill="none" stroke="#000" stroke-linecap="round" stroke-linejoin="round" stroke-width="1.5"/>
    </g>
    <rect id="Rectangle_7001" data-name="Rectangle 7001" width="70" height="70" transform="translate(118 2371)" fill="none"/>
  </g>
</svg>
