<svg xmlns="http://www.w3.org/2000/svg" width="70" height="70" viewBox="0 0 70 70">
  <g id="Group_22444" data-name="Group 22444" transform="translate(270)">
    <g id="Group_22445" data-name="Group 22445">
      <g id="Group_22444-2" data-name="Group 22444">
        <line id="Line_4" data-name="Line 4" x2="8.375" transform="translate(-228.323 62.5)" fill="none" stroke="#19a301" stroke-linecap="round" stroke-linejoin="round" stroke-width="2.4"/>
        <line id="Line_5" data-name="Line 5" x2="0.679" transform="translate(-211.595 62.5)" fill="none" stroke="#19a301" stroke-linecap="round" stroke-linejoin="round" stroke-width="2.4"/>
        <line id="Line_6" data-name="Line 6" x2="8.298" transform="translate(-259.084 62.5)" fill="none" stroke="#19a301" stroke-linecap="round" stroke-linejoin="round" stroke-width="2.4"/>
        <line id="Line_7" data-name="Line 7" x2="14.628" transform="translate(-251.326 62.5)" fill="none" stroke="#82d400" stroke-linecap="round" stroke-linejoin="round" stroke-width="2.4"/>
      </g>
      <rect id="Rectangle_6909" data-name="Rectangle 6909" width="70" height="15" transform="translate(-270 55)" fill="none"/>
    </g>
    <rect id="Rectangle_6910" data-name="Rectangle 6910" width="70" height="70" transform="translate(-270)" fill="none"/>
    <circle id="Ellipse_2" data-name="Ellipse 2" cx="5.795" cy="5.795" r="5.795" transform="translate(-264.986 18.843)" fill="none" stroke="#19a301" stroke-linecap="round" stroke-linejoin="round" stroke-width="1.5"/>
    <rect id="Rectángulo_2137" data-name="Rectángulo 2137" width="17.581" height="20.911" transform="translate(-231.142 33.183)" fill="none" stroke="#000" stroke-linecap="round" stroke-linejoin="round" stroke-width="1.5"/>
    <path id="Trazado_5455" data-name="Trazado 5455" d="M-247.542,11.706h-11.1V15.7" fill="none" stroke="#000" stroke-linecap="round" stroke-linejoin="round" stroke-width="1.5"/>
    <path id="Trazado_5456" data-name="Trazado 5456" d="M-258.643,33.816V54.094h11.1V12.126" fill="none" stroke="#000" stroke-linecap="round" stroke-linejoin="round" stroke-width="1.5"/>
    <path id="Path_28563" data-name="Path 28563" d="M-247.556,33.184h5.983a4.021,4.021,0,0,1,3.857,4.158v5.983a4,4,0,0,0,3.842,4.145h2.594" fill="none" stroke="#000" stroke-linecap="round" stroke-linejoin="round" stroke-width="1.5"/>
    <path id="Trazado_5459" data-name="Trazado 5459" d="M-247.236,16.276h.684c2.832,0,5.125,1.858,5.125,4.151V54.1" fill="none" stroke="#000" stroke-linecap="round" stroke-linejoin="round" stroke-width="1.5"/>
    <line id="Línea_708" data-name="Línea 708" x1="55.426" transform="translate(-263.426 54.094)" fill="none" stroke="#000" stroke-linecap="round" stroke-linejoin="round" stroke-width="1.659"/>
    <path id="Trazado_5460" data-name="Trazado 5460" d="M-222.16,38.552c-.664,1.67-1.348,3.325-2.028,4.99-.545,1.328-1.2,2.776-.239,4.083a2.866,2.866,0,0,0,2.267,1.193,2.935,2.935,0,0,0,2.667-1.909c.482-1.2-.1-2.552-.618-3.621C-220.733,42-222.206,38.666-222.16,38.552Z" fill="none" stroke="#000" stroke-linecap="round" stroke-linejoin="round" stroke-width="1.5"/>
    <rect id="Rectangle_6911" data-name="Rectangle 6911" width="26.075" height="12.351" transform="translate(-235.389 14.376)" fill="none" stroke="#000" stroke-linecap="round" stroke-linejoin="round" stroke-width="1.5"/>
    <line id="Line_3079" data-name="Line 3079" y2="6.457" transform="translate(-222.115 26.727)" fill="none" stroke="#000" stroke-linecap="round" stroke-linejoin="round" stroke-width="1.5"/>
    <g id="Group_22446" data-name="Group 22446">
      <path id="Path_28564" data-name="Path 28564" d="M-226.368,22.188l.011.031a2.313,2.313,0,0,1-.762,1.814,2.906,2.906,0,0,1-2.067.73,2.714,2.714,0,0,1-2.128-.926,3.4,3.4,0,0,1-.822-2.348V20.12a3.414,3.414,0,0,1,.822-2.35,2.713,2.713,0,0,1,2.128-.928,2.986,2.986,0,0,1,2.078.7,2.3,2.3,0,0,1,.751,1.843l-.011.031h-1a1.717,1.717,0,0,0-.476-1.279,1.831,1.831,0,0,0-1.343-.471,1.643,1.643,0,0,0-1.391.7,2.867,2.867,0,0,0-.518,1.746v1.379a2.879,2.879,0,0,0,.518,1.756,1.641,1.641,0,0,0,1.391.7,1.838,1.838,0,0,0,1.343-.467,1.735,1.735,0,0,0,.476-1.293Z" stroke="#000" stroke-miterlimit="10" stroke-width="0.437"/>
      <path id="Path_28565" data-name="Path 28565" d="M-221.027,22.669h-2.9l-.687,1.983h-1.063l2.776-7.7h.894l2.717,7.7h-1.063Zm-2.6-.873h2.3l-1.121-3.305h-.032Z" stroke="#000" stroke-miterlimit="10" stroke-width="0.437"/>
      <path id="Path_28566" data-name="Path 28566" d="M-212.567,16.953v5.113a2.485,2.485,0,0,1-.825,1.983,3.133,3.133,0,0,1-2.126.714,2.951,2.951,0,0,1-2.051-.717,2.522,2.522,0,0,1-.8-1.98V16.953h1.042v5.113a1.855,1.855,0,0,0,.505,1.382,1.773,1.773,0,0,0,1.3.5,1.929,1.929,0,0,0,1.377-.5,1.8,1.8,0,0,0,.532-1.382V16.953Z" stroke="#000" stroke-miterlimit="10" stroke-width="0.437"/>
    </g>
  </g>
</svg>
