<svg id="Group_22471" data-name="Group 22471" xmlns="http://www.w3.org/2000/svg" width="70" height="70" viewBox="0 0 70 70">
  <g id="Group_22473" data-name="Group 22473">
    <g id="Group_22472" data-name="Group 22472">
      <g id="Group_22471-2" data-name="Group 22471">
        <line id="Line_4" data-name="Line 4" x2="8.375" transform="translate(41.677 62.5)" fill="none" stroke="#19a301" stroke-linecap="round" stroke-linejoin="round" stroke-width="2.4"/>
        <line id="Line_5" data-name="Line 5" x2="0.679" transform="translate(58.405 62.5)" fill="none" stroke="#19a301" stroke-linecap="round" stroke-linejoin="round" stroke-width="2.4"/>
        <line id="Line_6" data-name="Line 6" x2="8.298" transform="translate(10.916 62.5)" fill="none" stroke="#19a301" stroke-linecap="round" stroke-linejoin="round" stroke-width="2.4"/>
        <line id="Line_7" data-name="Line 7" x2="14.628" transform="translate(18.674 62.5)" fill="none" stroke="#82d400" stroke-linecap="round" stroke-linejoin="round" stroke-width="2.4"/>
      </g>
      <rect id="Rectangle_6929" data-name="Rectangle 6929" width="70" height="15" transform="translate(0 55)" fill="none"/>
    </g>
  </g>
  <rect id="Rectangle_6930" data-name="Rectangle 6930" width="70" height="70" fill="none"/>
  <g id="Group_22476" data-name="Group 22476">
    <rect id="Rectangle_6931" data-name="Rectangle 6931" width="34.267" height="6.789" rx="1.576" transform="translate(28.707 30.08)" fill="none" stroke="#000" stroke-linecap="round" stroke-linejoin="round" stroke-width="1.5"/>
    <path id="Path_28588" data-name="Path 28588" d="M32.167,27.773v2.281H60.228V12.209a2.6,2.6,0,0,0-2.6-2.6H34.643a3.067,3.067,0,0,0-2.476,1.413" fill="none" stroke="#000" stroke-linecap="round" stroke-linejoin="round" stroke-width="1.5"/>
    <line id="Line_3088" data-name="Line 3088" y1="0.001" x2="20.008" transform="translate(40.219 14.589)" fill="none" stroke="#000" stroke-linecap="round" stroke-linejoin="round" stroke-width="1.5"/>
    <line id="Line_3089" data-name="Line 3089" y2="15.457" transform="translate(47.329 14.623)" fill="none" stroke="#000" stroke-linecap="round" stroke-linejoin="round" stroke-width="1.5"/>
    <line id="Line_3090" data-name="Line 3090" x2="7.624" transform="translate(47.329 19.595)" fill="none" stroke="#000" stroke-linecap="round" stroke-linejoin="round" stroke-width="1.5"/>
    <line id="Line_3091" data-name="Line 3091" x2="7.624" transform="translate(47.329 25.108)" fill="none" stroke="#000" stroke-linecap="round" stroke-linejoin="round" stroke-width="1.5"/>
    <line id="Line_3092" data-name="Line 3092" y2="15.457" transform="translate(54.976 14.623)" fill="none" stroke="#000" stroke-linecap="round" stroke-linejoin="round" stroke-width="1.5"/>
    <path id="Path_28589" data-name="Path 28589" d="M17.942,21.636" fill="none" stroke="#000" stroke-linecap="round" stroke-linejoin="round" stroke-width="1.5"/>
    <path id="Path_28590" data-name="Path 28590" d="M32.589,16.643" fill="none" stroke="#000" stroke-linecap="round" stroke-linejoin="round" stroke-width="1.5"/>
    <path id="Path_28591" data-name="Path 28591" d="M16.143,28.354" fill="none" stroke="#000" stroke-linecap="round" stroke-linejoin="round" stroke-width="1.5"/>
    <path id="Path_28592" data-name="Path 28592" d="M27.576,35.073" fill="none" stroke="#000" stroke-linecap="round" stroke-linejoin="round" stroke-width="1.5"/>
    <g id="Group_22474" data-name="Group 22474">
      <path id="Path_28593" data-name="Path 28593" d="M17.875,49.921H6.662V44.11H17.875" fill="none" stroke="#000" stroke-linecap="round" stroke-linejoin="round" stroke-width="1.5"/>
      <path id="Path_28594" data-name="Path 28594" d="M21.547,44.11H33.741a3.605,3.605,0,0,0,3.6-3.6V36.869h5.812v3.639a9.423,9.423,0,0,1-9.413,9.413H21.547" fill="none" stroke="#000" stroke-linecap="round" stroke-linejoin="round" stroke-width="1.5"/>
    </g>
    <rect id="Rectangle_6932" data-name="Rectangle 6932" width="3.672" height="10.759" transform="translate(17.875 41.636)" fill="none" stroke="#000" stroke-linecap="round" stroke-linejoin="round" stroke-width="1.5"/>
    <path id="Path_28595" data-name="Path 28595" d="M24.661,34.665c-2.25,0-2.25-2.382-4.5-2.382s-2.249,2.382-4.5,2.382-2.251-2.382-4.5-2.382-2.25,2.382-4.5,2.382" fill="none" stroke="#000" stroke-linecap="round" stroke-linejoin="round" stroke-width="1.5"/>
    <g id="Group_22475" data-name="Group 22475">
      <path id="Path_28596" data-name="Path 28596" d="M57.821,49.921h5.517V44.11H57.821a3.605,3.605,0,0,1-3.6-3.6V36.869H48.408v3.639A9.423,9.423,0,0,0,57.821,49.921Z" fill="none" stroke="#000" stroke-linecap="round" stroke-linejoin="round" stroke-width="1.5"/>
    </g>
    <circle id="Ellipse_2" data-name="Ellipse 2" cx="5.795" cy="5.795" r="5.795" transform="translate(26.372 13.264)" fill="none" stroke="#19a301" stroke-linecap="round" stroke-linejoin="round" stroke-width="1.5"/>
  </g>
</svg>
