<svg id="Group_22653" data-name="Group 22653" xmlns="http://www.w3.org/2000/svg" width="70" height="70" viewBox="0 0 70 70">
  <g id="Group_22642" data-name="Group 22642">
    <g id="Group_22641" data-name="Group 22641">
      <g id="Group_22640" data-name="Group 22640">
        <line id="Line_4" data-name="Line 4" x2="8.375" transform="translate(41.677 62.5)" fill="none" stroke="#19a301" stroke-linecap="round" stroke-linejoin="round" stroke-width="2.4"/>
        <line id="Line_5" data-name="Line 5" x2="0.679" transform="translate(58.405 62.5)" fill="none" stroke="#19a301" stroke-linecap="round" stroke-linejoin="round" stroke-width="2.4"/>
        <line id="Line_6" data-name="Line 6" x2="8.298" transform="translate(10.916 62.5)" fill="none" stroke="#19a301" stroke-linecap="round" stroke-linejoin="round" stroke-width="2.4"/>
        <line id="Line_7" data-name="Line 7" x2="14.628" transform="translate(18.674 62.5)" fill="none" stroke="#82d400" stroke-linecap="round" stroke-linejoin="round" stroke-width="2.4"/>
      </g>
      <rect id="Rectangle_7002" data-name="Rectangle 7002" width="70" height="15" transform="translate(0 55)" fill="none"/>
    </g>
  </g>
  <g id="Group_22643" data-name="Group 22643">
    <path id="Path_28775" data-name="Path 28775" d="M29,30.936V24.5H41v24H29V46.447" fill="none" stroke="#000" stroke-linecap="round" stroke-linejoin="round" stroke-width="1.485"/>
    <rect id="Rectangle_7003" data-name="Rectangle 7003" width="40" height="6" transform="translate(15 48.5)" fill="none" stroke="#000" stroke-linecap="round" stroke-linejoin="round" stroke-width="1.5"/>
    <path id="Path_28776" data-name="Path 28776" d="M24.4,20.244a2.3,2.3,0,0,1-1.479-.725A2.464,2.464,0,0,1,24.787,15.4a6.883,6.883,0,0,1,.759.054s4.718.578,8.607,6.2c0,0-.219-.17-.607-.409a9.394,9.394,0,0,0-6.514-1.219A12.172,12.172,0,0,1,24.4,20.244Z" fill="none" stroke="#000" stroke-linecap="round" stroke-linejoin="round" stroke-width="1.5"/>
    <path id="Path_28777" data-name="Path 28777" d="M40.391,12.828a2.3,2.3,0,0,1,1.088-1.237,2.464,2.464,0,0,1,3.48,2.889,6.677,6.677,0,0,1-.251.717s-1.8,4.4-8.242,6.675a7.233,7.233,0,0,0,.555-.479A9.389,9.389,0,0,0,39.91,15.43,12.143,12.143,0,0,1,40.391,12.828Z" fill="none" stroke="#000" stroke-linecap="round" stroke-linejoin="round" stroke-width="1.5"/>
    <path id="Path_28778" data-name="Path 28778" d="M28.452,11.364a2.491,2.491,0,0,1-.69-1.65A2.675,2.675,0,0,1,32.235,7.69a7.507,7.507,0,0,1,.581.586s3.439,3.847,2.6,11.216a7.712,7.712,0,0,0-.2-.769,10.193,10.193,0,0,0-4.447-5.653A13.187,13.187,0,0,1,28.452,11.364Z" fill="none" stroke="#000" stroke-linecap="round" stroke-linejoin="round" stroke-width="1.5"/>
    <line id="Line_3156" data-name="Line 3156" x2="12" transform="translate(29 28.66)" fill="#fff" stroke="#000" stroke-linecap="round" stroke-linejoin="round" stroke-width="1.5"/>
    <circle id="Ellipse_2" data-name="Ellipse 2" cx="5.259" cy="5.259" r="5.259" transform="translate(22 33.741)" fill="none" stroke="#19a301" stroke-linecap="round" stroke-linejoin="round" stroke-width="1.5"/>
  </g>
  <rect id="Rectangle_7004" data-name="Rectangle 7004" width="70" height="70" fill="none"/>
</svg>
