<svg xmlns="http://www.w3.org/2000/svg" width="70" height="70" viewBox="0 0 70 70">
  <g id="Group_22450" data-name="Group 22450" transform="translate(360 89.472)">
    <g id="Group_22451" data-name="Group 22451">
      <g id="Group_22450-2" data-name="Group 22450">
        <line id="Line_4" data-name="Line 4" x2="8.375" transform="translate(-318.323 -26.971)" fill="none" stroke="#19a301" stroke-linecap="round" stroke-linejoin="round" stroke-width="2.4"/>
        <line id="Line_5" data-name="Line 5" x2="0.679" transform="translate(-301.595 -26.971)" fill="none" stroke="#19a301" stroke-linecap="round" stroke-linejoin="round" stroke-width="2.4"/>
        <line id="Line_6" data-name="Line 6" x2="8.298" transform="translate(-349.084 -26.971)" fill="none" stroke="#19a301" stroke-linecap="round" stroke-linejoin="round" stroke-width="2.4"/>
        <line id="Line_7" data-name="Line 7" x2="14.628" transform="translate(-341.326 -26.971)" fill="none" stroke="#82d400" stroke-linecap="round" stroke-linejoin="round" stroke-width="2.4"/>
      </g>
      <rect id="Rectangle_6915" data-name="Rectangle 6915" width="70" height="15" transform="translate(-360 -34.471)" fill="none"/>
    </g>
    <rect id="Rectangle_6916" data-name="Rectangle 6916" width="70" height="70" transform="translate(-360 -89.471)" fill="none"/>
    <circle id="Ellipse_2" data-name="Ellipse 2" cx="5.795" cy="5.795" r="5.795" transform="translate(-354.986 -70.628)" fill="none" stroke="#19a301" stroke-linecap="round" stroke-linejoin="round" stroke-width="1.5"/>
    <rect id="Rectángulo_2137" data-name="Rectángulo 2137" width="17.581" height="20.911" transform="translate(-321.142 -56.289)" fill="none" stroke="#000" stroke-linecap="round" stroke-linejoin="round" stroke-width="1.5"/>
    <path id="Trazado_5455" data-name="Trazado 5455" d="M-337.542-77.765h-11.1v3.994" fill="none" stroke="#000" stroke-linecap="round" stroke-linejoin="round" stroke-width="1.5"/>
    <path id="Trazado_5456" data-name="Trazado 5456" d="M-348.643-55.655v20.278h11.1V-77.345" fill="none" stroke="#000" stroke-linecap="round" stroke-linejoin="round" stroke-width="1.5"/>
    <path id="Path_28571" data-name="Path 28571" d="M-337.556-56.288h5.983a4.021,4.021,0,0,1,3.857,4.158v5.984A4,4,0,0,0-323.874-42h2.594" fill="none" stroke="#000" stroke-linecap="round" stroke-linejoin="round" stroke-width="1.5"/>
    <path id="Trazado_5459" data-name="Trazado 5459" d="M-337.236-73.195h.684c2.832,0,5.125,1.857,5.125,4.15v33.673" fill="none" stroke="#000" stroke-linecap="round" stroke-linejoin="round" stroke-width="1.5"/>
    <line id="Línea_708" data-name="Línea 708" x1="55.426" transform="translate(-353.426 -35.377)" fill="none" stroke="#000" stroke-linecap="round" stroke-linejoin="round" stroke-width="1.659"/>
    <path id="Trazado_5460" data-name="Trazado 5460" d="M-312.16-50.919c-.664,1.67-1.348,3.325-2.028,4.99-.545,1.328-1.2,2.775-.239,4.083a2.866,2.866,0,0,0,2.267,1.193,2.935,2.935,0,0,0,2.667-1.909c.482-1.2-.1-2.553-.618-3.621C-310.733-47.475-312.206-50.805-312.16-50.919Z" fill="none" stroke="#000" stroke-linecap="round" stroke-linejoin="round" stroke-width="1.5"/>
    <rect id="Rectangle_6917" data-name="Rectangle 6917" width="26.075" height="12.351" transform="translate(-325.389 -75.095)" fill="none" stroke="#000" stroke-linecap="round" stroke-linejoin="round" stroke-width="1.5"/>
    <line id="Line_3081" data-name="Line 3081" y2="6.457" transform="translate(-312.115 -62.744)" fill="none" stroke="#000" stroke-linecap="round" stroke-linejoin="round" stroke-width="1.5"/>
    <g id="Group_22452" data-name="Group 22452">
      <path id="Path_28572" data-name="Path 28572" d="M-318.608-66.839l.174.639h.032l.175-.639,1.988-5.679h1.126l-2.86,7.7h-.894l-2.861-7.7h1.132Z" stroke="#000" stroke-miterlimit="10" stroke-width="0.437"/>
      <path id="Path_28573" data-name="Path 28573" d="M-310.518-66.8h-2.9l-.687,1.982h-1.063l2.776-7.7h.894l2.718,7.7h-1.063Zm-2.6-.873h2.3l-1.121-3.305h-.032Z" stroke="#000" stroke-miterlimit="10" stroke-width="0.437"/>
      <path id="Path_28574" data-name="Path 28574" d="M-303.544-66.76a1.156,1.156,0,0,0-.376-.878,3.126,3.126,0,0,0-1.321-.6,4.4,4.4,0,0,1-1.832-.856,1.8,1.8,0,0,1-.659-1.423,1.9,1.9,0,0,1,.709-1.507,2.743,2.743,0,0,1,1.84-.6,2.69,2.69,0,0,1,1.938.69,2.089,2.089,0,0,1,.7,1.609l-.016.033h-.994a1.418,1.418,0,0,0-.457-1.084,1.643,1.643,0,0,0-1.171-.429,1.6,1.6,0,0,0-1.118.354,1.186,1.186,0,0,0-.389.92,1.026,1.026,0,0,0,.426.838,3.89,3.89,0,0,0,1.382.59,3.928,3.928,0,0,1,1.772.889,1.931,1.931,0,0,1,.607,1.448,1.8,1.8,0,0,1-.732,1.5,3.033,3.033,0,0,1-1.911.567,3.251,3.251,0,0,1-1.97-.624A1.9,1.9,0,0,1-307.943-67l.01-.033h.994a1.3,1.3,0,0,0,.55,1.12,2.093,2.093,0,0,0,1.243.393,1.869,1.869,0,0,0,1.171-.333A1.083,1.083,0,0,0-303.544-66.76Z" stroke="#000" stroke-miterlimit="10" stroke-width="0.437"/>
    </g>
  </g>
</svg>
