<svg id="Group_22390" data-name="Group 22390" xmlns="http://www.w3.org/2000/svg" width="70" height="70" viewBox="0 0 70 70">
  <g id="Group_22392" data-name="Group 22392">
    <g id="Group_22391" data-name="Group 22391">
      <g id="Group_22390-2" data-name="Group 22390">
        <line id="Line_4" data-name="Line 4" x2="8.375" transform="translate(41.677 62.5)" fill="none" stroke="#19a301" stroke-linecap="round" stroke-linejoin="round" stroke-width="2.4"/>
        <line id="Line_5" data-name="Line 5" x2="0.679" transform="translate(58.405 62.5)" fill="none" stroke="#19a301" stroke-linecap="round" stroke-linejoin="round" stroke-width="2.4"/>
        <line id="Line_6" data-name="Line 6" x2="8.298" transform="translate(10.916 62.5)" fill="none" stroke="#19a301" stroke-linecap="round" stroke-linejoin="round" stroke-width="2.4"/>
        <line id="Line_7" data-name="Line 7" x2="14.628" transform="translate(18.674 62.5)" fill="none" stroke="#82d400" stroke-linecap="round" stroke-linejoin="round" stroke-width="2.4"/>
      </g>
      <rect id="Rectangle_6886" data-name="Rectangle 6886" width="70" height="15" transform="translate(0 55)" fill="none"/>
    </g>
  </g>
  <rect id="Rectangle_6887" data-name="Rectangle 6887" width="70" height="70" fill="none"/>
  <g id="Group_22398" data-name="Group 22398">
    <circle id="Ellipse_2" data-name="Ellipse 2" cx="5.795" cy="5.795" r="5.795" transform="translate(7.535 10.843)" fill="none" stroke="#19a301" stroke-linecap="round" stroke-linejoin="round" stroke-width="1.5"/>
    <g id="Group_22397" data-name="Group 22397">
      <path id="Trazado_11677" data-name="Trazado 11677" d="M17.769,33.74" fill="none" stroke="#000" stroke-linecap="round" stroke-linejoin="round" stroke-width="1.5"/>
      <path id="Rectángulo_4585" data-name="Rectángulo 4585" d="M20.1,11.037V10.3a.568.568,0,0,1,.568-.568H26.7a.567.567,0,0,1,.567.568v2.5a.567.567,0,0,1-.567.567H21.908" fill="none" stroke="#000" stroke-linecap="round" stroke-linejoin="round" stroke-width="1.5"/>
      <path id="Trazado_11678" data-name="Trazado 11678" d="M32.753,38.764V35.051l.005-2.913V16.849" fill="none" stroke="#000" stroke-linecap="round" stroke-linejoin="round" stroke-width="1.5"/>
      <path id="Trazado_11678-2" data-name="Trazado 11678" d="M12.7,25.247V42.336h5.466" fill="none" stroke="#000" stroke-linecap="round" stroke-linejoin="round" stroke-width="1.5"/>
      <line id="Línea_2316" data-name="Línea 2316" x2="12.287" transform="translate(16.585 24.706)" fill="none" stroke="#000" stroke-linecap="round" stroke-linejoin="round" stroke-width="1.5"/>
      <line id="Línea_2317" data-name="Línea 2317" x2="12.287" transform="translate(16.585 33.237)" fill="none" stroke="#000" stroke-linecap="round" stroke-linejoin="round" stroke-width="1.5"/>
      <path id="Rectángulo_4586" data-name="Rectángulo 4586" d="M17.643,45.807H11.437a.86.86,0,0,1-.86-.86V43.191a.86.86,0,0,1,.86-.86h6.732" fill="none" stroke="#000" stroke-linecap="round" stroke-linejoin="round" stroke-width="1.5"/>
      <path id="Rectángulo_4586-2" data-name="Rectángulo 4586" d="M55.027,42.331H61.6a.86.86,0,0,1,.86.86v1.756a.86.86,0,0,1-.86.86H55.184" fill="none" stroke="#000" stroke-linecap="round" stroke-linejoin="round" stroke-width="1.5"/>
      <path id="Rectángulo_4587" data-name="Rectángulo 4587" d="M21.908,13.374H33.933a.865.865,0,0,1,.865.865h0v1.756a.866.866,0,0,1-.865.866H21.992" fill="none" stroke="#000" stroke-linecap="round" stroke-linejoin="round" stroke-width="1.5"/>
      <path id="Trazado_11677-2" data-name="Trazado 11677-2" d="M45.236,33.74" fill="none" stroke="#000" stroke-linecap="round" stroke-linejoin="round" stroke-width="1.5"/>
      <rect id="Rectángulo_4585-2" data-name="Rectángulo 4585-2" width="7.169" height="3.638" rx="0.567" transform="translate(46.014 9.736)" fill="none" stroke="#000" stroke-linecap="round" stroke-linejoin="round" stroke-width="1.5"/>
      <path id="Trazado_11678-2-2" data-name="Trazado 11678-2" d="M55.027,42.329H60.22V16.849" fill="none" stroke="#000" stroke-linecap="round" stroke-linejoin="round" stroke-width="1.5"/>
      <path id="Trazado_11678-2-3" data-name="Trazado 11678-2" d="M40.172,16.849V38.764" fill="none" stroke="#000" stroke-linecap="round" stroke-linejoin="round" stroke-width="1.5"/>
      <line id="Línea_2316-2" data-name="Línea 2316-2" x2="12.287" transform="translate(44.053 24.706)" fill="none" stroke="#000" stroke-linecap="round" stroke-linejoin="round" stroke-width="1.5"/>
      <line id="Línea_2317-2" data-name="Línea 2317-2" x2="12.287" transform="translate(44.053 33.237)" fill="none" stroke="#000" stroke-linecap="round" stroke-linejoin="round" stroke-width="1.5"/>
      <rect id="Rectángulo_4587-2" data-name="Rectángulo 4587-2" width="24.305" height="3.476" rx="0.86" transform="translate(37.955 13.374)" fill="none" stroke="#000" stroke-linecap="round" stroke-linejoin="round" stroke-width="1.5"/>
      <g id="Group_22396" data-name="Group 22396">
        <path id="Rectángulo_4586-2-2" data-name="Rectángulo 4586-2" d="M31.743,38.764h17.42a6.051,6.051,0,0,1,6.118,5.982h0a6.051,6.051,0,0,1-6.118,5.982H32.753" fill="none" stroke="#000" stroke-linecap="round" stroke-linejoin="round" stroke-width="1.5"/>
        <g id="Group_22394" data-name="Group 22394">
          <g id="Group_22393" data-name="Group 22393">
            <line id="Line_3056" data-name="Line 3056" x2="12.585" transform="translate(38.332 44.746)" fill="none" stroke="#000" stroke-linecap="round" stroke-linejoin="round" stroke-width="1.5"/>
            <path id="Path_28526" data-name="Path 28526" d="M47.856,41.542l3.2,3.2-3.2,3.2" fill="none" stroke="#000" stroke-linecap="round" stroke-linejoin="round" stroke-width="1.5"/>
          </g>
          <circle id="Ellipse_3114" data-name="Ellipse 3114" cx="8.487" cy="8.487" r="8.487" transform="translate(17.643 36.789)" fill="none" stroke="#000" stroke-linecap="round" stroke-linejoin="round" stroke-width="1.5"/>
          <path id="Path_28527" data-name="Path 28527" d="M26.13,42.094v4.463H29.7" transform="translate(0 -1.28)" fill="none" stroke="#000" stroke-linecap="round" stroke-linejoin="round" stroke-width="1.5"/>
        </g>
      </g>
    </g>
  </g>
</svg>
