<svg id="Group_22489" data-name="Group 22489" xmlns="http://www.w3.org/2000/svg" width="70" height="70" viewBox="0 0 70 70">
  <g id="Group_22491" data-name="Group 22491">
    <g id="Group_22490" data-name="Group 22490">
      <g id="Group_22489-2" data-name="Group 22489">
        <line id="Line_4" data-name="Line 4" x2="8.375" transform="translate(41.677 62.5)" fill="none" stroke="#19a301" stroke-linecap="round" stroke-linejoin="round" stroke-width="2.4"/>
        <line id="Line_5" data-name="Line 5" x2="0.679" transform="translate(58.405 62.5)" fill="none" stroke="#19a301" stroke-linecap="round" stroke-linejoin="round" stroke-width="2.4"/>
        <line id="Line_6" data-name="Line 6" x2="8.298" transform="translate(10.916 62.5)" fill="none" stroke="#19a301" stroke-linecap="round" stroke-linejoin="round" stroke-width="2.4"/>
        <line id="Line_7" data-name="Line 7" x2="14.628" transform="translate(18.674 62.5)" fill="none" stroke="#82d400" stroke-linecap="round" stroke-linejoin="round" stroke-width="2.4"/>
      </g>
      <rect id="Rectangle_6940" data-name="Rectangle 6940" width="70" height="15" transform="translate(0 55)" fill="none"/>
    </g>
  </g>
  <rect id="Rectangle_6941" data-name="Rectangle 6941" width="70" height="70" fill="none"/>
  <g id="Group_22499" data-name="Group 22499">
    <g id="Group_22498" data-name="Group 22498">
      <g id="Group_22495" data-name="Group 22495">
        <g id="Group_22494" data-name="Group 22494">
          <g id="Group_22493" data-name="Group 22493">
            <path id="Path_28601" data-name="Path 28601" d="M34.092,35.693" fill="none" stroke="#000" stroke-linecap="round" stroke-linejoin="round" stroke-width="1.5"/>
            <path id="Path_28602" data-name="Path 28602" d="M29.958,25.456H14.623a2.221,2.221,0,0,0-2.22,2.221v7.284" fill="none" stroke="#000" stroke-linecap="round" stroke-linejoin="round" stroke-width="1.5"/>
            <path id="Path_28603" data-name="Path 28603" d="M28.769,25.464V20.687A1.582,1.582,0,0,0,27.187,19.1h-9.1A1.582,1.582,0,0,0,16.5,20.687v4.769" fill="none" stroke="#000" stroke-linecap="round" stroke-linejoin="round" stroke-width="1.5"/>
            <g id="Group_22492" data-name="Group 22492">
              <path id="Path_28604" data-name="Path 28604" d="M23.237,29.671a1.247,1.247,0,0,0-1.2,0L8.654,37.021a1.246,1.246,0,0,0-.572,1.515L11.8,49.862" fill="none" stroke="#000" stroke-linecap="round" stroke-linejoin="round" stroke-width="1.5"/>
              <line id="Line_3096" data-name="Line 3096" y2="21.051" transform="translate(22.635 29.507)" fill="none" stroke="#000" stroke-linecap="round" stroke-linejoin="round" stroke-width="1.5"/>
            </g>
            <circle id="Ellipse_3116" data-name="Ellipse 3116" cx="1.619" cy="1.619" r="1.619" transform="translate(14.53 36.817)" fill="none" stroke="#000" stroke-linecap="round" stroke-linejoin="round" stroke-width="1.5"/>
            <path id="Rectangle_6942" data-name="Rectangle 6942" d="M.891,0H4.446A.957.957,0,0,1,5.4.957V5.663a0,0,0,0,1,0,0H0a0,0,0,0,1,0,0V.891A.891.891,0,0,1,.891,0Z" transform="translate(19.847 13.442)" fill="none" stroke="#000" stroke-linecap="round" stroke-linejoin="round" stroke-width="1.5"/>
            <path id="Path_28605" data-name="Path 28605" d="M15.007,25.456H30.342a2.222,2.222,0,0,1,2.221,2.221v7.284" fill="none" stroke="#000" stroke-linecap="round" stroke-linejoin="round" stroke-width="1.5"/>
          </g>
        </g>
      </g>
      <g id="Group_22496" data-name="Group 22496">
        <path id="Path_28606" data-name="Path 28606" d="M30.187,49.587V36.064a.906.906,0,0,1,.911-.9H59.317a1.049,1.049,0,0,1,1.054,1.043V48.958" fill="none" stroke="#000" stroke-linecap="round" stroke-linejoin="round" stroke-width="1.5"/>
        <line id="Line_3097" data-name="Line 3097" x2="13.817" y2="0.003" transform="translate(46.554 38.401)" fill="none" stroke="#000" stroke-linecap="round" stroke-linejoin="round" stroke-width="1.5"/>
        <line id="Line_3098" data-name="Line 3098" y2="12.08" transform="translate(52.233 38.393)" fill="none" stroke="#000" stroke-linecap="round" stroke-linejoin="round" stroke-width="1.5"/>
        <line id="Line_3099" data-name="Line 3099" x2="4.666" transform="translate(52.23 42.375)" fill="none" stroke="#000" stroke-linecap="round" stroke-linejoin="round" stroke-width="1.5"/>
        <line id="Line_3100" data-name="Line 3100" x2="4.666" transform="translate(52.23 47.352)" fill="none" stroke="#000" stroke-linecap="round" stroke-linejoin="round" stroke-width="1.5"/>
        <line id="Line_3101" data-name="Line 3101" y2="11.194" transform="translate(56.917 38.393)" fill="none" stroke="#000" stroke-linecap="round" stroke-linejoin="round" stroke-width="1.5"/>
        <line id="Line_3102" data-name="Line 3102" y2="14.079" transform="translate(46.537 35.198)" fill="none" stroke="#000" stroke-linecap="round" stroke-linejoin="round" stroke-width="1.5"/>
      </g>
      <g id="Group_22497" data-name="Group 22497">
        <path id="Path_28607" data-name="Path 28607" d="M64.749,51.187c-2.7,0-2.7-2.249-5.406-2.249s-2.7,2.249-5.4,2.249-2.7-2.249-5.406-2.249-2.7,2.249-5.408,2.249-2.7-2.249-5.409-2.249-2.7,2.249-5.408,2.249-2.7-2.249-5.41-2.249-2.7,2.249-5.407,2.249-2.7-2.249-5.411-2.249-2.708,2.249-5.415,2.249-2.708-2.249-5.415-2.249" fill="none" stroke="#000" stroke-linecap="round" stroke-linejoin="round" stroke-width="1.5"/>
      </g>
      <path id="Path_28608" data-name="Path 28608" d="M23.238,29.668l9.824,5.387c.254.157-.815-.469-.735-.391" fill="none" stroke="#000" stroke-linecap="round" stroke-linejoin="round" stroke-width="1.5"/>
    </g>
    <circle id="Ellipse_2" data-name="Ellipse 2" cx="5.795" cy="5.795" r="5.795" transform="translate(49.767 18.321)" fill="none" stroke="#19a301" stroke-linecap="round" stroke-linejoin="round" stroke-width="1.5"/>
    <path id="Path_28609" data-name="Path 28609" d="M56.838,32.716v2.439h-22.6" fill="none" stroke="#000" stroke-linecap="round" stroke-linejoin="round" stroke-width="1.5"/>
    <path id="Rectangle_6943" data-name="Rectangle 6943" d="M0,0H6.25a0,0,0,0,1,0,0V2.8a.754.754,0,0,1-.754.754H.872A.872.872,0,0,1,0,2.682V0A0,0,0,0,1,0,0Z" transform="translate(43.33 27.67) rotate(-180)" fill="none" stroke="#000" stroke-linecap="round" stroke-linejoin="round" stroke-width="1.5"/>
    <line id="Line_3103" data-name="Line 3103" x2="14.76" transform="translate(32.563 27.677)" fill="none" stroke="#000" stroke-linecap="round" stroke-linejoin="round" stroke-width="1.5"/>
  </g>
</svg>
