<svg id="Group_22477" data-name="Group 22477" xmlns="http://www.w3.org/2000/svg" width="70" height="70" viewBox="0 0 70 70">
  <g id="Group_22483" data-name="Group 22483">
    <g id="Group_22479" data-name="Group 22479">
      <g id="Group_22478" data-name="Group 22478">
        <g id="Group_22477-2" data-name="Group 22477">
          <line id="Line_4" data-name="Line 4" x2="8.375" transform="translate(41.677 62.5)" fill="none" stroke="#19a301" stroke-linecap="round" stroke-linejoin="round" stroke-width="2.4"/>
          <line id="Line_5" data-name="Line 5" x2="0.679" transform="translate(58.405 62.5)" fill="none" stroke="#19a301" stroke-linecap="round" stroke-linejoin="round" stroke-width="2.4"/>
          <line id="Line_6" data-name="Line 6" x2="8.298" transform="translate(10.916 62.5)" fill="none" stroke="#19a301" stroke-linecap="round" stroke-linejoin="round" stroke-width="2.4"/>
          <line id="Line_7" data-name="Line 7" x2="14.628" transform="translate(18.674 62.5)" fill="none" stroke="#82d400" stroke-linecap="round" stroke-linejoin="round" stroke-width="2.4"/>
        </g>
        <rect id="Rectangle_6933" data-name="Rectangle 6933" width="70" height="15" transform="translate(0 55)" fill="none"/>
      </g>
    </g>
    <rect id="Rectangle_6934" data-name="Rectangle 6934" width="70" height="70" fill="none"/>
    <g id="Group_22482" data-name="Group 22482">
      <g id="Group_22481" data-name="Group 22481">
        <path id="Path_28597" data-name="Path 28597" d="M37.786,21.441a8.721,8.721,0,0,0-2.957-.509,6.351,6.351,0,0,0-5.623,3.457,7.788,7.788,0,0,0-.119,5.739,14.747,14.747,0,0,0,.8,1.932c.558,1.129,1.23,2.209,1.882,3.289,1.16,1.918,2.321,3.772,3.673,5.627,1.255-1.911,2.466-3.877,3.639-5.821A22.7,22.7,0,0,0,41.4,30.344" fill="none" stroke="#000" stroke-linecap="round" stroke-linejoin="round" stroke-width="1.612"/>
        <g id="Group_22480" data-name="Group 22480">
          <circle id="Ellipse_3115" data-name="Ellipse 3115" cx="2.798" cy="2.798" r="2.798" transform="translate(32.057 24.32)" fill="none" stroke="#000" stroke-linecap="round" stroke-linejoin="round" stroke-width="1.612"/>
        </g>
      </g>
    </g>
    <path id="Path_28598" data-name="Path 28598" d="M50.892,30.755l.372,1.1a.906.906,0,0,1-.237.949l-.467.441a.907.907,0,0,0,.156,1.437l1.075.645a.907.907,0,0,1,.422.6l.436,2.144a.907.907,0,0,1-.485.993l-.217.107a.906.906,0,0,1-1.264-.525l-.267-.8a.907.907,0,0,0-1.266-.525l-.66.331a.915.915,0,0,1-.545.085l-2.978-.462a.907.907,0,0,0-1.046.869h0a.907.907,0,0,0,.8.927l.371.045a.907.907,0,0,1,.766.665l.223.827H44.434a.907.907,0,0,0-.906.863l-.05,1.022a.907.907,0,0,0,.208.623l1.368,1.649a.908.908,0,0,1,.2.721l-1.408,8.922-1.092-.96a.907.907,0,0,0-.634-.226l-1.54.059,1.31-2.125a.907.907,0,0,0-.4-1.3l-2.2-1.006a.908.908,0,0,0-.519-.071l-3.327.529a.909.909,0,0,1-.854-.334L30.5,43.782a.911.911,0,0,0-.344-.267l-4.907-2.179a.894.894,0,0,0-.353-.078l-2.765-.046a.91.91,0,0,1-.57-.214l-3.9-3.3a.906.906,0,0,1-.183-1.176l1.053-1.672a.91.91,0,0,1,.529-.392l1.5-.408a.909.909,0,0,0,.5-.348l1.57-2.2a.915.915,0,0,0,.165-.612l-.718-7.626a.914.914,0,0,0-.285-.579l-1.324-1.231a.906.906,0,0,1-.172-1.111l1.488-2.63a.906.906,0,0,1,.789-.46h1.042a.909.909,0,0,0,.651-.276l2.805-2.89a.91.91,0,0,0,.217-.366l.875-2.867a.907.907,0,0,1,.573-.592l2.546-.876a.926.926,0,0,1,.3-.049H33.23a.912.912,0,0,0,.592-.219l3.853-3.312a.907.907,0,0,1,1.257.072l.786.848a.906.906,0,0,1-.252,1.423l-1.724.885a.918.918,0,0,0-.2.139l-2.216,2.036a.918.918,0,0,0-.264.438l-.86,3.269a.91.91,0,0,0,.21.845l2.024,2.2a.906.906,0,0,1,.215.4l.576,2.413a.907.907,0,0,0,.8.692" fill="none" stroke="#000" stroke-linecap="round" stroke-linejoin="round" stroke-width="1.612"/>
  </g>
  <circle id="Ellipse_2" data-name="Ellipse 2" cx="5.795" cy="5.795" r="5.795" transform="translate(40.677 17.442)" fill="none" stroke="#19a301" stroke-linecap="round" stroke-linejoin="round" stroke-width="1.5"/>
</svg>
