<svg id="Group_22619" data-name="Group 22619" xmlns="http://www.w3.org/2000/svg" width="70" height="70" viewBox="0 0 70 70">
  <g id="Group_22621" data-name="Group 22621">
    <g id="Group_22620" data-name="Group 22620">
      <g id="Group_22619-2" data-name="Group 22619">
        <line id="Line_4" data-name="Line 4" x2="8.375" transform="translate(41.677 62.5)" fill="none" stroke="#19a301" stroke-linecap="round" stroke-linejoin="round" stroke-width="2.4"/>
        <line id="Line_5" data-name="Line 5" x2="0.679" transform="translate(58.405 62.5)" fill="none" stroke="#19a301" stroke-linecap="round" stroke-linejoin="round" stroke-width="2.4"/>
        <line id="Line_6" data-name="Line 6" x2="8.298" transform="translate(10.916 62.5)" fill="none" stroke="#19a301" stroke-linecap="round" stroke-linejoin="round" stroke-width="2.4"/>
        <line id="Line_7" data-name="Line 7" x2="14.628" transform="translate(18.674 62.5)" fill="none" stroke="#82d400" stroke-linecap="round" stroke-linejoin="round" stroke-width="2.4"/>
      </g>
      <rect id="Rectangle_6991" data-name="Rectangle 6991" width="70" height="15" transform="translate(0 55)" fill="none"/>
    </g>
  </g>
  <circle id="Ellipse_2" data-name="Ellipse 2" cx="5.795" cy="5.795" r="5.795" transform="translate(13.405 9.405)" fill="none" stroke="#19a301" stroke-linecap="round" stroke-linejoin="round" stroke-width="1.5"/>
  <rect id="Rectangle_6992" data-name="Rectangle 6992" width="9.125" height="4.631" rx="0.722" transform="translate(29.823 8)" fill="none" stroke="#000" stroke-linecap="round" stroke-linejoin="round" stroke-width="1.5"/>
  <path id="Path_28756" data-name="Path 28756" d="M22.388,23.644V25.61H21.176a1.5,1.5,0,0,0-1.5,1.5v.713a1.5,1.5,0,0,0,1.5,1.5h1.212v7.2H21.176a1.5,1.5,0,0,0-1.5,1.5v.713a1.5,1.5,0,0,0,1.5,1.5h1.212v9.267h25.52V40.224H49.12a1.5,1.5,0,0,0,1.5-1.5v-.713a1.5,1.5,0,0,0-1.5-1.5H47.908v-7.2H49.12a1.5,1.5,0,0,0,1.5-1.5v-.713a1.5,1.5,0,0,0-1.5-1.5H47.908V17.056H29.133" fill="none" stroke="#000" stroke-linecap="round" stroke-linejoin="round" stroke-width="1.5"/>
  <rect id="Rectangle_6993" data-name="Rectangle 6993" width="30.938" height="4.425" rx="1.687" transform="translate(19.679 49.491)" fill="none" stroke="#000" stroke-linecap="round" stroke-linejoin="round" stroke-width="1.5"/>
  <path id="Path_28757" data-name="Path 28757" d="M27.809,12.631H49.521a1.1,1.1,0,0,1,1.1,1.1V15.96a1.1,1.1,0,0,1-1.1,1.1H28.161" fill="none" stroke="#000" stroke-linecap="round" stroke-linejoin="round" stroke-width="1.5"/>
  <g id="Group_22622" data-name="Group 22622">
    <path id="Path_28758" data-name="Path 28758" d="M31.608,30.33H30.9V26.9l-1.045.357v-.6l1.664-.612h.09Z"/>
    <path id="Path_28759" data-name="Path 28759" d="M33.58,29.58a.409.409,0,0,1,.308.113.393.393,0,0,1,.108.283.375.375,0,0,1-.108.276.412.412,0,0,1-.308.11.417.417,0,0,1-.3-.108.371.371,0,0,1-.111-.278.393.393,0,0,1,.108-.283A.405.405,0,0,1,33.58,29.58Z"/>
    <path id="Path_28760" data-name="Path 28760" d="M37.547,28.534a2.334,2.334,0,0,1-.344,1.388,1.218,1.218,0,0,1-1.048.467,1.236,1.236,0,0,1-1.042-.455,2.241,2.241,0,0,1-.358-1.35v-.738a2.278,2.278,0,0,1,.345-1.38,1.433,1.433,0,0,1,2.093-.012,2.212,2.212,0,0,1,.354,1.342Zm-.712-.8a1.81,1.81,0,0,0-.164-.88.627.627,0,0,0-1.034-.015,1.668,1.668,0,0,0-.173.828v.967a1.853,1.853,0,0,0,.167.89.559.559,0,0,0,.524.293.55.55,0,0,0,.507-.271,1.745,1.745,0,0,0,.173-.848Z"/>
    <path id="Path_28761" data-name="Path 28761" d="M40.957,28.534a2.334,2.334,0,0,1-.344,1.388,1.218,1.218,0,0,1-1.048.467,1.236,1.236,0,0,1-1.042-.455,2.241,2.241,0,0,1-.358-1.35v-.738a2.278,2.278,0,0,1,.345-1.38,1.434,1.434,0,0,1,2.094-.012,2.219,2.219,0,0,1,.353,1.342Zm-.712-.8a1.81,1.81,0,0,0-.164-.88.627.627,0,0,0-1.034-.015,1.668,1.668,0,0,0-.173.828v.967a1.853,1.853,0,0,0,.167.89.559.559,0,0,0,.524.293.55.55,0,0,0,.507-.271,1.733,1.733,0,0,0,.173-.848Z"/>
    <path id="Path_28762" data-name="Path 28762" d="M44.367,28.534a2.334,2.334,0,0,1-.344,1.388,1.218,1.218,0,0,1-1.047.467,1.235,1.235,0,0,1-1.042-.455,2.234,2.234,0,0,1-.359-1.35v-.738a2.278,2.278,0,0,1,.345-1.38,1.434,1.434,0,0,1,2.094-.012,2.219,2.219,0,0,1,.353,1.342Zm-.712-.8a1.8,1.8,0,0,0-.164-.88.627.627,0,0,0-1.034-.015,1.679,1.679,0,0,0-.173.828v.967a1.853,1.853,0,0,0,.167.89.56.56,0,0,0,.525.293.549.549,0,0,0,.506-.271,1.733,1.733,0,0,0,.173-.848Z"/>
  </g>
  <g id="Group_22623" data-name="Group 22623">
    <path id="Path_28763" data-name="Path 28763" d="M27.292,37.494l-.369.379V39.08h-.831V33.83h.831v3.028l.259-.325L28.2,35.382h1l-1.374,1.542,1.521,2.156h-.96Z"/>
    <path id="Path_28764" data-name="Path 28764" d="M29.53,37.2a2.156,2.156,0,0,1,.406-1.375,1.3,1.3,0,0,1,1.074-.515,1.221,1.221,0,0,1,1,.441l.038-.372h.748v3.585a1.486,1.486,0,0,1-.453,1.148,1.722,1.722,0,0,1-1.222.421,1.986,1.986,0,0,1-.8-.169,1.416,1.416,0,0,1-.589-.443l.393-.5a1.189,1.189,0,0,0,.944.454.912.912,0,0,0,.652-.224.857.857,0,0,0,.24-.658v-.25a1.219,1.219,0,0,1-.957.4,1.293,1.293,0,0,1-1.061-.515A2.233,2.233,0,0,1,29.53,37.2Zm.828.072a1.487,1.487,0,0,0,.227.877.731.731,0,0,0,.631.32.8.8,0,0,0,.745-.431V36.414a.79.79,0,0,0-.739-.42.735.735,0,0,0-.637.324A1.666,1.666,0,0,0,30.358,37.275Z"/>
    <path id="Path_28765" data-name="Path 28765" d="M33.878,39.508h-.653l1.959-5.4h.653Z"/>
    <path id="Path_28766" data-name="Path 28766" d="M37.194,35.382l.023.386a1.333,1.333,0,0,1,1.067-.455,1.022,1.022,0,0,1,1.015.568,1.313,1.313,0,0,1,1.135-.568,1.151,1.151,0,0,1,.91.339,1.487,1.487,0,0,1,.307,1v2.43H40.82V36.674a.734.734,0,0,0-.154-.516.673.673,0,0,0-.509-.164.687.687,0,0,0-.463.152.792.792,0,0,0-.251.4l0,2.536h-.831V36.646a.591.591,0,0,0-.666-.652.732.732,0,0,0-.708.406v2.68h-.83v-3.7Z"/>
    <path id="Path_28767" data-name="Path 28767" d="M43.172,35.724h.392a.7.7,0,0,0,.471-.155.549.549,0,0,0,.173-.437.6.6,0,0,0-.144-.427.579.579,0,0,0-.441-.153.615.615,0,0,0-.427.15.5.5,0,0,0-.167.39h-.644a.975.975,0,0,1,.158-.54,1.059,1.059,0,0,1,.44-.381,1.443,1.443,0,0,1,.632-.136,1.326,1.326,0,0,1,.907.29,1.017,1.017,0,0,1,.33.807.824.824,0,0,1-.165.49,1.043,1.043,0,0,1-.428.346.949.949,0,0,1,.484.341.938.938,0,0,1,.165.557,1.04,1.04,0,0,1-.356.827,1.566,1.566,0,0,1-1.849.01.975.975,0,0,1-.355-.79h.644a.539.539,0,0,0,.171.414.648.648,0,0,0,.46.159.666.666,0,0,0,.471-.159.6.6,0,0,0,.173-.461.607.607,0,0,0-.181-.47.771.771,0,0,0-.535-.163h-.379Z"/>
  </g>
  <g id="Group_22624" data-name="Group 22624">
    <line id="Line_3151" data-name="Line 3151" y2="3" transform="translate(26.5 27)" fill="none" stroke="#000" stroke-linecap="round" stroke-linejoin="round" stroke-width="0.75"/>
    <line id="Line_3152" data-name="Line 3152" x2="3" transform="translate(25 28.5)" fill="none" stroke="#000" stroke-linecap="round" stroke-linejoin="round" stroke-width="0.75"/>
  </g>
  <rect id="Rectangle_6994" data-name="Rectangle 6994" width="70" height="70" fill="none"/>
</svg>
