<svg xmlns="http://www.w3.org/2000/svg" width="70" height="70" viewBox="0 0 70 70">
  <g id="Group_22606" data-name="Group 22606" transform="translate(0 -190)">
    <circle id="Ellipse_2" data-name="Ellipse 2" cx="5.795" cy="5.795" r="5.795" transform="translate(13.405 199.405)" fill="none" stroke="#19a301" stroke-linecap="round" stroke-linejoin="round" stroke-width="1.5"/>
    <g id="Group_22610" data-name="Group 22610">
      <g id="Group_22607" data-name="Group 22607">
        <g id="Group_22606-2" data-name="Group 22606">
          <line id="Line_4" data-name="Line 4" x2="8.375" transform="translate(41.677 252.5)" fill="none" stroke="#19a301" stroke-linecap="round" stroke-linejoin="round" stroke-width="2.4"/>
          <line id="Line_5" data-name="Line 5" x2="0.679" transform="translate(58.405 252.5)" fill="none" stroke="#19a301" stroke-linecap="round" stroke-linejoin="round" stroke-width="2.4"/>
          <line id="Line_6" data-name="Line 6" x2="8.298" transform="translate(10.916 252.5)" fill="none" stroke="#19a301" stroke-linecap="round" stroke-linejoin="round" stroke-width="2.4"/>
          <line id="Line_7" data-name="Line 7" x2="14.628" transform="translate(18.674 252.5)" fill="none" stroke="#82d400" stroke-linecap="round" stroke-linejoin="round" stroke-width="2.4"/>
        </g>
        <rect id="Rectangle_6979" data-name="Rectangle 6979" width="70" height="15" transform="translate(0 245)" fill="none"/>
      </g>
      <rect id="Rectangle_6980" data-name="Rectangle 6980" width="9.125" height="4.631" rx="0.722" transform="translate(29.823 198)" fill="none" stroke="#000" stroke-linecap="round" stroke-linejoin="round" stroke-width="1.5"/>
      <path id="Path_28726" data-name="Path 28726" d="M22.388,213.644v1.966H21.176a1.5,1.5,0,0,0-1.5,1.5v.713a1.5,1.5,0,0,0,1.5,1.5h1.212v7.2H21.176a1.5,1.5,0,0,0-1.5,1.5v.713a1.5,1.5,0,0,0,1.5,1.5h1.212v9.267h25.52v-9.267H49.12a1.5,1.5,0,0,0,1.5-1.5v-.713a1.5,1.5,0,0,0-1.5-1.5H47.908v-7.2H49.12a1.5,1.5,0,0,0,1.5-1.5v-.713a1.5,1.5,0,0,0-1.5-1.5H47.908v-8.554H29.133" fill="none" stroke="#000" stroke-linecap="round" stroke-linejoin="round" stroke-width="1.5"/>
      <rect id="Rectangle_6981" data-name="Rectangle 6981" width="30.938" height="4.425" rx="1.687" transform="translate(19.679 239.491)" fill="none" stroke="#000" stroke-linecap="round" stroke-linejoin="round" stroke-width="1.5"/>
      <path id="Path_28727" data-name="Path 28727" d="M27.809,202.631H49.521a1.1,1.1,0,0,1,1.1,1.1v2.234a1.1,1.1,0,0,1-1.1,1.1H28.161" fill="none" stroke="#000" stroke-linecap="round" stroke-linejoin="round" stroke-width="1.5"/>
      <g id="Group_22608" data-name="Group 22608">
        <path id="Path_28728" data-name="Path 28728" d="M32.37,217.643a1.326,1.326,0,0,1-.215.744,1.493,1.493,0,0,1-.586.513,1.625,1.625,0,0,1,.685.567,1.423,1.423,0,0,1,.241.812,1.5,1.5,0,0,1-.508,1.19,2.3,2.3,0,0,1-2.709,0,1.492,1.492,0,0,1-.51-1.188,1.449,1.449,0,0,1,.242-.82,1.559,1.559,0,0,1,.68-.559,1.482,1.482,0,0,1-.58-.513,1.333,1.333,0,0,1-.213-.744,1.479,1.479,0,0,1,.469-1.153,2.1,2.1,0,0,1,2.535,0A1.482,1.482,0,0,1,32.37,217.643Zm-.825,2.589a.936.936,0,0,0-.252-.681.981.981,0,0,0-1.328,0,.944.944,0,0,0-.248.683.918.918,0,0,0,.244.668,1.041,1.041,0,0,0,1.344.008A.918.918,0,0,0,31.545,220.232Zm-.121-2.554a.883.883,0,0,0-.215-.612.825.825,0,0,0-1.152-.011,1.018,1.018,0,0,0,0,1.244.836.836,0,0,0,1.152,0A.874.874,0,0,0,31.424,217.678Z"/>
        <path id="Path_28729" data-name="Path 28729" d="M37.12,216.67l-2.274,5.16h-1l2.27-4.926H33.178v-.761H37.12Z"/>
        <path id="Path_28730" data-name="Path 28730" d="M41.588,219.436a3.093,3.093,0,0,1-.459,1.849,1.621,1.621,0,0,1-1.4.623,1.642,1.642,0,0,1-1.389-.607,2.974,2.974,0,0,1-.478-1.8v-.984a3.055,3.055,0,0,1,.459-1.84,1.912,1.912,0,0,1,2.793-.016,2.958,2.958,0,0,1,.47,1.789Zm-.949-1.063a2.4,2.4,0,0,0-.219-1.174.835.835,0,0,0-1.378-.019,2.22,2.22,0,0,0-.231,1.1v1.289a2.463,2.463,0,0,0,.223,1.188.745.745,0,0,0,.7.39.734.734,0,0,0,.676-.361,2.325,2.325,0,0,0,.23-1.131Z"/>
      </g>
      <g id="Group_22609" data-name="Group 22609">
        <path id="Path_28731" data-name="Path 28731" d="M27.292,227.494l-.369.379v1.207h-.831v-5.25h.831v3.028l.259-.325,1.022-1.151h1l-1.374,1.542,1.521,2.156h-.96Z"/>
        <path id="Path_28732" data-name="Path 28732" d="M29.53,227.2a2.156,2.156,0,0,1,.406-1.375,1.3,1.3,0,0,1,1.074-.515,1.221,1.221,0,0,1,1,.441l.038-.372h.748v3.585a1.486,1.486,0,0,1-.453,1.148,1.722,1.722,0,0,1-1.222.421,1.986,1.986,0,0,1-.8-.169,1.416,1.416,0,0,1-.589-.443l.393-.5a1.189,1.189,0,0,0,.944.454.912.912,0,0,0,.652-.224.857.857,0,0,0,.24-.658v-.25a1.219,1.219,0,0,1-.957.4,1.293,1.293,0,0,1-1.061-.515A2.233,2.233,0,0,1,29.53,227.2Zm.828.072a1.487,1.487,0,0,0,.227.877.731.731,0,0,0,.631.32.8.8,0,0,0,.745-.431v-1.627a.79.79,0,0,0-.739-.42.735.735,0,0,0-.637.324A1.666,1.666,0,0,0,30.358,227.275Z"/>
        <path id="Path_28733" data-name="Path 28733" d="M33.878,229.508h-.653l1.959-5.4h.653Z"/>
        <path id="Path_28734" data-name="Path 28734" d="M37.194,225.382l.023.386a1.333,1.333,0,0,1,1.067-.455,1.022,1.022,0,0,1,1.015.568,1.313,1.313,0,0,1,1.135-.568,1.151,1.151,0,0,1,.91.339,1.487,1.487,0,0,1,.307,1v2.43H40.82v-2.406a.734.734,0,0,0-.154-.516.673.673,0,0,0-.509-.164.687.687,0,0,0-.463.152.792.792,0,0,0-.251.4l0,2.536h-.831v-2.434a.591.591,0,0,0-.666-.652.732.732,0,0,0-.708.406v2.68h-.83v-3.7Z"/>
        <path id="Path_28735" data-name="Path 28735" d="M43.172,225.724h.392a.7.7,0,0,0,.471-.155.549.549,0,0,0,.173-.437.6.6,0,0,0-.144-.427.579.579,0,0,0-.441-.153.615.615,0,0,0-.427.15.5.5,0,0,0-.167.39h-.644a.975.975,0,0,1,.158-.54,1.059,1.059,0,0,1,.44-.381,1.443,1.443,0,0,1,.632-.136,1.326,1.326,0,0,1,.907.29,1.017,1.017,0,0,1,.33.807.824.824,0,0,1-.165.49,1.043,1.043,0,0,1-.428.346.949.949,0,0,1,.484.341.938.938,0,0,1,.165.557,1.04,1.04,0,0,1-.356.827,1.566,1.566,0,0,1-1.849.01.975.975,0,0,1-.355-.79h.644a.539.539,0,0,0,.171.414.648.648,0,0,0,.46.159.666.666,0,0,0,.471-.159.6.6,0,0,0,.173-.461.607.607,0,0,0-.181-.47.771.771,0,0,0-.535-.163h-.379Z"/>
      </g>
      <rect id="Rectangle_6982" data-name="Rectangle 6982" width="70" height="70" transform="translate(0 190)" fill="none"/>
    </g>
  </g>
</svg>
