<svg xmlns="http://www.w3.org/2000/svg" width="120" height="70" viewBox="0 0 120 70">
  <g id="Group_22657" data-name="Group 22657" transform="translate(-133)">
    <g id="Group_22658" data-name="Group 22658">
      <g id="Group_22657-2" data-name="Group 22657">
        <line id="Line_4" data-name="Line 4" x2="8.375" transform="translate(199.677 62.5)" fill="none" stroke="#19a301" stroke-linecap="round" stroke-linejoin="round" stroke-width="2.4"/>
        <line id="Line_5" data-name="Line 5" x2="0.679" transform="translate(216.405 62.5)" fill="none" stroke="#19a301" stroke-linecap="round" stroke-linejoin="round" stroke-width="2.4"/>
        <line id="Line_6" data-name="Line 6" x2="8.298" transform="translate(168.916 62.5)" fill="none" stroke="#19a301" stroke-linecap="round" stroke-linejoin="round" stroke-width="2.4"/>
        <line id="Line_7" data-name="Line 7" x2="14.628" transform="translate(176.674 62.5)" fill="none" stroke="#82d400" stroke-linecap="round" stroke-linejoin="round" stroke-width="2.4"/>
      </g>
      <rect id="Rectangle_7012" data-name="Rectangle 7012" width="70" height="15" transform="translate(158 55)" fill="none"/>
    </g>
    <g id="Group_22660" data-name="Group 22660">
      <circle id="Ellipse_2" data-name="Ellipse 2" cx="5.795" cy="5.795" r="5.795" transform="translate(145.648 10.141)" fill="none" stroke="#19a301" stroke-linecap="round" stroke-linejoin="round" stroke-width="1.5"/>
      <path id="Path_28794" data-name="Path 28794" d="M236.831,51.464l4.752-16.952a.6.6,0,0,0-.735-.712L232.1,36.167a1.58,1.58,0,0,1-.4.053H151.007a.7.7,0,0,0-.7.7v4.225a.876.876,0,0,0,.876.876h2.122l.075.3c.216.855-.193,3.1-.709,5.246" fill="none" stroke="#fff" stroke-linecap="round" stroke-linejoin="round" stroke-width="1.5"/>
      <line id="Line_3163" data-name="Line 3163" x1="86.17" transform="translate(153.31 42.02)" fill="none" stroke="#fff" stroke-linecap="round" stroke-linejoin="round" stroke-width="1.5"/>
      <path id="Path_28795" data-name="Path 28795" d="M151.5,31.245V36.22h27.091V26H151.5Z" fill="none" stroke="#fff" stroke-linecap="round" stroke-linejoin="round" stroke-width="1.5"/>
      <path id="Path_28796" data-name="Path 28796" d="M160.23,16.09H175.4V26" fill="none" stroke="#fff" stroke-linecap="round" stroke-linejoin="round" stroke-width="1.5"/>
      <line id="Line_3164" data-name="Line 3164" y1="2" transform="translate(154.38 24)" fill="none" stroke="#fff" stroke-linecap="round" stroke-linejoin="round" stroke-width="1.5"/>
      <g id="Group_22659" data-name="Group 22659">
        <path id="Path_28797" data-name="Path 28797" d="M241.4,53.88c-6.061,0-6.061-7.76-12.123-7.76s-6.061,7.76-12.123,7.76-6.06-7.76-12.119-7.76-6.062,7.76-12.123,7.76-6.063-7.76-12.126-7.76-6.062,7.76-12.123,7.76-6.066-7.76-12.132-7.76-6.065,7.76-12.131,7.76" fill="none" stroke="#fff" stroke-linecap="round" stroke-linejoin="round" stroke-width="1.5"/>
      </g>
      <rect id="Rectangle_7013" data-name="Rectangle 7013" width="6" height="9" transform="translate(161.9 7)" fill="none" stroke="#fff" stroke-linecap="round" stroke-linejoin="round" stroke-width="1.5"/>
      <rect id="Rectangle_7014" data-name="Rectangle 7014" width="5" height="11" transform="translate(190.4 25.2)" fill="none" stroke="#fff" stroke-linecap="round" stroke-linejoin="round" stroke-width="1.5"/>
      <rect id="Rectangle_7015" data-name="Rectangle 7015" width="5" height="11" transform="translate(204.4 25.2)" fill="none" stroke="#fff" stroke-linecap="round" stroke-linejoin="round" stroke-width="1.5"/>
      <rect id="Rectangle_7016" data-name="Rectangle 7016" width="5" height="11" transform="translate(218.4 25.2)" fill="none" stroke="#fff" stroke-linecap="round" stroke-linejoin="round" stroke-width="1.5"/>
    </g>
    <rect id="Rectangle_7017" data-name="Rectangle 7017" width="120" height="70" transform="translate(133)" fill="none"/>
  </g>
</svg>
