<svg xmlns="http://www.w3.org/2000/svg" width="70" height="70" viewBox="0 0 70 70">
  <g id="Group_22962" data-name="Group 22962" transform="translate(-90)">
    <g id="Group_22962-2" data-name="Group 22962">
      <circle id="Ellipse_2" data-name="Ellipse 2" cx="5.795" cy="5.795" r="5.795" transform="translate(102.185 15.605)" fill="none" stroke="#19a301" stroke-linecap="round" stroke-linejoin="round" stroke-width="1.5"/>
      <path id="Path_28962" data-name="Path 28962" d="M154.4,54.267c-3.675,0-3.675-3.59-7.35-3.59s-3.675,3.59-7.35,3.59-3.674-3.59-7.348-3.59-3.675,3.59-7.35,3.59-3.676-3.59-7.352-3.59-3.675,3.59-7.35,3.59-3.678-3.59-7.355-3.59-3.678,3.59-7.355,3.59" fill="none" stroke="#000" stroke-linecap="round" stroke-linejoin="round" stroke-width="1.5"/>
      <line id="Line_3180" data-name="Line 3180" x1="7.127" transform="translate(107.625 47.406)" fill="none" stroke="#000" stroke-linecap="round" stroke-linejoin="round" stroke-width="1.5"/>
      <line id="Line_3181" data-name="Line 3181" transform="translate(139.336 33.753)" fill="none" stroke="#000" stroke-linecap="round" stroke-linejoin="round" stroke-width="1.5"/>
      <path id="Path_28963" data-name="Path 28963" d="M108.611,29.986v3.768h21.522" fill="none" stroke="#000" stroke-linecap="round" stroke-linejoin="round" stroke-width="1.5"/>
      <path id="Path_28964" data-name="Path 28964" d="M139.336,33.753h3.8V22.4a1.412,1.412,0,0,0-1.412-1.411H116.757" fill="none" stroke="#000" stroke-linecap="round" stroke-linejoin="round" stroke-width="1.5"/>
      <path id="Rectangle_7123" data-name="Rectangle 7123" d="M2.239,0H15.248a1.936,1.936,0,0,1,1.936,1.936V5.49a0,0,0,0,1,0,0H0a0,0,0,0,1,0,0V2.239A2.239,2.239,0,0,1,2.239,0Z" transform="translate(120.08 15.5)" fill="none" stroke="#000" stroke-linecap="round" stroke-linejoin="round" stroke-width="1.5"/>
      <line id="Line_3182" data-name="Line 3182" x2="26.846" transform="translate(116.337 25.747)" fill="none" stroke="#000" stroke-linecap="round" stroke-linejoin="round" stroke-width="1.5"/>
      <path id="Path_28965" data-name="Path 28965" d="M130.133,33.766H104.6a1.61,1.61,0,0,0-1.61,1.611V50.25" fill="none" stroke="#000" stroke-linecap="round" stroke-linejoin="round" stroke-width="1.5"/>
      <path id="Path_28966" data-name="Path 28966" d="M149.089,51.222V35.157a1.391,1.391,0,0,0-1.391-1.391l-8.362-.013" fill="none" stroke="#000" stroke-linecap="round" stroke-linejoin="round" stroke-width="1.5"/>
      <line id="Line_3183" data-name="Line 3183" x1="16.387" y2="0.004" transform="translate(102.985 38.107)" fill="none" stroke="#000" stroke-linecap="round" stroke-linejoin="round" stroke-width="1.5"/>
      <line id="Line_3184" data-name="Line 3184" y2="13.563" transform="translate(114.756 38.094)" fill="none" stroke="#000" stroke-linecap="round" stroke-linejoin="round" stroke-width="1.5"/>
      <line id="Line_3185" data-name="Line 3185" x1="7.127" transform="translate(107.625 42.339)" fill="none" stroke="#000" stroke-linecap="round" stroke-linejoin="round" stroke-width="1.5"/>
      <line id="Line_3186" data-name="Line 3186" y2="14.979" transform="translate(107.601 38.094)" fill="none" stroke="#000" stroke-linecap="round" stroke-linejoin="round" stroke-width="1.5"/>
      <line id="Line_3187" data-name="Line 3187" y2="16.828" transform="translate(119.372 33.753)" fill="none" stroke="#000" stroke-linecap="round" stroke-linejoin="round" stroke-width="1.5"/>
      <path id="Path_28967" data-name="Path 28967" d="M130.133,33.791l-.025,7.026h9.216V33.778" fill="none" stroke="#000" stroke-linecap="round" stroke-linejoin="round" stroke-width="1.5"/>
      <line id="Line_3188" data-name="Line 3188" y2="7.505" transform="translate(144.213 33.778)" fill="none" stroke="#000" stroke-linecap="round" stroke-linejoin="round" stroke-width="1.5"/>
      <line id="Line_3189" data-name="Line 3189" y2="7.505" transform="translate(124.74 33.778)" fill="none" stroke="#000" stroke-linecap="round" stroke-linejoin="round" stroke-width="1.5"/>
    </g>
    <g id="Group_22964" data-name="Group 22964">
      <g id="Group_22963" data-name="Group 22963">
        <line id="Line_4" data-name="Line 4" x2="8.375" transform="translate(131.677 62.5)" fill="none" stroke="#19a301" stroke-linecap="round" stroke-linejoin="round" stroke-width="2.4"/>
        <line id="Line_5" data-name="Line 5" x2="0.679" transform="translate(148.405 62.5)" fill="none" stroke="#19a301" stroke-linecap="round" stroke-linejoin="round" stroke-width="2.4"/>
        <line id="Line_6" data-name="Line 6" x2="8.298" transform="translate(100.916 62.5)" fill="none" stroke="#19a301" stroke-linecap="round" stroke-linejoin="round" stroke-width="2.4"/>
        <line id="Line_7" data-name="Line 7" x2="14.628" transform="translate(108.674 62.5)" fill="none" stroke="#82d400" stroke-linecap="round" stroke-linejoin="round" stroke-width="2.4"/>
      </g>
      <rect id="Rectangle_7124" data-name="Rectangle 7124" width="70" height="15" transform="translate(90 55)" fill="none"/>
    </g>
    <rect id="Rectangle_7125" data-name="Rectangle 7125" width="70" height="70" transform="translate(90)" fill="none"/>
  </g>
</svg>
