<?xml version="1.0" encoding="utf-8"?>
<!-- Generator: Adobe Illustrator 24.0.2, SVG Export Plug-In . SVG Version: 6.00 Build 0)  -->
<svg version="1.1" id="Capa_1" xmlns="http://www.w3.org/2000/svg" xmlns:xlink="http://www.w3.org/1999/xlink" x="0px" y="0px"
	 viewBox="0 0 70 70" style="enable-background:new 0 0 70 70;" xml:space="preserve">
<style type="text/css">
	.st0{fill:none;stroke:#19A301;stroke-width:2.4;stroke-linecap:round;stroke-linejoin:round;}
	.st1{fill:none;stroke:#82D400;stroke-width:2.4;stroke-linecap:round;stroke-linejoin:round;}
	.st2{fill:none;}
	.st3{fill:none;stroke:#000000;stroke-width:1.5;stroke-linecap:round;stroke-linejoin:round;}
	.st4{fill:#FFFFFF;stroke:#19A301;stroke-width:1.5;stroke-linecap:round;stroke-linejoin:round;}
</style>
<symbol  id="OCENSA-EXT" viewBox="-35 -7.5 70 15">
	<line id="Line_4_1_" class="st0" x1="6.7" y1="0" x2="15.1" y2="0"/>
	<line id="Line_5_1_" class="st0" x1="23.4" y1="0" x2="24.1" y2="0"/>
	<line id="Line_6_1_" class="st0" x1="-24.1" y1="0" x2="-15.8" y2="0"/>
	<line id="Line_7_1_" class="st1" x1="-16.3" y1="0" x2="-1.7" y2="0"/>
	<rect x="-35" y="-7.5" class="st2" width="70" height="15"/>
</symbol>
<title>Mesa de trabajo 2</title>
<rect y="0" class="st2" width="70" height="70"/>
<use xlink:href="#OCENSA-EXT"  width="70" height="15" x="-35" y="-7.5" transform="matrix(1 0 0 1 35 62.4999)" style="overflow:visible;"/>
<g>
	<g>
		<g>
			<path class="st3" d="M15.6,25.4v9.7c0,2.2,1.8,4,4,4h2.6v8l7.9-8h10.5"/>
			<polyline class="st3" points="49.2,23.5 49.2,13.6 27,13.6 			"/>
		</g>
	</g>
	<circle id="Ellipse_2_2_" class="st4" cx="17.2" cy="15.1" r="5.8"/>
	<g>
		<circle class="st3" cx="49.6" cy="37.4" r="9"/>
		<polyline class="st3" points="49.2,31.6 49.2,37.8 51.7,40.3 		"/>
	</g>
	<g>
		<line class="st3" x1="24.2" y1="21.4" x2="40.6" y2="21.4"/>
		<line class="st3" x1="24.2" y1="26.5" x2="38.2" y2="26.5"/>
		<line class="st3" x1="24.2" y1="31.6" x2="30.6" y2="31.6"/>
	</g>
</g>
</svg>
