<?xml version="1.0" encoding="utf-8"?>
<!-- Generator: Adobe Illustrator 24.0.2, SVG Export Plug-In . SVG Version: 6.00 Build 0)  -->
<svg version="1.1" id="Capa_1" xmlns="http://www.w3.org/2000/svg" xmlns:xlink="http://www.w3.org/1999/xlink" x="0px" y="0px"
	 viewBox="0 0 70 70" style="enable-background:new 0 0 70 70;" xml:space="preserve">
<style type="text/css">
	.st0{fill:none;stroke:#19A301;stroke-width:2.4;stroke-linecap:round;stroke-linejoin:round;}
	.st1{fill:none;stroke:#82D400;stroke-width:2.4;stroke-linecap:round;stroke-linejoin:round;}
	.st2{fill:none;}
	.st3{fill:none;stroke:#19A301;stroke-width:1.5;stroke-linecap:round;stroke-linejoin:round;}
	.st4{fill:none;stroke:#000000;stroke-width:1.5;stroke-linecap:round;stroke-linejoin:round;stroke-miterlimit:10;}
</style>
<symbol  id="OCENSA-EXT" viewBox="-35 -7.5 70 15">
	<g>
		<line id="Line_4_2_" class="st0" x1="6.7" y1="0" x2="15.1" y2="0"/>
		<line id="Line_5_2_" class="st0" x1="23.4" y1="0" x2="24.1" y2="0"/>
		<line id="Line_6_2_" class="st0" x1="-24.1" y1="0" x2="-15.8" y2="0"/>
		<line id="Line_7_2_" class="st1" x1="-16.3" y1="0" x2="-1.7" y2="0"/>
	</g>
	<rect x="-35" y="-7.5" class="st2" width="70" height="15"/>
</symbol>
<g>
	<g>
		
			<use xlink:href="#OCENSA-EXT"  width="70" height="15" x="-35" y="-7.5" transform="matrix(1 0 0 -1 35 62.5)" style="overflow:visible;"/>
		<rect class="st2" width="70" height="70"/>
	</g>
	<g>
		<circle id="Ellipse_2_89_" class="st3" cx="20.5" cy="15" r="5.8"/>
		<polyline class="st4" points="48,10 48,18 55.3,18 		"/>
		<path class="st4" d="M19.1,24.3V44c0,5.7,4.6,10.4,10.4,10.4h25.8V18"/>
		<polyline class="st4" points="55.3,17.8 47.8,9.5 46.1,9.5 27.8,9.5 		"/>
		<line class="st4" x1="29.4" y1="44.2" x2="46.2" y2="44.2"/>
		<line class="st4" x1="29.4" y1="49.4" x2="46.2" y2="49.4"/>
		<g>
			<g>
				<g>
					<line class="st4" x1="38" y1="29.3" x2="38" y2="40.5"/>
					<line class="st4" x1="44.7" y1="25.1" x2="38.1" y2="31.6"/>
					<line class="st4" x1="32.3" y1="32" x2="37.9" y2="35.8"/>
					<path class="st4" d="M46.2,28.5c-1.4,1.4-3.6,1.4-5,0c-1.4-1.4-1.4-3.6,0-5c1.4-1.4,7.5-2.4,7.5-2.4S47.6,27.1,46.2,28.5z"/>
					<g>
						<line class="st4" x1="31.2" y1="31.3" x2="34.7" y2="33.7"/>
						<path class="st4" d="M34.2,29.5c1.4,0.9,1.6,2.9,0.6,4.3s-2.9,1.9-4.3,1c-1.4-0.9-3-5.9-3-5.9S32.9,28.5,34.2,29.5z"/>
					</g>
				</g>
				<line class="st4" x1="32.5" y1="40.6" x2="44.1" y2="40.6"/>
			</g>
		</g>
	</g>
</g>
</svg>
