<svg xmlns="http://www.w3.org/2000/svg" width="30.639" height="74.04" viewBox="0 0 30.639 74.04">
  <path id="Trazado_12108" data-name="Trazado 12108" d="M-9169.249-2954.3c.163.856,1.716,7.98-2.392,7.633s-5.672-.635-7.855.755-4.457,3.4-.916,4.574,3.795,2.926,4.509,4.427,3.556,1.986.823,4.79-1.863,3.563,0,4.192,2.7,2.4,0,4.193-.871,3.822-.823,5.793.534,3.681-2.595,4.711a32.14,32.14,0,0,0-7.153,3.676c-1.759,1.073-4.525,2.415-4.321,5.3s1.283,3.394,2.411,3.518,2.68.045,1.91,2.121,2.479,1.1,1.658,3.221-4.322,5.879-7.605,8.042a32.617,32.617,0,0,0-5.453,4.51" transform="translate(9198.465 2955.465)" fill="none" stroke="aqua" stroke-linecap="round" stroke-width="2"/>
</svg>
