<svg xmlns="http://www.w3.org/2000/svg" width="120.394" height="142.487" viewBox="0 0 120.394 142.487">
  <path id="Trazado_12108" data-name="Trazado 12108" d="M-9128.037-3019.5a9.871,9.871,0,0,0,4.806,3.514c3.217,1.081,4.459,4.375,6.71,6.388a33.054,33.054,0,0,0,10.157,6.175c3.849,1.31,7.326,2.5,9.988,3.51s2.795,2.663,8.66,2.857,8.016,2.564,11.418,2.776,6.3-.1,7.729,1.825,5.7,1.193,6.972,3.166.215,3.724,2.734,4.665,4.676.833,3.96,5.247,3,6.523,1.246,10.678-4.512,5.887-1.246,6.576,1.361,2.49,2.217,4.579,4.395-.636,4.082,3.637.482,4.165,2.17,5.109-.342,3.268,2.723,4.591,7.021,1.895,3.341,4.687-2.038,4.271,1.718,6.14,3.848,3.207,1.746,5.45-1.855,2.984,0,4.137-2.42,5.188-.807,6.882,3.7,1.926,3.607,4.138,2.911,1.047,3.1,2.88.731,5.741,1.989,6.17,3.842.1,4.3,1.964a4.653,4.653,0,0,0,3.3,3.953c2.45,1.045,7.375,5.831,7.785,9.438s4.156,6.025,3.565,8.783" transform="translate(9129.421 3020.884)" fill="none" stroke="aqua" stroke-linecap="round" stroke-width="2"/>
</svg>
