<svg xmlns="http://www.w3.org/2000/svg" width="55.406" height="153.609" viewBox="0 0 55.406 153.609">
  <g id="Componente_164_17" data-name="Componente 164 – 17" transform="translate(1.01 1.326)">
    <path id="Trazado_12107" data-name="Trazado 12107" d="M-16698.047,2111.52s3.311,7.2-4.012,9.216-10.508,7.334-6.578,8.834,6.2,3.9,2.484,7.855,5.266,3.477,1.75,8.222.943,8.116-1.75,10.022-6.961,2.967-6.918,5.024,4.236,5.2,0,7.223-7.891,1.514-8.164,3.96,5.969,6.105-3.174,7.6-10.883,4.611-6.748,7.016,5.385,7.531-1.187,8.664-8.877,4.05,0,5.44,9.424-.512,11.109,1.323-.143,5.156-1.488,7.271,2.213,4.41,12.127,6.137,14.443.01,13.682,4.333-4.111,4.413,2.623,8.068,12.416,1.837,7.963,6.807-2.3,8.538-5.055,12.27-7.568,1.979-11.955,0-9.586-.325-6.43,4.528,9.439,6.393,5.365,11.053" transform="translate(16738.17 -2111.52)" fill="none" stroke="aqua" stroke-linecap="round" stroke-width="2"/>
  </g>
</svg>
