<svg xmlns="http://www.w3.org/2000/svg" width="62.745" height="116.282" viewBox="0 0 62.745 116.282">
  <path id="Trazado_12108" data-name="Trazado 12108" d="M-8941-3002.234s-7.018,7.549-10,9.1-3.678,2.951-5.866,6.512-6.345,6.09-8.053,7.208-3.957,4.507-7.013,7.985-4.532,6.435-9.152,5.9-3.354,5.932-7.492,10.164-1.013,7.215-2.659,10.027-4.132,2.912-2.948,6.348-1.959,1.736-1.923,3.483,1.844,5.229,0,7.283-4.214,4.681-3.317,6.4,4.938,8.611,4.52,13.163,1.78,4.475-1.2,10.405-1.772,4.871-6.088,11.041" transform="translate(9003.013 3002.915)" fill="none" stroke="aqua" stroke-width="2"/>
</svg>
