<svg xmlns="http://www.w3.org/2000/svg" width="118.786" height="66.283" viewBox="0 0 118.786 66.283">
  <path id="Trazado_12108" data-name="Trazado 12108" d="M-9260.522-3020.572c-.036.7,2.665,4.926,0,5.166s-3.375,1.55-3.8,3.506-.039,4.813-1.173,5.825-2.257,3.939-1.034,5.74a14.588,14.588,0,0,0,4.433,4.271c1.186.563,2.776.856,1.571,3.219s-2.354,3.424-2.244,4.97,3.662,3.583,2.244,5.03-3.364-.312-3.8,1.476-.656,4.985-3.338,6.053-6.109-.641-12.981,1.437-10.2,3.32-13.812,4.194-5.415,2.277-10,2.3-4.953.325-8.077,3.127-5.747,1-6.458,3.719-7.168,1.224-13.393,1.85-1.215,2.579-12.557,2.3-14.88-.605-19.519-1.576-9.257,1.45-11.625,1.576" transform="translate(9377.133 3021.622)" fill="none" stroke="aqua" stroke-linecap="round" stroke-width="2"/>
</svg>
