<svg xmlns="http://www.w3.org/2000/svg" width="28.561" height="88.838" viewBox="0 0 28.561 88.838">
  <path id="Trazado_12109" data-name="Trazado 12109" d="M-9215.255-2970.326c-1.7,1.321-3.673,3.343-3.745,4.342s-.408,1.551-3.375,3.8-4.367,3.119-4.469,4.945-2,3-1.006,4.536,4.686,1.882,1.006,4.622-2.269,5.913,0,7.8,7.67,4.462,6.092,6.66-3.633,6.357-3.268,7.626,3.879,2.815,3.268,6.358-1.761,9.693-.521,11.224,6.535,2.786,6.019,5.34-2.519,3.9-.857,8.036a17.971,17.971,0,0,0,6.309,7.972c2.3,1.825,6.646.813,7.08,3" transform="translate(9230.108 2971.729)" fill="none" stroke="aqua" stroke-linecap="round" stroke-width="2"/>
</svg>
