<svg xmlns="http://www.w3.org/2000/svg" width="271.455" height="180.791" viewBox="0 0 271.455 180.791">
  <g id="Componente_277_2" data-name="Componente 277 – 2" transform="translate(1.387 1.302)">
    <path id="Trazado_29336" data-name="Trazado 29336" d="M-19278.047,2995.239s3.541-5.287,5.508-5.212,13.215,1.236,14.209,0,9.117-4.686,12.063-5.7,4.934-3.678,9.355-4.489a24.765,24.765,0,0,1,9.227,0,23.453,23.453,0,0,0,9.49-1.243c3.295-1.071,6.184-2.519,6.068-3.395s-4.855-4.953-4.855-5.518,4.164-4.206,5.848-4.94,3.951-.542,4.18-1.319,2.506-3.026,5.031-5.45,2.779-2.576,5.793-3.021a27.062,27.062,0,0,0,8.188-2.763c2.012-1.079,3.326-.484,6,0s4.959,2.239,7.615,0,2.217-4.989,4.428-5.024,6.7-4.1,9.535-7.15,4.848-4.4,8.564-4.976,6.33-1.839,7.605-3.089,4.266-.33,8.873-1.337,6.879.232,6.738-1.837-3.562-2.7-1.021-3.978,12.133-4.494,13.588-5.051-1.461-1.75,3.18-2.765,4.895.014,5.328-.845,4.451-5.868,8.912-7.505,18.574-2.2,20.416-3.4,13.6-8.731,12.037-10.428-7.467-3.826-8.131-6.063.178-3.98-1.275-4.416.59-3.555-1.6-3.642-1.41-.539-1.033-1.944.713-2.858-1.623-3.673-5.277-4.8,0-6.238,11.41-2.315,13.66-4.734,4.662-6.2,1.477-7.1-3.395-5.31-4.076-7.512-1.787-3.981,1.957-5.457,5.121-3.039,4.27-3.992-2.725-2.491,0-3.021,2.961,1.751,5.314,1.662,5.938-3.125,11-3.09,4.523-3.159,9.271-3.438,8.934-.923,10.363-3.093,4.977-8.859,10.693-10.212,6.592-1.706,6.592-1.706" transform="translate(19278.047 -2817.137)" fill="none" stroke="#2cfffe" stroke-linecap="round" stroke-width="2"/>
  </g>
</svg>
