<svg id="icon-boyaca-alto-flores" xmlns="http://www.w3.org/2000/svg" width="70" height="70" viewBox="0 0 70 70">
  <g id="Grupo_23691" data-name="Grupo 23691">
    <g id="Grupo_23690" data-name="Grupo 23690">
      <g id="Grupo_23689" data-name="Grupo 23689">
        <line id="Line_4" data-name="Line 4" x2="8.375" transform="translate(41.677 62.5)" fill="none" stroke="#19a301" stroke-linecap="round" stroke-linejoin="round" stroke-width="2.4"/>
        <line id="Line_5" data-name="Line 5" x2="0.679" transform="translate(58.405 62.5)" fill="none" stroke="#19a301" stroke-linecap="round" stroke-linejoin="round" stroke-width="2.4"/>
        <line id="Line_6" data-name="Line 6" x2="8.298" transform="translate(10.916 62.5)" fill="none" stroke="#19a301" stroke-linecap="round" stroke-linejoin="round" stroke-width="2.4"/>
        <line id="Line_7" data-name="Line 7" x2="14.628" transform="translate(18.674 62.5)" fill="none" stroke="#82d400" stroke-linecap="round" stroke-linejoin="round" stroke-width="2.4"/>
      </g>
      <rect id="Rectángulo_7303" data-name="Rectángulo 7303" width="70" height="15" transform="translate(0 55)" fill="none"/>
    </g>
  </g>
  <g id="Grupo_23695" data-name="Grupo 23695">
    <g id="Grupo_23692" data-name="Grupo 23692">
      <line id="Línea_3883" data-name="Línea 3883" x1="1.04" y1="1.65" transform="translate(44.988 22.36)" fill="none" stroke="#000" stroke-linecap="round" stroke-linejoin="round" stroke-width="1.5"/>
      <line id="Línea_3884" data-name="Línea 3884" x1="15.04" y1="23.87" transform="translate(49.258 29.13)" fill="none" stroke="#000" stroke-linecap="round" stroke-linejoin="round" stroke-width="1.5"/>
      <path id="Trazado_29184" data-name="Trazado 29184" d="M41.708,20.97,30.158,38.79,20.3,54" fill="none" stroke="#000" stroke-linecap="round" stroke-linejoin="round" stroke-width="1.5"/>
      <path id="Trazado_29185" data-name="Trazado 29185" d="M18.135,27.406,20.52,24.09l9.64,14.7" fill="none" stroke="#000" stroke-linecap="round" stroke-linejoin="round" stroke-width="1.5"/>
      <path id="Trazado_29186" data-name="Trazado 29186" d="M18.135,27.406" fill="none" stroke="#000" stroke-linecap="round" stroke-linejoin="round" stroke-width="1.5"/>
      <line id="Línea_3885" data-name="Línea 3885" x1="2.516" y2="3.496" transform="translate(5.48 41.514)" fill="none" stroke="#000" stroke-linecap="round" stroke-linejoin="round" stroke-width="1.5"/>
      <path id="Trazado_29187" data-name="Trazado 29187" d="M32.3,36l5,6,5.753-3.61L48.3,42l5-6" fill="none" stroke="#000" stroke-linecap="round" stroke-linejoin="round" stroke-width="1.5"/>
    </g>
    <g id="Grupo_23694" data-name="Grupo 23694">
      <g id="Grupo_23693" data-name="Grupo 23693">
        <path id="Trazado_29188" data-name="Trazado 29188" d="M48.642,22.4a8.021,8.021,0,0,0-3.565,2.661c-1.726,2.288-1.868,4.693-1.867,7.208,2.446-.678,4.582-1.181,6.307-3.468a9.172,9.172,0,0,0,1.767-4.534A2.741,2.741,0,0,1,48.642,22.4Z" fill="none" stroke="#000" stroke-linecap="round" stroke-linejoin="round" stroke-width="1.5"/>
        <path id="Trazado_29189" data-name="Trazado 29189" d="M48.611,22.3a2.728,2.728,0,0,1,1.128-3.065,8.063,8.063,0,0,0-3.759-2.566c-2.73-.873-5.047-.212-7.419.62,1.447,2.084,2.627,3.934,5.356,4.806A9.1,9.1,0,0,0,48.611,22.3Z" fill="none" stroke="#000" stroke-linecap="round" stroke-linejoin="round" stroke-width="1.5"/>
        <path id="Trazado_29190" data-name="Trazado 29190" d="M51.134,18.783a2.731,2.731,0,0,1,1.873.647,8.14,8.14,0,0,0,1.52-4.473c.082-2.866-1.2-4.908-2.653-6.957-1.6,1.969-3.051,3.616-3.132,6.48A9.128,9.128,0,0,0,49.9,19.135,2.738,2.738,0,0,1,51.134,18.783Z" fill="none" stroke="#000" stroke-linecap="round" stroke-linejoin="round" stroke-width="1.5"/>
        <path id="Trazado_29191" data-name="Trazado 29191" d="M53.822,22.449a2.744,2.744,0,0,1-2.471,1.816,8.091,8.091,0,0,0,1.4,4.392c1.621,2.365,3.856,3.263,6.24,4.061.135-2.534.338-4.719-1.283-7.081A9.247,9.247,0,0,0,53.822,22.449Z" fill="none" stroke="#000" stroke-linecap="round" stroke-linejoin="round" stroke-width="1.5"/>
        <path id="Trazado_29192" data-name="Trazado 29192" d="M57.422,16.961a9.233,9.233,0,0,0-4.3,2.571,2.734,2.734,0,0,1,.7,2.9,8.164,8.164,0,0,0,4.766.215c2.773-.728,4.373-2.529,5.929-4.5C62.182,17.16,60.193,16.233,57.422,16.961Z" fill="none" stroke="#000" stroke-linecap="round" stroke-linejoin="round" stroke-width="1.5"/>
      </g>
    </g>
    <circle id="Ellipse_2" data-name="Ellipse 2" cx="5.795" cy="5.795" r="5.795" transform="translate(7.545 28.46)" fill="none" stroke="#19a301" stroke-linecap="round" stroke-linejoin="round" stroke-width="1.5"/>
  </g>
  <rect id="Rectángulo_7304" data-name="Rectángulo 7304" width="70" height="70" fill="none"/>
</svg>
