<?xml version="1.0" encoding="utf-8"?>
<!-- Generator: Adobe Illustrator 24.0.2, SVG Export Plug-In . SVG Version: 6.00 Build 0)  -->
<svg version="1.1" xmlns="http://www.w3.org/2000/svg" xmlns:xlink="http://www.w3.org/1999/xlink" x="0px" y="0px"
	 viewBox="0 0 70 70" style="enable-background:new 0 0 70 70;" xml:space="preserve">
<style type="text/css">
	.st0{fill:none;stroke:#19A301;stroke-width:2.4;stroke-linecap:round;stroke-linejoin:round;}
	.st1{fill:none;stroke:#82D400;stroke-width:2.4;stroke-linecap:round;stroke-linejoin:round;}
	.st2{fill:none;}
	.st3{fill:#999999;}
	.st4{fill:none;stroke:#19A301;stroke-width:1.5;stroke-linecap:round;stroke-linejoin:round;}
	.st5{fill:none;stroke:#000000;stroke-width:1.5;stroke-linecap:round;stroke-linejoin:round;stroke-miterlimit:10;}
	.st6{fill:none;stroke:#000000;stroke-width:1.394;stroke-linecap:round;stroke-linejoin:round;stroke-miterlimit:10;}
	.st7{fill:none;stroke:#000000;stroke-width:0.224;stroke-linecap:round;stroke-linejoin:round;stroke-miterlimit:10;}
	.st8{fill:none;stroke:#000000;stroke-width:1.2878;stroke-linecap:round;stroke-linejoin:round;stroke-miterlimit:10;}
	.st9{fill:none;stroke:#000000;stroke-width:1.6609;stroke-linecap:round;stroke-linejoin:round;stroke-miterlimit:10;}
	.st10{fill:none;stroke:#00A800;stroke-width:1.6707;stroke-miterlimit:10;}
	.st11{fill:none;stroke:#00A800;stroke-width:1.5;stroke-miterlimit:10;}
	.st12{fill:none;stroke:#FFFFFF;stroke-width:1.5;stroke-linecap:round;stroke-linejoin:round;stroke-miterlimit:10;}
	.st13{fill:none;stroke:#19A301;stroke-width:1.5;stroke-linecap:round;stroke-linejoin:round;stroke-miterlimit:10;}
	.st14{fill:none;stroke:#000000;stroke-width:1.2721;stroke-linecap:round;stroke-linejoin:round;stroke-miterlimit:10;}
	.st15{fill:none;stroke:#000000;stroke-width:1.3075;stroke-linecap:round;stroke-linejoin:round;stroke-miterlimit:10;}
	.st16{fill:none;stroke:#19A301;stroke-width:1.3145;stroke-linecap:round;stroke-linejoin:round;}
	.st17{fill:none;stroke:#000000;stroke-width:1.5545;stroke-linecap:round;stroke-linejoin:round;stroke-miterlimit:10;}
	.st18{fill:none;stroke:#FFFFFF;stroke-width:1.5944;stroke-linecap:round;stroke-linejoin:round;stroke-miterlimit:10;}
	.st19{fill:none;stroke:#FFFFFF;stroke-width:1.4947;stroke-linecap:round;stroke-linejoin:round;stroke-miterlimit:10;}
	.st20{fill:none;stroke:#FFFFFF;stroke-width:1.6588;stroke-linecap:round;stroke-linejoin:round;stroke-miterlimit:10;}
	.st21{fill:none;stroke:#000000;stroke-width:1.5763;stroke-linecap:round;stroke-linejoin:round;stroke-miterlimit:10;}
	.st22{fill:none;stroke:#000000;stroke-width:1.6588;stroke-linecap:round;stroke-linejoin:round;stroke-miterlimit:10;}
	.st23{stroke:#000000;stroke-width:0.3431;stroke-miterlimit:10;}
	.st24{stroke:#000000;stroke-width:0.4369;stroke-miterlimit:10;}
	.st25{stroke:#000000;stroke-width:0.4183;stroke-miterlimit:10;}
</style>
<symbol  id="OCENSA-EXT" viewBox="-35 -7.5 70 15">
	<g>
		<line id="Line_4_2_" class="st0" x1="6.68" y1="0" x2="15.05" y2="0"/>
		<line id="Line_5_2_" class="st0" x1="23.41" y1="0" x2="24.08" y2="0"/>
		<line id="Line_6_2_" class="st0" x1="-24.08" y1="0" x2="-15.79" y2="0"/>
		<line id="Line_7_2_" class="st1" x1="-16.33" y1="0" x2="-1.7" y2="0"/>
	</g>
	<rect x="-35" y="-7.5" class="st2" width="70" height="15"/>
</symbol>
<g id="Capa_2">
</g>
<g id="Capa_1">
	<g>
		
			<use xlink:href="#OCENSA-EXT"  width="70" height="15" x="-35" y="-7.5" transform="matrix(1 0 0 -1 35 62.5)" style="overflow:visible;"/>
		<rect class="st2" width="70" height="70"/>
		<g>
			<circle id="Ellipse_2_146_" class="st4" cx="8.78" cy="22.09" r="5.8"/>
			<g>
				<path class="st5" d="M35.85,26.31c-1.09-1.36-2.77-2.23-4.65-2.23c-3.09,0-5.64,2.36-5.92,5.38c-0.04,0.41-0.18,0.81-0.41,1.16
					l0,0"/>
				<path class="st5" d="M16.2,26.23c3.8,2.05,7.49,3.83,8.66,4.39c0.25,0.12,0.38,0.18,0.38,0.18c1.4,0.73,2.32,1.91,2.32,3.25
					c0,2.22-2.52,4.02-5.62,4.02c-0.53,0-1.05-0.05-1.54-0.15c-1.66-0.34-3-1.2-3.65-2.33"/>
				<path class="st5" d="M15.65,32.06c-0.39-0.05-0.76-0.11-1.11-0.16c-2.11-0.33-3.68-0.67-4.83-1"/>
				<path class="st5" d="M14.55,31.89c0,0-10.76,5.79,4.62,3.36"/>
				<path class="st5" d="M20.41,37.92l-9.11,16.4c-0.21,0.37,0.16,0.8,0.56,0.65c2.2-0.84,7.15-3.49,10.5-11.02"/>
				<path class="st5" d="M17.33,43.47c1.23,0.37,2.53,0.56,3.87,0.56c5.76,0,10.68-3.59,12.64-8.66c0.5-1.28,0.8-2.66,0.89-4.1
					c0.04-0.67,0.1-1.34,0.19-2l0.16-1.18c0.2-1.47,1.3-2.66,2.75-2.98c1.5-0.33,3.6-0.64,6.07-0.62"/>
				<line class="st5" x1="31.03" y1="27.88" x2="31.6" y2="27.88"/>
			</g>
			<g>
				<line id="Línea_2376_1_" class="st5" x1="50.16" y1="18.15" x2="50.16" y2="53.65"/>
				<line id="Línea_2377_1_" class="st5" x1="39.3" y1="12.66" x2="50.02" y2="23.38"/>
				<line id="Línea_2378_1_" class="st5" x1="59.57" y1="23.94" x2="50.33" y2="30.22"/>
				<path id="Trazado_11782_1_" class="st5" d="M36.76,18.17c2.31,2.24,5.99,2.18,8.23-0.12c2.19-2.26,2.19-5.85,0-8.11
					C42.72,7.67,32.82,6,32.82,6S34.49,15.9,36.76,18.17z"/>
				<path id="Trazado_11783_1_" class="st5" d="M56.23,19.62c-2.26,1.84-2.59,5.17-0.75,7.43c1.62,1.98,4.42,2.52,6.65,1.28
					c2.21-1.5,4.89-9.67,4.89-9.67S58.44,18.12,56.23,19.62z"/>
			</g>
			<line class="st5" x1="58.31" y1="54" x2="42.31" y2="54"/>
		</g>
	</g>
</g>
</svg>
