<svg id="Group_23587" data-name="Group 23587" xmlns="http://www.w3.org/2000/svg" width="70" height="70" viewBox="0 0 70 70">
  <g id="Group_23583" data-name="Group 23583" transform="translate(0 55)">
    <g id="Group_23582" data-name="Group 23582">
      <g id="Group_23581" data-name="Group 23581" transform="translate(10.916 7.5)">
        <line id="Line_4" data-name="Line 4" x2="8.375" transform="translate(30.761)" fill="none" stroke="#19a301" stroke-linecap="round" stroke-linejoin="round" stroke-width="2.4"/>
        <line id="Line_5" data-name="Line 5" x2="0.679" transform="translate(47.489)" fill="none" stroke="#19a301" stroke-linecap="round" stroke-linejoin="round" stroke-width="2.4"/>
        <line id="Line_6" data-name="Line 6" x2="8.298" transform="translate(0)" fill="none" stroke="#19a301" stroke-linecap="round" stroke-linejoin="round" stroke-width="2.4"/>
        <line id="Line_7" data-name="Line 7" x2="14.628" transform="translate(7.758)" fill="none" stroke="#82d400" stroke-linecap="round" stroke-linejoin="round" stroke-width="2.4"/>
      </g>
      <rect id="Rectangle_7271" data-name="Rectangle 7271" width="70" height="15" fill="none"/>
    </g>
  </g>
  <rect id="Rectangle_7272" data-name="Rectangle 7272" width="70" height="70" fill="none"/>
  <g id="Group_23586" data-name="Group 23586" transform="translate(7.507 9.59)">
    <circle id="Ellipse_2" data-name="Ellipse 2" cx="5.795" cy="5.795" r="5.795" transform="translate(0 12.015)" fill="none" stroke="#19a301" stroke-linecap="round" stroke-linejoin="round" stroke-width="1.5"/>
    <g id="Group_23585" data-name="Group 23585" transform="translate(6.464)">
      <g id="Group_23584" data-name="Group 23584" transform="translate(6.212 9.5)">
        <path id="Path_29126" data-name="Path 29126" d="M32.317,34.011,41.741,19.09l9.424,15.216" transform="translate(-20.183 -19.09)" fill="none" stroke="#000" stroke-linecap="round" stroke-linejoin="round" stroke-width="1.5"/>
        <path id="Path_29127" data-name="Path 29127" d="M20.183,34.011l8.655-12.046,6.077,7.366" transform="translate(-20.183 -19.09)" fill="none" stroke="#000" stroke-linecap="round" stroke-linejoin="round" stroke-width="1.5"/>
        <path id="Path_29128" data-name="Path 29128" d="M36.987,26.691l2.637,2.356,2.188-2.3,2.412,2.244,2.244-2.3" transform="translate(-20.183 -19.09)" fill="none" stroke="#000" stroke-linecap="round" stroke-linejoin="round" stroke-width="1.5"/>
      </g>
      <path id="Path_29129" data-name="Path 29129" d="M13.971,18.448V17.8a3.862,3.862,0,0,1,3.861-3.862H54.76A3.862,3.862,0,0,1,58.622,17.8V41.239A3.862,3.862,0,0,1,54.76,45.1H17.832a3.861,3.861,0,0,1-3.861-3.861V36.553" transform="translate(-13.971 -9.59)" fill="none" stroke="#000" stroke-linecap="round" stroke-linejoin="round" stroke-width="1.5"/>
      <path id="Path_29130" data-name="Path 29130" d="M20.059,14.031" transform="translate(-13.971 -9.59)" fill="none" stroke="#000" stroke-linecap="round" stroke-linejoin="round" stroke-width="1.5"/>
      <path id="Path_29131" data-name="Path 29131" d="M20.059,45.249" transform="translate(-13.971 -9.59)" fill="none" stroke="#000" stroke-linecap="round" stroke-linejoin="round" stroke-width="1.5"/>
      <path id="Path_29132" data-name="Path 29132" d="M24.477,45.19v9.341H20.059V45.249" transform="translate(-13.971 -9.59)" fill="none" stroke="#000" stroke-linecap="round" stroke-linejoin="round" stroke-width="1.5"/>
      <path id="Path_29133" data-name="Path 29133" d="M52.885,45.19v9.341H48.467V45.249" transform="translate(-13.971 -9.59)" fill="none" stroke="#000" stroke-linecap="round" stroke-linejoin="round" stroke-width="1.5"/>
      <path id="Path_29134" data-name="Path 29134" d="M24.477,45.19" transform="translate(-13.971 -9.59)" fill="none" stroke="#000" stroke-linecap="round" stroke-linejoin="round" stroke-width="1.5"/>
      <path id="Path_29135" data-name="Path 29135" d="M24.477,13.973" transform="translate(-13.971 -9.59)" fill="none" stroke="#000" stroke-linecap="round" stroke-linejoin="round" stroke-width="1.5"/>
      <path id="Path_29136" data-name="Path 29136" d="M20.059,13.86V11.728A2.138,2.138,0,0,1,22.2,9.59h.142a2.138,2.138,0,0,1,2.138,2.138V13.8" transform="translate(-13.971 -9.59)" fill="none" stroke="#000" stroke-linecap="round" stroke-linejoin="round" stroke-width="1.5"/>
      <path id="Path_29137" data-name="Path 29137" d="M48.365,13.86V11.728A2.138,2.138,0,0,1,50.5,9.59h.142a2.138,2.138,0,0,1,2.138,2.138V13.8" transform="translate(-13.971 -9.59)" fill="none" stroke="#000" stroke-linecap="round" stroke-linejoin="round" stroke-width="1.5"/>
      <circle id="Ellipse_3183" data-name="Ellipse 3183" cx="2.349" cy="2.349" r="2.349" transform="translate(35.876 8.862)" fill="none" stroke="#000" stroke-linecap="round" stroke-linejoin="round" stroke-width="1.5"/>
    </g>
    <line id="Line_3847" data-name="Line 3847" x2="52.394" transform="translate(2.592 44.931)" fill="none" stroke="#000" stroke-linecap="round" stroke-linejoin="round" stroke-width="1.5"/>
  </g>
</svg>
