<svg xmlns="http://www.w3.org/2000/svg" xmlns:xlink="http://www.w3.org/1999/xlink" width="70" height="70" viewBox="0 0 70 70">
  <defs>
    <clipPath id="clip-path">
      <rect id="Rectángulo_7876" data-name="Rectángulo 7876" width="70" height="70" transform="translate(117 990.051)" fill="#fd0d1b"/>
    </clipPath>
  </defs>
  <g id="Enmascarar_grupo_54" data-name="Enmascarar grupo 54" transform="translate(-117 -990.051)" clip-path="url(#clip-path)">
    <g id="icon_nuestros_pricipios_nuestros_principios" data-name="icon_nuestros_pricipios_nuestros principios" transform="translate(117 990.051)">
      <g id="Grupo_24595" data-name="Grupo 24595">
        <rect id="Rectángulo_7872" data-name="Rectángulo 7872" width="70" height="70" fill="none"/>
      </g>
      <rect id="Rectángulo_7873" data-name="Rectángulo 7873" width="70" height="15" transform="translate(0 55)" fill="none"/>
      <line id="Line_4_15_" x2="8.4" transform="translate(41.7 62.5)" fill="none" stroke="#19a301" stroke-linecap="round" stroke-linejoin="round" stroke-width="2.4"/>
      <line id="Line_5_15_" x2="0.7" transform="translate(58.4 62.5)" fill="none" stroke="#19a301" stroke-linecap="round" stroke-linejoin="round" stroke-width="2.4"/>
      <line id="Line_6_15_" x2="8.3" transform="translate(10.9 62.5)" fill="none" stroke="#19a301" stroke-linecap="round" stroke-linejoin="round" stroke-width="2.4"/>
      <line id="Line_7_15_" x2="14.6" transform="translate(18.7 62.5)" fill="none" stroke="#82d400" stroke-linecap="round" stroke-linejoin="round" stroke-width="2.4"/>
      <g id="Grupo_24596" data-name="Grupo 24596">
        <rect id="Rectángulo_7874" data-name="Rectángulo 7874" width="70" height="70" fill="none"/>
      </g>
      <rect id="Rectángulo_7875" data-name="Rectángulo 7875" width="70" height="15" transform="translate(0 55)" fill="none"/>
      <line id="Line_4_14_" x2="8.4" transform="translate(41.7 62.5)" fill="none" stroke="#19a301" stroke-linecap="round" stroke-linejoin="round" stroke-width="2.4"/>
      <line id="Line_5_14_" x2="0.7" transform="translate(58.4 62.5)" fill="none" stroke="#19a301" stroke-linecap="round" stroke-linejoin="round" stroke-width="2.4"/>
      <line id="Line_6_14_" x2="8.3" transform="translate(10.9 62.5)" fill="none" stroke="#19a301" stroke-linecap="round" stroke-linejoin="round" stroke-width="2.4"/>
      <line id="Line_7_14_" x2="14.6" transform="translate(18.7 62.5)" fill="none" stroke="#82d400" stroke-linecap="round" stroke-linejoin="round" stroke-width="2.4"/>
      <path id="Trazado_29516" data-name="Trazado 29516" d="M33.4,26.9l3,3.5,8-9.5" fill="none" stroke="#000" stroke-linecap="round" stroke-linejoin="round" stroke-miterlimit="10" stroke-width="1.5"/>
      <path id="Trazado_29517" data-name="Trazado 29517" d="M27.2,11.7a4.689,4.689,0,0,0-1.3-3.3,4.841,4.841,0,0,0-3.6-1.6,4.9,4.9,0,1,0,4.9,4.9Z" fill="none" stroke="#19a301" stroke-linecap="round" stroke-linejoin="round" stroke-width="1.5"/>
      <path id="Trazado_29518" data-name="Trazado 29518" d="M46,10.8V18h6.6" fill="none" stroke="#000" stroke-linecap="round" stroke-linejoin="round" stroke-miterlimit="10" stroke-width="1.5"/>
      <path id="Trazado_29519" data-name="Trazado 29519" d="M20,20.4v21a9.389,9.389,0,0,0,9.4,9.4H52.7V18" fill="none" stroke="#000" stroke-linecap="round" stroke-linejoin="round" stroke-miterlimit="10" stroke-width="1.5"/>
      <path id="Trazado_29520" data-name="Trazado 29520" d="M52.6,17.8l-6.7-7.5h-15" fill="none" stroke="#000" stroke-linecap="round" stroke-linejoin="round" stroke-miterlimit="10" stroke-width="1.5"/>
      <line id="Línea_3920" data-name="Línea 3920" x2="15.2" transform="translate(28.6 43.8)" fill="none" stroke="#000" stroke-linecap="round" stroke-linejoin="round" stroke-miterlimit="10" stroke-width="1.5"/>
      <line id="Línea_3921" data-name="Línea 3921" x2="9.6" transform="translate(31.4 39.7)" fill="none" stroke="#000" stroke-linecap="round" stroke-linejoin="round" stroke-miterlimit="10" stroke-width="1.5"/>
      <path id="Trazado_29521" data-name="Trazado 29521" d="M42.4,28a6.051,6.051,0,1,1-6-6.2A6.125,6.125,0,0,1,42.4,28Z" fill="none" stroke="#000" stroke-linecap="round" stroke-linejoin="round" stroke-miterlimit="10" stroke-width="1.5"/>
    </g>
  </g>
</svg>
