<svg id="Grupo_24838" data-name="Grupo 24838" xmlns="http://www.w3.org/2000/svg" width="70" height="70" viewBox="0 0 70 70">
  <g id="Grupo_24833" data-name="Grupo 24833">
    <g id="Grupo_24832" data-name="Grupo 24832">
      <g id="Grupo_24831" data-name="Grupo 24831">
        <line id="Line_4" data-name="Line 4" x2="8.375" transform="translate(41.677 62.5)" fill="none" stroke="#19a301" stroke-linecap="round" stroke-linejoin="round" stroke-width="2.4"/>
        <line id="Line_5" data-name="Line 5" x2="0.679" transform="translate(58.405 62.5)" fill="none" stroke="#19a301" stroke-linecap="round" stroke-linejoin="round" stroke-width="2.4"/>
        <line id="Line_6" data-name="Line 6" x2="8.298" transform="translate(10.916 62.5)" fill="none" stroke="#19a301" stroke-linecap="round" stroke-linejoin="round" stroke-width="2.4"/>
        <line id="Line_7" data-name="Line 7" x2="14.628" transform="translate(18.674 62.5)" fill="none" stroke="#82d400" stroke-linecap="round" stroke-linejoin="round" stroke-width="2.4"/>
      </g>
      <rect id="Rectángulo_7935" data-name="Rectángulo 7935" width="70" height="15" transform="translate(0 55)" fill="none"/>
    </g>
  </g>
  <rect id="Rectángulo_7936" data-name="Rectángulo 7936" width="70" height="70" fill="none"/>
  <g id="Grupo_24837" data-name="Grupo 24837">
    <g id="Grupo_24834" data-name="Grupo 24834">
      <path id="Trazado_29811" data-name="Trazado 29811" d="M42.665,44.757h4.6l.084,4.948a.376.376,0,0,0,.624.276l5.964-5.224h6.642a2.636,2.636,0,0,0,2.636-2.635V30.178a2.636,2.636,0,0,0-2.636-2.636H42.665a2.636,2.636,0,0,0-2.636,2.636V42.122A2.636,2.636,0,0,0,42.665,44.757Z" fill="none" stroke="#fff" stroke-linecap="round" stroke-linejoin="round" stroke-width="1.5"/>
    </g>
    <line id="Línea_4149" data-name="Línea 4149" x2="11.234" transform="translate(45.796 34.655)" fill="none" stroke="#fff" stroke-linecap="round" stroke-linejoin="round" stroke-width="1.5"/>
    <line id="Línea_4150" data-name="Línea 4150" x2="11.234" transform="translate(45.796 38.655)" fill="none" stroke="#fff" stroke-linecap="round" stroke-linejoin="round" stroke-width="1.5"/>
    <g id="Grupo_24836" data-name="Grupo 24836">
      <circle id="Ellipse_2" data-name="Ellipse 2" cx="5.795" cy="5.795" r="5.795" transform="translate(6.787 30.843)" fill="none" stroke="#fff" stroke-linecap="round" stroke-linejoin="round" stroke-width="1.5" opacity="0.487"/>
      <g id="Grupo_24835" data-name="Grupo 24835">
        <line id="Línea_4151" data-name="Línea 4151" y2="4.539" transform="translate(24.766 24.826)" fill="none" stroke="#fff" stroke-linecap="round" stroke-linejoin="round" stroke-width="1.5"/>
        <line id="Línea_4152" data-name="Línea 4152" y2="4.539" transform="translate(31.408 24.826)" fill="none" stroke="#fff" stroke-linecap="round" stroke-linejoin="round" stroke-width="1.5"/>
        <line id="Línea_4153" data-name="Línea 4153" x1="8.62" y1="3.87" transform="translate(31.411 29.38)" fill="none" stroke="#fff" stroke-linecap="round" stroke-linejoin="round" stroke-width="1.5"/>
        <path id="Trazado_29812" data-name="Trazado 29812" d="M43.771,44.76v9.33H12.4V45.82" fill="none" stroke="#fff" stroke-linecap="round" stroke-linejoin="round" stroke-width="1.5"/>
        <line id="Línea_4154" data-name="Línea 4154" x1="4.531" y2="2.037" transform="translate(20.235 29.375)" fill="none" stroke="#fff" stroke-linecap="round" stroke-linejoin="round" stroke-width="1.5"/>
        <path id="Trazado_29813" data-name="Trazado 29813" d="M28.087,33.131" fill="none" stroke="#fff" stroke-linecap="round" stroke-linejoin="round" stroke-width="1.5"/>
        <line id="Línea_4155" data-name="Línea 4155" x1="3.321" y1="3.766" transform="translate(24.766 29.365)" fill="none" stroke="#fff" stroke-linecap="round" stroke-linejoin="round" stroke-width="1.5"/>
        <path id="Trazado_29814" data-name="Trazado 29814" d="M28.087,33.131" fill="none" stroke="#fff" stroke-linecap="round" stroke-linejoin="round" stroke-width="1.5"/>
        <line id="Línea_4156" data-name="Línea 4156" y1="3.766" x2="3.321" transform="translate(28.087 29.365)" fill="none" stroke="#fff" stroke-linecap="round" stroke-linejoin="round" stroke-width="1.5"/>
        <path id="Trazado_29815" data-name="Trazado 29815" d="M34.32,19.524a6.259,6.259,0,0,1-12.519,0" fill="none" stroke="#fff" stroke-linecap="round" stroke-linejoin="round" stroke-width="1.5"/>
        <path id="Trazado_29816" data-name="Trazado 29816" d="M21.8,19.524V15.2a6.259,6.259,0,0,1,12.519,0v4.322" fill="none" stroke="#fff" stroke-linecap="round" stroke-linejoin="round" stroke-width="1.5"/>
        <path id="Trazado_29817" data-name="Trazado 29817" d="M19.66,14.74a8.316,8.316,0,0,1,16.63.17v.3" fill="none" stroke="#fff" stroke-linecap="round" stroke-linejoin="round" stroke-width="1.5"/>
        <rect id="Rectángulo_7937" data-name="Rectángulo 7937" width="3.429" height="4.681" transform="translate(34.32 15.213)" fill="none" stroke="#fff" stroke-linecap="round" stroke-linejoin="round" stroke-width="1.5"/>
        <rect id="Rectángulo_7938" data-name="Rectángulo 7938" width="3.429" height="4.681" transform="translate(18.373 14.745)" fill="none" stroke="#fff" stroke-linecap="round" stroke-linejoin="round" stroke-width="1.5"/>
        <path id="Trazado_29818" data-name="Trazado 29818" d="M19.66,19.47v2.85h6.43" fill="none" stroke="#fff" stroke-linecap="round" stroke-linejoin="round" stroke-width="1.5"/>
        <rect id="Rectángulo_7939" data-name="Rectángulo 7939" width="3.489" height="2.979" rx="1.489" transform="translate(26 20.34)" fill="none" stroke="#fff" stroke-linecap="round" stroke-linejoin="round" stroke-width="1.5"/>
      </g>
    </g>
  </g>
</svg>
