<svg id="Grupo_24772" data-name="Grupo 24772" xmlns="http://www.w3.org/2000/svg" width="70" height="70" viewBox="0 0 70 70">
  <path id="Trazado_29769" data-name="Trazado 29769" d="M35.284,49" fill="none" stroke="#000" stroke-linecap="round" stroke-linejoin="round" stroke-width="1.5"/>
  <path id="Trazado_29770" data-name="Trazado 29770" d="M35.284,46.815" fill="none" stroke="#000" stroke-linecap="round" stroke-linejoin="round" stroke-width="1.5"/>
  <g id="Grupo_24771" data-name="Grupo 24771">
    <g id="Grupo_24768" data-name="Grupo 24768">
      <g id="Grupo_24767" data-name="Grupo 24767">
        <g id="Grupo_24766" data-name="Grupo 24766">
          <line id="Line_4" data-name="Line 4" x2="8.375" transform="translate(41.677 62.5)" fill="none" stroke="#19a301" stroke-linecap="round" stroke-linejoin="round" stroke-width="2.4"/>
          <line id="Line_5" data-name="Line 5" x2="0.679" transform="translate(58.405 62.5)" fill="none" stroke="#19a301" stroke-linecap="round" stroke-linejoin="round" stroke-width="2.4"/>
          <line id="Line_6" data-name="Line 6" x2="8.298" transform="translate(10.916 62.5)" fill="none" stroke="#19a301" stroke-linecap="round" stroke-linejoin="round" stroke-width="2.4"/>
          <line id="Line_7" data-name="Line 7" x2="14.628" transform="translate(18.674 62.5)" fill="none" stroke="#82d400" stroke-linecap="round" stroke-linejoin="round" stroke-width="2.4"/>
        </g>
        <rect id="Rectángulo_7909" data-name="Rectángulo 7909" width="70" height="15" transform="translate(0 55)" fill="none"/>
      </g>
    </g>
    <rect id="Rectángulo_7910" data-name="Rectángulo 7910" width="70" height="70" fill="none"/>
    <rect id="Rectángulo_7911" data-name="Rectángulo 7911" width="70" height="70" fill="none"/>
    <path id="Trazado_29771" data-name="Trazado 29771" d="M38.711,49" fill="none" stroke="#000" stroke-linecap="round" stroke-linejoin="round" stroke-width="1.5"/>
    <g id="Grupo_24770" data-name="Grupo 24770">
      <path id="Trazado_29772" data-name="Trazado 29772" d="M36.939,49.815" fill="none" stroke="#000" stroke-linecap="round" stroke-linejoin="round" stroke-width="1.5"/>
      <circle id="Ellipse_2" data-name="Ellipse 2" cx="5.795" cy="5.795" r="5.795" transform="translate(8.61 8.843)" fill="none" stroke="#19a301" stroke-linecap="round" stroke-linejoin="round" stroke-width="1.5"/>
      <path id="Trazado_29773" data-name="Trazado 29773" d="M35.052,53.873H21.77a8.36,8.36,0,0,1-8.36-8.36V23.759" fill="none" stroke="#000" stroke-linecap="round" stroke-linejoin="round" stroke-width="1.5"/>
      <path id="Trazado_29774" data-name="Trazado 29774" d="M49.788,43.35V53.87H28.148" fill="none" stroke="#000" stroke-linecap="round" stroke-linejoin="round" stroke-width="1.5"/>
      <path id="Trazado_29775" data-name="Trazado 29775" d="M22.018,8.79h20.56l7.22,7.46V24.1" fill="none" stroke="#000" stroke-linecap="round" stroke-linejoin="round" stroke-width="1.5"/>
      <path id="Trazado_29776" data-name="Trazado 29776" d="M42.432,8.786v8.048H49.8" fill="none" stroke="#000" stroke-linecap="round" stroke-linejoin="round" stroke-width="1.5"/>
      <line id="Línea_4114" data-name="Línea 4114" x1="12.685" transform="translate(19.198 25.77)" fill="none" stroke="#000" stroke-linecap="round" stroke-linejoin="round" stroke-width="1.5"/>
      <line id="Línea_4115" data-name="Línea 4115" x1="12.534" transform="translate(19.368 31.77)" fill="none" stroke="#000" stroke-linecap="round" stroke-linejoin="round" stroke-width="1.5"/>
      <line id="Línea_4116" data-name="Línea 4116" x1="12.534" transform="translate(19.368 37.77)" fill="none" stroke="#000" stroke-linecap="round" stroke-linejoin="round" stroke-width="1.5"/>
      <line id="Línea_4117" data-name="Línea 4117" x1="18.287" transform="translate(19.364 43.77)" fill="none" stroke="#000" stroke-linecap="round" stroke-linejoin="round" stroke-width="1.5"/>
      <g id="Grupo_24769" data-name="Grupo 24769">
        <path id="Trazado_29777" data-name="Trazado 29777" d="M40.842,41.315h4.6l.084,4.947a.376.376,0,0,0,.623.277l5.965-5.224h6.642A2.636,2.636,0,0,0,61.39,38.68V26.735A2.636,2.636,0,0,0,58.754,24.1H40.842a2.636,2.636,0,0,0-2.636,2.635V38.68A2.636,2.636,0,0,0,40.842,41.315Z" fill="none" stroke="#000" stroke-linecap="round" stroke-linejoin="round" stroke-width="1.5"/>
      </g>
      <line id="Línea_4118" data-name="Línea 4118" x2="11.234" transform="translate(43.973 31.213)" fill="none" stroke="#000" stroke-linecap="round" stroke-linejoin="round" stroke-width="1.5"/>
      <line id="Línea_4119" data-name="Línea 4119" x2="11.234" transform="translate(43.973 35.213)" fill="none" stroke="#000" stroke-linecap="round" stroke-linejoin="round" stroke-width="1.5"/>
    </g>
  </g>
</svg>
