<svg xmlns="http://www.w3.org/2000/svg" width="200" height="200" viewBox="0 0 200 200">
  <g id="Grupo_24890" data-name="Grupo 24890" transform="translate(-585 -4500)">
    <path id="Trazado_29515" data-name="Trazado 29515" d="M100,0A100,100,0,1,1,0,100,100,100,0,0,1,100,0Z" transform="translate(585 4500)" fill="#2e3d43"/>
    <g id="Grupo_24852" data-name="Grupo 24852" transform="translate(740 4565)">
      <g id="Grupo_24848" data-name="Grupo 24848">
        <g id="Grupo_24847" data-name="Grupo 24847">
          <g id="Grupo_24846" data-name="Grupo 24846">
            <line id="Line_4" data-name="Line 4" x2="8.375" transform="translate(-48.323 62.5)" fill="none" stroke="#fff" stroke-linecap="round" stroke-linejoin="round" stroke-width="2.4"/>
            <line id="Line_5" data-name="Line 5" x2="0.679" transform="translate(-31.595 62.5)" fill="none" stroke="#19a301" stroke-linecap="round" stroke-linejoin="round" stroke-width="2.4"/>
            <line id="Line_6" data-name="Line 6" x2="8.298" transform="translate(-79.084 62.5)" fill="none" stroke="#fff" stroke-linecap="round" stroke-linejoin="round" stroke-width="2.4"/>
            <line id="Line_7" data-name="Line 7" x2="14.628" transform="translate(-71.326 62.5)" fill="none" stroke="#82d400" stroke-linecap="round" stroke-linejoin="round" stroke-width="2.4"/>
          </g>
          <rect id="Rectángulo_7943" data-name="Rectángulo 7943" width="70" height="15" transform="translate(-90 55)" fill="none"/>
        </g>
        <rect id="Rectángulo_7944" data-name="Rectángulo 7944" width="70" height="70" transform="translate(-90)" fill="none"/>
      </g>
      <g id="Grupo_24851" data-name="Grupo 24851">
        <g id="Grupo_24849" data-name="Grupo 24849">
          <circle id="Ellipse_2" data-name="Ellipse 2" cx="5.795" cy="5.795" r="5.795" transform="translate(-79.245 7.843)" fill="none" stroke="#19a301" stroke-linecap="round" stroke-linejoin="round" stroke-width="1.5"/>
          <path id="Trazado_29835" data-name="Trazado 29835" d="M-52.8,52.873H-66.086a8.36,8.36,0,0,1-8.359-8.36V22.759" fill="none" stroke="#fff" stroke-linecap="round" stroke-linejoin="round" stroke-width="1.5"/>
          <path id="Trazado_29836" data-name="Trazado 29836" d="M-65.838,7.79h20.56l7.22,7.46v5.91l-.01,15.67" fill="none" stroke="#fff" stroke-linecap="round" stroke-linejoin="round" stroke-width="1.5"/>
          <path id="Trazado_29837" data-name="Trazado 29837" d="M-38.628,47.28v5.59h-21.08" fill="none" stroke="#fff" stroke-linecap="round" stroke-linejoin="round" stroke-width="1.5"/>
          <path id="Trazado_29838" data-name="Trazado 29838" d="M-45.424,7.786v8.048h7.366" fill="none" stroke="#fff" stroke-linecap="round" stroke-linejoin="round" stroke-width="1.5"/>
          <line id="Línea_4165" data-name="Línea 4165" x2="19.055" transform="translate(-65.487 24.774)" fill="none" stroke="#fff" stroke-linecap="round" stroke-linejoin="round" stroke-width="1.5"/>
          <line id="Línea_4166" data-name="Línea 4166" x1="16.91" transform="translate(-65.488 30.77)" fill="none" stroke="#fff" stroke-linecap="round" stroke-linejoin="round" stroke-width="1.5"/>
          <line id="Línea_4167" data-name="Línea 4167" x1="10.52" transform="translate(-65.488 36.77)" fill="none" stroke="#fff" stroke-linecap="round" stroke-linejoin="round" stroke-width="1.5"/>
          <line id="Línea_4168" data-name="Línea 4168" x1="10.82" transform="translate(-65.488 42.77)" fill="none" stroke="#fff" stroke-linecap="round" stroke-linejoin="round" stroke-width="1.5"/>
        </g>
        <g id="Grupo_24850" data-name="Grupo 24850">
          <circle id="Elipse_3263" data-name="Elipse 3263" cx="8.831" cy="8.831" r="8.831" transform="translate(-55.359 30.524)" fill="none" stroke="#fff" stroke-linecap="round" stroke-linejoin="round" stroke-width="1.5"/>
          <path id="Rectángulo_7945" data-name="Rectángulo 7945" d="M0,0H2.208a0,0,0,0,1,0,0V9.935a1.1,1.1,0,0,1-1.1,1.1h0A1.1,1.1,0,0,1,0,9.935V0A0,0,0,0,1,0,0Z" transform="translate(-39.954 46.074) rotate(-47.739)" fill="none" stroke="#fff" stroke-linecap="round" stroke-linejoin="round" stroke-width="1.5"/>
        </g>
        <circle id="Elipse_3264" data-name="Elipse 3264" cx="4.876" cy="4.876" r="4.876" transform="translate(-51.404 34.479)" fill="none" stroke="#fff" stroke-linecap="round" stroke-linejoin="round" stroke-width="1.5"/>
      </g>
    </g>
  </g>
</svg>
