<svg xmlns="http://www.w3.org/2000/svg" width="70" height="70" viewBox="0 0 70 70">
  <g id="Grupo_24747" data-name="Grupo 24747" transform="translate(0 90)">
    <path id="Trazado_29745" data-name="Trazado 29745" d="M35.284-41" fill="none" stroke="#000" stroke-linecap="round" stroke-linejoin="round" stroke-width="1.5"/>
    <path id="Trazado_29746" data-name="Trazado 29746" d="M35.284-43.185" fill="none" stroke="#000" stroke-linecap="round" stroke-linejoin="round" stroke-width="1.5"/>
    <g id="Grupo_24753" data-name="Grupo 24753">
      <g id="Grupo_24748" data-name="Grupo 24748">
        <g id="Grupo_24747-2" data-name="Grupo 24747">
          <line id="Line_4" data-name="Line 4" x2="8.375" transform="translate(41.677 -27.5)" fill="none" stroke="#19a301" stroke-linecap="round" stroke-linejoin="round" stroke-width="2.4"/>
          <line id="Line_5" data-name="Line 5" x2="0.679" transform="translate(58.405 -27.5)" fill="none" stroke="#19a301" stroke-linecap="round" stroke-linejoin="round" stroke-width="2.4"/>
          <line id="Line_6" data-name="Line 6" x2="8.298" transform="translate(10.916 -27.5)" fill="none" stroke="#19a301" stroke-linecap="round" stroke-linejoin="round" stroke-width="2.4"/>
          <line id="Line_7" data-name="Line 7" x2="14.628" transform="translate(18.674 -27.5)" fill="none" stroke="#82d400" stroke-linecap="round" stroke-linejoin="round" stroke-width="2.4"/>
        </g>
        <rect id="Rectángulo_7899" data-name="Rectángulo 7899" width="70" height="15" transform="translate(0 -35)" fill="none"/>
      </g>
      <rect id="Rectángulo_7900" data-name="Rectángulo 7900" width="70" height="70" transform="translate(0 -90)" fill="none"/>
      <rect id="Rectángulo_7901" data-name="Rectángulo 7901" width="70" height="70" transform="translate(0 -90)" fill="none"/>
      <path id="Trazado_29747" data-name="Trazado 29747" d="M38.711-41" fill="none" stroke="#000" stroke-linecap="round" stroke-linejoin="round" stroke-width="1.5"/>
      <path id="Trazado_29748" data-name="Trazado 29748" d="M38.711-43.185" fill="none" stroke="#000" stroke-linecap="round" stroke-linejoin="round" stroke-width="1.5"/>
      <g id="Grupo_24752" data-name="Grupo 24752">
        <g id="Grupo_24749" data-name="Grupo 24749">
          <circle id="Ellipse_2" data-name="Ellipse 2" cx="5.795" cy="5.795" r="5.795" transform="translate(10.765 -81.157)" fill="none" stroke="#19a301" stroke-linecap="round" stroke-linejoin="round" stroke-width="1.5"/>
          <path id="Trazado_29749" data-name="Trazado 29749" d="M37.207-36.127H23.925a8.36,8.36,0,0,1-8.36-8.36V-66.241" fill="none" stroke="#000" stroke-linecap="round" stroke-linejoin="round" stroke-width="1.5"/>
          <line id="Línea_4096" data-name="Línea 4096" y1="0.5" transform="translate(51.95 -50.6)" fill="none" stroke="#000" stroke-linecap="round" stroke-linejoin="round" stroke-width="1.5"/>
          <path id="Trazado_29750" data-name="Trazado 29750" d="M51.95-67.84v-5.91l-7.22-7.46H24.17" fill="none" stroke="#000" stroke-linecap="round" stroke-linejoin="round" stroke-width="1.5"/>
          <path id="Trazado_29751" data-name="Trazado 29751" d="M44.586-81.214v8.048h7.366" fill="none" stroke="#000" stroke-linecap="round" stroke-linejoin="round" stroke-width="1.5"/>
          <line id="Línea_4097" data-name="Línea 4097" x2="19.055" transform="translate(24.523 -64.226)" fill="none" stroke="#000" stroke-linecap="round" stroke-linejoin="round" stroke-width="1.5"/>
          <line id="Línea_4098" data-name="Línea 4098" x2="19.055" transform="translate(24.523 -58.226)" fill="none" stroke="#000" stroke-linecap="round" stroke-linejoin="round" stroke-width="1.5"/>
          <line id="Línea_4099" data-name="Línea 4099" x2="19.055" transform="translate(24.523 -52.226)" fill="none" stroke="#000" stroke-linecap="round" stroke-linejoin="round" stroke-width="1.5"/>
          <line id="Línea_4100" data-name="Línea 4100" x1="18.287" transform="translate(24.519 -46.23)" fill="none" stroke="#000" stroke-linecap="round" stroke-linejoin="round" stroke-width="1.5"/>
          <path id="Trazado_29752" data-name="Trazado 29752" d="M30.3-36.13H43.58a8.356,8.356,0,0,0,8.36-8.36v-6.09" fill="none" stroke="#000" stroke-linecap="round" stroke-linejoin="round" stroke-width="1.5"/>
        </g>
        <g id="Grupo_24751" data-name="Grupo 24751">
          <rect id="Rectángulo_7902" data-name="Rectángulo 7902" width="6.192" height="25.849" transform="matrix(0.893, 0.45, -0.45, 0.893, 53.337, -67.111)" fill="none" stroke="#000" stroke-linecap="round" stroke-linejoin="round" stroke-width="1.5"/>
          <g id="Grupo_24750" data-name="Grupo 24750">
            <path id="Rectángulo_7903" data-name="Rectángulo 7903" d="M3.1,0h0a3.1,3.1,0,0,1,3.1,3.1v3.52a0,0,0,0,1,0,0H0a0,0,0,0,1,0,0V3.1A3.1,3.1,0,0,1,3.1,0Z" transform="translate(56.316 -73.018) rotate(26.764)" fill="none" stroke="#000" stroke-linecap="round" stroke-linejoin="round" stroke-width="1.5"/>
            <path id="Trazado_29753" data-name="Trazado 29753" d="M41.677-43.992l.693,5.5L47.206-41.2" fill="none" stroke="#000" stroke-linecap="round" stroke-linejoin="round" stroke-width="1.5"/>
            <path id="Trazado_29754" data-name="Trazado 29754" d="M53.349-67.134,50.51-68.566l-3.428,6.8" fill="none" stroke="#000" stroke-linecap="round" stroke-linejoin="round" stroke-width="1.5"/>
          </g>
        </g>
      </g>
    </g>
  </g>
</svg>
