<svg xmlns="http://www.w3.org/2000/svg" width="200" height="200" viewBox="0 0 200 200">
  <g id="Grupo_24889" data-name="Grupo 24889" transform="translate(-205 -4500)">
    <path id="Trazado_29515" data-name="Trazado 29515" d="M100,0A100,100,0,1,1,0,100,100,100,0,0,1,100,0Z" transform="translate(205 4500)" fill="#19a301"/>
    <g id="Grupo_24845" data-name="Grupo 24845" transform="translate(450 4565)">
      <path id="Trazado_29819" data-name="Trazado 29819" d="M-144.716,49" fill="none" stroke="#000" stroke-linecap="round" stroke-linejoin="round" stroke-width="1.5"/>
      <path id="Trazado_29820" data-name="Trazado 29820" d="M-144.716,46.815" fill="none" stroke="#000" stroke-linecap="round" stroke-linejoin="round" stroke-width="1.5"/>
      <g id="Grupo_24844" data-name="Grupo 24844">
        <rect id="Rectángulo_7940" data-name="Rectángulo 7940" width="70" height="70" transform="translate(-180)" fill="none"/>
        <rect id="Rectángulo_7941" data-name="Rectángulo 7941" width="70" height="70" transform="translate(-180)" fill="none"/>
        <path id="Trazado_29821" data-name="Trazado 29821" d="M-141.289,49" fill="none" stroke="#000" stroke-linecap="round" stroke-linejoin="round" stroke-width="1.5"/>
        <path id="Trazado_29822" data-name="Trazado 29822" d="M-141.289,46.815" fill="none" stroke="#000" stroke-linecap="round" stroke-linejoin="round" stroke-width="1.5"/>
        <g id="Grupo_24841" data-name="Grupo 24841">
          <g id="Grupo_24839" data-name="Grupo 24839">
            <circle id="Ellipse_2" data-name="Ellipse 2" cx="5.795" cy="5.795" r="5.795" transform="translate(-169.617 7.843)" fill="none" stroke="#fff" stroke-linecap="round" stroke-linejoin="round" stroke-width="1.5"/>
            <path id="Trazado_29823" data-name="Trazado 29823" d="M-143.175,52.873h-13.283a8.36,8.36,0,0,1-8.36-8.36V22.759" fill="none" stroke="#fff" stroke-linecap="round" stroke-linejoin="round" stroke-width="1.5"/>
            <path id="Trazado_29824" data-name="Trazado 29824" d="M-128.44,32.3l.01-11.14V15.25l-7.22-7.46h-20.56" fill="none" stroke="#fff" stroke-linecap="round" stroke-linejoin="round" stroke-width="1.5"/>
            <path id="Trazado_29825" data-name="Trazado 29825" d="M-150.08,52.87h13.28a7.357,7.357,0,0,0,1.25-.1" fill="none" stroke="#fff" stroke-linecap="round" stroke-linejoin="round" stroke-width="1.5"/>
            <path id="Trazado_29826" data-name="Trazado 29826" d="M-135.8,7.786v8.048h7.366" fill="none" stroke="#fff" stroke-linecap="round" stroke-linejoin="round" stroke-width="1.5"/>
            <line id="Línea_4157" data-name="Línea 4157" x2="19.055" transform="translate(-155.859 24.774)" fill="none" stroke="#fff" stroke-linecap="round" stroke-linejoin="round" stroke-width="1.5"/>
            <line id="Línea_4158" data-name="Línea 4158" x2="19.055" transform="translate(-155.859 30.774)" fill="none" stroke="#fff" stroke-linecap="round" stroke-linejoin="round" stroke-width="1.5"/>
            <line id="Línea_4159" data-name="Línea 4159" x1="15.96" transform="translate(-155.86 36.77)" fill="none" stroke="#fff" stroke-linecap="round" stroke-linejoin="round" stroke-width="1.5"/>
            <line id="Línea_4160" data-name="Línea 4160" x1="14.06" transform="translate(-155.86 42.77)" fill="none" stroke="#fff" stroke-linecap="round" stroke-linejoin="round" stroke-width="1.5"/>
          </g>
          <circle id="Elipse_3262" data-name="Elipse 3262" cx="10.898" cy="10.898" r="10.898" transform="translate(-141.796 32.017)" fill="none" stroke="#fff" stroke-linecap="round" stroke-linejoin="round" stroke-width="1.5"/>
          <g id="Grupo_24840" data-name="Grupo 24840">
            <line id="Línea_4161" data-name="Línea 4161" y2="2.32" transform="translate(-129.254 44.489)" fill="none" stroke="#fff" stroke-linecap="round" stroke-linejoin="round" stroke-width="1.5"/>
            <line id="Línea_4162" data-name="Línea 4162" y2="2.32" transform="translate(-132.648 44.489)" fill="none" stroke="#fff" stroke-linecap="round" stroke-linejoin="round" stroke-width="1.5"/>
            <path id="Trazado_29827" data-name="Trazado 29827" d="M-132.648,46.814l-3.869,2.043A3,3,0,0,0-138,50.311" fill="none" stroke="#fff" stroke-linecap="round" stroke-linejoin="round" stroke-width="1.5"/>
            <path id="Trazado_29828" data-name="Trazado 29828" d="M-129.254,46.814l3.87,2.043a3,3,0,0,1,1.482,1.454" fill="none" stroke="#fff" stroke-linecap="round" stroke-linejoin="round" stroke-width="1.5"/>
            <path id="Trazado_29829" data-name="Trazado 29829" d="M-130.951,48.733" fill="none" stroke="#fff" stroke-linecap="round" stroke-linejoin="round" stroke-width="1.5"/>
            <line id="Línea_4163" data-name="Línea 4163" y1="1.924" x2="1.697" transform="translate(-130.951 46.808)" fill="none" stroke="#fff" stroke-linecap="round" stroke-linejoin="round" stroke-width="1.5"/>
            <path id="Trazado_29830" data-name="Trazado 29830" d="M-130.951,48.733" fill="none" stroke="#fff" stroke-linecap="round" stroke-linejoin="round" stroke-width="1.5"/>
            <line id="Línea_4164" data-name="Línea 4164" x1="1.697" y1="1.924" transform="translate(-132.648 46.808)" fill="none" stroke="#fff" stroke-linecap="round" stroke-linejoin="round" stroke-width="1.5"/>
            <path id="Trazado_29831" data-name="Trazado 29831" d="M-130.951,48.733" fill="none" stroke="#fff" stroke-linecap="round" stroke-linejoin="round" stroke-width="1.5"/>
            <path id="Trazado_29832" data-name="Trazado 29832" d="M-130.951,48.733" fill="none" stroke="#fff" stroke-linecap="round" stroke-linejoin="round" stroke-width="1.5"/>
            <path id="Trazado_29833" data-name="Trazado 29833" d="M-134.136,41.78a3.2,3.2,0,0,0,3.2,3.2,3.2,3.2,0,0,0,3.2-3.2" fill="none" stroke="#fff" stroke-linecap="round" stroke-linejoin="round" stroke-width="1.5"/>
            <path id="Trazado_29834" data-name="Trazado 29834" d="M-127.739,41.78V39.571a3.2,3.2,0,0,0-3.2-3.2,3.2,3.2,0,0,0-3.2,3.2V41.78" fill="none" stroke="#fff" stroke-linecap="round" stroke-linejoin="round" stroke-width="1.5"/>
          </g>
        </g>
        <g id="Grupo_24843" data-name="Grupo 24843">
          <g id="Grupo_24842" data-name="Grupo 24842">
            <line id="Line_4" data-name="Line 4" x2="8.375" transform="translate(-138.323 62.5)" fill="none" stroke="#fff" stroke-linecap="round" stroke-linejoin="round" stroke-width="2.4"/>
            <line id="Line_5" data-name="Line 5" x2="0.679" transform="translate(-121.595 62.5)" fill="none" stroke="#82d400" stroke-linecap="round" stroke-linejoin="round" stroke-width="2.4"/>
            <line id="Line_6" data-name="Line 6" x2="8.298" transform="translate(-169.084 62.5)" fill="none" stroke="#fff" stroke-linecap="round" stroke-linejoin="round" stroke-width="2.4"/>
            <line id="Line_7" data-name="Line 7" x2="14.628" transform="translate(-161.326 62.5)" fill="none" stroke="#82d400" stroke-linecap="round" stroke-linejoin="round" stroke-width="2.4"/>
          </g>
          <rect id="Rectángulo_7942" data-name="Rectángulo 7942" width="70" height="15" transform="translate(-180 55)" fill="none"/>
        </g>
      </g>
    </g>
  </g>
</svg>
