<svg id="Grupo_23927" data-name="Grupo 23927" xmlns="http://www.w3.org/2000/svg" width="70" height="70" viewBox="0 0 70 70">
  <g id="Grupo_23924" data-name="Grupo 23924">
    <g id="Grupo_23923" data-name="Grupo 23923">
      <g id="Grupo_23922" data-name="Grupo 23922">
        <line id="Line_4" data-name="Line 4" x2="8.375" transform="translate(41.677 62.5)" fill="none" stroke="#19a301" stroke-linecap="round" stroke-linejoin="round" stroke-width="2.4"/>
        <line id="Line_5" data-name="Line 5" x2="0.679" transform="translate(58.405 62.5)" fill="none" stroke="#19a301" stroke-linecap="round" stroke-linejoin="round" stroke-width="2.4"/>
        <line id="Line_6" data-name="Line 6" x2="8.298" transform="translate(10.916 62.5)" fill="none" stroke="#19a301" stroke-linecap="round" stroke-linejoin="round" stroke-width="2.4"/>
        <line id="Line_7" data-name="Line 7" x2="14.628" transform="translate(18.674 62.5)" fill="none" stroke="#82d400" stroke-linecap="round" stroke-linejoin="round" stroke-width="2.4"/>
      </g>
      <rect id="Rectángulo_7395" data-name="Rectángulo 7395" width="70" height="15" transform="translate(0 55)" fill="none"/>
    </g>
  </g>
  <rect id="Rectángulo_7396" data-name="Rectángulo 7396" width="70" height="70" fill="none"/>
  <g id="Grupo_23926" data-name="Grupo 23926">
    <circle id="Ellipse_2" data-name="Ellipse 2" cx="5.795" cy="5.795" r="5.795" transform="translate(9.922 28.935)" fill="none" stroke="#19a301" stroke-linecap="round" stroke-linejoin="round" stroke-width="1.5"/>
    <line id="Línea_3853" data-name="Línea 3853" y2="3.905" transform="translate(25.226 22.172)" fill="none" stroke="#000" stroke-linecap="round" stroke-linejoin="round" stroke-width="1.5"/>
    <line id="Línea_3854" data-name="Línea 3854" y2="3.905" transform="translate(30.939 22.172)" fill="none" stroke="#000" stroke-linecap="round" stroke-linejoin="round" stroke-width="1.5"/>
    <path id="Trazado_29331" data-name="Trazado 29331" d="M30.937,26.088l7.66,3.441a5.068,5.068,0,0,1,2.586,2.654" fill="none" stroke="#000" stroke-linecap="round" stroke-linejoin="round" stroke-width="1.5"/>
    <path id="Trazado_29332" data-name="Trazado 29332" d="M14.584,43.735v5.4H33.09" fill="none" stroke="#000" stroke-linecap="round" stroke-linejoin="round" stroke-width="1.5"/>
    <line id="Línea_3855" data-name="Línea 3855" x1="3.752" y2="1.687" transform="translate(21.474 26.085)" fill="none" stroke="#000" stroke-linecap="round" stroke-linejoin="round" stroke-width="1.5"/>
    <path id="Trazado_29333" data-name="Trazado 29333" d="M28.082,29.316" fill="none" stroke="#000" stroke-linecap="round" stroke-linejoin="round" stroke-width="1.5"/>
    <line id="Línea_3856" data-name="Línea 3856" x1="2.857" y1="3.24" transform="translate(25.226 26.077)" fill="none" stroke="#000" stroke-linecap="round" stroke-linejoin="round" stroke-width="1.5"/>
    <path id="Trazado_29334" data-name="Trazado 29334" d="M28.082,29.316" fill="none" stroke="#000" stroke-linecap="round" stroke-linejoin="round" stroke-width="1.5"/>
    <line id="Línea_3857" data-name="Línea 3857" y1="3.24" x2="2.857" transform="translate(28.082 26.077)" fill="none" stroke="#000" stroke-linecap="round" stroke-linejoin="round" stroke-width="1.5"/>
    <path id="Trazado_29335" data-name="Trazado 29335" d="M33.444,17.611a5.385,5.385,0,0,1-10.769,0" fill="none" stroke="#000" stroke-linecap="round" stroke-linejoin="round" stroke-width="1.5"/>
    <path id="Trazado_29336" data-name="Trazado 29336" d="M22.675,17.611V13.893a5.385,5.385,0,1,1,10.769,0v3.718" fill="none" stroke="#000" stroke-linecap="round" stroke-linejoin="round" stroke-width="1.5"/>
    <path id="Trazado_29337" data-name="Trazado 29337" d="M46.584,34.269" fill="none" stroke="#000" stroke-linecap="round" stroke-linejoin="round" stroke-width="1.5"/>
    <path id="Trazado_29338" data-name="Trazado 29338" d="M46.584,34.269" fill="none" stroke="#000" stroke-linecap="round" stroke-linejoin="round" stroke-width="1.5"/>
    <g id="Grupo_23925" data-name="Grupo 23925">
      <line id="Línea_3858" data-name="Línea 3858" y2="3.905" transform="translate(43.727 27.124)" fill="none" stroke="#000" stroke-linecap="round" stroke-linejoin="round" stroke-width="1.5"/>
      <line id="Línea_3859" data-name="Línea 3859" y2="3.905" transform="translate(49.44 27.124)" fill="none" stroke="#000" stroke-linecap="round" stroke-linejoin="round" stroke-width="1.5"/>
      <path id="Trazado_29339" data-name="Trazado 29339" d="M43.727,31.038l-7.655,3.441a5.056,5.056,0,0,0-2.983,4.612v15H60.078v-15A5.055,5.055,0,0,0,57.1,34.479l-7.654-3.441" fill="none" stroke="#000" stroke-linecap="round" stroke-linejoin="round" stroke-width="1.5"/>
      <line id="Línea_3860" data-name="Línea 3860" x1="2.857" y1="3.24" transform="translate(43.727 31.029)" fill="none" stroke="#000" stroke-linecap="round" stroke-linejoin="round" stroke-width="1.5"/>
      <line id="Línea_3861" data-name="Línea 3861" y1="3.24" x2="2.857" transform="translate(46.584 31.029)" fill="none" stroke="#000" stroke-linecap="round" stroke-linejoin="round" stroke-width="1.5"/>
      <path id="Trazado_29340" data-name="Trazado 29340" d="M51.946,22.563a5.385,5.385,0,1,1-10.77,0" fill="none" stroke="#000" stroke-linecap="round" stroke-linejoin="round" stroke-width="1.5"/>
      <path id="Trazado_29341" data-name="Trazado 29341" d="M41.176,22.563V18.845a5.385,5.385,0,0,1,10.77,0v3.718" fill="none" stroke="#000" stroke-linecap="round" stroke-linejoin="round" stroke-width="1.5"/>
    </g>
  </g>
</svg>
