<svg id="Grupo_23525" data-name="Grupo 23525" xmlns="http://www.w3.org/2000/svg" width="70" height="70" viewBox="0 0 70 70">
  <g id="Grupo_23503" data-name="Grupo 23503">
    <g id="Grupo_23502" data-name="Grupo 23502">
      <g id="Grupo_23501" data-name="Grupo 23501">
        <line id="Line_4" data-name="Line 4" x2="8.375" transform="translate(41.677 62.5)" fill="none" stroke="#19a301" stroke-linecap="round" stroke-linejoin="round" stroke-width="2.4"/>
        <line id="Line_5" data-name="Line 5" x2="0.679" transform="translate(58.405 62.5)" fill="none" stroke="#19a301" stroke-linecap="round" stroke-linejoin="round" stroke-width="2.4"/>
        <line id="Line_6" data-name="Line 6" x2="8.298" transform="translate(10.916 62.5)" fill="none" stroke="#19a301" stroke-linecap="round" stroke-linejoin="round" stroke-width="2.4"/>
        <line id="Line_7" data-name="Line 7" x2="14.628" transform="translate(18.674 62.5)" fill="none" stroke="#82d400" stroke-linecap="round" stroke-linejoin="round" stroke-width="2.4"/>
      </g>
      <rect id="Rectángulo_7240" data-name="Rectángulo 7240" width="70" height="15" transform="translate(0 55)" fill="none"/>
    </g>
  </g>
  <rect id="Rectángulo_7241" data-name="Rectángulo 7241" width="70" height="70" fill="none"/>
  <g id="Grupo_23504" data-name="Grupo 23504">
    <circle id="Ellipse_2" data-name="Ellipse 2" cx="5.795" cy="5.795" r="5.795" transform="translate(6.507 18.843)" fill="none" stroke="#19a301" stroke-linecap="round" stroke-linejoin="round" stroke-width="1.5"/>
    <rect id="Rectángulo_2137" data-name="Rectángulo 2137" width="17.581" height="20.911" transform="translate(40.351 33.183)" fill="none" stroke="#fff" stroke-linecap="round" stroke-linejoin="round" stroke-width="1.5"/>
    <path id="Trazado_5455" data-name="Trazado 5455" d="M23.951,11.706H12.85V15.7" fill="none" stroke="#fff" stroke-linecap="round" stroke-linejoin="round" stroke-width="1.5"/>
    <path id="Trazado_5456" data-name="Trazado 5456" d="M12.85,33.816V54.094h11.1V12.126" fill="none" stroke="#fff" stroke-linecap="round" stroke-linejoin="round" stroke-width="1.5"/>
    <path id="Trazado_29063" data-name="Trazado 29063" d="M23.937,33.184h5.984a4.02,4.02,0,0,1,3.856,4.158v5.983a4,4,0,0,0,3.842,4.145h2.594" fill="none" stroke="#fff" stroke-linecap="round" stroke-linejoin="round" stroke-width="1.5"/>
    <path id="Trazado_5459" data-name="Trazado 5459" d="M24.257,16.276h.684c2.832,0,5.125,1.858,5.125,4.151V54.1" fill="none" stroke="#fff" stroke-linecap="round" stroke-linejoin="round" stroke-width="1.5"/>
    <line id="Línea_708" data-name="Línea 708" x1="55.426" transform="translate(8.067 54.094)" fill="none" stroke="#fff" stroke-linecap="round" stroke-linejoin="round" stroke-width="1.659"/>
    <path id="Trazado_5460" data-name="Trazado 5460" d="M49.334,38.552c-.664,1.67-1.349,3.325-2.029,4.99-.544,1.328-1.2,2.776-.238,4.083a2.863,2.863,0,0,0,2.267,1.193A2.934,2.934,0,0,0,52,46.909c.482-1.2-.1-2.552-.617-3.621C50.76,42,49.287,38.666,49.334,38.552Z" fill="none" stroke="#fff" stroke-linecap="round" stroke-linejoin="round" stroke-width="1.5"/>
  </g>
</svg>
