<svg xmlns="http://www.w3.org/2000/svg" width="70" height="70" viewBox="0 0 70 70">
  <g id="Group_23107" data-name="Group 23107" transform="translate(0 -90)">
    <g id="Group_22032" data-name="Group 22032">
      <g id="Group_22031" data-name="Group 22031">
        <line id="Line_4" data-name="Line 4" x2="8.375" transform="translate(41.677 152.5)" fill="none" stroke="#19a301" stroke-linecap="round" stroke-linejoin="round" stroke-width="2.4"/>
        <line id="Line_5" data-name="Line 5" x2="0.679" transform="translate(58.405 152.5)" fill="none" stroke="#19a301" stroke-linecap="round" stroke-linejoin="round" stroke-width="2.4"/>
        <line id="Line_6" data-name="Line 6" x2="8.298" transform="translate(10.916 152.5)" fill="none" stroke="#19a301" stroke-linecap="round" stroke-linejoin="round" stroke-width="2.4"/>
        <line id="Line_7" data-name="Line 7" x2="14.628" transform="translate(18.674 152.5)" fill="none" stroke="#82d400" stroke-linecap="round" stroke-linejoin="round" stroke-width="2.4"/>
      </g>
      <rect id="Rectangle_6696" data-name="Rectangle 6696" width="70" height="15" transform="translate(0 145)" fill="none"/>
    </g>
    <rect id="Rectangle_6697" data-name="Rectangle 6697" width="70" height="70" transform="translate(0 90)" fill="none"/>
    <g id="Group_22035" data-name="Group 22035">
      <g id="Group_22033" data-name="Group 22033">
        <path id="Path_28191" data-name="Path 28191" d="M7.811,139.43V128.612a4.612,4.612,0,0,1,4.6-4.6H22.48a4.619,4.619,0,0,1,4.426,3.361" fill="none" stroke="#fff" stroke-linecap="round" stroke-linejoin="round" stroke-width="1.5"/>
        <circle id="Ellipse_3079" data-name="Ellipse 3079" cx="5.145" cy="5.145" r="5.145" transform="translate(12.091 110.283)" fill="none" stroke="#fff" stroke-linecap="round" stroke-linejoin="round" stroke-width="1.5"/>
      </g>
      <path id="Path_28192" data-name="Path 28192" d="M24.112,144.117V131.909a5.109,5.109,0,0,1,5.1-5.094H40.344a5.109,5.109,0,0,1,5.094,5.094v12.208" fill="none" stroke="#fff" stroke-linecap="round" stroke-linejoin="round" stroke-width="1.5"/>
      <circle id="Ellipse_3080" data-name="Ellipse 3080" cx="5.696" cy="5.696" r="5.696" transform="translate(28.849 111.622)" fill="none" stroke="#19a301" stroke-miterlimit="10" stroke-width="1.5"/>
      <g id="Group_22034" data-name="Group 22034">
        <path id="Path_28193" data-name="Path 28193" d="M43.031,127.6a4.624,4.624,0,0,1,4.489-3.586H57.588a4.621,4.621,0,0,1,4.6,4.6V139.43" fill="none" stroke="#fff" stroke-linecap="round" stroke-linejoin="round" stroke-width="1.5"/>
        <circle id="Ellipse_3081" data-name="Ellipse 3081" cx="5.145" cy="5.145" r="5.145" transform="translate(47.198 110.283)" fill="none" stroke="#fff" stroke-linecap="round" stroke-linejoin="round" stroke-width="1.5"/>
      </g>
    </g>
  </g>
</svg>
