<svg id="Grupo_24907" data-name="Grupo 24907" xmlns="http://www.w3.org/2000/svg" width="70" height="70" viewBox="0 0 70 70">
  <g id="Grupo_24925" data-name="Grupo 24925">
    <g id="Grupo_24924" data-name="Grupo 24924">
      <g id="Grupo_24923" data-name="Grupo 24923">
        <line id="Line_4" data-name="Line 4" x2="8.375" transform="translate(41.677 62.5)" fill="none" stroke="#19a301" stroke-linecap="round" stroke-linejoin="round" stroke-width="2.4"/>
        <line id="Line_5" data-name="Line 5" x2="0.679" transform="translate(58.405 62.5)" fill="none" stroke="#19a301" stroke-linecap="round" stroke-linejoin="round" stroke-width="2.4"/>
        <line id="Line_6" data-name="Line 6" x2="8.298" transform="translate(10.916 62.5)" fill="none" stroke="#19a301" stroke-linecap="round" stroke-linejoin="round" stroke-width="2.4"/>
        <line id="Line_7" data-name="Line 7" x2="14.628" transform="translate(18.674 62.5)" fill="none" stroke="#82d400" stroke-linecap="round" stroke-linejoin="round" stroke-width="2.4"/>
      </g>
      <rect id="Rectángulo_7951" data-name="Rectángulo 7951" width="70" height="15" transform="translate(0 55)" fill="none"/>
    </g>
  </g>
  <rect id="Rectángulo_7952" data-name="Rectángulo 7952" width="70" height="70" fill="none"/>
  <g id="Grupo_24928" data-name="Grupo 24928">
    <g id="Grupo_24927" data-name="Grupo 24927">
      <circle id="Ellipse_2" data-name="Ellipse 2" cx="5.795" cy="5.795" r="5.795" transform="translate(10.851 4.843)" fill="none" stroke="#19a301" stroke-linecap="round" stroke-linejoin="round" stroke-width="1.5"/>
      <path id="Trazado_29851" data-name="Trazado 29851" d="M44.123,5.636v8h7.323" fill="none" stroke="#fff" stroke-linecap="round" stroke-linejoin="round" stroke-width="1.5"/>
      <line id="Línea_4177" data-name="Línea 4177" y1="26.37" transform="translate(51.449 13.64)" fill="none" stroke="#fff" stroke-linecap="round" stroke-linejoin="round" stroke-width="1.5"/>
      <path id="Trazado_29852" data-name="Trazado 29852" d="M15.269,19.98V39.63a10.364,10.364,0,0,0,10.37,10.36h18.94" fill="none" stroke="#fff" stroke-linecap="round" stroke-linejoin="round" stroke-width="1.5"/>
      <path id="Trazado_29853" data-name="Trazado 29853" d="M51.437,13.478,43.962,5.152l-1.75.016H23.957" fill="none" stroke="#fff" stroke-linecap="round" stroke-linejoin="round" stroke-width="1.5"/>
      <g id="Grupo_24926" data-name="Grupo 24926">
        <path id="Trazado_29854" data-name="Trazado 29854" d="M33.69,24.391l-1.656,7.363,1.656,2.878" fill="none" stroke="#fff" stroke-linecap="round" stroke-linejoin="round" stroke-width="1.5"/>
        <path id="Trazado_29855" data-name="Trazado 29855" d="M33.69,24.391l1.656,7.363L33.69,34.632" fill="none" stroke="#fff" stroke-linecap="round" stroke-linejoin="round" stroke-width="1.5"/>
        <line id="Línea_4178" data-name="Línea 4178" y2="2.298" transform="translate(32.022 20.614)" fill="none" stroke="#fff" stroke-linecap="round" stroke-linejoin="round" stroke-width="1.5"/>
        <line id="Línea_4179" data-name="Línea 4179" y2="2.298" transform="translate(35.384 20.614)" fill="none" stroke="#fff" stroke-linecap="round" stroke-linejoin="round" stroke-width="1.5"/>
        <path id="Trazado_29856" data-name="Trazado 29856" d="M32.022,22.917l-4.5,2.025a2.977,2.977,0,0,0-1.755,2.714v6.976H41.644V27.656a2.977,2.977,0,0,0-1.755-2.714l-4.505-2.025" fill="none" stroke="#fff" stroke-linecap="round" stroke-linejoin="round" stroke-width="1.5"/>
        <path id="Trazado_29857" data-name="Trazado 29857" d="M33.7,24.819" fill="none" stroke="#fff" stroke-linecap="round" stroke-linejoin="round" stroke-width="1.5"/>
        <line id="Línea_4180" data-name="Línea 4180" x1="1.681" y1="1.906" transform="translate(32.022 22.912)" fill="none" stroke="#fff" stroke-linecap="round" stroke-linejoin="round" stroke-width="1.5"/>
        <path id="Trazado_29858" data-name="Trazado 29858" d="M33.7,24.819" fill="none" stroke="#fff" stroke-linecap="round" stroke-linejoin="round" stroke-width="1.5"/>
        <line id="Línea_4181" data-name="Línea 4181" y1="1.906" x2="1.681" transform="translate(33.703 22.912)" fill="none" stroke="#fff" stroke-linecap="round" stroke-linejoin="round" stroke-width="1.5"/>
        <path id="Trazado_29859" data-name="Trazado 29859" d="M36.858,17.93a3.169,3.169,0,1,1-6.337,0" fill="none" stroke="#fff" stroke-linecap="round" stroke-linejoin="round" stroke-width="1.5"/>
        <path id="Trazado_29860" data-name="Trazado 29860" d="M30.521,17.93V15.743a3.169,3.169,0,1,1,6.337,0V17.93" fill="none" stroke="#fff" stroke-linecap="round" stroke-linejoin="round" stroke-width="1.5"/>
      </g>
      <line id="Línea_4182" data-name="Línea 4182" x2="16.85" transform="translate(25.509 39.866)" fill="none" stroke="#fff" stroke-linecap="round" stroke-linejoin="round" stroke-width="1.5"/>
      <line id="Línea_4183" data-name="Línea 4183" x2="16.85" transform="translate(25.509 45.099)" fill="none" stroke="#fff" stroke-linecap="round" stroke-linejoin="round" stroke-width="1.5"/>
    </g>
    <circle id="Elipse_3263" data-name="Elipse 3263" cx="7.5" cy="7.5" r="7.5" transform="translate(44.149 40)" fill="none" stroke="#fff" stroke-linecap="round" stroke-linejoin="round" stroke-width="1.5"/>
    <path id="Trazado_29861" data-name="Trazado 29861" d="M48.149,48l2,3,5-6" fill="none" stroke="#fff" stroke-linecap="round" stroke-linejoin="round" stroke-width="1.5"/>
  </g>
</svg>
