<svg xmlns="http://www.w3.org/2000/svg" width="200" height="200" viewBox="0 0 200 200">
  <g id="Grupo_24995" data-name="Grupo 24995" transform="translate(-1011 -3527.206)">
    <path id="Trazado_29441" data-name="Trazado 29441" d="M100,0A100,100,0,1,1,0,100,100,100,0,0,1,100,0Z" transform="translate(1011 3527.206)" fill="#6d7f89"/>
    <g id="Grupo_24913" data-name="Grupo 24913" transform="translate(1077 3592)">
      <rect id="Rectángulo_7965" data-name="Rectángulo 7965" width="70" height="70" fill="none"/>
      <g id="Grupo_24965" data-name="Grupo 24965">
        <g id="Grupo_24964" data-name="Grupo 24964">
          <circle id="Ellipse_2" data-name="Ellipse 2" cx="5.795" cy="5.795" r="5.795" transform="translate(12.383 9.149)" fill="none" stroke="#fff" stroke-linecap="round" stroke-linejoin="round" stroke-width="1.5"/>
          <path id="Trazado_29885" data-name="Trazado 29885" d="M45.655,9.941v8h7.323" fill="none" stroke="#fff" stroke-linecap="round" stroke-linejoin="round" stroke-width="1.5"/>
          <path id="Trazado_29886" data-name="Trazado 29886" d="M16.8,24.284V43.933A10.366,10.366,0,0,0,27.167,54.3H52.978V17.943" fill="none" stroke="#fff" stroke-linecap="round" stroke-linejoin="round" stroke-width="1.5"/>
          <path id="Trazado_29887" data-name="Trazado 29887" d="M52.969,17.784,45.494,9.457l-1.75.016H25.489" fill="none" stroke="#fff" stroke-linecap="round" stroke-linejoin="round" stroke-width="1.5"/>
          <line id="Línea_4200" data-name="Línea 4200" x2="16.85" transform="translate(27.041 44.171)" fill="none" stroke="#fff" stroke-linecap="round" stroke-linejoin="round" stroke-width="1.5"/>
          <line id="Línea_4201" data-name="Línea 4201" x2="16.85" transform="translate(27.041 49.404)" fill="none" stroke="#fff" stroke-linecap="round" stroke-linejoin="round" stroke-width="1.5"/>
        </g>
        <path id="Trazado_29888" data-name="Trazado 29888" d="M42,26c0,3.866-7,13-7,13s-7-9.134-7-13a7,7,0,0,1,14,0Z" fill="none" stroke="#fff" stroke-linecap="round" stroke-linejoin="round" stroke-width="1.5"/>
        <circle id="Elipse_3265" data-name="Elipse 3265" cx="3" cy="3" r="3" transform="translate(32 22)" fill="none" stroke="#fff" stroke-linecap="round" stroke-linejoin="round" stroke-width="1.5"/>
      </g>
      <g id="Grupo_24968" data-name="Grupo 24968">
        <g id="Grupo_24967" data-name="Grupo 24967">
          <g id="Grupo_24966" data-name="Grupo 24966">
            <line id="Line_4" data-name="Line 4" x2="8.375" transform="translate(41.677 62.5)" fill="none" stroke="#fff" stroke-linecap="round" stroke-linejoin="round" stroke-width="2.4"/>
            <line id="Line_5" data-name="Line 5" x2="0.679" transform="translate(58.405 62.5)" fill="none" stroke="#82d400" stroke-linecap="round" stroke-linejoin="round" stroke-width="2.4"/>
            <line id="Line_6" data-name="Line 6" x2="8.298" transform="translate(10.916 62.5)" fill="none" stroke="#fff" stroke-linecap="round" stroke-linejoin="round" stroke-width="2.4"/>
            <line id="Line_7" data-name="Line 7" x2="14.628" transform="translate(18.674 62.5)" fill="none" stroke="#82d400" stroke-linecap="round" stroke-linejoin="round" stroke-width="2.4"/>
          </g>
          <rect id="Rectángulo_7966" data-name="Rectángulo 7966" width="70" height="15" transform="translate(0 55)" fill="none"/>
        </g>
      </g>
    </g>
  </g>
</svg>
