<svg xmlns="http://www.w3.org/2000/svg" width="200" height="200" viewBox="0 0 200 200">
  <g id="Grupo_24996" data-name="Grupo 24996" transform="translate(-723 -3527.206)">
    <path id="Trazado_29440" data-name="Trazado 29440" d="M100,0A100,100,0,1,1,0,100,100,100,0,0,1,100,0Z" transform="translate(723 3527.206)" fill="#19a301"/>
    <g id="Grupo_24912" data-name="Grupo 24912" transform="translate(788 3592)">
      <rect id="Rectángulo_7963" data-name="Rectángulo 7963" width="70" height="70" fill="none"/>
      <g id="Grupo_24959" data-name="Grupo 24959">
        <g id="Grupo_24956" data-name="Grupo 24956">
          <circle id="Ellipse_2" data-name="Ellipse 2" cx="5.795" cy="5.795" r="5.795" transform="translate(12.383 9.149)" fill="none" stroke="#fff" stroke-linecap="round" stroke-linejoin="round" stroke-width="1.5"/>
          <path id="Trazado_29877" data-name="Trazado 29877" d="M45.655,9.941v8h7.323" fill="none" stroke="#fff" stroke-linecap="round" stroke-linejoin="round" stroke-width="1.5"/>
          <path id="Trazado_29878" data-name="Trazado 29878" d="M16.8,24.284V43.933A10.366,10.366,0,0,0,27.167,54.3H52.978V17.943" fill="none" stroke="#fff" stroke-linecap="round" stroke-linejoin="round" stroke-width="1.5"/>
          <path id="Trazado_29879" data-name="Trazado 29879" d="M52.969,17.784,45.494,9.457l-1.75.016H25.489" fill="none" stroke="#fff" stroke-linecap="round" stroke-linejoin="round" stroke-width="1.5"/>
          <line id="Línea_4198" data-name="Línea 4198" x2="16.85" transform="translate(27.041 44.171)" fill="none" stroke="#fff" stroke-linecap="round" stroke-linejoin="round" stroke-width="1.5"/>
          <line id="Línea_4199" data-name="Línea 4199" x2="16.85" transform="translate(27.041 49.404)" fill="none" stroke="#fff" stroke-linecap="round" stroke-linejoin="round" stroke-width="1.5"/>
        </g>
        <g id="Grupo_24957" data-name="Grupo 24957">
          <path id="Trazado_29880" data-name="Trazado 29880" d="M25.9,31.6l5.186-2.55a6.07,6.07,0,0,1,4.538-.605L37.4,29.1a4.08,4.08,0,0,0,1.41.251H40.94s1.3.087,1.3,1.254a1.254,1.254,0,0,1-1.08,1.3H35.278" fill="none" stroke="#fff" stroke-linecap="round" stroke-linejoin="round" stroke-width="1.5"/>
          <path id="Trazado_29881" data-name="Trazado 29881" d="M28.8,36.178H40.042a2.519,2.519,0,0,0,1.47-.474L44.9,33.273a2.514,2.514,0,0,0,.673-.721l2.707-4.375a2.342,2.342,0,0,0,.367-1.107,1.268,1.268,0,0,0-.659-1.265C46.861,25.2,46,26.67,46,26.67l-1.37,2.259a2.521,2.521,0,0,1-.572.654l-1.9,1.538" fill="none" stroke="#fff" stroke-linecap="round" stroke-linejoin="round" stroke-width="1.5"/>
          <path id="Trazado_29882" data-name="Trazado 29882" d="M22.892,31.068l1.23-.722a.874.874,0,0,1,1.188.3l3.836,6.276a.874.874,0,0,1-.315,1.216l-1.361.772a.874.874,0,0,1-1.185-.319l-3.7-6.326A.873.873,0,0,1,22.892,31.068Z" fill="none" stroke="#fff" stroke-linecap="round" stroke-linejoin="round" stroke-width="1.5"/>
        </g>
        <g id="Grupo_24958" data-name="Grupo 24958">
          <path id="Trazado_29883" data-name="Trazado 29883" d="M35.553,23.436s-3.7-2.328-4.943-4.758c-1.879-3.667,3.172-6.183,4.943-2.858" fill="none" stroke="#fff" stroke-linecap="round" stroke-linejoin="round" stroke-width="1.5"/>
          <path id="Trazado_29884" data-name="Trazado 29884" d="M35.553,23.436s3.7-2.328,4.944-4.758c1.878-3.667-3.173-6.183-4.944-2.858" fill="none" stroke="#fff" stroke-linecap="round" stroke-linejoin="round" stroke-width="1.5"/>
        </g>
      </g>
      <g id="Grupo_24962" data-name="Grupo 24962">
        <g id="Grupo_24961" data-name="Grupo 24961">
          <g id="Grupo_24960" data-name="Grupo 24960">
            <line id="Line_4" data-name="Line 4" x2="8.375" transform="translate(41.677 62.5)" fill="none" stroke="#fff" stroke-linecap="round" stroke-linejoin="round" stroke-width="2.4"/>
            <line id="Line_5" data-name="Line 5" x2="0.679" transform="translate(58.405 62.5)" fill="none" stroke="#82d400" stroke-linecap="round" stroke-linejoin="round" stroke-width="2.4"/>
            <line id="Line_6" data-name="Line 6" x2="8.298" transform="translate(10.916 62.5)" fill="none" stroke="#fff" stroke-linecap="round" stroke-linejoin="round" stroke-width="2.4"/>
            <line id="Line_7" data-name="Line 7" x2="14.628" transform="translate(18.674 62.5)" fill="none" stroke="#82d400" stroke-linecap="round" stroke-linejoin="round" stroke-width="2.4"/>
          </g>
          <rect id="Rectángulo_7964" data-name="Rectángulo 7964" width="70" height="15" transform="translate(0 55)" fill="none"/>
        </g>
      </g>
    </g>
  </g>
</svg>
