<svg id="Grupo_24901" data-name="Grupo 24901" xmlns="http://www.w3.org/2000/svg" width="70" height="70" viewBox="0 0 70 70">
  <rect id="Rectángulo_7943" data-name="Rectángulo 7943" width="70" height="70" fill="none"/>
  <g id="Grupo_24903" data-name="Grupo 24903">
    <g id="Grupo_24901-2" data-name="Grupo 24901">
      <circle id="Ellipse_2" data-name="Ellipse 2" cx="5.795" cy="5.795" r="5.795" transform="translate(11.686 29.843)" fill="none" stroke="#fff" stroke-linecap="round" stroke-linejoin="round" stroke-width="1.5"/>
      <g id="Grupo_24900" data-name="Grupo 24900">
        <line id="Línea_1013" data-name="Línea 1013" y2="4.341" transform="translate(27.559 21.654)" fill="none" stroke="#fff" stroke-linecap="round" stroke-linejoin="round" stroke-width="1.5"/>
        <line id="Línea_1014" data-name="Línea 1014" y2="4.341" transform="translate(33.917 21.654)" fill="none" stroke="#fff" stroke-linecap="round" stroke-linejoin="round" stroke-width="1.5"/>
        <line id="Línea_4165" data-name="Línea 4165" x1="7.83" y1="3.52" transform="translate(33.918 26)" fill="none" stroke="#fff" stroke-linecap="round" stroke-linejoin="round" stroke-width="1.5"/>
        <line id="Línea_4166" data-name="Línea 4166" y1="0.36" transform="translate(45.628 46.38)" fill="none" stroke="#fff" stroke-linecap="round" stroke-linejoin="round" stroke-width="1.5"/>
        <path id="Trazado_29835" data-name="Trazado 29835" d="M15.728,44.52v5.14h21.89" fill="none" stroke="#fff" stroke-linecap="round" stroke-linejoin="round" stroke-width="1.5"/>
        <line id="Línea_1015" data-name="Línea 1015" x1="4.637" y2="2.145" transform="translate(22.922 26.004)" fill="none" stroke="#fff" stroke-linecap="round" stroke-linejoin="round" stroke-width="1.5"/>
        <line id="Línea_1016" data-name="Línea 1016" x1="3.179" y1="3.604" transform="translate(27.559 25.994)" fill="none" stroke="#fff" stroke-linecap="round" stroke-linejoin="round" stroke-width="1.5"/>
        <line id="Línea_1017" data-name="Línea 1017" y1="3.604" x2="3.179" transform="translate(30.738 25.994)" fill="none" stroke="#fff" stroke-linecap="round" stroke-linejoin="round" stroke-width="1.5"/>
        <path id="Trazado_5701" data-name="Trazado 5701" d="M36.7,16.581a5.987,5.987,0,1,1-11.974,0" fill="none" stroke="#fff" stroke-linecap="round" stroke-linejoin="round" stroke-width="1.5"/>
        <path id="Trazado_5702" data-name="Trazado 5702" d="M24.722,16.581v-6.2a5.987,5.987,0,1,1,11.974,0v6.2" fill="none" stroke="#fff" stroke-linecap="round" stroke-linejoin="round" stroke-width="1.5"/>
        <line id="Línea_4167" data-name="Línea 4167" x2="17.515" transform="translate(21.922 11.224)" fill="none" stroke="#fff" stroke-linecap="round" stroke-linejoin="round" stroke-width="1.5"/>
      </g>
    </g>
    <g id="Grupo_24902" data-name="Grupo 24902">
      <path id="Trazado_29836" data-name="Trazado 29836" d="M42.738,37.34,44.9,40.286l5.271-5.954" fill="none" stroke="#fff" stroke-linecap="round" stroke-linejoin="round" stroke-width="1.5"/>
      <path id="Trazado_29837" data-name="Trazado 29837" d="M54.735,33.524A9.1,9.1,0,1,1,42.672,29.03,9.076,9.076,0,0,1,54.735,33.524Z" fill="none" stroke="#fff" stroke-linecap="round" stroke-linejoin="round" stroke-width="1.5"/>
      <path id="Trazado_29838" data-name="Trazado 29838" d="M45.818,46.425l-5.153,8.506a.358.358,0,0,1-.589,0l-1.126-1.8a.627.627,0,0,0-.582-.271l-2.232.174c-.266.021-.454-.224-.329-.431l5.011-8.151" fill="none" stroke="#fff" stroke-linecap="round" stroke-linejoin="round" stroke-width="1.5"/>
      <path id="Trazado_29839" data-name="Trazado 29839" d="M48.241,46.255l5.175,8.792a.359.359,0,0,0,.59,0l1.125-1.8a.627.627,0,0,1,.582-.271l2.232.174c.267.021.454-.224.33-.431l-5.358-9" fill="none" stroke="#fff" stroke-linecap="round" stroke-linejoin="round" stroke-width="1.5"/>
    </g>
  </g>
  <g id="Grupo_24906" data-name="Grupo 24906">
    <g id="Grupo_24905" data-name="Grupo 24905">
      <g id="Grupo_24904" data-name="Grupo 24904">
        <line id="Line_4" data-name="Line 4" x2="8.375" transform="translate(41.677 62.5)" fill="none" stroke="#fff" stroke-linecap="round" stroke-linejoin="round" stroke-width="2.4"/>
        <line id="Line_5" data-name="Line 5" x2="0.679" transform="translate(58.405 62.5)" fill="none" stroke="#82d400" stroke-linecap="round" stroke-linejoin="round" stroke-width="2.4"/>
        <line id="Line_6" data-name="Line 6" x2="8.298" transform="translate(10.916 62.5)" fill="none" stroke="#fff" stroke-linecap="round" stroke-linejoin="round" stroke-width="2.4"/>
        <line id="Line_7" data-name="Line 7" x2="14.628" transform="translate(18.674 62.5)" fill="none" stroke="#82d400" stroke-linecap="round" stroke-linejoin="round" stroke-width="2.4"/>
      </g>
      <rect id="Rectángulo_7944" data-name="Rectángulo 7944" width="70" height="15" transform="translate(0 55)" fill="none"/>
    </g>
  </g>
</svg>
