<svg xmlns="http://www.w3.org/2000/svg" width="70" height="70" viewBox="0 0 70 70">
  <g id="Grupo_24994" data-name="Grupo 24994" transform="translate(-93.83)">
    <rect id="Rectángulo_7975" data-name="Rectángulo 7975" width="70" height="70" transform="translate(93.83)" fill="none"/>
    <g id="Grupo_24991" data-name="Grupo 24991">
      <g id="Grupo_24990" data-name="Grupo 24990">
        <circle id="Ellipse_2" data-name="Ellipse 2" cx="5.795" cy="5.795" r="5.795" transform="translate(104.681 4.843)" fill="none" stroke="#fff" stroke-linecap="round" stroke-linejoin="round" stroke-width="1.5"/>
        <path id="Trazado_29906" data-name="Trazado 29906" d="M137.953,5.636v8h7.323" fill="none" stroke="#fff" stroke-linecap="round" stroke-linejoin="round" stroke-width="1.5"/>
        <line id="Línea_4218" data-name="Línea 4218" y1="26.37" transform="translate(145.279 13.64)" fill="none" stroke="#fff" stroke-linecap="round" stroke-linejoin="round" stroke-width="1.5"/>
        <path id="Trazado_29907" data-name="Trazado 29907" d="M109.1,19.98V39.63a10.364,10.364,0,0,0,10.37,10.36h18.94" fill="none" stroke="#fff" stroke-linecap="round" stroke-linejoin="round" stroke-width="1.5"/>
        <path id="Trazado_29908" data-name="Trazado 29908" d="M145.267,13.478l-7.475-8.327-1.75.016H117.787" fill="none" stroke="#fff" stroke-linecap="round" stroke-linejoin="round" stroke-width="1.5"/>
        <g id="Grupo_24989" data-name="Grupo 24989">
          <path id="Trazado_29909" data-name="Trazado 29909" d="M127.519,24.391l-1.656,7.363,1.656,2.878" fill="none" stroke="#fff" stroke-linecap="round" stroke-linejoin="round" stroke-width="1.5"/>
          <path id="Trazado_29910" data-name="Trazado 29910" d="M127.519,24.391l1.656,7.363-1.656,2.878" fill="none" stroke="#fff" stroke-linecap="round" stroke-linejoin="round" stroke-width="1.5"/>
          <line id="Línea_4219" data-name="Línea 4219" y2="2.298" transform="translate(125.852 20.614)" fill="none" stroke="#fff" stroke-linecap="round" stroke-linejoin="round" stroke-width="1.5"/>
          <line id="Línea_4220" data-name="Línea 4220" y2="2.298" transform="translate(129.214 20.614)" fill="none" stroke="#fff" stroke-linecap="round" stroke-linejoin="round" stroke-width="1.5"/>
          <path id="Trazado_29911" data-name="Trazado 29911" d="M125.852,22.917l-4.5,2.025a2.977,2.977,0,0,0-1.755,2.714v6.976h15.882V27.656a2.976,2.976,0,0,0-1.756-2.714l-4.5-2.025" fill="none" stroke="#fff" stroke-linecap="round" stroke-linejoin="round" stroke-width="1.5"/>
          <path id="Trazado_29912" data-name="Trazado 29912" d="M127.533,24.819" fill="none" stroke="#fff" stroke-linecap="round" stroke-linejoin="round" stroke-width="1.5"/>
          <line id="Línea_4221" data-name="Línea 4221" x1="1.681" y1="1.906" transform="translate(125.852 22.912)" fill="none" stroke="#fff" stroke-linecap="round" stroke-linejoin="round" stroke-width="1.5"/>
          <path id="Trazado_29913" data-name="Trazado 29913" d="M127.533,24.819" fill="none" stroke="#fff" stroke-linecap="round" stroke-linejoin="round" stroke-width="1.5"/>
          <line id="Línea_4222" data-name="Línea 4222" y1="1.906" x2="1.681" transform="translate(127.533 22.912)" fill="none" stroke="#fff" stroke-linecap="round" stroke-linejoin="round" stroke-width="1.5"/>
          <path id="Trazado_29914" data-name="Trazado 29914" d="M130.688,17.93a3.169,3.169,0,1,1-6.337,0" fill="none" stroke="#fff" stroke-linecap="round" stroke-linejoin="round" stroke-width="1.5"/>
          <path id="Trazado_29915" data-name="Trazado 29915" d="M124.351,17.93V15.743a3.169,3.169,0,1,1,6.337,0V17.93" fill="none" stroke="#fff" stroke-linecap="round" stroke-linejoin="round" stroke-width="1.5"/>
        </g>
        <line id="Línea_4223" data-name="Línea 4223" x2="16.85" transform="translate(119.338 39.866)" fill="none" stroke="#fff" stroke-linecap="round" stroke-linejoin="round" stroke-width="1.5"/>
        <line id="Línea_4224" data-name="Línea 4224" x2="16.85" transform="translate(119.338 45.099)" fill="none" stroke="#fff" stroke-linecap="round" stroke-linejoin="round" stroke-width="1.5"/>
      </g>
      <circle id="Elipse_3268" data-name="Elipse 3268" cx="7.5" cy="7.5" r="7.5" transform="translate(137.979 40)" fill="none" stroke="#fff" stroke-linecap="round" stroke-linejoin="round" stroke-width="1.5"/>
      <path id="Trazado_29916" data-name="Trazado 29916" d="M141.979,48l2,3,5-6" fill="none" stroke="#fff" stroke-linecap="round" stroke-linejoin="round" stroke-width="1.5"/>
    </g>
    <g id="Grupo_24993" data-name="Grupo 24993">
      <g id="Grupo_24992" data-name="Grupo 24992">
        <line id="Line_4" data-name="Line 4" x2="8.375" transform="translate(135.507 62.5)" fill="none" stroke="#fff" stroke-linecap="round" stroke-linejoin="round" stroke-width="2.4"/>
        <line id="Line_5" data-name="Line 5" x2="0.679" transform="translate(152.235 62.5)" fill="none" stroke="#82d400" stroke-linecap="round" stroke-linejoin="round" stroke-width="2.4"/>
        <line id="Line_6" data-name="Line 6" x2="8.298" transform="translate(104.746 62.5)" fill="none" stroke="#fff" stroke-linecap="round" stroke-linejoin="round" stroke-width="2.4"/>
        <line id="Line_7" data-name="Line 7" x2="14.628" transform="translate(112.504 62.5)" fill="none" stroke="#82d400" stroke-linecap="round" stroke-linejoin="round" stroke-width="2.4"/>
      </g>
      <rect id="Rectángulo_7976" data-name="Rectángulo 7976" width="70" height="15" transform="translate(93.83 55)" fill="none"/>
    </g>
  </g>
</svg>
