<svg xmlns="http://www.w3.org/2000/svg" width="200" height="200" viewBox="0 0 200 200">
  <g id="Grupo_24998" data-name="Grupo 24998" transform="translate(-147 -3527.206)">
    <path id="Trazado_29438" data-name="Trazado 29438" d="M100,0A100,100,0,1,1,0,100,100,100,0,0,1,100,0Z" transform="translate(147 3527.206)" fill="#8999a2"/>
    <g id="Grupo_24910" data-name="Grupo 24910" transform="translate(212 3592)">
      <rect id="Rectángulo_7959" data-name="Rectángulo 7959" width="70" height="70" fill="none"/>
      <g id="Grupo_24944" data-name="Grupo 24944">
        <g id="Grupo_24942" data-name="Grupo 24942">
          <circle id="Elipse_3264" data-name="Elipse 3264" cx="4.016" cy="4.016" r="4.016" transform="translate(31.664 24.707)" fill="none" stroke="#fff" stroke-linecap="round" stroke-linejoin="round" stroke-width="1.5"/>
          <path id="Trazado_29868" data-name="Trazado 29868" d="M44.178,21.876l-2.756.3a2.875,2.875,0,0,1-2.941-1.7l-1.115-2.529a11.018,11.018,0,0,0-1.685-.143A13.184,13.184,0,0,0,34,17.949l-1.115,2.529a2.876,2.876,0,0,1-2.941,1.7l-2.756-.3A10.9,10.9,0,0,0,25.5,24.792l1.635,2.234a2.873,2.873,0,0,1,0,3.4L25.5,32.655a10.914,10.914,0,0,0,1.679,2.916l2.756-.3a2.875,2.875,0,0,1,2.941,1.7L34,39.5a9.931,9.931,0,0,0,3.37,0l1.115-2.528a2.874,2.874,0,0,1,2.941-1.7l2.756.3a10.914,10.914,0,0,0,1.679-2.916l-1.635-2.234a2.873,2.873,0,0,1,0-3.4l1.635-2.234A10.9,10.9,0,0,0,44.178,21.876Z" fill="none" stroke="#fff" stroke-linecap="round" stroke-linejoin="round" stroke-width="1.5"/>
        </g>
        <g id="Grupo_24943" data-name="Grupo 24943">
          <circle id="Ellipse_2" data-name="Ellipse 2" cx="5.795" cy="5.795" r="5.795" transform="translate(12.383 9.149)" fill="none" stroke="#fff" stroke-linecap="round" stroke-linejoin="round" stroke-width="1.5"/>
          <path id="Trazado_29869" data-name="Trazado 29869" d="M45.655,9.941v8h7.323" fill="none" stroke="#fff" stroke-linecap="round" stroke-linejoin="round" stroke-width="1.5"/>
          <path id="Trazado_29870" data-name="Trazado 29870" d="M16.8,24.284V43.933A10.366,10.366,0,0,0,27.167,54.3H52.978V17.943" fill="none" stroke="#fff" stroke-linecap="round" stroke-linejoin="round" stroke-width="1.5"/>
          <path id="Trazado_29871" data-name="Trazado 29871" d="M52.969,17.784,45.494,9.457l-1.75.016H25.489" fill="none" stroke="#fff" stroke-linecap="round" stroke-linejoin="round" stroke-width="1.5"/>
          <line id="Línea_4194" data-name="Línea 4194" x2="16.85" transform="translate(27.041 44.171)" fill="none" stroke="#fff" stroke-linecap="round" stroke-linejoin="round" stroke-width="1.5"/>
          <line id="Línea_4195" data-name="Línea 4195" x2="16.85" transform="translate(27.041 49.404)" fill="none" stroke="#fff" stroke-linecap="round" stroke-linejoin="round" stroke-width="1.5"/>
        </g>
      </g>
      <g id="Grupo_24947" data-name="Grupo 24947">
        <g id="Grupo_24946" data-name="Grupo 24946">
          <g id="Grupo_24945" data-name="Grupo 24945">
            <line id="Line_4" data-name="Line 4" x2="8.375" transform="translate(41.677 62.5)" fill="none" stroke="#fff" stroke-linecap="round" stroke-linejoin="round" stroke-width="2.4"/>
            <line id="Line_5" data-name="Line 5" x2="0.679" transform="translate(58.405 62.5)" fill="none" stroke="#82d400" stroke-linecap="round" stroke-linejoin="round" stroke-width="2.4"/>
            <line id="Line_6" data-name="Line 6" x2="8.298" transform="translate(10.916 62.5)" fill="none" stroke="#fff" stroke-linecap="round" stroke-linejoin="round" stroke-width="2.4"/>
            <line id="Line_7" data-name="Line 7" x2="14.628" transform="translate(18.674 62.5)" fill="none" stroke="#82d400" stroke-linecap="round" stroke-linejoin="round" stroke-width="2.4"/>
          </g>
          <rect id="Rectángulo_7960" data-name="Rectángulo 7960" width="70" height="15" transform="translate(0 55)" fill="none"/>
        </g>
      </g>
    </g>
  </g>
</svg>
