<svg xmlns="http://www.w3.org/2000/svg" width="200" height="200" viewBox="0 0 200 200">
  <g id="Grupo_24997" data-name="Grupo 24997" transform="translate(-435 -3527.206)">
    <path id="Trazado_29439" data-name="Trazado 29439" d="M100,0A100,100,0,1,1,0,100,100,100,0,0,1,100,0Z" transform="translate(435 3527.206)" fill="#2e3d43"/>
    <g id="Grupo_24911" data-name="Grupo 24911" transform="translate(500 3592)">
      <rect id="Rectángulo_7961" data-name="Rectángulo 7961" width="70" height="70" fill="none"/>
      <g id="Grupo_24951" data-name="Grupo 24951">
        <g id="Grupo_24949" data-name="Grupo 24949">
          <circle id="Ellipse_2" data-name="Ellipse 2" cx="5.795" cy="5.795" r="5.795" transform="translate(12.383 9.149)" fill="none" stroke="#19a301" stroke-linecap="round" stroke-linejoin="round" stroke-width="1.5"/>
          <path id="Trazado_29872" data-name="Trazado 29872" d="M45.655,9.941v8h7.323" fill="none" stroke="#fff" stroke-linecap="round" stroke-linejoin="round" stroke-width="1.5"/>
          <path id="Trazado_29873" data-name="Trazado 29873" d="M16.8,24.284V43.933A10.366,10.366,0,0,0,27.167,54.3H52.978V17.943" fill="none" stroke="#fff" stroke-linecap="round" stroke-linejoin="round" stroke-width="1.5"/>
          <path id="Trazado_29874" data-name="Trazado 29874" d="M52.969,17.784,45.494,9.457l-1.75.016H25.489" fill="none" stroke="#fff" stroke-linecap="round" stroke-linejoin="round" stroke-width="1.5"/>
          <line id="Línea_4196" data-name="Línea 4196" x2="16.85" transform="translate(27.041 44.171)" fill="none" stroke="#fff" stroke-linecap="round" stroke-linejoin="round" stroke-width="1.5"/>
          <line id="Línea_4197" data-name="Línea 4197" x2="16.85" transform="translate(27.041 49.404)" fill="none" stroke="#fff" stroke-linecap="round" stroke-linejoin="round" stroke-width="1.5"/>
        </g>
        <g id="Grupo_24950" data-name="Grupo 24950">
          <path id="Trazado_29875" data-name="Trazado 29875" d="M31.123,29.255,33.289,32.2l5.271-5.954" fill="none" stroke="#fff" stroke-linecap="round" stroke-linejoin="round" stroke-width="1.5"/>
          <path id="Trazado_29876" data-name="Trazado 29876" d="M43.12,25.439a9.1,9.1,0,1,1-12.063-4.494A9.076,9.076,0,0,1,43.12,25.439Z" fill="none" stroke="#fff" stroke-linecap="round" stroke-linejoin="round" stroke-width="1.5"/>
        </g>
      </g>
      <g id="Grupo_24954" data-name="Grupo 24954">
        <g id="Grupo_24953" data-name="Grupo 24953">
          <g id="Grupo_24952" data-name="Grupo 24952">
            <line id="Line_4" data-name="Line 4" x2="8.375" transform="translate(41.677 62.5)" fill="none" stroke="#19a301" stroke-linecap="round" stroke-linejoin="round" stroke-width="2.4"/>
            <line id="Line_5" data-name="Line 5" x2="0.679" transform="translate(58.405 62.5)" fill="none" stroke="#19a301" stroke-linecap="round" stroke-linejoin="round" stroke-width="2.4"/>
            <line id="Line_6" data-name="Line 6" x2="8.298" transform="translate(10.916 62.5)" fill="none" stroke="#19a301" stroke-linecap="round" stroke-linejoin="round" stroke-width="2.4"/>
            <line id="Line_7" data-name="Line 7" x2="14.628" transform="translate(18.674 62.5)" fill="none" stroke="#82d400" stroke-linecap="round" stroke-linejoin="round" stroke-width="2.4"/>
          </g>
          <rect id="Rectángulo_7962" data-name="Rectángulo 7962" width="70" height="15" transform="translate(0 55)" fill="none"/>
        </g>
      </g>
    </g>
  </g>
</svg>
