<svg id="Group_22182" data-name="Group 22182" xmlns="http://www.w3.org/2000/svg" width="70" height="70" viewBox="0 0 70 70">
  <rect id="Rectangle_6774" data-name="Rectangle 6774" width="70" height="70" fill="none"/>
  <g id="Group_22186" data-name="Group 22186">
    <circle id="Ellipse_2" data-name="Ellipse 2" cx="5.795" cy="5.795" r="5.795" transform="translate(7.126 33.843)" fill="none" stroke="#19a301" stroke-linecap="round" stroke-linejoin="round" stroke-width="1.5"/>
    <line id="Línea_1013" data-name="Línea 1013" y2="4.362" transform="translate(22.822 25.687)" fill="none" stroke="#fff" stroke-linecap="round" stroke-linejoin="round" stroke-width="1.5"/>
    <line id="Línea_1014" data-name="Línea 1014" y2="4.362" transform="translate(29.211 25.687)" fill="none" stroke="#fff" stroke-linecap="round" stroke-linejoin="round" stroke-width="1.5"/>
    <line id="Line_2970" data-name="Line 2970" x1="4.66" y1="2.09" transform="translate(29.212 30.06)" fill="none" stroke="#fff" stroke-linecap="round" stroke-linejoin="round" stroke-width="1.5"/>
    <path id="Path_28349" data-name="Path 28349" d="M40.982,45.81v8.02H10.932V48.67" fill="none" stroke="#fff" stroke-linecap="round" stroke-linejoin="round" stroke-width="1.5"/>
    <line id="Línea_1015" data-name="Línea 1015" x1="4.66" y2="2.155" transform="translate(18.162 30.058)" fill="none" stroke="#fff" stroke-linecap="round" stroke-linejoin="round" stroke-width="1.5"/>
    <line id="Línea_1016" data-name="Línea 1016" x1="3.194" y1="3.622" transform="translate(22.822 30.048)" fill="none" stroke="#fff" stroke-linecap="round" stroke-linejoin="round" stroke-width="1.5"/>
    <line id="Línea_1017" data-name="Línea 1017" y1="3.622" x2="3.194" transform="translate(26.017 30.048)" fill="none" stroke="#fff" stroke-linecap="round" stroke-linejoin="round" stroke-width="1.5"/>
    <path id="Trazado_5701" data-name="Trazado 5701" d="M32.008,20.589a6.016,6.016,0,1,1-12.032,0" fill="none" stroke="#fff" stroke-linecap="round" stroke-linejoin="round" stroke-width="1.5"/>
    <path id="Trazado_5702" data-name="Trazado 5702" d="M19.971,20.589V14.361a6.016,6.016,0,1,1,12.032,0v6.228" fill="none" stroke="#fff" stroke-linecap="round" stroke-linejoin="round" stroke-width="1.5"/>
    <line id="Line_2971" data-name="Line 2971" x2="17.6" transform="translate(17.157 15.205)" fill="none" stroke="#fff" stroke-linecap="round" stroke-linejoin="round" stroke-width="1.5"/>
    <line id="Line_2972" data-name="Line 2972" y1="0.027" x2="41.091" transform="translate(10.934 53.799)" fill="none" stroke="#fff" stroke-linecap="round" stroke-linejoin="round" stroke-width="1.5"/>
    <rect id="Rectangle_6776" data-name="Rectangle 6776" width="29" height="17" transform="translate(33.874 28.806)" fill="none" stroke="#fff" stroke-linecap="round" stroke-linejoin="round" stroke-width="1.5"/>
    <g id="Group_22185" data-name="Group 22185">
      <path id="Path_28350" data-name="Path 28350" d="M41.929,41.09H36.741V40.061l2.448-2.61a6.015,6.015,0,0,0,.746-.961,1.549,1.549,0,0,0,.242-.78,1.157,1.157,0,0,0-.255-.793.92.92,0,0,0-.728-.288.992.992,0,0,0-.8.351,1.392,1.392,0,0,0-.293.922H36.59a2.483,2.483,0,0,1,.33-1.263,2.322,2.322,0,0,1,.933-.9,2.832,2.832,0,0,1,1.367-.325,2.686,2.686,0,0,1,1.817.561,1.985,1.985,0,0,1,.647,1.586,2.544,2.544,0,0,1-.291,1.143,6.348,6.348,0,0,1-1,1.357l-1.72,1.814h3.254Z" fill="#fff"/>
      <path id="Path_28351" data-name="Path 28351" d="M47.943,37.961a3.834,3.834,0,0,1-.65,2.4,2.6,2.6,0,0,1-3.794.016,3.717,3.717,0,0,1-.671-2.339V36.646a3.782,3.782,0,0,1,.658-2.407,2.6,2.6,0,0,1,3.786-.008,3.713,3.713,0,0,1,.671,2.337Zm-1.5-1.532a2.764,2.764,0,0,0-.258-1.371.869.869,0,0,0-.8-.429.854.854,0,0,0-.782.408,2.6,2.6,0,0,0-.268,1.278v1.842a2.91,2.91,0,0,0,.252,1.376.859.859,0,0,0,.809.45.844.844,0,0,0,.8-.432,2.838,2.838,0,0,0,.255-1.322Z" fill="#fff"/>
      <path id="Path_28352" data-name="Path 28352" d="M50.485,36.641h.8a1.133,1.133,0,0,0,.848-.286,1.052,1.052,0,0,0,.275-.759.925.925,0,0,0-.273-.712,1.056,1.056,0,0,0-.751-.255,1.114,1.114,0,0,0-.723.236.757.757,0,0,0-.291.616h-1.5a1.85,1.85,0,0,1,.32-1.063,2.134,2.134,0,0,1,.894-.735,2.981,2.981,0,0,1,1.266-.265,2.828,2.828,0,0,1,1.881.574,1.961,1.961,0,0,1,.681,1.583,1.588,1.588,0,0,1-.317.956,2.058,2.058,0,0,1-.831.671,1.766,1.766,0,0,1,1.268,1.767,1.991,1.991,0,0,1-.736,1.617,2.958,2.958,0,0,1-1.946.608,2.8,2.8,0,0,1-1.853-.6,1.951,1.951,0,0,1-.72-1.58h1.5a.87.87,0,0,0,.32.7,1.335,1.335,0,0,0,1.627-.013.982.982,0,0,0,.3-.751q0-1.134-1.248-1.134h-.795Z" fill="#fff"/>
      <path id="Path_28353" data-name="Path 28353" d="M60.158,37.961a3.834,3.834,0,0,1-.649,2.4,2.6,2.6,0,0,1-3.795.016,3.717,3.717,0,0,1-.67-2.339V36.646a3.788,3.788,0,0,1,.657-2.407,2.6,2.6,0,0,1,3.787-.008,3.707,3.707,0,0,1,.67,2.337Zm-1.5-1.532a2.777,2.777,0,0,0-.257-1.371.87.87,0,0,0-.8-.429.856.856,0,0,0-.783.408,2.594,2.594,0,0,0-.267,1.278v1.842a2.91,2.91,0,0,0,.252,1.376.857.857,0,0,0,.808.45.843.843,0,0,0,.8-.432,2.838,2.838,0,0,0,.255-1.322Z" fill="#fff"/>
    </g>
    <line id="Line_2973" data-name="Line 2973" y1="8" transform="translate(48.372 45.81)" fill="none" stroke="#fff" stroke-linecap="round" stroke-linejoin="round" stroke-width="1.5"/>
  </g>
  <g id="Group_22187" data-name="Group 22187">
    <g id="Group_22173" data-name="Group 22173">
      <g id="Group_22172" data-name="Group 22172">
        <line id="Line_4" data-name="Line 4" x2="8.375" transform="translate(41.677 62.5)" fill="none" stroke="#19a301" stroke-linecap="round" stroke-linejoin="round" stroke-width="2.4"/>
        <line id="Line_5" data-name="Line 5" x2="0.679" transform="translate(58.405 62.5)" fill="none" stroke="#19a301" stroke-linecap="round" stroke-linejoin="round" stroke-width="2.4"/>
        <line id="Line_6" data-name="Line 6" x2="8.298" transform="translate(10.916 62.5)" fill="none" stroke="#19a301" stroke-linecap="round" stroke-linejoin="round" stroke-width="2.4"/>
        <line id="Line_7" data-name="Line 7" x2="14.628" transform="translate(18.674 62.5)" fill="none" stroke="#82d400" stroke-linecap="round" stroke-linejoin="round" stroke-width="2.4"/>
      </g>
      <rect id="Rectangle_6769" data-name="Rectangle 6769" width="70" height="15" transform="translate(0 55)" fill="none"/>
    </g>
  </g>
</svg>
