<?xml version="1.0" encoding="utf-8"?>
<!-- Generator: Adobe Illustrator 24.0.2, SVG Export Plug-In . SVG Version: 6.00 Build 0)  -->
<svg version="1.1" id="Layer_1" xmlns="http://www.w3.org/2000/svg" xmlns:xlink="http://www.w3.org/1999/xlink" x="0px" y="0px"
	 viewBox="0 0 70 70" style="enable-background:new 0 0 70 70;" xml:space="preserve">
<style type="text/css">
	.st0{fill:none;stroke:#FFFFFF;stroke-width:2.4;stroke-linecap:round;stroke-linejoin:round;}
	.st1{fill:none;stroke:#82D400;stroke-width:2.4;stroke-linecap:round;stroke-linejoin:round;}
	.st2{fill:none;}
	.st3{fill:none;stroke:#82D400;stroke-width:1.5;stroke-linecap:round;stroke-linejoin:round;}
	.st4{fill:none;stroke:#FFFFFF;stroke-width:1.5;stroke-linecap:round;stroke-linejoin:round;stroke-miterlimit:10;}
</style>
<g>
	<g>
		<g>
			<line id="Line_4_2_" class="st0" x1="41.7" y1="62.5" x2="50.1" y2="62.5"/>
			<line id="Line_5_2_" class="st1" x1="58.4" y1="62.5" x2="59.1" y2="62.5"/>
			<line id="Line_6_2_" class="st0" x1="10.9" y1="62.5" x2="19.2" y2="62.5"/>
			<line id="Line_7_2_" class="st1" x1="18.7" y1="62.5" x2="33.3" y2="62.5"/>
		</g>
		<rect y="55" class="st2" width="70" height="15"/>
	</g>
</g>
<rect class="st2" width="70" height="70"/>
<g>
	<circle id="Ellipse_2_54_" class="st3" cx="15.7" cy="34.7" r="5.8"/>
	<line class="st4" x1="25.2" y1="22.2" x2="25.2" y2="26.1"/>
	<line class="st4" x1="30.9" y1="22.2" x2="30.9" y2="26.1"/>
	<path class="st4" d="M30.9,26.1l7.7,3.4c1.2,0.5,2.1,1.5,2.6,2.7"/>
	<polyline class="st4" points="14.6,43.7 14.6,49.1 33.1,49.1 	"/>
	<line class="st4" x1="25.2" y1="26.1" x2="21.5" y2="27.8"/>
	<path class="st4" d="M28.1,29.3"/>
	<line class="st4" x1="28.1" y1="29.3" x2="25.2" y2="26.1"/>
	<path class="st4" d="M28.1,29.3"/>
	<line class="st4" x1="28.1" y1="29.3" x2="30.9" y2="26.1"/>
	<path class="st4" d="M33.4,17.6c0,3-2.4,5.4-5.4,5.4s-5.4-2.4-5.4-5.4"/>
	<path class="st4" d="M22.7,17.6v-3.7c0-3,2.4-5.4,5.4-5.4s5.4,2.4,5.4,5.4v3.7"/>
	<path class="st4" d="M46.6,34.3"/>
	<path class="st4" d="M46.6,34.3"/>
	<g>
		<line class="st4" x1="43.7" y1="27.1" x2="43.7" y2="31"/>
		<line class="st4" x1="49.4" y1="27.1" x2="49.4" y2="31"/>
		<path class="st4" d="M43.7,31l-7.7,3.4c-1.8,0.8-3,2.6-3,4.6v15h27v-15c0-2-1.2-3.8-3-4.6L49.4,31"/>
		<line class="st4" x1="46.6" y1="34.3" x2="43.7" y2="31"/>
		<line class="st4" x1="46.6" y1="34.3" x2="49.4" y2="31"/>
		<path class="st4" d="M51.9,22.6c0,3-2.4,5.4-5.4,5.4c-3,0-5.4-2.4-5.4-5.4"/>
		<path class="st4" d="M41.2,22.6v-3.7c0-3,2.4-5.4,5.4-5.4c3,0,5.4,2.4,5.4,5.4v3.7"/>
	</g>
</g>
</svg>
