<svg id="Group_23092" data-name="Group 23092" xmlns="http://www.w3.org/2000/svg" width="70" height="70" viewBox="0 0 70 70">
  <g id="Group_22231" data-name="Group 22231">
    <g id="Group_22230" data-name="Group 22230">
      <g id="Group_22229" data-name="Group 22229">
        <line id="Line_4" data-name="Line 4" x2="8.375" transform="translate(41.677 62.5)" fill="none" stroke="#19a301" stroke-linecap="round" stroke-linejoin="round" stroke-width="2.4"/>
        <line id="Line_5" data-name="Line 5" x2="0.679" transform="translate(58.405 62.5)" fill="none" stroke="#19a301" stroke-linecap="round" stroke-linejoin="round" stroke-width="2.4"/>
        <line id="Line_6" data-name="Line 6" x2="8.298" transform="translate(10.916 62.5)" fill="none" stroke="#19a301" stroke-linecap="round" stroke-linejoin="round" stroke-width="2.4"/>
        <line id="Line_7" data-name="Line 7" x2="14.628" transform="translate(18.674 62.5)" fill="none" stroke="#82d400" stroke-linecap="round" stroke-linejoin="round" stroke-width="2.4"/>
      </g>
      <rect id="Rectangle_6800" data-name="Rectangle 6800" width="70" height="15" transform="translate(0 55)" fill="none"/>
    </g>
  </g>
  <rect id="Rectangle_6801" data-name="Rectangle 6801" width="70" height="70" fill="none"/>
  <g id="Group_22237" data-name="Group 22237">
    <g id="Group_22235" data-name="Group 22235">
      <g id="Group_22232" data-name="Group 22232">
        <circle id="Ellipse_3109" data-name="Ellipse 3109" cx="6.781" cy="6.781" r="6.781" transform="translate(41.763 28.024)" fill="none" stroke="#000" stroke-linecap="round" stroke-linejoin="round" stroke-width="1.5"/>
        <path id="Path_28422" data-name="Path 28422" d="M53.466,21.522l-2.874,2.166a3.732,3.732,0,0,1-4.408.062L43.26,21.671a14.3,14.3,0,0,0-1.974.961,16.9,16.9,0,0,0-1.783,1.28l.437,3.56a3.729,3.729,0,0,1-2.15,3.848l-3.272,1.5a14.137,14.137,0,0,0,.066,4.368l3.308,1.4a3.733,3.733,0,0,1,2.257,3.787l-.338,3.577a14.156,14.156,0,0,0,3.81,2.135l2.874-2.166A3.732,3.732,0,0,1,50.9,45.86l2.924,2.078a14.075,14.075,0,0,0,1.974-.96,14.222,14.222,0,0,0,1.784-1.28l-.438-3.561A3.732,3.732,0,0,1,59.3,38.289l3.272-1.5a14.162,14.162,0,0,0-.067-4.367L59.2,31.02a3.731,3.731,0,0,1-2.258-3.786l.339-3.577A14.146,14.146,0,0,0,53.466,21.522Z" fill="none" stroke="#000" stroke-linecap="round" stroke-linejoin="round" stroke-width="1.5"/>
      </g>
      <g id="Group_22234" data-name="Group 22234">
        <g id="Group_22233" data-name="Group 22233">
          <g id="Grupo_13591" data-name="Grupo 13591">
            <g id="Grupo_13590" data-name="Grupo 13590">
              <rect id="Rect치ngulo_4762" data-name="Rect치ngulo 4762" width="4.755" height="12.587" transform="translate(12.254 40.981)" fill="none" stroke="#000" stroke-linecap="round" stroke-linejoin="round" stroke-width="1.5"/>
              <rect id="Rect치ngulo_4763" data-name="Rect치ngulo 4763" width="5.132" height="6.97" transform="translate(7.122 43.789)" fill="none" stroke="#000" stroke-linecap="round" stroke-linejoin="round" stroke-width="1.5"/>
              <path id="Trazado_11867" data-name="Trazado 11867" d="M22.122,42.6H17.008v9.345h45.87V42.6H57.406" fill="none" stroke="#000" stroke-linecap="round" stroke-linejoin="round" stroke-width="1.5"/>
              <path id="Trazado_11867-2" data-name="Trazado 11867" d="M40.063,42.6H27.741" fill="none" stroke="#000" stroke-linecap="round" stroke-linejoin="round" stroke-width="1.5"/>
            </g>
          </g>
        </g>
      </g>
      <path id="Trazado_12472" data-name="Trazado 12472" d="M26.945,41.855l-2.174-4.5-2.012,4.5a4.73,4.73,0,0,0-.424,1.457,2.508,2.508,0,0,0,5.016,0A4.9,4.9,0,0,0,26.945,41.855Z" fill="none" stroke="#000" stroke-linecap="round" stroke-linejoin="round" stroke-width="1.5"/>
    </g>
    <circle id="Ellipse_2" data-name="Ellipse 2" cx="9.471" cy="9.471" r="9.471" transform="translate(17.026 9.72)" fill="none" stroke="#19a301" stroke-linecap="round" stroke-linejoin="round" stroke-width="1.5"/>
    <g id="Group_22236" data-name="Group 22236">
      <path id="Path_28423" data-name="Path 28423" d="M26.5,19.191a2.328,2.328,0,1,1,2.329-2.328" fill="none" stroke="#000" stroke-linecap="round" stroke-linejoin="round" stroke-width="1.5"/>
      <path id="Path_28424" data-name="Path 28424" d="M26.5,19.191a2.329,2.329,0,1,1-2.328,2.329" fill="none" stroke="#000" stroke-linecap="round" stroke-linejoin="round" stroke-width="1.5"/>
      <line id="Line_3004" data-name="Line 3004" y1="1.293" transform="translate(26.497 13.241)" fill="none" stroke="#000" stroke-linecap="round" stroke-linejoin="round" stroke-width="1.5"/>
      <line id="Line_3005" data-name="Line 3005" y1="1.293" transform="translate(26.497 23.849)" fill="none" stroke="#000" stroke-linecap="round" stroke-linejoin="round" stroke-width="1.5"/>
    </g>
  </g>
</svg>
