<?xml version="1.0" encoding="utf-8"?>
<!-- Generator: Adobe Illustrator 24.0.2, SVG Export Plug-In . SVG Version: 6.00 Build 0)  -->
<svg version="1.1" id="Layer_1" xmlns="http://www.w3.org/2000/svg" xmlns:xlink="http://www.w3.org/1999/xlink" x="0px" y="0px"
	 viewBox="0 0 70 70" style="enable-background:new 0 0 70 70;" xml:space="preserve">
<style type="text/css">
	.st0{fill:none;}
	.st1{fill:none;stroke:#82D400;stroke-width:2.4;stroke-linecap:round;stroke-linejoin:round;}
	.st2{fill:none;stroke:#FFFFFF;stroke-width:1.5;stroke-linecap:round;stroke-linejoin:round;}
	.st3{fill:#FFFFFF;}
	.st4{fill:none;stroke:#FFFFFF;stroke-width:2.4;stroke-linecap:round;stroke-linejoin:round;}
</style>
<rect id="Rectangle_6760" class="st0" width="70" height="70"/>
<g id="Group_22150">
	<circle id="Ellipse_2" class="st1" cx="10.5" cy="28.6" r="5.8"/>
	<path id="Path_28318" class="st2" d="M9.2,37.7c2,2.7,5.1,4.3,8.5,4.3h26.5c5.8,0,10.6-4.7,10.6-10.5s-4.7-10.6-10.5-10.6
		c-0.5,0-1.1,0-1.6,0.1c-1.2-5.8-6.8-9.5-12.6-8.3c-4.4,0.9-7.8,4.5-8.4,9c-1.8-0.7-3.7-1-5.6-0.7"/>
	<g id="Group_22148">
		<path id="Path_28319" class="st3" d="M29.1,32.6c0,1.1-0.5,2.1-1.3,2.8c-0.9,0.7-2,1.1-3.1,1c-1.3,0.1-2.5-0.5-3.3-1.4
			c-0.9-1.1-1.3-2.5-1.2-3.9v-0.7c0-1,0.2-1.9,0.6-2.8c0.3-0.8,0.9-1.4,1.6-1.9c0.7-0.4,1.6-0.7,2.4-0.6c1.1-0.1,2.2,0.3,3.1,1
			c0.8,0.7,1.3,1.8,1.4,2.9H27c0-0.6-0.2-1.1-0.6-1.6c-0.4-0.4-1-0.5-1.6-0.5c-0.7,0-1.3,0.3-1.7,0.8c-0.4,0.8-0.6,1.7-0.6,2.5V31
			c-0.1,0.9,0.1,1.8,0.5,2.6c0.4,0.6,1,0.9,1.7,0.8c0.6,0,1.1-0.1,1.6-0.5c0.4-0.4,0.6-0.9,0.6-1.5L29.1,32.6z"/>
		<path id="Path_28320" class="st3" d="M30.1,32.1c0-0.8,0.1-1.5,0.5-2.2c0.3-0.6,0.8-1.1,1.4-1.5c0.6-0.4,1.3-0.5,2.1-0.5
			c1,0,2,0.3,2.7,1s1.1,1.7,1.2,2.8v0.6c0.1,1.1-0.3,2.2-1.1,3c-1.6,1.5-4.1,1.5-5.7,0C30.4,34.4,30,33.3,30.1,32.1L30.1,32.1z
			 M32.3,32.2c0,0.6,0.1,1.3,0.4,1.8c0.5,0.7,1.5,0.8,2.2,0.3c0.1-0.1,0.2-0.2,0.3-0.3c0.3-0.6,0.5-1.3,0.4-2c0-0.6-0.1-1.2-0.4-1.8
			c-0.3-0.4-0.8-0.7-1.3-0.6c-0.5,0-1,0.2-1.2,0.6C32.4,30.9,32.3,31.5,32.3,32.2z"/>
		<path id="Path_28321" class="st3" d="M46.7,36.2h-7.6v-1.5l3.6-3.8c0.4-0.4,0.8-0.9,1.1-1.4c0.2-0.3,0.3-0.7,0.4-1.1
			c0-0.4-0.1-0.8-0.4-1.2c-0.3-0.3-0.7-0.4-1.1-0.4c-0.4,0-0.9,0.2-1.2,0.5c-0.3,0.4-0.5,0.9-0.4,1.3h-2.2c0-0.6,0.2-1.3,0.5-1.8
			c0.3-0.6,0.8-1,1.4-1.3c0.6-0.3,1.3-0.5,2-0.5c1-0.1,1.9,0.2,2.7,0.8c0.6,0.6,1,1.4,0.9,2.3c0,0.6-0.2,1.2-0.4,1.7
			c-0.4,0.7-0.9,1.4-1.5,2L42,34.5h4.8L46.7,36.2L46.7,36.2z"/>
	</g>
	<g id="Group_22149">
		<line id="Line_2948" class="st2" x1="59.7" y1="28.6" x2="59.7" y2="50.5"/>
		<path id="Path_28322" class="st2" d="M54.1,45.1l5.6,5.6l5.6-5.6"/>
	</g>
</g>
<g id="Group_22153">
	<g id="Group_22152">
		<g id="Group_22151">
			<line id="Line_4" class="st1" x1="41.7" y1="62.5" x2="50.1" y2="62.5"/>
			<line id="Line_5" class="st4" x1="58.4" y1="62.5" x2="59.1" y2="62.5"/>
			<line id="Line_6" class="st1" x1="10.9" y1="62.5" x2="19.2" y2="62.5"/>
			<line id="Line_7" class="st4" x1="18.7" y1="62.5" x2="33.3" y2="62.5"/>
		</g>
		<rect id="Rectangle_6761" y="55" class="st0" width="70" height="15"/>
	</g>
</g>
</svg>
