<?xml version="1.0" encoding="utf-8"?>
<!-- Generator: Adobe Illustrator 24.0.2, SVG Export Plug-In . SVG Version: 6.00 Build 0)  -->
<svg version="1.1" id="Group_22412" xmlns="http://www.w3.org/2000/svg" xmlns:xlink="http://www.w3.org/1999/xlink" x="0px"
	 y="0px" viewBox="0 0 70 70" style="enable-background:new 0 0 70 70;" xml:space="preserve">
<style type="text/css">
	.st0{fill:none;}
	.st1{fill:none;stroke:#82D400;stroke-width:2.4;stroke-linecap:round;stroke-linejoin:round;}
	.st2{fill:none;stroke:#FFFFFF;stroke-width:2.4;stroke-linecap:round;stroke-linejoin:round;}
	.st3{fill:none;stroke:#000000;stroke-width:1.5;stroke-miterlimit:10;}
	.st4{fill:#FFFFFF;stroke:#000000;stroke-width:1.5;stroke-miterlimit:10;}
</style>
<rect id="Rectangle_6760" y="0" class="st0" width="70" height="70"/>
<g id="Group_22153">
	<g id="Group_22152">
		<g id="Group_22151">
			<line id="Line_4" class="st1" x1="41.7" y1="62.5" x2="50.1" y2="62.5"/>
			<line id="Line_5" class="st2" x1="58.4" y1="62.5" x2="59.1" y2="62.5"/>
			<line id="Line_6" class="st1" x1="10.9" y1="62.5" x2="19.2" y2="62.5"/>
			<line id="Line_7" class="st2" x1="18.7" y1="62.5" x2="33.3" y2="62.5"/>
		</g>
		<rect id="Rectangle_6761" y="55" class="st0" width="70" height="15"/>
	</g>
</g>
<path class="st3" d="M35,1.3C19.9,1.3,7.7,13.6,7.7,28.7S19.9,56,35,56s27.3-12.2,27.3-27.3S50.1,1.3,35,1.3z M35,43.7
	c-8.3,0-15.1-6.7-15.1-15.1S26.7,13.6,35,13.6s15.1,6.7,15.1,15.1S43.3,43.7,35,43.7z"/>
<path class="st4" d="M7.9,25.5L20,27.9c0.4-7.9,7-14.3,15-14.3V1.3C21,1.3,9.5,11.9,7.9,25.5z"/>
</svg>
