<svg id="Group_22412" data-name="Group 22412" xmlns="http://www.w3.org/2000/svg" width="70" height="70" viewBox="0 0 70 70">
  <rect id="Rectangle_6760" data-name="Rectangle 6760" width="70" height="70" fill="none"/>
  <g id="Group_22150" data-name="Group 22150">
    <circle id="Ellipse_2" data-name="Ellipse 2" cx="5.795" cy="5.795" r="5.795" transform="translate(4.751 22.843)" fill="none" stroke="#fff" stroke-linecap="round" stroke-linejoin="round" stroke-width="1.5"/>
    <path id="Path_28318" data-name="Path 28318" d="M9.178,37.748a10.559,10.559,0,0,0,8.5,4.29H44.167a10.571,10.571,0,1,0-1.457-21.03,10.652,10.652,0,0,0-20.984.693,10.6,10.6,0,0,0-5.595-.692" fill="none" stroke="#000" stroke-linecap="round" stroke-linejoin="round" stroke-width="1.5"/>
    <g id="Group_22148" data-name="Group 22148">
      <path id="Path_28319" data-name="Path 28319" d="M29.091,32.563a3.914,3.914,0,0,1-1.318,2.812A4.631,4.631,0,0,1,24.638,36.4a4.165,4.165,0,0,1-3.348-1.432,5.875,5.875,0,0,1-1.219-3.933v-.677a6.629,6.629,0,0,1,.562-2.811,4.216,4.216,0,0,1,1.607-1.866,4.505,4.505,0,0,1,2.428-.65,4.512,4.512,0,0,1,3.086,1.026,4.206,4.206,0,0,1,1.352,2.88H26.827a2.313,2.313,0,0,0-.6-1.554,2.212,2.212,0,0,0-1.562-.482,1.937,1.937,0,0,0-1.706.817,4.578,4.578,0,0,0-.581,2.534v.836a4.9,4.9,0,0,0,.543,2.622,1.9,1.9,0,0,0,1.714.828,2.255,2.255,0,0,0,1.577-.482,2.179,2.179,0,0,0,.6-1.494Z"/>
      <path id="Path_28320" data-name="Path 28320" d="M30.1,32.062a4.876,4.876,0,0,1,.471-2.181A3.438,3.438,0,0,1,31.93,28.4a3.951,3.951,0,0,1,2.055-.525A3.744,3.744,0,0,1,36.7,28.893a4.085,4.085,0,0,1,1.174,2.766l.015.562a4.3,4.3,0,0,1-1.056,3.036,4.094,4.094,0,0,1-5.673,0,4.371,4.371,0,0,1-1.06-3.1Zm2.2.156a3.071,3.071,0,0,0,.441,1.792,1.584,1.584,0,0,0,2.508.007,3.359,3.359,0,0,0,.448-1.959,3.042,3.042,0,0,0-.448-1.781,1.457,1.457,0,0,0-1.262-.632,1.433,1.433,0,0,0-1.246.628A3.418,3.418,0,0,0,32.3,32.218Z"/>
      <path id="Path_28321" data-name="Path 28321" d="M46.737,36.249H39.153V34.744l3.579-3.815a8.837,8.837,0,0,0,1.091-1.405,2.268,2.268,0,0,0,.353-1.14,1.69,1.69,0,0,0-.372-1.159A1.341,1.341,0,0,0,42.74,26.8a1.448,1.448,0,0,0-1.174.513,2.033,2.033,0,0,0-.43,1.349h-2.2a3.624,3.624,0,0,1,.482-1.847,3.412,3.412,0,0,1,1.364-1.311,4.155,4.155,0,0,1,2-.475,3.927,3.927,0,0,1,2.656.821,2.9,2.9,0,0,1,.946,2.318,3.72,3.72,0,0,1-.426,1.672,9.278,9.278,0,0,1-1.459,1.983L41.98,34.478h4.757Z"/>
    </g>
    <g id="Group_22149" data-name="Group 22149">
      <line id="Line_2948" data-name="Line 2948" y2="21.854" transform="translate(59.686 28.602)" fill="none" stroke="#000" stroke-linecap="round" stroke-linejoin="round" stroke-width="1.5"/>
      <path id="Path_28322" data-name="Path 28322" d="M54.123,45.141,59.686,50.7l5.563-5.563" fill="none" stroke="#000" stroke-linecap="round" stroke-linejoin="round" stroke-width="1.5"/>
    </g>
  </g>
  <g id="Group_22153" data-name="Group 22153">
    <g id="Group_22152" data-name="Group 22152">
      <g id="Group_22151" data-name="Group 22151">
        <line id="Line_4" data-name="Line 4" x2="8.375" transform="translate(41.677 62.5)" fill="none" stroke="#82d400" stroke-linecap="round" stroke-linejoin="round" stroke-width="2.4"/>
        <line id="Line_5" data-name="Line 5" x2="0.679" transform="translate(58.405 62.5)" fill="none" stroke="#fff" stroke-linecap="round" stroke-linejoin="round" stroke-width="2.4"/>
        <line id="Line_6" data-name="Line 6" x2="8.298" transform="translate(10.916 62.5)" fill="none" stroke="#82d400" stroke-linecap="round" stroke-linejoin="round" stroke-width="2.4"/>
        <line id="Line_7" data-name="Line 7" x2="14.628" transform="translate(18.674 62.5)" fill="none" stroke="#fff" stroke-linecap="round" stroke-linejoin="round" stroke-width="2.4"/>
      </g>
      <rect id="Rectangle_6761" data-name="Rectangle 6761" width="70" height="15" transform="translate(0 55)" fill="none"/>
    </g>
  </g>
</svg>
