<svg id="Grupo_23398" data-name="Grupo 23398" xmlns="http://www.w3.org/2000/svg" width="70" height="70" viewBox="0 0 70 70">
  <g id="Grupo_23420" data-name="Grupo 23420">
    <g id="Grupo_23419" data-name="Grupo 23419">
      <g id="Grupo_23418" data-name="Grupo 23418">
        <line id="Line_4" data-name="Line 4" x2="8.375" transform="translate(41.677 62.5)" fill="none" stroke="#19a301" stroke-linecap="round" stroke-linejoin="round" stroke-width="2.4"/>
        <line id="Line_5" data-name="Line 5" x2="0.679" transform="translate(58.405 62.5)" fill="none" stroke="#19a301" stroke-linecap="round" stroke-linejoin="round" stroke-width="2.4"/>
        <line id="Line_6" data-name="Line 6" x2="8.298" transform="translate(10.916 62.5)" fill="none" stroke="#19a301" stroke-linecap="round" stroke-linejoin="round" stroke-width="2.4"/>
        <line id="Line_7" data-name="Line 7" x2="14.628" transform="translate(18.674 62.5)" fill="none" stroke="#82d400" stroke-linecap="round" stroke-linejoin="round" stroke-width="2.4"/>
      </g>
      <rect id="Rect치ngulo_7205" data-name="Rect치ngulo 7205" width="70" height="15" transform="translate(0 55)" fill="none"/>
    </g>
  </g>
  <rect id="Rect치ngulo_7206" data-name="Rect치ngulo 7206" width="70" height="70" fill="none"/>
  <g id="Grupo_23421" data-name="Grupo 23421">
    <circle id="Ellipse_2" data-name="Ellipse 2" cx="5.795" cy="5.795" r="5.795" transform="translate(18.258 16.843)" fill="none" stroke="#19a301" stroke-linecap="round" stroke-linejoin="round" stroke-width="1.5"/>
    <path id="Trazado_29008" data-name="Trazado 29008" d="M21.442,30.672l-.569,2.6-1.662-.831-4.8,4.8-2.031-1.662-2.77,3.6.923,1.108-.462,1.754H8.593L7.947,45l1.477,3.693,4.617,5.725,8.125-2.77,3.047.739L29,48.784l13.48-5.632,1.293-3.693,3.97-2.4V35.3l6.279-3.047h2.308l5.725-7.479-1.2-1.385-2.4-.554L56.7,20.161H51.8l-1.477,1.293-8.4-.369L38.6,19.977,32.392,21.1" fill="none" stroke="#000" stroke-linecap="round" stroke-linejoin="round" stroke-width="1.5"/>
  </g>
</svg>
