<svg xmlns="http://www.w3.org/2000/svg" xmlns:xlink="http://www.w3.org/1999/xlink" width="480" height="405" viewBox="0 0 480 405">
  <defs>
    <clipPath id="clip-path">
      <rect id="Rectángulo_7542" data-name="Rectángulo 7542" width="70" height="15" transform="translate(0 0)" fill="none"/>
    </clipPath>
  </defs>
  <g id="bogota-grafica-empleados" transform="translate(-720 -4204)">
    <g id="Grupo_24599" data-name="Grupo 24599" transform="translate(7)">
      <rect id="Rectángulo_7874" data-name="Rectángulo 7874" width="480" height="405" transform="translate(1193 4609) rotate(180)" fill="#fff"/>
      <g id="Grupo_24597" data-name="Grupo 24597" transform="translate(-5 5)">
        <g id="Group_24373" data-name="Group 24373" transform="translate(832.942 4284)">
          <g id="Group_24535" data-name="Group 24535" transform="translate(0 0)">
            <path id="Trazado_29468" data-name="Trazado 29468" d="M79.411,387.729a76.5,76.5,0,0,0,0-153H79.4v-55.5a129.718,129.718,0,0,1,57.857,13.359A131.984,131.984,0,0,1,21.542,429.842l24.316-49.856A76.174,76.174,0,0,0,79.411,387.729Z" transform="translate(52.59 -179.228)" fill="#c6cfd5" opacity="0.522"/>
            <path id="Trazado_29469" data-name="Trazado 29469" d="M285.546,179.231v55.5A76.505,76.505,0,0,0,252,379.984l-24.317,49.858C180.515,406.835,153.56,363.7,153.56,311.216v0A131.984,131.984,0,0,1,285.546,179.231Z" transform="translate(-153.56 -179.228)" fill="#19a301"/>
          </g>
        </g>
        <g id="Grupo_24575" data-name="Grupo 24575" transform="translate(1072 4432)">
          <g id="Grupo_24541" data-name="Grupo 24541" transform="translate(0 70)">
            <path id="Trazado_29494" data-name="Trazado 29494" d="M-36.842,0h-1.574V-8.861H-48.979V0H-50.54V-18.484h1.562v8.3h10.563v-8.3h1.574Zm3.5-7.071a8.083,8.083,0,0,1,.768-3.567A5.854,5.854,0,0,1-30.4-13.108a5.847,5.847,0,0,1,3.18-.882,5.651,5.651,0,0,1,4.443,1.923,7.411,7.411,0,0,1,1.7,5.1v.317a8.154,8.154,0,0,1-.768,3.586A5.735,5.735,0,0,1-24.007-.609a5.935,5.935,0,0,1-3.187.863A5.656,5.656,0,0,1-31.63-1.669a7.394,7.394,0,0,1-1.708-5.1Zm1.523.419a6.233,6.233,0,0,0,1.276,4.043,4.092,4.092,0,0,0,3.345,1.581,4.079,4.079,0,0,0,3.333-1.581,6.438,6.438,0,0,0,1.276-4.17v-.292a6.988,6.988,0,0,0-.584-2.882,4.692,4.692,0,0,0-1.638-2.025,4.185,4.185,0,0,0-2.412-.717A4.059,4.059,0,0,0-30.532-11.1a6.448,6.448,0,0,0-1.282,4.17Zm15.26-7.084L-16.5-11.5a5.085,5.085,0,0,1,1.9-1.866,5.222,5.222,0,0,1,2.539-.622q3.25,0,4.126,2.666A5.157,5.157,0,0,1-5.967-13.3,5.451,5.451,0,0,1-3.25-13.99q4.418,0,4.507,4.824V0H-.267V-9.052a4.1,4.1,0,0,0-.793-2.729,3.23,3.23,0,0,0-2.545-.889,4.046,4.046,0,0,0-2.768,1.06A3.746,3.746,0,0,0-7.63-9.09V0H-9.153V-9.166A3.763,3.763,0,0,0-9.985-11.8a3.309,3.309,0,0,0-2.52-.87,3.832,3.832,0,0,0-2.463.819A4.8,4.8,0,0,0-16.491-9.42V0h-1.523V-13.736ZM16.161-6.729a8.272,8.272,0,0,1-1.422,5.1A4.541,4.541,0,0,1,10.918.254,4.936,4.936,0,0,1,6.576-1.879L6.513,0H5.091V-19.5H6.6v7.757a4.774,4.774,0,0,1,4.291-2.247,4.583,4.583,0,0,1,3.853,1.86,8.371,8.371,0,0,1,1.416,5.173ZM14.638-7a7.156,7.156,0,0,0-1.054-4.2,3.435,3.435,0,0,0-2.971-1.479,4.181,4.181,0,0,0-2.476.717A4.361,4.361,0,0,0,6.6-9.852v6.2a4.07,4.07,0,0,0,4.037,2.59,3.41,3.41,0,0,0,2.939-1.485A7.649,7.649,0,0,0,14.638-7ZM25.86-12.441a5.674,5.674,0,0,0-1.028-.089,3.71,3.71,0,0,0-2.406.793,4.346,4.346,0,0,0-1.4,2.3V0H19.513V-13.736H21l.025,2.184A4.04,4.04,0,0,1,24.9-13.99a2.5,2.5,0,0,1,1,.165ZM33.579.254a5.963,5.963,0,0,1-3.167-.863,5.883,5.883,0,0,1-2.2-2.406,7.5,7.5,0,0,1-.787-3.459v-.546a8.083,8.083,0,0,1,.768-3.567,6.111,6.111,0,0,1,2.139-2.495A5.277,5.277,0,0,1,33.3-13.99a4.96,4.96,0,0,1,3.967,1.708,6.926,6.926,0,0,1,1.466,4.666v.851h-9.8v.292a5.752,5.752,0,0,0,1.339,3.891,4.261,4.261,0,0,0,3.371,1.555,4.95,4.95,0,0,0,2.152-.444,4.773,4.773,0,0,0,1.695-1.422l.952.724A5.543,5.543,0,0,1,33.579.254ZM33.3-12.7a3.8,3.8,0,0,0-2.888,1.257,5.806,5.806,0,0,0-1.428,3.377h8.239v-.165a5.041,5.041,0,0,0-1.13-3.225A3.5,3.5,0,0,0,33.3-12.7Zm16.618,9.2a2.165,2.165,0,0,0-.908-1.815,7,7,0,0,0-2.736-1.073,12.343,12.343,0,0,1-2.837-.889,3.78,3.78,0,0,1-1.5-1.225,3.056,3.056,0,0,1-.489-1.752,3.268,3.268,0,0,1,1.358-2.685,5.487,5.487,0,0,1,3.479-1.06,5.647,5.647,0,0,1,3.688,1.136,3.647,3.647,0,0,1,1.39,2.964H49.842A2.46,2.46,0,0,0,48.833-11.9a3.971,3.971,0,0,0-2.545-.8,3.973,3.973,0,0,0-2.406.667,2.057,2.057,0,0,0-.908,1.733A1.873,1.873,0,0,0,43.729-8.7a7.99,7.99,0,0,0,2.755,1.035,12.948,12.948,0,0,1,3,1,3.88,3.88,0,0,1,1.479,1.282,3.282,3.282,0,0,1,.482,1.815,3.29,3.29,0,0,1-1.4,2.78A5.993,5.993,0,0,1,46.376.254,6.153,6.153,0,0,1,42.485-.908a3.576,3.576,0,0,1-1.492-2.939h1.523A2.642,2.642,0,0,0,43.64-1.771a4.593,4.593,0,0,0,2.736.743,4.317,4.317,0,0,0,2.564-.7A2.1,2.1,0,0,0,49.918-3.491Z" transform="translate(53 71)" fill="#19a301"/>
            <path id="Trazado_29493" data-name="Trazado 29493" d="M-36.395-15.684l1.59-15.6h16.027v3.674H-31.432l-.945,8.529a10.1,10.1,0,0,1,5.221-1.354,8.63,8.63,0,0,1,6.789,2.825,11.073,11.073,0,0,1,2.514,7.638,10.687,10.687,0,0,1-2.61,7.616A9.514,9.514,0,0,1-27.758.43a9.888,9.888,0,0,1-6.768-2.3,9.176,9.176,0,0,1-2.986-6.359h3.76a6.312,6.312,0,0,0,1.912,4.05,5.945,5.945,0,0,0,4.082,1.364,5.363,5.363,0,0,0,4.351-1.891,7.9,7.9,0,0,0,1.579-5.221,7.254,7.254,0,0,0-1.708-5.038,5.81,5.81,0,0,0-4.544-1.9,6.552,6.552,0,0,0-4.082,1.139l-1.053.859ZM6.682-29.047-6.273,0h-4.168L2.471-28.016h-16.93v-3.266H6.682Zm4.168,3.781a6.348,6.348,0,0,1,1.794-4.641,6.18,6.18,0,0,1,4.608-1.826,6.143,6.143,0,0,1,4.63,1.837,6.568,6.568,0,0,1,1.772,4.759v1.525a6.266,6.266,0,0,1-1.794,4.63,6.184,6.184,0,0,1-4.565,1.794,6.32,6.32,0,0,1-4.619-1.794,6.4,6.4,0,0,1-1.826-4.78Zm2.965,1.646a4.065,4.065,0,0,0,.945,2.767,3.19,3.19,0,0,0,2.535,1.087,3.128,3.128,0,0,0,2.46-1.055,4.2,4.2,0,0,0,.935-2.886v-1.572a4.167,4.167,0,0,0-.924-2.778,3.112,3.112,0,0,0-2.514-1.1,3.112,3.112,0,0,0-2.514,1.1,4.3,4.3,0,0,0-.924,2.864ZM26.082-7.67a6.311,6.311,0,0,1,1.794-4.63,6.2,6.2,0,0,1,4.608-1.815,6.255,6.255,0,0,1,4.619,1.8,6.476,6.476,0,0,1,1.8,4.791v1.525a6.311,6.311,0,0,1-1.794,4.63A6.172,6.172,0,0,1,32.527.451a6.32,6.32,0,0,1-4.619-1.794,6.4,6.4,0,0,1-1.826-4.78ZM29.047-6a4.1,4.1,0,0,0,.945,2.788,3.19,3.19,0,0,0,2.535,1.087A3.105,3.105,0,0,0,35-3.193a4.272,4.272,0,0,0,.924-2.9V-7.683a4.085,4.085,0,0,0-.935-2.778,3.147,3.147,0,0,0-2.5-1.077A3.178,3.178,0,0,0,30-10.471,4.146,4.146,0,0,0,29.047-7.6ZM18.2-2.363,15.941-3.781,31.217-28.23l2.256,1.418Z" transform="translate(53 41)" fill="#19a301"/>
          </g>
          <g id="Grupo_24554" data-name="Grupo 24554" transform="translate(18)">
            <g id="Grupo_24551" data-name="Grupo 24551" transform="translate(0 55)">
              <g id="Grupo_24550" data-name="Grupo 24550" clip-path="url(#clip-path)">
                <g id="Grupo_24549" data-name="Grupo 24549">
                  <g id="Grupo_24548" data-name="Grupo 24548" transform="translate(10.92 7.5)">
                    <line id="Line_4" data-name="Line 4" x2="8.37" transform="translate(30.76)" fill="none" stroke="#19a301" stroke-linecap="round" stroke-linejoin="round" stroke-width="2.4"/>
                    <line id="Line_5" data-name="Line 5" x2="0.67" transform="translate(47.49)" fill="none" stroke="#19a301" stroke-linecap="round" stroke-linejoin="round" stroke-width="2.4"/>
                    <line id="Line_6" data-name="Line 6" x2="8.29" fill="none" stroke="#19a301" stroke-linecap="round" stroke-linejoin="round" stroke-width="2.4"/>
                    <line id="Line_7" data-name="Line 7" x2="14.63" transform="translate(7.75)" fill="none" stroke="#82d400" stroke-linecap="round" stroke-linejoin="round" stroke-width="2.4"/>
                  </g>
                  <rect id="Rectángulo_7541" data-name="Rectángulo 7541" width="70" height="15" transform="translate(0 0)" fill="none"/>
                </g>
              </g>
            </g>
            <rect id="Rectángulo_7543" data-name="Rectángulo 7543" width="70" height="70" transform="translate(0 0)" fill="none"/>
            <g id="Grupo_24553" data-name="Grupo 24553" transform="translate(17.28 9)">
              <circle id="Ellipse_2" data-name="Ellipse 2" cx="5.8" cy="5.8" r="5.8" transform="translate(0 22.5)" fill="none" stroke="#19a301" stroke-linecap="round" stroke-linejoin="round" stroke-width="1.5"/>
              <g id="Grupo_24552" data-name="Grupo 24552" transform="translate(4.12)">
                <line id="Línea_3929" data-name="Línea 3929" y2="4.53" transform="translate(12.34 15.85)" fill="none" stroke="#000" stroke-linecap="round" stroke-linejoin="round" stroke-width="1.5"/>
                <line id="Línea_3930" data-name="Línea 3930" y2="4.53" transform="translate(18.97 15.85)" fill="none" stroke="#000" stroke-linecap="round" stroke-linejoin="round" stroke-width="1.5"/>
                <path id="Trazado_29470" data-name="Trazado 29470" d="M21.4,45.8v8.26H52.71V38.73a5.861,5.861,0,0,0-3.46-5.35l-8.88-3.99" transform="translate(-21.4 -9)" fill="none" stroke="#000" stroke-linecap="round" stroke-linejoin="round" stroke-width="1.5"/>
                <line id="Línea_3931" data-name="Línea 3931" x1="4.52" y2="2.03" transform="translate(7.82 20.39)" fill="none" stroke="#000" stroke-linecap="round" stroke-linejoin="round" stroke-width="1.5"/>
                <line id="Línea_3932" data-name="Línea 3932" x1="3.32" y1="3.76" transform="translate(12.34 20.38)" fill="none" stroke="#000" stroke-linecap="round" stroke-linejoin="round" stroke-width="1.5"/>
                <line id="Línea_3933" data-name="Línea 3933" y1="3.76" x2="3.31" transform="translate(15.66 20.38)" fill="none" stroke="#000" stroke-linecap="round" stroke-linejoin="round" stroke-width="1.5"/>
                <path id="Trazado_29471" data-name="Trazado 29471" d="M43.28,19.56a6.25,6.25,0,1,1-12.5,0" transform="translate(-21.4 -9)" fill="none" stroke="#000" stroke-linecap="round" stroke-linejoin="round" stroke-width="1.5"/>
                <path id="Trazado_29472" data-name="Trazado 29472" d="M30.79,19.56V15.25a6.25,6.25,0,0,1,12.5,0v4.31" transform="translate(-21.4 -9)" fill="none" stroke="#000" stroke-linecap="round" stroke-linejoin="round" stroke-width="1.5"/>
              </g>
            </g>
          </g>
        </g>
        <g id="Grupo_24576" data-name="Grupo 24576" transform="translate(738 4224)">
          <g id="Grupo_24542" data-name="Grupo 24542" transform="translate(0 67)">
            <path id="Trazado_29496" data-name="Trazado 29496" d="M-21.441-10.506h4.34v3.244h-4.34V0h-4V-7.262H-39.682V-9.6l14.008-21.678h4.232Zm-13.729,0h9.732v-15.34l-.473.859Zm27.436-7.068h2.986A6.564,6.564,0,0,0-.322-19.057a4.953,4.953,0,0,0,1.611-3.889q0-5.5-5.479-5.5A5.7,5.7,0,0,0-8.3-26.974a5.151,5.151,0,0,0-1.536,3.9h-3.975A7.98,7.98,0,0,1-11.1-29.251a9.9,9.9,0,0,1,6.907-2.46A9.784,9.784,0,0,1,2.75-29.369a8.46,8.46,0,0,1,2.514,6.51,6.867,6.867,0,0,1-1.321,3.953,7.978,7.978,0,0,1-3.6,2.857,7.687,7.687,0,0,1,3.985,2.707A7.518,7.518,0,0,1,5.736-8.723a8.533,8.533,0,0,1-2.75,6.682A10.3,10.3,0,0,1-4.168.43a10.57,10.57,0,0,1-7.165-2.385A7.911,7.911,0,0,1-14.094-8.25h4A5.113,5.113,0,0,0-8.486-4.3,6.129,6.129,0,0,0-4.168-2.814a6.014,6.014,0,0,0,4.4-1.5A5.8,5.8,0,0,0,1.762-8.637,5.259,5.259,0,0,0,.086-12.826a7.3,7.3,0,0,0-4.834-1.5H-7.734ZM10.85-25.266a6.348,6.348,0,0,1,1.794-4.641,6.18,6.18,0,0,1,4.608-1.826,6.143,6.143,0,0,1,4.63,1.837,6.568,6.568,0,0,1,1.772,4.759v1.525a6.266,6.266,0,0,1-1.794,4.63,6.184,6.184,0,0,1-4.565,1.794,6.32,6.32,0,0,1-4.619-1.794,6.4,6.4,0,0,1-1.826-4.78Zm2.965,1.646a4.065,4.065,0,0,0,.945,2.767,3.19,3.19,0,0,0,2.535,1.087,3.128,3.128,0,0,0,2.46-1.055,4.2,4.2,0,0,0,.935-2.886v-1.572a4.167,4.167,0,0,0-.924-2.778,3.112,3.112,0,0,0-2.514-1.1,3.112,3.112,0,0,0-2.514,1.1,4.3,4.3,0,0,0-.924,2.864ZM26.082-7.67a6.311,6.311,0,0,1,1.794-4.63,6.2,6.2,0,0,1,4.608-1.815,6.255,6.255,0,0,1,4.619,1.8,6.476,6.476,0,0,1,1.8,4.791v1.525a6.311,6.311,0,0,1-1.794,4.63A6.172,6.172,0,0,1,32.527.451a6.32,6.32,0,0,1-4.619-1.794,6.4,6.4,0,0,1-1.826-4.78ZM29.047-6a4.1,4.1,0,0,0,.945,2.788,3.19,3.19,0,0,0,2.535,1.087A3.105,3.105,0,0,0,35-3.193a4.272,4.272,0,0,0,.924-2.9V-7.683a4.085,4.085,0,0,0-.935-2.778,3.147,3.147,0,0,0-2.5-1.077A3.178,3.178,0,0,0,30-10.471,4.146,4.146,0,0,0,29.047-7.6ZM18.2-2.363,15.941-3.781,31.217-28.23l2.256,1.418Z" transform="translate(46 41)"/>
            <path id="Trazado_29495" data-name="Trazado 29495" d="M-41.336-18.484l6.817,16.313,6.843-16.313h2.082V0h-1.562V-8.049l.127-8.252L-33.909,0h-1.206l-6.855-16.237.127,8.138V0h-1.562V-18.484ZM-12.429-1.739A4.937,4.937,0,0,1-16.809.254a4.25,4.25,0,0,1-3.339-1.276A5.588,5.588,0,0,1-21.315-4.8v-8.937H-19.8v8.747q0,3.923,3.174,3.923,3.3,0,4.177-2.729v-9.94h1.523V0H-12.4Zm7.084-12V1.638a4.173,4.173,0,0,1-.914,2.907,3.459,3.459,0,0,1-2.691,1,3.822,3.822,0,0,1-1.333-.239l.025-1.247a4.012,4.012,0,0,0,1.143.165q2.26,0,2.26-2.6v-15.36Zm-.749-4.989a1.012,1.012,0,0,1,.774.3,1.018,1.018,0,0,1,.279.725,1,1,0,0,1-.279.719,1.024,1.024,0,0,1-.774.29.987.987,0,0,1-.755-.29,1.009,1.009,0,0,1-.273-.719,1.032,1.032,0,0,1,.273-.725A.976.976,0,0,1-6.094-18.726ZM4.266.254A5.963,5.963,0,0,1,1.1-.609,5.883,5.883,0,0,1-1.1-3.015a7.5,7.5,0,0,1-.787-3.459v-.546a8.083,8.083,0,0,1,.768-3.567,6.111,6.111,0,0,1,2.139-2.495,5.277,5.277,0,0,1,2.971-.908,4.96,4.96,0,0,1,3.967,1.708A6.926,6.926,0,0,1,9.42-7.617v.851h-9.8v.292A5.752,5.752,0,0,0,.958-2.583,4.261,4.261,0,0,0,4.329-1.028a4.95,4.95,0,0,0,2.152-.444A4.773,4.773,0,0,0,8.176-2.895l.952.724A5.543,5.543,0,0,1,4.266.254ZM3.986-12.7A3.8,3.8,0,0,0,1.1-11.438,5.806,5.806,0,0,0-.33-8.062H7.909v-.165a5.041,5.041,0,0,0-1.13-3.225A3.5,3.5,0,0,0,3.986-12.7Zm14.739.254A5.674,5.674,0,0,0,17.7-12.53a3.71,3.71,0,0,0-2.406.793,4.346,4.346,0,0,0-1.4,2.3V0H12.378V-13.736h1.485l.025,2.184a4.04,4.04,0,0,1,3.872-2.437,2.5,2.5,0,0,1,1,.165ZM26.444.254a5.963,5.963,0,0,1-3.167-.863,5.883,5.883,0,0,1-2.2-2.406,7.5,7.5,0,0,1-.787-3.459v-.546a8.083,8.083,0,0,1,.768-3.567,6.111,6.111,0,0,1,2.139-2.495,5.277,5.277,0,0,1,2.971-.908,4.96,4.96,0,0,1,3.967,1.708A6.926,6.926,0,0,1,31.6-7.617v.851H21.8v.292a5.752,5.752,0,0,0,1.339,3.891,4.261,4.261,0,0,0,3.371,1.555,4.95,4.95,0,0,0,2.152-.444,4.773,4.773,0,0,0,1.695-1.422l.952.724A5.543,5.543,0,0,1,26.444.254ZM26.165-12.7a3.8,3.8,0,0,0-2.888,1.257,5.806,5.806,0,0,0-1.428,3.377h8.239v-.165a5.041,5.041,0,0,0-1.13-3.225A3.5,3.5,0,0,0,26.165-12.7Zm16.618,9.2a2.165,2.165,0,0,0-.908-1.815A7,7,0,0,0,39.14-6.379,12.343,12.343,0,0,1,36.3-7.268a3.78,3.78,0,0,1-1.5-1.225,3.056,3.056,0,0,1-.489-1.752,3.268,3.268,0,0,1,1.358-2.685,5.487,5.487,0,0,1,3.479-1.06,5.647,5.647,0,0,1,3.688,1.136A3.647,3.647,0,0,1,44.23-9.89H42.707A2.46,2.46,0,0,0,41.7-11.9a3.971,3.971,0,0,0-2.545-.8,3.973,3.973,0,0,0-2.406.667,2.057,2.057,0,0,0-.908,1.733A1.873,1.873,0,0,0,36.594-8.7a7.99,7.99,0,0,0,2.755,1.035,12.948,12.948,0,0,1,3,1,3.88,3.88,0,0,1,1.479,1.282,3.282,3.282,0,0,1,.482,1.815,3.29,3.29,0,0,1-1.4,2.78A5.993,5.993,0,0,1,39.241.254,6.153,6.153,0,0,1,35.35-.908a3.576,3.576,0,0,1-1.492-2.939h1.523a2.642,2.642,0,0,0,1.124,2.076,4.593,4.593,0,0,0,2.736.743,4.317,4.317,0,0,0,2.564-.7A2.1,2.1,0,0,0,42.783-3.491Z" transform="translate(46 71)"/>
          </g>
          <g id="Grupo_24562" data-name="Grupo 24562" transform="translate(11)">
            <g id="Capa_1" data-name="Capa 1">
              <g id="Grupo_24559" data-name="Grupo 24559">
                <rect id="Rectángulo_7544" data-name="Rectángulo 7544" width="70" height="70" transform="translate(0 0)" fill="none"/>
                <g id="Grupo_24558" data-name="Grupo 24558" transform="translate(0 55)">
                  <g id="Grupo_24557" data-name="Grupo 24557" clip-path="url(#clip-path)">
                    <g id="Grupo_24556" data-name="Grupo 24556">
                      <g id="Grupo_24555" data-name="Grupo 24555" transform="translate(10.92 7.5)">
                        <line id="Line_4-2" data-name="Line 4" x2="8.37" transform="translate(30.76)" fill="none" stroke="#19a301" stroke-linecap="round" stroke-linejoin="round" stroke-width="2.4"/>
                        <line id="Line_5-2" data-name="Line 5" x2="0.67" transform="translate(47.49)" fill="none" stroke="#19a301" stroke-linecap="round" stroke-linejoin="round" stroke-width="2.4"/>
                        <line id="Line_6-2" data-name="Line 6" x2="8.29" fill="none" stroke="#19a301" stroke-linecap="round" stroke-linejoin="round" stroke-width="2.4"/>
                        <line id="Line_7-2" data-name="Line 7" x2="14.63" transform="translate(7.75)" fill="none" stroke="#82d400" stroke-linecap="round" stroke-linejoin="round" stroke-width="2.4"/>
                      </g>
                      <rect id="Rectángulo_7545" data-name="Rectángulo 7545" width="70" height="15" transform="translate(0 0)" fill="none"/>
                    </g>
                  </g>
                </g>
              </g>
            </g>
            <g id="Grupo_24561" data-name="Grupo 24561" transform="translate(14.505 9.501)">
              <g id="Grupo_24560" data-name="Grupo 24560">
                <circle id="Ellipse_2-2" data-name="Ellipse 2" cx="5.8" cy="5.8" r="5.8" transform="translate(0 31.18)" fill="none" stroke="#19a301" stroke-linecap="round" stroke-linejoin="round" stroke-width="1.5"/>
                <path id="Trazado_29473" data-name="Trazado 29473" d="M43.505,39.351a5.33,5.33,0,0,1-10.66,0" transform="translate(-14.505 -9.501)" fill="none" stroke="#000" stroke-linecap="round" stroke-linejoin="round" stroke-width="1.5"/>
                <path id="Trazado_29474" data-name="Trazado 29474" d="M48.725,39.231c.22.03.44.06.66.11a7.4,7.4,0,0,1,5.57,5.79,24.469,24.469,0,0,1,.54,5.34v3.37H24.515" transform="translate(-14.505 -9.501)" fill="none" stroke="#000" stroke-linecap="round" stroke-linejoin="round" stroke-width="1.5"/>
                <path id="Trazado_29475" data-name="Trazado 29475" d="M27.885,39.221a7.85,7.85,0,0,0-2.12.53" transform="translate(-14.505 -9.501)" fill="none" stroke="#000" stroke-linecap="round" stroke-linejoin="round" stroke-width="1.5"/>
                <path id="Trazado_29476" data-name="Trazado 29476" d="M34.825,34.4v4.86h-1.99c-2.96,0-5.14.01-5.14.01V20.011a10.5,10.5,0,1,1,21,0V28.2" transform="translate(-14.505 -9.501)" fill="none" stroke="#000" stroke-linecap="round" stroke-linejoin="round" stroke-width="1.5"/>
                <path id="Trazado_29477" data-name="Trazado 29477" d="M48.695,27.284V39.231s-2.22,0-5.21.01h-2.18V34.4" transform="translate(-14.505 -9.501)" fill="none" stroke="#000" stroke-linecap="round" stroke-linejoin="round" stroke-width="1.5"/>
                <path id="Trazado_29478" data-name="Trazado 29478" d="M45.575,23.821v4.35a6.363,6.363,0,0,1-6.36,6.36h-2.03a6.363,6.363,0,0,1-6.36-6.36v-4.35c0-.1,0-.21.01-.31v-.97h4.37s5.49.07,5.49-5.11c0,0,.15,5.04,4.74,5.04Z" transform="translate(-14.505 -9.501)" fill="none" stroke="#000" stroke-linecap="round" stroke-linejoin="round" stroke-width="1.5"/>
              </g>
            </g>
          </g>
        </g>
      </g>
    </g>
  </g>
</svg>
