<?xml version="1.0" encoding="utf-8"?>
<!-- Generator: Adobe Illustrator 24.0.2, SVG Export Plug-In . SVG Version: 6.00 Build 0)  -->
<svg version="1.1" id="Layer_1" xmlns="http://www.w3.org/2000/svg" xmlns:xlink="http://www.w3.org/1999/xlink" x="0px" y="0px"
	 viewBox="0 0 70 70" style="enable-background:new 0 0 70 70;" xml:space="preserve">
<style type="text/css">
	.st0{fill:none;stroke:#19A301;stroke-width:2.4;stroke-linecap:round;stroke-linejoin:round;}
	.st1{fill:none;stroke:#82D400;stroke-width:2.4;stroke-linecap:round;stroke-linejoin:round;}
	.st2{fill:none;}
	.st3{fill:none;stroke:#19A301;stroke-width:1.5;stroke-linecap:round;stroke-linejoin:round;}
	.st4{fill:none;stroke:#FFFFFF;stroke-width:1.5;stroke-linecap:round;stroke-linejoin:round;stroke-miterlimit:10;}
	.st5{fill:none;stroke:#FFFFFF;stroke-width:1.4947;stroke-linecap:round;stroke-linejoin:round;stroke-miterlimit:10;}
</style>
<symbol  id="OCENSA-EXT" viewBox="-35 -7.5 70 15">
	<g>
		<line id="Line_4_1_" class="st0" x1="6.7" y1="0" x2="15.1" y2="0"/>
		<line id="Line_5_1_" class="st0" x1="23.4" y1="0" x2="24.1" y2="0"/>
		<line id="Line_6_1_" class="st0" x1="-24.1" y1="0" x2="-15.8" y2="0"/>
		<line id="Line_7_1_" class="st1" x1="-16.3" y1="0" x2="-1.7" y2="0"/>
	</g>
	<rect x="-35" y="-7.5" class="st2" width="70" height="15"/>
</symbol>
<g id="Capa_2">
	<g>
		<rect y="0" class="st2" width="70" height="70"/>
		<circle id="Ellipse_2_9_" class="st3" cx="23.8" cy="13.7" r="5.8"/>
		<polyline class="st4" points="47.9,33.7 50.8,38.7 60.2,54.3 9.8,54.3 19.1,38.7 22,33.9 		"/>
		<line class="st4" x1="55.7" y1="46.7" x2="14.3" y2="46.7"/>
		<g>
			<path class="st4" d="M21.6,22.2c-1.8,1.2-3,3.3-3,5.8c0,2.6,1.4,4.9,3.4,6c0.9,0.5,1.8,0.8,2.9,0.8h9.9h9.9c1.2,0,2.3-0.4,3.3-1
				c1.8-1.2,3-3.3,3-5.7c0-3.7-2.8-6.8-6.3-6.8h-0.8c1.1-0.8,1.9-2.2,1.9-3.8c0-2.5-1.9-4.6-4.2-4.6h-2.1c0.3-0.6,0.5-1.3,0.5-2
				c0-2.5-2.3-4.5-5.1-4.5c-1.6,0-3,0.6-3.9,1.6"/>
			<line class="st4" x1="34.7" y1="20.8" x2="34.7" y2="46.2"/>
		</g>
		<line class="st4" x1="40.2" y1="26.2" x2="35.3" y2="29.2"/>
		<line class="st5" x1="19" y1="39" x2="51" y2="39"/>
		<g>
			<defs>
				<rect id="SVGID_1_" y="55" width="70" height="15"/>
			</defs>
			<clipPath id="SVGID_2_">
				<use xlink:href="#SVGID_1_"  style="overflow:visible;"/>
			</clipPath>
			<g style="clip-path:url(#SVGID_2_);">
				
					<use xlink:href="#OCENSA-EXT"  width="70" height="15" x="-35" y="-7.5" transform="matrix(1 0 0 -1 35 62.5)" style="overflow:visible;"/>
			</g>
		</g>
	</g>
</g>
</svg>
