<?xml version="1.0" encoding="utf-8"?>
<!-- Generator: Adobe Illustrator 24.0.2, SVG Export Plug-In . SVG Version: 6.00 Build 0)  -->
<svg version="1.1" id="Layer_1" xmlns="http://www.w3.org/2000/svg" xmlns:xlink="http://www.w3.org/1999/xlink" x="0px" y="0px"
	 viewBox="0 0 70 70" style="enable-background:new 0 0 70 70;" xml:space="preserve">
<style type="text/css">
	.st0{fill:none;stroke:#19A301;stroke-width:2.4;stroke-linecap:round;stroke-linejoin:round;}
	.st1{fill:none;stroke:#82D400;stroke-width:2.4;stroke-linecap:round;stroke-linejoin:round;}
	.st2{fill:none;}
	.st3{fill:none;stroke:#FFFFFF;stroke-width:1.5;stroke-linecap:round;stroke-linejoin:round;stroke-miterlimit:10;}
	.st4{fill:none;stroke:#19A301;stroke-width:1.5;stroke-linecap:round;stroke-linejoin:round;stroke-miterlimit:10;}
</style>
<symbol  id="OCENSA-EXT" viewBox="-35 -7.5 70 15">
	<g>
		<line id="Line_4_1_" class="st0" x1="6.7" y1="0" x2="15.1" y2="0"/>
		<line id="Line_5_1_" class="st0" x1="23.4" y1="0" x2="24.1" y2="0"/>
		<line id="Line_6_1_" class="st0" x1="-24.1" y1="0" x2="-15.8" y2="0"/>
		<line id="Line_7_1_" class="st1" x1="-16.3" y1="0" x2="-1.7" y2="0"/>
	</g>
	<rect x="-35" y="-7.5" class="st2" width="70" height="15"/>
</symbol>
<g id="Capa_2">
	<g>
		<g>
			<defs>
				<rect id="SVGID_1_" y="55" width="70" height="15"/>
			</defs>
			<clipPath id="SVGID_2_">
				<use xlink:href="#SVGID_1_"  style="overflow:visible;"/>
			</clipPath>
			<g style="clip-path:url(#SVGID_2_);">
				
					<use xlink:href="#OCENSA-EXT"  width="70" height="15" x="-35" y="-7.5" transform="matrix(1 0 0 -1 35 62.5)" style="overflow:visible;"/>
			</g>
		</g>
		<rect y="0" class="st2" width="70" height="70"/>
		<g>
			<line class="st3" x1="42.2" y1="55" x2="42.2" y2="37.4"/>
			<line class="st3" x1="28.2" y1="55" x2="28.2" y2="37.4"/>
			<path class="st3" d="M41.3,55.1H29c-3.1,0-5.6-2.5-5.6-5.6V32.7c0-3.1,2.5-5.6,5.6-5.6h12.3c3.1,0,5.6,2.5,5.6,5.6v16.7
				C47,52.5,44.5,55.1,41.3,55.1z"/>
			<circle class="st4" cx="34.9" cy="16.5" r="6.3"/>
		</g>
	</g>
</g>
</svg>
