<?xml version="1.0" encoding="utf-8"?>
<!-- Generator: Adobe Illustrator 24.0.2, SVG Export Plug-In . SVG Version: 6.00 Build 0)  -->
<svg version="1.1" id="Layer_1" xmlns="http://www.w3.org/2000/svg" xmlns:xlink="http://www.w3.org/1999/xlink" x="0px" y="0px"
	 viewBox="0 0 70 70" style="enable-background:new 0 0 70 70;" xml:space="preserve">
<style type="text/css">
	.st0{fill:none;stroke:#19A301;stroke-width:2.4;stroke-linecap:round;stroke-linejoin:round;}
	.st1{fill:none;stroke:#82D400;stroke-width:2.4;stroke-linecap:round;stroke-linejoin:round;}
	.st2{fill:none;}
	.st3{fill:none;stroke:#19A301;stroke-width:1.5;stroke-linecap:round;stroke-linejoin:round;}
	.st4{fill:none;stroke:#FFFFFF;stroke-width:1.5;stroke-linecap:round;stroke-linejoin:round;stroke-miterlimit:10;}
</style>
<symbol  id="OCENSA-EXT" viewBox="-35 -7.5 70 15">
	<g>
		<line id="Line_4_1_" class="st0" x1="6.7" y1="0" x2="15.1" y2="0"/>
		<line id="Line_5_1_" class="st0" x1="23.4" y1="0" x2="24.1" y2="0"/>
		<line id="Line_6_1_" class="st0" x1="-24.1" y1="0" x2="-15.8" y2="0"/>
		<line id="Line_7_1_" class="st1" x1="-16.3" y1="0" x2="-1.7" y2="0"/>
	</g>
	<rect x="-35" y="-7.5" class="st2" width="70" height="15"/>
</symbol>
<g id="Capa_2">
	<g>
		<rect y="0" class="st2" width="70" height="70"/>
		<g>
			<circle id="Ellipse_2_141_" class="st3" cx="24.8" cy="15.7" r="5.8"/>
			<g>
				<path class="st4" d="M32.3,11c1.4-0.5,3-0.8,4.5-0.8c3.5,0,7,2.1,8.5,5.2c1.3,2.7,1.1,5.9,0.2,8.7c-0.3,1-0.8,2-1.2,2.9
					c-0.8,1.7-1.9,3.4-2.8,5c-1.8,2.9-3.5,5.7-5.6,8.5c-1.9-2.9-3.7-5.9-5.5-8.8c-1.4-2.3-2.7-4.7-3.5-7.3"/>
				<g>
					<circle class="st4" cx="36.8" cy="19.6" r="4.2"/>
				</g>
			</g>
			<polyline class="st4" points="40.7,33.3 47.6,33.3 60.2,54.3 9.8,54.3 22.4,33.3 31.3,33.3 			"/>
			<line class="st4" x1="55.7" y1="46.7" x2="14.3" y2="46.7"/>
			<line class="st4" x1="50.9" y1="38.7" x2="37.2" y2="38.7"/>
			<line class="st4" x1="34.6" y1="38.7" x2="19.1" y2="38.7"/>
		</g>
		<g>
			<defs>
				<rect id="SVGID_1_" y="55" width="70" height="15"/>
			</defs>
			<clipPath id="SVGID_2_">
				<use xlink:href="#SVGID_1_"  style="overflow:visible;"/>
			</clipPath>
			<g style="clip-path:url(#SVGID_2_);">
				
					<use xlink:href="#OCENSA-EXT"  width="70" height="15" x="-35" y="-7.5" transform="matrix(1 0 0 -1 35 62.5)" style="overflow:visible;"/>
			</g>
		</g>
	</g>
</g>
</svg>
