<?xml version="1.0" encoding="utf-8"?>
<!-- Generator: Adobe Illustrator 24.0.2, SVG Export Plug-In . SVG Version: 6.00 Build 0)  -->
<svg version="1.1" id="Layer_1" xmlns="http://www.w3.org/2000/svg" xmlns:xlink="http://www.w3.org/1999/xlink" x="0px" y="0px"
	 viewBox="0 0 70 70" style="enable-background:new 0 0 70 70;" xml:space="preserve">
<style type="text/css">
	.st0{fill:none;stroke:#19A301;stroke-width:2.4;stroke-linecap:round;stroke-linejoin:round;}
	.st1{fill:none;stroke:#82D400;stroke-width:2.4;stroke-linecap:round;stroke-linejoin:round;}
	.st2{fill:none;}
	.st3{fill:none;stroke:#19A301;stroke-width:1.5;stroke-linecap:round;stroke-linejoin:round;}
	.st4{fill:none;stroke:#FFFFFF;stroke-width:1.5;stroke-linecap:round;stroke-linejoin:round;stroke-miterlimit:10;}
</style>
<symbol  id="OCENSA-EXT" viewBox="-35 -7.5 70 15">
	<g>
		<line id="Line_4_1_" class="st0" x1="6.7" y1="0" x2="15.1" y2="0"/>
		<line id="Line_5_1_" class="st0" x1="23.4" y1="0" x2="24.1" y2="0"/>
		<line id="Line_6_1_" class="st0" x1="-24.1" y1="0" x2="-15.8" y2="0"/>
		<line id="Line_7_1_" class="st1" x1="-16.3" y1="0" x2="-1.7" y2="0"/>
	</g>
	<rect x="-35" y="-7.5" class="st2" width="70" height="15"/>
</symbol>
<g id="Capa_2">
	<g>
		<rect y="0" class="st2" width="70" height="70"/>
		<g>
			<circle id="Ellipse_2_6_" class="st3" cx="23.8" cy="13.7" r="5.8"/>
			<polyline class="st4" points="45,33.3 47.6,33.3 50.8,38.7 60.2,54.3 9.8,54.3 19.1,38.7 22.4,33.3 25.9,33.3 			"/>
			<line class="st4" x1="55.7" y1="46.7" x2="14.3" y2="46.7"/>
			<polyline class="st4" points="45,38.7 50.8,38.7 50.9,38.7 			"/>
			<polyline class="st4" points="25.9,38.7 19.1,38.7 19.1,38.7 			"/>
			<polyline class="st4" points="32.1,11.6 45,11.6 45,43.5 25.9,43.5 25.9,22.5 			"/>
			<line class="st4" x1="28.5" y1="22.5" x2="33.5" y2="22.5"/>
			<line class="st4" x1="28.5" y1="28.7" x2="33.5" y2="28.7"/>
			<line class="st4" x1="37.5" y1="16.2" x2="42.4" y2="16.2"/>
			<line class="st4" x1="37.5" y1="22.5" x2="42.4" y2="22.5"/>
			<line class="st4" x1="37.5" y1="28.7" x2="42.4" y2="28.7"/>
			<rect x="31.6" y="34.8" class="st4" width="7.2" height="8.8"/>
		</g>
		<g>
			<defs>
				<rect id="SVGID_1_" y="55" width="70" height="15"/>
			</defs>
			<clipPath id="SVGID_2_">
				<use xlink:href="#SVGID_1_"  style="overflow:visible;"/>
			</clipPath>
			<g style="clip-path:url(#SVGID_2_);">
				
					<use xlink:href="#OCENSA-EXT"  width="70" height="15" x="-35" y="-7.5" transform="matrix(1 0 0 -1 35 62.5)" style="overflow:visible;"/>
			</g>
		</g>
	</g>
</g>
</svg>
