<?xml version="1.0" encoding="utf-8"?>
<!-- Generator: Adobe Illustrator 24.0.2, SVG Export Plug-In . SVG Version: 6.00 Build 0)  -->
<svg version="1.1" id="Layer_1" xmlns="http://www.w3.org/2000/svg" xmlns:xlink="http://www.w3.org/1999/xlink" x="0px" y="0px"
	 viewBox="0 0 70 70" style="enable-background:new 0 0 70 70;" xml:space="preserve">
<style type="text/css">
	.st0{fill:none;stroke:#19A301;stroke-width:2.4;stroke-linecap:round;stroke-linejoin:round;}
	.st1{fill:none;stroke:#82D400;stroke-width:2.4;stroke-linecap:round;stroke-linejoin:round;}
	.st2{fill:none;}
	.st3{fill:none;stroke:#19A301;stroke-width:1.5;stroke-linecap:round;stroke-linejoin:round;}
	.st4{fill:none;stroke:#FFFFFF;stroke-width:1.5944;stroke-linecap:round;stroke-linejoin:round;stroke-miterlimit:10;}
</style>
<symbol  id="OCENSA-EXT" viewBox="-35 -7.5 70 15">
	<g>
		<line id="Line_4_1_" class="st0" x1="6.7" y1="0" x2="15.1" y2="0"/>
		<line id="Line_5_1_" class="st0" x1="23.4" y1="0" x2="24.1" y2="0"/>
		<line id="Line_6_1_" class="st0" x1="-24.1" y1="0" x2="-15.8" y2="0"/>
		<line id="Line_7_1_" class="st1" x1="-16.3" y1="0" x2="-1.7" y2="0"/>
	</g>
	<rect x="-35" y="-7.5" class="st2" width="70" height="15"/>
</symbol>
<g id="Capa_2">
	<g>
		<rect y="0" class="st2" width="70" height="70"/>
		<g>
			<circle id="Ellipse_2_143_" class="st3" cx="30" cy="20.5" r="5.8"/>
			<path class="st4" d="M30.4,29.5v8.6c-2,1.5-3.6,4.2-3.6,7.2c0,5,4,9,9,9c5,0,9-4,9-9c0-2.9-1.4-5.5-3.6-7.2V13.9
				c0-3-2.4-5.4-5.4-5.4l0,0c-2.2,0-4.1,1.4-5,3.3"/>
			<line class="st4" x1="41.5" y1="18.8" x2="45.8" y2="18.8"/>
			<line class="st4" x1="41.5" y1="23.6" x2="45.8" y2="23.6"/>
			<line class="st4" x1="41.4" y1="28.5" x2="45.8" y2="28.5"/>
			<g>
				<circle class="st4" cx="36" cy="45.3" r="3"/>
			</g>
		</g>
		<g>
			<defs>
				<rect id="SVGID_1_" y="55" width="70" height="15"/>
			</defs>
			<clipPath id="SVGID_2_">
				<use xlink:href="#SVGID_1_"  style="overflow:visible;"/>
			</clipPath>
			<g style="clip-path:url(#SVGID_2_);">
				
					<use xlink:href="#OCENSA-EXT"  width="70" height="15" x="-35" y="-7.5" transform="matrix(1 0 0 -1 35 62.5)" style="overflow:visible;"/>
			</g>
		</g>
	</g>
</g>
</svg>
