<svg xmlns="http://www.w3.org/2000/svg" width="30.5" height="30.5" viewBox="0 0 30.5 30.5">
  <g id="Grupo_24883" data-name="Grupo 24883" transform="translate(-619.25 -2786.146)">
    <path id="Trazado_29402" data-name="Trazado 29402" d="M14.5,0h0A14.5,14.5,0,0,1,29,14.5h0A14.5,14.5,0,0,1,14.5,29h0A14.5,14.5,0,0,1,0,14.5H0A14.5,14.5,0,0,1,14.5,0Z" transform="translate(620 2786.896)" fill="#11c385" stroke="#11c385" stroke-width="1.5"/>
    <g id="Grupo_13809" data-name="Grupo 13809" transform="translate(629.5 2794.396)">
      <path id="Path_11413" data-name="Path 11413" d="M-1108.869,220.633c0,2.763,5,9.883,5,9.883s5-7.119,5-9.883a5,5,0,0,0-5.069-4.938,5.005,5.005,0,0,0-4.938,4.938Z" transform="translate(1108.87 -215.694)" fill="none" stroke="#00009e" stroke-linecap="round" stroke-linejoin="round" stroke-width="1.4"/>
      <line id="Línea_2478" data-name="Línea 2478" y2="0.707" transform="translate(5.005 4.698)" fill="none" stroke="#00009e" stroke-linecap="round" stroke-linejoin="round" stroke-width="1.4"/>
    </g>
  </g>
</svg>
