<svg xmlns="http://www.w3.org/2000/svg" width="200.044" height="99.947" viewBox="0 0 200.044 99.947">
  <path id="Trazado_29213" data-name="Trazado 29213" d="M-11744.6,1895.484s-4.523,1.933-4.086,7.962,4.814,11.125,1.151,12.756-10.553,2.14-15.414,3.25-14.473-.774-19.564,4.181-8.448,9.353-8.65,11.585-.583,6.246-6.156,8.8a79.592,79.592,0,0,0-9.763,5.438c-1.758.986-12.031,8.056-19.636,8.207s-9.547-3.343-16.687,0-9.266,13.595-15.361,14.122-16.664-4.447-25.668-1.177-14.14.224-22.71,3.93-8.506,6.1-18.98,9.834-12.884,5.111-15.794,8.33" transform="translate(11943.333 -1894.172)" fill="none" stroke="aqua" stroke-linecap="round" stroke-width="2"/>
</svg>
