<svg id="Grupo_23676" data-name="Grupo 23676" xmlns="http://www.w3.org/2000/svg" width="70" height="70" viewBox="0 0 70 70">
  <g id="Grupo_23673" data-name="Grupo 23673">
    <g id="Grupo_23672" data-name="Grupo 23672">
      <g id="Grupo_23671" data-name="Grupo 23671">
        <line id="Line_4" data-name="Line 4" x2="8.375" transform="translate(41.677 62.5)" fill="none" stroke="#19a301" stroke-linecap="round" stroke-linejoin="round" stroke-width="2.4"/>
        <line id="Line_5" data-name="Line 5" x2="0.679" transform="translate(58.405 62.5)" fill="none" stroke="#19a301" stroke-linecap="round" stroke-linejoin="round" stroke-width="2.4"/>
        <line id="Line_6" data-name="Line 6" x2="8.298" transform="translate(10.916 62.5)" fill="none" stroke="#19a301" stroke-linecap="round" stroke-linejoin="round" stroke-width="2.4"/>
        <line id="Line_7" data-name="Line 7" x2="14.628" transform="translate(18.674 62.5)" fill="none" stroke="#82d400" stroke-linecap="round" stroke-linejoin="round" stroke-width="2.4"/>
      </g>
      <rect id="Rect치ngulo_7298" data-name="Rect치ngulo 7298" width="70" height="15" transform="translate(0 55)" fill="none"/>
    </g>
  </g>
  <rect id="Rect치ngulo_7299" data-name="Rect치ngulo 7299" width="70" height="70" fill="none"/>
  <g id="Grupo_23675" data-name="Grupo 23675">
    <g id="Grupo_23674" data-name="Grupo 23674">
      <circle id="Ellipse_2" data-name="Ellipse 2" cx="5.795" cy="5.795" r="5.795" transform="translate(16.688 15.46)" fill="none" stroke="#19a301" stroke-linecap="round" stroke-linejoin="round" stroke-width="1.5"/>
    </g>
    <path id="Trazado_29182" data-name="Trazado 29182" d="M26.445,13.545l1.288-2.535,5.5,5.19-1.29,4.53,9.55,10.2,2.91-3.56,6.16.32,2.75,9.07-4.37,8.26,1.13,4.05-1.78,5.02h-2.43L44.4,47.12l-7.44,6.97L27.4,51.17l-6.64,4.37-3.88-3.56,3.56-9.23L24,41.29l-2.91-4.53,1.78-2.75,3.08.81-.129-5.393" fill="none" stroke="#000" stroke-linecap="round" stroke-linejoin="round" stroke-width="1.5"/>
  </g>
</svg>
