<svg id="Grupo_23515" data-name="Grupo 23515" xmlns="http://www.w3.org/2000/svg" width="70" height="70" viewBox="0 0 70 70">
  <g id="Grupo_23513" data-name="Grupo 23513">
    <g id="Grupo_23512" data-name="Grupo 23512">
      <g id="Grupo_23511" data-name="Grupo 23511">
        <line id="Line_4" data-name="Line 4" x2="8.375" transform="translate(41.677 62.5)" fill="none" stroke="#19a301" stroke-linecap="round" stroke-linejoin="round" stroke-width="2.4"/>
        <line id="Line_5" data-name="Line 5" x2="0.679" transform="translate(58.405 62.5)" fill="none" stroke="#19a301" stroke-linecap="round" stroke-linejoin="round" stroke-width="2.4"/>
        <line id="Line_6" data-name="Line 6" x2="8.298" transform="translate(10.916 62.5)" fill="none" stroke="#19a301" stroke-linecap="round" stroke-linejoin="round" stroke-width="2.4"/>
        <line id="Line_7" data-name="Line 7" x2="14.628" transform="translate(18.674 62.5)" fill="none" stroke="#82d400" stroke-linecap="round" stroke-linejoin="round" stroke-width="2.4"/>
      </g>
      <rect id="Rect치ngulo_7244" data-name="Rect치ngulo 7244" width="70" height="15" transform="translate(0 55)" fill="none"/>
    </g>
  </g>
  <g id="Grupo_23514" data-name="Grupo 23514">
    <path id="Trazado_29070" data-name="Trazado 29070" d="M18.538,26.93l.75,4.69,8.07,2.44h3.48l2.53-7.23,2.91,1.79-2.07,3.28.76,1.69,4.5-4.41,2.35.19,6.29-5.35-1.22-5.63,1.22-.47,1.59,2.44,1.69-.85,1.97-8.16L59.748,9l4.03,1.13-3.1,5.44-1.31,5.16-4.41,3.01.66,8.35,2.34-.09-1.03,5.91-1.88-.66-5.82,5.07-2.06-2.06-2.63,3.38,1.03,2.06-1.5,2.25-1.22-.65-.47,4.97-1.13,1.32-3.09-1.04-3.29-3h-2.91l-.19-1.6,1.79-1.87-.75-3.66-1.32-1.22h-.47l.1-1.41-3.48-3.1-4.03,3.66-4.88-2.25L17.218,32l-6.66.56.52-2.263" fill="none" stroke="#000" stroke-linecap="round" stroke-linejoin="round" stroke-width="1.288"/>
    <circle id="Ellipse_2" data-name="Ellipse 2" cx="5.795" cy="5.795" r="5.795" transform="translate(6.222 15.29)" fill="none" stroke="#19a301" stroke-linecap="round" stroke-linejoin="round" stroke-width="1.5"/>
  </g>
  <rect id="Rect치ngulo_7245" data-name="Rect치ngulo 7245" width="70" height="70" transform="translate(0 0)" fill="none"/>
</svg>
