<svg id="Grupo_23657" data-name="Grupo 23657" xmlns="http://www.w3.org/2000/svg" width="70" height="70" viewBox="0 0 70 70">
  <g id="Grupo_23654" data-name="Grupo 23654">
    <g id="Grupo_23653" data-name="Grupo 23653">
      <g id="Grupo_23652" data-name="Grupo 23652">
        <line id="Line_4" data-name="Line 4" x2="8.375" transform="translate(41.677 62.5)" fill="none" stroke="#19a301" stroke-linecap="round" stroke-linejoin="round" stroke-width="2.4"/>
        <line id="Line_5" data-name="Line 5" x2="0.679" transform="translate(58.405 62.5)" fill="none" stroke="#19a301" stroke-linecap="round" stroke-linejoin="round" stroke-width="2.4"/>
        <line id="Line_6" data-name="Line 6" x2="8.298" transform="translate(10.916 62.5)" fill="none" stroke="#19a301" stroke-linecap="round" stroke-linejoin="round" stroke-width="2.4"/>
        <line id="Line_7" data-name="Line 7" x2="14.628" transform="translate(18.674 62.5)" fill="none" stroke="#82d400" stroke-linecap="round" stroke-linejoin="round" stroke-width="2.4"/>
      </g>
      <rect id="Rect치ngulo_7292" data-name="Rect치ngulo 7292" width="70" height="15" transform="translate(0 55)" fill="none"/>
    </g>
  </g>
  <rect id="Rect치ngulo_7293" data-name="Rect치ngulo 7293" width="70" height="70" fill="none"/>
  <g id="Grupo_23656" data-name="Grupo 23656">
    <g id="Grupo_23655" data-name="Grupo 23655">
      <circle id="Ellipse_2" data-name="Ellipse 2" cx="5.795" cy="5.795" r="5.795" transform="translate(14.914 13.716)" fill="none" stroke="#19a301" stroke-linecap="round" stroke-linejoin="round" stroke-width="1.5"/>
    </g>
    <path id="Trazado_29180" data-name="Trazado 29180" d="M29.239,18.921l1.217-1,5.36-7.04,5.35,3.98,6.88-4.44,1.23,2.76-7.8,10.4,8.25,7.49h4.59l.77,7.8-10.4,10.86-4.44,4.74-5.96-3.36-2.6,1.98-1.23-1.53,1.23-5.2-5.81,1.38-4.9-4.59,2.91-9.02-7.8-5.2,1.264-1.548" fill="none" stroke="#000" stroke-linecap="round" stroke-linejoin="round" stroke-width="1.5"/>
  </g>
</svg>
