<svg id="Grupo_23685" data-name="Grupo 23685" xmlns="http://www.w3.org/2000/svg" width="70" height="70" viewBox="0 0 70 70">
  <g id="Grupo_23681" data-name="Grupo 23681">
    <path id="Trazado_29183" data-name="Trazado 29183" d="M27.151,19.691,39.2,22.6,42.922,17.1h5.656L51.163,15l5.171,5.333L55.2,26.473H50.84l.646,4.686-3.878.97-2.262-.97-5.009,7.757,3.394,3.232L29.671,50.39l-6.625,3.717-7.6-6.625,6.141-6.787L26.6,35.684,22.652,32" fill="none" stroke="#000" stroke-linecap="round" stroke-linejoin="round" stroke-width="1.5"/>
    <circle id="Ellipse_2" data-name="Ellipse 2" cx="5.795" cy="5.795" r="5.795" transform="translate(13.666 18.162)" fill="none" stroke="#19a301" stroke-linecap="round" stroke-linejoin="round" stroke-width="1.5"/>
  </g>
  <g id="Grupo_23684" data-name="Grupo 23684">
    <g id="Grupo_23683" data-name="Grupo 23683">
      <g id="Grupo_23682" data-name="Grupo 23682">
        <line id="Line_4" data-name="Line 4" x2="8.375" transform="translate(41.677 62.5)" fill="none" stroke="#19a301" stroke-linecap="round" stroke-linejoin="round" stroke-width="2.4"/>
        <line id="Line_5" data-name="Line 5" x2="0.679" transform="translate(58.405 62.5)" fill="none" stroke="#19a301" stroke-linecap="round" stroke-linejoin="round" stroke-width="2.4"/>
        <line id="Line_6" data-name="Line 6" x2="8.298" transform="translate(10.916 62.5)" fill="none" stroke="#19a301" stroke-linecap="round" stroke-linejoin="round" stroke-width="2.4"/>
        <line id="Line_7" data-name="Line 7" x2="14.628" transform="translate(18.674 62.5)" fill="none" stroke="#82d400" stroke-linecap="round" stroke-linejoin="round" stroke-width="2.4"/>
      </g>
      <rect id="Rect치ngulo_7300" data-name="Rect치ngulo 7300" width="70" height="15" transform="translate(0 55)" fill="none"/>
    </g>
  </g>
  <rect id="Rect치ngulo_7301" data-name="Rect치ngulo 7301" width="70" height="70" fill="none"/>
</svg>
