<svg xmlns="http://www.w3.org/2000/svg" width="293.102" height="118.002" viewBox="0 0 293.102 118.002">
  <path id="Trazado_29381" data-name="Trazado 29381" d="M-18941.145,3122.406s5.455-3.8,9.811-6.175,6.063-3.273,9.2-3.516,10.389-1.665,14.7-4.627,8.193-7.45,10.2-7.648,3.436-1.166,5.641-2.393,3.959-.829,7.59-1.556,11.754,2.5,14.609,1.556,9.256-4.992,10.967-5.486,9.414-.844,10.91-.844,10.334,3.04,12.9,3.627,7.08,3.083,9.605,3.385,8.242-.642,10.047-2.238,5.006-10.292,5.49-12.486,4.67-6.368,7.635-9.079,4.34-4.308,8.738-4.558,6.977-2.421,9.17-.464,3.055,4.193,5.7,4.3a6.82,6.82,0,0,1,5.607,3.4c.66,1.491,6.83,1.178,11.441.631s8.811.522,12.314-3.306,6.049-8.341,8.52-9.039,10.66-3.6,11.166-4.181,5.23-5.24,7.457-7.215,3.859-1.093,7.02-.816,5.871-3.747,6.965-5.334.578-3.565-2.594-5.665-5.377-3.633-2.824-6.387,5.451-4.356,5.418-7.108-.627-6.383,4.664-10.122,5.391-5.689,10.633-5.478a178.224,178.224,0,0,0,17.9,0c5.779-.389,6.395-.75,12.662-2.092s6.316-5.657,11.988-5.273" transform="translate(18942.188 -3005.447)" fill="none" stroke="#2cfffe" stroke-linecap="round" stroke-width="1.5"/>
</svg>
