<?xml version="1.0" encoding="utf-8"?>
<!-- Generator: Adobe Illustrator 24.0.2, SVG Export Plug-In . SVG Version: 6.00 Build 0)  -->
<svg version="1.1" xmlns="http://www.w3.org/2000/svg" xmlns:xlink="http://www.w3.org/1999/xlink" x="0px" y="0px"
	 viewBox="0 0 70 70" style="enable-background:new 0 0 70 70;" xml:space="preserve">
<style type="text/css">
	.st0{fill:none;stroke:#19A301;stroke-width:2.4;stroke-linecap:round;stroke-linejoin:round;}
	.st1{fill:none;stroke:#82D400;stroke-width:2.4;stroke-linecap:round;stroke-linejoin:round;}
	.st2{fill:none;}
	.st3{fill:#999999;}
	.st4{fill:none;stroke:#19A301;stroke-width:1.5;stroke-linecap:round;stroke-linejoin:round;}
	.st5{fill:none;stroke:#000000;stroke-width:1.5;stroke-linecap:round;stroke-linejoin:round;stroke-miterlimit:10;}
	.st6{fill:none;stroke:#000000;stroke-width:1.394;stroke-linecap:round;stroke-linejoin:round;stroke-miterlimit:10;}
	.st7{fill:none;stroke:#000000;stroke-width:0.224;stroke-linecap:round;stroke-linejoin:round;stroke-miterlimit:10;}
	.st8{fill:none;stroke:#000000;stroke-width:1.2878;stroke-linecap:round;stroke-linejoin:round;stroke-miterlimit:10;}
	.st9{fill:none;stroke:#000000;stroke-width:1.6609;stroke-linecap:round;stroke-linejoin:round;stroke-miterlimit:10;}
	.st10{fill:none;stroke:#00A800;stroke-width:1.6707;stroke-miterlimit:10;}
	.st11{fill:none;stroke:#00A800;stroke-width:1.5;stroke-miterlimit:10;}
	.st12{fill:none;stroke:#FFFFFF;stroke-width:1.5;stroke-linecap:round;stroke-linejoin:round;stroke-miterlimit:10;}
	.st13{fill:none;stroke:#19A301;stroke-width:1.5;stroke-linecap:round;stroke-linejoin:round;stroke-miterlimit:10;}
	.st14{fill:none;stroke:#000000;stroke-width:1.2721;stroke-linecap:round;stroke-linejoin:round;stroke-miterlimit:10;}
	.st15{fill:none;stroke:#000000;stroke-width:1.3075;stroke-linecap:round;stroke-linejoin:round;stroke-miterlimit:10;}
	.st16{fill:none;stroke:#19A301;stroke-width:1.3145;stroke-linecap:round;stroke-linejoin:round;}
	.st17{fill:none;stroke:#000000;stroke-width:1.5545;stroke-linecap:round;stroke-linejoin:round;stroke-miterlimit:10;}
	.st18{fill:none;stroke:#FFFFFF;stroke-width:1.5944;stroke-linecap:round;stroke-linejoin:round;stroke-miterlimit:10;}
	.st19{fill:none;stroke:#FFFFFF;stroke-width:1.4947;stroke-linecap:round;stroke-linejoin:round;stroke-miterlimit:10;}
	.st20{fill:none;stroke:#FFFFFF;stroke-width:1.6588;stroke-linecap:round;stroke-linejoin:round;stroke-miterlimit:10;}
	.st21{fill:none;stroke:#000000;stroke-width:1.5763;stroke-linecap:round;stroke-linejoin:round;stroke-miterlimit:10;}
	.st22{fill:none;stroke:#000000;stroke-width:1.6588;stroke-linecap:round;stroke-linejoin:round;stroke-miterlimit:10;}
	.st23{stroke:#000000;stroke-width:0.3431;stroke-miterlimit:10;}
	.st24{stroke:#000000;stroke-width:0.4369;stroke-miterlimit:10;}
	.st25{stroke:#000000;stroke-width:0.4183;stroke-miterlimit:10;}
</style>
<symbol  id="OCENSA-EXT" viewBox="-35 -7.5 70 15">
	<g>
		<line id="Line_4_2_" class="st0" x1="6.68" y1="0" x2="15.05" y2="0"/>
		<line id="Line_5_2_" class="st0" x1="23.41" y1="0" x2="24.08" y2="0"/>
		<line id="Line_6_2_" class="st0" x1="-24.08" y1="0" x2="-15.79" y2="0"/>
		<line id="Line_7_2_" class="st1" x1="-16.33" y1="0" x2="-1.7" y2="0"/>
	</g>
	<rect x="-35" y="-7.5" class="st2" width="70" height="15"/>
</symbol>
<g id="Capa_2">
</g>
<g id="Capa_1">
	<g>
		
			<use xlink:href="#OCENSA-EXT"  width="70" height="15" x="-35" y="-7.5" transform="matrix(1 0 0 -1 35 62.5)" style="overflow:visible;"/>
		<rect class="st2" width="70" height="70"/>
		<g>
			<circle id="Ellipse_2_12_" class="st4" cx="54.25" cy="34.64" r="5.8"/>
			<path class="st5" d="M53.27,26.16c-2.29-7.27-8.69-12.94-17.54-12.94c-11.17,0-12.44,6.51-12.44,6.51
				c-2.05,0.14-6.01,6.72,0.42,10.46s11.81-2.12,11.81-2.12s5.8,2.55,5.8,8.27s-6.23,9.48-8.21,9.63"/>
			<path class="st5" d="M48.39,50.34c0.29-0.37,2.22-3.13,3.77-7.33"/>
			<path class="st5" d="M25.41,42.28c0,0,7.99-3.54,7.07-11.81"/>
			<path class="st5" d="M41.82,45.81c0,0-10.11,2.9-17.82-4.38c0,0-3.25-3.54-3.82-6.51l-0.07-4.53c0,0-1.94,1.75-3.39-1.1
				c0,0,0,3.57-3.42,1.71c0,0,1.03,2.7-2.28,2.81c0,0,1.75,2.28-1.06,4.22c0,0,7.22,3.19,6.19,12.04"/>
			<circle cx="23.74" cy="24.1" r="1.5"/>
			<path class="st5" d="M40.98,20.26l2.48-1.43c0.86-0.5,1.98-0.2,2.47,0.66l0,0c0.5,0.86,0.2,1.98-0.66,2.47l-2.4,1.39"/>
			<path class="st5" d="M26.27,20.36c0,0,1.68,2.82,4.86,0.26"/>
			<g>
				<path class="st5" d="M11.72,54.2c0,0,2.2-0.69,3.3-2.25c0.46-0.66,1.06-1.35,1.9-1.79c3.83-2.06,4.97,4.01,8.4,3.85"/>
				<path class="st5" d="M25.32,54.01c0,0,2.18-0.24,3.16-2.06c0.62-1.14,1.99-2.48,3.96-2.04c1.78,0.39,2.42,1.57,3.51,2.86
					c0.69,0.81,1.75,1.34,2.83,1.24"/>
				<path class="st5" d="M38.97,54.01c0,0,2.18-0.24,3.16-2.06c0.52-0.97,1.8-2.19,3.42-2.16c3.22,0.06,3.61,4.37,6.87,4.21"/>
			</g>
		</g>
	</g>
</g>
</svg>
