<svg xmlns="http://www.w3.org/2000/svg" width="70" height="70" viewBox="0 0 70 70">
  <g id="Group_22453" data-name="Group 22453" transform="translate(270 89.472)">
    <g id="Group_22454" data-name="Group 22454">
      <g id="Group_22453-2" data-name="Group 22453">
        <line id="Line_4" data-name="Line 4" x2="8.375" transform="translate(-228.323 -26.971)" fill="none" stroke="#19a301" stroke-linecap="round" stroke-linejoin="round" stroke-width="2.4"/>
        <line id="Line_5" data-name="Line 5" x2="0.679" transform="translate(-211.595 -26.971)" fill="none" stroke="#19a301" stroke-linecap="round" stroke-linejoin="round" stroke-width="2.4"/>
        <line id="Line_6" data-name="Line 6" x2="8.298" transform="translate(-259.084 -26.971)" fill="none" stroke="#19a301" stroke-linecap="round" stroke-linejoin="round" stroke-width="2.4"/>
        <line id="Line_7" data-name="Line 7" x2="14.628" transform="translate(-251.326 -26.971)" fill="none" stroke="#82d400" stroke-linecap="round" stroke-linejoin="round" stroke-width="2.4"/>
      </g>
      <rect id="Rectangle_6918" data-name="Rectangle 6918" width="70" height="15" transform="translate(-270 -34.471)" fill="none"/>
    </g>
    <rect id="Rectangle_6919" data-name="Rectangle 6919" width="70" height="70" transform="translate(-270 -89.471)" fill="none"/>
    <circle id="Ellipse_2" data-name="Ellipse 2" cx="5.795" cy="5.795" r="5.795" transform="translate(-264.986 -70.628)" fill="none" stroke="#19a301" stroke-linecap="round" stroke-linejoin="round" stroke-width="1.5"/>
    <rect id="Rectángulo_2137" data-name="Rectángulo 2137" width="17.581" height="20.911" transform="translate(-231.142 -56.289)" fill="none" stroke="#000" stroke-linecap="round" stroke-linejoin="round" stroke-width="1.5"/>
    <path id="Trazado_5455" data-name="Trazado 5455" d="M-247.542-77.765h-11.1v3.994" fill="none" stroke="#000" stroke-linecap="round" stroke-linejoin="round" stroke-width="1.5"/>
    <path id="Trazado_5456" data-name="Trazado 5456" d="M-258.643-55.655v20.278h11.1V-77.345" fill="none" stroke="#000" stroke-linecap="round" stroke-linejoin="round" stroke-width="1.5"/>
    <path id="Path_28575" data-name="Path 28575" d="M-247.556-56.288h5.983a4.021,4.021,0,0,1,3.857,4.158v5.984A4,4,0,0,0-233.874-42h2.594" fill="none" stroke="#000" stroke-linecap="round" stroke-linejoin="round" stroke-width="1.5"/>
    <path id="Trazado_5459" data-name="Trazado 5459" d="M-247.236-73.195h.684c2.832,0,5.125,1.857,5.125,4.15v33.673" fill="none" stroke="#000" stroke-linecap="round" stroke-linejoin="round" stroke-width="1.5"/>
    <line id="Línea_708" data-name="Línea 708" x1="55.426" transform="translate(-263.426 -35.377)" fill="none" stroke="#000" stroke-linecap="round" stroke-linejoin="round" stroke-width="1.659"/>
    <path id="Trazado_5460" data-name="Trazado 5460" d="M-222.16-50.919c-.664,1.67-1.348,3.325-2.028,4.99-.545,1.328-1.2,2.775-.239,4.083a2.866,2.866,0,0,0,2.267,1.193,2.935,2.935,0,0,0,2.667-1.909c.482-1.2-.1-2.553-.618-3.621C-220.733-47.475-222.206-50.805-222.16-50.919Z" fill="none" stroke="#000" stroke-linecap="round" stroke-linejoin="round" stroke-width="1.5"/>
    <rect id="Rectangle_6920" data-name="Rectangle 6920" width="26.075" height="12.351" transform="translate(-235.389 -75.095)" fill="none" stroke="#000" stroke-linecap="round" stroke-linejoin="round" stroke-width="1.5"/>
    <line id="Line_3082" data-name="Line 3082" y2="6.457" transform="translate(-222.115 -62.744)" fill="none" stroke="#000" stroke-linecap="round" stroke-linejoin="round" stroke-width="1.5"/>
    <g id="Group_22455" data-name="Group 22455">
      <path id="Path_28576" data-name="Path 28576" d="M-231.624-64.82v-7.7h2.511a3.054,3.054,0,0,1,1.888.52,1.844,1.844,0,0,1,.682,1.563,1.416,1.416,0,0,1-.306.891,1.928,1.928,0,0,1-.815.6,1.8,1.8,0,0,1,1.2.655,2.012,2.012,0,0,1,.441,1.3,1.961,1.961,0,0,1-.687,1.616,2.866,2.866,0,0,1-1.861.557Zm1.042-4.426h1.686a1.384,1.384,0,0,0,.947-.319,1.126,1.126,0,0,0,.365-.891,1.113,1.113,0,0,0-.394-.933,1.807,1.807,0,0,0-1.135-.31h-1.469Zm0,.815v2.8h2.009a1.605,1.605,0,0,0,1.108-.352,1.266,1.266,0,0,0,.393-1,1.369,1.369,0,0,0-.4-1.031,1.572,1.572,0,0,0-1.083-.418h-2.025Z" stroke="#000" stroke-miterlimit="10" stroke-width="0.437"/>
      <path id="Path_28577" data-name="Path 28577" d="M-219.946-68.389h-3.163v2.755h3.7v.814h-4.743v-7.7h4.685v.819h-3.644v2.491h3.163Z" stroke="#000" stroke-miterlimit="10" stroke-width="0.437"/>
      <path id="Path_28578" data-name="Path 28578" d="M-216.36-65.634h3.754v.814h-4.8v-7.7h1.042Z" stroke="#000" stroke-miterlimit="10" stroke-width="0.437"/>
    </g>
  </g>
</svg>
