<svg id="Group_24557" data-name="Group 24557" xmlns="http://www.w3.org/2000/svg" width="70" height="70" viewBox="0 0 70 70">
  <g id="Group_24559" data-name="Group 24559">
    <g id="Group_24558" data-name="Group 24558">
      <g id="Group_24557-2" data-name="Group 24557">
        <line id="Line_4" data-name="Line 4" x2="8.375" transform="translate(41.677 62.5)" fill="none" stroke="#19a301" stroke-linecap="round" stroke-linejoin="round" stroke-width="2.4"/>
        <line id="Line_5" data-name="Line 5" x2="0.679" transform="translate(58.405 62.5)" fill="none" stroke="#19a301" stroke-linecap="round" stroke-linejoin="round" stroke-width="2.4"/>
        <line id="Line_6" data-name="Line 6" x2="8.298" transform="translate(10.916 62.5)" fill="none" stroke="#19a301" stroke-linecap="round" stroke-linejoin="round" stroke-width="2.4"/>
        <line id="Line_7" data-name="Line 7" x2="14.628" transform="translate(18.674 62.5)" fill="none" stroke="#82d400" stroke-linecap="round" stroke-linejoin="round" stroke-width="2.4"/>
      </g>
      <rect id="Rectangle_7863" data-name="Rectangle 7863" width="70" height="15" transform="translate(0 55)" fill="none"/>
    </g>
  </g>
  <g id="Group_24561" data-name="Group 24561">
    <circle id="Ellipse_2" data-name="Ellipse 2" cx="5.795" cy="5.795" r="5.795" transform="translate(4.377 18.519)" fill="none" stroke="#19a301" stroke-linecap="round" stroke-linejoin="round" stroke-width="1.5"/>
    <line id="Línea_2918" data-name="Línea 2918" x2="58.932" transform="translate(6.691 54.011)" fill="none" stroke="#000" stroke-linecap="round" stroke-linejoin="round" stroke-width="1.5"/>
    <path id="Path_29431" data-name="Path 29431" d="M10.789,15.441a3.455,3.455,0,0,1,3.451-3.452h9.551a3.455,3.455,0,0,1,3.452,3.452V37.466" fill="none" stroke="#000" stroke-linecap="round" stroke-linejoin="round" stroke-width="1.5"/>
    <line id="Línea_2919" data-name="Línea 2919" y1="20.911" transform="translate(10.79 33.094)" fill="none" stroke="#000" stroke-linecap="round" stroke-linejoin="round" stroke-width="1.5"/>
    <path id="Trazado_12588" data-name="Trazado 12588" d="M44.757,53.921V40.555a3.323,3.323,0,0,1,3.323-3.323h10.1A3.323,3.323,0,0,1,61.5,40.555v13.45" fill="none" stroke="#000" stroke-linecap="round" stroke-linejoin="round" stroke-width="1.5"/>
    <path id="Trazado_12589" data-name="Trazado 12589" d="M38.4,53.921V31.366a3.323,3.323,0,0,1,3.323-3.323h8a3.323,3.323,0,0,1,3.323,3.323v5.7" fill="none" stroke="#000" stroke-linecap="round" stroke-linejoin="round" stroke-width="1.5"/>
    <line id="Line_3943" data-name="Line 3943" x2="16.744" transform="translate(44.757 46.042)" fill="none" stroke="#000" stroke-linecap="round" stroke-linejoin="round" stroke-width="1.5"/>
    <path id="Path_29432" data-name="Path 29432" d="M53.045,46.042" fill="none" stroke="#000" stroke-linecap="round" stroke-linejoin="round" stroke-width="1.5"/>
    <line id="Line_3944" data-name="Line 3944" x1="6.226" transform="translate(21.012 23.56)" fill="none" stroke="#000" stroke-linecap="round" stroke-linejoin="round" stroke-width="1.5"/>
    <line id="Line_3945" data-name="Line 3945" x1="4.011" transform="translate(23.227 27.968)" fill="none" stroke="#000" stroke-linecap="round" stroke-linejoin="round" stroke-width="1.5"/>
    <line id="Line_3946" data-name="Line 3946" x2="3.813" transform="translate(45.721 50.834)" fill="none" stroke="#000" stroke-linecap="round" stroke-linejoin="round" stroke-width="1.5"/>
    <line id="Line_3947" data-name="Line 3947" x2="27.542" transform="translate(10.881 37.466)" fill="none" stroke="#000" stroke-linecap="round" stroke-linejoin="round" stroke-width="1.5"/>
    <rect id="Rectangle_7864" data-name="Rectangle 7864" width="26.075" height="12.351" transform="translate(32.941 8.958)" fill="none" stroke="#000" stroke-linecap="round" stroke-linejoin="round" stroke-width="1.5"/>
    <line id="Line_3948" data-name="Line 3948" y2="6.457" transform="translate(46.215 21.309)" fill="none" stroke="#000" stroke-linecap="round" stroke-linejoin="round" stroke-width="1.5"/>
    <g id="Group_24560" data-name="Group 24560">
      <path id="Path_29433" data-name="Path 29433" d="M40.006,16.863a.827.827,0,0,0-.322-.7,4.285,4.285,0,0,0-1.16-.516,8.1,8.1,0,0,1-1.327-.534,2.168,2.168,0,0,1-1.332-1.939,1.882,1.882,0,0,1,.358-1.13,2.324,2.324,0,0,1,1.025-.776,3.866,3.866,0,0,1,1.5-.28,3.506,3.506,0,0,1,1.493.3,2.381,2.381,0,0,1,1.018.856,2.248,2.248,0,0,1,.362,1.257H40.012a1.054,1.054,0,0,0-.339-.835,1.387,1.387,0,0,0-.95-.3,1.485,1.485,0,0,0-.919.25.789.789,0,0,0-.327.658.756.756,0,0,0,.383.639,4.352,4.352,0,0,0,1.131.483,4.892,4.892,0,0,1,2,1.026,2.043,2.043,0,0,1,.628,1.526,1.882,1.882,0,0,1-.768,1.592,3.361,3.361,0,0,1-2.068.577,4,4,0,0,1-1.643-.33,2.6,2.6,0,0,1-1.131-.9,2.321,2.321,0,0,1-.389-1.332H37.24q0,1.295,1.547,1.3a1.5,1.5,0,0,0,.9-.234A.76.76,0,0,0,40.006,16.863Z"/>
      <path id="Path_29434" data-name="Path 29434" d="M49.137,15.182a4.723,4.723,0,0,1-.408,2.025,3.078,3.078,0,0,1-1.168,1.343,3.455,3.455,0,0,1-3.478.005A3.109,3.109,0,0,1,42.9,17.221a4.6,4.6,0,0,1-.424-2v-.387a4.7,4.7,0,0,1,.416-2.032,3.1,3.1,0,0,1,1.177-1.349,3.447,3.447,0,0,1,3.475,0,3.109,3.109,0,0,1,1.176,1.349,4.672,4.672,0,0,1,.416,2.027ZM47.5,14.828a3.293,3.293,0,0,0-.44-1.87,1.556,1.556,0,0,0-2.508-.008A3.248,3.248,0,0,0,44.11,14.8v.381a3.342,3.342,0,0,0,.44,1.859,1.434,1.434,0,0,0,1.268.66,1.418,1.418,0,0,0,1.246-.637,3.3,3.3,0,0,0,.44-1.855Z"/>
      <path id="Path_29435" data-name="Path 29435" d="M53.2,16.052H51.92v2.863H50.308V11.1h2.906a3.291,3.291,0,0,1,2.138.617,2.134,2.134,0,0,1,.752,1.746,2.4,2.4,0,0,1-.347,1.335,2.363,2.363,0,0,1-1.05.851l1.692,3.2v.075H54.67ZM51.92,14.747h1.3a1.33,1.33,0,0,0,.94-.309,1.1,1.1,0,0,0,.333-.851,1.182,1.182,0,0,0-.314-.87,1.3,1.3,0,0,0-.964-.317H51.92Z"/>
    </g>
  </g>
  <rect id="Rectangle_7865" data-name="Rectangle 7865" width="70" height="70" fill="none"/>
</svg>
