<svg xmlns="http://www.w3.org/2000/svg" width="70" height="70" viewBox="0 0 70 70">
  <g id="Group_22456" data-name="Group 22456" transform="translate(180 89.472)">
    <g id="Group_22457" data-name="Group 22457">
      <g id="Group_22456-2" data-name="Group 22456">
        <line id="Line_4" data-name="Line 4" x2="8.375" transform="translate(-138.323 -26.971)" fill="none" stroke="#19a301" stroke-linecap="round" stroke-linejoin="round" stroke-width="2.4"/>
        <line id="Line_5" data-name="Line 5" x2="0.679" transform="translate(-121.595 -26.971)" fill="none" stroke="#19a301" stroke-linecap="round" stroke-linejoin="round" stroke-width="2.4"/>
        <line id="Line_6" data-name="Line 6" x2="8.298" transform="translate(-169.084 -26.971)" fill="none" stroke="#19a301" stroke-linecap="round" stroke-linejoin="round" stroke-width="2.4"/>
        <line id="Line_7" data-name="Line 7" x2="14.628" transform="translate(-161.326 -26.971)" fill="none" stroke="#82d400" stroke-linecap="round" stroke-linejoin="round" stroke-width="2.4"/>
      </g>
      <rect id="Rectangle_6921" data-name="Rectangle 6921" width="70" height="15" transform="translate(-180 -34.471)" fill="none"/>
    </g>
    <rect id="Rectangle_6922" data-name="Rectangle 6922" width="70" height="70" transform="translate(-180 -89.471)" fill="none"/>
    <circle id="Ellipse_2" data-name="Ellipse 2" cx="5.795" cy="5.795" r="5.795" transform="translate(-174.986 -70.628)" fill="none" stroke="#19a301" stroke-linecap="round" stroke-linejoin="round" stroke-width="1.5"/>
    <rect id="Rectángulo_2137" data-name="Rectángulo 2137" width="17.581" height="20.911" transform="translate(-141.142 -56.289)" fill="none" stroke="#000" stroke-linecap="round" stroke-linejoin="round" stroke-width="1.5"/>
    <path id="Trazado_5455" data-name="Trazado 5455" d="M-157.542-77.765h-11.1v3.994" fill="none" stroke="#000" stroke-linecap="round" stroke-linejoin="round" stroke-width="1.5"/>
    <path id="Trazado_5456" data-name="Trazado 5456" d="M-168.643-55.655v20.278h11.1V-77.345" fill="none" stroke="#000" stroke-linecap="round" stroke-linejoin="round" stroke-width="1.5"/>
    <path id="Path_28579" data-name="Path 28579" d="M-157.556-56.288h5.983a4.021,4.021,0,0,1,3.857,4.158v5.984A4,4,0,0,0-143.874-42h2.594" fill="none" stroke="#000" stroke-linecap="round" stroke-linejoin="round" stroke-width="1.5"/>
    <path id="Trazado_5459" data-name="Trazado 5459" d="M-157.236-73.195h.684c2.832,0,5.125,1.857,5.125,4.15v33.673" fill="none" stroke="#000" stroke-linecap="round" stroke-linejoin="round" stroke-width="1.5"/>
    <line id="Línea_708" data-name="Línea 708" x1="55.426" transform="translate(-173.426 -35.377)" fill="none" stroke="#000" stroke-linecap="round" stroke-linejoin="round" stroke-width="1.659"/>
    <path id="Trazado_5460" data-name="Trazado 5460" d="M-132.16-50.919c-.664,1.67-1.348,3.325-2.028,4.99-.545,1.328-1.2,2.775-.239,4.083a2.866,2.866,0,0,0,2.267,1.193,2.935,2.935,0,0,0,2.667-1.909c.482-1.2-.1-2.553-.618-3.621C-130.733-47.475-132.206-50.805-132.16-50.919Z" fill="none" stroke="#000" stroke-linecap="round" stroke-linejoin="round" stroke-width="1.5"/>
    <rect id="Rectangle_6923" data-name="Rectangle 6923" width="26.075" height="12.351" transform="translate(-145.389 -75.095)" fill="none" stroke="#000" stroke-linecap="round" stroke-linejoin="round" stroke-width="1.5"/>
    <line id="Line_3083" data-name="Line 3083" y2="6.457" transform="translate(-132.115 -62.744)" fill="none" stroke="#000" stroke-linecap="round" stroke-linejoin="round" stroke-width="1.5"/>
    <g id="Group_22458" data-name="Group 22458">
      <path id="Path_28580" data-name="Path 28580" d="M-137.677-66.318h.031l2.4-6.112h1.266v7.522h-1.017v-5.636l-.031-.005-2.279,5.641h-.708l-2.345-5.827-.031,0v5.822h-1.018V-72.43h1.338Z" stroke="#000" stroke-miterlimit="10" stroke-width="0.437"/>
      <path id="Path_28581" data-name="Path 28581" d="M-130.6-64.908h-1.023V-72.43h1.023Z" stroke="#000" stroke-miterlimit="10" stroke-width="0.437"/>
      <path id="Path_28582" data-name="Path 28582" d="M-127.241-68.167v3.259h-1.018v-7.517h2.573a2.859,2.859,0,0,1,1.886.548,1.963,1.963,0,0,1,.651,1.591,1.709,1.709,0,0,1-.3,1.008,2.062,2.062,0,0,1-.881.681,1.544,1.544,0,0,1,.891.654,2.138,2.138,0,0,1,.271,1.118v.708a2.386,2.386,0,0,0,.077.631.949.949,0,0,0,.269.454v.124h-1.049a.843.843,0,0,1-.258-.516,4.266,4.266,0,0,1-.057-.7v-.687a1.358,1.358,0,0,0-.356-.982,1.265,1.265,0,0,0-.956-.371Zm0-.8h1.452a1.893,1.893,0,0,0,1.242-.327,1.251,1.251,0,0,0,.38-1,1.291,1.291,0,0,0-.369-.985,1.631,1.631,0,0,0-1.15-.348h-1.555Z" stroke="#000" stroke-miterlimit="10" stroke-width="0.437"/>
    </g>
  </g>
</svg>
