<svg xmlns="http://www.w3.org/2000/svg" width="70" height="70" viewBox="0 0 70 70">
  <g id="Group_22447" data-name="Group 22447" transform="translate(360)">
    <g id="Group_22448" data-name="Group 22448">
      <g id="Group_22447-2" data-name="Group 22447">
        <line id="Line_4" data-name="Line 4" x2="8.375" transform="translate(-318.323 62.5)" fill="none" stroke="#19a301" stroke-linecap="round" stroke-linejoin="round" stroke-width="2.4"/>
        <line id="Line_5" data-name="Line 5" x2="0.679" transform="translate(-301.595 62.5)" fill="none" stroke="#19a301" stroke-linecap="round" stroke-linejoin="round" stroke-width="2.4"/>
        <line id="Line_6" data-name="Line 6" x2="8.298" transform="translate(-349.084 62.5)" fill="none" stroke="#19a301" stroke-linecap="round" stroke-linejoin="round" stroke-width="2.4"/>
        <line id="Line_7" data-name="Line 7" x2="14.628" transform="translate(-341.326 62.5)" fill="none" stroke="#82d400" stroke-linecap="round" stroke-linejoin="round" stroke-width="2.4"/>
      </g>
      <rect id="Rectangle_6912" data-name="Rectangle 6912" width="70" height="15" transform="translate(-360 55)" fill="none"/>
    </g>
    <rect id="Rectangle_6913" data-name="Rectangle 6913" width="70" height="70" transform="translate(-360)" fill="none"/>
    <circle id="Ellipse_2" data-name="Ellipse 2" cx="5.795" cy="5.795" r="5.795" transform="translate(-354.986 18.843)" fill="none" stroke="#19a301" stroke-linecap="round" stroke-linejoin="round" stroke-width="1.5"/>
    <rect id="Rectángulo_2137" data-name="Rectángulo 2137" width="17.581" height="20.911" transform="translate(-321.142 33.183)" fill="none" stroke="#000" stroke-linecap="round" stroke-linejoin="round" stroke-width="1.5"/>
    <path id="Trazado_5455" data-name="Trazado 5455" d="M-337.542,11.706h-11.1V15.7" fill="none" stroke="#000" stroke-linecap="round" stroke-linejoin="round" stroke-width="1.5"/>
    <path id="Trazado_5456" data-name="Trazado 5456" d="M-348.643,33.816V54.094h11.1V12.126" fill="none" stroke="#000" stroke-linecap="round" stroke-linejoin="round" stroke-width="1.5"/>
    <path id="Path_28567" data-name="Path 28567" d="M-337.556,33.184h5.983a4.021,4.021,0,0,1,3.857,4.158v5.983a4,4,0,0,0,3.842,4.145h2.594" fill="none" stroke="#000" stroke-linecap="round" stroke-linejoin="round" stroke-width="1.5"/>
    <path id="Trazado_5459" data-name="Trazado 5459" d="M-337.236,16.276h.684c2.832,0,5.125,1.858,5.125,4.151V54.1" fill="none" stroke="#000" stroke-linecap="round" stroke-linejoin="round" stroke-width="1.5"/>
    <line id="Línea_708" data-name="Línea 708" x1="55.426" transform="translate(-353.426 54.094)" fill="none" stroke="#000" stroke-linecap="round" stroke-linejoin="round" stroke-width="1.659"/>
    <path id="Trazado_5460" data-name="Trazado 5460" d="M-312.16,38.552c-.664,1.67-1.348,3.325-2.028,4.99-.545,1.328-1.2,2.776-.239,4.083a2.866,2.866,0,0,0,2.267,1.193,2.935,2.935,0,0,0,2.667-1.909c.482-1.2-.1-2.552-.618-3.621C-310.733,42-312.206,38.666-312.16,38.552Z" fill="none" stroke="#000" stroke-linecap="round" stroke-linejoin="round" stroke-width="1.5"/>
    <rect id="Rectangle_6914" data-name="Rectangle 6914" width="26.075" height="12.351" transform="translate(-325.389 14.376)" fill="none" stroke="#000" stroke-linecap="round" stroke-linejoin="round" stroke-width="1.5"/>
    <line id="Line_3080" data-name="Line 3080" y2="6.457" transform="translate(-312.115 26.727)" fill="none" stroke="#000" stroke-linecap="round" stroke-linejoin="round" stroke-width="1.5"/>
    <g id="Group_22449" data-name="Group 22449">
      <path id="Path_28568" data-name="Path 28568" d="M-315.535,21.95l.01.031a2.316,2.316,0,0,1-.761,1.814,2.909,2.909,0,0,1-2.068.73,2.716,2.716,0,0,1-2.128-.926,3.4,3.4,0,0,1-.822-2.348V19.882a3.414,3.414,0,0,1,.822-2.35,2.711,2.711,0,0,1,2.128-.928,2.985,2.985,0,0,1,2.078.695,2.3,2.3,0,0,1,.751,1.843l-.01.031h-1a1.717,1.717,0,0,0-.476-1.279,1.827,1.827,0,0,0-1.343-.471,1.641,1.641,0,0,0-1.39.7,2.859,2.859,0,0,0-.518,1.745v1.38a2.874,2.874,0,0,0,.518,1.756,1.639,1.639,0,0,0,1.39.7,1.838,1.838,0,0,0,1.343-.467,1.735,1.735,0,0,0,.476-1.293Z" stroke="#000" stroke-miterlimit="10" stroke-width="0.437"/>
      <path id="Path_28569" data-name="Path 28569" d="M-307.35,24.652h-1.041v-3.4h-3.739v3.4h-1.041v-7.7h1.041v3.479h3.739V16.953h1.041Z" stroke="#000" stroke-miterlimit="10" stroke-width="0.437"/>
      <path id="Path_28570" data-name="Path 28570" d="M-303.923,24.652h-1.047v-7.7h1.047Z" stroke="#000" stroke-miterlimit="10" stroke-width="0.437"/>
    </g>
  </g>
</svg>
