<svg xmlns="http://www.w3.org/2000/svg" width="70" height="70" viewBox="0 0 70 70">
  <g id="Group_24562" data-name="Group 24562" transform="translate(-2350 187)">
    <g id="Group_24563" data-name="Group 24563">
      <g id="Group_24562-2" data-name="Group 24562">
        <line id="Line_4" data-name="Line 4" x2="8.375" transform="translate(2391.677 -124.5)" fill="none" stroke="#19a301" stroke-linecap="round" stroke-linejoin="round" stroke-width="2.4"/>
        <line id="Line_5" data-name="Line 5" x2="0.679" transform="translate(2408.405 -124.5)" fill="none" stroke="#19a301" stroke-linecap="round" stroke-linejoin="round" stroke-width="2.4"/>
        <line id="Line_6" data-name="Line 6" x2="8.298" transform="translate(2360.916 -124.5)" fill="none" stroke="#19a301" stroke-linecap="round" stroke-linejoin="round" stroke-width="2.4"/>
        <line id="Line_7" data-name="Line 7" x2="14.628" transform="translate(2368.674 -124.5)" fill="none" stroke="#82d400" stroke-linecap="round" stroke-linejoin="round" stroke-width="2.4"/>
      </g>
      <rect id="Rectangle_7866" data-name="Rectangle 7866" width="70" height="15" transform="translate(2350 -132)" fill="none"/>
    </g>
    <g id="Group_24565" data-name="Group 24565">
      <circle id="Ellipse_2" data-name="Ellipse 2" cx="5.795" cy="5.795" r="5.795" transform="translate(2354.377 -168.481)" fill="none" stroke="#19a301" stroke-linecap="round" stroke-linejoin="round" stroke-width="1.5"/>
      <line id="Línea_2918" data-name="Línea 2918" x2="58.932" transform="translate(2356.691 -132.989)" fill="none" stroke="#000" stroke-linecap="round" stroke-linejoin="round" stroke-width="1.5"/>
      <path id="Path_29436" data-name="Path 29436" d="M2360.789-171.559a3.455,3.455,0,0,1,3.451-3.452h9.551a3.455,3.455,0,0,1,3.452,3.452v22.025" fill="none" stroke="#000" stroke-linecap="round" stroke-linejoin="round" stroke-width="1.5"/>
      <line id="Línea_2919" data-name="Línea 2919" y1="20.911" transform="translate(2360.79 -153.906)" fill="none" stroke="#000" stroke-linecap="round" stroke-linejoin="round" stroke-width="1.5"/>
      <path id="Trazado_12588" data-name="Trazado 12588" d="M2394.757-133.079v-13.366a3.323,3.323,0,0,1,3.323-3.323h10.1a3.323,3.323,0,0,1,3.323,3.323v13.45" fill="none" stroke="#000" stroke-linecap="round" stroke-linejoin="round" stroke-width="1.5"/>
      <path id="Trazado_12589" data-name="Trazado 12589" d="M2388.4-133.079v-22.555a3.323,3.323,0,0,1,3.323-3.323h8a3.323,3.323,0,0,1,3.323,3.323v5.7" fill="none" stroke="#000" stroke-linecap="round" stroke-linejoin="round" stroke-width="1.5"/>
      <line id="Line_3949" data-name="Line 3949" x2="16.744" transform="translate(2394.757 -140.958)" fill="none" stroke="#000" stroke-linecap="round" stroke-linejoin="round" stroke-width="1.5"/>
      <path id="Path_29437" data-name="Path 29437" d="M2403.045-140.958" fill="none" stroke="#000" stroke-linecap="round" stroke-linejoin="round" stroke-width="1.5"/>
      <line id="Line_3950" data-name="Line 3950" x1="6.226" transform="translate(2371.012 -163.44)" fill="none" stroke="#000" stroke-linecap="round" stroke-linejoin="round" stroke-width="1.5"/>
      <line id="Line_3951" data-name="Line 3951" x1="4.011" transform="translate(2373.227 -159.032)" fill="none" stroke="#000" stroke-linecap="round" stroke-linejoin="round" stroke-width="1.5"/>
      <line id="Line_3952" data-name="Line 3952" x2="3.813" transform="translate(2395.721 -136.166)" fill="none" stroke="#000" stroke-linecap="round" stroke-linejoin="round" stroke-width="1.5"/>
      <line id="Line_3953" data-name="Line 3953" x2="27.542" transform="translate(2360.881 -149.534)" fill="none" stroke="#000" stroke-linecap="round" stroke-linejoin="round" stroke-width="1.5"/>
      <rect id="Rectangle_7867" data-name="Rectangle 7867" width="26.075" height="12.351" transform="translate(2382.941 -178.042)" fill="none" stroke="#000" stroke-linecap="round" stroke-linejoin="round" stroke-width="1.5"/>
      <line id="Line_3954" data-name="Line 3954" y2="6.457" transform="translate(2396.215 -165.691)" fill="none" stroke="#000" stroke-linecap="round" stroke-linejoin="round" stroke-width="1.5"/>
      <g id="Group_24564" data-name="Group 24564">
        <path id="Path_29438" data-name="Path 29438" d="M2387.8-171.123v2.756h-1.611v-7.821h3.05a3.531,3.531,0,0,1,1.55.323,2.382,2.382,0,0,1,1.029.916,2.548,2.548,0,0,1,.36,1.35,2.248,2.248,0,0,1-.787,1.813,3.28,3.28,0,0,1-2.178.663Zm0-1.3h1.439a1.414,1.414,0,0,0,.975-.3,1.091,1.091,0,0,0,.336-.859,1.283,1.283,0,0,0-.339-.929,1.26,1.26,0,0,0-.933-.365H2387.8Z"/>
        <path id="Path_29439" data-name="Path 29439" d="M2399.2-176.188v5.151a2.64,2.64,0,0,1-.8,2.031,3.1,3.1,0,0,1-2.2.746,3.129,3.129,0,0,1-2.175-.725,2.593,2.593,0,0,1-.822-1.993v-5.21h1.611v5.162a1.493,1.493,0,0,0,.369,1.12,1.409,1.409,0,0,0,1.017.352q1.359,0,1.38-1.429v-5.205Z"/>
        <path id="Path_29440" data-name="Path 29440" d="M2405.231-171.756h-3.094v2.094h3.631v1.295h-5.242v-7.821h5.231v1.306h-3.62v1.863h3.094Z"/>
      </g>
    </g>
    <rect id="Rectangle_7868" data-name="Rectangle 7868" width="70" height="70" transform="translate(2350 -187)" fill="none"/>
  </g>
</svg>
