<svg xmlns="http://www.w3.org/2000/svg" width="70" height="70" viewBox="0 0 70 70">
  <g id="Group_22441" data-name="Group 22441" transform="translate(180)">
    <g id="Group_22442" data-name="Group 22442">
      <g id="Group_22441-2" data-name="Group 22441">
        <line id="Line_4" data-name="Line 4" x2="8.375" transform="translate(-138.323 62.5)" fill="none" stroke="#19a301" stroke-linecap="round" stroke-linejoin="round" stroke-width="2.4"/>
        <line id="Line_5" data-name="Line 5" x2="0.679" transform="translate(-121.595 62.5)" fill="none" stroke="#19a301" stroke-linecap="round" stroke-linejoin="round" stroke-width="2.4"/>
        <line id="Line_6" data-name="Line 6" x2="8.298" transform="translate(-169.084 62.5)" fill="none" stroke="#19a301" stroke-linecap="round" stroke-linejoin="round" stroke-width="2.4"/>
        <line id="Line_7" data-name="Line 7" x2="14.628" transform="translate(-161.326 62.5)" fill="none" stroke="#82d400" stroke-linecap="round" stroke-linejoin="round" stroke-width="2.4"/>
      </g>
      <rect id="Rectangle_6906" data-name="Rectangle 6906" width="70" height="15" transform="translate(-180 55)" fill="none"/>
    </g>
    <rect id="Rectangle_6907" data-name="Rectangle 6907" width="70" height="70" transform="translate(-180)" fill="none"/>
    <circle id="Ellipse_2" data-name="Ellipse 2" cx="5.795" cy="5.795" r="5.795" transform="translate(-174.986 18.843)" fill="none" stroke="#19a301" stroke-linecap="round" stroke-linejoin="round" stroke-width="1.5"/>
    <rect id="Rectángulo_2137" data-name="Rectángulo 2137" width="17.581" height="20.911" transform="translate(-141.142 33.183)" fill="none" stroke="#000" stroke-linecap="round" stroke-linejoin="round" stroke-width="1.5"/>
    <path id="Trazado_5455" data-name="Trazado 5455" d="M-157.542,11.706h-11.1V15.7" fill="none" stroke="#000" stroke-linecap="round" stroke-linejoin="round" stroke-width="1.5"/>
    <path id="Trazado_5456" data-name="Trazado 5456" d="M-168.643,33.816V54.094h11.1V12.126" fill="none" stroke="#000" stroke-linecap="round" stroke-linejoin="round" stroke-width="1.5"/>
    <path id="Path_28559" data-name="Path 28559" d="M-157.556,33.184h5.983a4.021,4.021,0,0,1,3.857,4.158v5.983a4,4,0,0,0,3.842,4.145h2.594" fill="none" stroke="#000" stroke-linecap="round" stroke-linejoin="round" stroke-width="1.5"/>
    <path id="Trazado_5459" data-name="Trazado 5459" d="M-157.236,16.276h.684c2.832,0,5.125,1.858,5.125,4.151V54.1" fill="none" stroke="#000" stroke-linecap="round" stroke-linejoin="round" stroke-width="1.5"/>
    <line id="Línea_708" data-name="Línea 708" x1="55.426" transform="translate(-173.426 54.094)" fill="none" stroke="#000" stroke-linecap="round" stroke-linejoin="round" stroke-width="1.659"/>
    <path id="Trazado_5460" data-name="Trazado 5460" d="M-132.16,38.552c-.664,1.67-1.348,3.325-2.028,4.99-.545,1.328-1.2,2.776-.239,4.083a2.866,2.866,0,0,0,2.267,1.193,2.935,2.935,0,0,0,2.667-1.909c.482-1.2-.1-2.552-.618-3.621C-130.733,42-132.206,38.666-132.16,38.552Z" fill="none" stroke="#000" stroke-linecap="round" stroke-linejoin="round" stroke-width="1.5"/>
    <rect id="Rectangle_6908" data-name="Rectangle 6908" width="26.075" height="12.351" transform="translate(-145.389 14.376)" fill="none" stroke="#000" stroke-linecap="round" stroke-linejoin="round" stroke-width="1.5"/>
    <line id="Line_3078" data-name="Line 3078" y2="6.457" transform="translate(-132.115 26.727)" fill="none" stroke="#000" stroke-linecap="round" stroke-linejoin="round" stroke-width="1.5"/>
    <g id="Group_22443" data-name="Group 22443">
      <path id="Path_28560" data-name="Path 28560" d="M-136.419,23.509a2.488,2.488,0,0,1-.954.788,3.777,3.777,0,0,1-1.764.359,2.973,2.973,0,0,1-2.205-.882,3.116,3.116,0,0,1-.872-2.285V19.9a3.177,3.177,0,0,1,.841-2.285,2.861,2.861,0,0,1,2.168-.882,2.888,2.888,0,0,1,2.03.684,2.2,2.2,0,0,1,.724,1.742l-.01.033h-1a1.615,1.615,0,0,0-.454-1.172,1.719,1.719,0,0,0-1.29-.468,1.749,1.749,0,0,0-1.423.661,2.56,2.56,0,0,0-.539,1.676v1.6a2.494,2.494,0,0,0,.571,1.689,1.839,1.839,0,0,0,1.459.664,2.732,2.732,0,0,0,1.081-.177,1.549,1.549,0,0,0,.6-.421V21.51h-1.744V20.7h2.786Z" stroke="#000" stroke-miterlimit="10" stroke-width="0.437"/>
      <path id="Path_28561" data-name="Path 28561" d="M-133.747,21.209v3.336h-1.041V16.852h2.633a2.93,2.93,0,0,1,1.93.56,2.01,2.01,0,0,1,.666,1.629,1.743,1.743,0,0,1-.309,1.031,2.1,2.1,0,0,1-.9.7,1.573,1.573,0,0,1,.912.669,2.179,2.179,0,0,1,.278,1.144v.725a2.4,2.4,0,0,0,.079.645.961.961,0,0,0,.275.465v.127H-130.3a.861.861,0,0,1-.265-.528,4.364,4.364,0,0,1-.058-.72v-.7a1.393,1.393,0,0,0-.364-1,1.3,1.3,0,0,0-.979-.38Zm0-.82h1.486a1.934,1.934,0,0,0,1.272-.335,1.282,1.282,0,0,0,.388-1.024,1.319,1.319,0,0,0-.378-1.007,1.665,1.665,0,0,0-1.176-.357h-1.592Z" stroke="#000" stroke-miterlimit="10" stroke-width="0.437"/>
      <path id="Path_28562" data-name="Path 28562" d="M-123.756,22.563h-2.9l-.688,1.982H-128.4l2.776-7.7h.893l2.718,7.7h-1.063Zm-2.6-.873h2.3l-1.121-3.305h-.031Z" stroke="#000" stroke-miterlimit="10" stroke-width="0.437"/>
    </g>
  </g>
</svg>
