<svg xmlns="http://www.w3.org/2000/svg" width="70" height="70" viewBox="0 0 70 70">
  <g id="Group_22438" data-name="Group 22438" transform="translate(90)">
    <g id="Group_22439" data-name="Group 22439">
      <g id="Group_22438-2" data-name="Group 22438">
        <line id="Line_4" data-name="Line 4" x2="8.375" transform="translate(-48.323 62.5)" fill="none" stroke="#19a301" stroke-linecap="round" stroke-linejoin="round" stroke-width="2.4"/>
        <line id="Line_5" data-name="Line 5" x2="0.679" transform="translate(-31.595 62.5)" fill="none" stroke="#19a301" stroke-linecap="round" stroke-linejoin="round" stroke-width="2.4"/>
        <line id="Line_6" data-name="Line 6" x2="8.298" transform="translate(-79.084 62.5)" fill="none" stroke="#19a301" stroke-linecap="round" stroke-linejoin="round" stroke-width="2.4"/>
        <line id="Line_7" data-name="Line 7" x2="14.628" transform="translate(-71.326 62.5)" fill="none" stroke="#82d400" stroke-linecap="round" stroke-linejoin="round" stroke-width="2.4"/>
      </g>
      <rect id="Rectangle_6903" data-name="Rectangle 6903" width="70" height="15" transform="translate(-90 55)" fill="none"/>
    </g>
    <rect id="Rectangle_6904" data-name="Rectangle 6904" width="70" height="70" transform="translate(-90)" fill="none"/>
    <circle id="Ellipse_2" data-name="Ellipse 2" cx="5.795" cy="5.795" r="5.795" transform="translate(-84.986 18.843)" fill="none" stroke="#19a301" stroke-linecap="round" stroke-linejoin="round" stroke-width="1.5"/>
    <rect id="Rectángulo_2137" data-name="Rectángulo 2137" width="17.581" height="20.911" transform="translate(-51.142 33.183)" fill="none" stroke="#000" stroke-linecap="round" stroke-linejoin="round" stroke-width="1.5"/>
    <path id="Trazado_5455" data-name="Trazado 5455" d="M-67.542,11.706h-11.1V15.7" fill="none" stroke="#000" stroke-linecap="round" stroke-linejoin="round" stroke-width="1.5"/>
    <path id="Trazado_5456" data-name="Trazado 5456" d="M-78.643,33.816V54.094h11.1V12.126" fill="none" stroke="#000" stroke-linecap="round" stroke-linejoin="round" stroke-width="1.5"/>
    <path id="Path_28555" data-name="Path 28555" d="M-67.556,33.184h5.983a4.021,4.021,0,0,1,3.857,4.158v5.983a4,4,0,0,0,3.842,4.145h2.594" fill="none" stroke="#000" stroke-linecap="round" stroke-linejoin="round" stroke-width="1.5"/>
    <path id="Trazado_5459" data-name="Trazado 5459" d="M-67.236,16.276h.684c2.832,0,5.125,1.858,5.125,4.151V54.1" fill="none" stroke="#000" stroke-linecap="round" stroke-linejoin="round" stroke-width="1.5"/>
    <line id="Línea_708" data-name="Línea 708" x1="55.426" transform="translate(-83.426 54.094)" fill="none" stroke="#000" stroke-linecap="round" stroke-linejoin="round" stroke-width="1.659"/>
    <path id="Trazado_5460" data-name="Trazado 5460" d="M-42.16,38.552c-.664,1.67-1.348,3.325-2.028,4.99-.545,1.328-1.2,2.776-.239,4.083a2.866,2.866,0,0,0,2.267,1.193,2.935,2.935,0,0,0,2.667-1.909c.482-1.2-.1-2.552-.618-3.621C-40.733,42-42.206,38.666-42.16,38.552Z" fill="none" stroke="#000" stroke-linecap="round" stroke-linejoin="round" stroke-width="1.5"/>
    <rect id="Rectangle_6905" data-name="Rectangle 6905" width="26.075" height="12.351" transform="translate(-55.389 14.376)" fill="none" stroke="#000" stroke-linecap="round" stroke-linejoin="round" stroke-width="1.5"/>
    <line id="Line_3077" data-name="Line 3077" y2="6.457" transform="translate(-42.115 26.727)" fill="none" stroke="#000" stroke-linecap="round" stroke-linejoin="round" stroke-width="1.5"/>
    <g id="Group_22440" data-name="Group 22440">
      <path id="Path_28556" data-name="Path 28556" d="M-46.461,22.136l.01.031a2.319,2.319,0,0,1-.761,1.815,2.913,2.913,0,0,1-2.068.729,2.712,2.712,0,0,1-2.128-.926,3.4,3.4,0,0,1-.822-2.347V20.069a3.414,3.414,0,0,1,.822-2.351,2.714,2.714,0,0,1,2.128-.928,2.985,2.985,0,0,1,2.078.7,2.3,2.3,0,0,1,.751,1.842l-.01.032h-1a1.721,1.721,0,0,0-.475-1.28,1.835,1.835,0,0,0-1.344-.47,1.639,1.639,0,0,0-1.39.7,2.866,2.866,0,0,0-.518,1.745v1.38a2.883,2.883,0,0,0,.518,1.756,1.641,1.641,0,0,0,1.39.7,1.842,1.842,0,0,0,1.344-.468,1.733,1.733,0,0,0,.475-1.293Z" stroke="#000" stroke-miterlimit="10" stroke-width="0.437"/>
      <path id="Path_28557" data-name="Path 28557" d="M-39.218,21.438a3.285,3.285,0,0,1-.875,2.343,2.975,2.975,0,0,1-2.271.93,2.819,2.819,0,0,1-2.191-.93,3.355,3.355,0,0,1-.843-2.343V20.069a3.366,3.366,0,0,1,.843-2.343,2.814,2.814,0,0,1,2.191-.936,2.971,2.971,0,0,1,2.271.934,3.29,3.29,0,0,1,.875,2.345Zm-1.041-1.38a2.6,2.6,0,0,0-.571-1.735,1.9,1.9,0,0,0-1.534-.676,1.764,1.764,0,0,0-1.451.676,2.693,2.693,0,0,0-.542,1.735v1.38a2.707,2.707,0,0,0,.542,1.745,1.765,1.765,0,0,0,1.451.677,1.9,1.9,0,0,0,1.536-.674,2.62,2.62,0,0,0,.569-1.748Z" stroke="#000" stroke-miterlimit="10" stroke-width="0.437"/>
      <path id="Path_28558" data-name="Path 28558" d="M-35.495,22.58l.174.64h.032l.174-.64,1.988-5.678H-32l-2.861,7.7h-.894l-2.86-7.7h1.132Z" stroke="#000" stroke-miterlimit="10" stroke-width="0.437"/>
    </g>
  </g>
</svg>
