<svg xmlns="http://www.w3.org/2000/svg" width="70" height="70" viewBox="0 0 70 70">
  <g id="Group_22102" data-name="Group 22102" transform="translate(450 -90)">
    <g id="Group_22103" data-name="Group 22103">
      <g id="Group_22102-2" data-name="Group 22102">
        <line id="Line_4" data-name="Line 4" x2="8.375" transform="translate(-408.323 152.5)" fill="none" stroke="#19a301" stroke-linecap="round" stroke-linejoin="round" stroke-width="2.4"/>
        <line id="Line_5" data-name="Line 5" x2="0.679" transform="translate(-391.595 152.5)" fill="none" stroke="#19a301" stroke-linecap="round" stroke-linejoin="round" stroke-width="2.4"/>
        <line id="Line_6" data-name="Line 6" x2="8.298" transform="translate(-439.084 152.5)" fill="none" stroke="#19a301" stroke-linecap="round" stroke-linejoin="round" stroke-width="2.4"/>
        <line id="Line_7" data-name="Line 7" x2="14.628" transform="translate(-431.326 152.5)" fill="none" stroke="#82d400" stroke-linecap="round" stroke-linejoin="round" stroke-width="2.4"/>
      </g>
      <rect id="Rectangle_6734" data-name="Rectangle 6734" width="70" height="15" transform="translate(-450 145)" fill="none"/>
    </g>
    <rect id="Rectangle_6735" data-name="Rectangle 6735" width="70" height="70" transform="translate(-450 90)" fill="none"/>
    <circle id="Ellipse_2" data-name="Ellipse 2" cx="5.795" cy="5.795" r="5.795" transform="translate(-444.986 108.843)" fill="none" stroke="#19a301" stroke-linecap="round" stroke-linejoin="round" stroke-width="1.5"/>
    <rect id="Rectángulo_2137" data-name="Rectángulo 2137" width="17.581" height="20.911" transform="translate(-411.142 123.183)" fill="none" stroke="#000" stroke-linecap="round" stroke-linejoin="round" stroke-width="1.5"/>
    <path id="Trazado_5455" data-name="Trazado 5455" d="M-427.542,101.706h-11.1V105.7" fill="none" stroke="#000" stroke-linecap="round" stroke-linejoin="round" stroke-width="1.5"/>
    <path id="Trazado_5456" data-name="Trazado 5456" d="M-438.643,123.816v20.278h11.1V102.126" fill="none" stroke="#000" stroke-linecap="round" stroke-linejoin="round" stroke-width="1.5"/>
    <path id="Path_28248" data-name="Path 28248" d="M-427.556,123.184h5.983a4.021,4.021,0,0,1,3.857,4.158v5.983a4,4,0,0,0,3.842,4.145h2.594" fill="none" stroke="#000" stroke-linecap="round" stroke-linejoin="round" stroke-width="1.5"/>
    <path id="Trazado_5459" data-name="Trazado 5459" d="M-427.236,106.276h.684c2.832,0,5.125,1.858,5.125,4.151V144.1" fill="none" stroke="#000" stroke-linecap="round" stroke-linejoin="round" stroke-width="1.5"/>
    <line id="Línea_708" data-name="Línea 708" x1="55.426" transform="translate(-443.426 144.094)" fill="none" stroke="#000" stroke-linecap="round" stroke-linejoin="round" stroke-width="1.659"/>
    <path id="Trazado_5460" data-name="Trazado 5460" d="M-402.16,128.552c-.664,1.67-1.348,3.325-2.028,4.99-.545,1.328-1.2,2.776-.239,4.083a2.866,2.866,0,0,0,2.267,1.193,2.935,2.935,0,0,0,2.667-1.909c.482-1.2-.1-2.552-.618-3.621C-400.733,132-402.206,128.666-402.16,128.552Z" fill="none" stroke="#000" stroke-linecap="round" stroke-linejoin="round" stroke-width="1.5"/>
    <rect id="Rectangle_6736" data-name="Rectangle 6736" width="26.075" height="12.351" transform="translate(-415.389 104.376)" fill="none" stroke="#000" stroke-linecap="round" stroke-linejoin="round" stroke-width="1.5"/>
    <line id="Line_2906" data-name="Line 2906" y2="6.457" transform="translate(-402.115 116.727)" fill="none" stroke="#000" stroke-linecap="round" stroke-linejoin="round" stroke-width="1.5"/>
    <g id="Group_22104" data-name="Group 22104">
      <path id="Path_28249" data-name="Path 28249" d="M-412.511,106.992h3.241a2.2,2.2,0,0,1,1.549.541,1.967,1.967,0,0,1,.589,1.523,2.207,2.207,0,0,1-.527,1.467,1.975,1.975,0,0,1-1.611.626h-2.265v3.044h-.976Zm3.8.99a2.114,2.114,0,0,0-.885-.152h-1.942v2.495h1.942a1.855,1.855,0,0,0,1.065-.279,1.111,1.111,0,0,0,.409-.985A1.083,1.083,0,0,0-408.708,107.982Z" stroke="#000" stroke-miterlimit="10" stroke-width="0.418"/>
      <path id="Path_28250" data-name="Path 28250" d="M-399.976,108.022a3.964,3.964,0,0,1,.716,2.446,4.283,4.283,0,0,1-.818,2.681,3.247,3.247,0,0,1-2.741,1.255,3.274,3.274,0,0,1-2.612-1.1,4.143,4.143,0,0,1-.848-2.677,4.256,4.256,0,0,1,.725-2.5A3.145,3.145,0,0,1-402.8,106.8,3.3,3.3,0,0,1-399.976,108.022Zm-.859,4.586a3.952,3.952,0,0,0,.575-2.126,3.041,3.041,0,0,0-.663-2.044,2.272,2.272,0,0,0-1.817-.774,2.366,2.366,0,0,0-1.824.768,3.232,3.232,0,0,0-.706,2.261,3.293,3.293,0,0,0,.6,2.016,2.273,2.273,0,0,0,1.964.822A2.034,2.034,0,0,0-400.835,112.608Z" stroke="#000" stroke-miterlimit="10" stroke-width="0.418"/>
      <path id="Path_28251" data-name="Path 28251" d="M-397.98,106.992h3.333a3.327,3.327,0,0,1,1.358.24,1.7,1.7,0,0,1,1.014,1.7,1.912,1.912,0,0,1-.267,1.059,1.936,1.936,0,0,1-.747.662,1.478,1.478,0,0,1,.635.451,1.625,1.625,0,0,1,.237.907l.035.965a2.916,2.916,0,0,0,.068.613.6.6,0,0,0,.314.441v.162h-1.2a.9.9,0,0,1-.079-.24,4.959,4.959,0,0,1-.049-.569l-.058-1.2a1.01,1.01,0,0,0-.525-.946,2.173,2.173,0,0,0-.877-.132h-2.221v3.088h-.975Zm3.23,3.3a1.9,1.9,0,0,0,1.087-.274,1.123,1.123,0,0,0,.4-.991,1.062,1.062,0,0,0-.559-1.049,1.824,1.824,0,0,0-.8-.147h-2.382v2.461Z" stroke="#000" stroke-miterlimit="10" stroke-width="0.418"/>
    </g>
  </g>
</svg>
