<?xml version="1.0" encoding="utf-8"?>
<!-- Generator: Adobe Illustrator 24.0.2, SVG Export Plug-In . SVG Version: 6.00 Build 0)  -->
<svg version="1.1" id="icon__tlu" xmlns="http://www.w3.org/2000/svg" xmlns:xlink="http://www.w3.org/1999/xlink" x="0px" y="0px"
	 viewBox="0 0 70 70" style="enable-background:new 0 0 70 70;" xml:space="preserve">
<style type="text/css">
	.st0{fill:none;}
	.st1{clip-path:url(#SVGID_2_);}
	.st2{clip-path:url(#SVGID_4_);}
	.st3{fill:none;stroke:#19A301;stroke-width:2.4;stroke-linecap:round;stroke-linejoin:round;}
	.st4{fill:none;stroke:#82D400;stroke-width:2.4;stroke-linecap:round;stroke-linejoin:round;}
	.st5{fill:none;stroke:#000000;stroke-width:1.5;stroke-linecap:round;stroke-linejoin:round;stroke-miterlimit:10;}
	.st6{fill:none;stroke:#19A301;stroke-width:1.5;stroke-linecap:round;stroke-linejoin:round;}
	.st7{stroke:#000000;stroke-width:0.437;stroke-miterlimit:10;}
</style>
<rect id="Rectangle_7838" class="st0" width="70" height="70"/>
<g id="Group_24516">
	<g>
		<defs>
			<rect id="SVGID_1_" y="55" width="70" height="15"/>
		</defs>
		<clipPath id="SVGID_2_">
			<use xlink:href="#SVGID_1_"  style="overflow:visible;"/>
		</clipPath>
		<g id="Group_24515" class="st1">
			<g>
				<defs>
					<rect id="SVGID_3_" y="55" width="70" height="15"/>
				</defs>
				<clipPath id="SVGID_4_">
					<use xlink:href="#SVGID_3_"  style="overflow:visible;"/>
				</clipPath>
				<g id="Group_24514" transform="translate(35 62.5)" class="st2">
					<g id="Group_24513">
						<line id="Line_4_1_" class="st3" x1="6.7" y1="0" x2="15.1" y2="0"/>
						<line id="Line_5_1_" class="st3" x1="23.4" y1="0" x2="24.1" y2="0"/>
						<line id="Line_6_1_" class="st3" x1="-24.1" y1="0" x2="-15.8" y2="0"/>
						<line id="Line_7_1_" class="st4" x1="-16.3" y1="0" x2="-1.7" y2="0"/>
					</g>
					<rect id="Rectangle_7839" x="-35" y="-7.5" class="st0" width="70" height="15"/>
				</g>
			</g>
		</g>
	</g>
</g>
<g id="Group_24517">
	<path id="Path_29404" class="st5" d="M65.7,51.4c-3.8,0-3.8-3.7-7.7-3.7c-3.8,0-3.8,3.7-7.7,3.7c-3.8,0-3.8-3.7-7.7-3.7
		c-3.8,0-3.8,3.7-7.7,3.7c-3.8,0-3.8-3.7-7.7-3.7c-3.8,0-3.8,3.7-7.7,3.7c-3.8,0-3.8-3.7-7.7-3.7c-3.8,0-3.8,3.7-7.7,3.7"/>
	<line id="Line_3926" class="st5" x1="24.3" y1="44.3" x2="16.9" y2="44.3"/>
	<line id="Line_3927" class="st5" x1="50" y1="30" x2="50" y2="30"/>
	<path id="Path_29405" class="st5" d="M17.9,26.1V30h22.5"/>
	<path id="Path_29406" class="st6" d="M22,15.8c0.5,1.1,0.5,2.3,0.2,3.4c-0.4,1.2-1.3,2.2-2.5,2.8c-2.3,1.1-5.1,0-6.2-2.3
		s0-5.1,2.3-6.2S20.9,13.5,22,15.8z"/>
	<path id="Path_29407" class="st5" d="M50,30h4V16.2c0-0.8-0.7-1.5-1.5-1.5H26.4"/>
	<path id="Path_29408" class="st5" d="M45.9,9H32.1c-1.2,0-2.2,1-2.2,2.2v3.5h17.9v-3.8C47.8,9.9,46.9,9,45.9,9z"/>
	<path id="Path_29409" class="st5" d="M40.4,30H13.7c-0.9,0-1.7,0.8-1.7,1.7v15.5"/>
	<path id="Path_29410" class="st5" d="M60.2,48.3V31.5c0-0.8-0.7-1.5-1.5-1.5H50"/>
	<line id="Line_3929" class="st5" x1="29.1" y1="34.6" x2="12" y2="34.6"/>
	<line id="Line_3930" class="st5" x1="24.3" y1="34.6" x2="24.3" y2="48.7"/>
	<line id="Line_3931" class="st5" x1="24.3" y1="39" x2="16.9" y2="39"/>
	<line id="Line_3932" class="st5" x1="16.8" y1="34.6" x2="16.8" y2="50.2"/>
	<line id="Line_3933" class="st5" x1="29.1" y1="30" x2="29.1" y2="47.6"/>
	<path id="Path_29411" class="st5" d="M40.4,30.1l-0.1,7.3H50V30"/>
	<line id="Line_3934" class="st5" x1="34.4" y1="9" x2="34.4" y2="14.7"/>
	<line id="Line_3935" class="st5" x1="38.8" y1="9" x2="38.8" y2="14.7"/>
	<line id="Line_3936" class="st5" x1="43.4" y1="9" x2="43.4" y2="14.7"/>
	<g>
		<path id="Path_28578" class="st7" d="M34.2,25.5H37v0.8h-3.8v-7.7h1L34.2,25.5z"/>
		<g>
			<path id="Path_28578_1_" class="st7" d="M29,19.4h-1.8v-0.8H30v7.7h-1L29,19.4z"/>
			<path id="Path_28578_2_" class="st7" d="M30.5,19.4h-1.8v-0.8h2.8v0.8H30.5L30.5,19.4z"/>
		</g>
		<path id="Path_29439" d="M44,18.6v5.2c0,0.8-0.3,1.5-0.8,2c-0.6,0.5-1.4,0.8-2.2,0.7c-0.8,0-1.6-0.2-2.2-0.7
			c-0.6-0.5-0.9-1.2-0.8-2v-5.2h1.6v5.2c0,0.4,0.1,0.8,0.4,1.1c0.3,0.2,0.6,0.4,1,0.4c0.9,0,1.4-0.5,1.4-1.4v-5.2H44z"/>
		<g>
			<path d="M50.4,26.3h-4.8v-1l2.2-2.8c0.3-0.4,0.5-0.8,0.7-1.1c0.1-0.3,0.2-0.6,0.2-0.8c0-0.3-0.1-0.6-0.2-0.8
				c-0.1-0.2-0.3-0.3-0.6-0.3c-0.3,0-0.5,0.1-0.7,0.4c-0.2,0.3-0.2,0.6-0.2,1h-1.5l0,0c0-0.7,0.2-1.3,0.6-1.8c0.4-0.5,1-0.7,1.8-0.7
				c0.7,0,1.3,0.2,1.7,0.6c0.4,0.4,0.6,1,0.6,1.7c0,0.5-0.1,0.9-0.4,1.3c-0.2,0.4-0.6,0.9-1.2,1.6l-1.1,1.6h2.9V26.3z"/>
		</g>
	</g>
	<line id="Line_3937" class="st5" x1="55.1" y1="30" x2="55.1" y2="37.9"/>
	<line id="Line_3938" class="st5" x1="34.7" y1="30" x2="34.7" y2="37.9"/>
</g>
</svg>
