<svg id="Grupo_24417" data-name="Grupo 24417" xmlns="http://www.w3.org/2000/svg" width="56" height="56" viewBox="0 0 56 56">
  <g id="Grupo_24416" data-name="Grupo 24416">
    <g id="Grupo_24413" data-name="Grupo 24413">
      <path id="Trazado_29005" data-name="Trazado 29005" d="M4.609,38.522V29.215a3.969,3.969,0,0,1,3.959-3.959H17.23a3.973,3.973,0,0,1,3.807,2.891" fill="none" stroke="#19a301" stroke-linecap="round" stroke-linejoin="round" stroke-width="1.3"/>
      <circle id="Elipse_3239" data-name="Elipse 3239" cx="4.426" cy="4.426" r="4.426" transform="translate(8.291 13.446)" fill="none" stroke="#19a301" stroke-linecap="round" stroke-linejoin="round" stroke-width="1.3"/>
    </g>
    <g id="Grupo_24414" data-name="Grupo 24414">
      <path id="Trazado_29006" data-name="Trazado 29006" d="M18.634,42.554v-10.5a4.4,4.4,0,0,1,4.382-4.382H32.6a4.4,4.4,0,0,1,4.382,4.382v10.5" fill="none" stroke="#19a301" stroke-linecap="round" stroke-linejoin="round" stroke-width="1.3"/>
      <circle id="Elipse_3240" data-name="Elipse 3240" cx="4.9" cy="4.9" r="4.9" transform="translate(22.708 14.599)" fill="none" stroke="#19a301" stroke-linecap="round" stroke-linejoin="round" stroke-width="1.3"/>
    </g>
    <g id="Grupo_24415" data-name="Grupo 24415">
      <path id="Trazado_29007" data-name="Trazado 29007" d="M34.909,28.341a3.977,3.977,0,0,1,3.861-3.085h8.662a3.976,3.976,0,0,1,3.959,3.959v9.307" fill="none" stroke="#19a301" stroke-linecap="round" stroke-linejoin="round" stroke-width="1.3"/>
      <circle id="Elipse_3241" data-name="Elipse 3241" cx="4.426" cy="4.426" r="4.426" transform="translate(38.494 13.446)" fill="none" stroke="#19a301" stroke-linecap="round" stroke-linejoin="round" stroke-width="1.3"/>
    </g>
  </g>
  <rect id="Rectángulo_7623" data-name="Rectángulo 7623" width="56" height="56" fill="none"/>
</svg>
