<svg id="Grupo_24409" data-name="Grupo 24409" xmlns="http://www.w3.org/2000/svg" width="56" height="56" viewBox="0 0 56 56">
  <g id="Grupo_24408" data-name="Grupo 24408">
    <path id="Trazado_28997" data-name="Trazado 28997" d="M32.961,35.174a4.982,4.982,0,1,1-9.965,0" fill="none" stroke="#19a301" stroke-linecap="round" stroke-linejoin="round" stroke-width="1.3"/>
    <path id="Trazado_28998" data-name="Trazado 28998" d="M37.834,35.064c.209.024.414.057.617.1a6.933,6.933,0,0,1,5.208,5.416,22.959,22.959,0,0,1,.509,4.994v3.143H15.213" fill="none" stroke="#19a301" stroke-linecap="round" stroke-linejoin="round" stroke-width="1.3"/>
    <path id="Trazado_28999" data-name="Trazado 28999" d="M18.166,35.064c-.209.024-.414.057-.617.1a6.933,6.933,0,0,0-5.208,5.416,22.959,22.959,0,0,0-.509,4.994v3.143H40.787" fill="none" stroke="#19a301" stroke-linecap="round" stroke-linejoin="round" stroke-width="1.3"/>
    <path id="Trazado_29000" data-name="Trazado 29000" d="M18.36,35.053a7.125,7.125,0,0,0-1.982.494" fill="none" stroke="#19a301" stroke-linecap="round" stroke-linejoin="round" stroke-width="1.3"/>
    <path id="Trazado_29001" data-name="Trazado 29001" d="M30.905,30.552v4.521h2.038l4.876-.009V17.1A9.815,9.815,0,0,0,28,7.284h0A9.815,9.815,0,0,0,18.189,17.1v18L23,35.091h1.858V30.552" fill="none" stroke="#19a301" stroke-linecap="round" stroke-linejoin="round" stroke-width="1.3"/>
    <path id="Trazado_29002" data-name="Trazado 29002" d="M34.9,20.663v4.065a5.945,5.945,0,0,1-5.944,5.945H27.057a5.945,5.945,0,0,1-5.944-5.945V20.663c0-.1,0-.194.007-.29v-.9H25.2s5.126.069,5.126-4.78c0,0,.139,4.711,4.434,4.711Z" fill="none" stroke="#19a301" stroke-linecap="round" stroke-linejoin="round" stroke-width="1.3"/>
  </g>
  <rect id="Rectángulo_7620" data-name="Rectángulo 7620" width="56" height="56" fill="none"/>
</svg>
