<?xml version="1.0" encoding="utf-8"?>
<!-- Generator: Adobe Illustrator 24.0.2, SVG Export Plug-In . SVG Version: 6.00 Build 0)  -->
<svg version="1.1" id="Layer_1" xmlns="http://www.w3.org/2000/svg" xmlns:xlink="http://www.w3.org/1999/xlink" x="0px" y="0px"
	 viewBox="0 0 70 70" style="enable-background:new 0 0 70 70;" xml:space="preserve">
<style type="text/css">
	.st0{fill:none;stroke:#19A301;stroke-width:2.4;stroke-linecap:round;stroke-linejoin:round;}
	.st1{fill:none;stroke:#82D400;stroke-width:2.4;stroke-linecap:round;stroke-linejoin:round;}
	.st2{fill:none;}
	.st3{fill:none;stroke:#19A301;stroke-width:1.5;stroke-linecap:round;stroke-linejoin:round;}
	.st4{fill:none;stroke:#000000;stroke-width:1.3075;stroke-linecap:round;stroke-linejoin:round;stroke-miterlimit:10;}
</style>
<symbol  id="OCENSA-EXT" viewBox="-35 -7.5 70 15">
	<g>
		<line id="Line_4_1_" class="st0" x1="6.7" y1="0" x2="15.1" y2="0"/>
		<line id="Line_5_1_" class="st0" x1="23.4" y1="0" x2="24.1" y2="0"/>
		<line id="Line_6_1_" class="st0" x1="-24.1" y1="0" x2="-15.8" y2="0"/>
		<line id="Line_7_1_" class="st1" x1="-16.3" y1="0" x2="-1.7" y2="0"/>
	</g>
	<rect x="-35" y="-7.5" class="st2" width="70" height="15"/>
</symbol>
<g id="Capa_2">
</g>
<g id="Capa_1">
	<g>
		<g>
			<defs>
				<rect id="SVGID_1_" y="55" width="70" height="15"/>
			</defs>
			<clipPath id="SVGID_2_">
				<use xlink:href="#SVGID_1_"  style="overflow:visible;"/>
			</clipPath>
			<g style="clip-path:url(#SVGID_2_);">
				
					<use xlink:href="#OCENSA-EXT"  width="70" height="15" x="-35" y="-7.5" transform="matrix(1 0 0 -1 35 62.5)" style="overflow:visible;"/>
			</g>
		</g>
		<rect class="st2" width="70" height="70"/>
	</g>
</g>
<circle id="Ellipse_2_3_" class="st3" cx="22.7" cy="31.2" r="5.8"/>
<g>
	<path class="st4" d="M18.3,55c4.2,0,4.2-2.5,8.3-2.5c4.2,0,4.2,2.5,8.3,2.5c4.2,0,4.2-2.5,8.3-2.5c4.2,0,4.2,2.5,8.3,2.5"/>
</g>
<g>
	<path class="st4" d="M30.4,36.4c0.4,0.2,0.7,0.3,1.1,0.5c2,0.8,3.5,1.1,3.5,1.1s0,0,0-0.1c-0.3-0.7-2.9-8,0-13.5c0,0,0-0.1-0.1-0.1
		c-3.2-5.8-11.6-7.4-11.6-7.4s-0.6,1.5-1,3.8c-0.1,0.6-0.2,1.2-0.3,1.8"/>
	<path class="st4" d="M46.6,30.5C43.4,36.3,35,37.9,35,37.9s-3.2-7.9,0-13.7c3.2-5.8,11.6-7.4,11.6-7.4S49.8,24.6,46.6,30.5z"/>
	<path class="st4" d="M34.9,24.1c0,0,0,0.1,0.1,0.1c0,0,0-0.1,0.1-0.1c1.5-2.7,4-4.5,6.4-5.6C40.6,12.6,35,7.9,35,7.9
		s-5.6,4.6-6.5,10.6C30.9,19.7,33.5,21.5,34.9,24.1z"/>
</g>
<line class="st4" x1="35" y1="54.4" x2="35" y2="37.9"/>
<g>
	<path class="st4" d="M37.1,43c-2.3,2.3-1.9,6.3-1.9,6.3s4,0.4,6.3-1.9c2.3-2.3,1.9-6.3,1.9-6.3S39.4,40.7,37.1,43z"/>
	<line class="st4" x1="35.3" y1="49.3" x2="39.4" y2="45.2"/>
</g>
</svg>
