<svg id="Grupo_23907" data-name="Grupo 23907" xmlns="http://www.w3.org/2000/svg" width="70" height="70" viewBox="0 0 70 70">
  <g id="Grupo_23903" data-name="Grupo 23903">
    <g id="Grupo_23902" data-name="Grupo 23902">
      <g id="Grupo_23901" data-name="Grupo 23901">
        <line id="Line_4" data-name="Line 4" x2="8.375" transform="translate(41.677 62.5)" fill="none" stroke="#19a301" stroke-linecap="round" stroke-linejoin="round" stroke-width="2.4"/>
        <line id="Line_5" data-name="Line 5" x2="0.679" transform="translate(58.405 62.5)" fill="none" stroke="#19a301" stroke-linecap="round" stroke-linejoin="round" stroke-width="2.4"/>
        <line id="Line_6" data-name="Line 6" x2="8.298" transform="translate(10.916 62.5)" fill="none" stroke="#19a301" stroke-linecap="round" stroke-linejoin="round" stroke-width="2.4"/>
        <line id="Line_7" data-name="Line 7" x2="14.628" transform="translate(18.674 62.5)" fill="none" stroke="#82d400" stroke-linecap="round" stroke-linejoin="round" stroke-width="2.4"/>
      </g>
      <rect id="Rectángulo_7374" data-name="Rectángulo 7374" width="70" height="15" transform="translate(0 55)" fill="none"/>
    </g>
  </g>
  <rect id="Rectángulo_7375" data-name="Rectángulo 7375" width="70" height="70" fill="none"/>
  <g id="Grupo_23906" data-name="Grupo 23906">
    <circle id="Ellipse_2" data-name="Ellipse 2" cx="5.795" cy="5.795" r="5.795" transform="translate(6.507 10.843)" fill="none" stroke="#19a301" stroke-linecap="round" stroke-linejoin="round" stroke-width="1.5"/>
    <line id="Línea_3947" data-name="Línea 3947" y2="31.058" transform="translate(20.806 22.402)" fill="none" stroke="#000" stroke-linecap="round" stroke-linejoin="round" stroke-width="1.5"/>
    <g id="Grupo_23904" data-name="Grupo 23904">
      <line id="Línea_3948" data-name="Línea 3948" y2="38.103" transform="translate(53.143 15.729)" fill="none" stroke="#000" stroke-linecap="round" stroke-linejoin="round" stroke-width="1.5"/>
      <circle id="Elipse_3200" data-name="Elipse 3200" cx="10.333" cy="10.333" r="10.333" transform="translate(42.827 8.732)" fill="none" stroke="#000" stroke-linecap="round" stroke-linejoin="round" stroke-width="1.5"/>
      <line id="Línea_3949" data-name="Línea 3949" y1="3.856" x2="3.856" transform="translate(53.464 16.112)" fill="none" stroke="#000" stroke-linecap="round" stroke-linejoin="round" stroke-width="1.5"/>
      <line id="Línea_3950" data-name="Línea 3950" x2="4.76" y2="3.269" transform="translate(48.279 22.495)" fill="none" stroke="#000" stroke-linecap="round" stroke-linejoin="round" stroke-width="1.5"/>
    </g>
    <line id="Línea_3951" data-name="Línea 3951" x1="54.184" transform="translate(8.887 54.022)" fill="none" stroke="#000" stroke-linecap="round" stroke-linejoin="round" stroke-width="1.5"/>
    <g id="Grupo_23905" data-name="Grupo 23905">
      <path id="Trazado_29289" data-name="Trazado 29289" d="M27.33,43.808l10.781-6.1,10.715,6.3" fill="none" stroke="#000" stroke-linecap="round" stroke-linejoin="round" stroke-width="1.5"/>
      <line id="Línea_3952" data-name="Línea 3952" y1="11.05" transform="translate(30.091 42.756)" fill="none" stroke="#000" stroke-linecap="round" stroke-linejoin="round" stroke-width="1.5"/>
      <line id="Línea_3953" data-name="Línea 3953" y2="11.463" transform="translate(45.869 42.559)" fill="none" stroke="#000" stroke-linecap="round" stroke-linejoin="round" stroke-width="1.5"/>
    </g>
    <path id="Trazado_29290" data-name="Trazado 29290" d="M8.325,24.2a6.026,6.026,0,0,0-1.361,3.85,5.6,5.6,0,0,0,5.383,5.793H29.265a5.6,5.6,0,0,0,5.383-5.793,5.6,5.6,0,0,0-5.383-5.793h-.7a4,4,0,0,0,1.617-3.259,3.79,3.79,0,0,0-3.644-3.922H24.772a3.481,3.481,0,0,0,.44-1.681,4.168,4.168,0,0,0-4.406-3.879,4.805,4.805,0,0,0-2.522.7" fill="none" stroke="#000" stroke-linecap="round" stroke-linejoin="round" stroke-width="1.5"/>
  </g>
</svg>
