<?xml version="1.0" encoding="utf-8"?>
<!-- Generator: Adobe Illustrator 24.0.2, SVG Export Plug-In . SVG Version: 6.00 Build 0)  -->
<svg version="1.1" xmlns="http://www.w3.org/2000/svg" xmlns:xlink="http://www.w3.org/1999/xlink" x="0px" y="0px"
	 viewBox="0 0 70 70" style="enable-background:new 0 0 70 70;" xml:space="preserve">
<style type="text/css">
	.st0{fill:none;stroke:#19A301;stroke-width:2.4;stroke-linecap:round;stroke-linejoin:round;}
	.st1{fill:none;stroke:#82D400;stroke-width:2.4;stroke-linecap:round;stroke-linejoin:round;}
	.st2{fill:none;}
	.st3{fill:#999999;}
	.st4{fill:none;stroke:#19A301;stroke-width:1.5;stroke-linecap:round;stroke-linejoin:round;}
	.st5{fill:none;stroke:#000000;stroke-width:1.5;stroke-linecap:round;stroke-linejoin:round;stroke-miterlimit:10;}
	.st6{fill:none;stroke:#000000;stroke-width:1.394;stroke-linecap:round;stroke-linejoin:round;stroke-miterlimit:10;}
	.st7{fill:none;stroke:#000000;stroke-width:0.224;stroke-linecap:round;stroke-linejoin:round;stroke-miterlimit:10;}
	.st8{fill:none;stroke:#000000;stroke-width:1.2878;stroke-linecap:round;stroke-linejoin:round;stroke-miterlimit:10;}
	.st9{fill:none;stroke:#000000;stroke-width:1.6609;stroke-linecap:round;stroke-linejoin:round;stroke-miterlimit:10;}
	.st10{fill:none;stroke:#00A800;stroke-width:1.6707;stroke-miterlimit:10;}
	.st11{fill:none;stroke:#00A800;stroke-width:1.5;stroke-miterlimit:10;}
	.st12{fill:none;stroke:#FFFFFF;stroke-width:1.5;stroke-linecap:round;stroke-linejoin:round;stroke-miterlimit:10;}
	.st13{fill:none;stroke:#19A301;stroke-width:1.5;stroke-linecap:round;stroke-linejoin:round;stroke-miterlimit:10;}
	.st14{fill:none;stroke:#000000;stroke-width:1.2721;stroke-linecap:round;stroke-linejoin:round;stroke-miterlimit:10;}
	.st15{fill:none;stroke:#000000;stroke-width:1.3075;stroke-linecap:round;stroke-linejoin:round;stroke-miterlimit:10;}
	.st16{fill:none;stroke:#19A301;stroke-width:1.3145;stroke-linecap:round;stroke-linejoin:round;}
	.st17{fill:none;stroke:#000000;stroke-width:1.5545;stroke-linecap:round;stroke-linejoin:round;stroke-miterlimit:10;}
	.st18{fill:none;stroke:#FFFFFF;stroke-width:1.5944;stroke-linecap:round;stroke-linejoin:round;stroke-miterlimit:10;}
	.st19{fill:none;stroke:#FFFFFF;stroke-width:1.4947;stroke-linecap:round;stroke-linejoin:round;stroke-miterlimit:10;}
	.st20{fill:none;stroke:#FFFFFF;stroke-width:1.6588;stroke-linecap:round;stroke-linejoin:round;stroke-miterlimit:10;}
	.st21{fill:none;stroke:#000000;stroke-width:1.5763;stroke-linecap:round;stroke-linejoin:round;stroke-miterlimit:10;}
	.st22{font-family:'MyriadPro-Regular';}
	.st23{font-size:7px;}
	.st24{fill:none;stroke:#000000;stroke-width:1.6588;stroke-linecap:round;stroke-linejoin:round;stroke-miterlimit:10;}
	.st25{stroke:#000000;stroke-width:0.3431;stroke-miterlimit:10;}
	.st26{stroke:#000000;stroke-width:0.4369;stroke-miterlimit:10;}
	.st27{stroke:#000000;stroke-width:0.4183;stroke-miterlimit:10;}
</style>
<symbol  id="OCENSA-EXT" viewBox="-35 -7.5 70 15">
	<g>
		<line id="Line_4_2_" class="st0" x1="6.68" y1="0" x2="15.05" y2="0"/>
		<line id="Line_5_2_" class="st0" x1="23.41" y1="0" x2="24.08" y2="0"/>
		<line id="Line_6_2_" class="st0" x1="-24.08" y1="0" x2="-15.79" y2="0"/>
		<line id="Line_7_2_" class="st1" x1="-16.33" y1="0" x2="-1.7" y2="0"/>
	</g>
	<rect x="-35" y="-7.5" class="st2" width="70" height="15"/>
</symbol>
<g id="Capa_2">
</g>
<g id="Capa_1">
	<g>
		
			<use xlink:href="#OCENSA-EXT"  width="70" height="15" x="-35" y="-7.5" transform="matrix(1 0 0 -1 35 62.5)" style="overflow:visible;"/>
		<rect class="st2" width="70" height="70"/>
		<g>
			<g>
				<circle id="Ellipse_2_132_" class="st4" cx="16.5" cy="27.32" r="5.8"/>
			</g>
			<path class="st5" d="M22.35,20.5c1.46-1.43,3.2-2.59,5.17-3.41c2.42-1,5.48-1.76,9.3-1.97l0.82-2.73c0.2-0.65,0.68-1.16,1.32-1.4
				c2.58-0.96,9.58-2.86,15.83,1.92c0.68,0.52,0.99,1.4,0.78,2.23c-0.57,2.32-2.7,6.91-10.51,9.4c-0.73,0.23-1.52,0.19-2.21-0.14
				l-2.51-1.23c0,0-10.17,2.14-12.19,15.19c-0.3,1.96-0.12,3.99,0.7,5.79c1.65,3.65,6.32,7.97,19.45,5.02c0,0-4.16,7.04-14.42,4.79
				c-4-0.88-7.66-3-10.44-6.01c-2.47-2.68-5.18-6.67-5.98-11.84"/>
			<path class="st5" d="M35.15,25.75l3.13,2.67c0.94,0.79,1.05,2.19,0.26,3.13c-0.8,0.93-2.2,1.04-3.13,0.25l-3.42-2.91"/>
			<path class="st5" d="M31.44,15.86l-0.67-4.21c-0.19-1.21-1.33-2.03-2.54-1.84c-1.21,0.19-2.03,1.33-1.84,2.54l0.77,4.9"/>
			<path class="st5" d="M29.81,45.81l2.88-1.66c1.06-0.61,1.43-1.97,0.81-3.03c-0.61-1.06-1.97-1.43-3.03-0.81l-2.38,1.37"/>
			<path class="st5" d="M23.93,48.47l-4.47,1.44c-1.16,0.37-2.41-0.27-2.79-1.44c-0.38-1.16,0.26-2.41,1.43-2.79l2.82-0.91"/>
			<circle class="st5" cx="47.29" cy="20.5" r="2"/>
			<circle class="st5" cx="43.29" cy="12.5" r="2"/>
			<path class="st5" d="M55.75,14.26c0,0,3.54,0.24,3.54-2.76"/>
		</g>
	</g>
	<rect x="0.72" y="-10.44" class="st2" width="70.71" height="14.13"/>
	<text transform="matrix(1 0 0 1 0.7181 -5.4689)" class="st22 st23">vivienda</text>
</g>
</svg>
