<svg id="Grupo_23789" data-name="Grupo 23789" xmlns="http://www.w3.org/2000/svg" width="70" height="70" viewBox="0 0 70 70">
  <g id="Grupo_23785" data-name="Grupo 23785">
    <g id="Grupo_23784" data-name="Grupo 23784">
      <g id="Grupo_23783" data-name="Grupo 23783">
        <line id="Line_4" data-name="Line 4" x2="8.375" transform="translate(41.677 62.5)" fill="none" stroke="#19a301" stroke-linecap="round" stroke-linejoin="round" stroke-width="2.4"/>
        <line id="Line_5" data-name="Line 5" x2="0.679" transform="translate(58.405 62.5)" fill="none" stroke="#19a301" stroke-linecap="round" stroke-linejoin="round" stroke-width="2.4"/>
        <line id="Line_6" data-name="Line 6" x2="8.298" transform="translate(10.916 62.5)" fill="none" stroke="#19a301" stroke-linecap="round" stroke-linejoin="round" stroke-width="2.4"/>
        <line id="Line_7" data-name="Line 7" x2="14.628" transform="translate(18.674 62.5)" fill="none" stroke="#82d400" stroke-linecap="round" stroke-linejoin="round" stroke-width="2.4"/>
      </g>
      <rect id="Rectángulo_7328" data-name="Rectángulo 7328" width="70" height="15" transform="translate(0 55)" fill="none"/>
    </g>
  </g>
  <rect id="Rectángulo_7329" data-name="Rectángulo 7329" width="70" height="70" fill="none"/>
  <g id="Grupo_23788" data-name="Grupo 23788">
    <circle id="Ellipse_2" data-name="Ellipse 2" cx="5.795" cy="5.795" r="5.795" transform="translate(7.507 21.605)" fill="none" stroke="#19a301" stroke-linecap="round" stroke-linejoin="round" stroke-width="1.5"/>
    <g id="Grupo_23787" data-name="Grupo 23787">
      <g id="Grupo_23786" data-name="Grupo 23786">
        <path id="Trazado_29225" data-name="Trazado 29225" d="M32.317,34.011,41.741,19.09l9.424,15.216" fill="none" stroke="#000" stroke-linecap="round" stroke-linejoin="round" stroke-width="1.5"/>
        <path id="Trazado_29226" data-name="Trazado 29226" d="M20.183,34.011l8.655-12.046,6.077,7.366" fill="none" stroke="#000" stroke-linecap="round" stroke-linejoin="round" stroke-width="1.5"/>
        <path id="Trazado_29227" data-name="Trazado 29227" d="M36.987,26.691l2.637,2.356,2.188-2.3,2.412,2.244,2.244-2.3" fill="none" stroke="#000" stroke-linecap="round" stroke-linejoin="round" stroke-width="1.5"/>
      </g>
      <path id="Trazado_29228" data-name="Trazado 29228" d="M13.971,18.448V17.8a3.862,3.862,0,0,1,3.861-3.862H54.76A3.862,3.862,0,0,1,58.622,17.8V41.239A3.862,3.862,0,0,1,54.76,45.1H17.832a3.861,3.861,0,0,1-3.861-3.861V36.553" fill="none" stroke="#000" stroke-linecap="round" stroke-linejoin="round" stroke-width="1.5"/>
      <path id="Trazado_29229" data-name="Trazado 29229" d="M20.059,14.031" fill="none" stroke="#000" stroke-linecap="round" stroke-linejoin="round" stroke-width="1.5"/>
      <path id="Trazado_29230" data-name="Trazado 29230" d="M20.059,45.249" fill="none" stroke="#000" stroke-linecap="round" stroke-linejoin="round" stroke-width="1.5"/>
      <path id="Trazado_29231" data-name="Trazado 29231" d="M24.477,45.19v9.341H20.059V45.249" fill="none" stroke="#000" stroke-linecap="round" stroke-linejoin="round" stroke-width="1.5"/>
      <path id="Trazado_29232" data-name="Trazado 29232" d="M52.885,45.19v9.341H48.467V45.249" fill="none" stroke="#000" stroke-linecap="round" stroke-linejoin="round" stroke-width="1.5"/>
      <path id="Trazado_29233" data-name="Trazado 29233" d="M24.477,45.19" fill="none" stroke="#000" stroke-linecap="round" stroke-linejoin="round" stroke-width="1.5"/>
      <path id="Trazado_29234" data-name="Trazado 29234" d="M24.477,13.973" fill="none" stroke="#000" stroke-linecap="round" stroke-linejoin="round" stroke-width="1.5"/>
      <path id="Trazado_29235" data-name="Trazado 29235" d="M20.059,13.86V11.728A2.138,2.138,0,0,1,22.2,9.59h.142a2.138,2.138,0,0,1,2.138,2.138V13.8" fill="none" stroke="#000" stroke-linecap="round" stroke-linejoin="round" stroke-width="1.5"/>
      <path id="Trazado_29236" data-name="Trazado 29236" d="M48.365,13.86V11.728A2.138,2.138,0,0,1,50.5,9.59h.142a2.138,2.138,0,0,1,2.138,2.138V13.8" fill="none" stroke="#000" stroke-linecap="round" stroke-linejoin="round" stroke-width="1.5"/>
      <circle id="Elipse_3195" data-name="Elipse 3195" cx="2.349" cy="2.349" r="2.349" transform="translate(49.847 18.452)" fill="none" stroke="#000" stroke-linecap="round" stroke-linejoin="round" stroke-width="1.5"/>
    </g>
    <line id="Línea_3905" data-name="Línea 3905" x2="52.394" transform="translate(10.099 54.521)" fill="none" stroke="#000" stroke-linecap="round" stroke-linejoin="round" stroke-width="1.5"/>
  </g>
</svg>
